<svg xmlns="http://www.w3.org/2000/svg" viewBox="0 0 24 24" id="Bold"><path d="M23,5.947A1.929,1.929,0,0,0,21.1,4H19.251A.25.25,0,0,1,19,3.75V3a3,3,0,0,0-3-3H13a3,3,0,0,0-3,3v.75a.25.25,0,0,1-.25.25h-2a.25.25,0,0,1-.25-.25V3a1,1,0,0,1,1-1,1,1,0,0,0,0-2,3,3,0,0,0-3,3v.75a.25.25,0,0,1-.25.25H3.5A2,2,0,0,0,1.434,5.859L0,22.053A2.014,2.014,0,0,0,2.072,24H22.1A1.941,1.941,0,0,0,24,21.99ZM12,3a1,1,0,0,1,1-1h3a1,1,0,0,1,1,1v.75a.25.25,0,0,1-.25.25h-4.5A.25.25,0,0,1,12,3.75ZM2.559,21.975a.5.5,0,0,1-.5-.547l1.4-14.974A.5.5,0,0,1,3.957,6H6.582a.5.5,0,0,1,.5.472l.833,14.994a.5.5,0,0,1-.5.528Z"></path></svg>