<svg xmlns="http://www.w3.org/2000/svg" id="Bold" viewBox="0 0 24 24"><path d="M23.8,10.962a2.694,2.694,0,0,1,0-3.254,1.023,1.023,0,0,0-.113-1.337L17.629.31A1.027,1.027,0,0,0,16.292.2a2.7,2.7,0,0,1-3.254,0A1.023,1.023,0,0,0,11.7.311L.146,11.865a.5.5,0,0,0-.057.638A3.2,3.2,0,0,1,.661,14.33a3.126,3.126,0,0,1-.447,1.614A1.047,1.047,0,0,0,.357,17.22L6.78,23.643a1.052,1.052,0,0,0,1.277.142,3.2,3.2,0,0,1,3.44.126.5.5,0,0,0,.638-.058L23.688,12.3A1.022,1.022,0,0,0,23.8,10.962Zm-4.359.363L11.17,19.6a2.126,2.126,0,0,1-3.008,0L4.4,15.838a2.128,2.128,0,0,1,0-3.009l8.273-8.273a2.128,2.128,0,0,1,3.008,0l3.76,3.761A2.126,2.126,0,0,1,19.443,11.325Z"></path><path d="M14.708,7.034a.75.75,0,0,0-1.061,0L6.879,13.8A.75.75,0,1,0,7.94,14.864L14.708,8.1A.75.75,0,0,0,14.708,7.034Z"></path><path d="M14.2,11.345l-3.008,3.009a.75.75,0,1,0,1.06,1.06l3.008-3.008a.75.75,0,0,0-1.06-1.061Z"></path></svg>