<svg xmlns="http://www.w3.org/2000/svg" id="Bold" viewBox="0 0 24 24"><path d="M23.4,1.5A1.5,1.5,0,0,0,21.9,0H4.4A1.5,1.5,0,0,0,2.9,1.5v.75a.5.5,0,0,0,.5.5h.956a.75.75,0,0,1,0,1.5h-3a.75.75,0,0,0,0,1.5H2.4a.5.5,0,0,1,.5.5v4a.5.5,0,0,0,.5.5h.956a.75.75,0,0,1,0,1.5h-3a.75.75,0,0,0,0,1.5H2.4a.5.5,0,0,1,.5.5v4a.5.5,0,0,0,.5.5h.956a.75.75,0,1,1,0,1.5h-3a.75.75,0,0,0,0,1.5H2.4a.5.5,0,0,1,.5.5v.25A1.5,1.5,0,0,0,4.4,24H21.9a1.5,1.5,0,0,0,1.5-1.5ZM11.385,10.22a.5.5,0,0,0-.288.453V17.5a.75.75,0,0,1-1.5,0V10.675a.5.5,0,0,0-.288-.453A2.449,2.449,0,0,1,7.9,8V6.7a2.45,2.45,0,1,1,4.9,0V8A2.454,2.454,0,0,1,11.385,10.22Zm9.262-2.47a3.5,3.5,0,0,1-2.176,3.3.5.5,0,0,0-.324.467V17.5a.75.75,0,0,1-1.5,0V11.521a.5.5,0,0,0-.323-.467,3.5,3.5,0,0,1-2.177-3.3V5a.75.75,0,1,1,1.5,0V7.75a2.137,2.137,0,0,0,.569,1.475.25.25,0,0,0,.431-.173V5a.75.75,0,0,1,1.5,0V9.052a.25.25,0,0,0,.431.173,2.132,2.132,0,0,0,.569-1.475V5a.75.75,0,0,1,1.5,0Z"></path></svg>