<svg xmlns="http://www.w3.org/2000/svg" width="27.364" height="18.242" viewBox="0 0 27.364 18.242">
  <path id="Path_12744" data-name="Path 12744" d="M13.105,976.362a2.111,2.111,0,0,0-.789.154l11.741,10.459a.876.876,0,0,0,1.272,0l11.719-10.459a2.111,2.111,0,0,0-.789-.154Zm-2.083,1.809a2.165,2.165,0,0,0-.022.3V992.5a2.109,2.109,0,0,0,.164.811l8.1-7.784-8.244-7.356Zm27.32,0-8.222,7.345L38.21,993.3a2.116,2.116,0,0,0,.153-.8V978.467a2.222,2.222,0,0,0-.022-.3Zm-9.8,8.759-1.809,1.623a3.086,3.086,0,0,1-4.078,0l-1.809-1.612-7.981,7.652a2.2,2.2,0,0,0,.241.011H36.259c.077,0,.156,0,.23-.011l-7.948-7.663Z" transform="translate(-11 -976.362)" fill="#e5175b"/>
</svg>
