<svg width="36" height="54" viewBox="0 0 36 54" fill="none" xmlns="http://www.w3.org/2000/svg">
<path d="M18 0.5C8.086 0.5 0 8.586 0 18.5C0 21.312 1.14 24.54 2.688 28.062C4.234 31.586 6.228 35.328 8.25 38.812C10.7978 43.1833 13.5083 47.4576 16.376 51.626L18 54L19.626 51.624C19.626 51.624 23.704 45.79 27.75 38.812C29.774 35.328 31.766 31.586 33.312 28.062C34.86 24.54 36 21.312 36 18.5C36 8.586 27.914 0.5 18 0.5ZM18 4.5C25.758 4.5 32 10.742 32 18.5C32 20.1 31.14 23.132 29.688 26.438C28.234 29.742 26.228 33.406 24.25 36.812C21.11 42.234 19.156 45.102 18 46.812C16.844 45.102 14.89 42.234 11.75 36.812C9.774 33.406 7.766 29.742 6.312 26.438C4.86 23.132 4 20.1 4 18.5C4 10.742 10.242 4.5 18 4.5ZM18 14.5C16.9391 14.5 15.9217 14.9214 15.1716 15.6716C14.4214 16.4217 14 17.4391 14 18.5C14 19.5609 14.4214 20.5783 15.1716 21.3284C15.9217 22.0786 16.9391 22.5 18 22.5C19.0609 22.5 20.0783 22.0786 20.8284 21.3284C21.5786 20.5783 22 19.5609 22 18.5C22 17.4391 21.5786 16.4217 20.8284 15.6716C20.0783 14.9214 19.0609 14.5 18 14.5Z" fill="black"/>
</svg>
