<svg width="16" height="16" viewBox="0 0 16 16" fill="none" xmlns="http://www.w3.org/2000/svg">
<path d="M15.5145 15.5145L15.5146 15.5145C15.6952 15.3339 15.6952 15.0411 15.5145 14.8605C15.5145 14.8605 15.5145 14.8605 15.5145 14.8605L11.05 10.3959C11.9658 9.33105 12.525 7.9501 12.525 6.43748C12.525 3.08074 9.79428 0.35 6.43751 0.35C3.08074 0.35 0.35 3.08074 0.35 6.43751C0.35 9.79428 3.08074 12.525 6.43751 12.525C7.95013 12.525 9.33105 11.9658 10.396 11.05L14.8605 15.5145C14.9508 15.6048 15.0694 15.65 15.1875 15.65C15.3057 15.65 15.4242 15.6048 15.5145 15.5145ZM6.43751 11.6C3.59128 11.6 1.27502 9.28403 1.27502 6.43751C1.27502 3.59099 3.59128 1.27499 6.43751 1.27499C9.28374 1.27499 11.6 3.59096 11.6 6.43751C11.6 9.28406 9.28375 11.6 6.43751 11.6Z" fill="black" stroke="black" stroke-width="0.3"/>
</svg>
