<svg width="17" height="17" viewBox="0 0 17 17" fill="none" xmlns="http://www.w3.org/2000/svg">
<path d="M13.9733 10.8906C13.1019 10.0012 12.0648 9.3427 10.9333 8.9441C12.1452 8.09199 12.9414 6.66592 12.9414 5.05338C12.9414 2.45004 10.8666 0.332031 8.31641 0.332031C5.76619 0.332031 3.69141 2.45004 3.69141 5.05338C3.69141 6.66592 4.48762 8.09199 5.69959 8.9441C4.56803 9.3427 3.53091 10.0012 2.65956 10.8906C1.14856 12.4331 0.316406 14.484 0.316406 16.6654H1.56641C1.56641 12.8659 4.59444 9.77474 8.31641 9.77474C12.0384 9.77474 15.0664 12.8659 15.0664 16.6654H16.3164C16.3164 14.484 15.4843 12.4331 13.9733 10.8906ZM8.31641 8.4987C6.45544 8.4987 4.94141 6.95316 4.94141 5.05338C4.94141 3.15361 6.45544 1.60807 8.31641 1.60807C10.1774 1.60807 11.6914 3.15361 11.6914 5.05338C11.6914 6.95316 10.1774 8.4987 8.31641 8.4987Z" fill="black"/>
</svg>
