<svg id="viber_1_" data-name="viber (1)" xmlns="http://www.w3.org/2000/svg" width="23.576" height="25.742" viewBox="0 0 23.576 25.742">
  <path id="Path_12736" data-name="Path 12736" d="M24.715,14.889c.767-6.459-.369-10.536-2.418-12.381h0C18.991-.642,7.823-1.108,3.866,2.649,2.089,4.487,1.464,7.184,1.4,10.523s-.15,9.6,5.681,11.3h.005l-.005,2.592s-.04,1.05.631,1.261c.767.249,1.115-.239,3.5-3.09a21.839,21.839,0,0,0,7.4-.563c.806-.27,5.366-.873,6.1-7.131ZM11.6,20.759s-2.526,3.15-3.311,3.967c-.257.266-.539.241-.535-.286,0-.346.019-4.3.019-4.3-4.944-1.417-4.652-6.745-4.6-9.532s.564-5.072,2.068-6.61C8.715.739,18.507,1.467,21,3.812c3.05,2.7,1.964,10.342,1.971,10.6-.627,5.223-4.322,5.554-5,5.78a20.148,20.148,0,0,1-6.37.564Z" transform="translate(-1.38 0.013)" fill="#e5175b"/>
  <path id="Path_12737" data-name="Path 12737" d="M12.243,4.3a.325.325,0,0,0,0,.648c3.2.025,5.837,2.256,5.866,6.348a.314.314,0,1,0,.627-.005h0C18.7,6.879,15.822,4.322,12.243,4.3Z" transform="translate(-0.624 0.322)" fill="#e5175b"/>
  <path id="Path_12738" data-name="Path 12738" d="M16.416,10.5a.314.314,0,1,0,.627.015,4.34,4.34,0,0,0-4.264-4.646.325.325,0,0,0-.044.648A3.7,3.7,0,0,1,16.416,10.5Z" transform="translate(-0.587 0.435)" fill="#e5175b"/>
  <path id="Path_12739" data-name="Path 12739" d="M16.187,13.332a.99.99,0,0,0-1.291.185l-.466.6a.834.834,0,0,1-.679.266,6.22,6.22,0,0,1-4.094-4.234.9.9,0,0,1,.256-.7l.583-.482a1.074,1.074,0,0,0,.179-1.336,13.927,13.927,0,0,0-1.6-2.306.863.863,0,0,0-1.16-.2h-.01c-.927.542-1.942,1.557-1.617,2.6.554,1.1,1.572,4.613,4.817,7.267a18.524,18.524,0,0,0,4.963,2.838l.01.015c1.009.336,1.991-.718,2.515-1.673v-.008a.919.919,0,0,0-.184-1.185,12.634,12.634,0,0,0-2.225-1.652Z" transform="translate(-1.032 0.372)" fill="#e5175b"/>
  <path id="Path_12740" data-name="Path 12740" d="M13.189,8.147c1.03.06,1.529.6,1.583,1.7a.314.314,0,1,0,.627-.03A2.151,2.151,0,0,0,13.223,7.5a.325.325,0,0,0-.034.648Z" transform="translate(-0.555 0.551)" fill="#e5175b"/>
</svg>
