<svg xmlns="http://www.w3.org/2000/svg" width="305" height="463" viewBox="0 0 305 463">
  <g id="Group_8936" data-name="Group 8936" transform="translate(-1444 -2048)">
    <path id="Fig_2" data-name="Fig 2" d="M-12255,835a140.168,140.168,0,0,1-99.719-41.3A140.153,140.153,0,0,1-12396,694a140.157,140.157,0,0,1,41.281-99.7A140.172,140.172,0,0,1-12255,553a140.074,140.074,0,0,1,99.688,41.3A140.122,140.122,0,0,1-12114,694a140.118,140.118,0,0,1-41.312,99.7A140.07,140.07,0,0,1-12255,835Zm0-212.732A71.81,71.81,0,0,0-12326.734,694,71.808,71.808,0,0,0-12255,765.73a71.808,71.808,0,0,0,71.734-71.73A71.81,71.81,0,0,0-12255,622.267Z" transform="translate(13840 1676)" fill="#eb3717"/>
    <path id="Fig_2-2" data-name="Fig 2" d="M-12325.5,694a70.084,70.084,0,0,1-49.859-20.649A70.077,70.077,0,0,1-12396,623.5a70.078,70.078,0,0,1,20.641-49.852A70.086,70.086,0,0,1-12325.5,553a70.041,70.041,0,0,1,49.845,20.649A70.064,70.064,0,0,1-12255,623.5a70.062,70.062,0,0,1-20.655,49.851A70.039,70.039,0,0,1-12325.5,694Zm0-106.366a35.906,35.906,0,0,0-35.867,35.866,35.9,35.9,0,0,0,35.867,35.865,35.9,35.9,0,0,0,35.867-35.865A35.905,35.905,0,0,0-12325.5,587.633Z" transform="translate(13981 1495)" fill="#eb3717"/>
    <path id="Fig_2-3" data-name="Fig 2" d="M-12360,625a35.787,35.787,0,0,1-25.46-10.544A35.784,35.784,0,0,1-12396,589a35.785,35.785,0,0,1,10.54-25.456A35.788,35.788,0,0,1-12360,553a35.766,35.766,0,0,1,25.453,10.544A35.779,35.779,0,0,1-12324,589a35.778,35.778,0,0,1-10.547,25.456A35.765,35.765,0,0,1-12360,625Zm0-54.315A18.335,18.335,0,0,0-12378.314,589,18.334,18.334,0,0,0-12360,607.314,18.334,18.334,0,0,0-12341.685,589,18.334,18.334,0,0,0-12360,570.685Z" transform="translate(14073 1636)" fill="#eb3717"/>
  </g>
</svg>
