<svg xmlns="http://www.w3.org/2000/svg" width="17" height="14.956" viewBox="0 0 17 14.956">
  <g id="Group_6" data-name="Group 6" transform="translate(-1 -2.443)">
    <path id="Path_13" data-name="Path 13" d="M1,6.377a.713.713,0,0,0,.432.659l7.792,3.223a.685.685,0,0,0,.545,0l7.792-3.223A.72.72,0,0,0,18,6.377a.71.71,0,0,0-.439-.652L9.762,2.5a.726.726,0,0,0-.545,0L1.432,5.726A.7.7,0,0,0,1,6.377Z" fill="#919499"/>
    <path id="Path_14" data-name="Path 14" d="M1.432,13.245l7.792,3.223c.565.236.545-.146,8.337-3.223A.72.72,0,0,0,18,12.586a.71.71,0,0,0-.439-.652l-.843-.347-6.41,2.649a2.094,2.094,0,0,1-1.636-.007l-6.4-2.642-.843.347A.7.7,0,0,0,1,12.586.713.713,0,0,0,1.432,13.245Z" transform="translate(0 -2.667)" fill="#919499"/>
    <path id="Path_15" data-name="Path 15" d="M1.432,18.245l7.792,3.223a.685.685,0,0,0,.545,0l7.792-3.223A.72.72,0,0,0,18,17.586a.71.71,0,0,0-.439-.652l-.843-.347-6.41,2.649a2.094,2.094,0,0,1-1.636-.007l-6.4-2.642-.843.347A.7.7,0,0,0,1,17.586.713.713,0,0,0,1.432,18.245Z" transform="translate(0 -4.126)" fill="#919499"/>
  </g>
</svg>
