<svg xmlns="http://www.w3.org/2000/svg" width="15.994" height="16" viewBox="0 0 15.994 16">
  <g id="noun_Speaker_2181640" transform="translate(-2 -2)">
    <path id="Path_6" data-name="Path 6" d="M20,7.54v5.536A3.2,3.2,0,0,0,20,7.54Z" transform="translate(-3.6 -1.108)" fill="#919499"/>
    <path id="Path_7" data-name="Path 7" d="M6,13.2h4.576l3.808,2.288A.8.8,0,0,0,15.6,14.8V2.8a.8.8,0,0,0-1.208-.688L10.576,4.4H6a4,4,0,0,0-4,4v.8A4,4,0,0,0,6,13.2Z" transform="translate(0)" fill="#919499"/>
    <path id="Path_8" data-name="Path 8" d="M7,17v3.2a.8.8,0,0,0,.8.8H11a.8.8,0,0,0,.8-.8V17.264L11.36,17Z" transform="translate(-1 -3)" fill="#919499"/>
  </g>
</svg>
