<svg xmlns="http://www.w3.org/2000/svg" width="17" height="17.829" viewBox="0 0 17 17.829">
  <g id="Group_5" data-name="Group 5" transform="translate(-4.266 -2.5)">
    <path id="Path_9" data-name="Path 9" d="M8.17,72.3H4.83a.786.786,0,0,0-.83.732V76.3a.787.787,0,0,0,.83.732H8.17A.786.786,0,0,0,9,76.3V73.032A.774.774,0,0,0,8.17,72.3Z" transform="translate(0.266 -56.7)" fill="#919499"/>
    <path id="Path_10" data-name="Path 10" d="M42.391,62.2H39.03a.817.817,0,0,0-.83.8v5.656a.817.817,0,0,0,.83.8h3.34a.817.817,0,0,0,.83-.8V63A.786.786,0,0,0,42.391,62.2Z" transform="translate(-27.933 -49.132)" fill="#919499"/>
    <path id="Path_11" data-name="Path 11" d="M76.67,34.7H73.33a.842.842,0,0,0-.83.852V47.541a.842.842,0,0,0,.83.852h3.34a.842.842,0,0,0,.83-.852V35.552A.829.829,0,0,0,76.67,34.7Z" transform="translate(-56.234 -28.083)" fill="#919499"/>
    <path id="Path_12" data-name="Path 12" d="M15.184,7.192a4.692,4.692,0,1,0-4.692,4.692A4.693,4.693,0,0,0,15.184,7.192Zm-2.778.525h-1.9a.525.525,0,0,1-.525-.525V4.808a.525.525,0,1,1,1.051,0V6.666h1.37a.525.525,0,0,1,0,1.051Z" transform="translate(-1.462 0)" fill="#919499"/>
  </g>
</svg>
