<svg xmlns="http://www.w3.org/2000/svg" width="23.533" height="16.952" viewBox="0 0 23.533 16.952">
  <g id="Group_7307" data-name="Group 7307" transform="translate(-35.734 -143.848)">
    <g id="Group_3" data-name="Group 3" transform="translate(49.734 147.103)">
      <path id="Path_2" data-name="Path 2" d="M54.677,5.355A2.649,2.649,0,0,1,52,2.677a2.677,2.677,0,1,1,2.677,2.677Z" transform="translate(-49.891)" fill="#919499" fill-rule="evenodd"/>
      <path id="Path_3" data-name="Path 3" d="M4.787,143a4.594,4.594,0,0,1,4.746,4.462v.892a.5.5,0,0,1-.527.487H.568A.516.516,0,0,1,0,148.355v-.892A4.631,4.631,0,0,1,4.787,143Z" transform="translate(0 -137.199)" fill="#919499" fill-rule="evenodd"/>
    </g>
    <g id="Group_4" data-name="Group 4" transform="translate(35.734 147.103)">
      <path id="Path_2-2" data-name="Path 2" d="M54.677,5.355A2.649,2.649,0,0,1,52,2.677a2.677,2.677,0,1,1,2.677,2.677Z" transform="translate(-49.891)" fill="#919499" fill-rule="evenodd"/>
      <path id="Path_3-2" data-name="Path 3" d="M4.787,143a4.594,4.594,0,0,1,4.746,4.462v.892a.5.5,0,0,1-.527.487H.568A.516.516,0,0,1,0,148.355v-.892A4.631,4.631,0,0,1,4.787,143Z" transform="translate(0 -137.199)" fill="#919499" fill-rule="evenodd"/>
    </g>
    <g id="Group_2" data-name="Group 2" transform="translate(40.887 143.848)">
      <g id="Path_3-3" data-name="Path 3" transform="translate(0 -134.952)" fill="#919499" fill-rule="evenodd">
        <path d="M 12.4938850402832 151.5041809082031 L 0.7879047989845276 151.5041809082031 C 0.1106948181986809 151.5041809082031 -0.3999951779842377 151.0418701171875 -0.3999951779842377 150.4288024902344 L -0.3999951779842377 149.190673828125 C -0.3999951779842377 145.5565795898438 2.758534908294678 142.6000061035156 6.640894889831543 142.6000061035156 C 8.511654853820801 142.6000061035156 10.26540470123291 143.2806854248047 11.57909488677979 144.5166320800781 C 12.89874458312988 145.7582092285156 13.62551498413086 147.4181365966797 13.62551498413086 149.190673828125 L 13.62551498413086 150.4288024902344 C 13.62551498413086 151.0318145751953 13.12844467163086 151.5041809082031 12.4938850402832 151.5041809082031 Z" stroke="none"/>
        <path d="M 6.640894889831543 143.0000152587891 C 2.98277473449707 143.0000152587891 -4.76837158203125e-06 145.7576751708984 -4.76837158203125e-06 149.190673828125 L -4.76837158203125e-06 150.4288024902344 C -4.76837158203125e-06 150.82275390625 0.3376750946044922 151.1041717529297 0.7879047393798828 151.1041717529297 L 12.4938850402832 151.1041717529297 C 12.8878345489502 151.1041717529297 13.22550487518311 150.82275390625 13.22550487518311 150.4288024902344 L 13.22550487518311 149.190673828125 C 13.22550487518311 145.7576751708984 10.29901504516602 143.0000152587891 6.640894889831543 143.0000152587891 M 6.640894889831543 142.2000122070313 C 8.613914489746094 142.2000122070313 10.46500492095947 142.9192810058594 11.85317516326904 144.2252960205078 C 13.25402450561523 145.5432586669922 14.02550506591797 147.3066558837891 14.02550506591797 149.190673828125 L 14.02550506591797 150.4288024902344 C 14.02550506591797 151.2561187744141 13.35273456573486 151.9041748046875 12.4938850402832 151.9041748046875 L 0.7879047393798828 151.9041748046875 C -0.1173553466796875 151.9041748046875 -0.8000049591064453 151.2698974609375 -0.8000049591064453 150.4288024902344 L -0.8000049591064453 149.190673828125 C -0.8000049591064453 147.3081207275391 -0.01731491088867188 145.5435791015625 1.403894424438477 144.2221069335938 C 2.8062744140625 142.9181365966797 4.666144371032715 142.2000122070313 6.640894889831543 142.2000122070313 Z" stroke="none" fill="#fff"/>
      </g>
      <path id="Path_2-3" data-name="Path 2" d="M55.714,7.429A3.676,3.676,0,0,1,52,3.714a3.714,3.714,0,1,1,3.714,3.714Z" transform="translate(-49.073)" fill="#919499" fill-rule="evenodd"/>
    </g>
  </g>
</svg>
