<svg xmlns="http://www.w3.org/2000/svg" width="342.962" height="78.11" viewBox="0 0 342.962 78.11">
  <g id="logo-jsd" transform="translate(986 -897.854)">
    <g id="logo" transform="translate(-986 897.854)">
      <g id="Сгруппировать_2" data-name="Сгруппировать 2" transform="translate(0 39.43)">
        <path id="Контур_1" data-name="Контур 1" d="M82.48,208.76V195.865H95.37v-12.89H82.48V170.08H69.585v12.895H56.69v12.89H69.585V208.76Z" transform="translate(-56.69 -170.08)" fill="#00bc82"/>
      </g>
      <g id="Сгруппировать_3" data-name="Сгруппировать 3" transform="translate(12.877 0.732)">
        <path id="Контур_2" data-name="Контур 2" d="M130.143,149.483H123.7v-12.89h6.445a6.485,6.485,0,0,0,6.45-6.45V97.913H104.358a6.48,6.48,0,0,0-6.445,6.445V110.8H85v-6.445A19.451,19.451,0,0,1,104.358,85h45.125v45.125A19.45,19.45,0,0,1,130.143,149.483Z" transform="translate(-85 -85)" fill="#00bc82"/>
      </g>
      <g id="Сгруппировать_4" data-name="Сгруппировать 4" transform="translate(90.255 0.732)">
        <path id="Контур_3" data-name="Контур 3" d="M255.12,114.829v-6.754a8.722,8.722,0,0,0,1.519.127c2.661,0,3.543-1.014,3.543-4.012V85h7.641v20.564c0,6.331-2.729,9.415-9.624,9.415A25.983,25.983,0,0,1,255.12,114.829Z" transform="translate(-255.12 -85)" fill="#00bc82"/>
      </g>
      <g id="Сгруппировать_5" data-name="Сгруппировать 5" transform="translate(105.152 8.879)">
        <path id="Контур_4" data-name="Контур 4" d="M288.886,119.271a12.623,12.623,0,0,1-1.01-5.235,12.415,12.415,0,0,1,1.01-5.172c1.692-3.716,5.363-5.954,10.552-5.954s8.865,2.2,10.511,5.913a13.6,13.6,0,0,1,0,10.507c-1.647,3.675-5.317,5.868-10.511,5.868S290.578,122.987,288.886,119.271Zm14.1-1.774a8.579,8.579,0,0,0,.5-3.461,8.217,8.217,0,0,0-.5-3.416,3.474,3.474,0,0,0-3.548-1.983,3.525,3.525,0,0,0-3.543,1.983,9.1,9.1,0,0,0-.509,3.416,9.348,9.348,0,0,0,.509,3.461,4.161,4.161,0,0,0,7.091.009Z" transform="translate(-287.873 -102.91)" fill="#00bc82"/>
      </g>
      <g id="Сгруппировать_6" data-name="Сгруппировать 6" transform="translate(130.227 0.732)">
        <path id="Контур_5" data-name="Контур 5" d="M363.977,101.279v13.55h-7.05V102.8c0-2.788-1.1-3.925-3.293-3.925-2.32,0-3.584,1.365-3.584,4.135v11.826H343V85h7.05V96.371a7.343,7.343,0,0,1,6.459-3.252C361.235,93.128,363.977,96,363.977,101.279Z" transform="translate(-343 -85)" fill="#00bc82"/>
      </g>
      <g id="Сгруппировать_7" data-name="Сгруппировать 7" transform="translate(152.759 8.879)">
        <path id="Контур_6" data-name="Контур 6" d="M414.03,112.475v12.117h-7.05V122.1c-1.392,1.942-3.543,3.079-6.964,3.079-3.334,0-5.827-1.178-6.882-3.543a6.544,6.544,0,0,1-.591-3,7.2,7.2,0,0,1,.509-2.87c1.519-3.293,5.613-4.053,10.762-4.053H407v-.337a4.745,4.745,0,0,0-.337-2.274q-.637-1.4-2.911-1.4c-1.647,0-2.579.423-3,1.365a3.633,3.633,0,0,0-.255,1.269h-7.2a7.837,7.837,0,0,1,.637-2.956c1.392-3.079,4.981-4.476,9.706-4.476,5.108,0,8.105,1.365,9.5,4.394A13.309,13.309,0,0,1,414.03,112.475Zm-7.428,5.781a4.785,4.785,0,0,0,.378-2.32v-.3h-2.7c-2.024,0-3.671.214-4.135,1.31a1.993,1.993,0,0,0-.214.91,2.109,2.109,0,0,0,.214,1.014c.418.91,1.519,1.264,2.784,1.264C404.829,120.158,406.052,119.485,406.6,118.256Z" transform="translate(-392.538 -102.91)" fill="#00bc82"/>
      </g>
      <g id="Сгруппировать_8" data-name="Сгруппировать 8" transform="translate(176.698 8.851)">
        <path id="Контур_7" data-name="Контур 7" d="M466.147,111.01v13.55H459.1V112.529c0-2.788-1.1-3.925-3.289-3.925-2.324,0-3.589,1.365-3.589,4.135v11.826h-7.05V103.5h7.05V106.1a7.343,7.343,0,0,1,6.459-3.252C463.4,102.859,466.147,105.729,466.147,111.01Z" transform="translate(-445.17 -102.85)" fill="#00bc82"/>
      </g>
      <g id="Сгруппировать_9" data-name="Сгруппировать 9" transform="translate(200.336 8.851)">
        <path id="Контур_8" data-name="Контур 8" d="M518.117,111.01v13.55h-7.05V112.529c0-2.788-1.1-3.925-3.293-3.925-2.32,0-3.589,1.365-3.589,4.135v11.826H497.14V103.5h7.046V106.1a7.353,7.353,0,0,1,6.459-3.252C515.375,102.859,518.117,105.729,518.117,111.01Z" transform="translate(-497.14 -102.85)" fill="#00bc82"/>
      </g>
      <g id="Сгруппировать_10" data-name="Сгруппировать 10" transform="translate(222.907 8.856)">
        <path id="Контур_9" data-name="Контур 9" d="M562.222,117.479h7.132a7.278,7.278,0,0,1-2.406,4.94c-2.065,1.9-5.108,2.729-8.442,2.729-5.19,0-9.033-2.065-10.721-5.822a13.1,13.1,0,0,1-1.014-5.363,12.024,12.024,0,0,1,1.014-5.276c1.646-3.671,5.276-5.827,10.257-5.827,5.067,0,8.7,2.238,10.384,5.913.91,2.065,1.1,3.925,1.1,6.964H553.908a6.431,6.431,0,0,0,.5,2.238c.591,1.365,1.942,2.024,3.966,2.024a4.481,4.481,0,0,0,2.957-.91A2.674,2.674,0,0,0,562.222,117.479Zm-7.81-7.555a5.211,5.211,0,0,0-.455,1.819h8.378a4.229,4.229,0,0,0-.423-1.819c-.632-1.392-1.9-2.065-3.757-2.065s-3.1.664-3.743,2.056Z" transform="translate(-546.763 -102.86)" fill="#00bc82"/>
      </g>
      <g id="Сгруппировать_11" data-name="Сгруппировать 11" transform="translate(246.679 8.888)">
        <path id="Контур_10" data-name="Контур 10" d="M599.7,121.1a8.1,8.1,0,0,1-.673-3.416h6.923a3.711,3.711,0,0,0,.3,1.642,2.415,2.415,0,0,0,2.488,1.365c1.1,0,1.9-.337,2.2-1.01a1.716,1.716,0,0,0,.168-.805,1.442,1.442,0,0,0-.168-.76c-.5-1.137-2.2-1.474-4.476-2.065-2.447-.637-5.108-1.606-6.2-4.012a5.971,5.971,0,0,1-.455-2.406,6.332,6.332,0,0,1,.55-2.729c1.178-2.661,4.43-3.971,8.4-3.971s7.1,1.183,8.319,3.884a7.134,7.134,0,0,1,.591,2.956h-6.682a3.524,3.524,0,0,0-.25-1.437,2.158,2.158,0,0,0-2.111-1.137c-1.01,0-1.646.337-1.9.91a1.864,1.864,0,0,0-.127.673,1.583,1.583,0,0,0,.127.678c.55,1.137,2.574,1.6,4.6,2.11,2.911.76,5.572,1.769,6.668,4.175a5.742,5.742,0,0,1,.455,2.493,6.856,6.856,0,0,1-.55,2.911c-1.365,2.956-4.935,4.266-9.242,4.266C604.217,125.363,600.97,123.967,599.7,121.1Z" transform="translate(-599.026 -102.93)" fill="#00bc82"/>
      </g>
      <g id="Сгруппировать_12" data-name="Сгруппировать 12" transform="translate(267.106 8.888)">
        <path id="Контур_11" data-name="Контур 11" d="M644.616,121.1a8.092,8.092,0,0,1-.678-3.416h6.923a3.71,3.71,0,0,0,.3,1.642,2.418,2.418,0,0,0,2.493,1.365c1.1,0,1.9-.337,2.192-1.01a1.724,1.724,0,0,0,.173-.805,1.448,1.448,0,0,0-.173-.76c-.5-1.137-2.192-1.474-4.471-2.065-2.452-.637-5.108-1.606-6.2-4.012a5.971,5.971,0,0,1-.455-2.406,6.4,6.4,0,0,1,.55-2.729c1.183-2.661,4.435-3.971,8.4-3.971s7.091,1.183,8.315,3.884a7.06,7.06,0,0,1,.591,2.956h-6.682a3.525,3.525,0,0,0-.255-1.437,2.149,2.149,0,0,0-2.11-1.137c-1.014,0-1.647.337-1.9.91a1.958,1.958,0,0,0-.123.673,1.663,1.663,0,0,0,.123.678c.55,1.137,2.579,1.6,4.6,2.11,2.911.76,5.572,1.769,6.668,4.175a5.674,5.674,0,0,1,.455,2.493,6.933,6.933,0,0,1-.546,2.911c-1.365,2.956-4.94,4.266-9.247,4.266C649.132,125.363,645.88,123.967,644.616,121.1Z" transform="translate(-643.936 -102.93)" fill="#00bc82"/>
      </g>
      <g id="Сгруппировать_13" data-name="Сгруппировать 13" transform="translate(286.734 4.494)">
        <path id="Контур_12" data-name="Контур 12" d="M689.919,112.5v-8.738H687.09V98.273h2.829v-5h7.05v5h4.94v5.485h-4.94v7.514c0,2.11.8,2.829,2.574,2.829a8.867,8.867,0,0,0,2.2-.3v5.458a24.08,24.08,0,0,1-4.644.455C692.075,119.715,689.919,117.772,689.919,112.5Z" transform="translate(-687.09 -93.27)" fill="#00bc82"/>
      </g>
      <g id="Сгруппировать_14" data-name="Сгруппировать 14" transform="translate(303.577 0.296)">
        <path id="Контур_13" data-name="Контур 13" d="M724.12,87.542a3.723,3.723,0,1,1,3.716,3.5A3.5,3.5,0,0,1,724.12,87.542Zm.168,5.7h7.055v21.064h-7.05Z" transform="translate(-724.12 -84.04)" fill="#00bc82"/>
      </g>
      <g id="Сгруппировать_15" data-name="Сгруппировать 15" transform="translate(312.806)">
        <path id="Контур_14" data-name="Контур 14" d="M746.984,98.373H744.41V92.887h2.574v-1.9c0-5.276,2.493-7.6,8.487-7.6a15.983,15.983,0,0,1,3.375.378v5.572a5.579,5.579,0,0,0-2.07-.337,2.392,2.392,0,0,0-2.729,2.661v1.224h4.685v5.485h-4.685v15.578H747Z" transform="translate(-744.41 -83.39)" fill="#00bc82"/>
      </g>
      <g id="Сгруппировать_16" data-name="Сгруппировать 16" transform="translate(328.143 4.494)">
        <path id="Контур_15" data-name="Контур 15" d="M780.959,112.5v-8.738H778.13V98.273h2.829v-5h7.05v5h4.94v5.485h-4.94v7.514c0,2.11.8,2.829,2.575,2.829a8.892,8.892,0,0,0,2.2-.3v5.458a24.081,24.081,0,0,1-4.644.455C783.115,119.715,780.959,117.772,780.959,112.5Z" transform="translate(-778.13 -93.27)" fill="#00bc82"/>
      </g>
      <g id="Сгруппировать_17" data-name="Сгруппировать 17" transform="translate(90.255 35.414)">
        <path id="Контур_16" data-name="Контур 16" d="M255.12,161.25H267.7c6.627,0,11.1,2.7,13.19,7.346a21.213,21.213,0,0,1,0,15.115c-2.07,4.639-6.545,7.341-13.19,7.341H255.12Zm11.371,23.3c3.675,0,5.827-1.31,6.882-3.671a11.341,11.341,0,0,0,.76-4.73,11.527,11.527,0,0,0-.76-4.767c-1.1-2.365-3.184-3.639-6.882-3.639h-3.716v16.8Z" transform="translate(-255.12 -161.25)" fill="#00bc82"/>
      </g>
      <g id="Сгруппировать_18" data-name="Сгруппировать 18" transform="translate(119.588 34.95)">
        <path id="Контур_17" data-name="Контур 17" d="M319.61,163.732a3.722,3.722,0,1,1,3.716,3.507A3.5,3.5,0,0,1,319.61,163.732Zm.168,5.7h7.05V190.5h-7.041Z" transform="translate(-319.61 -160.23)" fill="#00bc82"/>
      </g>
      <g id="Сгруппировать_19" data-name="Сгруппировать 19" transform="translate(128.702 43.538)">
        <path id="Контур_18" data-name="Контур 18" d="M361.136,188.675v12.113H354.09V198.3c-1.4,1.942-3.548,3.079-6.968,3.079-3.334,0-5.822-1.183-6.877-3.543a6.544,6.544,0,0,1-.591-3,7.277,7.277,0,0,1,.5-2.87c1.519-3.293,5.613-4.053,10.766-4.053h3.184v-.341a4.755,4.755,0,0,0-.341-2.274c-.418-.91-1.392-1.392-2.911-1.392-1.647,0-2.574.423-3,1.365a3.846,3.846,0,0,0-.255,1.264h-7.191a7.73,7.73,0,0,1,.632-2.952c1.392-3.084,4.981-4.476,9.706-4.476,5.108,0,8.105,1.365,9.5,4.389A13.434,13.434,0,0,1,361.136,188.675Zm-7.428,5.781a4.8,4.8,0,0,0,.382-2.32v-.3h-2.7c-2.029,0-3.675.209-4.139,1.305a2.02,2.02,0,0,0-.209.932,2.079,2.079,0,0,0,.209,1.01c.423.91,1.519,1.269,2.788,1.269C351.934,196.344,353.158,195.68,353.708,194.456Z" transform="translate(-339.648 -179.11)" fill="#00bc82"/>
      </g>
      <g id="Сгруппировать_20" data-name="Сгруппировать 20" transform="translate(152.892 35.414)">
        <path id="Контур_19" data-name="Контур 19" d="M406.421,191.051l-6.541-8.779v8.779h-7.05v-29.8h7.05v15.619l5.868-6.882h8.738l-8.487,9.5,9.415,11.567Z" transform="translate(-392.83 -161.25)" fill="#00bc82"/>
      </g>
      <g id="Сгруппировать_21" data-name="Сгруппировать 21" transform="translate(173.784 43.52)">
        <path id="Контур_20" data-name="Контур 20" d="M439.781,195.449a12.617,12.617,0,0,1-1.014-5.235,12.414,12.414,0,0,1,1.014-5.19c1.687-3.716,5.363-5.954,10.552-5.954s8.865,2.2,10.511,5.913a13.621,13.621,0,0,1,0,10.511c-1.647,3.675-5.317,5.868-10.511,5.868S441.464,199.165,439.781,195.449Zm14.1-1.774a8.593,8.593,0,0,0,.5-3.461,8.268,8.268,0,0,0-.5-3.42,3.48,3.48,0,0,0-3.548-1.983,3.532,3.532,0,0,0-3.543,1.983,9.056,9.056,0,0,0-.509,3.42,9.271,9.271,0,0,0,.509,3.461,4.161,4.161,0,0,0,7.091,0Z" transform="translate(-438.764 -179.07)" fill="#00bc82"/>
      </g>
      <g id="Сгруппировать_22" data-name="Сгруппировать 22" transform="translate(198.731 43.52)">
        <path id="Контур_21" data-name="Контур 21" d="M514.587,187.225v13.55h-7.045v-12.04c0-2.784-1.1-3.925-3.293-3.925-2.324,0-3.589,1.365-3.589,4.139v11.826h-7.05V179.7h7.05v2.62a7.343,7.343,0,0,1,6.459-3.252C511.845,179.07,514.587,181.94,514.587,187.225Z" transform="translate(-493.61 -179.07)" fill="#00bc82"/>
      </g>
      <g id="Сгруппировать_23" data-name="Сгруппировать 23" transform="translate(222.105 34.95)">
        <path id="Контур_22" data-name="Контур 22" d="M545,163.732a3.72,3.72,0,1,1,3.716,3.507A3.5,3.5,0,0,1,545,163.732Zm.168,5.7h7.05V190.5h-7.05Z" transform="translate(-545 -160.23)" fill="#00bc82"/>
      </g>
      <g id="Сгруппировать_24" data-name="Сгруппировать 24" transform="translate(231.349 43.488)">
        <path id="Контур_23" data-name="Контур 23" d="M580.781,193.637h7.136a7.279,7.279,0,0,1-2.411,4.921c-2.065,1.9-5.108,2.729-8.442,2.729-5.19,0-9.033-2.07-10.721-5.827a13,13,0,0,1-1.014-5.358,11.963,11.963,0,0,1,1.014-5.276c1.647-3.675,5.276-5.827,10.257-5.827,5.067,0,8.7,2.238,10.384,5.913.91,2.07,1.1,3.925,1.1,6.968H572.453a6.43,6.43,0,0,0,.5,2.238c.591,1.365,1.942,2.024,3.966,2.024a4.5,4.5,0,0,0,2.956-.887A2.685,2.685,0,0,0,580.781,193.637Zm-7.81-7.555a5.114,5.114,0,0,0-.455,1.819h8.4a4.289,4.289,0,0,0-.423-1.819c-.632-1.392-1.9-2.07-3.757-2.07S573.6,184.69,572.972,186.082Z" transform="translate(-565.322 -179)" fill="#00bc82"/>
      </g>
    </g>
  </g>
</svg>
