<svg width="35" height="35" viewBox="0 0 35 35" fill="none" xmlns="http://www.w3.org/2000/svg">
<path d="M34.9355 17.7583C34.9355 21.1551 33.9283 24.4755 32.0412 27.2998C30.154 30.1241 27.4718 32.3254 24.3336 33.6253C21.1954 34.9252 17.7422 35.2653 14.4107 34.6026C11.0792 33.9399 8.01903 32.3042 5.61716 29.9024C3.21529 27.5005 1.5796 24.4403 0.916921 21.1088C0.254247 17.7773 0.594355 14.3242 1.89424 11.186C3.19412 8.04778 5.3954 5.36552 8.2197 3.47838C11.044 1.59124 14.3645 0.583984 17.7612 0.583984C22.3161 0.583984 26.6845 2.39342 29.9053 5.61422C33.1261 8.83503 34.9355 13.2034 34.9355 17.7583ZM28.1088 14.6669C28.4883 14.2873 28.7016 13.7725 28.7016 13.2357C28.7016 12.6989 28.4883 12.1841 28.1088 11.8045C27.7292 11.425 27.2144 11.2117 26.6776 11.2117C26.1408 11.2117 25.6259 11.425 25.2464 11.8045L15.5572 21.4937L10.6053 16.5561C10.2257 16.1765 9.71088 15.9633 9.17408 15.9633C8.63728 15.9633 8.12246 16.1765 7.74289 16.5561C7.36331 16.9357 7.15007 17.4505 7.15007 17.9873C7.15007 18.5241 7.36331 19.0389 7.74289 19.4185L15.5429 27.2185L28.1088 14.6669Z" fill="url(#paint0_linear)"/>
<defs>
<linearGradient id="paint0_linear" x1="-1.34822" y1="-3.99584" x2="39.9482" y2="0.19502" gradientUnits="userSpaceOnUse">
<stop stop-color="#272727"/>
<stop offset="1" stop-color="#393939"/>
</linearGradient>
</defs>
</svg>
