<svg width="117" height="48" viewBox="0 0 117 48" fill="none" xmlns="http://www.w3.org/2000/svg">
<path fill-rule="evenodd" clip-rule="evenodd" d="M18.8721 8.66989C19.0526 8.70202 19.2231 8.77546 19.3705 8.88447C19.5178 8.99348 19.6379 9.13511 19.7214 9.29826C19.805 9.46142 19.8496 9.64169 19.8518 9.82497C19.8541 10.0082 19.8139 10.1896 19.7344 10.3547L25.8673 16.3009L25.629 16.5502L19.5379 10.6445C19.4304 10.7625 19.2999 10.8571 19.1544 10.9228C19.0089 10.9884 18.8515 11.0236 18.692 11.0261C18.5324 11.0287 18.374 10.9986 18.2265 10.9377C18.079 10.8768 17.9455 10.7864 17.8342 10.672L11.7718 16.547L11.5336 16.2976L17.6299 10.3873C17.5399 10.2177 17.493 10.0285 17.4934 9.83641C17.4941 9.54838 17.5993 9.2704 17.7897 9.05423C17.98 8.83807 18.2425 8.69846 18.5281 8.6614V0.0147106H18.8721V8.66989ZM42.3721 30.2625V35.2778C42.3606 36.8137 42.6532 38.3367 43.233 39.759C43.8128 41.1814 44.6684 42.4749 45.7504 43.565C46.8324 44.6552 48.1195 45.5204 49.5374 46.1108C50.9554 46.7013 52.4761 47.0053 54.0121 47.0053C55.5481 47.0053 57.0689 46.7013 58.4868 46.1108C59.9047 45.5204 61.1918 44.6552 62.2738 43.565C63.3559 42.4749 64.2114 41.1814 64.7912 39.759C65.371 38.3367 65.6636 36.8137 65.6521 35.2778V30.2625C65.6382 27.5675 64.6926 24.9602 62.9757 22.8828C64.7093 20.8608 65.659 18.2834 65.6521 15.62V11.7275C65.6636 10.1916 65.371 8.66857 64.7912 7.24624C64.2114 5.82392 63.3559 4.5304 62.2738 3.44025C61.1918 2.3501 59.9047 1.48487 58.4868 0.894426C57.0689 0.303982 55.5481 0 54.0121 0C52.4761 0 50.9554 0.303982 49.5374 0.894426C48.1195 1.48487 46.8324 2.3501 45.7504 3.44025C44.6684 4.5304 43.8128 5.82392 43.233 7.24624C42.6532 8.66857 42.3606 10.1916 42.3721 11.7275V15.62C42.3256 18.27 43.2346 20.8481 44.933 22.8828C43.2507 24.972 42.3456 27.5803 42.3721 30.2625ZM51.1017 15.62V11.7275C51.0967 11.3431 51.1685 10.9616 51.3128 10.6053C51.457 10.2489 51.6709 9.92496 51.9419 9.65229C52.2128 9.37961 52.5355 9.16371 52.8909 9.01722C53.2463 8.87073 53.6274 8.79659 54.0118 8.79914C54.7821 8.81383 55.5166 9.12763 56.0597 9.67416C56.6028 10.2207 56.912 10.9571 56.9219 11.7275V15.62C56.9122 16.3906 56.6031 17.1271 56.0599 17.6738C55.5168 18.2204 54.7822 18.5343 54.0118 18.549C53.6273 18.5516 53.2462 18.4774 52.8907 18.3309C52.5353 18.1844 52.2126 17.9684 51.9416 17.6957C51.6706 17.4229 51.4568 17.0989 51.3126 16.7425C51.1683 16.386 51.0966 16.0045 51.1017 15.62ZM51.1017 35.2778V30.2625C51.0968 29.8781 51.1687 29.4967 51.313 29.1404C51.4573 28.7842 51.6711 28.4603 51.9421 28.1877C52.2131 27.9151 52.5357 27.6992 52.8911 27.5528C53.2464 27.4063 53.6274 27.3322 54.0118 27.3348C54.7821 27.3493 55.5165 27.6629 56.0596 28.2094C56.6028 28.7558 56.912 29.4921 56.9219 30.2625V35.2778C56.912 36.0482 56.6028 36.7846 56.0597 37.3311C55.5166 37.8776 54.7821 38.1914 54.0118 38.2061C53.6274 38.2087 53.2463 38.1345 52.8909 37.988C52.5355 37.8416 52.2128 37.6257 51.9419 37.353C51.6709 37.0803 51.457 36.7563 51.3128 36.4C51.1685 36.0437 51.0967 35.6622 51.1017 35.2778ZM14.5461 35.2778C14.5519 35.6635 14.4809 36.0466 14.3373 36.4047C14.1936 36.7628 13.9803 37.0888 13.7095 37.3636C13.4387 37.6385 13.116 37.8567 12.7601 38.0057C12.4042 38.1547 12.0222 38.2314 11.6364 38.2314C11.2506 38.2314 10.8686 38.1547 10.5127 38.0057C10.1568 37.8567 9.83406 37.6385 9.56329 37.3636C9.29252 37.0888 9.07911 36.7628 8.93547 36.4047C8.79183 36.0466 8.72086 35.6635 8.72664 35.2778V18.7194H0.000294954V35.2778C-0.0106343 36.8139 0.282269 38.3371 0.862146 39.7597C1.44202 41.1823 2.29742 42.4762 3.37917 43.567C4.46091 44.6578 5.74765 45.5239 7.16535 46.1156C8.58305 46.7073 10.1037 47.0129 11.64 47.0147C14.3128 47.0329 16.9075 46.1141 18.9733 44.418C20.9945 46.1122 23.5524 47.0326 26.1897 47.0147C27.7287 47.0227 29.2539 46.7239 30.6761 46.1357C32.0983 45.5475 33.389 44.6817 34.4727 43.5889C35.5564 42.4962 36.4114 41.1983 36.9878 39.7713C37.5642 38.3443 37.8503 36.8167 37.8294 35.2778V18.7194H29.0998V35.2778C29.0998 36.0496 28.7932 36.7898 28.2475 37.3355C27.7017 37.8813 26.9615 38.1879 26.1897 38.1879C25.4179 38.1879 24.6777 37.8813 24.132 37.3355C23.5862 36.7898 23.2796 36.0496 23.2796 35.2778V18.7194H14.5501V35.2778H14.5461ZM73.381 26.5456C73.3863 26.8355 73.3267 27.123 73.2067 27.387C73.0926 27.6309 72.9232 27.8448 72.7119 28.0117C72.4846 28.1875 72.2255 28.3178 71.9488 28.3955C71.6319 28.4855 71.3037 28.5295 70.9742 28.5261C70.7656 28.526 70.5573 28.5087 70.3515 28.4745C70.1719 28.4435 69.9948 28.3998 69.8214 28.344C69.6839 28.3002 69.5503 28.2452 69.4219 28.1795C69.3372 28.1371 69.2575 28.0854 69.1843 28.0254C69.1305 27.9731 69.0927 27.9065 69.0753 27.8335C69.0488 27.7235 69.0371 27.6104 69.0407 27.4973C69.0399 27.4237 69.0445 27.3502 69.0544 27.2773C69.061 27.2288 69.0726 27.1811 69.089 27.135C69.0978 27.1044 69.1166 27.0775 69.1424 27.0587C69.1681 27.0399 69.1994 27.0303 69.2313 27.0312C69.3125 27.0425 69.3892 27.0749 69.4539 27.1252C69.5518 27.1866 69.6706 27.2558 69.8149 27.3269C69.9778 27.4076 70.1469 27.4749 70.3208 27.528C70.5394 27.5938 70.7668 27.6253 70.9951 27.6213C71.1698 27.6233 71.344 27.6027 71.5134 27.56C71.6571 27.5233 71.7932 27.4616 71.9155 27.3779C72.0265 27.3001 72.1163 27.1957 72.1766 27.0743C72.2423 26.9371 72.2745 26.7864 72.2706 26.6343C72.276 26.478 72.2301 26.3242 72.1401 26.1963C72.0434 26.0707 71.9246 25.9639 71.7895 25.881C71.6335 25.7844 71.4687 25.7027 71.2973 25.6369C71.1172 25.567 70.9285 25.4926 70.7353 25.4156C70.5428 25.337 70.3543 25.2487 70.1706 25.1512C69.9895 25.0557 69.8233 24.9343 69.6772 24.7909C69.5291 24.6451 69.4102 24.4726 69.3266 24.2824C69.2335 24.0591 69.189 23.8185 69.1961 23.5767C69.1956 23.338 69.2429 23.1017 69.3351 22.8815C69.4294 22.6586 69.5723 22.4597 69.7535 22.2992C69.9583 22.1225 70.1952 21.9869 70.4513 21.8997C70.925 21.7458 71.4287 21.708 71.9201 21.7894C72.0702 21.8121 72.2182 21.8468 72.3627 21.8932C72.4791 21.9252 72.5919 21.9689 72.6995 22.0238C72.7738 22.0591 72.8446 22.1013 72.911 22.1498C72.9481 22.176 72.9803 22.2084 73.0063 22.2457C73.0231 22.2747 73.035 22.3062 73.0416 22.3391C73.0487 22.3717 73.0533 22.4135 73.0598 22.4657C73.0678 22.5269 73.0715 22.5887 73.0709 22.6504C73.0714 22.7176 73.0677 22.7848 73.0598 22.8515C73.056 22.8996 73.0452 22.9468 73.0279 22.9918C73.0161 23.0233 72.9957 23.0509 72.9691 23.0715C72.9478 23.0873 72.9219 23.0957 72.8953 23.0956C72.8302 23.0872 72.7684 23.0615 72.7165 23.0212C72.6205 22.9619 72.5208 22.9087 72.4182 22.8619C72.2765 22.7989 72.1311 22.7449 71.9827 22.7C71.7984 22.6483 71.6076 22.6231 71.4162 22.625C71.2459 22.6217 71.076 22.6437 70.9122 22.6903C70.7811 22.7269 70.6587 22.7898 70.5525 22.875C70.4619 22.9534 70.3897 23.0508 70.341 23.1603C70.2939 23.2729 70.2701 23.3939 70.2712 23.516C70.2659 23.6765 70.3133 23.8342 70.4063 23.9651C70.5039 24.0923 70.6246 24.1999 70.7621 24.2824C70.9193 24.3805 71.0852 24.4642 71.2575 24.5324C71.4449 24.6035 71.6342 24.6786 71.8274 24.7563C72.0206 24.834 72.2106 24.9214 72.3999 25.0174C72.5824 25.1097 72.7511 25.227 72.9012 25.366C73.0477 25.507 73.1662 25.6745 73.2505 25.8595C73.3439 26.0761 73.3897 26.3103 73.3849 26.5462L73.381 26.5456ZM80.2665 28.2245C80.2679 28.2571 80.2579 28.2891 80.2384 28.3152C80.2159 28.3449 80.1853 28.3676 80.1503 28.3805C80.0964 28.4031 80.0394 28.4174 79.9812 28.4229C79.8909 28.4338 79.8 28.4386 79.709 28.4373C79.615 28.4387 79.521 28.4339 79.4277 28.4229C79.3695 28.4175 79.3125 28.4032 79.2586 28.3805C79.2238 28.367 79.1931 28.3445 79.1698 28.3152C79.1501 28.2892 79.1399 28.2572 79.1411 28.2245V24.6127C79.1491 24.3276 79.1219 24.0425 79.0602 23.7641C79.0141 23.5661 78.9339 23.3777 78.8232 23.2073C78.7219 23.0548 78.5815 22.9323 78.4165 22.8528C78.2373 22.7668 78.0403 22.7241 77.8414 22.7281C77.5356 22.7363 77.2403 22.842 76.9987 23.0297C76.6633 23.2812 76.3653 23.579 76.1135 23.9142V28.2225C76.1148 28.2553 76.1044 28.2875 76.0841 28.3133C76.0608 28.3425 76.0302 28.365 75.9954 28.3786C75.9415 28.4013 75.8845 28.4156 75.8263 28.421C75.7332 28.432 75.6394 28.4368 75.5456 28.4354C75.4547 28.4366 75.3637 28.4318 75.2734 28.421C75.2142 28.4152 75.1562 28.4009 75.1011 28.3786C75.0651 28.3674 75.0341 28.3444 75.0129 28.3133C74.9951 28.2865 74.9862 28.2547 74.9875 28.2225V19.068C74.9862 19.0344 74.9951 19.0012 75.0129 18.9727C75.0327 18.939 75.064 18.9138 75.1011 18.9015C75.1567 18.8813 75.2146 18.8679 75.2734 18.8617C75.3637 18.8509 75.4547 18.8461 75.5456 18.8473C75.6394 18.846 75.7332 18.8508 75.8263 18.8617C75.8842 18.8675 75.941 18.8809 75.9954 18.9015C76.0312 18.9162 76.062 18.9409 76.0841 18.9727C76.1045 19.0002 76.1148 19.0338 76.1135 19.068V22.7627C76.3906 22.4524 76.7201 22.1933 77.0868 21.997C77.3906 21.8358 77.7287 21.75 78.0725 21.747C78.428 21.7358 78.7812 21.8078 79.1039 21.9572C79.3717 22.0857 79.6048 22.2767 79.7835 22.514C79.9602 22.7593 80.0856 23.0377 80.1523 23.3326C80.2353 23.7049 80.2736 24.0857 80.2665 24.4671V28.2252V28.2245ZM83.441 28.2245C83.4422 28.2573 83.4318 28.2894 83.4116 28.3152C83.3891 28.3444 83.3591 28.367 83.3248 28.3805C83.2703 28.4028 83.2129 28.4171 83.1544 28.4229C83.0613 28.434 82.9675 28.4388 82.8737 28.4373C82.7825 28.4386 82.6914 28.4338 82.6008 28.4229C82.542 28.4175 82.4844 28.4032 82.4298 28.3805C82.3934 28.3694 82.3617 28.3464 82.3397 28.3152C82.3227 28.2881 82.3141 28.2565 82.3149 28.2245V22.0551C82.3152 22.024 82.3237 21.9936 82.3397 21.967C82.3607 21.9348 82.3927 21.9116 82.4298 21.9017C82.4845 21.8794 82.5421 21.8651 82.6008 21.8593C82.6914 21.8492 82.7825 21.8446 82.8737 21.8456C82.9674 21.8444 83.0612 21.849 83.1544 21.8593C83.2129 21.8654 83.2702 21.8797 83.3248 21.9017C83.3597 21.914 83.39 21.9368 83.4116 21.967C83.4306 21.9924 83.441 22.0233 83.441 22.0551V28.2252V28.2245ZM83.5683 19.9714C83.5913 20.1644 83.5376 20.3588 83.4188 20.5126C83.2518 20.6055 83.0638 20.6543 82.8727 20.6543C82.6816 20.6543 82.4937 20.6055 82.3267 20.5126C82.2104 20.3614 82.1579 20.1706 82.1805 19.9812C82.1576 19.7888 82.2107 19.5951 82.3286 19.4414C82.4881 19.3266 82.6843 19.2748 82.8796 19.2958C83.0715 19.2741 83.2647 19.3241 83.422 19.4362C83.5377 19.5879 83.5901 19.7786 83.5683 19.9682V19.9714ZM91.1568 25.0435C91.1628 25.5333 91.1039 26.0216 90.9819 26.4959C90.8842 26.8904 90.7113 27.2623 90.4727 27.5913C90.2529 27.8843 89.9674 28.1215 89.6391 28.2839C89.2824 28.4506 88.8924 28.5339 88.4987 28.5274C88.3297 28.5287 88.1611 28.5097 87.9967 28.4706C87.8387 28.4342 87.6863 28.3767 87.5437 28.2996C87.3871 28.2172 87.2396 28.1185 87.1037 28.0052C86.9575 27.8857 86.8047 27.7441 86.6415 27.5854V30.6724C86.6417 30.7065 86.632 30.7398 86.6135 30.7684C86.59 30.7969 86.56 30.8193 86.526 30.8337C86.4716 30.856 86.4142 30.8703 86.3556 30.8761C86.2621 30.8849 86.1682 30.8891 86.0743 30.8885C85.9834 30.8889 85.8925 30.8848 85.8021 30.8761C85.743 30.8707 85.6852 30.8564 85.6304 30.8337C85.5946 30.822 85.5634 30.7991 85.5416 30.7684C85.5252 30.739 85.5167 30.706 85.5168 30.6724V22.0558C85.5148 22.0217 85.5218 21.9877 85.537 21.9572C85.5565 21.9274 85.5848 21.9046 85.618 21.8919C85.6684 21.8706 85.722 21.8578 85.7766 21.854C85.8529 21.8457 85.9296 21.8417 86.0064 21.8423C86.0853 21.8415 86.1642 21.8455 86.2427 21.854C86.2954 21.8579 86.347 21.8707 86.3954 21.8919C86.4297 21.9048 86.4595 21.9275 86.4809 21.9572C86.4979 21.9871 86.5059 22.0214 86.5038 22.0558V22.8861C86.6724 22.7079 86.8526 22.5408 87.043 22.3861C87.2043 22.2503 87.3793 22.1317 87.5652 22.0323C87.7349 21.9395 87.9153 21.8681 88.1024 21.8194C88.2932 21.7698 88.4896 21.7455 88.6867 21.747C89.0816 21.735 89.4731 21.8249 89.8232 22.0081C90.1328 22.1786 90.3954 22.423 90.5876 22.7196C90.7934 23.0418 90.9399 23.3982 91.0204 23.7719C91.1143 24.1892 91.1603 24.6158 91.1574 25.0435H91.1568ZM89.97 25.1741C89.9706 24.8681 89.9473 24.5625 89.9002 24.2602C89.859 23.9866 89.7762 23.7209 89.6547 23.4723C89.5457 23.2546 89.3853 23.0669 89.1874 22.9253C88.9714 22.7837 88.7169 22.7123 88.4589 22.7209C88.3132 22.721 88.1684 22.743 88.0293 22.7862C87.8785 22.8361 87.735 22.9057 87.6024 22.9931C87.4382 23.1011 87.2852 23.2251 87.1455 23.3633C86.9654 23.5404 86.7975 23.7295 86.6428 23.9292V26.3837C86.8971 26.7103 87.1924 27.0028 87.5215 27.2538C87.7718 27.4456 88.0776 27.5512 88.3929 27.5548C88.6502 27.5613 88.9034 27.4893 89.1188 27.3485C89.3234 27.2069 89.4914 27.0187 89.6091 26.7995C89.7384 26.5587 89.831 26.3 89.8839 26.0318C89.943 25.7502 89.9723 25.4631 89.9714 25.1754L89.97 25.1741ZM98.4842 25.0435C98.4905 25.5333 98.4317 26.0217 98.3093 26.4959C98.2118 26.8902 98.0393 27.2621 97.8014 27.5913C97.5811 27.8845 97.2949 28.1218 96.9659 28.2839C96.6094 28.4508 96.2196 28.534 95.8261 28.5274C95.6575 28.5287 95.4894 28.5097 95.3254 28.4706C95.166 28.4348 95.0123 28.3772 94.8685 28.2996C94.712 28.2173 94.5647 28.1186 94.4292 28.0052C94.283 27.8857 94.1289 27.7441 93.9664 27.5854V30.6724C93.9664 30.7063 93.9569 30.7396 93.9389 30.7684C93.9154 30.797 93.8851 30.8194 93.8508 30.8337C93.7965 30.8563 93.739 30.8706 93.6804 30.8761C93.5869 30.8849 93.493 30.8891 93.3991 30.8885C93.3084 30.8889 93.2178 30.8848 93.1275 30.8761C93.0681 30.8703 93.0099 30.8561 92.9546 30.8337C92.9193 30.8216 92.8887 30.7988 92.8671 30.7684C92.8505 30.7391 92.8417 30.7061 92.8416 30.6724V22.0558C92.8401 22.0217 92.8471 21.9879 92.8619 21.9572C92.882 21.9275 92.9107 21.9048 92.9441 21.8919C92.9943 21.8705 93.0477 21.8577 93.1021 21.854C93.2566 21.8381 93.4123 21.8381 93.5669 21.854C93.6198 21.8578 93.6717 21.8706 93.7203 21.8919C93.7547 21.9048 93.7847 21.9275 93.8064 21.9572C93.8242 21.9868 93.8325 22.0213 93.8299 22.0558V22.8861C93.9986 22.7079 94.1787 22.5408 94.3691 22.3861C94.53 22.2497 94.705 22.1311 94.8913 22.0323C95.0634 21.9382 95.2465 21.8661 95.4364 21.8175C95.6269 21.7679 95.8231 21.7435 96.02 21.745C96.4152 21.7329 96.8068 21.8229 97.1571 22.0061C97.4658 22.1774 97.7269 22.4229 97.917 22.7203C98.1227 23.0425 98.2693 23.3988 98.3498 23.7726C98.4437 24.1898 98.4896 24.6165 98.4868 25.0442L98.4842 25.0435ZM97.2981 25.1741C97.2994 24.8681 97.276 24.5625 97.2283 24.2602C97.1869 23.9864 97.1037 23.7207 96.9815 23.4723C96.8732 23.2546 96.7132 23.0668 96.5154 22.9253C96.2995 22.7837 96.045 22.7123 95.787 22.7209C95.6411 22.721 95.4961 22.743 95.3568 22.7862C95.2058 22.8361 95.062 22.9056 94.9292 22.9931C94.7657 23.1021 94.6128 23.226 94.4723 23.3633C94.293 23.541 94.1253 23.73 93.9703 23.9292V26.3837C94.2247 26.7102 94.52 27.0026 94.8489 27.2538C95.0995 27.4457 95.4054 27.5512 95.721 27.5548C95.9781 27.5614 96.2311 27.4894 96.4463 27.3485C96.6511 27.2069 96.8193 27.0188 96.9371 26.7995C97.0659 26.5585 97.1583 26.2998 97.2113 26.0318C97.271 25.7503 97.3005 25.4632 97.2994 25.1754L97.2981 25.1741ZM101.42 28.2252C101.421 28.2575 101.412 28.2893 101.393 28.3159C101.37 28.3447 101.339 28.3671 101.305 28.3812C101.251 28.4041 101.194 28.4184 101.135 28.4236C101.042 28.4346 100.947 28.4394 100.853 28.438C100.762 28.4384 100.671 28.4336 100.581 28.4236C100.522 28.418 100.464 28.4037 100.409 28.3812C100.374 28.3687 100.343 28.3459 100.321 28.3159C100.304 28.2885 100.296 28.2571 100.296 28.2252V22.0551C100.296 22.0241 100.305 21.9937 100.321 21.967C100.342 21.9359 100.373 21.9129 100.409 21.9017C100.464 21.8801 100.522 21.8659 100.581 21.8593C100.671 21.8492 100.762 21.8446 100.853 21.8456C100.947 21.8444 101.042 21.849 101.135 21.8593C101.193 21.8657 101.25 21.88 101.305 21.9017C101.34 21.9149 101.37 21.9375 101.393 21.967C101.411 21.9929 101.42 22.0236 101.42 22.0551V28.2252ZM101.551 19.9721C101.573 20.165 101.52 20.3591 101.402 20.5132C101.242 20.6269 101.046 20.6778 100.851 20.6562C100.659 20.6779 100.466 20.6279 100.309 20.5158C100.193 20.3646 100.14 20.174 100.162 19.9845C100.139 19.7919 100.193 19.5982 100.311 19.4446C100.478 19.3502 100.665 19.3001 100.857 19.2992C101.048 19.2982 101.236 19.3465 101.403 19.4394C101.52 19.5909 101.573 19.7817 101.551 19.9714V19.9721ZM108.779 28.2252C108.779 28.2578 108.769 28.2896 108.749 28.3159C108.727 28.3452 108.697 28.3678 108.662 28.3812C108.608 28.4038 108.551 28.4181 108.492 28.4236C108.402 28.4336 108.311 28.4384 108.22 28.438C108.126 28.4385 108.032 28.4337 107.938 28.4236C107.88 28.4185 107.823 28.4042 107.769 28.3812C107.734 28.3675 107.704 28.345 107.68 28.3159C107.661 28.2894 107.652 28.2576 107.652 28.2252V24.6127C107.659 24.3276 107.632 24.0427 107.572 23.7641C107.525 23.5662 107.444 23.3779 107.334 23.2073C107.233 23.0546 107.092 22.9321 106.927 22.8528C106.748 22.7668 106.551 22.724 106.352 22.7281C106.046 22.7367 105.751 22.8424 105.509 23.0297C105.174 23.2814 104.876 23.5792 104.624 23.9142V28.2225C104.625 28.2551 104.615 28.287 104.596 28.3133C104.572 28.3425 104.542 28.365 104.507 28.3786C104.453 28.4016 104.396 28.4159 104.338 28.421C104.244 28.432 104.15 28.4368 104.056 28.4354C103.965 28.4358 103.875 28.431 103.784 28.421C103.725 28.4154 103.667 28.4011 103.612 28.3786C103.577 28.3662 103.546 28.3435 103.523 28.3133C103.507 28.2857 103.498 28.2544 103.498 28.2225V22.0551C103.497 22.0226 103.504 21.9903 103.518 21.9611C103.54 21.933 103.568 21.9106 103.6 21.8958C103.65 21.8731 103.704 21.8598 103.759 21.8567C103.925 21.8407 104.092 21.8407 104.258 21.8567C104.312 21.8588 104.364 21.8721 104.413 21.8958C104.443 21.9116 104.47 21.9339 104.491 21.9611C104.507 21.9897 104.515 22.0223 104.514 22.0551V22.8724C104.804 22.5282 105.154 22.2388 105.546 22.0179C105.865 21.8445 106.221 21.7515 106.583 21.747C106.939 21.7368 107.293 21.8088 107.617 21.9572C107.884 22.086 108.116 22.277 108.294 22.514C108.471 22.7593 108.597 23.0377 108.664 23.3326C108.746 23.7028 108.785 24.0814 108.779 24.4606V28.2252ZM116.195 22.3358C116.202 22.4552 116.18 22.5746 116.129 22.6831C116.113 22.7141 116.089 22.7404 116.06 22.7593C116.031 22.7782 115.997 22.789 115.962 22.7908H115.085C115.236 22.9436 115.35 23.1292 115.418 23.3332C115.482 23.5347 115.514 23.7447 115.513 23.956C115.52 24.279 115.462 24.6 115.344 24.9006C115.236 25.1661 115.07 25.4038 114.858 25.5958C114.638 25.7898 114.382 25.9376 114.104 26.0305C113.793 26.135 113.466 26.1864 113.138 26.1826C112.897 26.1833 112.657 26.1497 112.426 26.0827C112.237 26.034 112.06 25.9489 111.904 25.8321C111.822 25.914 111.753 26.0088 111.701 26.1128C111.648 26.2271 111.622 26.3522 111.625 26.4783C111.626 26.5577 111.646 26.6357 111.685 26.7051C111.723 26.7745 111.779 26.833 111.846 26.8752C112.021 26.9884 112.225 27.0481 112.433 27.0469L114.036 27.1122C114.319 27.1196 114.599 27.162 114.872 27.2382C115.11 27.3065 115.334 27.417 115.533 27.5645C115.716 27.7 115.866 27.876 115.97 28.0789C116.078 28.2993 116.131 28.5424 116.126 28.7879C116.127 29.0674 116.066 29.3438 115.949 29.5973C115.824 29.8618 115.638 30.093 115.407 30.2716C115.129 30.4844 114.813 30.6411 114.476 30.7331C114.042 30.8513 113.592 30.9069 113.142 30.8983C112.717 30.9057 112.293 30.8634 111.878 30.7723C111.576 30.7064 111.288 30.5894 111.025 30.4263C110.82 30.2994 110.653 30.1189 110.542 29.9041C110.44 29.6982 110.389 29.4716 110.39 29.2422C110.392 29.0936 110.412 28.9458 110.45 28.8022C110.486 28.6602 110.542 28.524 110.616 28.3975C110.695 28.2645 110.79 28.1412 110.897 28.03C111.016 27.9056 111.144 27.7899 111.28 27.684C111.08 27.5879 110.909 27.439 110.787 27.2532C110.682 27.0836 110.627 26.888 110.628 26.6885C110.623 26.4301 110.681 26.1744 110.798 25.9437C110.909 25.727 111.051 25.5279 111.221 25.3529C111.078 25.183 110.964 24.9904 110.884 24.7831C110.798 24.535 110.756 24.2735 110.762 24.0108C110.758 23.687 110.819 23.3656 110.941 23.0656C111.051 22.7977 111.218 22.5568 111.431 22.3593C111.649 22.1624 111.905 22.0121 112.183 21.9174C112.491 21.812 112.815 21.7597 113.141 21.7627C113.316 21.7615 113.49 21.7713 113.663 21.792C113.813 21.8306 113.964 21.8598 114.117 21.8795H115.97C116.006 21.8791 116.042 21.8895 116.072 21.9095C116.103 21.9295 116.127 21.9581 116.141 21.9918C116.186 22.1014 116.206 22.2196 116.199 22.3378L116.195 22.3358ZM114.439 23.9599C114.45 23.7815 114.425 23.6027 114.366 23.434C114.307 23.2653 114.215 23.1099 114.095 22.9768C113.965 22.8536 113.811 22.7586 113.643 22.6977C113.474 22.6368 113.295 22.6114 113.116 22.623C112.921 22.6192 112.728 22.6568 112.548 22.7333C112.393 22.8018 112.255 22.905 112.146 23.0349C112.038 23.1654 111.957 23.3158 111.907 23.4775C111.855 23.6465 111.828 23.8226 111.828 23.9997C111.819 24.1743 111.845 24.349 111.904 24.5136C111.963 24.6782 112.054 24.8293 112.172 24.958C112.301 25.0794 112.453 25.1732 112.619 25.2336C112.785 25.294 112.961 25.3197 113.138 25.3092C113.336 25.3138 113.533 25.2773 113.716 25.2021C113.871 25.1357 114.009 25.035 114.12 24.9077C114.229 24.7806 114.311 24.6324 114.36 24.4723C114.412 24.3057 114.439 24.132 114.439 23.9573L114.439 23.9599ZM115.004 28.8473C115.008 28.7258 114.981 28.6054 114.924 28.4979C114.868 28.3903 114.784 28.2995 114.682 28.2343C114.416 28.0789 114.113 27.9996 113.805 28.0052L112.217 27.951C112.09 28.0493 111.971 28.1585 111.862 28.2774C111.777 28.3677 111.703 28.4663 111.638 28.5718C111.587 28.6579 111.55 28.7512 111.527 28.8486C111.507 28.9408 111.496 29.0349 111.497 29.1293C111.496 29.2738 111.538 29.4155 111.617 29.536C111.697 29.6565 111.812 29.7504 111.945 29.8055C112.34 29.9768 112.769 30.0552 113.199 30.0347C113.487 30.0413 113.775 30.0081 114.054 29.9361C114.254 29.8852 114.443 29.7966 114.609 29.675C114.74 29.5772 114.845 29.4476 114.912 29.2983C114.974 29.1562 115.006 29.0029 115.005 28.8479L115.004 28.8473Z" fill="#E3004F"/>
</svg>
