<svg xmlns="http://www.w3.org/2000/svg" width="106.409" height="52.923" viewBox="0 0 106.409 52.923">
  <path id="Shape" d="M21.295,9.75a1.327,1.327,0,0,1,1.1,1.319,1.292,1.292,0,0,1-.129.584l6.912,6.7-.258.281-6.869-6.659a1.313,1.313,0,0,1-.969.432,1.349,1.349,0,0,1-.947-.389l-6.847,6.594-.258-.281,6.89-6.659a1.229,1.229,0,0,1-.151-.627,1.33,1.33,0,0,1,1.163-1.319V0h.388l-.022,9.75ZM57.683,39.714V34.071a3.256,3.256,0,0,1,3.294-3.286,3.353,3.353,0,0,1,3.294,3.286v5.643a3.357,3.357,0,0,1-3.294,3.308,3.287,3.287,0,0,1-3.294-3.308Zm0-22.138V13.187A3.274,3.274,0,0,1,60.977,9.88a3.357,3.357,0,0,1,3.294,3.308v4.389a3.357,3.357,0,0,1-3.294,3.308,3.274,3.274,0,0,1-3.294-3.308Zm-9.861,16.5v5.643a13.134,13.134,0,1,0,26.268,0V34.071a13.138,13.138,0,0,0-3.014-8.3A12.56,12.56,0,0,0,74.09,17.6v-4.41a13.134,13.134,0,1,0-26.268,0v4.389a12.422,12.422,0,0,0,2.885,8.172,13.094,13.094,0,0,0-2.885,8.323ZM16.429,39.714a3.294,3.294,0,1,1-6.589,0V21.057H0V39.692A13.135,13.135,0,0,0,13.134,52.9,12.933,12.933,0,0,0,21.4,49.983,12.623,12.623,0,0,0,29.541,52.9,13.041,13.041,0,0,0,42.675,39.692V21.057H32.814V39.692a3.294,3.294,0,1,1-6.589,0V21.057h-9.8V39.714ZM80.183,27.478a1.311,1.311,0,0,1-.108.519,1.056,1.056,0,0,1-.3.389,1.393,1.393,0,0,1-.474.238,2.532,2.532,0,0,1-.6.086c-.129,0-.258-.022-.388-.022a1.162,1.162,0,0,1-.323-.086.6.6,0,0,1-.237-.108,1.235,1.235,0,0,0-.151-.086.472.472,0,0,1-.065-.108.544.544,0,0,1-.022-.216v-.13c0-.043.022-.065.022-.086a.046.046,0,0,1,.043-.043.075.075,0,0,0,.043-.022.237.237,0,0,1,.129.065,1.892,1.892,0,0,0,.215.13c.086.043.194.086.3.13a1.249,1.249,0,0,0,.409.065A1.656,1.656,0,0,0,79,28.148a.794.794,0,0,0,.237-.108.345.345,0,0,0,.151-.195.577.577,0,0,0,.065-.259.345.345,0,0,0-.086-.259,1.945,1.945,0,0,0-.215-.195,1.313,1.313,0,0,0-.3-.151c-.108-.043-.215-.086-.344-.13-.108-.043-.237-.108-.345-.151a1.129,1.129,0,0,1-.517-.519.914.914,0,0,1-.086-.432.989.989,0,0,1,.345-.778,1.177,1.177,0,0,1,.431-.238,1.692,1.692,0,0,1,.6-.086,1.416,1.416,0,0,1,.3.022c.108.022.194.043.28.065a.643.643,0,0,1,.215.086.331.331,0,0,1,.129.086l.065.065c0,.022.022.043.022.065a.164.164,0,0,0,.022.086v.238c0,.043,0,.065-.022.086a.046.046,0,0,1-.043.043c-.022,0-.022.022-.043.022a.363.363,0,0,1-.108-.043,1.985,1.985,0,0,1-.172-.108c-.086-.043-.172-.065-.258-.108a1.667,1.667,0,0,0-.344-.043,1.266,1.266,0,0,0-.3.043.5.5,0,0,0-.215.108.336.336,0,0,0-.129.173.642.642,0,0,0-.043.216.436.436,0,0,0,.086.281,1.945,1.945,0,0,0,.215.195,1.313,1.313,0,0,0,.3.151c.108.043.237.086.345.13s.237.108.344.151a1.129,1.129,0,0,1,.517.519c.043,0,.086.151.086.3Zm4.22,1.038a.08.08,0,0,1-.022.065.166.166,0,0,1-.065.043.161.161,0,0,1-.108.022h-.344a.929.929,0,0,1-.108-.022c-.022-.022-.043-.022-.065-.043a.08.08,0,0,1-.022-.065V26.31a3.115,3.115,0,0,0-.043-.519,1.676,1.676,0,0,0-.151-.346.634.634,0,0,0-.258-.216.9.9,0,0,0-.344-.086.857.857,0,0,0-.517.195,3.164,3.164,0,0,0-.538.54v2.637a.08.08,0,0,1-.022.065.165.165,0,0,1-.065.043.161.161,0,0,1-.108.022h-.345a.93.93,0,0,1-.108-.022c-.022-.022-.043-.022-.065-.043,0-.022-.022-.043-.022-.065v-5.6a.08.08,0,0,1,.022-.065c0-.022.022-.022.065-.043a.93.93,0,0,1,.108-.022h.345a.93.93,0,0,1,.108.022c.022.022.043.022.065.043a.08.08,0,0,1,.022.065v2.248a2.015,2.015,0,0,1,.6-.476,1.247,1.247,0,0,1,.6-.151,1.338,1.338,0,0,1,.624.13,1.066,1.066,0,0,1,.409.346,1.294,1.294,0,0,1,.215.5,3.285,3.285,0,0,1,.065.692v2.313Zm1.938,0a.08.08,0,0,1-.022.065l-.043.043a.161.161,0,0,1-.108.022h-.345a.928.928,0,0,1-.108-.022c-.022-.022-.043-.022-.065-.043,0-.022-.022-.043-.022-.065V24.732c0-.022,0-.043.022-.043,0-.022.022-.022.065-.043a.161.161,0,0,1,.108-.022h.345a.929.929,0,0,1,.108.022.046.046,0,0,1,.043.043.067.067,0,0,1,.022.043v3.783Zm.065-5.059c0,.173-.022.281-.086.324a.473.473,0,0,1-.345.086c-.172,0-.28-.022-.323-.086a.45.45,0,0,1-.086-.324c0-.151.022-.281.086-.324A.473.473,0,0,1,86,23.046c.172,0,.28.022.323.086a.45.45,0,0,1,.086.324Zm4.651,3.113a3.7,3.7,0,0,1-.108.886,2.119,2.119,0,0,1-.3.67,1.46,1.46,0,0,1-.517.432,1.409,1.409,0,0,1-.689.151,1.266,1.266,0,0,1-.3-.043,1.492,1.492,0,0,1-.28-.108c-.086-.043-.172-.108-.28-.173a1.532,1.532,0,0,1-.28-.259v1.881a.08.08,0,0,1-.022.065l-.043.043a.161.161,0,0,1-.108.022h-.344a.929.929,0,0,1-.108-.022c-.022-.022-.043-.022-.065-.043,0-.022-.022-.043-.022-.065V24.732a.08.08,0,0,1,.022-.065c0-.022.022-.022.043-.043a.161.161,0,0,1,.108-.022h.3c.043,0,.065.022.086.022.022.022.043.022.043.043s.022.043.022.065v.5a4.137,4.137,0,0,1,.323-.3,2.8,2.8,0,0,1,.323-.216,1.013,1.013,0,0,1,.323-.13,1.889,1.889,0,0,1,.366-.043,1.355,1.355,0,0,1,.689.151,1.516,1.516,0,0,1,.474.432,1.58,1.58,0,0,1,.258.649,3.254,3.254,0,0,1,.086.8Zm-.711.086a4.585,4.585,0,0,0-.043-.562,1.541,1.541,0,0,0-.151-.476.829.829,0,0,0-.28-.324.747.747,0,0,0-.452-.13,1.077,1.077,0,0,0-.258.043.727.727,0,0,0-.258.13c-.086.065-.172.13-.28.216a2.468,2.468,0,0,0-.3.346v1.492a3.164,3.164,0,0,0,.538.54.868.868,0,0,0,.538.195.794.794,0,0,0,.452-.13.948.948,0,0,0,.3-.346,1.553,1.553,0,0,0,.172-.476c0-.173.022-.346.022-.519Zm5.211-.086a3.7,3.7,0,0,1-.108.886,2.119,2.119,0,0,1-.3.67,1.46,1.46,0,0,1-.517.432,1.409,1.409,0,0,1-.689.151,1.266,1.266,0,0,1-.3-.043,1.492,1.492,0,0,1-.28-.108,1.8,1.8,0,0,1-.258-.173,1.532,1.532,0,0,1-.28-.259v1.881a.08.08,0,0,1-.022.065.166.166,0,0,1-.065.043.161.161,0,0,1-.108.022h-.344a.929.929,0,0,1-.108-.022c-.022-.022-.043-.022-.065-.043,0-.022-.022-.043-.022-.065V24.732a.08.08,0,0,1,.022-.065c0-.022.022-.022.043-.043a.129.129,0,0,1,.086-.022h.3c.043,0,.065.022.086.022.022.022.043.022.043.043s.022.043.022.065v.5a4.142,4.142,0,0,1,.323-.3,2.8,2.8,0,0,1,.323-.216,1.013,1.013,0,0,1,.323-.13,1.889,1.889,0,0,1,.366-.043,1.355,1.355,0,0,1,.689.151,1.516,1.516,0,0,1,.474.432,1.58,1.58,0,0,1,.258.649,2.477,2.477,0,0,1,.108.8Zm-.732.086a4.582,4.582,0,0,0-.043-.562,1.541,1.541,0,0,0-.151-.476.829.829,0,0,0-.28-.324.747.747,0,0,0-.452-.13,1.076,1.076,0,0,0-.258.043.726.726,0,0,0-.258.13c-.086.065-.172.13-.28.216-.086.086-.194.216-.3.346v1.492a3.164,3.164,0,0,0,.538.54.868.868,0,0,0,.538.195A.794.794,0,0,0,94.33,28a.948.948,0,0,0,.3-.346,1.553,1.553,0,0,0,.172-.476c0-.173.022-.346.022-.519Zm2.519,1.859a.08.08,0,0,1-.022.065.165.165,0,0,1-.065.043.161.161,0,0,1-.108.022h-.345a.929.929,0,0,1-.108-.022c-.022-.022-.043-.022-.065-.043,0-.022-.022-.043-.022-.065V24.732c0-.022,0-.043.022-.043,0-.022.022-.022.065-.043a.161.161,0,0,1,.108-.022h.345a.928.928,0,0,1,.108.022c.022,0,.043.022.065.043a.067.067,0,0,1,.022.043v3.783Zm.086-5.059c0,.173-.022.281-.086.324a.473.473,0,0,1-.345.086c-.172,0-.28-.022-.323-.086a.45.45,0,0,1-.086-.324c0-.151.022-.281.086-.324a.473.473,0,0,1,.344-.086c.172,0,.28.022.323.086a.45.45,0,0,1,.086.324Zm4.436,5.059a.08.08,0,0,1-.022.065l-.043.043a.161.161,0,0,1-.108.022h-.345a.929.929,0,0,1-.108-.022c-.022-.022-.043-.022-.065-.043,0-.022-.022-.043-.022-.065V26.31a3.117,3.117,0,0,0-.043-.519,1.677,1.677,0,0,0-.151-.346.634.634,0,0,0-.258-.216.9.9,0,0,0-.344-.086.857.857,0,0,0-.517.195,3.164,3.164,0,0,0-.538.54v2.637a.08.08,0,0,1-.022.065.166.166,0,0,1-.065.043.161.161,0,0,1-.108.022h-.345a.93.93,0,0,1-.108-.022c-.022-.022-.043-.022-.065-.043,0-.022-.022-.043-.022-.065V24.732a.08.08,0,0,1,.022-.065c0-.022.022-.022.043-.043a.161.161,0,0,1,.108-.022h.3c.043,0,.065.022.086.022.022.022.043.022.043.043s.022.043.022.065v.5a2.549,2.549,0,0,1,.624-.519,1.446,1.446,0,0,1,.646-.173,1.338,1.338,0,0,1,.624.13,1.066,1.066,0,0,1,.409.346,1.769,1.769,0,0,1,.237.5,3.285,3.285,0,0,1,.065.692v2.313Zm4.543-3.61a.467.467,0,0,1-.043.216.118.118,0,0,1-.108.065h-.538a.652.652,0,0,1,.194.324,1.229,1.229,0,0,1,.065.389,1.657,1.657,0,0,1-.108.584,1.206,1.206,0,0,1-.3.432,1.547,1.547,0,0,1-.452.259,1.692,1.692,0,0,1-.6.086,1.383,1.383,0,0,1-.431-.065,1.123,1.123,0,0,1-.323-.151,1.2,1.2,0,0,0-.129.173.642.642,0,0,0-.043.216.3.3,0,0,0,.129.238.614.614,0,0,0,.366.108l.99.043a1.3,1.3,0,0,1,.517.086A1.2,1.2,0,0,1,106,28.1a.957.957,0,0,1,.258.324.914.914,0,0,1,.086.432,1.287,1.287,0,0,1-.108.5,1.189,1.189,0,0,1-.323.411,1.943,1.943,0,0,1-.56.281,3,3,0,0,1-.818.108,2.738,2.738,0,0,1-.775-.086,1.434,1.434,0,0,1-.517-.216.865.865,0,0,1-.3-.324.88.88,0,0,1-.086-.411,1.088,1.088,0,0,1,.043-.259.8.8,0,0,1,.108-.238.845.845,0,0,1,.172-.216,2.36,2.36,0,0,1,.237-.216.717.717,0,0,1-.3-.259.655.655,0,0,1-.108-.346,1.008,1.008,0,0,1,.108-.454,1.42,1.42,0,0,1,.258-.368,1.868,1.868,0,0,1-.215-.346,1.491,1.491,0,0,1-.065-.476,1.656,1.656,0,0,1,.108-.584,1.044,1.044,0,0,1,.3-.432,1.181,1.181,0,0,1,.452-.259,1.644,1.644,0,0,1,.581-.086,1.624,1.624,0,0,1,.323.022,1.475,1.475,0,0,0,.28.043h1.141a.118.118,0,0,1,.108.065c0,.043.022.108.022.195Zm-1.077.994a.749.749,0,0,0-.818-.822.817.817,0,0,0-.345.065.527.527,0,0,0-.237.195,1.166,1.166,0,0,0-.151.281,1.676,1.676,0,0,0-.043.324.753.753,0,0,0,.215.584.778.778,0,0,0,.581.216.817.817,0,0,0,.345-.065.675.675,0,0,0,.237-.173,1.614,1.614,0,0,0,.151-.259,1.079,1.079,0,0,0,.065-.346Zm.345,2.983a.425.425,0,0,0-.194-.368.944.944,0,0,0-.538-.13l-.969-.043a.972.972,0,0,0-.215.195.708.708,0,0,0-.129.173.288.288,0,0,0-.065.173.478.478,0,0,0-.022.173.432.432,0,0,0,.28.411,1.86,1.86,0,0,0,.775.13,1.674,1.674,0,0,0,.517-.065,1.029,1.029,0,0,0,.344-.151.675.675,0,0,0,.194-.238C105.655,29.077,105.677,28.991,105.677,28.883Z" fill="#e5175b" fill-rule="evenodd"/>
</svg>
