<svg version="1.1" xmlns="http://www.w3.org/2000/svg" xmlns:xlink="http://www.w3.org/1999/xlink">
    <defs>

        <symbol id="icon-instagram" viewBox="0 0 24 24"
            xmlns="http://www.w3.org/2000/svg">
            <path
                d="M15.8846 2H7.11538C5.75915 2.00145 4.45887 2.54086 3.49986 3.49986C2.54086 4.45887 2.00145 5.75915 2 7.11538V15.8846C2.00145 17.2409 2.54086 18.5411 3.49986 19.5001C4.45887 20.4591 5.75915 20.9985 7.11538 21H15.8846C17.2409 20.9985 18.5411 20.4591 19.5001 19.5001C20.4591 18.5411 20.9985 17.2409 21 15.8846V7.11538C20.9985 5.75915 20.4591 4.45887 19.5001 3.49986C18.5411 2.54086 17.2409 2.00145 15.8846 2ZM11.5 15.8846C10.6328 15.8846 9.78508 15.6275 9.06404 15.1457C8.34299 14.6639 7.781 13.9791 7.44914 13.1779C7.11728 12.3767 7.03045 11.4951 7.19963 10.6446C7.36882 9.79407 7.78641 9.01281 8.39961 8.39961C9.01281 7.78641 9.79407 7.36882 10.6446 7.19963C11.4951 7.03045 12.3767 7.11728 13.1779 7.44914C13.9791 7.781 14.6639 8.34299 15.1457 9.06404C15.6275 9.78508 15.8846 10.6328 15.8846 11.5C15.8834 12.6625 15.4211 13.777 14.5991 14.5991C13.777 15.4211 12.6625 15.8834 11.5 15.8846ZM16.9808 7.11538C16.764 7.11538 16.552 7.0511 16.3718 6.93065C16.1915 6.8102 16.051 6.63901 15.9681 6.43871C15.8851 6.23841 15.8634 6.01801 15.9057 5.80538C15.948 5.59275 16.0524 5.39743 16.2057 5.24413C16.359 5.09083 16.5543 4.98643 16.7669 4.94414C16.9796 4.90184 17.2 4.92355 17.4002 5.00652C17.6005 5.08948 17.7717 5.22998 17.8922 5.41024C18.0126 5.5905 18.0769 5.80243 18.0769 6.01923C18.0769 6.30995 17.9614 6.58876 17.7559 6.79433C17.5503 6.9999 17.2715 7.11538 16.9808 7.11538ZM14.4231 11.5C14.4231 12.0781 14.2516 12.6433 13.9304 13.124C13.6093 13.6047 13.1527 13.9793 12.6186 14.2006C12.0845 14.4218 11.4968 14.4797 10.9297 14.3669C10.3627 14.2541 9.84187 13.9757 9.43307 13.5669C9.02427 13.1581 8.74588 12.6373 8.63309 12.0703C8.5203 11.5032 8.57819 10.9155 8.79943 10.3814C9.02067 9.84726 9.39533 9.39074 9.87603 9.06955C10.3567 8.74836 10.9219 8.57692 11.5 8.57692C12.2752 8.57692 13.0187 8.88489 13.5669 9.43307C14.1151 9.98126 14.4231 10.7248 14.4231 11.5Z"
            />
        </symbol>

        <symbol id="icon-facebook" viewBox="0 0 24 24"
            xmlns="http://www.w3.org/2000/svg">
            <path
                d="M13 13.5H15.8571L17 9.5H13V7.5C13 6.47 13 5.5 15.2857 5.5H17V2.14C16.6274 2.097 15.2206 2 13.7349 2C10.632 2 8.42857 3.657 8.42857 6.7V9.5H5V13.5H8.42857V22H13V13.5Z"
            />
        </symbol>

        <symbol id="icon-telegram" viewBox="0 0 24 24"
            xmlns="http://www.w3.org/2000/svg">
            <path
                d="M19.4576 4.18185L2.62445 10.7098C1.94706 11.0138 1.71794 11.6226 2.46072 11.953L6.77914 13.3331L17.2205 6.84361C17.7906 6.43621 18.3743 6.54485 17.8721 6.99301L8.90432 15.1586L8.62262 18.6142C8.88354 19.1478 9.36128 19.1503 9.66602 18.8851L12.1471 16.5242L16.3963 19.7241C17.3832 20.3117 17.9202 19.9325 18.1326 18.8555L20.9197 5.58366C21.209 4.25803 20.7156 3.67395 19.4576 4.18185Z"
            />
        </symbol>

        <symbol id="icon-tiktok" viewBox="0 0 24 24"
            xmlns="http://www.w3.org/2000/svg">
            <path
                d="M12.3528 4.01333C13.2324 4 14.1052 4.00667 14.9781 4C15.0318 5.01999 15.4011 6.05997 16.1531 6.77997C16.9051 7.51996 17.966 7.85995 19 7.97328V10.6599C18.0331 10.6266 17.0596 10.4266 16.18 10.0133C15.7973 9.83993 15.4414 9.61993 15.0923 9.39327C15.0855 11.3399 15.099 13.2865 15.0788 15.2265C15.0251 16.1598 14.7163 17.0865 14.1724 17.8532C13.2928 19.1331 11.7687 19.9665 10.2042 19.9931C9.24407 20.0465 8.28392 19.7865 7.46477 19.3065C6.10847 18.5132 5.15504 17.0598 5.01403 15.4999C5.00061 15.1665 4.99389 14.8332 5.00732 14.5065C5.12818 13.2399 5.75933 12.0266 6.73962 11.1999C7.8542 10.2399 9.41192 9.77993 10.8689 10.0533C10.8824 11.0399 10.8421 12.0266 10.8421 13.0132C10.1774 12.7999 9.3985 12.8599 8.81435 13.2599C8.39135 13.5332 8.06906 13.9532 7.9012 14.4265C7.7602 14.7665 7.80048 15.1399 7.8072 15.4999C7.96834 16.5932 9.02921 17.5132 10.1572 17.4132C10.9092 17.4065 11.6277 16.9732 12.0171 16.3398C12.1447 16.1198 12.2857 15.8932 12.2924 15.6332C12.3595 14.4399 12.3327 13.2532 12.3394 12.0599C12.3461 9.37327 12.3327 6.6933 12.3528 4.01333Z"
            />
        </symbol>

        <symbol id="icon-threads" viewBox="0 0 24 24"
            xmlns="http://www.w3.org/2000/svg">
            <path
                d="M16.4503 11.8061C16.3702 11.7669 16.2888 11.7292 16.2064 11.693C16.0629 8.99076 14.6176 7.44372 12.1908 7.42789L12.1579 7.42782C10.7064 7.42782 9.49914 8.06082 8.7561 9.21267L10.0908 10.148C10.6458 9.28765 11.517 9.10423 12.1585 9.10423L12.1807 9.10429C12.9798 9.1095 13.5827 9.34685 13.973 9.80972C14.257 10.1467 14.4469 10.6124 14.541 11.2001C13.8325 11.077 13.0663 11.0392 12.2473 11.0872C9.94001 11.223 8.45671 12.5978 8.55633 14.5081C8.60689 15.4771 9.0794 16.3107 9.88677 16.8553C10.5694 17.3156 11.4486 17.5407 12.3623 17.4898C13.569 17.4222 14.5156 16.9518 15.176 16.0918C15.6775 15.4387 15.9948 14.5923 16.1348 13.5258C16.7099 13.8804 17.1361 14.347 17.3715 14.9079C17.7717 15.8613 17.795 17.4281 16.5437 18.7055C15.4473 19.8245 14.1294 20.3086 12.1377 20.3235C9.92834 20.3068 8.25744 19.5829 7.17107 18.172C6.15377 16.8508 5.62802 14.9425 5.60841 12.5C5.62802 10.0575 6.15377 8.14916 7.17107 6.82798C8.25744 5.41705 9.92831 4.69318 12.1377 4.6764C14.363 4.69331 16.0631 5.42066 17.191 6.8384C17.7441 7.53364 18.1611 8.40795 18.436 9.42737L20 9.00105C19.6668 7.74626 19.1425 6.66499 18.429 5.76826C16.983 3.95066 14.8681 3.01931 12.1431 3H12.1322C9.41279 3.01924 7.32159 3.95414 5.91673 5.77868C4.66659 7.4023 4.02174 9.66145 4.00007 12.4933L4 12.5L4.00007 12.5067C4.02174 15.3385 4.66659 17.5977 5.91673 19.2214C7.32159 21.0458 9.41279 21.9808 12.1322 22H12.1431C14.5608 21.9829 16.265 21.3362 17.6689 19.9032C19.5057 18.0284 19.4504 15.6784 18.845 14.2358C18.4107 13.2013 17.5826 12.3611 16.4503 11.8061ZM12.2759 15.8158C11.2647 15.874 10.2141 15.4103 10.1623 14.417C10.1239 13.6806 10.6753 12.8588 12.338 12.7609C12.5284 12.7497 12.7152 12.7442 12.8988 12.7442C13.5027 12.7442 14.0677 12.8042 14.5814 12.9189C14.3898 15.3634 13.266 15.7603 12.2759 15.8158Z"
                fill="#FFFBFB" />
            <path
                d="M16.4503 11.8061C16.3702 11.7669 16.2888 11.7292 16.2064 11.693C16.0629 8.99076 14.6176 7.44372 12.1908 7.42789L12.1579 7.42782C10.7064 7.42782 9.49914 8.06082 8.7561 9.21267L10.0908 10.148C10.6458 9.28765 11.517 9.10423 12.1585 9.10423L12.1807 9.10429C12.9798 9.1095 13.5827 9.34685 13.973 9.80972C14.257 10.1467 14.4469 10.6124 14.541 11.2001C13.8325 11.077 13.0663 11.0392 12.2473 11.0872C9.94001 11.223 8.45671 12.5978 8.55633 14.5081C8.60689 15.4771 9.0794 16.3107 9.88677 16.8553C10.5694 17.3156 11.4486 17.5407 12.3623 17.4898C13.569 17.4222 14.5156 16.9518 15.176 16.0918C15.6775 15.4387 15.9948 14.5923 16.1348 13.5258C16.7099 13.8804 17.1361 14.347 17.3715 14.9079C17.7717 15.8613 17.795 17.4281 16.5437 18.7055C15.4473 19.8245 14.1294 20.3086 12.1377 20.3235C9.92834 20.3068 8.25744 19.5829 7.17107 18.172C6.15377 16.8508 5.62802 14.9425 5.60841 12.5C5.62802 10.0575 6.15377 8.14916 7.17107 6.82798C8.25744 5.41705 9.92831 4.69318 12.1377 4.6764C14.363 4.69331 16.0631 5.42066 17.191 6.8384C17.7441 7.53364 18.1611 8.40795 18.436 9.42737L20 9.00105C19.6668 7.74626 19.1425 6.66499 18.429 5.76826C16.983 3.95066 14.8681 3.01931 12.1431 3H12.1322C9.41279 3.01924 7.32159 3.95414 5.91673 5.77868C4.66659 7.4023 4.02174 9.66145 4.00007 12.4933L4 12.5L4.00007 12.5067C4.02174 15.3385 4.66659 17.5977 5.91673 19.2214C7.32159 21.0458 9.41279 21.9808 12.1322 22H12.1431C14.5608 21.9829 16.265 21.3362 17.6689 19.9032C19.5057 18.0284 19.4504 15.6784 18.845 14.2358C18.4107 13.2013 17.5826 12.3611 16.4503 11.8061ZM12.2759 15.8158C11.2647 15.874 10.2141 15.4103 10.1623 14.417C10.1239 13.6806 10.6753 12.8588 12.338 12.7609C12.5284 12.7497 12.7152 12.7442 12.8988 12.7442C13.5027 12.7442 14.0677 12.8042 14.5814 12.9189C14.3898 15.3634 13.266 15.7603 12.2759 15.8158Z"
                stroke="#FFFBFB" />
        </symbol>

        <symbol id="icon-whatsapp" viewBox="0 0 44 44"
            xmlns="http://www.w3.org/2000/svg">
            <path
                d="M22.5 4C32.7176 4 41 12.2824 41 22.5C41 32.7175 32.7176 41 22.5 41C19.2307 41.0053 16.0188 40.14 13.1945 38.4932L4.00743 41L6.50862 31.8092C4.86045 28.984 3.99456 25.7708 4.00003 22.5C4.00003 12.2824 12.2825 4 22.5 4ZM16.1952 13.805L15.8252 13.8198C15.5857 13.8344 15.3516 13.8973 15.137 14.0048C14.9363 14.1184 14.7531 14.2605 14.5931 14.4266C14.3711 14.6356 14.2453 14.8169 14.1103 14.9927C13.426 15.8824 13.0576 16.9746 13.0632 18.097C13.0669 19.0035 13.3037 19.8859 13.6737 20.711C14.4303 22.3797 15.6754 24.1465 17.3182 25.7837C17.7141 26.1778 18.1026 26.5737 18.5207 26.9418C20.5619 28.739 22.9944 30.0351 25.6247 30.7269L26.6755 30.8879C27.0177 30.9064 27.36 30.8805 27.7041 30.8638C28.2428 30.836 28.7689 30.6901 29.2451 30.4365C29.4874 30.3117 29.7238 30.1759 29.9537 30.0295C29.9537 30.0295 30.0332 29.9777 30.1849 29.863C30.4347 29.678 30.5882 29.5466 30.7954 29.3302C30.949 29.1711 31.0822 28.9842 31.1839 28.7715C31.3282 28.4699 31.4725 27.8946 31.5317 27.4154C31.5761 27.0491 31.5632 26.8493 31.5576 26.7254C31.5502 26.5274 31.3856 26.3221 31.2061 26.2351L30.1294 25.7523C30.1294 25.7523 28.5199 25.0511 27.5357 24.6034C27.4327 24.5585 27.3224 24.5328 27.2101 24.5276C27.0835 24.5146 26.9556 24.5288 26.835 24.5694C26.7144 24.6099 26.6039 24.6757 26.5108 24.7625C26.5016 24.7588 26.3776 24.8643 25.0401 26.4849C24.9633 26.588 24.8575 26.666 24.7363 26.7088C24.615 26.7517 24.4838 26.7574 24.3593 26.7254C24.2387 26.6931 24.1207 26.6523 24.0059 26.6033C23.7765 26.5071 23.697 26.4701 23.5397 26.4035C22.4779 25.9401 21.4949 25.3141 20.626 24.5479C20.3929 24.3444 20.1764 24.1224 19.9544 23.9078C19.2266 23.2108 18.5923 22.4223 18.0674 21.562L17.9583 21.3863C17.8799 21.2682 17.8165 21.1408 17.7696 21.007C17.6993 20.7351 17.8824 20.5168 17.8824 20.5168C17.8824 20.5168 18.332 20.0247 18.541 19.7583C18.7445 19.4993 18.9166 19.2477 19.0276 19.0682C19.2459 18.7167 19.3143 18.356 19.1996 18.0766C18.6816 16.8112 18.1451 15.5514 17.5938 14.3008C17.4847 14.0529 17.1609 13.8753 16.8668 13.8401C16.7669 13.829 16.667 13.8179 16.5671 13.8105C16.3186 13.7982 16.0697 13.8007 15.8215 13.8179L16.1934 13.8031L16.1952 13.805Z"
            />
        </symbol>

        <symbol id="icon-gmail" viewBox="0 0 44 44"
            xmlns="http://www.w3.org/2000/svg">
            <path fill-rule="evenodd" clip-rule="evenodd"
                d="M39.3312 18.2188H22.6115V24.7812H32.4204C31.5287 29.375 27.293 32.4375 22.6115 32.2188C16.8153 32 12.3567 27.625 12.1338 21.9375C11.9108 16.0312 16.5924 11 22.6115 10.7812C25.0637 10.7812 27.5159 11.6563 29.5223 13.4062L34.6497 8.59375C31.5287 5.53125 27.0701 4 22.8344 4C13.0255 4 5 11.875 5 21.5C5 31.125 13.0255 39 22.8344 39C33.0892 39 40 32 40 21.9375C39.7771 20.625 39.7771 19.5312 39.3312 18.2188Z"
            />
        </symbol>

        <symbol id="icon-burger" viewBox="0 0 32 32"
            xmlns="http://www.w3.org/2000/svg">
            <path d="M3.99976 8H27.9998M3.99976 16H27.9998M3.99976 24H27.9998"
                stroke-width="2" stroke-linecap="round" stroke-linejoin="round" />
        </symbol>

        <symbol id="icon-close" viewBox="0 0 24 24"
            xmlns="http://www.w3.org/2000/svg">
            <path
                d="M18.3002 5.71022C18.2077 5.61752 18.0978 5.54397 17.9768 5.49379C17.8559 5.44361 17.7262 5.41778 17.5952 5.41778C17.4643 5.41778 17.3346 5.44361 17.2136 5.49379C17.0926 5.54397 16.9827 5.61752 16.8902 5.71022L12.0002 10.5902L7.11022 5.70022C7.01764 5.60764 6.90773 5.5342 6.78677 5.4841C6.6658 5.43399 6.53615 5.4082 6.40522 5.4082C6.27429 5.4082 6.14464 5.43399 6.02368 5.4841C5.90272 5.5342 5.79281 5.60764 5.70022 5.70022C5.60764 5.79281 5.5342 5.90272 5.4841 6.02368C5.43399 6.14464 5.4082 6.27429 5.4082 6.40522C5.4082 6.53615 5.43399 6.6658 5.4841 6.78677C5.5342 6.90773 5.60764 7.01764 5.70022 7.11022L10.5902 12.0002L5.70022 16.8902C5.60764 16.9828 5.5342 17.0927 5.4841 17.2137C5.43399 17.3346 5.4082 17.4643 5.4082 17.5952C5.4082 17.7262 5.43399 17.8558 5.4841 17.9768C5.5342 18.0977 5.60764 18.2076 5.70022 18.3002C5.79281 18.3928 5.90272 18.4662 6.02368 18.5163C6.14464 18.5665 6.27429 18.5922 6.40522 18.5922C6.53615 18.5922 6.6658 18.5665 6.78677 18.5163C6.90773 18.4662 7.01764 18.3928 7.11022 18.3002L12.0002 13.4102L16.8902 18.3002C16.9828 18.3928 17.0927 18.4662 17.2137 18.5163C17.3346 18.5665 17.4643 18.5922 17.5952 18.5922C17.7262 18.5922 17.8558 18.5665 17.9768 18.5163C18.0977 18.4662 18.2076 18.3928 18.3002 18.3002C18.3928 18.2076 18.4662 18.0977 18.5163 17.9768C18.5665 17.8558 18.5922 17.7262 18.5922 17.5952C18.5922 17.4643 18.5665 17.3346 18.5163 17.2137C18.4662 17.0927 18.3928 16.9828 18.3002 16.8902L13.4102 12.0002L18.3002 7.11022C18.6802 6.73022 18.6802 6.09022 18.3002 5.71022Z"
            />
        </symbol>

        <symbol id="icon-arrow-right" viewBox="0 0 29 13"
            xmlns="http://www.w3.org/2000/svg">
            <path d="M0 6.5H28M28 6.5L21.3333 12.5M28 6.5L21.3333 0.5"
                stroke-linejoin="round" />
        </symbol>


        <symbol id="icon-heart" viewBox="0 0 20 20"
            xmlns="http://www.w3.org/2000/svg">
            <path
                d="M2.42602 3.4363C4.32737 1.52123 7.4101 1.52123 9.31146 3.4363L10 4.12981L10.6885 3.4363C12.5899 1.52123 15.6726 1.52123 17.574 3.4363C19.4753 5.35137 19.4753 8.45633 17.574 10.3714L10 18L2.42602 10.3714C0.524661 8.45633 0.524661 5.35137 2.42602 3.4363Z"
            />
        </symbol>

        <symbol id="icon-dialog" viewBox="0 0 16 16"
            xmlns="http://www.w3.org/2000/svg">
            <path
                d="M8.01126 0C6.96216 0 5.92334 0.206917 4.9541 0.608937C3.98486 1.01096 3.10419 1.60021 2.36237 2.34304C0.864186 3.84327 0.0225174 5.87801 0.0225174 7.99965C0.0155335 9.84687 0.654261 11.6383 1.82797 13.0634L0.230225 14.6634C0.119375 14.7758 0.0442836 14.9187 0.0144264 15.0739C-0.0154309 15.2291 0.00128371 15.3896 0.062461 15.5353C0.128814 15.6792 0.236379 15.8002 0.371503 15.8828C0.506627 15.9654 0.663215 16.006 0.821391 15.9993H8.01126C10.13 15.9993 12.162 15.1565 13.6602 13.6562C15.1583 12.156 16 10.1213 16 7.99965C16 5.87801 15.1583 3.84327 13.6602 2.34304C12.162 0.842817 10.13 0 8.01126 0ZM8.01126 14.3994H2.74668L3.48963 13.6554C3.63842 13.5055 3.72194 13.3028 3.72194 13.0914C3.72194 12.8801 3.63842 12.6773 3.48963 12.5274C2.44357 11.4811 1.79216 10.104 1.64638 8.63065C1.5006 7.15732 1.86947 5.67895 2.69014 4.44742C3.51081 3.21589 4.73251 2.30738 6.1471 1.8767C7.56168 1.44601 9.08164 1.51978 10.448 2.08544C11.8144 2.6511 12.9426 3.67366 13.6405 4.97889C14.3384 6.28413 14.5627 7.79129 14.2753 9.2436C13.9879 10.6959 13.2066 12.0035 12.0644 12.9436C10.9222 13.8837 9.48979 14.3982 8.01126 14.3994Z"
            />
        </symbol>


        <symbol id="icon-share" viewBox="0 0 12 16" fill="none"
            xmlns="http://www.w3.org/2000/svg">
            <path
                d="M6.32009 10.6159L6 10.3491L5.67991 10.6159L0.5 14.9325V0.5H11.5V14.9325L6.32009 10.6159Z"
                stroke="#0B0909"
            />
        </symbol>

        <symbol id="icon-volume" viewBox="0 0 63 76" fill="none"
            xmlns="http://www.w3.org/2000/svg">
            <g clip-path="url(#clip0_612_1105)">
                <path
                    d="M10.5 68.875H52.5C53.9437 68.875 55.125 67.8063 55.125 66.5V23.75H42C39.0961 23.75 36.75 21.6273 36.75 19V7.125H10.5C9.05625 7.125 7.875 8.19375 7.875 9.5V66.5C7.875 67.8063 9.05625 68.875 10.5 68.875ZM0 9.5C0 4.26016 4.70859 0 10.5 0H37.6523C40.4414 0 43.1156 0.994531 45.0844 2.77578L59.932 16.2094C61.9008 17.9906 63 20.4102 63 22.9336V66.5C63 71.7398 58.2914 76 52.5 76H10.5C4.70859 76 0 71.7398 0 66.5V9.5ZM31.5 40.375V59.375C31.5 60.3398 30.8602 61.2008 29.8758 61.5719C28.8914 61.943 27.7594 61.7352 27.0211 61.0523L21.2297 55.8125H18.375C16.9312 55.8125 15.75 54.7438 15.75 53.4375V46.3125C15.75 45.0062 16.9312 43.9375 18.375 43.9375H21.2297L27.0211 38.6977C27.7758 38.0148 28.9078 37.8219 29.8758 38.1781C30.8438 38.5344 31.5 39.4102 31.5 40.375ZM45.5766 39.7812C47.4797 42.75 48.5625 46.2086 48.5625 49.875C48.5625 53.5414 47.4797 57 45.5766 59.9688C44.4937 61.6758 42.082 62.2547 40.1953 61.275C38.3086 60.2953 37.6688 58.1133 38.7516 56.4062C39.982 54.4914 40.6875 52.2648 40.6875 49.875C40.6875 47.4852 39.982 45.2586 38.7516 43.3438C37.6688 41.6367 38.3086 39.4547 40.1953 38.475C42.082 37.4953 44.4937 38.0742 45.5766 39.7812Z"
                    fill="#EF628F" />
            </g>
            <defs>
                <clipPath id="clip0_612_1105">
                    <rect width="63" height="76" fill="white" />
                </clipPath>
            </defs>
        </symbol>

        <symbol id="icon-play" viewBox="0 0 76 76" fill="none"
            xmlns="http://www.w3.org/2000/svg">
            <path
                d="M24.2308 22.0213L24.2255 43.3173C24.2257 43.7997 24.3562 44.2729 24.6029 44.6867C24.8497 45.1005 25.2035 45.4392 25.6267 45.6669C26.0499 45.8946 26.5266 46.0026 27.0061 45.9796C27.4856 45.9565 27.9499 45.8032 28.3495 45.536L44.262 34.8907C44.6255 34.6471 44.9235 34.3172 45.1296 33.9302C45.3357 33.5431 45.4436 33.111 45.4436 32.672C45.4436 32.233 45.3357 31.8009 45.1296 31.4138C44.9235 31.0268 44.6255 30.6969 44.262 30.4533L28.3548 19.8027C27.9552 19.5354 27.4909 19.3821 27.0114 19.3591C26.5319 19.336 26.0552 19.4441 25.632 19.6718C25.2088 19.8995 24.855 20.2382 24.6082 20.652C24.3615 21.0657 24.231 21.539 24.2308 22.0213ZM3 18C3 14.8174 4.2582 11.7652 6.49782 9.51472C8.73744 7.26428 11.775 6 14.9423 6H49.4423C52.6096 6 55.6472 7.26428 57.8868 9.51472C60.1264 11.7652 61.3846 14.8174 61.3846 18V47.3333C61.3846 50.5159 60.1264 53.5682 57.8868 55.8186C55.6472 58.069 52.6096 59.3333 49.4423 59.3333H14.9423C11.775 59.3333 8.73744 58.069 6.49782 55.8186C4.2582 53.5682 3 50.5159 3 47.3333V18ZM14.9423 11.3333C11.28 11.3333 8.30769 14.32 8.30769 18V47.3333C8.30769 51.0133 11.28 54 14.9423 54H49.4423C53.1046 54 56.0769 51.0133 56.0769 47.3333V18C56.0769 14.32 53.1046 11.3333 49.4423 11.3333H14.9423ZM13.6154 64.6667C16.0357 67.904 19.8891 70 24.2308 70H52.0962C57.375 70 62.4376 67.8929 66.1703 64.1421C69.903 60.3914 72 55.3043 72 50V27.3333C72 22.9707 69.9141 19.0987 66.6923 16.6667V50C66.6923 53.8898 65.1545 57.6204 62.4172 60.3709C59.6799 63.1214 55.9673 64.6667 52.0962 64.6667H13.6154Z"
                fill="#EF628F" />
        </symbol>

        <symbol id="icon-pdf" viewBox="0 0 82 76" fill="none"
            xmlns="http://www.w3.org/2000/svg">
            <path
                d="M10.25 68.875H15.375V76H10.25C4.59648 76 0 71.7398 0 66.5V9.5C0 4.26016 4.59648 0 10.25 0H36.7559C39.4785 0 42.0891 0.994531 44.0109 2.77578L58.5051 16.2094C60.427 17.9906 61.5 20.4102 61.5 22.9336V42.75H53.8125V23.75H41C38.1652 23.75 35.875 21.6273 35.875 19V7.125H10.25C8.84062 7.125 7.6875 8.19375 7.6875 9.5V66.5C7.6875 67.8063 8.84062 68.875 10.25 68.875ZM28.1875 52.25H33.3125C38.2613 52.25 42.2812 55.9758 42.2812 60.5625C42.2812 65.1492 38.2613 68.875 33.3125 68.875H30.75V73.625C30.75 74.9313 29.5969 76 28.1875 76C26.7781 76 25.625 74.9313 25.625 73.625V54.625C25.625 53.3187 26.7781 52.25 28.1875 52.25ZM33.3125 64.125C35.4426 64.125 37.1562 62.5367 37.1562 60.5625C37.1562 58.5883 35.4426 57 33.3125 57H30.75V64.125H33.3125ZM48.6875 52.25H53.8125C58.0566 52.25 61.5 55.4414 61.5 59.375V68.875C61.5 72.8086 58.0566 76 53.8125 76H48.6875C47.2781 76 46.125 74.9313 46.125 73.625V54.625C46.125 53.3187 47.2781 52.25 48.6875 52.25ZM53.8125 71.25C55.2219 71.25 56.375 70.1813 56.375 68.875V59.375C56.375 58.0687 55.2219 57 53.8125 57H51.25V71.25H53.8125ZM66.625 54.625C66.625 53.3187 67.7781 52.25 69.1875 52.25H76.875C78.2844 52.25 79.4375 53.3187 79.4375 54.625C79.4375 55.9313 78.2844 57 76.875 57H71.75V61.75H76.875C78.2844 61.75 79.4375 62.8187 79.4375 64.125C79.4375 65.4313 78.2844 66.5 76.875 66.5H71.75V73.625C71.75 74.9313 70.5969 76 69.1875 76C67.7781 76 66.625 74.9313 66.625 73.625V54.625Z"
                fill="#EF628F" />
        </symbol>

        <symbol id="icon-clock" viewBox="0 0 41 40"
            xmlns="http://www.w3.org/2000/svg">
            <path
                d="M20 3C29.1129 3 36.5 10.3871 36.5 19.5C36.5 28.6129 29.1129 36 20 36C10.8871 36 3.5 28.6129 3.5 19.5C3.5 10.3871 10.8871 3 20 3ZM20 6.3C16.4991 6.3 13.1417 7.69071 10.6662 10.1662C8.19071 12.6417 6.8 15.9991 6.8 19.5C6.8 23.0009 8.19071 26.3583 10.6662 28.8338C13.1417 31.3093 16.4991 32.7 20 32.7C23.5009 32.7 26.8583 31.3093 29.3338 28.8338C31.8093 26.3583 33.2 23.0009 33.2 19.5C33.2 15.9991 31.8093 12.6417 29.3338 10.1662C26.8583 7.69071 23.5009 6.3 20 6.3ZM20 9.6C20.4041 9.60005 20.7942 9.74843 21.0962 10.017C21.3982 10.2855 21.5912 10.6556 21.6385 11.0569L21.65 11.25V18.8169L26.1165 23.2834C26.4125 23.5804 26.5843 23.9788 26.5971 24.3978C26.6099 24.8168 26.4627 25.225 26.1854 25.5395C25.9082 25.8539 25.5216 26.051 25.1043 26.0908C24.687 26.1305 24.2702 26.0099 23.9385 25.7535L23.7834 25.6165L18.8335 20.6665C18.577 20.4099 18.4123 20.0759 18.3648 19.7161L18.35 19.5V11.25C18.35 10.8124 18.5238 10.3927 18.8333 10.0833C19.1427 9.77384 19.5624 9.6 20 9.6Z"
            />
        </symbol>

        <symbol id="icon-big-line-arrow" viewBox="0 0 296 30" fill="none"
            xmlns="http://www.w3.org/2000/svg">
            <path
                d="M294.442 16.3934C295.223 15.6122 295.222 14.3459 294.441 13.565L281.712 0.838838C280.93 0.0579002 279.664 0.0580788 278.883 0.839238C278.102 1.6204 278.102 2.88673 278.884 3.66766L290.199 14.9798L278.887 26.2951C278.106 27.0762 278.106 28.3426 278.887 29.1235C279.668 29.9044 280.935 29.9043 281.716 29.1231L294.442 16.3934ZM4.88407 17.0201C5.98864 17.0199 6.88394 16.1244 6.88379 15.0198C6.88363 13.9152 5.98808 13.0199 4.88351 13.0201L4.88407 17.0201ZM14.6511 13.0187C13.5465 13.0188 12.6512 13.9144 12.6514 15.019C12.6515 16.1235 13.5471 17.0188 14.6516 17.0187L14.6511 13.0187ZM24.4192 17.0173C25.5238 17.0171 26.4191 16.1216 26.4189 15.017C26.4188 13.9125 25.5232 13.0171 24.4187 13.0173L24.4192 17.0173ZM34.1862 13.0159C33.0817 13.0161 32.1864 13.9116 32.1865 15.0162C32.1867 16.1208 33.0822 17.0161 34.1868 17.0159L34.1862 13.0159ZM43.9544 17.0145C45.059 17.0144 45.9543 16.1188 45.9541 15.0143C45.9539 13.9097 45.0584 13.0144 43.9538 13.0145L43.9544 17.0145ZM53.7214 13.0132C52.6168 13.0133 51.7215 13.9089 51.7217 15.0134C51.7218 16.118 52.6174 17.0133 53.722 17.0132L53.7214 13.0132ZM63.4895 17.0118C64.5941 17.0116 65.4894 16.1161 65.4893 15.0115C65.4891 13.9069 64.5935 13.0116 63.489 13.0118L63.4895 17.0118ZM73.2565 13.0104C72.152 13.0106 71.2567 13.9061 71.2568 15.0107C71.257 16.1153 72.1525 17.0106 73.2571 17.0104L73.2565 13.0104ZM83.0247 17.009C84.1293 17.0089 85.0246 16.1133 85.0244 15.0087C85.0243 13.9042 84.1287 13.0089 83.0241 13.009L83.0247 17.009ZM92.7917 13.0077C91.6871 13.0078 90.7918 13.9034 90.792 15.0079C90.7921 16.1125 91.6877 17.0078 92.7923 17.0077L92.7917 13.0077ZM102.56 17.0063C103.664 17.0061 104.56 16.1106 104.56 15.006C104.559 13.9014 103.664 13.0061 102.559 13.0063L102.56 17.0063ZM112.327 13.0049C111.222 13.005 110.327 13.9006 110.327 15.0052C110.327 16.1097 111.223 17.005 112.327 17.0049L112.327 13.0049ZM122.095 17.0035C123.2 17.0034 124.095 16.1078 124.095 15.0032C124.095 13.8987 123.199 13.0034 122.094 13.0035L122.095 17.0035ZM131.862 13.0021C130.757 13.0023 129.862 13.8978 129.862 15.0024C129.862 16.107 130.758 17.0023 131.863 17.0021L131.862 13.0021ZM141.63 17.0008C142.735 17.0006 143.63 16.105 143.63 15.0005C143.63 13.8959 142.734 13.0006 141.63 13.0008L141.63 17.0008ZM151.397 12.9994C150.293 12.9995 149.397 13.8951 149.397 14.9997C149.398 16.1042 150.293 16.9995 151.398 16.9994L151.397 12.9994ZM161.165 16.998C162.27 16.9978 163.165 16.1023 163.165 14.9977C163.165 13.8931 162.269 12.9978 161.165 12.998L161.165 16.998ZM170.932 12.9966C169.828 12.9968 168.932 13.8923 168.933 14.9969C168.933 16.1015 169.828 16.9968 170.933 16.9966L170.932 12.9966ZM180.7 16.9952C181.805 16.9951 182.7 16.0995 182.7 14.995C182.7 13.8904 181.804 12.9951 180.7 12.9952L180.7 16.9952ZM190.467 12.9939C189.363 12.994 188.468 13.8896 188.468 14.9941C188.468 16.0987 189.363 16.994 190.468 16.9939L190.467 12.9939ZM200.236 16.9925C201.34 16.9923 202.235 16.0968 202.235 14.9922C202.235 13.8876 201.34 12.9923 200.235 12.9925L200.236 16.9925ZM210.003 12.9911C208.898 12.9913 208.003 13.8868 208.003 14.9914C208.003 16.096 208.899 16.9913 210.003 16.9911L210.003 12.9911ZM219.771 16.9897C220.875 16.9896 221.771 16.094 221.77 14.9894C221.77 13.8849 220.875 12.9896 219.77 12.9897L219.771 16.9897ZM229.538 12.9883C228.433 12.9885 227.538 13.8841 227.538 14.9886C227.538 16.0932 228.434 16.9885 229.538 16.9883L229.538 12.9883ZM239.306 16.987C240.411 16.9868 241.306 16.0912 241.306 14.9867C241.306 13.8821 240.41 12.9868 239.305 12.987L239.306 16.987ZM249.073 12.9856C247.968 12.9857 247.073 13.8813 247.073 14.9859C247.073 16.0904 247.969 16.9857 249.074 16.9856L249.073 12.9856ZM258.841 16.9842C259.946 16.984 260.841 16.0885 260.841 14.9839C260.841 13.8794 259.945 12.984 258.841 12.9842L258.841 16.9842ZM268.608 12.9828C267.504 12.983 266.608 13.8785 266.608 14.9831C266.609 16.0877 267.504 16.983 268.609 16.9828L268.608 12.9828ZM278.376 16.9814C279.481 16.9813 280.376 16.0857 280.376 14.9812C280.376 13.8766 279.48 12.9813 278.376 12.9814L278.376 16.9814ZM288.143 12.9801C287.039 12.9802 286.143 13.8758 286.144 14.9803C286.144 16.0849 287.039 16.9802 288.144 16.9801L288.143 12.9801ZM0.000282406 17.0208L4.88407 17.0201L4.88351 13.0201L-0.000282407 13.0208L0.000282406 17.0208ZM14.6516 17.0187L24.4192 17.0173L24.4187 13.0173L14.6511 13.0187L14.6516 17.0187ZM34.1868 17.0159L43.9544 17.0145L43.9538 13.0145L34.1862 13.0159L34.1868 17.0159ZM53.722 17.0132L63.4895 17.0118L63.489 13.0118L53.7214 13.0132L53.722 17.0132ZM73.2571 17.0104L83.0247 17.009L83.0241 13.009L73.2565 13.0104L73.2571 17.0104ZM92.7923 17.0077L102.56 17.0063L102.559 13.0063L92.7917 13.0077L92.7923 17.0077ZM112.327 17.0049L122.095 17.0035L122.094 13.0035L112.327 13.0049L112.327 17.0049ZM131.863 17.0021L141.63 17.0008L141.63 13.0008L131.862 13.0021L131.863 17.0021ZM151.398 16.9994L161.165 16.998L161.165 12.998L151.397 12.9994L151.398 16.9994ZM170.933 16.9966L180.7 16.9952L180.7 12.9952L170.932 12.9966L170.933 16.9966ZM190.468 16.9939L200.236 16.9925L200.235 12.9925L190.467 12.9939L190.468 16.9939ZM210.003 16.9911L219.771 16.9897L219.77 12.9897L210.003 12.9911L210.003 16.9911ZM229.538 16.9883L239.306 16.987L239.305 12.987L229.538 12.9883L229.538 16.9883ZM249.074 16.9856L258.841 16.9842L258.841 12.9842L249.073 12.9856L249.074 16.9856ZM268.609 16.9828L278.376 16.9814L278.376 12.9814L268.608 12.9828L268.609 16.9828ZM288.144 16.9801L293.028 16.9794L293.027 12.9794L288.143 12.9801L288.144 16.9801Z"
                fill="#FFFBFB" />
        </symbol>

        <symbol id="icon-small-line-arrow" width="84" height="31" viewBox="0 0 84 31" fill="none"
            xmlns="http://www.w3.org/2000/svg">
            <path
                d="M82.4183 17.1878C83.208 16.4155 83.2222 15.1493 82.4499 14.3595L69.8654 1.48981C69.0932 0.700057 67.8269 0.68587 67.0372 1.45812C66.2474 2.23037 66.2332 3.49662 67.0055 4.28637L78.1917 15.7261L66.752 26.9124C65.9622 27.6846 65.9481 28.9509 66.7203 29.7406C67.4925 30.5304 68.7588 30.5446 69.5486 29.7723L82.4183 17.1878ZM5.97884 16.9172C7.08334 16.9296 7.98875 16.0443 8.00112 14.9398C8.0135 13.8353 7.12815 12.9299 6.02365 12.9175L5.97884 16.9172ZM16.0262 13.0295C14.9216 13.0172 14.0162 13.9025 14.0039 15.007C13.9915 16.1115 14.8768 17.0169 15.9813 17.0293L16.0262 13.0295ZM25.9838 17.1413C27.0883 17.1537 27.9937 16.2684 28.0061 15.1639C28.0185 14.0594 27.1331 13.154 26.0286 13.1416L25.9838 17.1413ZM36.0311 13.2537C34.9266 13.2413 34.0212 14.1266 34.0089 15.2311C33.9965 16.3356 34.8818 17.241 35.9863 17.2534L36.0311 13.2537ZM45.9888 17.3655C47.0933 17.3778 47.9987 16.4925 48.0111 15.388C48.0235 14.2835 47.1381 13.3781 46.0336 13.3657L45.9888 17.3655ZM56.0361 13.4778C54.9316 13.4654 54.0262 14.3507 54.0139 15.4552C54.0015 16.5597 54.8868 17.4651 55.9913 17.4775L56.0361 13.4778ZM65.9938 17.5896C67.0983 17.602 68.0037 16.7166 68.0161 15.6121C68.0285 14.5076 67.1431 13.6022 66.0386 13.5898L65.9938 17.5896ZM76.0411 13.7019C74.9366 13.6895 74.0312 14.5749 74.0189 15.6794C74.0065 16.7839 74.8918 17.6893 75.9963 17.7016L76.0411 13.7019ZM0.977595 16.8612L5.97884 16.9172L6.02365 12.9175L1.0224 12.8615L0.977595 16.8612ZM15.9813 17.0293L25.9838 17.1413L26.0286 13.1416L16.0262 13.0295L15.9813 17.0293ZM35.9863 17.2534L45.9888 17.3655L46.0336 13.3657L36.0311 13.2537L35.9863 17.2534ZM55.9913 17.4775L65.9938 17.5896L66.0386 13.5898L56.0361 13.4778L55.9913 17.4775ZM75.9963 17.7016L80.9976 17.7577L81.0424 13.7579L76.0411 13.7019L75.9963 17.7016Z"
                fill="#FFFBFB" />
        </symbol>


    </defs>
</svg>