<svg width="143" height="40" viewBox="0 0 143 40" fill="none" xmlns="http://www.w3.org/2000/svg">
    <path
        d="M22.2855 15.024C22.2563 15.0304 22.2475 15.0678 22.271 15.0861C22.2863 15.098 22.289 15.12 22.2769 15.1352L21.678 15.8908C21.3351 16.3232 20.7039 16.3981 20.268 16.0579L15.4487 12.2974C15.0591 11.9934 14.9917 11.4336 15.2981 11.047C15.462 10.8403 15.5213 10.5727 15.4865 10.312C15.2944 8.87294 15.665 7.3613 16.6409 6.13019C16.7889 5.94354 16.9465 5.76878 17.1124 5.60606L17.1192 5.59941C17.3225 5.40066 17.5384 5.21995 17.7644 5.05756C19.7475 3.63296 22.5168 3.61775 24.5368 5.19399C26.5094 6.73319 27.1638 9.31895 26.3292 11.5327C26.3247 11.5447 26.3201 11.5568 26.3154 11.5688C26.2267 11.7992 26.1218 12.0254 26.0006 12.2459C25.8519 12.5162 25.6787 12.7778 25.4805 13.0278C24.6463 14.08 23.5073 14.7542 22.2855 15.024Z"
        fill="url(#paint0_linear_809_643)" />
    <path
        d="M15.5135 12.8549C14.963 12.4253 14.1607 12.549 13.7675 13.1241L0.208341 32.9544C-0.121225 33.4364 -0.0510049 34.0766 0.356777 34.4775C0.150396 34.9124 0.175734 35.3601 0.452199 35.5759C0.452919 35.5764 0.45364 35.577 0.454362 35.5775C0.529375 37.2585 1.66213 38.8983 3.46984 39.6179C5.44797 40.4052 8.15886 40.073 11.1484 37.7027C13.7683 35.6254 15.9728 32.8609 17.9755 30.0692C18.6645 29.1087 19.3274 28.1485 19.9752 27.2103C21.2236 25.402 22.4158 23.6752 23.6301 22.185C25.4751 19.9207 27.2927 18.3082 29.296 17.831C31.2619 17.3628 33.5249 17.9654 36.3321 20.4271C36.4983 20.5729 36.7521 20.5574 36.899 20.3925C37.0459 20.2276 37.0303 19.9758 36.8641 19.83C33.9489 17.2735 31.4254 16.5042 29.1085 17.0561C26.8292 17.599 24.8677 19.3985 23.0054 21.6839C21.772 23.1976 20.5475 24.9709 19.2864 26.7971C18.6429 27.7291 17.9898 28.6749 17.3211 29.607C15.3278 32.3857 13.1759 35.0749 10.6469 37.0801C7.81389 39.3263 5.40487 39.5294 3.76893 38.8782C2.25759 38.2766 1.34087 36.9304 1.25962 35.5922C1.35614 35.5467 1.45215 35.4869 1.54426 35.4141L1.61227 35.4672C2.10809 35.8541 2.82052 35.7972 3.24764 35.3366L19.6097 17.6934C20.0862 17.1796 20.0207 16.3719 19.4675 15.9403L15.5135 12.8549Z"
        fill="url(#paint1_linear_809_643)" />
    <path fill-rule="evenodd" clip-rule="evenodd"
        d="M128.954 30.4218V30.3749C128.97 30.3358 128.982 30.2772 128.99 30.199C128.998 30.1208 129.002 30.0504 129.002 29.9879C129.002 29.7455 128.966 29.4796 128.895 29.1903C128.832 28.8932 128.706 28.5257 128.518 28.0879L126.951 24.8172C126.447 24.9172 126.044 25.1174 125.641 25.3176C125.238 25.5177 124.835 25.7179 124.332 25.818C123.691 25.9453 122.72 26.0182 122.116 25.818C121.644 25.6617 120.706 25.2175 120.706 25.2175C120.706 25.2175 120.101 24.8977 119.594 24.8977L118.236 27.994C118.118 28.2833 117.992 28.6 117.858 28.944C117.725 29.2881 117.658 29.636 117.658 29.9879C117.658 30.0895 117.666 30.1755 117.681 30.2459C117.697 30.3085 117.713 30.3515 117.729 30.3749V30.4218H115.321V30.3749C115.462 30.2264 115.639 29.9644 115.852 29.5891C116.064 29.206 116.296 28.729 116.548 28.1582L123.312 13.2512H124.256L128.635 23.0416C129.903 22.5468 131.809 22.1223 134.618 22.7505L135 23.8013C133.156 23.0763 130.779 23.3516 129.032 23.9304L130.666 27.5835C130.815 27.9198 130.969 28.2482 131.126 28.5687C131.292 28.8815 131.445 29.163 131.587 29.4132C131.728 29.6634 131.854 29.8745 131.964 30.0465C132.075 30.2185 132.149 30.328 132.189 30.3749V30.4218H128.954ZM121.109 24.0634C121.209 24.1171 121.307 24.1725 121.404 24.2274C121.699 24.3942 121.989 24.5576 122.317 24.6639C122.916 24.8575 123.522 24.8242 124.13 24.6639C124.524 24.5601 124.766 24.4379 125.035 24.3023C125.185 24.2266 125.343 24.1467 125.541 24.0634C125.71 23.9919 125.842 23.9375 125.971 23.8847C126.156 23.8084 126.333 23.7354 126.605 23.6185L123.288 16.371L120.101 23.6631C120.101 23.6631 120.623 23.803 121.109 24.0634Z"
        fill="url(#paint2_linear_809_643)" />
    <path
        d="M49.4812 16.3076H49.74L49.8224 14.1245C49.6969 14.0701 49.5361 14 49.34 13.9144C49.1438 13.8288 48.9124 13.7432 48.6457 13.6576C48.3868 13.572 48.0927 13.498 47.7632 13.4358C47.4337 13.3735 47.0729 13.3424 46.6807 13.3424C46.1472 13.3424 45.6295 13.4358 45.1274 13.6225C44.6254 13.8093 44.1743 14.0778 43.7743 14.4281C43.382 14.7783 43.0643 15.2025 42.8211 15.7006C42.5858 16.1909 42.4681 16.7435 42.4681 17.3583C42.4681 17.942 42.5583 18.4791 42.7388 18.9694C42.9192 19.4519 43.1545 19.9072 43.4448 20.3353C43.7429 20.7555 44.0763 21.1525 44.445 21.5261C44.8215 21.8996 45.2059 22.2654 45.5981 22.6234C45.9903 22.9737 46.3708 23.3239 46.7395 23.6741C47.116 24.0244 47.4494 24.3863 47.7397 24.7598C48.0378 25.1334 48.277 25.5303 48.4574 25.9506C48.6379 26.3631 48.7281 26.8145 48.7281 27.3048C48.7281 27.6551 48.6653 27.9781 48.5398 28.2738C48.4221 28.5696 48.2496 28.8264 48.0221 29.0443C47.7946 29.2544 47.52 29.4218 47.1984 29.5463C46.8846 29.663 46.5277 29.7214 46.1276 29.7214C45.6883 29.7214 45.2843 29.6475 44.9156 29.4996C44.5469 29.3439 44.2175 29.1416 43.9272 28.8925C43.6448 28.6357 43.4056 28.3438 43.2094 28.017C43.0133 27.6823 42.8721 27.3321 42.7858 26.9663H42.4917L42.221 29.5463C42.3936 29.663 42.6133 29.7915 42.88 29.9316C43.1545 30.0716 43.4605 30.204 43.7978 30.3285C44.1429 30.4452 44.5156 30.5425 44.9156 30.6203C45.3236 30.7059 45.7511 30.7488 46.1982 30.7488C46.9984 30.7488 47.6887 30.6242 48.2692 30.3752C48.8497 30.1183 49.3243 29.7876 49.693 29.3829C50.0617 28.9782 50.3323 28.5229 50.5049 28.017C50.6853 27.5033 50.7755 26.9935 50.7755 26.4876C50.7755 25.8105 50.6147 25.1801 50.2931 24.5964C49.9793 24.0049 49.5831 23.4406 49.1046 22.9036C48.6261 22.3666 48.1084 21.849 47.5514 21.3509C46.9944 20.8528 46.4767 20.3547 45.9982 19.8566C45.5197 19.3585 45.1196 18.8565 44.798 18.3506C44.4842 17.837 44.3273 17.2999 44.3273 16.7396C44.3273 16.3894 44.3783 16.0703 44.4803 15.7823C44.5822 15.4943 44.7313 15.2453 44.9274 15.0351C45.1314 14.825 45.3824 14.6616 45.6805 14.5448C45.9786 14.4281 46.3198 14.3697 46.7042 14.3697C47.1356 14.3697 47.5083 14.4359 47.822 14.5682C48.1437 14.7005 48.4143 14.8678 48.6339 15.0702C48.8614 15.2647 49.0419 15.4749 49.1752 15.7006C49.3164 15.9263 49.4184 16.1286 49.4812 16.3076Z"
        fill="url(#paint3_linear_809_643)" />
    <path fill-rule="evenodd" clip-rule="evenodd"
        d="M65.3428 30.3402V30.3869H68.5669V30.3402C68.5277 30.2935 68.4532 30.1845 68.3434 30.0133C68.2335 29.8421 68.108 29.6319 67.9668 29.3829C67.8256 29.1338 67.6726 28.8536 67.5079 28.5423C67.351 28.2232 67.1981 27.8963 67.049 27.5617L60.6596 13.2957H59.7183L52.9759 28.1337C52.7249 28.7019 52.4935 29.1766 52.2817 29.558C52.0699 29.9316 51.8934 30.1923 51.7522 30.3402V30.3869H54.1526V30.3402C54.1369 30.3168 54.1212 30.274 54.1055 30.2117C54.0898 30.1417 54.082 30.0561 54.082 29.9549C54.082 29.6047 54.1487 29.2583 54.282 28.9159C54.4154 28.5734 54.5409 28.2582 54.6586 27.9703L56.0117 24.8883C56.4746 24.8727 56.9923 24.8649 57.565 24.8649H61.7304C62.4599 24.8649 63.0444 24.8727 63.4837 24.8883L64.9074 28.0637C65.0957 28.4995 65.2212 28.8653 65.284 29.1611C65.3546 29.449 65.3899 29.7136 65.3899 29.9549C65.3899 30.0172 65.386 30.0872 65.3781 30.165C65.3703 30.2429 65.3585 30.3012 65.3428 30.3402ZM59.1182 23.8609H56.4471L59.6948 16.401L63.0012 23.8142C62.6561 23.822 62.2717 23.8298 61.8481 23.8376C61.4245 23.8376 60.9813 23.8415 60.5184 23.8492C60.0634 23.8492 59.5967 23.8531 59.1182 23.8609Z"
        fill="url(#paint4_linear_809_643)" />
    <path
        d="M69.8848 13.6926V13.6459H66.6607V13.6926C66.6999 13.7393 66.7745 13.8482 66.8843 14.0195C66.9941 14.1907 67.1196 14.4047 67.2608 14.6616C67.402 14.9106 67.5511 15.1908 67.7079 15.5021C67.8727 15.8134 68.0296 16.1364 68.1786 16.4711L74.568 30.7488H75.5093L82.2517 15.899C82.5028 15.3387 82.7342 14.8678 82.946 14.4864C83.1578 14.1051 83.3382 13.8405 83.4872 13.6926V13.6459H81.0751V13.6926C81.0907 13.7237 81.1064 13.7743 81.1221 13.8444C81.1378 13.9066 81.1457 13.9844 81.1457 14.0778C81.1457 14.4281 81.079 14.7744 80.9456 15.1169C80.8123 15.4593 80.6867 15.7745 80.5691 16.0625L75.5329 27.6317L70.3202 15.9691C70.1319 15.5332 70.0025 15.1713 69.9319 14.8834C69.8691 14.5876 69.8377 14.3191 69.8377 14.0778C69.8377 14.0156 69.8417 13.9455 69.8495 13.8677C69.8574 13.7899 69.8691 13.7315 69.8848 13.6926Z"
        fill="url(#paint5_linear_809_643)" />
    <path fill-rule="evenodd" clip-rule="evenodd"
        d="M92.23 16.4944C92.2457 16.9847 92.2535 17.5607 92.2535 18.2222V25.8222C92.2535 26.4837 92.2457 27.0636 92.23 27.5617C92.2143 28.052 92.1908 28.4762 92.1594 28.8342C92.128 29.1922 92.0888 29.4918 92.0417 29.7331C92.0025 29.9744 91.9594 30.1767 91.9123 30.3402V30.3869H92.6889C92.9242 30.3869 93.1988 30.3946 93.5126 30.4102C93.8263 30.4335 94.1441 30.4569 94.4657 30.4802C94.7952 30.5036 95.1168 30.5231 95.4306 30.5386C95.7443 30.562 96.0189 30.5736 96.2542 30.5736C98.4272 30.5736 100.059 30.165 101.149 29.3478C102.24 28.5229 102.785 27.2893 102.785 25.6471C102.785 25.0634 102.675 24.5341 102.455 24.0594C102.244 23.5768 101.938 23.1566 101.538 22.7985C101.145 22.4405 100.675 22.1448 100.126 21.9113C99.5764 21.67 98.9684 21.4988 98.3017 21.3976C98.7566 21.2731 99.1724 21.1058 99.5489 20.8956C99.9333 20.6777 100.259 20.4131 100.526 20.1018C100.8 19.7827 101.012 19.413 101.161 18.9927C101.31 18.5647 101.385 18.0821 101.385 17.5451C101.385 16.9069 101.259 16.3388 101.008 15.8407C100.765 15.3348 100.424 14.9106 99.9843 14.5682C99.5529 14.2257 99.039 13.965 98.4429 13.786C97.8467 13.5992 97.1956 13.5058 96.4896 13.5058C95.7287 13.5058 95.105 13.533 94.6187 13.5875C94.1401 13.642 93.7597 13.6692 93.4773 13.6692H92.9007C92.7203 13.6692 92.5555 13.6653 92.4065 13.6576C92.2339 13.6576 92.0692 13.6537 91.9123 13.6459V13.6926C91.9594 13.856 92.0025 14.0584 92.0417 14.2997C92.0888 14.5409 92.128 14.8445 92.1594 15.2102C92.1908 15.5683 92.2143 15.9963 92.23 16.4944ZM95.2305 22.1681C95.5914 22.1292 96.0385 22.1098 96.5719 22.1098C97.2152 22.1098 97.7761 22.1993 98.2546 22.3783C98.741 22.5495 99.141 22.7947 99.4548 23.1138C99.7764 23.4329 100.016 23.8142 100.173 24.2578C100.337 24.6937 100.42 25.1762 100.42 25.7055C100.42 27.0519 100.078 28.052 99.396 28.7058C98.7213 29.3517 97.6506 29.6747 96.1836 29.6747C96.0032 29.6747 95.764 29.6592 95.4659 29.628C95.1678 29.5969 94.8697 29.5619 94.5716 29.523C94.5167 29.1494 94.4735 28.6668 94.4421 28.0753C94.4108 27.4838 94.3951 26.7328 94.3951 25.8222V22.2849C94.5912 22.246 94.8697 22.2071 95.2305 22.1681ZM94.9834 21.2809C94.8108 21.2731 94.6147 21.2575 94.3951 21.2342V14.5331C94.5206 14.4864 94.6736 14.4475 94.854 14.4164C95.0109 14.3853 95.1991 14.358 95.4188 14.3347C95.6463 14.3113 95.9091 14.2997 96.2072 14.2997C96.67 14.2997 97.0818 14.3775 97.4427 14.5331C97.8035 14.6888 98.1055 14.9145 98.3487 15.2102C98.5998 15.4982 98.788 15.8484 98.9135 16.2609C99.039 16.6734 99.1018 17.1326 99.1018 17.6385C99.1018 18.2456 99.0155 18.7787 98.8429 19.2379C98.6704 19.6893 98.4272 20.0668 98.1134 20.3703C97.8075 20.6738 97.4348 20.9034 96.9955 21.0591C96.5563 21.207 96.0699 21.2809 95.5365 21.2809H94.9834Z"
        fill="url(#paint6_linear_809_643)" />
    <path
        d="M108.362 13.6342C107.397 13.642 106.425 13.6459 105.444 13.6459V13.6926C105.491 13.856 105.534 14.0584 105.574 14.2997C105.621 14.5409 105.66 14.8445 105.691 15.2102C105.723 15.5683 105.746 15.9963 105.762 16.4944C105.778 16.9847 105.785 17.5607 105.785 18.2222V25.8222C105.785 26.4837 105.778 27.0636 105.762 27.5617C105.746 28.052 105.723 28.4762 105.691 28.8342C105.66 29.1922 105.621 29.4918 105.574 29.7331C105.534 29.9744 105.491 30.1767 105.444 30.3402V30.3869H110.904C111.084 30.3946 111.288 30.3985 111.516 30.3985C111.743 30.4063 111.983 30.4102 112.234 30.4102C112.492 30.418 112.736 30.4258 112.963 30.4335C113.198 30.4413 113.41 30.4491 113.599 30.4569C113.787 30.4647 113.928 30.4725 114.022 30.4802L114.363 28.589C113.806 28.7369 113.191 28.8653 112.516 28.9743C111.935 29.0754 111.257 29.1649 110.48 29.2428C109.704 29.3206 108.853 29.3595 107.927 29.3595V22.0397C108.453 22.0397 109.002 22.0631 109.574 22.1098C110.147 22.1487 110.676 22.1954 111.163 22.2499C111.728 22.3121 112.281 22.3783 112.822 22.4483L113.187 20.7555C112.779 20.8178 112.308 20.8723 111.775 20.919C111.32 20.9579 110.767 20.9968 110.116 21.0357C109.464 21.0746 108.735 21.098 107.927 21.1058V14.7316C108.217 14.716 108.503 14.7005 108.786 14.6849C109.029 14.6693 109.28 14.6577 109.539 14.6499C109.806 14.6343 110.033 14.6265 110.221 14.6265C110.778 14.6265 111.269 14.6499 111.692 14.6966C112.124 14.7355 112.489 14.7783 112.787 14.825C113.132 14.8795 113.434 14.9417 113.693 15.0118L114.269 13.4591C114.065 13.498 113.677 13.5291 113.104 13.5525C112.532 13.5758 111.841 13.5953 111.033 13.6109C110.225 13.6187 109.335 13.6264 108.362 13.6342Z"
        fill="url(#paint7_linear_809_643)" />
    <g clip-path="url(#clip0_809_643)">
        <path
            d="M139 0.875C138.382 0.875 137.778 1.05828 137.264 1.40166C136.75 1.74504 136.349 2.2331 136.113 2.80411C135.876 3.37513 135.814 4.00347 135.935 4.60966C136.056 5.21585 136.353 5.77267 136.79 6.20971C137.227 6.64675 137.784 6.94438 138.39 7.06495C138.997 7.18553 139.625 7.12365 140.196 6.88712C140.767 6.6506 141.255 6.25006 141.598 5.73616C141.942 5.22225 142.125 4.61807 142.125 4C142.124 3.17148 141.795 2.37715 141.209 1.7913C140.623 1.20544 139.829 0.87591 139 0.875ZM139 6.875C138.431 6.875 137.876 6.70638 137.403 6.39048C136.93 6.07457 136.561 5.62555 136.344 5.10021C136.126 4.57488 136.069 3.99681 136.18 3.43912C136.291 2.88142 136.565 2.36914 136.967 1.96707C137.369 1.56499 137.881 1.29117 138.439 1.18024C138.997 1.06931 139.575 1.12624 140.1 1.34385C140.626 1.56145 141.075 1.92994 141.39 2.40274C141.706 2.87553 141.875 3.43138 141.875 4C141.874 4.76224 141.571 5.49303 141.032 6.03202C140.493 6.57101 139.762 6.87417 139 6.875ZM139.535 4.32719C139.731 4.25971 139.896 4.12506 140.002 3.94716C140.108 3.76926 140.147 3.55963 140.113 3.35551C140.079 3.15138 139.973 2.96598 139.815 2.83224C139.657 2.69849 139.457 2.62507 139.25 2.625H138.25C138.217 2.625 138.185 2.63817 138.162 2.66161C138.138 2.68505 138.125 2.71685 138.125 2.75V5.25C138.125 5.28315 138.138 5.31495 138.162 5.33839C138.185 5.36183 138.217 5.375 138.25 5.375C138.283 5.375 138.315 5.36183 138.338 5.33839C138.362 5.31495 138.375 5.28315 138.375 5.25V4.375H139.266L139.896 5.31969C139.914 5.34729 139.943 5.36645 139.975 5.37295C140.008 5.37946 140.042 5.37277 140.069 5.35437C140.097 5.33598 140.116 5.30737 140.123 5.27484C140.129 5.24231 140.122 5.20854 140.104 5.18094L139.535 4.32719ZM138.375 2.875H139.25C139.416 2.875 139.575 2.94085 139.692 3.05806C139.809 3.17527 139.875 3.33424 139.875 3.5C139.875 3.66576 139.809 3.82473 139.692 3.94194C139.575 4.05915 139.416 4.125 139.25 4.125H138.375V2.875Z"
            fill="#F24A77" />
    </g>
    <defs>
        <linearGradient id="paint0_linear_809_643" x1="42.2256" y1="22.0179" x2="147.656"
            y2="22.0179" gradientUnits="userSpaceOnUse">
            <stop stop-color="#FC1943" />
            <stop offset="1" stop-color="#EF5D8C" />
        </linearGradient>
        <linearGradient id="paint1_linear_809_643" x1="42.2256" y1="22.0179" x2="147.656"
            y2="22.0179" gradientUnits="userSpaceOnUse">
            <stop stop-color="#FC1943" />
            <stop offset="1" stop-color="#EF5D8C" />
        </linearGradient>
        <linearGradient id="paint2_linear_809_643" x1="42.2256" y1="22.0179" x2="147.656"
            y2="22.0179" gradientUnits="userSpaceOnUse">
            <stop stop-color="#FC1943" />
            <stop offset="1" stop-color="#EF5D8C" />
        </linearGradient>
        <linearGradient id="paint3_linear_809_643" x1="42.2256" y1="22.0179" x2="147.656"
            y2="22.0179" gradientUnits="userSpaceOnUse">
            <stop stop-color="#FC1943" />
            <stop offset="1" stop-color="#EF5D8C" />
        </linearGradient>
        <linearGradient id="paint4_linear_809_643" x1="42.2256" y1="22.0179" x2="147.656"
            y2="22.0179" gradientUnits="userSpaceOnUse">
            <stop stop-color="#FC1943" />
            <stop offset="1" stop-color="#EF5D8C" />
        </linearGradient>
        <linearGradient id="paint5_linear_809_643" x1="42.2256" y1="22.0179" x2="147.656"
            y2="22.0179" gradientUnits="userSpaceOnUse">
            <stop stop-color="#FC1943" />
            <stop offset="1" stop-color="#EF5D8C" />
        </linearGradient>
        <linearGradient id="paint6_linear_809_643" x1="42.2256" y1="22.0179" x2="147.656"
            y2="22.0179" gradientUnits="userSpaceOnUse">
            <stop stop-color="#FC1943" />
            <stop offset="1" stop-color="#EF5D8C" />
        </linearGradient>
        <linearGradient id="paint7_linear_809_643" x1="42.2256" y1="22.0179" x2="147.656"
            y2="22.0179" gradientUnits="userSpaceOnUse">
            <stop stop-color="#FC1943" />
            <stop offset="1" stop-color="#EF5D8C" />
        </linearGradient>
        <clipPath id="clip0_809_643">
            <rect width="8" height="8" fill="white" transform="translate(135)" />
        </clipPath>
    </defs>
</svg>
    