<svg xmlns="http://www.w3.org/2000/svg" width="22.511" height="20.468" viewBox="0 0 22.511 20.468">
  <g id="noun_House_510184" transform="translate(-5.98 -9.95)">
    <g id="Group_7629" data-name="Group 7629" transform="translate(5.98 9.95)">
      <path id="Path_12794" data-name="Path 12794" d="M28.154,19.424,17.926,10.218a1.022,1.022,0,0,0-1.381,0L6.317,19.424a1.014,1.014,0,1,0,1.355,1.509l9.563-8.566,9.537,8.591a1.055,1.055,0,0,0,1.457-.077A1.043,1.043,0,0,0,28.154,19.424Z" transform="translate(-5.98 -9.95)" fill="#e5175b"/>
      <path id="Path_12795" data-name="Path 12795" d="M33.932,37.839l-7.159-6.265a1.045,1.045,0,0,0-1.355,0l-7.159,6.265a1.036,1.036,0,0,0-.358.767l.026,6.7a1.026,1.026,0,0,0,1.023,1.023h3.068a1.026,1.026,0,0,0,1.023-1.023V41.214a1.026,1.026,0,0,1,1.023-1.023h4.091a1.026,1.026,0,0,1,1.023,1.023v4.091A1.026,1.026,0,0,0,30.2,46.328h3.068a1.1,1.1,0,0,0,1.023-1.023v-6.7A.832.832,0,0,0,33.932,37.839Z" transform="translate(-14.852 -25.86)" fill="#e5175b"/>
    </g>
  </g>
</svg>
