<svg xmlns="http://www.w3.org/2000/svg" width="23.416" height="23.415" viewBox="0 0 23.416 23.415">
  <g id="Group_5187" data-name="Group 5187" transform="translate(0.5 0.5)">
    <g id="Group_5069" data-name="Group 5069" transform="translate(0 0)">
      <path id="Path_98" data-name="Path 98" d="M772.23,157.011a1.314,1.314,0,1,0,1.314,1.314A1.314,1.314,0,0,0,772.23,157.011Z" transform="translate(-755.087 -153.009)" fill="#fff" stroke="rgba(0,0,0,0)" stroke-miterlimit="10" stroke-width="1"/>
      <path id="Path_99" data-name="Path 99" d="M760.575,159.671a5.52,5.52,0,1,0,5.521,5.52A5.527,5.527,0,0,0,760.575,159.671Zm0,9.057a3.536,3.536,0,1,1,3.536-3.536A3.54,3.54,0,0,1,760.575,168.728Z" transform="translate(-749.275 -153.984)" fill="#fff" stroke="rgba(0,0,0,0)" stroke-miterlimit="10" stroke-width="1"/>
      <path id="Path_100" data-name="Path 100" d="M761.615,173.109h-8.95a6.741,6.741,0,0,1-6.733-6.733v-8.95a6.741,6.741,0,0,1,6.733-6.733h8.95a6.741,6.741,0,0,1,6.733,6.733v8.95A6.741,6.741,0,0,1,761.615,173.109Zm-8.95-20.307a4.629,4.629,0,0,0-4.624,4.624v8.95A4.63,4.63,0,0,0,752.665,171h8.95a4.63,4.63,0,0,0,4.624-4.624v-8.95a4.63,4.63,0,0,0-4.624-4.624Z" transform="translate(-745.932 -150.694)" fill="#fff" stroke="rgba(0,0,0,0)" stroke-miterlimit="10" stroke-width="1"/>
    </g>
  </g>
</svg>
