<svg id="XMLID_12_" xmlns="http://www.w3.org/2000/svg" width="21.068" height="20.13" viewBox="0 0 21.068 20.13">
  <g id="XMLID_15_" transform="translate(0.287 6.232)">
    <g id="XMLID_16_">
      <g id="XMLID_17_">
        <path id="XMLID_18_" d="M43.482,53.4v7.431a.345.345,0,0,1-.339.339H39.31a.345.345,0,0,1-.339-.339v-6.91c0-1.825-.652-3.077-2.295-3.077a2.483,2.483,0,0,0-2.321,1.643,2.854,2.854,0,0,0-.156,1.1v7.249a.345.345,0,0,1-.339.339H30.053a.345.345,0,0,1-.339-.339c0-1.851.052-10.795,0-12.881a.345.345,0,0,1,.339-.339h3.833a.345.345,0,0,1,.339.339v1.591c0,.026-.026.026-.026.052h.026v-.052A4.5,4.5,0,0,1,38.293,47.3c2.973,0,5.189,1.956,5.189,6.1ZM23.039,61.2h3.833a.345.345,0,0,0,.339-.339V47.952a.345.345,0,0,0-.339-.339H23.039a.345.345,0,0,0-.339.339V60.859A.364.364,0,0,0,23.039,61.2Z" transform="translate(-22.7 -47.3)" fill="#fff"/>
      </g>
    </g>
  </g>
  <g id="XMLID_13_" transform="translate(0 0)">
    <ellipse id="XMLID_14_" cx="2.425" cy="2.425" rx="2.425" ry="2.425" fill="#fff"/>
  </g>
</svg>
