<svg xmlns="http://www.w3.org/2000/svg" width="29.79" height="20.854" viewBox="0 0 29.79 20.854">
  <path id="iconfinder_BW_Youtube_glyph_svg_5305164" d="M29.168,80.056a3.73,3.73,0,0,0-2.634-2.634C24.211,76.8,14.9,76.8,14.9,76.8s-9.316,0-11.639.623A3.731,3.731,0,0,0,.622,80.056a41.614,41.614,0,0,0,0,14.341,3.731,3.731,0,0,0,2.634,2.634c2.323.622,11.639.622,11.639.622s9.316,0,11.639-.622A3.731,3.731,0,0,0,29.168,94.4a38.774,38.774,0,0,0,.622-7.17,38.779,38.779,0,0,0-.622-7.171ZM11.916,91.7V82.758l7.74,4.469L11.916,91.7Z" transform="translate(0 -76.8)" fill="#fff"/>
</svg>
