<svg xmlns="http://www.w3.org/2000/svg" width="770.829" height="663.268" viewBox="0 0 770.829 663.268">
  <g id="noun_Chatbot_1596693" transform="matrix(0.914, 0.407, -0.407, 0.914, 234.395, -128.593)" opacity="0.03">
    <path id="Path_12745" data-name="Path 12745" d="M44.069,24.76A26.749,26.749,0,1,0,70.818,51.509,26.749,26.749,0,0,0,44.069,24.76ZM37.248,51.509a6.955,6.955,0,1,1,6.82-7.087q0,.066,0,.132a6.821,6.821,0,0,1-6.821,6.821h0Z" transform="translate(207.579 275.463)"/>
    <path id="Path_12746" data-name="Path 12746" d="M55.149,24.76A26.749,26.749,0,1,0,81.9,51.509,26.749,26.749,0,0,0,55.149,24.76ZM48.194,51.509a6.955,6.955,0,1,1,6.955-6.955,6.821,6.821,0,0,1-6.82,6.822h-.135Z" transform="translate(344.688 275.463)"/>
    <path id="Path_12747" data-name="Path 12747" d="M87.387,29.14a8.827,8.827,0,0,0-8.693,8.693,19.527,19.527,0,0,1-39.053,0v0a8.827,8.827,0,0,0-17.52,0,37.047,37.047,0,0,0,74.094.042v-.042A8.828,8.828,0,0,0,87.387,29.14Z" transform="translate(266.976 329.663)"/>
    <path id="Path_12748" data-name="Path 12748" d="M307.794,19.1H98.484a88.138,88.138,0,0,0-88,88.138V192.7c0,32.153,25.575,63,57.728,63.078H337.034c32.175-.074,58.69-30.9,58.763-63.078V107.238A88.137,88.137,0,0,0,307.794,19.1Zm70.617,173.868c0,22.6-18.774,45.691-41.377,45.691H68.208c-22.55-.074-40.341-23.141-40.341-45.691v-85.73A70.751,70.751,0,0,1,98.484,36.487h209.31a70.751,70.751,0,0,1,70.751,70.751Z" transform="translate(122.938 205.424)"/>
    <path id="Path_12749" data-name="Path 12749" d="M649.4,43.191A34.506,34.506,0,0,0,581,52.364c2.606,21.6,21.722,27.956,26,29.078l3.611,20.329L595.1,94.148a7.975,7.975,0,0,0-10.686,3.215c-.993,1.725-3.758,15.108-3.758,15.108a70.751,70.751,0,0,0-22.6-6.152A101.646,101.646,0,0,0,457.748,25H197.615A101.913,101.913,0,0,0,97.307,106.319a70.216,70.216,0,0,0-26.749,8.426L66.947,99.1c-1-4.87-5.72-7.7-11.368-5.216L40.6,101.5l3.358-19.625C72.7,73.62,73.475,47.453,68.287,34.071,59.8,12.2,30.518,6.644,14.3,20.05A35.145,35.145,0,0,0,27.755,82.037l-7.218,34.847c-1.636,6.923,6.388,8.969,11.636,6.821l21.934-11.235,2.541,12.171a73.96,73.96,0,0,0-23,53.5,72.222,72.222,0,0,0,61.389,72.489v19.66A101.244,101.244,0,0,0,197.214,370.2h56.039a114.752,114.752,0,0,1-15.916,57.376c-9.474,14.812,5.651,24.429,16.049,21.8,43.889-11.1,77.322-57.812,89.626-79.016l114.2-.16a101.111,101.111,0,0,0,102.181-99.907V251.7a72.356,72.356,0,0,0,62.459-72.623A74.228,74.228,0,0,0,595.1,121.164l1.6-8.292,21.934,11.235c7.024,3.939,12.506-1.4,11.77-7.088l-7.757-34.907A34.506,34.506,0,0,0,649.4,43.459ZM20.9,59a18.46,18.46,0,0,1,3.427-25.85A18.812,18.812,0,0,1,50.7,36.555a19.742,19.742,0,0,1,3.636,13.73c-1.254,10.062-10.182,17.194-20.96,16.045A19.155,19.155,0,0,1,20.9,59Zm74.266,65.777v109a56.039,56.039,0,0,1,0-109.537,1.96,1.96,0,0,1,.267.535ZM541.606,272.3a84.66,84.66,0,0,1-84.526,80.247H334a4.062,4.062,0,0,0-3.438,1.9l-12.18,19.366c-5.484,9.362-52.027,59.516-60.854,54.969,8.5-16.392,13.592-34.206,16.584-52.428.859-5.231,1.283-19.8,1.185-20.97a2.558,2.558,0,0,0-2.554-2.7H196.412a85.2,85.2,0,0,1-82.788-82.654V123.839a85.6,85.6,0,0,1,83.991-81.852h260a87.335,87.335,0,0,1,83.991,83.991Zm63.261-93.621a55.1,55.1,0,0,1-45.206,54.969V124.107C602.632,128.514,604.867,178.674,604.867,178.674ZM617.706,65.527A18.387,18.387,0,0,1,600.721,36.1a17.788,17.788,0,0,1,12.171-7.222h2.675a18.463,18.463,0,0,1,18.39,18.789C633.555,60.8,622.566,64.846,617.706,65.527Z" transform="translate(0 127.701)"/>
    <path id="Path_12750" data-name="Path 12750" d="M49.5,37.549A8.693,8.693,0,0,0,58.2,28.856h0V11.2a8.693,8.693,0,1,0-17.387-.018V28.856A8.828,8.828,0,0,0,49.5,37.549Z" transform="translate(498.254 0)"/>
    <path id="Path_12751" data-name="Path 12751" d="M49.5,40.9A8.693,8.693,0,0,0,58.2,32.206h0V15.622A8.693,8.693,0,0,0,40.81,15.6v16.6A8.828,8.828,0,0,0,49.5,40.9Z" transform="translate(498.254 54.695)"/>
    <path id="Path_12752" data-name="Path 12752" d="M51.043,22.717H68.7a8.693,8.693,0,1,0,0-17.387H51.043a8.693,8.693,0,1,0,0,17.387Z" transform="translate(517.311 35.028)"/>
    <path id="Path_12753" data-name="Path 12753" d="M46.683,22.717H64.873a8.693,8.693,0,1,0,0-17.387H46.683a8.693,8.693,0,1,0,0,17.387Z" transform="translate(463.358 35.028)"/>
    <path id="Path_12754" data-name="Path 12754" d="M42.415,31.628A8.693,8.693,0,0,0,50.707,23.2V14.375a8.693,8.693,0,0,0-17.387,0V23.2a8.693,8.693,0,0,0,8.948,8.432Z" transform="translate(405.57 39.491)"/>
    <path id="Path_12755" data-name="Path 12755" d="M42.043,35.091A8.693,8.693,0,0,0,50.737,26.4h0V17.972a8.693,8.693,0,0,0-17.387-.018V26.4A8.693,8.693,0,0,0,42.043,35.091Z" transform="translate(405.941 83.775)"/>
    <path id="Path_12756" data-name="Path 12756" d="M43.537,25.227h8.426a8.693,8.693,0,1,0,0-17.387H43.4a8.693,8.693,0,1,0,0,17.387Z" transform="translate(422.77 66.088)"/>
    <path id="Path_12757" data-name="Path 12757" d="M40.043,25.227h8.426a8.693,8.693,0,1,0,0-17.387H40.043a8.693,8.693,0,0,0,0,17.387Z" transform="translate(381.192 66.088)"/>
  </g>
</svg>
