<svg xmlns="http://www.w3.org/2000/svg" width="17.35" height="19.74" viewBox="0 0 17.35 19.74">
  <g id="Gruppe_2449" data-name="Gruppe 2449" transform="translate(-576.08 -305.47)">
    <path id="Pfad_1087" data-name="Pfad 1087" d="M593.43,325.09V312.82l-8.7-7.35-8.65,7.3v12.32h5.07c.17-.89,1.07-5.78,1.08-5.81s0-3.6,0-4.12.36-.69,1-.69h1.65a1.25,1.25,0,0,1,.75.43c1,.95,3.29,3.15,3.29,3.15a.44.44,0,0,1,0,.59,1.06,1.06,0,0,1,1.41,1,.367.367,0,0,1,0,.11v5.27ZM584.94,312a1.22,1.22,0,0,1-1.22,1.21h0A1.22,1.22,0,0,1,582.5,312h0a1.22,1.22,0,0,1,1.22-1.22h0a1.22,1.22,0,0,1,1.22,1.22h0m-1.44,8-1,5.17h1.36V320Zm4.43-1-2.8-2.57v8.78h4.61v-5.36a.67.67,0,0,0-.59-.64.6.6,0,0,0-.58.43.4.4,0,0,0,0,.15.19.19,0,0,1-.17.2h0a.24.24,0,0,1-.24-.24.41.41,0,0,0,0-.11,1,1,0,0,1,.26-.52.53.53,0,0,1-.47-.12" fill=""/>
  </g>
</svg>
