<svg xmlns="http://www.w3.org/2000/svg" width="16.99" height="19.74" viewBox="0 0 16.99 19.74">
  <path id="Контур_558" data-name="Контур 558" d="M4.694,4.16a1.3,1.3,0,1,0-1.3,1.3,1.3,1.3,0,0,0,1.3-1.3M1.7-.2a.888.888,0,0,0,.022-1.254l-4-4.152a1.062,1.062,0,0,0-.783-.332H-6.925a1.368,1.368,0,0,0-1.106.322l-4.018,4.159A.891.891,0,0,0-12.027-.2a.891.891,0,0,0,1.254-.022l3.307-3.426V7.941a.889.889,0,0,0,.888.89.889.889,0,0,0,.631-.259.889.889,0,0,0,.262-.63V1.617H-3.89l3.75,4.8a.889.889,0,0,0,1.4-1.094L-2.864.044V-3.647L.443-.22A.891.891,0,0,0,1.7-.2M-3.19-8.974a1.935,1.935,0,0,0-1.935-1.935A1.935,1.935,0,0,0-7.059-8.974,1.935,1.935,0,0,0-5.125-7.038,1.939,1.939,0,0,0-3.19-8.974" transform="translate(12.296 10.909)" fill=""/>
</svg>
