<svg xmlns="http://www.w3.org/2000/svg" width="22.106" height="19.74" viewBox="0 0 22.106 19.74">
  <path id="Icon-Behindertehilfe" d="M6.3,3.8,4.149-3.983S3.911-5.11,2.965-5.11H1.9a1.125,1.125,0,0,0-1.085.885L-1.367,3.8H1.214s.354,5.515.354,5.533a.833.833,0,0,0,1.666.046L3.727,3.8ZM4.03-7.982A1.566,1.566,0,0,0,2.464-9.548,1.567,1.567,0,0,0,.9-7.982,1.568,1.568,0,0,0,2.464-6.414,1.567,1.567,0,0,0,4.03-7.982m-6.869,18h1.455L-3.56,2.813S-3.907,1.544-5,1.544c-.492,0-1.678-.016-2.4-.025A5,5,0,0,0-9.008.508V-3.064s-.006-.813-.77-.813h-1.294c-.727,0-.73.8-.73.8V.272a5,5,0,0,0-4.007,4.9,5,5,0,0,0,5,5,5,5,0,0,0,5-5,5.034,5.034,0,0,0-.037-.619ZM-8.849-6.76a1.566,1.566,0,0,0-1.566-1.566A1.567,1.567,0,0,0-11.983-6.76a1.568,1.568,0,0,0,1.568,1.568A1.567,1.567,0,0,0-8.849-6.76" transform="translate(15.81 9.548)" fill=""/>
</svg>
