<svg xmlns="http://www.w3.org/2000/svg" width="37.436" height="19.74" viewBox="0 0 37.436 19.74">
  <path id="Icon-Service" d="M7.837,4.319S14.727,4.13,16.679,3.1a42.485,42.485,0,0,0,8.53-6.815c2.029-2.344,5.055.251,3.261,2.346-1.964,2.3-4.822,5.246-8.963,9.489-3.072,3.151-4.7,3.61-5.875,3.61l-10.239.006a3.478,3.478,0,0,0-2.357.835c-1.013.925-2.7,2.527-2.7,2.527L-8.42,8.431c1.046-.95,3.381-2.975,4.377-3.725a26.659,26.659,0,0,1,5.92-3.015c4.974-1.811,9.7-3.51,11.5-4.161C16.591-3.63,18.02.388,15.251,1.462,9.55,3.668,7.39,4.319,7.39,4.319" transform="translate(8.42 4.645)" fill=""/>
</svg>
