<svg xmlns="http://www.w3.org/2000/svg" xmlns:xlink="http://www.w3.org/1999/xlink" width="26.376" height="19.74" viewBox="0 0 26.376 19.74">
  <defs>
    <clipPath id="clip-path">
      <path id="Контур_561" data-name="Контур 561" d="M0,6.1H26.376v-19.74H0Z" transform="translate(0 13.642)" fill=""/>
    </clipPath>
  </defs>
  <g id="Icon-Bildung" clip-path="url(#clip-path)">
    <g id="Сгруппировать_587" data-name="Сгруппировать 587" transform="translate(0 0.001)">
      <path id="Контур_560" data-name="Контур 560" d="M8.148,5.689V-12.695s-7.954-.089-10.316.024-2.486,1.437-2.486,1.437V7.011a3.26,3.26,0,0,1,2.279-1.3ZM6.192-8.348a.357.357,0,0,1-.357.357H-2.341a.356.356,0,0,1-.252-.1.356.356,0,0,1-.1-.253.355.355,0,0,1,.1-.252.355.355,0,0,1,.252-.1H5.834a.357.357,0,0,1,.357.356m0,2.936a.357.357,0,0,1-.357.356H-2.341a.355.355,0,0,1-.252-.1.355.355,0,0,1-.1-.252.357.357,0,0,1,.356-.357H5.834a.358.358,0,0,1,.357.357m0,2.935a.357.357,0,0,1-.357.356H-2.341A.356.356,0,0,1-2.7-2.477a.356.356,0,0,1,.356-.356H5.834a.357.357,0,0,1,.357.356M-5.426,7V.227h-12.8V3.939c0,1.76,2,1.748,2,1.748l7.959.02s2.079,0,2.846,1.3m-5.689-3.547a.709.709,0,0,1-.209.5.709.709,0,0,1-.5.206.708.708,0,0,1-.5-.207.708.708,0,0,1-.207-.5.71.71,0,0,1,.709-.711.71.71,0,0,1,.5.208.71.71,0,0,1,.208.5M-18.228-.486h12.8V-9.669h-12.8Zm0-9.895h12.8v-.859s-.128-1.448-2.486-1.436c-1.56.009-5.553-.045-8.09-.045-2.259,0-2.226,1.784-2.226,1.784Z" transform="translate(18.228 12.728)" fill=""/>
    </g>
  </g>
</svg>
