<svg id="Icon-Arbeit" xmlns="http://www.w3.org/2000/svg" width="35.519" height="19.74" viewBox="0 0 35.519 19.74">
  <path id="Контур_562" data-name="Контур 562" d="M14.733,5.72V-4.046S3.976-4.108,4.005-4.154H-1.559c-.019.01-4.368,1.88-4.368,1.88l-.006-.012-2.5,1.1-.286.141a.965.965,0,0,0-.392,1.3,1.093,1.093,0,0,0,1.381.6L-5.745.025a.144.144,0,0,0-.007.029L-1.345-1.82a1.68,1.68,0,0,1,.367-.087H10.672a.622.622,0,0,1,.622.622.622.622,0,0,1-.622.622H3.442L10.289,5.72ZM5.681-5.4a2.154,2.154,0,0,0,.379-1.145,1.574,1.574,0,0,0-.537-1.109,1.574,1.574,0,0,0-1.171-.382l-6.963-.038-8.761,3.679-9.414-.012V5.232h10.423s7.277,5.709,7.553,5.92a4.65,4.65,0,0,0,.579.319,2.37,2.37,0,0,0,2.681-.56l-3.7-3.218a.623.623,0,0,1-.064-.878.623.623,0,0,1,.878-.064l4.416,3.838a2.041,2.041,0,0,0,.392-.046,2.208,2.208,0,0,0,1.256-.781L-.592,5.83a.622.622,0,0,1-.195-.6.622.622,0,0,1,.43-.461.622.622,0,0,1,.612.153L4.671,9.038A2.359,2.359,0,0,0,6.1,7.861L1.71,3.758a.622.622,0,1,1,.849-.906L7.293,7.266a1.469,1.469,0,0,0,.794-.535,1.95,1.95,0,0,0,.437-.957L1.617-.662h-2.5L-6.851,1.87a4.788,4.788,0,0,1-1.177.289A2.32,2.32,0,0,1-10.349-.16,2.315,2.315,0,0,1-8.97-2.273C-8.93-2.3-1.78-5.4-1.646-5.4Z" transform="translate(20.786 8.072)" fill=""/>
</svg>
