<svg xmlns="http://www.w3.org/2000/svg" xmlns:xlink="http://www.w3.org/1999/xlink" width="1632" height="855" viewBox="0 0 1632 855">
  <defs>
    <clipPath id="clip-path">
      <rect id="Прямоугольник_86" data-name="Прямоугольник 86" width="1632" height="855" transform="translate(-0.095 5161)" fill="#b75454"/>
    </clipPath>
  </defs>
  <g id="Сгруппировать_634" data-name="Сгруппировать 634" transform="translate(-144 -5461)">
    <g id="Группа_масок_15" data-name="Группа масок 15" transform="translate(144.096 300)" clip-path="url(#clip-path)">
      <g id="Karte_Bundesrepublik_Deutschland" transform="translate(360.061 5151.071)">
        <path id="Thüringen" d="M398.726,442.062l2.551-.554,4.687.379,2.643.234,4.036.951.593.424,2.711,2.515,1.749-.747-2.3,3.1-.661,2.222,1.676,3.99,2.889,4.5,2.323,3.582,1.324,1.695-.2,3.3-.184,3.741,1.074.646,1.189,1.329,1.164.145,1.037-.1,1.6-.57.87-.438,8.91,2.82.635.075,8.908.189,1.938-.043.972-.2,3.83.16,5.79,2.222.322.409.058.467-.38,2.588.76,1.4.029.556,2.484.834-.723.7-.088.2-.026.2.677.876.936.893.427.145.547.292,1.806,1.622.644.7.057.379-.087.2-.553.95-.972,1.535-2.027,2.967-1.132,1.593-.718.82-.379.276-.653.249-.072-.015-1.037-1.182-.257.015-.307.218-.469.73-.8,1.389-.144,1.11,2.148,1.71,2.2.058,1.294-.614.336.029,1.192.5,2.172,2.222,1.5,3.39v.382l-.737,1.724-.38.7-1.819.335,1.147,4.736.672.513,1.25.585.075.364,5.356-.115,1.163-.98.353-.319.473-1.041.279-.247,8.7,1.374,2.158,1.329.433,1.684.26,1.84.192.777,6.6,2.1,2.5.672,3.882-.8,2.805-.745,1.154.377,4.772,3.04,3,2.151.351.319,3.246,4.166.249.733.029.335.059,1.23,1.322-.588.474-.115,4.46-.719.337-.029,5,1.652,1.507.688-.1-1,.344-.378.38-.426.935-.76.147.144,1.944,2.487.614,1.156.365,1.487.058.044.8-.556.334-.171.987-1.289,4.4-9.5.089-.424.058-1.419-.657-.863-.528-.321-1.806-1.331-.343-2.324,2.222-3.463,4.135-2.017.133-.029,10.634,3.332,4,1.461.52.337.263.379.335,1.23-.176.9-.1,1.725.424,2.443,3.422,2.571,3.289,1.243,3.347.846.469,2.28.81,3.141.2.353.914,1.518.365.351.748.513-1.127,1.71-3.866,1.26-1.966.348-.776-.188-2.619.408-4.436,1.125-.365.2-2.012,1.707-.043,1.725-1.277,3.626-.278.116-1.75.512-.055-.088L553.2,551.3l-.82-.306H550.2l-.409.133-2.258,1.754-.015.1.029,1.9-6.024,2.176-1.832-.2-.791-1.022-.651,1.331-1.044,7.525-.117,1.449.044.7.029.4,3.442,6.123,1.1,1.084,4.085,1.1-.307,1.786-1.5,1.987-.13.144-2.822,2.953-2.675.612-.2-.028-5.036,2.164-4.467,1.959-.716.306-.292.206-.4,1.167,2.719.8.484-.437.943.029.131.057.322.557-.2.747-.145.116-.292.145-1.164.13-.485-.189-1.6,1.053-3.42-.422-5.482.275.635-3.889-.606-4.251-1.038-1.095-.52.142-.189.12-1.862,1.707-.076,1.125-3.1,3.2-.293.115-1,.467-.525.311-4.327,6.078-.169.47-.014.131,1.03,2.483.424.7,1.264.03,1.557-.191,1.147,1.055,2.743,2.57.328.684.058.37-.46.729-2.552,2.4-2.252,1.2-.846.687-.614.965.191.275.672.673,2.171,1.521-3.684,1.652-5.677,2.016L484.2,618.48h-.294l-.408-.232-.781-.733-.585-.672-.394-.292-.536-.261-1.821.393-.218.13-.217.352-.221,1.066-.028.293-.607.571-2.609.818-.813-.408-2.316-2.589-.914-1.638-.759-3.025-2.428.293-2.74-1.623-.145-.247-.119-.774-.048-2.912.2-2.178.614-.906.614.015.1-.145.372-.935v-.2l-.781-1.141-.452-.658-.366-.306-4.8-.923-2.177.29-.234.09-1.5,1.593-.307,1.038-3.04,2.455-2.1.965-.133-.218-.629-.189-.592.189-.307.348-.2.863v.278l.159,2.952.957.659.614.22.411,1.154,1.658,10.452v.088l-2.772,9.5-4.3.713-1.3,2.6-.133.191-1.132.04-3.055-2.952-.962-1.4-.044-.145-.134-.672.148-.8.583-.658.453-.4.767-.57.585-.191.059-.848-1.877-3.274-2.244-1.886-1.236-.014-1.03.231-.176.149-.528,1.593-1.613.686-1.88.643-.554-.073-4.956-.878L424.08,622.4l-1.57-2.806-.759-.776-.263-.058h-.221l-9.18.058-10.379,4.239-.293,1.3.249,4.225.119.513.509.426,7.608,5.375.236.076.861.2,1.774.582.813.427.571.729.073,1.9-.308.85-.189.231-.946.643-.962.25-.394-.058-3.91-.895-3.35-.773-.8-.16-.4.31-.1.292.058,2.35.2.09.191,2.426-.621,1.051-.261.119-.382.061-7.228-2.65-2.537-.625-.264-.615-.577-1.608-.922-3.977.47-4.937.364-3.889-4.208-.965-5.526-2.074-3.158-3.451-.424-1.637-.351-1.4-1.221.612-1.279.585-2.566-.276-.234-.029-.738-1.04-.029-.8-.541-3.332-3.361-7.132-.7-.731-.758-.614-6.463-2.7-2.012-2.721-2.544-3.331-.745-.076-9.18.98-2.506,2.777-1.366,1.359-.512.247-.387.12-.279-13.419.235-.512.547-.879.293-.321,2.493-2.089-1.023-2.849-1.074-1.873-.409-.335-1.76-.176-2.983-.176-.665.176-3.361,1.315-.336.437.058.849,1.7,2.118-.747,1.712-1.279.261-1.5-.25-4.524-.8-.087-1.287.1-3.666.418-.612.937-1.345,1.92-2.371,1.734-3.7.651-1.712V569.7l-.234-2.034-1.28-1.561,1.865-.588.365-.131.176-.2-.015-.643-.13-1.347-.528-.983-.014-.773.495-2.484.191-.482,1.515-1.229.635-.452,2.242.292,1.908-.057.988-1.6,2.244-5.671-.029-1.1-1.338-8.168-2.025-6.654.842-1.753.2-.411.2-.131.365-.191,1.192-.146,1.981.2,3.173.438,1.775.966.409.495.4.308.643.188.571-.073,2.37-.322.333-.247.25.059.711-.277.379-.22.76-.9-.2-.25.813-1.608.235-.687-.726-1.3-.7-.73-.278-.293-1.237-.835-2.483-.9-.293-5.964-.846-1.7-1.865-3.958-.146-.368.63-.788,3.608-.878,1.456,1.49.5,1.828.387.612-.015.061.513.962h.787l.257-.305.058-1.084-.058-2.469-.285.043-.5-.73-.044-.365.585-1.843.462-.423.51-.25.849-.612.445-1.1-.387-.846-1.719-.409-1.819-1.783-.8-.658L351.756,503l-2.287-.777-6.3-3.2-1.265-4.005-2.61-1.112-4.719-1.695-1.676-2.119-1.988-4.766-.8-2.995-.2-1.389.275-1.257.278.191.293-.087.68-.264,4.253-2.865,9.21-5.349,7.352-1.49,11.088-7.515,3.583-2.863.2-.162,2.083-3.112.2-.453.322-1.125-.059-.133-.6-.276,1.257-2.677.957-1.606,3.275-.861.264-.029,1.161.379,2.128.906.577.263,1.022.643.535.353,1.673,2.484.8.423,3.364-.423,6.314-1.608,1.28-2.441,2.878-7.645.38.059,1.6-.22Z" transform="translate(32.27 43.853)" fill="#24195d" stroke="#fff" stroke-width="0.628"/>
        <path id="Schleswig-Holstein" d="M427.625,157.6l1.248,4.15-1.306,2.953-3.626-.263-7.219,5.071-1.962,3.144.029,2.5,1.367,3.42.279.527.458,1.243.089.7-.249,2.075-.578,4.312,5.263,5.115,2.111,1.287.308.133,1.731-.088.557-.16.043-.249.3-.176.236-.058,1.557.321,1.241.6,1.825,2,.983,5.233-1.938,2.69-.554,3.361-9.065,12.015-2.967,3.494-1.383,1.519-.423.438-5.3,4.02-1.906-.409-.9-.38-.7-.043-1.381.8-.841,1.768-2.461,11.2.073.058-.118.073-.6.353-.445.2-.67-.061-5.718-1.68-.8-.321-1.266-.745-1.134-.8-3.346-1.724-8.151-3.729-2.216-1.212-.745-1.432-5.158-5.541-.337-1.095.189-.863-.658.087-.525-.118-4.83-3.375-.294-.279-1.175-3.347-.089-2.88.411-1.637.9-.878,2.844-2.295,1.731-3.683.058-.145.315-.921-2.206-3-1.038-1.229-.2-6.46.839-1.958.176-1.185-1.775-1.009-.278-.115-.394-.059-5.921,2.865-1.98,1.3.687.861-1.112,2.689L350.78,201.8h-1.037l-.7-.073-1.329-.292-.344-.278-1.717-.043-1.558.087-.1,1.052.015.452-.452.777-.513.774-4.876,6.111-1.044.51-.731-.321-1.454-1.344-2.352-2.865-.176-.922.13-.716-.541.029-.321.437-1,2.895-.351,1.243-.585,2.147-.621,3.144-2.318-.249-2.28-.762-7.409-4.837-3.131-2.513-.6-.846-.561-1.215-.484-1.725-.116-2.222-.145-.643-.578-1.416-1.081-2.6-.476-.82-1.358-1.521-3.232-2.4-1.19-1.095-.812-1.139-1.023-1.77-1.06-2.558-2.52-5.424-.724-1.331-3.259-4.7-2.493-1.8L287.37,168.9l-2.617-.351-2.865.044-5.023-.073-4.413-.293-1.4.043-1.163.2-.366-3.61-.234.058-2.046,1.024-.438.16-.643-.015-.5-.206-1.448-1.182-2.631-2.15-1.293-1.828-.893-2.367-.447-1.521-1.848-4.428-2.88-4.576-.512.073-.438-.073-.073-.293,2.082-1.724,1.63-.906,1.326-.278,3.449.818.658.452.607.672.9.134,1.164-.308.7-.292.343-.264.351-.394.307-.527.2-.788.235-.922.015-.35-.046-.424-.144-.5-4.459-9.209-.33-.409-.95-.292-.358-.073-1.316.261-.547.351-1.732,1.139-.717-.452-1.5-.964-.2-.249-.737-1.4-1.417-3.859-.14-.658.029-.235.329-.834,1.468-3.1.892-1.886.133-.585.424-4.824.072-.994v-.276l-.319-.073.249-.2v-.409l-.087-.8-.176-.585-.379-.716-.513-.658-.234-.176-.416-.118-5.255-.014-1.047.073-3.362.249-1.4,1.374-.871,1.037.073.087.672.162.2.015.118-.088.043.03-.072.16-.16.176-.213.087-.5.059-.553-.073-6.14-3.231-.776-.525-.752-1.434-.148-.73.076-1.022.348-1.988.308-1.113.476-1.212.278-.525.145-.162,1.265-.658.087,1.257,1.7,1.212.777-.073.234-.087,3.6-2.193.176-.144.115-.293V98.807l-.029-.249-.087-.76.744-3.333,9.166-1.593,1.79.191,1.908.906,1.514-.409,1.734-.788,1.511-.789,7.567-6.389.189-.2.893-1.477.235-1.521-.03-.482-.29-1.08-1.749-3.889-8.866-12.6L255.582,58.5l-1.63-.98-2.508-1.182-1.63-1.608-.476-.6L246.29,46.2l-1.073-5.231-1.206-2.515-.16-.218-3.115-3.684L237.814,31.3l-.044-.278.535-5,2.053-4.648,2.529.046.951.116.57.261,1.659,1.141,7.521-.394.972-.16,1.052-.118.737.044,5.635.379,3.744.321.781.234.351.147,4.29,1.988,1.221.878-.05.292.607.366.965.556,1.221.131,2.278.16,1.807-.484,1.876.015.556.1,1,.335,4.078,1.7,2.881,1.33.377.877-.51.659-.292.541.043.585.2.614.937,2.455,6.5.643,1.4-.133,2.019-1.783.247-.249.1-.877,3.608-.7,1.515.658,1.879-.759,1.848-.513,1.277-.6,7.106-6.328.651-.133,2.981,1.067-.563.906L319.5,30.3l5.92,2.428L330,34.6l8.162,9.239,1.4.745,1.242.35.711.073h.131l.145-.16,2.23-4.81-.119-.292.249-.687.243-.424.145-.116,1.461.906,2.4,1.623,1.482,2.718,4.671,14.648-.087,2.995-.234,4.2-.035,7.441-.061.612-2.316,3.977-.263.364-.871,1.009-1.439,1.212L347.032,81.5l-3.568,1.828-2.428,1.2-.57.133-.333-.234-.253-.336-.853-.029-.452.1-.368.2-.16.191.98,1.944.379.643.5.556.672.409.38.1,2.762-.423.943-.2.424-.249,2.618-1.154v-.1l1.052-.353,7.062-1.681,5.289-1.037.5-.087.718-.017.651.119,2.053,1.344.928.745,1.967,1.945-.636,1.095-1.448,2.179.249.832,1.038,5.205-1.717,1.447-.776,1.564-.176.847,1.864,2.457.467-1.7,3.2-7,.635-.7,6.308-3.113,1.424-.278.769-.029.863.147,1.642.452,2.354.672,17.193,8.581,1,.568,2.053,1.316.512.452.664,1.008.322.716-.088.075.16.4,2.822,3.039.585.482.336.191.783.22.86-.015,3.693-.176.542-.073.745-.234,1.031-.424.731-.438,2.57-2.077,1-1.022,1.586-1.886,2.435-2.15,3.48-2.675,1.642-.424,11.28-.512-.351,4.941-.636,1.11-.089.438.2,3.2.842,9.284,1.029,7.833-.043.145-.116.1-3.6,2.938-.9.643-4.464,3.13-4.11,3.784-3.619,4.547-.611.512-.688.424-.693.261-3.086-.554-.437-.118-.657-.467-4.365,4.647-.366.382-.234.482-.242.834-.087.658.015.394.145.7.958,2.31.812,1.519.527.834.585.745.321.308.724.453.626.1h2.618l.321-.044,1.219-.307.44.058.715.336.564.467.437.57.278.718.015.264-.189,1.446.174,1.1.723.308.423.057ZM215.157,14.161l-1.542,3.961L212.353,21.7l-.411,1.958-.344,2.806-.292,3.29-.878,12.657-.015.98.76,1.754.438.57.177-.059.152-.249.029-.57.336-10.8-.189-.321-.192-.643v-.234l.22-2.077.6-1.915.351-.453,2.939-1.913.838.73.162.218,1.995,1.124,1.936,1.4.644.218h.3l3.788-1.93,2.418-2.017-.116-.1-.484-.118-.731-.073-2.981.118-.738-.118-.38-.131-2.549-2.278-.059-.059-2.265-2.324-.57-8.227,1.572-3.129.7-.893,1.323-1.052.131-.075,1.674-.394,1.761-1.1,2.162-4.237-.029-.116-.152-.133L223.453.579l-.8-.234L222.19.317,221.941.4l-.711.453-.189.189L220.456,2l-2.631,6.2-.511,1.3ZM226.816,43.82l-.709-.015-2.683.512-.781.29-.585.455-.753.774-.554.994-.73,1.756-.109,1.141.124.585.232.423.279.234,5.533,2.719,1.147.321,1.338.087,4.51.176.583-.029.294-.131,2.559-5.349-.827-3.3-.2-.38-1.264-.878-1.529-.541-.628-.144-.409-.1-.987-.075-1.147.409-.438.177Zm-15.26,12.541.014.307.416,1.066,1.689,2.719.892,1.374,1.015,1.564.235.116.484.075,1.571-.014.1-.03,1.644-.8.16-.176.418-1.038-.058-.145-.118-.059-1.652-.834-1.432-2.206-1.748-4.882-.2-1.023.241-.687.38-.7,1.41-1.388-.118-.147-.225-.073-.556.25-3.391,3.083-.437.57-.518,1.287-.059,1.154Zm23.848,5,5.048-1.258.659-.394.477-.614.261-.835.25-1.4-.235-.116-8.69,3.405-2.278.936-.2.571.072.2,1.454,1.183ZM229.5,68.477l-.365.044-.278.235.073.247.351.542.234.176,2.222,1.651.394.263,1.178.015.718-.2.16-.292-.015-.614-1.038-1.593-.152-.234-.148-.1-.452-.133-.914.263Zm7.638,12.09.76.686.431.133.922-.044,1.41-.292,1.206-.351.337-.2.481-.542,1.528-3.376.827-1.945.118-2.045-.321-.191-.856-.145-.774.1-3.072.965-.437.131-3.575,1.49-.51.263-.294.379-.072.366.041,1.58.177.672.2.435.321.44.189.145Zm21.043-3.715-4.349,2.822-.571.7v.377l-.015,3.568.937.73.812.409,1.073.249,3.006.292,1.262-.012,1.763-1.464.767-.951.116-.159,2.068-3.173.043-.218-.335-1.8-.437-.494-1.3-.294-3.1-.118Zm183.049-1.008-.65-.218-.263-.25-.133-.218-.218.087-.453.353-1.089,1.24-.839,1.17-.495.864-.965,2.148-.478,1.373-.13.453-.424,4.707.176.774.189.278,2.172,1.463.343.16.542.087.072-.073-.072-.059-.029.059H438.4l-.543-.191-1.32-.835.014-.861.264-.249,3.2-1.127,1.454.47.543.234.568.234.184.365.4,1.156-.119,1.287-.2,1.767,7,1.3,10.788.1.1-.029.044-.131-.059-.818-1.739-3.741-1.432-3.026L453.18,79.5l-4.464-2.325ZM242.449,144.822l-.247-.16-.482-.5-.7-.849.015-.554.16-.672.288-.585.234-.321.306-.292.279-.176.348-.147.344-.029.424.353.029.087-.2,3.524-.4.276Zm-65.343-22.145,1.63-.16.1.849-1.2,2.1-1.016-.087-.394-.087-1.221-2.234.058-.337.737-.512.6-.2Z" transform="translate(17.169 -0.317)" fill="#e6e6e6" stroke="#221c59" stroke-width="0.628" opacity="0.5"/>
        <path id="Sachsen-Anhalt" d="M467.894,261.188l1.929-.789.353-.058.673.058.29.073.315.176.293.249.1.336-.029.278-.147.235-1.19,1.591-.075.424.075.527.189.394.337.353,4.936,3.932.3.189.73.133.426-.118,1.027-.716,1.369-.8.234-.044.745.118.547.192.527.246.308.162,7.153,4.152.337.423.131.366.043.38-.029.336-.13.38-.192.263-.738.628-.716.76-.263.556-.073.277.087.672.351.687.308.307.482.249,4.966,2.017,7.21,2.325.4.073,11.367-1.345,1.031-.951-.184.234-.35.892-.046.937,1.164,2.747,2.273-.759,1.265-.659,2.142-.965,2.046.921.863.571.131.377,1.7,6.769-.279,2.5-2.025,1.008-.93,1.783-.481,1.579-.586,6.14.044.145,1.718,2.805,1.644,2.472.38,1.228.029.8-.57,5.088-2.252,1.651-.585-.029-.571-.16-1.25,2.249-2.454,9.838-.059,1.037.059.059,2.529,3,1.19,1.418,1.629-.263,1.543-.452.44-.646.057-.2.249-1.3,7.669,2.66.51,4.517-.424,1.287-.8,1.417-1.2,2.981.261,2.281.556,3.946.9,4.738-1.645,3.317-.343.16-.146.234-1.615,3.553-.788,2.471-.177.658-.373,3.42.315,5.569-2.53,5.73,4.045,5.189,2.885,4.445,3.662,4.764,2.3,2.6,6.346,3.947,9.968,3.872,5.476.834,1.06-.176,2.519-1.783.213-1.872.614-.818,1.28-.015,2.754,1.273.957.612,2.215,1.243,2.5,1.3.482.029.664,1.987,6.812,3.919,3.349.846.716.029,1.47-.527,6.738,3.581,4.188,4.329.409.261.221.029,3.258.292,2.836-1.153.467-.294-.087-.919,1.25.058.57.366,1,.994.191.848.029.861-2.4.382.015.307.012.35,4.591,16.181.664.6.38.348.643,1.3.058.659v.191l-1.936,3.478-.718.776-8.917,5.92-2.974.409-9.065.438h-.073L575,455.181l-1.28-.481-.144-.089-.973-.716-1.391-.5-.474-.145-.731-.133h-1.4l-.5.307-.372.438-.177.321-.145.818-.95,2.559-.308.249-1.12.878-1.146.847-2.172,1.052-2.8-1.915-.455,1.55-2.747,1.359-10.407,2.981-3.172.308-3.509.073-.914.116-7.279,3.831-4.789,4.268-.276,3.3L522,483.8l.539,1.988,1.4,4.678.192.087.057.116.308.951,1.338,7.558.25,2.193-1.836.7-2.215,1.2,2.317,6.212,1.749,2.529.553,2.63.058.368.52,3.346-.029,10,2.813.6.433.22.745.8-.075.541-.921.777,3.18,2.791,1.915,1.345-2.222,3.465.351,2.324,1.8,1.331.528.321.658.863-.058,1.417-.087.423-4.4,9.5-.987,1.272-.337.192-.8.554-.058-.044-.365-1.49-.614-1.153-1.944-2.488-.144-.144-.937.76-.377.423-.344.38.1,1-1.5-.689-5-1.652-.337.029-4.45.719-.482.116-1.323.583-.059-1.228-.029-.335-.249-.733-3.245-4.166-.351-.321-3-2.148-4.771-3.04-1.154-.38-2.807.744-3.881.8-2.494-.671-6.607-2.1-.189-.776-.264-1.843-.431-1.68-2.157-1.331-8.706-1.374-.277.25-.477,1.038-.351.319-1.161.98-5.357.117-.075-.366-1.247-.586-.672-.51-1.149-4.736,1.821-.336.379-.7.738-1.725v-.377l-1.5-3.393-2.169-2.22-1.192-.495-.337-.03-1.3.612-2.2-.057-2.15-1.71.147-1.112.8-1.388.467-.73.307-.22.257-.015,1.038,1.183.075.015.65-.249.379-.278.716-.82,1.134-1.607,2.025-2.953.972-1.533.554-.951.089-.2-.059-.379-.643-.7-1.806-1.623-.549-.292-.426-.147-.928-.892-.686-.878.029-.2.087-.2.722-.7-2.484-.832-.029-.556-.762-1.4.382-2.587-.059-.467-.322-.409-5.787-2.222-3.831-.16-.973.2-1.937.043-8.9-.191-.643-.073-8.91-2.82-.871.437-1.6.57-1.038.1-1.16-.145-1.193-1.33-1.073-.643.182-3.742.2-3.3-1.324-1.695-2.323-3.582-2.888-4.5-1.674-3.991.658-2.22,2.3-3.1-1.749.745-2.712-2.512-.592-.424-4.033-.951-2.646-.234-4.685-.38-2.552.556-.512-.162-.075-.073-.416-.57-1.747-2.805-.191-.542-.307-1.768-.116-1.183.292-.73-1.294-3.083-4.166-6.155-1.427-.788-.971-2.034-.366-3.9-.014-4.779.2-.7.495-.643,2.968-2.455.534-.218.527-.029.247-.176,1.412-2.208.145-.483v-1.023l-.1-.906-.144-.394-.723-.893-1.112-.453-1.236-.452-.029-2.251.029-.25,1.047-1.519,1.76-.585-5.16-3.875-2.331-3.289,5.816-.612,2.448-2.412.073-.189.058-.4-.218-.612.145-1.316,2.66-.8,1.41-.278,6.961-.087h.351l1.308.308,2.52-.075,1.916-.409.5-.2,1.294-.922.716-.13,4.745-.148,2.361.235.152.133.423-4.269L416.6,394l2.805-2L422,389.882l1.645-2.454.227-.38.072-2.017-.144-.5-.082-.1-.234-.03-1.215.162-.658-.023-.919-.556-.52-.409-.249-.263-.189-.424-.087-.583.162-1.038.57-1.447.4-.745.452-.293,1.38-.644.965-.246,1.5-.31.81-1.081.046-.087-.029-.117-.606-1.331-1.981-2.762-1.877-1.886-1.983-2.176-.073-.133-.577-5.671,1.7-2.37.774.191.249-.073,1.558-.716,1.117-.893.075-.247.057-1.944-.072-.543-.854-.834-1.066-.919-.315-.147-.438-.073-1.79-1.112-6.257-7.98-1.183-2.544.864-2.148,3.1-1.667,2.406.1L416.2,335.5l-1.819-2.325-1.045-1.783-.469-1.038-.467-1.872.249-3.025.015-.058-3.868-7.5-5.153-7.354-3.61-2.66-3.64-9.939.117-.788.2-.834-.307-3.142.029-.278.7-3.025,2.849-.8,3.7-.76,8.382-.218,3.94-4.284.279-.585.026-.218-.13-.628.06-1.04.234-.906.452-.525.357-.145.47-.044,12.806.554,5.386,1.053,1.031,1.066.437.453.176.438v.379l.059.176.145.1.438.087,4.362.455,1.558-.44,7.872-3.843.2-.218,1.236-1.608,2.435-2.353,1.543-.878,1.7-.394,1.192.015-1.1-2.588.8-4.43.307-1.4.469-.98,1.149-.218.115.058.528.731.9.5,1.023.1.044-.073,3.427-5.028.015-.118Z" transform="translate(37.735 25.716)" fill="#24195d" stroke="#fff" stroke-width="0.628"/>
        <path id="Sachsen" d="M589.4,436.481l3.332,5.366.8.437,1.016-.658.453-.437.261-.424,3.657,1.958.619,1.124,2.58,5.659,1.558,3.8.307.935.218.936-.306,7.207-1.069,5.1,2.112,2.53.308.877.293.554,3.155.073.709-.176,2.363-.658-.145-1.477-.015-.2,3.624-3.214,6.274-3.364.818.628,3.187,2.838,2.967,2.41,6.8,4.168,4.012,1.2.482.058,2.748-.073,4.583-.131.643-.936.469.6,1.146.628.7.145,4.289.527,1.163-.789,2.844-1.4,2.18-.819,3.86.118.451-.075,10.4-2.133,3.683-4.839,1.966-7.629,2.09-6.141,2.932-4.253.547-.087,1.79.292,4.24-.131,5.555.716,4.049,1.4,6.008-3.391,4.759-.612.453.249-.119-.745-.015-.527.176-.5.5-.35,9.6-3.407,3.054,1.185.206.919.606,1.038.2.234.586.131.737.1,4.414-.438.234-.087.65-.759.218-.321.148-.366.9-3.246,1.141-1.052,1.352,1.1-1.381,2.7-.043.218,1.76,4.138.606.73,1.485.541,1.183.337,1.219.087,1.3-.1.336.029,11.335,4.224.308.16,2.281,1.215.144.131.6.964,1.749,2.953.029.57-.073,5.569,6.738,14.442.914,2.793-.044,4.005-1.6,3.726-.314,1.652-2.7,19.836-.306,2.265-1.19,1.681-.959,3.434.359.336.029.117-.3,1.476-1.022,4.457-1.659,5.059-.409.7-2.121,2.7-1.908,2.411-1.937,3.787-.438,3.332-.621,3.347-.2.982-.484.292-1.98.174-.651.018L745,544.879l-7.56-2.866-2.837-1.139-.13-1.066,1.161-3.365-1.161-5.19-2.924-8.52-1.835-1.768-7.34-6.2-.722.484.219.935-.116,1.988-6.578.951-.687.073-.234-.014-6.346-2.382-.249-.134-.27-.234-1.331-1.577-.285-.235-.2-.043-.979.072-.5.629-.38.863-2.565,8.068.117.263,5.021,4.414.321.247.614.263,4.847,1.287.942-.261.513.232.424.293.372.571.192,1.271-.972,3.465-7.3,2.631-15.437,7.851-2.7,1.475-1.544,1.872-.809.306-11.63,3.715-1.118.1-2.552.192.351.643.308,4.388-.089.583-.452,1.095-3.419,2.295-.842.276-1.63.25-.191-.029-.585-.176-.766-.539-.426-.16-2.609-.571-.213-.029L650.27,563.7l-1.351.188L638.9,569.877l.263.7.319,1.273-.055.191-2.531,5.742-1.272.788L633,581.952l-5.357-2.63-2.954-.278-8.119,6.228-4.654,5.129.13.95-2.566,6.242-2.075.455-4.254-1.345-7.623.672-.834.321-.212.1-.06.232-.586,2.953-.2,2.837.174,1,.218.527-.026.687-.015.057-.119.512-.307.512-2.779,3.466-.553.38-2.909,1.784-1.031-.366-4.033-2.618-5.776-3.7-.906-.484-.087.046L568.2,610l-5.124,2.881-1.529.2-6.972.893L548.4,615.7l-10.231,12.817-2.91,4.283-2.667,5.234-.285,1.051-.38,3.816.218.632.177.191.314.159.292.278.484.991-.234,2.6-.38.278h-1.073l-1.059-.131-1.362-.292-.27-.149-.162-.191-1.109-1.779-.373-.776.057-.35.737-.322.249-.178.278-1.107-.321-2.254-8.032-11.547-1.57-1.8-.659-.029-2.718.029-3.759.133-.534.436-.644-.889-2.747-1.04-6.177-1.826-1.6-.265-.563-.408.43-2.426.308-2.37.059-.583-3.539-3.655-.944-.875-1.279-.263-2.171-1.523-.672-.669-.182-.278.606-.962.846-.691,2.252-1.2,2.552-2.4.46-.73-.058-.366-.328-.684-2.743-2.574L493.842,600l-1.557.191-1.264-.029-.424-.7-1.03-2.484.014-.131.177-.469,4.319-6.08.525-.307,1-.47.293-.116,3.1-3.2.076-1.124,1.862-1.712.189-.116.52-.145,1.038,1.095.605,4.253-.637,3.888,5.482-.276,3.42.426,1.6-1.053.485.191,1.164-.131.292-.148.145-.116.2-.748-.322-.552-.131-.061-.943-.029-.484.44-2.719-.8.4-1.17.292-.2.716-.308,4.467-1.958,5.036-2.164.2.029,2.675-.612,2.829-2.953.123-.145,1.5-1.988.307-1.783-4.085-1.095-1.089-1.083-3.449-6.126-.029-.393-.044-.7.117-1.446,1.044-7.528.659-1.33.783,1.023,1.832.2,6.054-2.176-.029-1.9.015-.1,2.259-1.754.409-.13h2.178l.82.307.769,1.008.057.087,1.749-.513.276-.116,1.279-3.625.043-1.724,2.01-1.727.366-.191,4.438-1.125,2.617-.408.776.188,1.965-.347,3.867-1.258,1.124-1.709-.744-.512-.366-.353-.914-1.519-.2-.35-.81-3.144-.47-2.278-3.347-.847-3.289-1.243-3.422-2.573-.424-2.442.1-1.724.176-.907-.335-1.226-.257-.382-.525-.335-4.005-1.477L528.7,515.9l-.131.015-4.135,2.031-1.916-1.344-3.18-2.794.922-.774.073-.542-.747-.8-.431-.218-2.813-.6.029-10-.519-3.348-.061-.365-.554-2.63L513.49,492l-2.317-6.213,2.215-1.2,1.836-.7-.25-2.193-1.338-7.558-.306-.95-.059-.118-.192-.087-1.4-4.678-.542-1.987,3.379-7.34.278-3.3,4.786-4.269,7.28-3.83.914-.117,3.509-.073,3.171-.307,10.406-2.982,2.75-1.359.453-1.548,2.805,1.913,2.172-1.052,1.146-.846,1.117-.878.31-.25.951-2.559.144-.818.176-.321.375-.437.5-.307h1.4l.731.131.477.145,1.389.5.972.716.145.087,1.279.484,13.168-.263h.075l9.064-.438Z" transform="translate(48.661 43.265)" fill="#e6e6e6" stroke="#221c59" stroke-width="0.628" opacity="0.5"/>
        <path id="Saarland" d="M32.7,704.971l.665.4,9.736,3.039,1.833.221,6.018.411,9.794-1.728,5.9-1.707.841-.471,1.864-1.066.249-.176.731-.746.292-.483.782-.845.379-.261,1.059-.5,4.181-1.678,2.631-1.024h.6l-.015-.118.075-.087L80.5,698l4.215-2.472.513-.191,2.747.351,1.309.25-.1.423-.235.965.015.261.2-.057,2.273-.878.738-.628.762-.86,3.639,2.365,4.555,4.135,8.439,4.548,1.047.2,1.12-.379,1.533-.8.593-.586.247.426.5,1.008.636,1.4.029.275.087,1.156.173,6.1-.662,7.221-2.3.7-.528.382.029.2.25,1.376.2.541L116,727.76l.145,1.139-.377,2.063-.03.513,6.943,3.972,1-.26,1.718-.778.612.531-.832.6-.987,6.01.029.131.8.543-.738,3.156-.806,1.168-.517.6-.834.362-1.909.953-3.953,2.674-1.383,1.826-.014.221-.044.818,1.412,4.225,1.236,1.651,2.484,3.582.22.306.366.3,1.353-.018-.738,1.183-6.031,4.84-.489.307-1.008-.321-1.353-1.024-2.007-.834-5.7-.539-.615.144-.914.369-.818.947-.321-.159-1.164-.673-.664-.376L98.3,766.193,96.968,763.9l-1.147,3.521-2.266,2.234-.922.311-.452-.16-.4-.4-.278-.687-.922-5.193-.328-1.971.1-.73-1.718-2.661-3.048-2.324-3.228-1.168-1.93-.543-5.549-.628L72.9,754.751l-.191.3.612.527.8,1.128.776,2.612-.058.429-.234.582-1.3,2.045-2.345.412L63.324,761.4l-1.6-1.739-.774-1.872,1.994-2.426-.679-1.872L59.317,751.8l.1-2.531-.058-.26-1.8-4.43-2.668-2.3-2.236-1.24-.411-.426-1.308-1.638-.467-.657-1.893-3.494-.1-.232-2.126-8.259-.087-.6.144-.368.965-.759.827-.2-.563-.863-.73-.789-.673-.513L40.3,717.665l-3.217-1.2-2.317.483-.474.221-.921.22-1.732-.1-.68-.788-.554-8.638.073-.261.365-.6Z" transform="translate(2.691 69.249)" fill="#e6e6e6" stroke="#221c59" stroke-width="0.628" opacity="0.5"/>
        <path id="Rheinland-Pfalz" d="M199.358,566.8l-1.221,1.391-.2.568-.087.76-.015,1.286,1.279,6.726.174.35.5.294,1.618.919.014.82-.527,1.637-1.016,2.483-.379.921-1.074,2.562-.263.6-1.052.149-1.485-.293-1.412-.482-.693-1.446-1.676-.673-.423-.044-.834.235-.52.188-3.3,3.932-.731,1.477-.65,3.364.007.452.747,1.783,1.016,1.344-2.428,6.841-.4,1.07.7.012,7.3,4.868L196,617.6l.276.552.1.235,1.016,3.1.1.552.029,2.661-2.762,1.6-2.9-1.183-.922-.119-1.235.38-1.366,1.8.314.659,2.318,2.254.512.364.131.232L189.3,633.25l-.409.015-1.38-.335-2.544-1.492-6,2.6-.477.25-.8.583-2.111,2.777-.094.177.08,1.826.512.715.718.44,1.089.835,1.381,1.242.176.495-.528,4.136-.416.554-3.2-.89-.528-.2-5.751,4.794-2.748,1.551-1.308.274.944,2.675,7.484,10.47.651.452.379.116.484.057,4.612-.144,2.748-.44.408-.118,9.707-3.712,5.726-2.6,3.492-1.142,1.265-.087,1.454.2,2.559.542.8.335,1.6,1.535.958,1.035.612.893,1.074,1.608,1.763,1.605.993,1.174.518.774.644,1.124.665,1.623.043,1.313.82,2.631.174.762-.028.687-.088.467-.424.894-.481.784-.184.487-.16.729v.542l.263,1.095,3.084,7.795.416.684,1.389,1.988.722,1.36,3.86,4.031.476,3.234-.854,1.4-.2.408-.115.264-.564.834-.658.528-.57.322-.535.22-2.082.451-.966.365-.665.337-.759.466-.871.672-.16.176-.277.512-.1.336-.234,1.347.147.628,2.216,7.117.694,1.273,2.2,3.3.7,1.638-.116,1.578-.556.965-.176.687-.029.583.058.512.145.426.586,1.168,1.512,6.111.118.863.593,4.414-.329.25-.307.321-.16.423.015.494.174.339.22.247.358.308.319.147.806.144.912-.04,1.383-.044.774.144.5.22.474.554.134.44-.015.438-1.076,2.9.235,3.169.073,1.185-.058.788-.337,1.286-.527,1.171-.812,1.2-.686.713-.614.471-.621.423-.718.672-.308.437-.181.452-.044.278.044.6.2.523.263.311.293.191,1.425.482.336.191.484.437.319.5.169.744-.065.583-.148.311-1.877.962-2.435,2.722-.679.612-1.994,1.286-.762.467-.708.613-.5.6-.394.748-.249.847-.073.977.029.058h.133l.235-.058.218,2.489L215.368,791.9l-.249.715-.619,1.008-.951,1.17-.015.015-1.351,1.463-.987,1.463-.5.907-.628,1.638-.27,1.24-.278,1.944-.1.411-.133.437-.585,1.3-.394.733-.433.625-.554.571-1.483,1.171-2.2,1.71-.563.335-.394-.816-.234-.4-.2-.134-4.818-.583-.438.191-1.366.058-1.175-.235-4.168-1.681-2.251-1.036-.16-.4-.914-1.112-.994-.994-6.9-3.335-4.5-1.286-1.865-.16-1.352-.643-6.783-1.023-4.73,1.082-.409.1-2.689.131-5.359-.307-4-1.522-6.178-3.8-1.264-.834L138,790.38l-2.887-5.6.017-1.095.263-1.711-.263-1.958-4.421-2.236-3.275.572-2.762.492-1.506.4-.05.7.08.4.261.4-1.352.014-.365-.293-.218-.305-2.486-3.583L117.8,774.9l-1.412-4.21.044-.818.014-.217,1.382-1.828,3.953-2.675,1.906-.951.835-.368.518-.6.8-1.168.738-3.159-.753-.672-.029-.131.987-6.007.835-.6-.615-.525-1.717.776-1,.26-6.943-3.976.029-.512.38-2.045-.145-1.15-3.481-2.33-.2-.541-.249-1.373-.028-.2.525-.379,2.3-.7.665-7.222-.177-6.093-.087-1.154-.029-.279-.637-1.406-.5-1.006-.249-.423-.592.583-1.533.8-1.12.382-1.047-.2-8.44-4.547-4.554-4.136-3.642-2.368-.759.863-.74.63-2.273.875-.2.06-.015-.264.234-.965.1-.426-1.308-.248-2.748-.348-.51.188L82.1,714.558l-.176.145-.073.09.015.115h-.6l-2.63,1.022-4.179,1.684-1.06.495-.38.264-.781.847-.294.484-.73.742-.249.176-1.855,1.069-.85.465-5.9,1.712-9.794,1.724-6.015-.408-1.835-.217-9.736-3.043-.664-.393-1.937-3.013v-.16l.116-.232,1.865-2.706.592-.628.308-.16.7-.029.379-.176.343-.353,1.676-1.768L46.4,699.284l2.07-7.09-.029-.893-.8-5.83-2.74-1.814-2.031,1.3-2.027.029-.189-.044L38.163,683.5l-.329-.308-4.284-4.253L25.8,674.2l-2.462-2.863-4.627-7.7-.593-1.329-.466-1.067L16.015,657.2l-2.1-8.4.438-4.155,2.777-9.907,3.405-2.863-.437-5.849.249-1.841.015-.133.218-.306,10.307-6.636.5-1.258,1.644-3.491.606-.22,1.323-.337,3.033,1.551,3.91-1.011,1.995.147L42.918,611l-.636-1.124-.261-.733-.988-3.682-.451-1.843,2.6-.615,2.989,2.679.109.113,1,1.465,6.679-1.023,6.462-2.209,1.777,1.886.191.278,5.291,2.193,4.387,1.214,4.157-1.286,1.053.188.767.176L76.79,606.54l-1.323-2.455-.16-8.256,4.479-2.881.512.379,3.319,2.22.941-.29,3.321-1.519,2.585-10.716.321-1.872,3,.467.979.073,2.37-1.153.261-.192,1.5-1.551,1.214-1.517,3.588-.6,7.28-1.648,2.276-.63,1.4-1.4.1-.116.5-2,.145-.658.382-.8.364-.176.68.029.087.377v.63l-.087,2.161-.044.557,4.095.029,2.213-.484,1.134-.335,3.836-1.185,1.865-1,.261-.466.718-2.909.029-2.179-.119-2.031.653-1.391.672-.672,2.675-.087,2.873.951.359-.322,1.228-.554,18.118-6.448.637-.57,1.481-1.9.485-1.181-.236-2.2-.394-.437-1.336-1.124.89.2h.445l2.158-.8.16-.059,3.3-2.967,1.732-2.484-.776-6.871.629-.76,3.318-2.866.612-.319,1.783.35,3.239,2.31-.688,1.037-.6,1.2-.751,2.146-.119.543-.015.4.1.654,3.187.835,1.541.4,6.813,3.86.351.3.358.411.759,1.93-.015.776-.319,2.921-.1.279-.509.528-.075.9-.094,1.273.283,1.315.394.643.849,1.053.373.412,2.025,1.97,2.009,2.139.554.6.184,2.162-.416,2.089,3.661-1.273,1.76.471.951.863Z" transform="translate(1.041 52.671)" fill="#e6e6e6" stroke="#221c59" stroke-width="0.628" opacity="0.5"/>
        <path id="Nordrhein-Westfalen" d="M320.069,452.328l-1.789,3.011-5.314,6.372-4.479,7.352-6.17,4.824-5.963,4.81-.906,1.446-.827,1.389-.818.131-3.816-.247-.856-.278-.379-.249-.234-.336-.782-2.251.987-2.455-1.63-2.7-4.042-1.709-1.616.073-3.069.759-2.2.745-3.947,1.682-.944.95v.614l.249.907,3.48,5.729.753.176.423.232.059.31.293,1.872-1.141,3.39-.2.075-4.757-.308-5.761.133-5.211,1.388-6.886,2.119-4.085,2.6-1.5.979-1.512,1.872-3.61,5.19-.791,1.182,2.858,3.993.3.292.426.145,1.044.059.147-.046,1.331-.906,6.314-2.836.971-.087,1.265.029,1.183,1.609.16.35,1.03,8.873.22,2.822-.1.525-.379.907-3.918,8.594-4.407,1.7-.606.03-1.548-.368-1.048-.423-2.352-.38-3.889-.249-.2.159-1.747.66-.174.1-1.06.893-.73.629-.606.876v.263l.13.423,1.47,4.531.929,2.017.513,1.214-.659,1.008-.534.513-1.374,1.2-1.989,2.148-1.182,1.287-.118.22.015.336.368.513-.22-.09-.827.015-.133.076-.554.319-.073.173-.825,3.585-5.928,8.945L223,562.414l-.16.176-.752.16-.249-.072L216.2,559.7l-.263-.088-1.344-.042-.272.042-.275.231-13.113,12.806.578,1.391.541,1.141,1.066,2.089,1.106,1.55.249,1.313-.073.485-2.772,5.147-1.015,1.371-1.4-1.723-.95-.863-1.756-.471-3.669,1.273.424-2.089-.191-2.162-.554-.6-2.01-2.139-2.024-1.97-.373-.412-.848-1.053-.394-.643-.286-1.315.1-1.273.065-.9.513-.528.1-.279.321-2.921.015-.776-.762-1.93-.358-.411-.35-.3-6.813-3.86-1.542-.4-3.188-.835-.1-.654.017-.4.115-.543.753-2.146.6-1.2.684-1.037-3.23-2.31-1.79-.35-.615.319-3.317,2.866-.629.76.777,6.871-1.734,2.484-3.3,2.967-.162.059-2.155.8h-.447l-.893-.2,1.34,1.124.394.437.234,2.2-.482,1.181-1.485,1.9-.636.57L140.506,580.7l-1.228.554-.358.322-2.873-.951-2.677.087-.669.672-.651,1.391.115,2.031-.028,2.179-.718,2.909-.263.466-1.858,1-3.843,1.185-1.132.335-2.215.484-4.094-.029.044-.557.087-2.161v-.63l-.087-.377-.68-.029-.366.176-.379.8-.147.658-.5,2-.1.116-1.4,1.4-2.274.63-7.279,1.648-3.59.6-1.212,1.517-1.5,1.551-.264.192L96,602.026l-.972-.073-3-.467-.314,1.872-2.6,10.716L85.8,615.593l-.944.29-3.317-2.22-.513-.379-4.481,2.881.162,8.256,1.323,2.455,1.248,2.135-.767-.176-1.052-.188-4.16,1.286-4.385-1.214-5.292-2.193-.191-.278-1.775-1.886-6.46,2.209L48.511,627.6l-.987-1.465-.118-.113-2.989-2.679-2.6.615.453,1.843.987,3.682.261.733.644,1.124.972,1.49-1.995-.146.424-1.665-.015-.16-.643-1.229-3.376-3.96-.153-2.791.812-1.406.453-1.1.752-3.465.116-.979-.116-1.533-.263-.63-2.354-4.007-.669-1.02-1.544-1-.277-.376-.344-.311-3.523-.612-1.659.029-.176.059-.718.495-1.322.571-.133.029-.145-.061-2.719-3.827-.438-.763-.677-2.179-.088-2.09.118-.351,4.553-4.3,1.1-5L25.344,587.8l-1.235-1.582.218-.087,1.543-.6-1.083-1.023-.651-.922-1.367-2.249-.35-.716-.16-.63L20.4,575.273l-.453-.423-.257-.16-6.16-3.449-3.691-6.17,2.237-7.163.319-1.036,1.381-.543,1.424-.423.557.059.116.378,1.427.719,1.47-3.567-.119-1.023-.424-.5-.358-.73-.1-.7.606-2.047.116-.281.513-.492.176-.368.072-.513-1.081-.466-1.855-.776-3.333-1.2-.177-1.9.088-1.941.812-1.71.394-1.2-.044-.144-.718-.116-5.437-.438-3.507.848-1.236-1.434L1.2,532.055l-.847-4.167L.32,527.17l.088-.1L4.6,525.211l8.639-2.793,10.89-7.307,1.369-3.961,3.286-1.39.557-.249-1.316-1.171-1.483.586-2.354,1.038-.686.467-.162.263-.277.276-.506.22-.452.162-.614.015-.283-.03-.658-.189-.747-1.477-.124-4.459,1.644-4.764L31.3,487.879l3.231-3.508-1.367-4.941.879-4.4.708-2.194.453-3.113.015-.9-.672-5.484-.914-1.9-3.567-5.876-.957-.687-4.511-5.19.33-1.477-.22-6.225-4.423-2.046-.5-.629-.07-.15-2.592-8.638-2.054-9.707,2.111-3.451,6.1-2.718,3.025.133,6.754-.907,2.7-1.77,6.828.295.343.073.979.467.928.6,4.123,2.66,2.689,2.339,1.76,1.008.6.087-1.478-4.868-.065-.438.387-1.286.234.029,2.925,1.255,6.708.073,1.265-.67,2.041-1.081,4.018-1.565,7.961-2.719.857-.2.686.424.438.7,1.988,1.988.044.029.936-.336,1.7-1.124,1.7-1.182,1.749-1.828,3.676-4.736.365-.863.029-.307-.145-1.886-.27-1.066-6.221-5.291-3.3-1.768,2.039-4.837,2.128-3.393,7.871-2.527.769-.1,1.081-1.022.534-.554.571-2.252.218-1.124,2.544-2.736,10.614-6.636,3.509-2.074,2.909-.1.958-1.374.307-.366.834-.774,2.954-.658,3.581.393,1.79.117,6.906.366,1.229-1.434.564-.8,1.11-.116,1.412-.147,1.439-.76.368-.687.474-.935.849-.731,5.139-3.8,5.816-3.582,2.347-1.347.366-.041.444-.029,3.2-1.593,2.494-4.4.174-.936-1.908-1.023-.935-.644.643-2.089.525-1.113.827-1.431,1.084-1.345.325.144,6.368,2.5.212.218.277.365.731,1.55,2.15,6.152,7.016,4.269,3.054.469,1.835-.818.366-.234,2.171-.528,3.852,2.353,1.322,2.325.965,3.507-2.909,3.1-.133.527-.058.643.1.818.218.277,1.886,1.93-1.454.98-3.778,8.038-.015.16.225,1.067.424,1.373.4.672,1.7,1.214.087.043,3.216.629,2.719,2.529.263,5.731-4.407,1.344-5.108,1.7-1.3.979-.059.191h.382L187,391.658l.337,1.389,1.425.744,2.491,1.055,1.586.6.87-1.287.543-.73,3.14-2.4.235-.015,2.111.16,1.441.2,1.512.4.418.861,3.137-1.944,2.208-.512,5.562-4.018,2.353-2.252,1.908-1.418.834.117,4.041.861,3.377,1.229,4.167.438-.337-.994-.16-.789.075-.466.467-.673.592-.554,3.055-2.034.235-.087.892.059.5-.087.731-.351.319-.263,1.4-1.463.658-.818.886-1.17-1.718-.893-1.673-.541-.5-.029-.384-.16-1.083-.95-.753-1.4-.118-.322L235.328,365l.664-1.344-.329-4.605.2-2.428-2.157-6.386-3.011-2.325-7.208-5.424-.9-4.428-.684-1.49.568-.366.606.131,3.275.863.424.424-.043.264.687.7,4.64-.353,1.352-.189,2.129-1.812.144-.469.271-1.812.191-1.945,4.3-3.3,4.261,2.09,8.164-4.237,2.938,2.294,1.008.965.308.788.065.424-.373,1.858.329,10.538.249,2.032.747.541,2.544,1.1,9.3-.087,7.067-1.58.264-.1,4-5.205,2.941-3.843,1.044-1.944,2.186-2.851,3.23.759,3.744,1.7.29.935.069.293-2.487,5.659,1.265,3.228-.118.965-.263.672-2.061,4.225-1.112,2.121-.176.159-1.03.951-1.088.628L286.1,354l-1.338.658-1.417.937-.914.628-3.13,6.607.7,2.148.225.176.4.16,2.155.6,2.779,1.112,3.523,2.339-.087.321-2.75,6.8-2.007-.029-3.173-1.667,2.645,3.51,4.772,3.668,4.789.922,1.286.451.315.147.73.8.469,1.346-.394,3.069,1.864,1.7L298.8,392.6l-.191.16-.693.365-.643.921-.046.336-.043,2.486.379,8.58.87,2.119,7.814,5.657,1.214.672,1.395-.22.088-.043.467.073,1.47.789.087.117.651,1.139.469,1.8-.059.834-.2,1.4-.709,3.348-.322.2,1.4-.878.469-.277.854-.293.294.015.612.16,2.046.762.776.452,2.455,2.454-.03,4.706-1.716,4.211-2.5,7.7-1.193,10,.636.467.38.1h.292l2.222-.058.191-.029.629-.336.087-.029.812-.261.319-.015Z" transform="translate(-0.32 32.345)" fill="#e6e6e6" stroke="#221c59" stroke-width="0.628" opacity="0.5"/>
        <path id="Niedersachsen" d="M236.953,191.443l-1.264-3.011-1.63-4.181-.017-2.793V179.7l.087-.907,5.212-15.7.723-1.916,1.425-3.625,3.033-3.959,1.161-1.1,2.5-.745,1.775-.452,1.528-.089-.043.747.087.424.2.424,2.025,2.455,3.9,2.863,1.338.936.885.409,1.022.279,2.151.276,7.015.57,2.259-.452.4-.145.088-.1.015-.2.394-.144,2.88-.614.73.044,2.967.715-.671-.876-1.059-2.719-.571-1.7,1.124-.51,1.236-.426,1.163-.2,1.395-.044,4.417.294,5.02.072,2.865-.044,2.617.353,4.905,2.118,2.493,1.8L308,162.52l.724,1.33,2.52,5.422,1.06,2.559,1.024,1.77.81,1.139,1.189,1.095,3.232,2.4,1.359,1.519.476.82,1.083,2.6.575,1.417.147.643.118,2.208.483,1.741.563,1.214.6.847,3.129,2.513,7.41,4.837,2.281.762,2.317.249,3.726.512v3.9l-.423,3.069,1.147,1.185,1.322,3.083.1.818,4.716,4.854.35-.16L351.19,216l1.777-1.973.35-.218.453.307,1.03,1.272,2.923,2.777,2.187,1.826.585-.043,3.895-2.865.249-1.255.835-1.8.767-1.022,2.435,1.446.709.8.512.7,2.433,2.776,3.516,3.318.612.409.528.118,4.438.191.512-.073.254-.176.336-.351.835-2.061.263-.379.343-.353.513-.275,3.069-1.682.263-.131.2-.015,2.216,1.214,8.151,3.724,3.346,1.725,1.134.8,1.266.747.8.322,5.717,1.681.671.057.445-.2.6-.351.115-.073-.072-.058.914-.57.936-.336,1.453-.145,5.475-.029.278.116.315.2,1.412,1.11.861.818,1.691,2.034.694.906.483.76,1.514,1.373.919.556,3.676,1.4,1.185-.671,1.526-1.008,1.558-1.023.058-.38-.058-.131.542-1.04,1.913-1.489,3.568.919,2.477.658,3.376,7.69,3.159,6.126,1.584,2.148.93.937,3.961,2.938,1.616.394,1.236.292.78.075,1.082.6.2.321.059.5-.409,1.287-.089.277-.759.76-.753.277,4.92,1.974.853.424.789.554,1.294,1.4.293.394.249.484.044,2,.041.467.1.278,1.586,1.916,4.13,4.237.4.218.322.058.635-.014,2.346-1.257,1.424-1.1.38-.218.534-.144,2.813-.789.563-.059.718.059.57.277.5.394.979,1.1,1.6,1.695.781.554.879.264,6.064,1.461.835.029.126.191-.017.118L495.1,277.52l-.046.073-1.022-.1-.9-.5-.525-.73-.117-.058-1.148.218-.469.979-.307,1.4-.8,4.428,1.106,2.587-1.192-.015-1.7.4-1.54.878-2.436,2.352-1.236,1.608-.2.22-7.871,3.845-1.559.424-4.36-.44-.44-.087-.145-.1-.058-.174v-.38l-.174-.437-.441-.453-1.027-1.067-5.388-1.052-12.806-.554-.469.043-.358.145-.453.527-.235.906-.055,1.038.13.629-.029.218-.279.585-3.939,4.283-8.382.22-3.7.759-2.852.8-.7,3.025-.029.276.307,3.144-.2.834-.116.788,3.639,9.94,3.611,2.66,5.153,7.351,3.868,7.5-.015.058-.249,3.025.469,1.857.467,1.052,1.045,1.783,1.821,2.325,2.52,2.921-2.406-.1-3.1,1.666-.861,2.15,1.182,2.544,6.256,7.978,1.792,1.113.438.073.314.145,1.067.921.853.834.073.542-.058,1.944-.072.247-1.118.893-1.557.718-.249.073-.778-.191-1.694,2.368.576,5.672.075.131,1.98,2.177,1.879,1.886,1.981,2.762.606,1.331.029.116-.044.087-.81,1.081-1.5.307-.966.249-1.381.643-.452.294-.4.745-.571,1.448-.16,1.037.089.585.189.424.247.263.521.409.919.556.664.015,1.214-.162.234.029.083.1.145.5-.075,2.016-.225.382-1.644,2.454-2.595,2.119-2.806,2-.527,2.661-.424,4.269-.153-.133-2.359-.235-4.746.145-.718.133-1.293.921-.5.2-1.918.394-2.52.087-1.306-.307h-.353l-6.958.087-1.412.277-2.66.8-.145,1.316.218.612-.058.379-.073.2-2.448,2.411-5.816.614,2.329,3.289,5.161,3.874-1.761.585-1.045,1.522-.029.249.029,2.249,1.235.452,1.114.455.722.892.145.394.1.906v1.024l-.148.482-1.41,2.208-.249.176-.527.029-.534.22-2.967,2.455-.5.643-.2.7.017,4.781.365,3.9.972,2.032,1.425.789,4.166,6.155,1.294,3.083-.292.73.116,1.182.31,1.77.188.541,1.747,2.807.418.57.073.073.512.16-.146.249-1.6.22-.379-.059-2.88,7.645-1.28,2.442-6.312,1.608-3.365.424-.8-.424-1.674-2.487-.534-.348-1.023-.643-.577-.264-2.126-.906-1.165-.379-.263.029-3.274.863-.964,1.608-1.25,2.674.6.279.055.131-.319,1.125-.2.437-2.083,3.129-.2.147-3.582,2.878-11.095,7.514-7.345,1.49-9.212,5.352-4.254,2.865-.677.26-.293.087-.278-.188.5-.322.059-.191-.059-1.622-.469-.82-1.732-2.805-.394-.234-4.276.568-4.421.629-.25.058-.6.38-6.082,5.115-1.5,2.075,2.454,3.845,2.378-1.139.709-.029.1.2.1,1.884-.13.659-.375,1.637-3.209,1.652-.182-.321-4.648-2.295-7.318-3.055-2.39-.762-.914-1.591-.7-1.082.1-.438.7-2.762.278-.6,1.483-2.338.711-.131,2.229-.366,1.774.073,1.03-1.579.134-.292-1.045-5.95-.483-2.193-.753-.832-2.856-4.868-.075-.218.015-.134.2-.437,3.361-3.756,2.111-.366.25-.5.812-1.1,1.009-.832.913.263h.147l.16-.235.452-1.154-.249-.556-.25-.263-1.131-.73-.965-.8-1.967-2.148-.1-.147-4.713-2.411-1.34.029-4.421-.073-.964-.131-1-.614-.424-.57-.058-.452.293-1.141.335-.745-.044-.527-.2-.307-.377-.075-4.526,1-.189-.117-.319.015-.812.263-.088.029-.629.336-.189.029-2.22.058h-.294l-.379-.1-.636-.469,1.19-10,2.5-7.7,1.718-4.211.029-4.706L309.7,441.04l-.774-.453-2.046-.762-.615-.176-.292-.014-.856.307-.467.278-1.4.878.322-.2.708-3.348.2-1.4.058-.832-.467-1.8-.651-1.139-.087-.117-1.47-.789-.467-.073-.087.043-1.4.218-1.206-.672-7.822-5.656-.87-2.119-.38-8.581.044-2.484.044-.336.643-.921.694-.366.191-.16-1.265-2.193-1.864-1.695.4-3.069-.469-1.347-.73-.8-.315-.145-1.287-.453-4.786-.922-4.774-3.668-2.648-3.509,3.176,1.667,2.009.029,2.747-6.8.087-.321-3.521-2.338-2.779-1.113-2.155-.6-.4-.16-.227-.176-.7-2.15,3.129-6.606.919-.629,1.412-.935,1.34-.659,1.659-.234,1.087-.643,1.038-.937.153-.191,1.112-2.132,2.061-4.211.263-.672.116-.964-1.264-3.231,2.493-5.656-.075-.294-.29-.935-3.744-1.7-3.23-.758-2.186,2.851-1.047,1.942-2.939,3.845-4,5.2-.263.1-7.067,1.58-9.3.087-2.542-1.1-.747-.541-.241-2.031-.337-10.542.373-1.855-.065-.424-.308-.788-1.008-.965-2.938-2.295-8.164,4.239-4.261-2.089-4.3,3.3-.189,1.942-.271,1.814-.144.469-2.129,1.813-1.352.191-4.641.351-.687-.7.044-.261-.424-.426-3.274-.863-.606-.131-.571.366.686,1.489.9,4.43,7.207,5.424,3.011,2.324,2.157,6.387-.2,2.428.329,4.6-.665,1.347-1.543,6.154.119.321.753,1.4,1.083.95.386.16.5.029,1.673.542,1.718.892-.886,1.17-.658.82-1.4,1.461-.321.263-.73.351-.5.087-.893-.059-.235.087-3.055,2.032-.592.556-.469.672-.073.469.16.788.337.994-4.168-.438-3.376-1.228-4.041-.878-.834-.1-1.908,1.418-2.353,2.249-5.562,4.02-2.208.512-3.129,1.944-.426-.861-1.512-.394-1.441-.206-2.111-.16-.235.015-3.141,2.4-.543.73-.868,1.287-1.586-.6-2.493-1.053-1.424-.745-.337-1.389-1.944-3.172h-.38l.059-.191,1.3-.979,5.107-1.7,4.407-1.345-.261-5.73-2.719-2.542-3.216-.614-.087-.043-1.7-1.215-.4-.671-.416-1.376-.234-1.066.015-.16,3.778-8.038,1.454-.979-1.884-1.93-.223-.276-.1-.818.058-.643.131-.527,2.909-3.1-.965-3.507-1.322-2.325-3.852-2.352-2.172.525-.365.234-1.835.818-3.054-.467-7.018-4.268-2.148-6.154-.731-1.55-.276-.365-.212-.22-6.368-2.5-.328-.147-1.081,1.347-.827,1.432-.525,1.11-.643,2.092.933.643,1.909,1.023-.176.936-2.491,4.4-3.2,1.594-.445.029-.366.043-2.346,1.345-5.816,3.582-5.14,3.8-.847.718-.474.95-.368.688-1.439.759-1.412.145-1.112.118-.563.8L126.8,378.99l-6.929-.512-1.79-.116-3.581-.4-2.954.658-.834.777-.307.365-.958,1.376-2.909.1-1.924-2.177-.839-2.266-.2-1.066-.2-1.17.073-.673,1.908-4.327.912-2.031,1.47-1.974.145-2.953-.686-2.587L101.56,349.2l-.118-.206-.351-.307-.868.542-.762,1.447-.709,1.519-1.388.937-.448.16-14.338-4.051-1.843-.686-4.648-3.391.059-.409.495-2.7.337-1.681,1.088-3.991.571-5.656-.6-5.569,2.921-2.4,1.463-.467,2.208-.366.6.015,9.035.541,7.323,1.228,1.761.6.249.337.029.087.5.292,2.421.643.1-.029.336-.336.827-1.139,1.147-9.955.554-5.685.76-7.967L111.792,295l2.909-3.946,5.7-8.638,1.908-5.818.777-2.455.306-1.58-.729-9.6.437-4.766-1.6-1.3-.191-1.156-.058-1.17,1.192-3.274,1.1-1.959,1.214-2.851.535-7.558,1.54-6.561.936-2.924.116-.35.133-.133.738-.263h3.976l-.495-.189-3.131-.892-1.716-.4-1.19-.189-4.284-.38-9.662-.307-2.806-.394-.554-.336-.387-.5-1.024-1.9-.261-.7.118-.394,1.358-2.339.184-3.61,2.171-17.628,4.641,2.1,1.351,1.916,2.654-2.661,1.47-1.579-1.381-2.471-.936-.556-2.28-1.519-.7-.907.394-1.241,6.344-6.578,1.676-1.666,3.756-2.735,1.526-1.066,3.9-1.374,1.864-.424,1.7-.2,2.288-.2,10.32.847.491.176.834.484.191.261.708.484,1,.5.635.015,2.435-.453,5.453-1.768,5.826-1.652.547-.1.834-.116.612.059.015.218.782.2,1.586.041,1.7-.16,4.363-1.315,8.558-.76,4.407.484,3.946.628,1.353.688.337.409-.059.658-.118.321-.621.877-.133,1.009.477,3.141.306,1.2.733,1.915,3.982.554.394.482.718,1.081.8,1.55,4.64,10.89v.145l-.073.453-.145.5-.358,1.229-.394.8-1.25.643-1.243.467-2.967,1.081-.563.147-1.271-.043-1.367-1.067.1,2.851.144,1.287.176.731.337.921.431.936.849,1.124,1.1,1.2.542-.218,1.147-.762.261-.058,1.236-.043.965.277,1.383,1.77,1.673,2.426.883,1.4.075.145-.029.337.292.583.191.2.9.38,1.493.35,1.087.133.512-.059.857-.437.7-.527.242-.261.937-1.055.795-1.124.644-1.139,1.015-2.4.453-1.066.176-1.095.322-5.146-.1-2.15-.1-.307-.337-.687-.206-.234-.606-.351-2.172.848-.759.218-2.953-.554.671-5.76.351-2.295.1-.423.577-1.23.453-.643,1.293-1.286,1.3-1.022,1.818-.673,1.66.16,1.936,1.272.6.863,1.029,1.929,1.265,1.886,1.543.849,5.153,2.323.293.061.554-.073.636-.015,1.952.336,1.045.176,2.653,1.637.176.189.133.366.227,1.33-.03.1-.256.234-.483.351.467.658,1.884,2.513v.249l-.08.278-.51.731.234.321.445.278,2.52.277.249-.015,3.539-3.742.131-.716-1.242-5.364,1.483-6.871-.087-.131-2.325-.365-7.456-.38Zm38.177,68.86-.368-.788-1.908-2.31-.943-.672-.438-.015-1.584,1.008-6.506-.191-5.211-2.646-5.847-2.863-8.955-1.066-10.387-5.6-.38-1.2-.015-.936-.029,1.008.308,1.814.547,1.182.44.776,1.015,1.49,2.141,1.725L240.3,252.6l1.1.467,1.257.177,1.06.278.495.424.353.7,2.177,5.8.2,1.826,1.265.863,2.71,2.924.682.935.087.877.087,3.611.673.7.752.643.424.1,1.456-.5.51-.2,1.865.015,7.39,2.559,4.3,1.681,4.495-3.845.073-2.719-.527-6.592-1.089-1.7.118-.176.191-.1,1.337-.5ZM182.581,166.39l-1.425-1.741-.147-.159v-.25l.6-.527.527-.218,1.848-.073,1.031.043.941.133,2.436.541.856.249.306.16,1.7,1.185.076.658-.235.058-2.251-.834-5.314-1.359-.2.014-.131.1-.351.6Zm12.828,4.384-.145-.015-.453-.2-.353-.232-.292-.336-.131-.322-.593-2.324.015-.528,1-1.2.5.614.568,2.923-.029,1.477Zm-28.543-1.828-.731-.131-.242-.145-.29-.557.015-.541L166,166.8l.842-1.052.394-.379.365-.234.839-.264,1.457-.057,2.082.057,3.289.292.6.09,1.872.51.541.57.073.2-.073.058-5.079.951-5.108-.322Zm-17.534,3.917-.308-.058-.5-.409-.2-1.241.029-1.008.1-.4.993-1.358.272-.234.863-.44.6-.1,4.687-.029,3.705.189,1.345.162.343.1.554.2.5.293.177.263.044.672-.029.145-.058.015-1.1.073-.015-.073.174-.176-.015-.073-.087-.029-2.936-.189h-.323l-2.193.189-3.217.308-.394.131Zm-3.2.177-1.908-.075-2.229-.263-1.923-.437-.447-.672.015-.145.119-.134,2.032-.832.35-.073h.453l2.88.629.191.1.437,1.547.059.22Zm-24.061,2.222-.883-.745-.368-.525-.075-.264.177-.321.424-.307.518-.261,1.952-.878,1.28-.336.759-.1,9.882.043,1.482.044.731.191.346.174.247.7-.059.2-1.222.438-.827.264-10.6,1.315-2.747.234ZM100.6,178.975l-.812-.061-.16-.014-.469-.159-.694-.455-.087-.234.087-.191.474-.131,2.9-.278,9.574-.95h4.32l1.207.263.174.218.073.2-.014.35-.234.321-.082-.218-.118-.058-2.068-.133-.863-.029-1.031.029-4.89.176-6.46.994-.776.235ZM87.2,193.548l-.718-1.492-.424-.278-.722.044-.6.218-.088.191v.409l.145.424.176.131-.015.058-.16.044-.9-.147-3.6-2.862-.612-.937-.234-1.183.115-.571.218-.35.133-.133.4-.145,7.244-2.191.377-.017.76.1.914.393,2.436,1.828.722.76.073.22-7.3,2.06,1.746,1.564.929,1.127-.075.13-.766.586Z" transform="translate(7.265 14.791)" fill="#24195d" stroke="#fff" stroke-width="0.628"/>
        <path id="Mecklenburg-Vorpommern" d="M406.912,153.261l6.3-4.3,4.085-2.442,1.4-.6.6-.145,3.011-.73.907-.073,6.827-.322.387.234.5.513,4.655,5.233-.292,2.617.043.759.467,1.112.818.76.841.438.76.249.753-.073.2-.089,1.645-1.124.628-.467.241-.366,2.245-.525,3.26,1.416,1.732.789-.087,1.242.16.322.841.658,1.833,1.081,1.081.554,2.045-3.523.482-1.389.792-7.731,1.246-2.529.178-.264.547-.5,2.494-1.431,1.177-.4.452-.292.659-.612.241-.336,3.8-5.9.115-1.609-.073-.348-.9-1.449-.29-.321h-.337l-.409.366-1.806,1.814-.795,1.416-1.04,1.434-1.045,1.3-2.385,2.895-.087.043-.1-.087-.2-1.212-.029-.73.159-.7.886-1.71,2.4-3.3,10.46-8.612.292-.087.745-.073.766-.044,4.7-.16.234.029.863.4,1.015.307,1.322.308,1.6.2,1.395.044,1.228-.087.769-.192,1.763-.553,9.661-3.845,5.722.861,4.072.528,2.071-4.694,2.732-5.248.44-.628,1.38-1.257,2.23-1.565,4.844-3.025,1.586-.966.679-.5.731-.6.872-.892.641-.791.8-1.3,5.819-10.948,3.784-7.47,3.055-5.247,2.428,1.988,1.171.5.636.162,5.634.73,4.933.57,10.03-.263,5.978-.424,1.819-.218,2.486-.058,1.864.2.162.087.087.16.043.278-.1.145L572.84,83l-.548.307-2.6.672-5.874.438-4.037.131-1.424-.1-.174-.057-.308-.264-.621-.95-.351-.936-.368-.189h-.073l-2.133.1-4.5,1.154-4.276,2.69-12.367,4.5L531.9,91.561l-3.8,8.914-.423,2.588.043,3.465.058.1,3.084,2.106,1.47.541,1.63.1,1.38-.249.5-.278.015-.277-.411-.336-.481-.249-1.712-.351h-.644l-.247-.1-.812-1.593-.1-1.183.621-1.374,4.4-5.014,6.462-4.983,8.266-4.005,7,1.417,6.474,2.954,2.711-.5.52-.337,1.879-1.666.292-.292.293-.571.116-.628.014-1.33.813-2.135.075-.2,1.923-1.7.336-.263,5.2-1.958,3.069.307,5.686,8.3-1.089,2.487.234,1.095,2.382,7.717,3.469,3.889,2.388-1.345.958-.466h.234l8.471,4.047.2.206.595,1.008,2.169,4.547.351.818.308.541.249.16.256-.015.379.835,3.04-.029,3.071,1.168.029.133-2.338,2.06.189.936.263.278.416.043.718-.467.322-.321.315-.029,1.7,1.066.133.1.2.394.907,1.959.014,1.272.131.4,1.558,2.542.5.438.509.234,2.056.366.263-.073.343-.22.044-.087-.1-.335-.607-.818-.643-.907-.915-2.164-.014-.277,1.279-1.053.452-.16L635.2,118.7l4.889-1.475,5.386,5.363.871.98.759,1.215.295.906.057.495.015,5.79,4.582,9.427,5.418,5.685,1.029,1.447.586.951.176.467-.044.336-.525.82-.456.482-.144.087-.249-.073-.534.015-.527.234-.482.424-1.117,1.214-2.5,2.88-2.009,2.938.115.541.8,1.594.278.26,8.048,4.972,2.835,2.1,2.169,1.988.527.234,9.386,3.347,1.848.6,1.439.218,4.656.1.469-.03.292-.191,1.483-1.313,1.163-1.3.556-.846.19-.2.594-.029.935.218.52.218,1.154,1.008.578,1.58,1.482,7.893,2.74,8.815.5,5.233-.548,3.917-.015.16.348,1.359.987,2.7,1.146,2.938.236.176,2.244,3.142.5,3.069,1.716,6.812,3.524,10.16.4.964-.614-.133-.431.029-6.943,2.923-.221,1.289-.853,2.483-2.8,3.918-1.118.366-3.463.554-8.063-.276-1.529-.176.25-1.682.144-.658.665-1.11,2.172-2.631,1.013-.921,1.406-1.477,1.483-1.782,1.088-1.447,1.4-2.28.586-1.359.188-.659.738-2.717.029-.733-.335-3.93-.581-.951-1.008-.672-8.757-.541-1,1.93-5.363.174-3.713-.585-4.7.834-.8.351-2.237-.906-2.041-4.356-1.337-4.575L652.312,202l-.718.176-.5.877-.1.438-.35,2.675.015.453.218,1.915,1.891,1.71-3.8,3.362-3.713.278-2.412,1.915-1.316,1.183-9.107,8.74-.292.688-1.633,3.917-.65,2.222.344,1.8.409,2.5.015.16-.088.133-2.952,3.976L621.022,248l-.972.424-.5-.145-1.5-2.252-.177-1.228-.087-.279-.541-.744-.293-.16-4.861-.075-1.513.719-2.515,2.176-.5.7-.261,1.038-.146,1.7.015.7-.177.936-.677,1.2-2.054-.307-.25-.278-1.131-2.428-.322-.877-.423-.788-2.678.35-.249.044-3.126,1.521-.6.554L585.8,261.068l-.416.22-.22.028-2.865-1.228-.2-.176-.015-.087.373-.571,1.287-1.008,1.439-.863-.029-.234-.293-.7-.055-.058-.947-.278-10.07.278-2.464.8-.116.087-.029.2-1.6.614-1.149.424-1.616-.174-.524-.951-3.406-3.538-4.685-4.37-1.076-.191-10.612-.994-2.442.527.058.718-.276.293-4.5.541-3.423-3.86-.7-1.973-1.352-1.1-2.571-1.389-1.022-.484-.841-.234-.762-.51L525.934,240l-5.345-4.092-.46.029-7.644,1.564-2.053.747-2.354-.321-2.126-.4-2.866,4.094.218,2.455-.51.687-5.182,3.7-.534.336-6.931,2.529-4.436.321,1.526,2.573.184.483-.037.16-.292.321-7.643,1.71-.871.145-.964-2.017-2.356-1.33-1.412-.1-3.785.058-.782.6-5.356,4.882.944,5.657-.886,3.507-.453,1.358-1.189.835-2.128-.073-2.259-.409-.888-.409-.041-.353-1.1-.818-4.67.557L447.434,272l-7.77-.453-.249-.482-.29-.394-1.3-1.4-.788-.554-.854-.424-4.919-1.974.751-.275.763-.762.086-.278.411-1.3-.058-.484-.2-.321-1.081-.6-.783-.073-1.236-.292-1.613-.394-3.964-2.939-.929-.936-1.586-2.15-3.163-6.125-3.371-7.688-2.476-.659-3.568-.921-1.924,1.492-.532,1.037.058.133-.058.379-1.557,1.024-1.528,1.008-1.182.672-3.677-1.4-.921-.556-1.512-1.373-.481-.762-.7-.9-1.691-2.032-.863-.818-1.41-1.112-.321-.2-.268-.116-5.475.029-1.456.145-.936.336-.914.57,2.455-11.2.849-1.767,1.381-.806.7.044.9.379,1.909.411,5.3-4.018.416-.44,1.389-1.522,2.967-3.492,9.064-12.014.554-3.362,1.938-2.689-.98-5.233-1.836-2-1.235-.6-1.558-.322-.234.059-.306.176-.046.25-.547.159-1.732.088-.307-.133-2.113-1.287-5.263-5.117.579-4.312.249-2.074-.088-.7-.467-1.243-.271-.525-1.374-3.42-.029-2.5,1.969-3.142,7.221-5.072,3.624.263,1.308-2.953ZM601.9,45.809l-.8.5-2.44,1.988-1.776,2.046-.307.482-4.138,10.305-.1.278-.126,1.214.184.029.659-.218.321-.263L597.5,58.19l.907-2.336-.22-.835-.366-1.229-.043-.191.073-.159,2.287-3.246,1.439-.409.148.043.276.6.21,1.683-.029.423-.152.818-.453,1.389-1.022,1.826-.387.528-.336.788-.5,2.82.06,1.432,3.872-1.84,2.866-1.652,9.444,3.889.218.059.159-.015,2.6-.322,2.567-1.038.159,7.163-.189,3.889-.2.133-.512.015-2.339.058-3.7-1.183-.955-.469-5.519-3.216-.321-.365.029-.453.452-4.327-4.32.162-4.6.191-1.557.35-4.554,1.3-1.236.718.842,3.683.626,1.212,2.793-.159,2.186.2,3.465,3.14-1.185,2.266-.328.191-3.1,1.083-1.6.292-1.761.351-1.6,3.565.015.76.059.192.473.261,7.34,1.608.929.191-2,1.229L590.7,89.226l-.213.307-.189.557-.614,3.39.059,1.446,2.317,6.87.167.337,21.437,7.19,1.761-1.329.366-.453.189-.366.044-.174-.1-.82-.571-1.3-1.177-1.374-.133-.059h-.78l-.218.278-.119.234.075.336-.059.177-.892.773-1.088.543-.513.043-.5-.586-.044-1.665,5.789-6.125,4.554-4.372L621.7,92l.452-.176,13.889-1.7.577.1,1.923,3.171.058.162.015.643-.261.6-.1.176-1.107.835-.087.057-1.306.673-.017,2.132,2.956-.774,1.236-2.455L641.6,92l-.958-2.295L638.2,85.733,636.449,84.3l-1.77-1.242-.16.191-.306.16-.893.1L631.6,83.6l-.271-.029-.393-.249-.571-.512-1.4-1.651-1.526-2.88-.353-.906-.44-1.548-.152-2.018.152-.776.264-.467.22-.308.13-.16,2.187-2.469,2.909-2.443.774-.394.286-.058.846-.614.782-1.608.2-1.461-.336-2.923-.547-.7-.95-.877-1.974-1.3-.351-.118h-.626l-2.455.235-.585.058-3.144.658-.437.189-2.823.893-3.99.729-.886-.059-1.425-.348-.541-.192-.665-.438-.409-.277-1.153-1.17-1.016-1.345-.724-1.506-.585-2.1-.189-1.185.059-.451.481-1.434.476-.658.235-.16.744-.353.549-.144.542-.043.393-.176.57-.5.343-.658.484-1.886-.015-.087-.5-.7-.34-.365-4.211.379-6.214,1.756ZM584.663,76.491l.174.435h.134l.249-.348.249-.965,1.512-8.421,1.091-5.379,3.156-1.593-4.114-1.463-2.508,14.355-.191,1.447-.014.745.1.467Zm6.709,2.074,5.877-3.245.717-.57.16-.2-.4-1.272-.351-.438L595.575,72l-.329-.145-.95-.116-.928.234-.907.612-1.163,1.55-.218.5-1.47,3.434-.042.922.086.218.191.087Zm-13.228,1.316-.2-.058-.294.015-.256.087-.322.2-.159.176.015.191.377.365.344.307.921-.058,4.464-1.579.922-.8.489-.525-.694-.76-.308.073-3.918,1.477-.5.583-.718.863Zm70.816,35.929-.7-.76-.336-.234-.711-.174-.452.043-.912.249-1.008.541-.666.528-.2.292-.234.5.059,1.855.482,1.464.292.365,2.748,3.071.293.189.709,6.944,5.122,7.965.145.22.249.147.264.041,5.256-2.542.066-.043.553-1.522-.029-.16-1.731-2.587-.513-2.28-.015-.073.1-.145,4.81.423,2.135,1.843,3.727,4.15.35.455.263.525.578,1.533-.1,7.119-5.008-.878-1.029-2.118-.818-2.735-.213-.189-.629-.278-1.029-.131-2.609.686-.192.073-.176.133-.5,1.052-.234,1.886.044.336.249.57.418.351,1.7,2.06.5,1.185,1.088,3.187.043.672-.592,1.55-.452,1.139-.321.278-1.47.892-1.732.935-1.776.893-.578.118-.554-.029-.366-.058-1.047,2.135,1.031.994,1.646.716,1.934.484,1.441-.147,3.6-.629,3.8-1.037.445-.189,5.753-2.953,10.365-1.081.445.015.292.058,1.864-8.331-5.4-4.43-5.92-5.439-7.1-6.679-1.514-.893-2.039-1.052-.5-.235-.484-.116-1.41-.234-1.4-.5-2.537-1.434-.737-.437-1.526-1.287-1.516-1.55-1.083-1.241-.335-.5ZM455.213,149.05l.977-3.04.3-1.667-.076-.729-.106-.263-.368-.176-1.294-.308-1.461.22-.476.131-.688.278-3.243,1.709-2.039,1.565-.359.82.075,1.431.2.906.336.731.319.424.5.409.5.1,4.89.906Z" transform="translate(37.882 4.022)" fill="#24195d" stroke="#fff" stroke-width="0.628"/>
        <path id="Hessen" d="M347.739,479.994l-.278,1.258.2,1.388.8,3,1.995,4.764,1.674,2.1,4.713,1.724,2.61,1.111,1.265,4.005,6.3,3.2,2.287.776,1.132.687.8.658,1.812,1.783,1.717.409.4.848-.452,1.1-.841.612-.513.25-.46.423-.585,1.843.044.351.5.744.283-.043.058,2.455-.058,1.1-.256.306H372.1l-.513-.964.015-.059-.384-.612-.5-1.828-1.454-1.492-3.611.879-.629.788.148.368,1.864,3.96.846,1.7.286,5.966,2.491.9,1.236.834.278.294.7.729.723,1.3-.235.687-.812,1.593.2.264-.76.906-.379.22-.711.275-.249-.058-.335.246-2.367.322-.572.075-.643-.188-.4-.311-.409-.494-1.777-.966-3.171-.437L359,531.533l-1.19.146-.366.176-.2.144-.2.412-.841,1.754,2.024,6.653,1.338,8.168.029,1.1-2.245,5.671-.986,1.6-1.908.057-2.244-.292-.636.452-1.512,1.231-.191.481-.5,2.483.014.777.527.98.133,1.347.015.643-.177.2-.365.131-1.864.586,1.279,1.564.234,2.032v.452l-.659,1.713-1.724,3.7-1.923,2.368-.935,1.347-.418.612-.1,3.666.088,1.286,4.524.8,1.5.252,1.279-.263.745-1.725-1.7-2.106-.059-.848.329-.437,3.361-1.315.672-.176,2.982.176,1.761.176.409.336,1.074,1.872,1.023,2.849-2.493,2.092-.292.319-.549.878-.234.513.278,13.419.059,1.054-.426,2.28-.644,1.81-1.279,1.919-4.875,5.244-2.2,1.275-1.673,1.356-1.615.994-1.659.687-2.133.252-3.1-1.29-1.052-.835-4.919,1.435-.482,2.191-.783,2.971-.218.452-.944.874.958,1.391.35.776.118,2.265-.118,1.535-.16.543-.6,1.112-1.06,1.051-2.229,2.018-1,.391-.133.048h-.944l-2.36.845-.176.232-.452.748-.958,1.77-1.294,3.285-.1.585-.174.148-2.2.146-1.074.026-4.218-1.077-1.506-.512-1.644,3.491-.489,4.72.926,5.616.337,1.694.6,1.434v1.111L310,661.678l-7.06,1.27-1.865.2h-.27l-.747-.6-2.57-5.964-.148-.176-.424-.118-13.4-2.616L264.885,658.8l-.176.13-.718.845-1.016,1.64-.643,3.433-.9,1.815,1.79,1.549.418-.09.8.03.709.22.189.089.438.38.192.377.5,5.379-2.186,1.226.483.661.058.306.518,4.182.206,3.946.131,2.849.527,4.212.145.305.987,1.315-1.265-.144-.293.075.043.875.16,1.988.134.542.365.393,6.022,6.024.542.029,1.073.234.322.1.249.176,1.63,7.338-2.242,5.964-.687.336-1.879,5.147-1.131,9.632,1.235,2.265-.241,2.267.123.116-.532,1.36-.2.306-.747.6,2.23,1.2.481.353.781,1.913-.014.583-.4.586-1.273.337-2.045-2.382-1.58-.37-7.8,2.5-.337.159-1.441,1.024-2.193,2.53-.525.98-.279.878,1.024.936.767,1.165-8.96,8.186-.353.252-.174.044-2.578-.117-.665-.13-.818-.893-.418-1.2.517-1.181L246.4,751.4l3.187-1.11,3.214-2.912-.277-1.723.218-.89h-3.3l-8.984-1.771-.636-.217-3.187-1.418-2.01-1.373-2.587-10.556.5-.276.131.261.6.22.144-.159.711-1.376-.176-.658-1.338-.307-5.437,1.359-2.363.672-.409.835.059,1.125.292.54.871-.133,1.24,5.613v.7l-.144.745L225.8,740.1l-2.4,1.883-1.3.059-.408-.116-.629-.249-1.264-.951-.872-1.185-.524-1.637-2.822-3.626-2.01-1.753-.76-.644-1.382-.159-.393.029-.433.1-1.439.7-.22.115-.7-1.637-2.2-3.3-.694-1.271-2.216-7.117-.147-.63.234-1.344.1-.335.278-.513.16-.176.87-.672.762-.484.664-.319.965-.368,2.082-.452.535-.22.57-.321.658-.524.561-.834.118-.263.2-.411.856-1.406-.477-3.228-3.86-4.033-.723-1.36-1.387-1.988-.418-.687-3.086-7.79-.261-1.1v-.538l.16-.73.184-.483.481-.791.426-.893.088-.465.029-.687-.176-.759-.818-2.631-.044-1.315-.665-1.626-.644-1.125-.517-.774-.994-1.17-1.763-1.608-1.074-1.606-.612-.893-.957-1.04-1.6-1.532-.8-.336-2.558-.542-1.454-.2-1.265.086-3.495,1.125-5.722,2.616-9.707,3.716-.409.116-2.748.435-4.611.146-.485-.057-.379-.119-.651-.452-7.484-10.466-.943-2.674,1.306-.279,2.755-1.548L161,655.991l.528.2,3.2.89.416-.556.527-4.135-.176-.5-1.381-1.243-1.089-.834-.718-.437-.5-.719-.088-1.828.1-.173,2.1-2.776.806-.586.476-.249,6-2.6,2.542,1.49,1.381.333.411-.012,2.317-2.571-.133-.235-.512-.366-2.31-2.251-.321-.658,1.367-1.8,1.233-.38.922.116L181,635.3l2.762-1.591-.03-2.661-.1-.556-1.016-3.1-.1-.236-.277-.554-3.669-6.711-7.3-4.868-.7-.015.4-1.066,2.426-6.839-1.016-1.346-.738-1.785-.014-.453.651-3.361.73-1.475,3.3-3.933.52-.191.835-.232.424.042,1.673.672.694,1.448,1.41.481,1.485.293,1.052-.144.263-.6,1.074-2.558.379-.92,1.016-2.488.528-1.638-.015-.816-1.616-.924-.5-.29-.177-.353-1.279-6.723.015-1.286.087-.76.2-.571,1.221-1.388,1.015-1.374,2.769-5.144.076-.482-.25-1.315-1.112-1.551-1.06-2.093-.541-1.136-.578-1.391,13.113-12.8.277-.235.27-.043,1.345.043.256.087,5.652,2.981.247.073.753-.16.162-.173,1.555-1.667,5.928-8.948.825-3.579.076-.177.553-.322.131-.07.827-.015.218.086-.365-.511-.015-.333.118-.22,1.183-1.287,1.988-2.148,1.367-1.2.542-.509.658-1.009-.51-1.213-.93-2.018-1.47-4.529-.131-.427v-.261l.606-.877.73-.628,1.06-.893.176-.1,1.747-.658.2-.16,3.882.249,2.361.379,1.045.424,1.543.366.612-.029,4.407-1.7,3.919-8.6.379-.906.1-.527-.218-2.82-1.037-8.873-.153-.351-1.183-1.608-1.264-.029-.973.087-6.314,2.837-1.33.907-.145.043-1.047-.059-.423-.144-.3-.294-2.858-3.99.789-1.185,3.61-5.187,1.514-1.872,1.5-.979,4.085-2.6,6.884-2.119,5.212-1.389,5.76-.13,4.757.307.206-.075,1.138-3.391-.29-1.87-.059-.307-.426-.235-.751-.174-3.481-5.732-.25-.906v-.612l.946-.951,3.946-1.681,2.194-.745,3.076-.76,1.616-.075,4.042,1.71,1.63,2.7-.987,2.455.781,2.252.235.336.379.247.856.278,3.816.249.818-.131.827-1.389.9-1.448,5.971-4.81,6.169-4.822,4.481-7.352,5.314-6.372,1.79-3.013,4.524-.98.38.076.2.292.044.527-.336.744-.293,1.139.058.47.424.554,1,.612.965.133,4.421.073,1.337-.029,4.716,2.412.1.145,1.969,2.15.957.8,1.141.73.247.263.242.554-.447,1.156-.16.234h-.144l-.915-.263-1.008.834-.812,1.1-.25.5-2.111.365-3.364,3.756-.2.438-.015.131.073.221,2.851,4.866.76.834.484,2.193,1.045,5.95-.131.292-1.03,1.58-1.778-.073-2.227.379-.709.117-1.483,2.338-.278.6-.7,2.762-.1.437.7,1.082.914,1.593,2.39.776,7.315,3.04,4.642,2.294.189.322,3.2-1.652.379-1.638.134-.658-.1-1.886-.1-.2-.709.03-2.375,1.139-2.455-3.843,1.5-2.077,6.08-5.115.6-.38.241-.058,4.431-.629,4.276-.57.394.235,1.731,2.8.467.82.059,1.622-.059.191Z" transform="translate(14.785 43.705)" fill="#e6e6e6" stroke="#221c59" stroke-width="0.628" opacity="0.5"/>
        <path id="Hamburg" d="M315.129,197.512l.622-3.144.585-2.147.35-1.243,1-2.895.321-.437.543-.029-.134.718.177.921,2.352,2.865,1.457,1.345.729.321,1.045-.512,4.875-6.111.513-.774.453-.776-.015-.453.1-1.052,1.558-.087,1.717.043.344.278,1.331.292.694.073h1.037l6.745-5.218,1.114-2.688-.688-.863,1.981-1.3,5.921-2.865.394.059.275.116,1.778,1.008-.176,1.183-.841,1.959.2,6.46,1.037,1.229,2.208,3-.315.921-.058.145-1.732,3.683-2.842,2.295-.9.877-.409,1.638.088,2.88,1.175,3.348.295.277,4.832,3.377.524.115.658-.087-.189.863.336,1.095,5.16,5.541.745,1.432-.2.015-.263.131-3.071,1.681-.512.278-.343.351-.264.38-.834,2.059-.335.353-.259.176-.509.073-4.438-.191-.528-.116-.612-.411-3.516-3.317-2.433-2.779-.512-.7-.711-.8-2.435-1.447-.765,1.023-.835,1.8-.249,1.257-3.9,2.866L336,217.9l-2.186-1.828-2.923-2.777-1.03-1.271-.453-.31-.351.221-1.775,1.974-1.147.861-.351.16-4.714-4.854-.1-.818-1.323-3.083L318.492,205l.424-3.071v-3.9Z" transform="translate(31.197 16.849)" fill="#e6e6e6" stroke="#221c59" stroke-width="0.628" opacity="0.5"/>
        <path id="Bremen" d="M224.726,199.968l.794-.512.25-.63.1-.364-.059-1.083-.088-.467-.173-.424-2.967-5.218-1.192-1.857,1.338-1.637,1.279-.1,7.456.379,2.325.366.087.131-1.483,6.87,1.243,5.367-.133.716-3.536,3.741-.249.015-2.523-.278-.444-.276-.235-.321.51-.73.087-.264v-.263l-1.893-2.513Zm35.782,55.867-1.905-2.31-.946-.672-.437-.015-1.586,1.008-6.506-.191-5.211-2.645-5.847-2.865-8.956-1.066-10.387-5.6-.38-1.2-.014-.936-.029,1.008.308,1.814.547,1.183.437.776,1.016,1.49,2.143,1.725,3.288,1.577,1.1.47,1.259.174,1.06.278.5.424.35.7,2.179,5.8.2,1.828,1.265.863,2.711,2.923.68.936.087.878.087,3.61.673.7.752.644.423.1,1.457-.5.512-.2,1.864.015,7.389,2.559,4.3,1.683,4.495-3.845.073-2.719-.527-6.593-1.088-1.695.116-.177.191-.1,1.338-.5,1.4-.527Z" transform="translate(21.503 18.441)" fill="#e6e6e6" stroke="#221c59" stroke-width="0.628" opacity="0.5"/>
        <path id="Brandenburg" d="M700.611,217.233l-.293,2.835,1.47,4.547,1.141-.029.9.176.453,1.271.1.687-1.352,2.982-3.362,5.086-.717.337-.234.2-.46,2.907-.2,1.331.015.336.373,1.463.176.554,1.439,1.872-.358,3.538-.1.73-.759,4.414-.929,3.129-.806,1.358-.348.438-4.511,4.721-1.69,1.624-2.325,1.971-1.3.688-1.1.364-2.939,1.988-2.024,1.93-.377,1.271.043.218.394,2.283,1.513,5.421.482.98-.145,1.812-1.03,1.7-1.1,1.5-.653,1.535.044.892.087.249.489.879.232.249.951.424,2.542.2,5.183,2.06,10.8,7.016,2.111,2.017,2.216,2.571L707,306.778l.1.131.336.554.249.965,2.895,2.762,1.352.919,2.522,1.667,1.135.57,1.98.98,1.19.6.426.145.677.131.438.235,2.39,1.623.592.643,3.231,4.136.218.409.293,10.757-.191.921-.192.366-2.383,4.166-1.037,1.4-2.176,1.521-.394.278-.438.512-.279.628-.144.7-.5,3.172-.116,1.053,1.439,2.22.365.762.477,3.7,2.068,7.761.1.351.264.307,1.308,1.463.276.263.571.278,1.015-.059.438.088,6.52,1.637.133.058.4.307.292.38,1.367,1.915.16.263.029.321-.306,8.858-.075.614-.651,1.272-1.132,1.431-.189.368-.017.483.416,3.552.556,1.153.438.615.694.716.308.2,1.008.087.856.261.585.308.827.6.57.571,1.309,2.106.043.437-.6,4.546-.076.176-.489,1.008-1.966,3.333.176.1.38.834-.247,8.288-1.34,4.691-4.062,5.569-1.6,1.347-2.346,2.426-.491.556v.1l.043,1.622.073.719,1.135,1.739.276.424.234.16,1.412.409,3.942,8.7.686,1.535,2.126,2.367,3.129,2.354.469.307.957.776.767.906.936,1.945.694,5.831-1.1,3.727-1.236,1.886-1.353-1.1-1.138,1.053-.9,3.245-.145.366-.219.321-.653.76-.234.087-4.413.437-.738-.1-.585-.133-.2-.234-.607-1.037-.2-.921-3.055-1.183-9.6,3.405-.5.351-.174.5.015.525.116.745-.453-.249-4.756.614-6.01,3.39-4.051-1.4-5.554-.716-4.239.133-1.79-.293-.547.087-2.934,4.253L686.5,481.8l-1.966,7.631-3.686,4.837-10.4,2.133-.453.075-3.859-.117-2.187.82-2.837,1.4-1.161.788-4.29-.525-.7-.147-1.148-.628-.469-.6-.642.935-4.584.131-2.747.075-.484-.059-4.011-1.2-6.8-4.167-2.968-2.412-3.195-2.836-.812-.628-6.271,3.361-3.623,3.217.012.2.148,1.475-2.363.659-.709.173-3.156-.072-.293-.556-.307-.876-2.112-2.529,1.066-5.1.308-7.206-.218-.935-.308-.937-1.557-3.8-2.58-5.657-.621-1.127-3.655-1.959-.263.426-.452.438-1.017.658-.8-.438L595,461.367l8.917-5.92.716-.776,1.93-3.478V451l-.051-.659-.644-1.3-.377-.348-.665-.6-4.59-16.181-.015-.35-.017-.307,2.406-.382-.029-.861-.189-.848-1-.994-.571-.366-1.251-.058.09.919-.469.294-2.837,1.153-3.259-.292-.218-.029-.411-.261-4.188-4.329-6.74-3.581-1.47.527-.716-.029-3.347-.846-6.813-3.919-.665-1.987-.481-.029-2.5-1.3-2.213-1.243-.958-.612-2.757-1.273-1.277.015-.614.818-.218,1.872-2.513,1.783-1.062.176-5.473-.834-9.971-3.872-6.346-3.947-2.3-2.6-3.661-4.764-2.887-4.445-4.042-5.189,2.53-5.73-.321-5.569.379-3.42.176-.658.789-2.471,1.615-3.553.146-.234.342-.16,1.644-3.317-.9-4.738-.556-3.946-.263-2.281,1.2-2.981.795-1.417.426-1.287-.513-4.517-7.666-2.66-.249,1.3-.059.2-.438.646-1.542.452-1.629.263-1.194-1.418-2.527-3-.058-.059.058-1.037,2.455-9.838,1.25-2.249.57.16.585.029,2.251-1.651.571-5.088-.029-.8-.38-1.228-1.644-2.472-1.717-2.805-.043-.145.585-6.14.482-1.579.928-1.783,2.028-1.008.275-2.5-1.7-6.769-.133-.377-.863-.571-2.046-.921-2.142.965-1.264.659-2.273.759-1.163-2.747.043-.937.343-.892.191-.234-1.03.951L496.2,290.469l-.394-.073-7.214-2.325-4.963-2.017-.484-.249-.306-.307-.353-.687-.087-.672.073-.276.263-.556.716-.76.738-.628.191-.263.133-.38.029-.336-.044-.38-.133-.366-.335-.423-7.157-4.152-.307-.162-.527-.246-.547-.192-.747-.117-.234.044-1.366.8-1.03.716-.424.118-.73-.133-.3-.189-4.933-3.932-.336-.353-.191-.394-.073-.527.073-.424,1.19-1.591.145-.235.029-.278-.1-.336-.293-.249-.321-.176-.285-.073-.672-.058-.351.058-1.935.789-.828-.029-6.066-1.463-.877-.261-.781-.556-1.6-1.695-.979-1.1-.5-.394-.57-.278-.716-.058-.564.058-2.813.788-.534.147-.379.22-1.425,1.1-2.345,1.255-.635.015-.322-.058-.394-.22-4.131-4.237-1.586-1.915-.1-.278-.044-.452-.041-2.018,7.77.453,3.814-3.012,4.669-.554,1.106.818.043.353.885.409,2.259.409,2.128.073,1.19-.835.453-1.358.886-3.507-.944-5.657,5.357-4.882.781-.6,3.784-.058,1.413.1,2.353,1.331.964,2.016.871-.145,7.644-1.71.293-.321.035-.16-.184-.482-1.526-2.573,4.436-.321,6.928-2.529.536-.336,5.179-3.7.513-.687-.218-2.454,2.865-4.094,2.129.394,2.352.321,2.053-.745,7.644-1.565.462-.028,5.343,4.092,2.748.834.759.51.839.236,1.024.482,2.571,1.388,1.354,1.1.7,1.973,3.423,3.86,4.5-.542.278-.293-.059-.716,2.441-.527,10.615.994,1.073.191,4.684,4.37,3.408,3.538.525.951,1.613.176,1.15-.423,1.6-.615.03-.2.115-.087,2.465-.8,10.072-.277.942.277.061.059.29.716.029.218-1.441.863-1.286,1.009-.373.568.014.088.2.174,2.865,1.228.218-.028.418-.221,9.693-10.568.6-.554,3.129-1.521.249-.044,2.674-.35.424.788.322.877,1.131,2.428.249.277,2.054.31.682-1.2.176-.935-.015-.7.144-1.7.264-1.037.5-.7,2.512-2.176,1.515-.718,4.86.075.293.159.542.745.087.278.174,1.228,1.5,2.252.5.145.972-.424,6.549-6.885,2.954-3.975.087-.133-.015-.16-.409-2.5-.344-1.8.653-2.22,1.629-3.918.292-.687,9.109-8.74,1.315-1.185,2.411-1.913,3.713-.278,3.8-3.362-1.894-1.71-.218-1.915-.015-.453.351-2.675.1-.438.5-.877.716-.176,6.915,8.01,1.34,4.575,2.039,4.355,2.236.907.8-.351,4.7-.832,3.715.582,5.365-.174.993-1.93,8.757.542,1.009.672.578.951.336,3.932-.029.731-.738,2.719-.191.657-.585,1.359-1.4,2.28-1.088,1.446-1.493,1.785-1.4,1.475-1.016.921-2.171,2.631-.664,1.11-.147.658-.249,1.683,1.528.176,8.063.276,3.463-.554,1.121-.365,2.8-3.917.854-2.486.219-1.287,6.946-2.924.431-.029ZM619.055,318.3l-.861,1.461-.915,1.185-.641.495-.536.293-.6.191-1-.029-1.257-.073-1.587-.321-7.739.234-1.557,3.083-.043.147.189.423.718.835.5.394.145.2.029.188-.087.528-1.513-.116-.7-.133-1.719-.745-.686-.4-.719.2-2.307,1.551-.059.554-.585,8.507.072.846,2.245-.437,2.179,1.55-3.1,4.048-.576.424-.629.937-.393.76v2.1l.628.73.553.964-.831,1.447-.7.7-1.373.747.234,1.066.321.263,2.851,1.782,2.729.177.9-.087-.755-.162.119-.892,3.069-1.93,2.18-.82.29-.073,1.644-.118,4.656,1,1.366,1.8,2.624-1.316,4.072,3.991,2.769.2-.321-4.459.043-.234.133-.133,2.265-1.066,1-.452.723-.22,1.037,2.559,5.234,1.667,9.758,2.762,1.741.364,2.2-.759.541-.964.073-.5-.2-.482-.336-.015-.723-.221.015-.35,2.5-2.09.943-2.368,1.125-3.42-2.128-2.208-1.236-.087-3.507-2.295-2.229-.643-1.045-4.356-2.215-4.839-4.92-5.2-6.447-12.015L625.473,314l-1.106.847-.8,1.1-.841,1.959-.6,1.637-.812.249-1.475-.8Z" transform="translate(43.134 18.424)" fill="#24195d" stroke="#fff" stroke-width="0.628"/>
        <g id="Berlin" transform="translate(636.714 332.393)">
          <path id="Berlin-2" data-name="Berlin" d="M604.566,306.788l.753.658,1.475.8.812-.249.6-1.637.839-1.959.8-1.1,1.106-.848,1.221.644,6.445,12.014,4.92,5.205,2.215,4.836,1.045,4.356,2.228.643,3.508,2.3,1.236.087,2.128,2.207-1.124,3.422-.944,2.367-2.5,2.092-.015.351.723.218.337.015.2.484-.072.5-.545.964-2.191.76-1.747-.365-9.749-2.764-5.24-1.666-1.041-2.558-.722.218-.994.452-2.266,1.066-.131.133-.044.235.321,4.457-2.771-.2-4.07-3.99-2.624,1.315-1.367-1.8-4.655-.994-1.644.116-.29.075-2.177.818-3.072,1.93-.116.892.752.162-.9.087-2.728-.176-2.851-1.783-.322-.263-.235-1.067,1.374-.745.7-.7.835-1.449-.556-.964-.629-.73v-2.1l.393-.76.629-.935.579-.426,3.107-4.049-2.187-1.55-2.242.438-.075-.847.585-8.507.059-.554,2.31-1.548.716-.2.688.394,1.718.745.693.133L589.3,316l.087-.525-.029-.191-.144-.2-.5-.4-.716-.832-.191-.424.043-.145L589.4,310.2l7.742-.234,1.584.321,1.255.073,1,.029.6-.191.535-.292.643-.5.915-1.185Z" transform="translate(-579.09 -302.46)" fill="#00bc82" stroke="#fff" stroke-width="0.628"/>
        </g>
        <path id="Bayern" d="M518.29,598.4l1.277.261.946.876,3.539,3.655-.059.588-.308,2.365-.431,2.429.564.408,1.6.264,6.176,1.824,2.747,1.04.635.893,2.071,2.031L538.7,618.7l-.087.25-.073.145-1.016.788-1.308.321-.571.586-1.338,1.638.206.423,1.759,1.582,4.526,2.411.351.29,1.555,1.652,1.937,2.367,1.4,2.881-.088.513-.278.818-.933.919-.447,1.359-.029.7.263,2.15.343,1.727.119.261.759.863.117.072.972-.3.7.191,1.41,1.08,2.128,2.206-.437,2.852,5.33.834,4.58,4.649,5.685,3.346,2.318.058,1.366.217,1.967,1.081.871,1.26,3.872,6.679-.087,4.824-.411.364-.81.965-3.084,5.775-.818,2.411L571,686.555l-.212.933-5.885,4.078-.059.38.059.337.512,1.883.636,1.038,2.624,3.682.246.281.293.176.666.176,6.169,1.767.235.1.554,2.28,1.076,7.369,3.8,8.2,1.323,1.9.57.467-.467.541,1.3.817,1.719.617.744.075.177-.588.145-.131.416.028.424.644.117.294.2,1.913.131,2.938v.778l-.058.16-.849,1.11,2.39,3.565,9.456,7.5.424,1.757-.249,1.036,2.068,3.8.668.347,1.555.487,6.941,1.02.922-.012.184-.131-.271-.792-.511-.628-.116-.979.795-.1,1.17.131,4.087.673.437.1,2.143,1.2,2.837,2.657,2.805,3.657,8.077,10.757,1.215,1.653,2.295,2.06,1.28,1.023.35.173.484.018.1,4.134,1.25,1.291,1.483,1.036,1.178.687,2.4.979.871-.26.965-.4,1.877-.467.561-.029.66.277,3.406,2.426,1.908,1.506,4.421,4.912.788,1.2.914,3.14,1.381,5.923,1.5,1.022,6.066,4.051.279.042.892-.174-.046-1.24-.189-.585-.118-.733.058-1.255,2.039-.791,4.759.2.409.247.242.22,3.495,3.857,1.454,1.858,1.037,2.4.914,2.018,1.584,1.823.484.191,1.206-.029,2.566-.1.43-.22.554-.556.834.019,7.992,11.78,1.79,3.682-.8,3.085-.944,2.952-1.241,2.223,1.806,3.143,1.629,7.906.046,2.251-1.835,6.271-6.344,8.934-.293.231-1.988-.495-4.018-2.092-.368-.306-6.937-4.37-7.41-2.809-.511,2.238-.241.452-1.067,1.185-1.5,1.255-.672.319-2.746.881,1.052,1.271.087.145.957,3.712-.058.279L668.3,869.9l-.365.717-.38,1.373-.015.525.059.252,1.067,1.723.189.643.029.408-.118.528-1.76,6.885-.264.672-.219.366-.366.377-7,7.21-.745.583-5.444,3.625-.5.276-.647.118-6.87.087-3.881,2.191-.7.292-1.03.191-1.689-.041-.834-.029-.782.177-5.429,2.937-.469.322-.445.467-.249.408-.455,1.023-.292.528-3.2,3.729L625,908.9l-.506.339-.585.261-.452.1-2.559.133-3.946.661-.287.087-.393.276-.307.423-.059.266-.059.95-.116.4-1.323,2.837-1.221,1.518-.247.293-3,2.353-3.581,2.955-.7.889-.16.235-.029.382.382,2.545.293,1.077.436.968.885,1.139,3.962,3.29,2.777,2.278,1.119,1.154.57.719.4.716.1.35,1.264,5.028.323.628.359.351,3.317.614.673.291.306.264,1.279,1.814,3.115,4.9,3.889,6.987.263.643.088.63-.119.437-3.567,6.343-5.166,10.321L622.4,978l.1.293.759.834,1.193.875,4.626.351,1.337-.1.4-.192.987-.7.218-.278.1-.235-.1-.159.321-.612.218-.09.68-.057,2.729,1.33.379.278,2.032,2.6,2.967,7.266.159.628-.245,1.038-.417.453-1.779,2.09-2.549,3.976-.14.964-.776,6.155.029.2.189.25.426.364.46.149.409.333.117.351.2,3.158-.015,1.009-3.771,4.107-.278.145-.249-.075-3.647-1.476-1.113-.51-4.07-2.267-10.612-7.218-.944-.923-1.06-1.666-.483-1.417.159-.5,1-2.631,1.338-1.431-3.705-7.7-2.039-.612-5.328-1.475h-1.123l-.585.04-1.132.25-5.429,1.185-.424.116-.724,1.022-1.249,2.675-6.68,3.409-1.273.072-3.354-3.394-2.491-3.375-.162-.351-7.243-.788-2.48-.919-.305-.234.218-.63-6.622,2.5-1.6-4.926.5-.878.619-1.518-.2-.63-.615-.835-.7.252-5.95,5.816-.189,4.8,1.6,3.494.409,1.4.68,2.689.015.292-.082.351-.176.278-.22.159-1.891.427-5.156-.131-4.495-.455-2.126-1.229-3.908,1.1-4.965-.612L527.72,997l-4.453,1.724-1.629,2.819-.292.18-1.411-.105-3.86-.7-13.477-.061-1.6-.279-2.454,1.582-.162.2-1.57,3.417-.162,1.55-.012.308.029.264.16.366.073,1.94-1.485,1.582-.335.145-6.058,1.388-4.774-.453-.915-.261-.658-.818-.329.145-.335.25-1.893,2.179-.234.524-2.361,2.7-7.551,6.711-.781,1.375-.234.527-.452,1.371-.556.7-1.091.643-.275.09-4.011.411-.337-.03-.234-.279.144-.6,1.514-2.617,1.25-1.17-.263-.539-.2-.136-4.188-.1-4.73,1.858-.5.264-1.792,1.02-4.771,2.385-7.33.368-.922-.061-1.645-.321-.87-.411-.174-1.68.2-.658.117-.144.81-.149.4-.348-.147-1.289-2.213-2.584-3.173-3.293-4.511-.964-.306-.029-.68-.333-.191-.556.075-1.884.621-.613,2.712-2.063-1.879-2.736-3.04.353-5.374,2.106-3.26-.63-6.752-2.735-.292-.875-.044-.44.087-.26-.117-.368-7.009-1.156-1.688-.144-1.111,1.3-.636,1.286-.015.235-.818,2.031-.409.046-4.291-.191-3.393-.671-2.718-1.74-.646-.469.6-.893.87-1.053.307-1.4-.058-1.11h-.365l-3.025.467-.189.06-.536.908.177,10.464.913,2.424.22.25.278.09.576-.223.906.438.665.759.1,1.069.47,5.392-5.518,7.409-6.7,8.566-2.083,2-4.092,2.545-3.809,1.4-6.177,1.109-.4-.011-.162-.543-.041-.7.319-1.255.329-1.067,3.626-8.392.892-1.124,1.015-1.446.059-.146-.087-1.183-.672-.9-.213-.076-4.37-.482-1.192.923-.043,1.507.058.539-.366.35-6.344,2.016-2.169-6.955.759-1.49.827-.353.16-.131.966-1.535-1.258-2.161-1.192-1.608-2.645-3-2.851-1.156-1.215.337-.723.014-.189-.075-.556-.571-2.909-4.969-.015-1.49.03-.921.261-1.127-.308.279-3.026,1.651-1.037.426-4.64.144-5.627-2.688-.059-.3.2-.522.176-.147.2-.058.249-.322.232-.437.147-2.617-.365-1.17-2.032-1.244-.2-.042-2.244.1-1.121.863-.89,1.286-3.451,4.752-5.262-1.652-4.413-1.826-1.221-.788-.441-1.171,3.669-2.777,1.718-1.167,3.259.261.073.512.148.3.35.264.577.191,4.313-.2,7.622-7.746.1-.16,6.606-.37,7.551-.112.409-.719,1.454-1.812.336-.336.22-.116,1.85-.31,3.582.69.036.042.452.788.044.147,1.206,4.911-.094-.423.577-1.6.527-.6.854-1.1.614-.351.972.2h.263l1.528-1.417.935-3.1.014-.834-3.523-8.619-.073-5.121,1.4-.029,1.835-1.649-.38-1.083-.621-.408-.716-.892-.731-1.506-.651-3.48-.2-4.81-.015-.556.03-.484.29-2.482.521-1.974-1.1-.717-.469-.38-.343-.377-.292-.557-.2-.845.057-.791.162-.643.191-.336.234-.249.357-.22.994-.22.915-.191.087-1.428.337-2.574.554-.939.769-.774.218-.935.365-3.346-.073-4.109-.249-4.708-1.132-1.035-1.183-1.275-.117-.188-.344-.893-1.2-3.872v-.672l-.417-.924-.467-2.422-.2-1.1-1.688-12.234-1.338-1.286-3.959-6.213-1.121-2.106-.539-2.764,2.083-4.893.189-.294,1.7-3.1.4-2.37-.22-.977-.437-.661,2.2-.173,4.566-2.6,1.308,1.006,1.587,1.873,3.171-.673,6.564-5.772-.278-.777-.329-.7,2.15-1.128.337-.144.67-.09,1.294.572h.8l.9-.118,1.483-.863.117-5.407-.073-.835-1.338-7.934-1.8-2.486-1.631-2.28-.789-1.11.073-1.857.073-.308,1.178-3.379,5.592,1.768.854.281,6.606-1.432,2.23-.116.483.353.192.247.073.423-1.374,3-.593.423-.144.261.072.339.044.029,1.395-.061,3.014-.962,2.024-2.238.467-.6-.437-.878-.31.018-.868-.853-.936-3.549-.088-1.182-3.507-1.153-.285.029-.365-4.533.957-.408,1.673-4.342.029-.087.482-7.106.177-8.522-.528-2.587-.672-.863-.124-.16-1.79-1.855-.994-2.721-.206-.482-8.447-6.155-5.783-2.453-.218-1.435.015-.964h.2l.586-.277-1.835-9.224-2.865-5.188-2.377-1-2.07-1.08-3.579-2.441-.4-.481-.044-.235.293-8.612,1.322-3.738-.745-1.185-2.718-5.993-.134-.467-.057-.4.409-4.88.438-.864,3.156-.1.944-.423.379-.643.1-.293-.863-2.338-1.573-3.159-1.63-5.419-.2-.079-1.395-1.823-.075-.863.058-.261.307-.658.543-.513-.4-1.869-1.12-2.471-.921-1.536-1.557-.292-.467.131-2.1,2-.073.12.337.452.911.818.87.2-.737,1.286-.263.293-2.982,3.333-.495.176-5.6.348-2.111-.494-.264-.148-1.117-1.124.189-.936.564-.6.234-.543.042-.16.218-5.8-.218-1.507-.042-.16-.959-3.083-.16-.38-.365-.089-.643.059-.4.072-2.374-3.738-.322-1.374-3.275-11.562-.958-.982-2.36-2.335-1.526.525-5.818,2-3.669,2.089-1.221.588-.745.105-2-1.085-.693-1.008.524-1.913.154-.12.762-.377.087-.426.871-8.271-.2-1.359-1.691.791-5.9,5.715-.189.118-.319-.015-.359-.162-3.552-2.31-.394-.336-.322-.556-.087-.292.057-.524.235-.8.015-.369-.116-.274-.387-.369-.31-.261-.321-.09-1.79.191-.249.221-.554.731-.915,1.448-1.716-.7-7.7.365-3.113.353-.6.075-.366.16-.176.333v.792l.659,2.57L284,700.61l1.221,1.857.854.119,1.008-.1.438-.116.058-2.251-.2-.731.489-.791,1.257.319,1.427,2.429.605,2.341-1.047,4.572.731.691-.292.742-.937,1.156-2.046.38-3.223-1.023-4.116-.612-1.747,2.526-.957,1.551.781,1.11.1.322-3.347,4.253-.8.452-1.63.5-.835.191-1.79.337-6.841-.029-.272-.041-1.342-.531-1.236-2.262,1.131-9.635,1.878-5.148.688-.332,2.244-5.965-1.631-7.338-.249-.174-.321-.1-1.074-.235-.542-.029-6.022-6.022-.365-.393-.131-.542-.162-1.988-.043-.878.292-.075,1.265.148-.987-1.3-.145-.323-.525-4.21-.133-2.848-.2-3.946-.521-4.183-.057-.3-.482-.661,2.183-1.226-.495-5.381-.191-.38-.437-.377-.192-.089-.709-.22-.8-.029-.418.089-1.79-1.547.9-1.815.644-3.434,1.015-1.638.718-.845.176-.131,18.624-5.12,13.4,2.62.424.115.147.177,2.57,5.966.747.6H291l1.864-.2,7.062-1.272.554-1.637v-1.11l-.6-1.435-.337-1.695-.928-5.613.489-4.721,1.644-3.495,1.507.513,4.217,1.08,1.074-.029,2.2-.144.177-.148.1-.583,1.294-3.289.957-1.768.453-.748.174-.231,2.361-.849h.943l.133-.043,1-.393,2.229-2.018,1.062-1.055.6-1.107.159-.542.117-1.536-.117-2.266-.35-.777-.957-1.388.943-.875.22-.455.78-2.967.484-2.19,4.919-1.435,1.053.834,3.1,1.286,2.135-.246,1.659-.688,1.615-.994,1.674-1.356,2.2-1.275,4.873-5.245,1.282-1.9.643-1.828.424-2.28-.059-1.052.388-.117.509-.249,1.369-1.359,2.506-2.777,9.183-.98.744.073,2.545,3.333,2.009,2.721,6.46,2.7.753.612.7.731,3.364,7.12.543,3.346.028.8.74,1.038.234.028,2.558.279,1.287-.585,1.222-.615.351,1.4.417,1.637,3.156,3.453,5.534,2.074,4.208.965-.365,3.888-.469,4.94.912,3.975.586,1.611.263.612,2.529.615,7.236,2.659.379-.055.263-.12.621-1.054-.189-2.423-.2-.09-.053-2.35.1-.3.408-.306.8.16,3.348.774,3.908.893.4.059.958-.25.948-.643.194-.25.306-.834-.072-1.9-.571-.731-.818-.423-1.77-.583-.861-.2-.235-.076-7.607-5.375-.513-.427-.116-.511-.25-4.224.294-1.3,10.377-4.239,9.181-.059h.217l.264.059.762.776,1.572,2.806,1.857,2.031,4.962.878.554.075,1.88-.644,1.613-.687.527-1.591.169-.148,1.038-.234,1.235.015,2.244,1.886,1.877,3.274-.058.848-.585.191-.777.568-.444.4-.583.658-.148.8.134.672.044.145.955,1.4,3.062,2.952,1.134-.04.131-.191,1.293-2.619,4.307-.7,2.771-9.5v-.087l-1.66-10.454-.408-1.154-.614-.217-.957-.659-.16-2.952v-.276l.2-.864.307-.351.592-.188.629.188.131.221,2.1-.968,3.04-2.453.307-1.038,1.5-1.593.234-.089,2.177-.292,4.8.924.366.3.452.661.783,1.138v.207l-.38.936-.1.144-.614-.015-.612.906-.2,2.177.059,2.909.116.776.145.249,2.741,1.623,2.425-.293.762,3.025.912,1.638,2.317,2.589.813.393,2.61-.8.605-.572.029-.29.218-1.066.218-.351.218-.145,1.819-.38.536.264.394.292.585.672.783.73.409.235h.292l17.257-2.37,5.678-2.018Z" transform="translate(24.813 57.934)" fill="#e6e6e6" stroke="#221c59" stroke-width="0.628" opacity="0.5"/>
        <path id="Baden__x26__Württemberg" d="M274.839,710.416l1.345.528.271.044,6.841.029,1.79-.337.834-.191,1.631-.495.8-.452,3.348-4.257-.1-.321-.783-1.11.958-1.551,1.747-2.526,4.116.615,3.224,1.02,2.046-.377.935-1.155.293-.748-.733-.687,1.047-4.576-.606-2.335-1.425-2.429-1.257-.321-.489.791.2.73-.059,2.253-.437.112-1.008.1-.856-.116L297.29,690.8l-2.082-3.5-.658-2.576v-.788l.174-.336.365-.16.6-.076,3.113-.35,7.7-.364,1.717.7.912-1.446.556-.731.249-.22,1.792-.191.319.089.308.261.387.366.116.278-.015.365-.234.8-.057.528.087.292.322.553.394.34,3.55,2.309.366.16.315.012.191-.116,5.9-5.715,1.688-.789.2,1.358-.871,8.274-.087.424-.76.38-.152.118-.527,1.916.694,1.008,1.994,1.08.746-.1,1.221-.583,3.669-2.089,5.818-2,1.528-.527,2.361,2.339.955.979,3.275,11.565.321,1.371,2.377,3.741.4-.071.644-.061.365.089.16.379.957,3.086.044.16.218,1.5-.218,5.8-.044.162-.232.542-.563.6-.192.933,1.12,1.125.263.149,2.111.492,5.6-.351.495-.173,2.983-3.333.261-.292.738-1.287-.87-.207-.914-.816-.336-.452.073-.119,2.106-2,.467-.135,1.557.3.921,1.532,1.118,2.469.4,1.872-.542.513-.307.655-.059.263.073.861,1.4,1.828.2.075,1.63,5.424,1.57,3.158.864,2.335-.1.3-.379.643-.941.423-3.16.1-.438.863-.409,4.882.059.4.131.467,2.719,6,.747,1.181-1.323,3.742-.292,8.608.043.235.4.483,3.582,2.444,2.068,1.078,2.377,1.012,2.865,5.172,1.836,9.221-.586.281h-.2l-.015.962.22,1.434,5.782,2.454,8.45,6.156.2.492.994,2.706L399,800.329l.124.163.673.861.524,2.588-.176,8.519-.482,7.106-.029.086L397.964,824l-.958.408.365,4.532.286-.029,3.507,1.154.089,1.185.933,3.55.872.847.307-.014.438.874-.47.6-2.024,2.238-3.011.964-1.4.057-.043-.028-.076-.339.148-.261.59-.423,1.376-3-.075-.426-.189-.247-.483-.351-2.229.116-6.607,1.435-.856-.281-5.592-1.767-1.177,3.375-.073.311-.073,1.857.789,1.107,1.629,2.281,1.806,2.487,1.34,7.936.075.834-.119,5.408-1.483.861-.907.118h-.8l-1.293-.571-.675.09-.335.145-2.147,1.124.326.7.279.778-6.566,5.773-3.173.67-1.584-1.869L367.4,867.2l-4.568,2.6-2.2.174.438.659.218.977-.394,2.371-1.7,3.1-.192.292-2.082,4.9.541,2.761,1.118,2.108,3.962,6.207,1.337,1.287,1.689,12.237.2,1.1.469,2.426.418.922v.673l1.2,3.872.344.89.117.191,1.183,1.273,1.132,1.036.249,4.709.073,4.11-.366,3.344-.218.936-.767.773-.556.936-.336,2.589-.087,1.417-.914.191-1,.22-.359.22-.234.247-.191.336-.16.658-.058.776.2.847.293.552.344.382.467.38,1.1.716-.52,1.976-.292,2.483-.029.483.015.557.2,4.807.65,3.48.73,1.507.719.89.621.411.379,1.083-1.833,1.651-1.4.029.073,5.117,3.524,8.623-.015.834-.936,3.1-1.526,1.42h-.264l-.972-.206-.612.35-.9,1.041-.307.554-.585,1.591.1.408-1.206-4.893-.043-.149-.453-.785-.043-.047-3.577-.7-1.848.322-.218.116-.336.336-1.456,1.814-.408.7-7.551.13-6.606.366-.1.162L333.48,990.9l-4.311.2-.578-.191-.351-.261-.147-.307-.072-.512-3.261-.265-1.718,1.174-3.669,2.775h-2.88l-1.16-.116-.47-.217-.437-.25-1.981-2.164-1.1-2.617-.189-1.2-.535-1.082-.906-1.24-.812-.658-6.8-2.15-1.338-.382-.818-.04-.57.072-1.843.292-.336.06-.73.411-.708.217-.5-.029-.366-.162-1.248-.668-2.791-1.525-3.73-2.512-1.424-1.271-1.081-1.1-.723-1.228-.263-.7-.191-1.183.134-.248-.044-.511-.075-.145-.854-.774-10.569-6.96-2.909-1.857-.365-.162-.5-.845-.4-.31-2.1-.364-.539.864-.308.683-.015.18.191.333,3.422,3.553,1.052.845.767.542,4.539,3.1.176.044.716-.117.44.047,2.295,1.912,3.565,7.529.554,2.205-2.2,1.331-1.879.307-3.507-1.431-3.172-1.7-.547-.321-.675-.2-3.405-.777-.612-.1-2.472-.264-.393-.012-.484.115-1.631.643-1.63.861-.592.412-.687.643-1.074.63-1.718.845-4.02,1.141h-.283l-1.749-1.04-6.343-5.525-1.388,2.515-.386.057-.791-.333-5.3-2.3-.118-.408-1.4-4.926.336-1.2.892-1L233.815,967l-2.237-1.959-3.216-1.036.351,1.563-.513.878-.306.38-1.28.845-.366-.16-.78-1.185-.44-4.761-3.889-.776-1.047,1.477-.585,1.68-4.464.964-2.054.366-1.5,1.24-1.6,2.063-4.479,7.73-.672,2.794.029.2.583,1.008,5.476,3.961.3.133,5.4-2.223-.192-.816.586-.382,1.848-.774.839-.191,3.553-.279.321.018.5.087,2.041,2.791.029.426-.547,1.257-2.054,4.282-1.221,1.3-.762.7-1.439-.235-.351-.742.279-1,.35-.131.118-.232-.073-.366-.176-.277-1.022-1.114-1.77-.919-.058-.029-1.587-.366-5.182,4.092,1.894,2.325.5.774.029.162-.767.51-2.112.7-2.542.672-.687.09-9.224-.763-.512-.071-.2-.09-.35-.191-2.237-2.09L194.1,991l-.191-.452v-.5l.263-1.255-.043-.162-.294-.292-.818-.423-2.57-.687-4.438-.834-.687-.087-.379.087-.271.13-8.617,5-.452.455-.2.308-.1.362-.131,1.185-.264.571-.606.482-.365.145-6.373.834h-.249l-5.76-1.271-4.649-1.9-1.454-2.166-.218-.2-.5-.22-.335-.059-4.905.178-1.983,1.958-.26.554-1.425,1.521-.711.377-3.7,1.346-5.314,1.506-.38.029-1.147-.089-1.06-.437-.2-.2-1.717-1.779-.937-1.537.353-.189.658.2,3.449-1.4.015-.469-.235-1.255-.494-1.345-8.006-2.106-6.021-7.864-.263-.426-.22-.6-.087-.5-.6-3.917.119-.553.189-.279,2.186-1.728.321-.347.379-.556.343-.845.191-.983-.015-.483-.191-.744-1.336-3.99-.076-.585.076-1.141.145-.5,1.279-3.037,1.7-3.947.308-.951.073-.73-.073-.788-.47-1.315-.115-.528v-.95l.176-.731,2.506-6.592,2.527-3.524.659-.933.708-1.289.192-.687-.029-.893-.418-1.71-.379-.875-.643-1.084-2.939-3.7-.218-.319-.116-.412.015-.494.218-5.979.072-.583.856-4.373.015-.644.145-.376,2.171-4.676.234-.441,3.025-3.962,3.261-4.443.26-.585.453-1.475.93-3.172.972-5.115.115-.483.308-.672.554-.661.653-.495,2.316-.847L143.5,886l.286-.279.2-.276.234-.512.118-.437.017-.426-1-5.381-.133-1.243v-.816l.118-.983.191-.9.283-.893,2.945-7.2,3.188-6.488.4-.586.437-.95.145-.733.015-.571.058-4.938-.1-1.258-.293-1.507-.015-.655.059-.44.2-.6,3.715-7.247.2-.311.335-.322,1.659-.7,2.032-1.138.7-.542,6.593-7.6,1.029-5,.206-.452.2-.2.673-.293.547-.029,3.448-.878,4.818-3.405,1.066-.965.973-1.182.6-.908.328-.76.264-1.095.368-1.681.6-1.783.812-2.295.485-1.183.577-1.228,1.228-2.267,4.655-7.323.426-.452.416-.234,2.769-.878.563-.336,2.2-1.707,1.483-1.174.554-.568.431-.629.4-.73.585-1.3.131-.441.1-.411.275-1.94.272-1.243.628-1.638.495-.9.989-1.466,1.353-1.458.014-.018.95-1.168.621-1.008.25-.717,3.332-14.222L208,760.005l-.234.059h-.131l-.029-.059.073-.979.25-.845.393-.748.5-.6.708-.612.76-.47,2-1.289.677-.612,2.436-2.719,1.877-.965.14-.292.073-.6-.167-.748-.322-.492-.481-.44-.337-.191-1.424-.484-.293-.191-.264-.307-.2-.528-.043-.6.043-.276.184-.451.308-.441.716-.673.622-.423.612-.466.688-.719.812-1.2.524-1.172.337-1.287.057-.785-.072-1.183-.234-3.174,1.073-2.894.015-.44-.133-.437-.482-.556-.489-.22-.776-.144-1.381.042-.912.046-.8-.145-.323-.147-.358-.306-.218-.25-.177-.337-.015-.5.162-.423.307-.321.328-.25-.593-4.412-.115-.85-1.515-6.123-.583-1.171-.145-.423-.059-.511.03-.585.174-.69.556-.964.116-1.577.213-.116,1.446-.7.433-.105.394-.028,1.381.162.76.643,2.009,1.754,2.822,3.623.527,1.638.871,1.183,1.264.951.629.248.409.119,1.3-.061,2.4-1.883.921-1.506.145-.748v-.7l-1.241-5.616-.871.133-.292-.541-.058-1.125.411-.834,2.36-.672,5.437-1.36,1.338.308.176.658-.709,1.371-.147.162-.6-.217-.133-.266-.5.281,2.589,10.555,2.007,1.37,3.188,1.42.635.217,8.985,1.768h3.3l-.22.893.279,1.724-3.217,2.91-3.188,1.109-2.433,5.175-.52,1.2.419,1.183.818.89.664.136,2.58.112.176-.042.353-.25,8.957-8.184-.766-1.168-1.023-.939.278-.878.525-.976,2.191-2.53,1.442-1.023.336-.16,7.8-2.5,1.577.368,2.046,2.383,1.265-.337.409-.585.015-.585-.781-1.918-.484-.347-2.229-1.2.745-.6.206-.308.534-1.358-.124-.118ZM234.516,976.784l-1.015-2.6-.322-.279-3.524.2.31,3.026.885.716,2.856-.293.972-.13Z" transform="translate(11.581 67.78)" fill="#e6e6e6" stroke="#221c59" stroke-width="0.628" opacity="0.5"/>
      </g>
    </g>
    <g id="map_pin_type_2" data-name="map pin  type 2" transform="translate(921 6025)">
      <g id="area_label_box" data-name="area label box" transform="translate(-117 -9)">
        <rect id="background" width="15" height="8" transform="translate(128 28)" fill="#fff" opacity="0"/>
        <text id="label" transform="translate(125 12)" fill="#1f1f1f" font-size="3" font-family="ArialMT, Arial" opacity="0"><tspan x="0" y="0">Einrichtungen in</tspan><tspan font-family="Arial-BoldMT, Arial" font-weight="700"><tspan x="0" y="5">Brandenburg</tspan></tspan></text>
      </g>
      <g id="pin_dot" data-name="pin dot" transform="translate(0 -20)">
        <circle id="circle" cx="10.5" cy="10.5" r="10.5" transform="translate(9 29)" fill="#00bc82"/>
        <g id="outline" transform="translate(0 20)" fill="none" stroke="#54b986" stroke-width="1">
          <circle cx="19.5" cy="19.5" r="19.5" stroke="none"/>
          <circle cx="19.5" cy="19.5" r="19" fill="none"/>
        </g>
      </g>
    </g>
    <g id="map_pin_type_2-2" data-name="map pin  type 2" transform="translate(994 5902)">
      <g id="area_label_box-2" data-name="area label box" transform="translate(-117 -9)">
        <rect id="background-2" data-name="background" width="15" height="8" transform="translate(128 28)" fill="#fff" opacity="0"/>
        <text id="label-2" data-name="label" transform="translate(125 12)" fill="#1f1f1f" font-size="3" font-family="ArialMT, Arial" opacity="0"><tspan x="0" y="0">Einrichtungen in</tspan><tspan font-family="Arial-BoldMT, Arial" font-weight="700"><tspan x="0" y="5">Brandenburg</tspan></tspan></text>
      </g>
      <g id="pin_dot-2" data-name="pin dot" transform="translate(0 -20)">
        <circle id="circle-2" data-name="circle" cx="10.5" cy="10.5" r="10.5" transform="translate(9 29)" fill="#00bc82"/>
        <g id="outline-2" data-name="outline" transform="translate(0 20)" fill="none" stroke="#54b986" stroke-width="1">
          <circle cx="19.5" cy="19.5" r="19.5" stroke="none"/>
          <circle cx="19.5" cy="19.5" r="19" fill="none"/>
        </g>
      </g>
    </g>
    <g id="map_pin_type_2-3" data-name="map pin  type 2" transform="translate(1085 5729)">
      <g id="area_label_box-3" data-name="area label box" transform="translate(-117 -9)">
        <rect id="background-3" data-name="background" width="15" height="8" transform="translate(128 28)" fill="#fff" opacity="0"/>
        <text id="label-3" data-name="label" transform="translate(125 12)" fill="#1f1f1f" font-size="3" font-family="ArialMT, Arial" opacity="0"><tspan x="0" y="0">Einrichtungen in</tspan><tspan font-family="Arial-BoldMT, Arial" font-weight="700"><tspan x="0" y="5">Brandenburg</tspan></tspan></text>
      </g>
      <g id="pin_dot-3" data-name="pin dot" transform="translate(0 -20)">
        <circle id="circle-3" data-name="circle" cx="10.5" cy="10.5" r="10.5" transform="translate(9 29)" fill="#00bc82"/>
        <g id="outline-3" data-name="outline" transform="translate(0 20)" fill="none" stroke="#54b986" stroke-width="1">
          <circle cx="19.5" cy="19.5" r="19.5" stroke="none"/>
          <circle cx="19.5" cy="19.5" r="19" fill="none"/>
        </g>
      </g>
    </g>
    <g id="map_pin_type_2-4" data-name="map pin  type 2" transform="translate(726 5758)">
      <g id="area_label_box-4" data-name="area label box" transform="translate(-117 -9)">
        <rect id="background-4" data-name="background" width="15" height="8" transform="translate(128 28)" fill="#fff" opacity="0"/>
        <text id="label-4" data-name="label" transform="translate(125 12)" fill="#1f1f1f" font-size="3" font-family="ArialMT, Arial" opacity="0"><tspan x="0" y="0">Einrichtungen in</tspan><tspan font-family="Arial-BoldMT, Arial" font-weight="700"><tspan x="0" y="5">Brandenburg</tspan></tspan></text>
      </g>
      <g id="pin_dot-4" data-name="pin dot" transform="translate(0 -20)">
        <circle id="circle-4" data-name="circle" cx="10.5" cy="10.5" r="10.5" transform="translate(9 29)" fill="#00bc82"/>
        <g id="outline-4" data-name="outline" transform="translate(0 20)" fill="none" stroke="#54b986" stroke-width="1">
          <circle cx="19.5" cy="19.5" r="19.5" stroke="none"/>
          <circle cx="19.5" cy="19.5" r="19" fill="none"/>
        </g>
      </g>
    </g>
    <g id="map_pin_type_2-5" data-name="map pin  type 2" transform="translate(1022 5635)">
      <g id="area_label_box-5" data-name="area label box" transform="translate(-117 -9)">
        <rect id="background-5" data-name="background" width="15" height="8" transform="translate(128 28)" fill="#fff" opacity="0"/>
        <text id="label-5" data-name="label" transform="translate(125 12)" fill="#1f1f1f" font-size="3" font-family="ArialMT, Arial" opacity="0"><tspan x="0" y="0">Einrichtungen in</tspan><tspan font-family="Arial-BoldMT, Arial" font-weight="700"><tspan x="0" y="5">Brandenburg</tspan></tspan></text>
      </g>
      <g id="pin_dot-5" data-name="pin dot" transform="translate(0 -20)">
        <circle id="circle-5" data-name="circle" cx="10.5" cy="10.5" r="10.5" transform="translate(9 29)" fill="#00bc82"/>
        <g id="outline-5" data-name="outline" transform="translate(0 20)" fill="none" stroke="#54b986" stroke-width="1">
          <circle cx="19.5" cy="19.5" r="19.5" stroke="none"/>
          <circle cx="19.5" cy="19.5" r="19" fill="none"/>
        </g>
      </g>
    </g>
  </g>
</svg>
