<svg xmlns="http://www.w3.org/2000/svg" xmlns:xlink="http://www.w3.org/1999/xlink" width="876.27" height="822" viewBox="0 0 876.27 822">
  <defs>
    <clipPath id="clip-path">
      <rect id="Прямоугольник_88" data-name="Прямоугольник 88" width="876.27" height="714.17" transform="translate(200.54 38)" fill="#24195d" stroke="#fff" stroke-width="1"/>
    </clipPath>
    <clipPath id="clip-path-4">
      <rect x="223" width="39" height="769" fill="none"/>
    </clipPath>
    <clipPath id="clip-path-5">
      <rect x="222" width="39" height="822" fill="none"/>
    </clipPath>
  </defs>
  <g id="Сгруппировать_635" data-name="Сгруппировать 635" transform="translate(-1937.864 -5479)">
    <g id="jsd_standortkarte_berlin" transform="translate(1737.324 5494.915)">
      <g id="Gruppe_2581" data-name="Gruppe 2581">
        <g id="Сгруппировать_591" data-name="Сгруппировать 591" clip-path="url(#clip-path)">
          <g id="Gruppe_2569" data-name="Gruppe 2569">
            <g id="Gruppe_2566" data-name="Gruppe 2566">
              <path id="Pfad_2591" data-name="Pfad 2591" d="M646.22,651.85l-8.58,19.35-43.12-2-2.2-23.54L569.43,647,571,634l-34.53-27.51.22-12.32,1.1-5.26,26.55-15,4.78-12.84,5-2.83-20.24-56.81h-2.61v-2.38h-6.31l-2.33-5-9-12.61-2.4-2.62-2.17-1.74-6.31,2.83h-2.61l-2.62,1.52-9.8-4.13-.8-22.13h18.57v-1.74h5.23V408H529l6.33-10.3,3,.56s27.32,10.66,28,10.66a52.189,52.189,0,0,1,5.23,1.52l-2.18,5.66.87,4.35,10,3.92-2.62,3.48,1.74,3.05-3.47,2.18.43,5.65h17l10-2.6-.44,5.65h7.84l1.31-2.17,7.83-2.18-.43,13.93,6.09,2.61,3.91-1.73,3.49,29.6h7l-.45,8.27H642l-3.88,3.05,1.45,2.9,5.23,3.77h-6.68l-2,9L632,510.59l-8.71,34.82-3.2,2.9-.86,12.77-4.65,10.44,3.49,2-.58,2.9L609.06,580v3.18s3.49,8.42,4.35,8.42h15.38l8,7.88h-.09l-3.28,1h0l-1,.32Z" fill="#24195d" stroke="#fff" stroke-width="1"/>
            </g>
            <g id="Gruppe_2567" data-name="Gruppe 2567">
              <path id="Pfad_2592" data-name="Pfad 2592" d="M770.42,599.46,762,612.39l.54,4.41-4.59,2-.6.14-45.6,10.21L696,576.38l-47.3,19.35-11.85,3.7-8-7.88H613.42c-.86,0-4.35-8.42-4.35-8.42V580l8.42-3.49.58-2.9-3.49-2,4.65-10.44.87-12.77,3.19-2.9L632,510.59l4.13-1.75,2-9h6.68l-5.23-3.77-1.45-2.9,3.89-3.05H639.4l.44-8.27h-7l-3.49-29.6L625.47,454l-6.09-2.62.43-13.93,1.74-2.39v-3.7L642,435.5l.74-2.17L639,416.78,661.6,429l5.65,4.78,4.13-2.39,12.38,10.23,3.3-3.27L702.52,456l-1.09,8.92,11.09,16.77-2.39,7L708,494.05H683.8c-.66,0,8.26,18.07,8.26,18.07l5.44,5.22L755,561.52l11.83,2.25-2.91,7.76,4.8,7.84,1.23,5.15-1.45,4.27,3.41,2.18L770,594.6Z" fill="#24195d" stroke="#fff" stroke-width="1"/>
            </g>
            <g id="Gruppe_2568" data-name="Gruppe 2568">
              <path id="Pfad_2593" data-name="Pfad 2593" d="M1076.81,539.85l-2,5.51-8.14-1.11.87-11.21h-6.37l-7,7.91-1.76,9.24-12.73-2.82-10.23-6.32,1.95,5,16.39,6.77.22,7.26,3.52,1.1-.87,3.73-5.73-.43-7,13-.87,4.4-.89,5.73,3.74,9.23,5.73,3.74,1.09,6.17-4.4,2.84-.87,7.94-5.5,4-8.15,3.3-4.41-2.76-6.15.77-9.24,9.26-2.64-.22-2.19,3.94-4.18.67-5.52,6.38-10.33,9.9-2.42-.66,1.85,4.6,2.32-.2,5.07,4.4,3.08-1.76,2.86,2-3.08,7.26,5.94.67-12.1,21.55-9.42-5.85-6.86,2.34-10.79,5.72-.87,3.74-3.53,1.76-2.86,11.89-3.3,1.3-1.1,7-6.38,4.18-.43,5.06-7.71,15,1.32,6.38-1.32,3.08-11.21-4-6.83-10.77.88-30.8,5.5-7.93,6.38-7.26-1.32-6.82-5.06-.66.66-14.08-12.1,1.54-6.37-9.89L875,675.83l.73-15.35-9.59-10.58-3.91-10.45-5-4.65h0l-.07-.31-34.31,12.77-39.37-5-.9-7.07,4.84-13.42-8.83,4.87-16.06-9.78L762,612.4l8.38-12.92-.43-4.87,1.88-3.62-3.41-2.18,1.45-4.28-1.23-5.15-4.8-7.84,2.91-7.76L755,561.53l-57.5-44.18-5.44-5.22s-8.92-18.07-8.26-18.07H708l2.18-5.44,2.39-7-11.09-16.77,1.09-8.92L687.11,438.3l-3.3,3.27-12.38-10.23-4.13,2.4L661.6,429s7.1-10.81,7.53-10.67,3.35.58,3.35.58l4.63-5.51s10.89,1.45,11.18,2a23.316,23.316,0,0,0,3.34,2.61l2.32,1v2.31L707.59,427l4.21,5.52v2.61l4.06-1.59,1.89,1.59v2.47l5.94-3.91,4.66.4h0l4.4,9.46,9.47,1.41,2.07,4.69,5.77,10.87,9.47-1.08,7.61,3.58,1.74-2.17,10.45,14.47,11.53-13.27,8.49,1.42,4-.55,5,.33,14.36.87,12.73-7,2-6.2,5.88-2.06,3.92,1.4,4.78-1.95,19.7,16.32,8.81.22v3.92l4,1.05,2.28,1.93,1.63-1.25,5.43-.08,1.23,4.64,4.79,2.48-1.33-12.77,5.94,1.32.67-3.51,7-1.1L922.29,454l10.13,1.53,15.39,9.92,7-2,11.44,9.88,11,9.36,12.94,2.3,2.22,4.19,5,13.82,7,1.09,1.09-9.8-3.92-2.83-2.64-14.28,10.34,8.36,7.47,3.09,8.55,11.76,10.67,11.75,6.31.65,21.13,5.54,7.82,3.6-2.76,7h5l-3.08,10.56Z" fill="#dbdade" stroke="#fff" stroke-width="1"/>
            </g>
          </g>
        </g>
        <g id="Gruppe_2570" data-name="Gruppe 2570">
          <path id="Pfad_2595" data-name="Pfad 2595" d="M943.69,356.8l-30.8,24-6.16,20.69-7.92,20,7.92,4-20.46,25.08,2,11.44-2.34,5-1.35,2.91-4-1.07v-3.92l-8.81-.22L852,448.34l-4.79,2-3.92-1.41L837.45,451l-2,6.19-12.73,7-14.37-.87-.1-5.34-4.35-5.21-6.53-35.92L792.83,408l-3.27,5.34-5.28-15.08h4.85l-1.74-3.21v-4.19l-.87-4.8H790l-.87-3.91-7-4.06h-17V339.7l-4.78-8h7.4l14.37-7.4-10.3-32.64,19-22.2,4.78-3.06,3.49-2.6,30.6-13.35,4.82,2.74,4.18,2.65.65,4.18,7.26,2.64L848.42,284l3.3,9.7-.3,7.41h0l-.15,3.57.52.15,42,12.17,16.49,1.32,7.27,2.42.22,3.75-7.14,4.6-4.53,1.78-5.72-.67.89,15.2,40.47,1.09Z" fill="#dbdade" stroke="#fff" stroke-width="1"/>
        </g>
        <g id="Сгруппировать_592" data-name="Сгруппировать 592" clip-path="url(#clip-path)">
          <g id="Gruppe_2573" data-name="Gruppe 2573">
            <g id="Gruppe_2571" data-name="Gruppe 2571">
              <path id="Pfad_2596" data-name="Pfad 2596" d="M808.29,457.91l.1,5.35-5-.33-4,.54-8.48-1.42-11.54,13.28-10.45-14.47L767.15,463l-7.61-3.58-9.47,1.08-5.77-10.88L742.23,445l-9.47-1.41-4.4-9.46h0l-.7-1.53-1.95-1.2-4.36-4.24-2-1.09L708.13,411.7l-8-2.93-.66-2.83,6.21-10.23.21-4,3-5-.76-4.45V376.6h2L704.69,364l-7.61-7-5.33-1.41s-4.9-2.3-5.12-2.62-2.61-5.33-2.61-5.33l5.44-2.28,3.48-7.3,6.64-2.17-.22-2.4-2.5-3.26v-2.52l4.36-4.88-.55-3.7-2-13.28,2.83.88h13.06l-1.41-4.25h4.46l4.9-5.77,10.23,3.7,2.18-8.71-6.53-11-6.86-3.15.76-6h-2.83v-4.46l4.79-5.33-6-4.57-.76-2.72-3.7-1v-20l1.63-2.07,1.74-1.2h2.72l2.61-10,22.69-15.68.9,2.18h0l3.3,8.13,5.5-.45,20.24.45,15,5.06,19.8,10.12,12.32,16.06,5.5,3.13,2,1.17-30.6,13.35-3.49,2.6-4.79,3.07-19,22.2,10.3,32.64-14.37,7.4h-7.4l4.79,8v38.43h17l7,4.06.87,3.91h-3.48l.87,4.8v4.19l1.74,3.21h-4.86l5.28,15.08,3.26-5.34,4.57,8.75,6.54,35.91Z" fill="#dbdade" stroke="#fff" stroke-width="1"/>
            </g>
            <g id="Gruppe_2572" data-name="Gruppe 2572">
              <path id="Pfad_2597" data-name="Pfad 2597" d="M769.87,105.32l-8.58,31.24-13.86,7.93V152l-2.26,3.11-1.43,2-1.59,2.18L734,187.17l4.4.65,6.81,16.74-22.69,15.69-2.61,10H717.2l-1.74,1.19-1.63,2.07v20l3.7,1,.76,2.71,6,4.57-4.79,5.33v4.47h2.83l-.76,6,6.86,3.15,6.53,11-2.18,8.71-10.23-3.7-4.9,5.76h-4.46l1.41,4.26H701.53l-2.83-.88,2,13.28.55,3.7-4.36,4.89v2.51l2.5,3.26.22,2.4-6.64,2.17-3.48,7.3L684,347.69s2.39,5,2.61,5.33a56.641,56.641,0,0,0,5.12,2.61l5.33,1.41,7.61,7-3.7.76s-8.92.65-10,.89-9.15-3.07-9.15-3.07l2.19-3.7-6.31-8.7-5.45,1.3-7.61-9.36L660.07,348l-2.17-3.48-17,3.48-3.64,5.83-12-6.33-7.25-2.62.87-2.61,3.19-6.09-1.74-2.62-3.19-11.32h-2.62l-6.09-21.47h-1.74l1.74-2.32v-7.54l-2.61-14.8-9.29-9.58-.58-1.46-.58-1.44V261l-5.21-5.81H584.4l-41.79-38.3,17.71-2.9,19.45-33.08v-9.87l-12.24-29,1.13-.7,2.09-1.29,9.24-3.52-.87-5.73,7.69-10.78,9.24-.87-.21-8.15,5.94-12.77,4.83-2.62,13.65,11.2,4.18-1.53,4.4,3.74-.23,2.42,11.88,10.57,4-2.87L653,119V105.1l8.58-2.86.23-8.14,8.58-2.64,7,3.52,9.68,1.31,8.58-7,3.51-.45,3.75-4,2.63-.22.23-2.19-2-3.31-14.09-2L679.23,67.7l-1.43-3.58,3.07-5.21,6.49-6.84,7.48,3.75,12.09-16.29L709.37,42,712,38l2.2,1.53-7.27,17.61,16.29-9-1.76,25.53,5.5,7.91,26,16.38,12,.57.43,4Z" fill="#24195d" stroke="#fff" stroke-width="1"/>
            </g>
          </g>
        </g>
        <g id="Gruppe_2574" data-name="Gruppe 2574">
          <path id="Pfad_2599" data-name="Pfad 2599" d="M596,265.08l-5.58.44-2.62,1.74h-4.35l-2.4,12.41h-7.4l-5.43,5.22H566v-7l-6,1.79v-2.4l-15-2.07-15-4.69-5.64,6.76-5.45-2.07H516V279l-21.33,5.87-12.19,20.46-39-2h-18.1l-35.7-26.71-1.16-9.43-1.74-3.92L384.46,253l-8.85-9.58-.3-8.26-2-10.45-.56-1.72,1.25-3.38,2.5-6.74-21.13-23.33-.87-8.13,7.69-5.72L377.36,146l.44-9.7h8.35l2,2.86,15.4-1.31L435,140.3l.89-13.2-3.08-9.46-.22-5.73,10.34,1.76,17.61-4.4V86.83L457.45,86l3.08-17,30.34,2,3.76,6.38-11.88,8.36,11.66,19.59-4.85,15.84,5.07,11.45-8.8,6.37,10.55-1.54,7.7,3.74,8.36.67,15.62,7.48,29.48-1.1,9.12-5.63.85-.52,12.24,29v9.87L560.32,214l-17.71,2.9,41.79,38.3h5.81l5.22,5.81v2.61Z" fill="#24195d" stroke="#fff" stroke-width="1"/>
        </g>
        <g id="Gruppe_2575" data-name="Gruppe 2575">
          <path id="Pfad_2600" data-name="Pfad 2600" d="M459.18,335.89l-2.61,7.84h-3.63L449,345.9H436.55l-7,4.21h-10.7l-6.1-3.33,1,4.06.72,6.09-9.43-4.79-12.48.73-5.07.43-6.24-1.16-2.19,6.54v7l-1.3,12.6-4.36,3v7.4l-5.21-3-3,9.42v6.25L354.27,408H344.7l-3.92,4.62-6.52,16.54,6.52,13.49-3.91,14.37V469.2l-3.05,20h-2.17l-7.4,6.52L279,528l-25.88,5.86-.67-2.37-5.23-9.14-14.83-11.1,4.4-6.6-.88-29,9-12.76.21-8.36,11-1.76,54.13-64-27.73-16.94-5.26-5.28-22,5.5-10.35-.89,1.32-5.29,1.55-24.63,5.05-14.52,2.43-14.31,7-23.76,7.93,8.59h10.13l2.85-3.74-1.53-14.52,2.41-1.33,1.32-7,8.15-22.22-8.15-16.29-12.1,6.59-9.24.24-2.42-5.73-2.86-1.1.67-9.45,8.57.21,5.94-4.18,9.9-3.07,9.24-12.1,14.52-3.75,24,10.34,9.47,6.62,10.34,3.51,7.48,4.83,8,1.34,5.28-3.35h.55l.56,1.72,2,10.45.3,8.26,8.86,9.58,2.32,10.3,1.74,3.92,1.15,9.43,35.7,26.7h18.13l3.78,14.8-1.45,7,3.91,2.6,1.46,4.5Z" fill="#24195d" stroke="#fff" stroke-width="1"/>
        </g>
        <g id="Gruppe_2576" data-name="Gruppe 2576">
          <path id="Pfad_2601" data-name="Pfad 2601" d="M574.1,558.25l-5,2.83-4.78,12.84-26.55,15-1.1,5.26-2.6,3.88-1.8.52-37.63,24.64-18.26-30.15-1.76-6.16-28.38,23.33-7,1-.48.07-1.82-.56L424.67,607l-10.56,2.87-4.41-34.11-18,1.76-7.48-2.2L359.1,587.61l-11.45-.67-49.72,25.3.45,8.36-3.3,1.54-.89,3.31L312,622.37l2.64,6.6-18.92,4L277,628.08l-1.75-2.63L261.4,638.21l4.18,6.59L259,647l-2.41-9.69,11.87-9.24h-2.2l-1.1-2.42,4-1.54-5.1-3.11-11.23,6.16L244,616.64l-9.68-9L233,600.8l-3.31-8.8-.66,8.36-7.92-4.4-.45-6L217,593.09l2.43,2.87-2.2,4.61-8.58-6.16.29-16.35,11.37-13.35,7.25,3.51.23-2.62,8.8-8.15,1.1-7.48,13-12.32,2.66-3.13-.19-.67L279,528l45.27-32.21,7.4-6.53h2.17l3-20v-.44h11.32l3.27,6.1,2.18-.87,3.92-4.35,10.23,2.17,7.17-1.3,10.67,2.4,6.31-4.14,33.95,11.32,4.35-2.18,3.27-2.39,1.53,1.3L467,471l10.68,2.19,12.18,3,2.62-.43,5,1.52h10.23l9.8,4.14,2.61-1.52h2.61l6.31-2.83,2.17,1.74,2.4,2.61,9,12.62,2.33,5h6.31v2.39h2.61Z" fill="#24195d" stroke="#fff" stroke-width="1"/>
        </g>
        <g id="Сгруппировать_593" data-name="Сгруппировать 593" clip-path="url(#clip-path)">
          <g id="Gruppe_2580" data-name="Gruppe 2580">
            <g id="Gruppe_2577" data-name="Gruppe 2577">
              <path id="Pfad_2602" data-name="Pfad 2602" d="M529,408h1.75v45.4h-5.23v1.73h-18.6l.8,22.13H497.49l-5-1.52-2.61.43-12.19-3.05L467,471l-32,5.88-1.54-1.3-3.26,2.38-4.35,2.18L391.9,468.82l-6.31,4.14L375,470.53l-7.18,1.31-10.23-2.17L353.63,474l-2.18.86-3.26-6.09H336.86V457.05l3.92-14.37-6.52-13.49,6.52-16.54,3.93-4.62h9.57l10.88-6.7v-6.25l3-9.42,5.22,3v-7.4l4.35-3.05,1.31-12.6v-7l2.18-6.54,6.24,1.16,5.07-.43,12.48-.73,9.43,4.79-.72-6.09-1-4.06,6.1,3.33h10.74l7-4.2H449l3.92-2.18h3.63l2.61-7.84-8-3.62-1.45-4.5-3.91-2.6,1.44-7-3.77-14.8,39,2L504,306.88l9.36,11.1,3.7,1.95,1.52,6.31-21.55,5.66.43,7.8h6.75l-.66,2.88-4.78,1.52,5.44,19.58,2-1.3.66-6.74,4.57-1.09,5.66,2.83,3.47,5a7.069,7.069,0,0,0-1.3,3.28,26.334,26.334,0,0,0,.66,4.33l3.91,2.18h2.61l1.31,6-5.23,2.09,1.53,2,1.09,1.52-4.79,3.05,5.22,2.83.44,4.35,1.74,1.16h3.69l2.19,2.32,1.68.32Z" fill="#24195d" stroke="#fff" stroke-width="1"/>
            </g>
            <g id="Gruppe_2578" data-name="Gruppe 2578">
              <path id="Pfad_2603" data-name="Pfad 2603" d="M650.27,395.08l-22.64,2.33-17.84-9.57-3,3.05L585,393.06l-3.05-3.92L579.32,400h-3.91l-3.92,10.44a53.008,53.008,0,0,0-5.23-1.52c-.65,0-28-10.66-28-10.66l-3-.56-1.68-.32-2.18-2.32h-3.7l-1.7-1.13-.44-4.35-5.22-2.83,4.79-3L524,382.18l-1.53-2,5.23-2.1-1.3-5.95h-2.62L519.91,370a26.5,26.5,0,0,1-.66-4.33,7.059,7.059,0,0,1,1.31-3.29l-3.48-5-5.66-2.83-4.57,1.09-.66,6.74-1.95,1.31L498.8,344.1l4.77-1.53.66-2.87h-6.75l-.43-7.8,21.55-5.66-1.52-6.31-3.7-2L504,306.87l-21.55-1.52,12.19-20.46L516,279v-3.8h2.83l5.45,2.07,5.64-6.76,15,4.69,15,2.07v2.4l6.1-1.75v7h2.18l5.43-5.21h7.4l2.4-12.41h4.35l2.62-1.74,5.58-.45.58,1.46,9.28,9.58,2.62,14.8v7.55l-1.74,2.31h1.74l6.08,21.47h2.62l3.19,11.32,1.74,2.61-3.19,6.1-.87,2.61,7.25,2.61,12,6.33,7.2,3.82v3.19l3.77,1.74v4.36h-4l-.3,3.19.57,2.61-3.77,11Z" fill="#24195d" stroke="#fff" stroke-width="1"/>
            </g>
            <g id="Gruppe_2579" data-name="Gruppe 2579">
              <path id="Pfad_2604" data-name="Pfad 2604" d="M728.35,434.09l-4.66-.4-5.94,3.91v-2.47l-1.89-1.59-4.06,1.59v-2.61L707.59,427,694,421.35V419l-2.32-1a21.379,21.379,0,0,1-3.34-2.62c-.34-.62-11.18-2-11.18-2l-4.63,5.52s-2.9-.44-3.35-.58S661.6,429,661.6,429L639,416.77l3.75,16.55-.74,2.17-20.42-4.13v3.7l-1.74,2.39L612,439.63l-1.31,2.17h-7.84l.44-5.65-10,2.6h-17l-.44-5.64,3.48-2.19-1.74-3,2.62-3.48-10-3.92-.87-4.35,2.18-5.66L575.41,400h3.91l2.61-10.89,3.05,3.92,21.77-2.17,3-3,17.85,9.57,22.64-2.33-9.58-11.31,3.77-11-.58-2.62.3-3.19h4v-4.35l-3.77-1.74v-3.2l-7.2-3.82,3.64-5.83,17-3.47,2.17,3.47,4.58-5.87,7.61,9.36,5.45-1.3,6.31,8.7-2.18,3.7s8,3.3,9.14,3.06,10-.88,10-.88l3.7-.76,5.45,12.51h-2v5.66l.76,4.46-3,5-.22,4-6.2,10.23.66,2.83,8,2.93L719.38,426l2,1.09,4.35,4.24,1.95,1.21Z" fill="#24195d" stroke="#fff" stroke-width="1"/>
            </g>
          </g>
        </g>
      </g>
    </g>
    <g id="map_pin_type_2" data-name="map pin  type 2" transform="translate(2168 5901)">
      <g id="area_label_box" data-name="area label box" transform="translate(-117 -9)">
        <rect id="background" width="15" height="8" transform="translate(128 28)" fill="#fff" opacity="0"/>
        <text id="label" transform="translate(125 12)" fill="#1f1f1f" font-size="3" font-family="ArialMT, Arial" opacity="0"><tspan x="0" y="0">Einrichtungen in</tspan><tspan font-family="Arial-BoldMT, Arial" font-weight="700"><tspan x="0" y="5">Brandenburg</tspan></tspan></text>
      </g>
      <g id="pin_dot" data-name="pin dot" transform="translate(0 -20)">
        <circle id="circle" cx="10.5" cy="10.5" r="10.5" transform="translate(9 29)" fill="#00bc82"/>
        <g id="outline" transform="translate(0 20)" fill="none" stroke="#54b986" stroke-width="1">
          <circle cx="19.5" cy="19.5" r="19.5" stroke="none"/>
          <circle cx="19.5" cy="19.5" r="19" fill="none"/>
        </g>
      </g>
    </g>
    <g id="map_pin_type_2-2" data-name="map pin  type 2" transform="translate(2219 6010)">
      <g id="area_label_box-2" data-name="area label box" transform="translate(-117 -9)">
        <rect id="background-2" data-name="background" width="15" height="8" transform="translate(128 28)" fill="#fff" opacity="0"/>
        <text id="label-2" data-name="label" transform="translate(125 12)" fill="#1f1f1f" font-size="3" font-family="ArialMT, Arial" opacity="0"><tspan x="0" y="0">Einrichtungen in</tspan><tspan font-family="Arial-BoldMT, Arial" font-weight="700"><tspan x="0" y="5">Brandenburg</tspan></tspan></text>
      </g>
      <g id="pin_dot-2" data-name="pin dot" transform="translate(0 -20)">
        <circle id="circle-2" data-name="circle" cx="10.5" cy="10.5" r="10.5" transform="translate(9 29)" fill="#00bc82"/>
        <g id="outline-2" data-name="outline" transform="translate(0 20)" fill="none" stroke="#54b986" stroke-width="1">
          <circle cx="19.5" cy="19.5" r="19.5" stroke="none"/>
          <circle cx="19.5" cy="19.5" r="19" fill="none"/>
        </g>
      </g>
    </g>
    <g id="map_pin_type_2-3" data-name="map pin  type 2" transform="translate(2306 5971)">
      <g id="area_label_box-3" data-name="area label box" transform="translate(-117 -9)">
        <rect id="background-3" data-name="background" width="15" height="8" transform="translate(128 28)" fill="#fff" opacity="0"/>
        <text id="label-3" data-name="label" transform="translate(125 12)" fill="#1f1f1f" font-size="3" font-family="ArialMT, Arial" opacity="0"><tspan x="0" y="0">Einrichtungen in</tspan><tspan font-family="Arial-BoldMT, Arial" font-weight="700"><tspan x="0" y="5">Brandenburg</tspan></tspan></text>
      </g>
      <g id="pin_dot-3" data-name="pin dot" transform="translate(0 -20)">
        <circle id="circle-3" data-name="circle" cx="10.5" cy="10.5" r="10.5" transform="translate(9 29)" fill="#00bc82"/>
        <g id="outline-3" data-name="outline" transform="translate(0 20)" fill="none" stroke="#54b986" stroke-width="1">
          <circle cx="19.5" cy="19.5" r="19.5" stroke="none"/>
          <circle cx="19.5" cy="19.5" r="19" fill="none"/>
        </g>
      </g>
    </g>
    <g id="map_pin_type_2-4" data-name="map pin  type 2" transform="translate(2376 5683)">
      <g id="area_label_box-4" data-name="area label box" transform="translate(-117 -9)">
        <rect id="background-4" data-name="background" width="15" height="8" transform="translate(128 28)" fill="#fff" opacity="0"/>
        <text id="label-4" data-name="label" transform="translate(125 12)" fill="#1f1f1f" font-size="3" font-family="ArialMT, Arial" opacity="0"><tspan x="0" y="0">Einrichtungen in</tspan><tspan font-family="Arial-BoldMT, Arial" font-weight="700"><tspan x="0" y="5">Brandenburg</tspan></tspan></text>
      </g>
      <g id="pin_dot-4" data-name="pin dot" transform="translate(0 -20)">
        <circle id="circle-4" data-name="circle" cx="10.5" cy="10.5" r="10.5" transform="translate(9 29)" fill="#00bc82"/>
        <g id="outline-4" data-name="outline" transform="translate(0 20)" fill="none" stroke="#54b986" stroke-width="1">
          <circle cx="19.5" cy="19.5" r="19.5" stroke="none"/>
          <circle cx="19.5" cy="19.5" r="19" fill="none"/>
        </g>
      </g>
    </g>
    <g id="map_pin_type_2-5" data-name="map pin  type 2" transform="translate(2388 5862)">
      <g id="area_label_box-5" data-name="area label box" transform="translate(-117 -9)">
        <rect id="background-5" data-name="background" width="15" height="8" transform="translate(128 28)" fill="#fff" opacity="0"/>
        <text id="label-5" data-name="label" transform="translate(125 12)" fill="#1f1f1f" font-size="3" font-family="ArialMT, Arial" opacity="0"><tspan x="0" y="0">Einrichtungen in</tspan><tspan font-family="Arial-BoldMT, Arial" font-weight="700"><tspan x="0" y="5">Brandenburg</tspan></tspan></text>
      </g>
      <g id="pin_dot-5" data-name="pin dot" transform="translate(0 -20)">
        <circle id="circle-5" data-name="circle" cx="10.5" cy="10.5" r="10.5" transform="translate(9 29)" fill="#00bc82"/>
        <g id="outline-5" data-name="outline" transform="translate(0 20)" fill="none" stroke="#54b986" stroke-width="1">
          <circle cx="19.5" cy="19.5" r="19.5" stroke="none"/>
          <circle cx="19.5" cy="19.5" r="19" fill="none"/>
        </g>
      </g>
    </g>
    <g id="map_pin_type_2-6" data-name="map pin  type 2" transform="translate(2188 5683)">
      <g id="area_label_box-6" data-name="area label box" transform="translate(-117 -9)">
        <rect id="background-6" data-name="background" width="15" height="8" transform="translate(128 28)" fill="#fff" opacity="0"/>
        <text id="label-6" data-name="label" transform="translate(125 12)" fill="#1f1f1f" font-size="3" font-family="ArialMT, Arial" opacity="0"><tspan x="0" y="0">Einrichtungen in</tspan><tspan font-family="Arial-BoldMT, Arial" font-weight="700"><tspan x="0" y="5">Brandenburg</tspan></tspan></text>
      </g>
      <g id="pin_dot-6" data-name="pin dot" transform="translate(0 -20)">
        <circle id="circle-6" data-name="circle" cx="10.5" cy="10.5" r="10.5" transform="translate(9 29)" fill="#00bc82"/>
        <g id="outline-6" data-name="outline" transform="translate(0 20)" fill="none" stroke="#54b986" stroke-width="1">
          <circle cx="19.5" cy="19.5" r="19.5" stroke="none"/>
          <circle cx="19.5" cy="19.5" r="19" fill="none"/>
        </g>
      </g>
    </g>
    <g id="Группа_прокрутки_9" data-name="Группа прокрутки 9" transform="translate(2063 5509)" clip-path="url(#clip-path-4)" style="isolation: isolate">
      <g id="map_pin_type_2-7" data-name="map pin  type 2" transform="translate(223 307)">
        <g id="area_label_box-7" data-name="area label box" transform="translate(-117 -9)">
          <rect id="background-7" data-name="background" width="15" height="8" transform="translate(128 28)" fill="#fff" opacity="0"/>
          <text id="label-7" data-name="label" transform="translate(125 12)" fill="#1f1f1f" font-size="3" font-family="ArialMT, Arial" opacity="0"><tspan x="0" y="0">Einrichtungen in</tspan><tspan font-family="Arial-BoldMT, Arial" font-weight="700"><tspan x="0" y="5">Brandenburg</tspan></tspan></text>
        </g>
        <g id="pin_dot-7" data-name="pin dot" transform="translate(0 -20)">
          <circle id="circle-7" data-name="circle" cx="10.5" cy="10.5" r="10.5" transform="translate(9 29)" fill="#00bc82"/>
          <g id="outline-7" data-name="outline" transform="translate(0 20)" fill="none" stroke="#54b986" stroke-width="1">
            <circle cx="19.5" cy="19.5" r="19.5" stroke="none"/>
            <circle cx="19.5" cy="19.5" r="19" fill="none"/>
          </g>
        </g>
      </g>
    </g>
    <g id="map_pin_type_2-8" data-name="map pin  type 2" transform="translate(2388 6018)">
      <g id="area_label_box-8" data-name="area label box" transform="translate(-117 -9)">
        <rect id="background-8" data-name="background" width="15" height="8" transform="translate(128 28)" fill="#fff" opacity="0"/>
        <text id="label-8" data-name="label" transform="translate(125 12)" fill="#1f1f1f" font-size="3" font-family="ArialMT, Arial" opacity="0"><tspan x="0" y="0">Einrichtungen in</tspan><tspan font-family="Arial-BoldMT, Arial" font-weight="700"><tspan x="0" y="5">Brandenburg</tspan></tspan></text>
      </g>
      <g id="pin_dot-8" data-name="pin dot" transform="translate(0 -20)">
        <circle id="circle-8" data-name="circle" cx="10.5" cy="10.5" r="10.5" transform="translate(9 29)" fill="#00bc82"/>
        <g id="outline-8" data-name="outline" transform="translate(0 20)" fill="none" stroke="#54b986" stroke-width="1">
          <circle cx="19.5" cy="19.5" r="19.5" stroke="none"/>
          <circle cx="19.5" cy="19.5" r="19" fill="none"/>
        </g>
      </g>
    </g>
    <g id="Группа_прокрутки_10" data-name="Группа прокрутки 10" transform="translate(1846 5479)" clip-path="url(#clip-path-5)" style="isolation: isolate">
      <g id="map_pin_type_2-9" data-name="map pin  type 2" transform="translate(222 308)">
        <g id="area_label_box-9" data-name="area label box" transform="translate(-117 -9)">
          <rect id="background-9" data-name="background" width="15" height="8" transform="translate(128 28)" fill="#fff" opacity="0"/>
          <text id="label-9" data-name="label" transform="translate(125 12)" fill="#1f1f1f" font-size="3" font-family="ArialMT, Arial" opacity="0"><tspan x="0" y="0">Einrichtungen in</tspan><tspan font-family="Arial-BoldMT, Arial" font-weight="700"><tspan x="0" y="5">Brandenburg</tspan></tspan></text>
        </g>
        <g id="pin_dot-9" data-name="pin dot" transform="translate(0 -20)">
          <circle id="circle-9" data-name="circle" cx="10.5" cy="10.5" r="10.5" transform="translate(9 29)" fill="#00bc82"/>
          <g id="outline-9" data-name="outline" transform="translate(0 20)" fill="none" stroke="#54b986" stroke-width="1">
            <circle cx="19.5" cy="19.5" r="19.5" stroke="none"/>
            <circle cx="19.5" cy="19.5" r="19" fill="none"/>
          </g>
        </g>
      </g>
    </g>
  </g>
</svg>
