<svg xmlns="http://www.w3.org/2000/svg" width="117" height="117" viewBox="0 0 117 117">
  <g id="Group_41" data-name="Group 41" transform="translate(-50.155 -49.993)">
    <circle id="Ellipse_35" data-name="Ellipse 35" cx="58.5" cy="58.5" r="58.5" transform="translate(50.155 49.993)" fill="#7b519d"/>
    <g id="viber_1_" data-name="viber (1)" transform="translate(79.005 79.005)">
      <path id="Path_12736" data-name="Path 12736" d="M59.469,37.084c1.91-16.078-.918-26.229-6.018-30.82l0,0c-8.233-7.84-36.035-9-45.884.352-4.423,4.575-5.981,11.29-6.152,19.6S1.044,50.108,15.559,54.334h.013l-.013,6.453s-.1,2.614,1.571,3.14c1.91.619,2.774-.595,8.715-7.691a54.364,54.364,0,0,0,18.431-1.4c2.006-.672,13.357-2.174,15.193-17.751ZM26.825,51.7s-6.288,7.84-8.243,9.876c-.64.662-1.342.6-1.331-.712,0-.862.048-10.713.048-10.713C4.992,46.619,5.718,33.355,5.851,26.416S7.255,13.79,11,9.962c8.641-8.1,33.015-6.29,39.226-.454,7.592,6.731,4.89,25.746,4.906,26.394-1.561,13-10.759,13.827-12.45,14.39a50.155,50.155,0,0,1-15.857,1.4Z" transform="translate(-1.38 0.013)" fill="#fff"/>
      <path id="Path_12737" data-name="Path 12737" d="M12.7,4.3a.808.808,0,0,0,0,1.614c7.968.061,14.531,5.616,14.6,15.8a.781.781,0,1,0,1.561-.013h0C28.779,10.723,21.614,4.358,12.7,4.3Z" transform="translate(16.22 7.201)" fill="#fff"/>
      <path id="Path_12738" data-name="Path 12738" d="M22.328,17.4a.781.781,0,1,0,1.561.037c.131-6.053-3.6-11.039-10.615-11.564a.81.81,0,0,0-.109,1.614c6.082.462,9.286,4.612,9.164,9.913Z" transform="translate(17.077 9.826)" fill="#fff"/>
      <path id="Path_12739" data-name="Path 12739" d="M31.017,25.755a2.465,2.465,0,0,0-3.215.462l-1.16,1.5a2.075,2.075,0,0,1-1.691.662C16.91,26.254,14.76,17.84,14.76,17.84a2.243,2.243,0,0,1,.638-1.75l1.451-1.2a2.673,2.673,0,0,0,.446-3.327,34.668,34.668,0,0,0-3.975-5.741,2.147,2.147,0,0,0-2.886-.488h-.024C8.1,6.684,5.575,9.21,6.383,11.811,7.762,14.553,10.3,23.3,18.375,29.9c3.8,3.124,9.8,6.325,12.354,7.064l.024.037c2.513.838,4.957-1.787,6.261-4.164v-.019a2.287,2.287,0,0,0-.459-2.95,31.45,31.45,0,0,0-5.538-4.114Z" transform="translate(6.708 8.357)" fill="#fff"/>
      <path id="Path_12740" data-name="Path 12740" d="M13.627,9.114c2.564.149,3.807,1.489,3.94,4.239a.782.782,0,1,0,1.561-.075c-.171-3.591-2.043-5.591-5.415-5.778a.809.809,0,0,0-.085,1.614Z" transform="translate(17.823 12.54)" fill="#fff"/>
    </g>
  </g>
</svg>
