<svg version="1.1" xmlns="http://www.w3.org/2000/svg" xmlns:xlink="http://www.w3.org/1999/xlink">
    <defs>

        <symbol id="icon-search" viewBox="0 0 20 20" xmlns="http://www.w3.org/2000/svg">
            <path d="M14.6776 12.93C15.888 11.2784 16.4301 9.23062 16.1955 7.19644C15.9609 5.16226 14.9669 3.29168 13.4123 1.95892C11.8578 0.626155 9.85733 -0.070492 7.81119 0.00834944C5.76505 0.0871909 3.82413 0.935706 2.37673 2.38414C0.929335 3.83257 0.0822089 5.7741 0.0048316 7.8203C-0.0725457 9.86649 0.625532 11.8665 1.95941 13.4201C3.29328 14.9737 5.16458 15.9663 7.19892 16.1995C9.23326 16.4326 11.2806 15.8891 12.9314 14.6775H12.9301C12.9676 14.7275 13.0076 14.775 13.0526 14.8213L17.8651 19.6338C18.0995 19.8683 18.4175 20.0001 18.7491 20.0003C19.0807 20.0004 19.3987 19.8688 19.6333 19.6344C19.8678 19.4 19.9997 19.082 19.9998 18.7504C19.9999 18.4189 19.8683 18.1008 19.6339 17.8663L14.8214 13.0538C14.7767 13.0085 14.7287 12.9667 14.6776 12.9288V12.93ZM15.0001 8.125C15.0001 9.02784 14.8223 9.92184 14.4768 10.756C14.1313 11.5901 13.6249 12.348 12.9865 12.9864C12.3481 13.6248 11.5902 14.1312 10.7561 14.4767C9.92198 14.8222 9.02798 15 8.12515 15C7.22231 15 6.32831 14.8222 5.4942 14.4767C4.66008 14.1312 3.90219 13.6248 3.26379 12.9864C2.62538 12.348 2.11898 11.5901 1.77347 10.756C1.42797 9.92184 1.25015 9.02784 1.25015 8.125C1.25015 6.30164 1.97447 4.55296 3.26379 3.26364C4.5531 1.97433 6.30178 1.25 8.12515 1.25C9.94851 1.25 11.6972 1.97433 12.9865 3.26364C14.2758 4.55296 15.0001 6.30164 15.0001 8.125Z" />
        </symbol>

        <symbol id="icon-clip" viewBox="0 0 22 22" xmlns="http://www.w3.org/2000/svg">
            <path d="M16.7428 4.2238C14.719 2.19998 11.4233 2.19998 9.40158 4.2238L3.79416 9.82693C3.75764 9.86345 3.7383 9.91287 3.7383 9.96443C3.7383 10.016 3.75764 10.0654 3.79416 10.1019L4.58693 10.8947C4.62317 10.9308 4.67222 10.951 4.72336 10.951C4.7745 10.951 4.82355 10.9308 4.85979 10.8947L10.4672 5.29158C11.1633 4.59548 12.0893 4.21306 13.0733 4.21306C14.0572 4.21306 14.9832 4.59548 15.6772 5.29158C16.3733 5.98767 16.7557 6.91365 16.7557 7.89548C16.7557 8.87947 16.3733 9.8033 15.6772 10.4994L9.96232 16.2121L9.03635 17.1381C8.17053 18.0039 6.7633 18.0039 5.89748 17.1381C5.47854 16.7191 5.24865 16.1627 5.24865 15.5697C5.24865 14.9767 5.47854 14.4203 5.89748 14.0013L11.5672 8.33376C11.7112 8.19197 11.9002 8.11248 12.1022 8.11248H12.1043C12.3063 8.11248 12.4932 8.19197 12.635 8.33376C12.7789 8.47771 12.8563 8.66677 12.8563 8.86872C12.8563 9.06853 12.7768 9.25759 12.635 9.39939L8.0008 14.0293C7.96428 14.0658 7.94494 14.1152 7.94494 14.1668C7.94494 14.2183 7.96428 14.2677 8.0008 14.3043L8.79357 15.097C8.82981 15.1331 8.87887 15.1534 8.93 15.1534C8.98114 15.1534 9.03019 15.1331 9.06643 15.097L13.6985 10.465C14.126 10.0375 14.3602 9.47029 14.3602 8.86658C14.3602 8.26287 14.1238 7.69353 13.6985 7.26814C12.8154 6.38513 11.3803 6.38728 10.4973 7.26814L9.94729 7.82029L4.82971 12.9357C4.48237 13.281 4.20704 13.6918 4.01969 14.1444C3.83234 14.5969 3.7367 15.0821 3.7383 15.5718C3.7383 16.5666 4.12717 17.5011 4.82971 18.2037C5.55803 18.9299 6.51193 19.2929 7.46584 19.2929C8.41975 19.2929 9.37365 18.9299 10.0998 18.2037L16.7428 11.565C17.7203 10.5853 18.2617 9.28123 18.2617 7.89548C18.2639 6.50759 17.7225 5.20349 16.7428 4.2238Z" />
        </symbol>

        <symbol id="icon-arrow-left" viewBox="0 0 20 20" fill="none" xmlns="http://www.w3.org/2000/svg">
            <path d="M9.16659 4.16663L3.33325 9.99996L9.16659 15.8333M3.33325 9.99996H16.6666" stroke-width="1.66667" stroke-linecap="round" stroke-linejoin="round" />
        </symbol>


        <symbol id="icon-clock" xmlns="http://www.w3.org/2000/svg">
            <path d="M19.98 0C8.94 0 0 8.96 0 20C0 31.04 8.94 40 19.98 40C31.04 40 40 31.04 40 20C40 8.96 31.04 0 19.98 0ZM28 28C27.815 28.1854 27.5952 28.3325 27.3532 28.4329C27.1113 28.5332 26.8519 28.5849 26.59 28.5849C26.3281 28.5849 26.0687 28.5332 25.8267 28.4329C25.5848 28.3325 25.365 28.1854 25.18 28L18.6 21.42C18.411 21.2348 18.2607 21.0139 18.1577 20.7701C18.0547 20.5264 18.0011 20.2646 18 20V12C18 10.9 18.9 10 20 10C21.1 10 22 10.9 22 12V19.18L28 25.18C28.78 25.96 28.78 27.22 28 28Z" />
        </symbol>


    </defs>
</svg>