<svg xmlns="http://www.w3.org/2000/svg" width="24.547" height="24.547" viewBox="0 0 24.547 24.547">
  <path id="Bubble_Solid_3_" d="M12.274,0C5.359,0,0,5.068,0,11.909a11.647,11.647,0,0,0,3.855,8.806.989.989,0,0,1,.331.7L4.253,23.6a.984.984,0,0,0,1.378.869l2.435-1.074a.98.98,0,0,1,.654-.049,13.349,13.349,0,0,0,3.554.472c6.915,0,12.274-5.065,12.274-11.906S19.188,0,12.274,0ZM4.9,15.391,8.51,9.671a1.843,1.843,0,0,1,2.662-.491l2.867,2.151a.737.737,0,0,0,.887,0L18.8,8.39a.583.583,0,0,1,.845.775l-3.6,5.717a1.843,1.843,0,0,1-2.662.491L10.51,13.222a.737.737,0,0,0-.887,0L5.749,16.166A.583.583,0,0,1,4.9,15.391Z" transform="translate(0 -0.003)" fill="#fff" fill-rule="evenodd"/>
</svg>
