<svg id="tik-tok" xmlns="http://www.w3.org/2000/svg" width="17.279" height="19.666" viewBox="0 0 17.279 19.666">
  <path id="Path_12741" data-name="Path 12741" d="M48.692,5.314a4.955,4.955,0,0,1-2.994-1A4.956,4.956,0,0,1,43.718.39H40.507V9.164l0,4.806a2.911,2.911,0,1,1-2-2.758V7.952a6.319,6.319,0,0,0-.926-.068,6.157,6.157,0,0,0-4.627,2.069,6.034,6.034,0,0,0,.272,8.321,6.264,6.264,0,0,0,.58.507,6.158,6.158,0,0,0,3.774,1.276,6.319,6.319,0,0,0,.926-.068,6.137,6.137,0,0,0,3.428-1.715A6.012,6.012,0,0,0,43.739,14l-.017-7.177A8.137,8.137,0,0,0,48.7,8.51v-3.2h-.009Z" transform="translate(-31.423 -0.39)" fill="#fff"/>
</svg>
