<svg width="12" height="12" viewBox="0 0 12 12" fill="none" xmlns="http://www.w3.org/2000/svg">
<path d="M12 6C12 7.18669 11.6481 8.34673 10.9888 9.33342C10.3295 10.3201 9.39246 11.0892 8.2961 11.5433C7.19975 11.9974 5.99335 12.1162 4.82946 11.8847C3.66558 11.6532 2.59648 11.0818 1.75736 10.2426C0.918247 9.40353 0.346802 8.33443 0.115291 7.17054C-0.11622 6.00666 0.00259972 4.80026 0.456726 3.7039C0.910851 2.60754 1.67989 1.67047 2.66658 1.01118C3.65328 0.351894 4.81331 0 6 0C7.5913 0 9.11742 0.632141 10.2426 1.75736C11.3679 2.88258 12 4.4087 12 6ZM9.615 4.92C9.74761 4.78739 9.82211 4.60754 9.82211 4.42C9.82211 4.23246 9.74761 4.05261 9.615 3.92C9.48239 3.78739 9.30254 3.71289 9.115 3.71289C8.92747 3.71289 8.74761 3.78739 8.615 3.92L5.23 7.305L3.5 5.58C3.36739 5.44739 3.18754 5.37289 3 5.37289C2.81247 5.37289 2.63261 5.44739 2.5 5.58C2.36739 5.71261 2.2929 5.89246 2.2929 6.08C2.2929 6.26754 2.36739 6.44739 2.5 6.58L5.225 9.305L9.615 4.92Z" fill="#27AE60"/>
</svg>
