<svg xmlns="http://www.w3.org/2000/svg" width="18.232" height="12.005" viewBox="0 0 18.232 12.005"><path d="M14.116,20.37a10.177,10.177,0,0,0-9.116,6,10.178,10.178,0,0,0,9.116,6,10.179,10.179,0,0,0,9.116-6A10.178,10.178,0,0,0,14.116,20.37Zm0,3.628a1.232,1.232,0,1,1-1.232,1.231A1.232,1.232,0,0,1,14.119,24Zm4.492,5.194a8,8,0,0,1-8.99,0,8.919,8.919,0,0,1-2.661-2.819,8.92,8.92,0,0,1,2.661-2.819,8.269,8.269,0,0,1,.769-.459,4.295,4.295,0,1,0,7.451,0,8.315,8.315,0,0,1,.769.459,8.918,8.918,0,0,1,2.661,2.819A8.917,8.917,0,0,1,18.611,29.192Z" transform="translate(-5 -20.37)" fill="#7c7c7c"/></svg>