<svg xmlns="http://www.w3.org/2000/svg" width="24.103" height="19" viewBox="0 0 24.103 19"><path d="M27.128,21.534l-3.242-7.278a.776.776,0,0,0-.7-.432H17.3a2.25,2.25,0,0,0-1.407-1.345V9.5H14.385v2.954a2.308,2.308,0,0,0-1.458,1.369H7.071a.776.776,0,0,0-.7.432l-3.217,7.3a.585.585,0,0,0-.05.288,3.92,3.92,0,0,0,4,3.819,3.9,3.9,0,0,0,4-3.819,1.157,1.157,0,0,0-.05-.288L8.227,15.265h4.7a2.249,2.249,0,0,0,1.483,1.417V28.5h1.508V16.658a2.3,2.3,0,0,0,1.433-1.393h4.725l-2.815,6.269a.585.585,0,0,0-.05.288,4,4,0,0,0,7.993,0ZM21.1,21.1l2.086-4.732L25.268,21.1Zm-5.152-6.533a.83.83,0,1,1-.829-.793A.819.819,0,0,1,15.943,14.568ZM4.985,21.1,7.071,16.37,9.157,21.1Z" transform="translate(-3.1 -9.5)" fill="#7c7c7c"/></svg>