<svg xmlns="http://www.w3.org/2000/svg" width="42.224" height="51.368" viewBox="0 0 42.224 51.368">
  <path id="location" d="M190.518,123.965a5.7,5.7,0,0,1-4.463-2.157l-10.548-13.264h0c-1.119-1.358-6.107-7.865-6.107-14.954a20.784,20.784,0,0,1,6.176-14.862,21.3,21.3,0,0,1,29.919.011,20.817,20.817,0,0,1,6.13,14.851h0c0,6.187-3.767,11.963-6.016,14.851l-.046.057c-.011.023-.034.046-.046.068l-10.536,13.253A5.71,5.71,0,0,1,190.518,123.965Zm-6.255-22.716.171.205,5.833,7.34a.311.311,0,0,0,.491,0l5.845-7.351c2.226-2.865,3.619-5.867,3.619-7.842a9.549,9.549,0,0,0-9.623-9.577,9.718,9.718,0,0,0-6.963,2.82,9.44,9.44,0,0,0-2.808,6.769C180.815,96.249,183.326,100.107,184.262,101.249Zm-.046-.057c.011.011.023.034.034.046A.157.157,0,0,0,184.217,101.192Z" transform="translate(-169.4 -72.597)" fill="#e5175b"/>
</svg>
