<svg xmlns="http://www.w3.org/2000/svg" width="21.252" height="21.28" viewBox="0 0 21.252 21.28">
  <path id="Path_12742" data-name="Path 12742" d="M33.884,36.439a8.6,8.6,0,0,1,2.154-2.712,1.951,1.951,0,0,1,1.835-.239c1.117.319,1.755,1.436,2.553,3.43.877,2.074.877,1.994.479,2.712a11.025,11.025,0,0,1-1.516,1.994c.479,1.356,5.983,6.78,7.339,7.259a22.592,22.592,0,0,1,1.914-1.516c.718-.4.718-.319,2.712.479,2.074.8,3.111,1.436,3.51,2.553a2.234,2.234,0,0,1-.319,1.914,7.7,7.7,0,0,1-2.712,2.154C45.53,56.3,31.97,42.82,33.884,36.439Z" transform="translate(-33.701 -33.356)" fill="#e5175b" fill-rule="evenodd"/>
</svg>
