<svg xmlns="http://www.w3.org/2000/svg" width="88.402" height="92.493" viewBox="0 0 88.402 92.493">
  <g id="finger" transform="matrix(0.875, -0.485, 0.485, 0.875, -6.785, 17.471)" opacity="0.1">
    <path id="Path_12741" data-name="Path 12741" d="M61.2,34.672a6.859,6.859,0,0,0-6.862-6.862,6.447,6.447,0,0,0-3.883,1.264A6.914,6.914,0,0,0,44.04,24.74,6.447,6.447,0,0,0,40.157,26a6.914,6.914,0,0,0-6.411-4.334,7.184,7.184,0,0,0-3.431.9V6.862a7.141,7.141,0,0,0-1.986-4.876A6.752,6.752,0,0,0,23.454,0h0a6.859,6.859,0,0,0-6.862,6.862v35.3l-4.785-4.785a6.854,6.854,0,0,0-8.758-.813,6.816,6.816,0,0,0-2.98,4.785A7,7,0,0,0,1.6,46.771L15.689,63.746a22.074,22.074,0,0,0,17.155,8.036H41.6A19.73,19.73,0,0,0,61.286,52.1ZM53.069,63.565A16.124,16.124,0,0,1,41.6,68.351H32.844A18.643,18.643,0,0,1,18.4,61.488L4.222,44.514a3.449,3.449,0,0,1,.722-5.147,3.968,3.968,0,0,1,1.986-.632,3.489,3.489,0,0,1,2.438.993l5.688,5.6a2.921,2.921,0,0,0,3.16.632,2.957,2.957,0,0,0,1.806-2.709V6.862a3.43,3.43,0,0,1,3.431-3.431h0a3.392,3.392,0,0,1,3.431,3.431v25.1A1.714,1.714,0,0,0,28.6,33.679a1.66,1.66,0,0,0,1.716-1.716V28.532a3.431,3.431,0,1,1,6.862,0v6.5a1.714,1.714,0,0,0,1.716,1.716,1.66,1.66,0,0,0,1.716-1.716V31.6a3.431,3.431,0,0,1,6.862,0v6.5a1.714,1.714,0,0,0,1.716,1.716A1.66,1.66,0,0,0,50.9,38.1V34.672a3.431,3.431,0,1,1,6.862,0V52.1A16.038,16.038,0,0,1,53.069,63.565Z" transform="translate(0 13.995)" fill="#262920"/>
    <path id="Path_12742" data-name="Path 12742" d="M1.716,10.293A1.714,1.714,0,0,0,3.431,8.578V1.716A1.714,1.714,0,0,0,1.716,0,1.66,1.66,0,0,0,0,1.716V8.578A1.66,1.66,0,0,0,1.716,10.293Z" transform="translate(21.738 0)" fill="#262920"/>
    <path id="Path_12743" data-name="Path 12743" d="M5.44,7.788a1.748,1.748,0,0,0,1.174.542,1.589,1.589,0,0,0,1.174-.542,1.8,1.8,0,0,0,0-2.438L2.912.474a1.8,1.8,0,0,0-2.438,0,1.8,1.8,0,0,0,0,2.438Z" transform="translate(8.172 5.575)" fill="#262920"/>
    <path id="Path_12744" data-name="Path 12744" d="M1.738,8.329a1.456,1.456,0,0,0,1.174-.542L7.788,2.912a1.8,1.8,0,0,0,0-2.438,1.8,1.8,0,0,0-2.438,0L.474,5.35a1.8,1.8,0,0,0,0,2.438A1.783,1.783,0,0,0,1.738,8.329Z" transform="translate(30.383 5.575)" fill="#262920"/>
  </g>
</svg>
