<svg width="851" height="774" viewBox="0 0 851 774" fill="none" xmlns="http://www.w3.org/2000/svg">
<g filter="url(#filter0_ddii)">
<path d="M174.993 538.471L92.9034 236.207C66.873 140.36 53.8578 92.4365 79.8492 64.0163C105.841 35.596 154.733 44.2894 252.518 61.6763L587.734 121.28C706.347 142.37 765.653 152.915 778.106 194.02C790.559 235.125 747.076 276.81 660.109 360.18L406.983 602.841C331.075 675.61 293.122 711.994 254.727 701.341C216.333 690.688 202.553 639.949 174.993 538.471Z" fill="url(#paint0_linear)"/>
<path d="M92.8069 236.233L174.897 538.497L174.9 538.508C188.677 589.238 199.013 627.297 210.706 654.005C222.399 680.716 235.46 696.098 254.7 701.437C273.941 706.776 293.061 700.322 316.846 683.456C340.628 666.591 369.097 639.299 407.045 602.92L407.052 602.913L660.178 360.253L660.184 360.247C703.662 318.567 736.279 287.299 756.469 261.312C776.659 235.324 784.443 214.592 778.202 193.991C771.961 173.39 753.98 160.463 722.762 150.05C691.545 139.637 647.06 131.727 587.762 121.184L587.752 121.182L252.536 61.5779L252.526 61.5762C203.642 52.8841 166.967 46.363 139.264 45.5686C111.558 44.7741 92.8004 49.7066 79.7754 63.9488C66.7505 78.1909 63.5089 97.3133 66.7688 124.838C70.0284 152.36 79.7913 188.308 92.8044 236.224L92.8069 236.233Z" stroke="url(#paint1_linear)" stroke-width="0.2"/>
</g>
<defs>
<filter id="filter0_ddii" x="0.490234" y="0.386719" width="849.913" height="772.979" filterUnits="userSpaceOnUse" color-interpolation-filters="sRGB">
<feFlood flood-opacity="0" result="BackgroundImageFix"/>
<feColorMatrix in="SourceAlpha" type="matrix" values="0 0 0 0 0 0 0 0 0 0 0 0 0 0 0 0 0 0 127 0"/>
<feOffset dx="25" dy="25"/>
<feGaussianBlur stdDeviation="22.5"/>
<feColorMatrix type="matrix" values="0 0 0 0 0 0 0 0 0 0 0 0 0 0 0 0 0 0 0.24 0"/>
<feBlend mode="normal" in2="BackgroundImageFix" result="effect1_dropShadow"/>
<feColorMatrix in="SourceAlpha" type="matrix" values="0 0 0 0 0 0 0 0 0 0 0 0 0 0 0 0 0 0 127 0"/>
<feOffset dx="-35" dy="-15"/>
<feGaussianBlur stdDeviation="15"/>
<feColorMatrix type="matrix" values="0 0 0 0 1 0 0 0 0 1 0 0 0 0 1 0 0 0 1 0"/>
<feBlend mode="normal" in2="effect1_dropShadow" result="effect2_dropShadow"/>
<feBlend mode="normal" in="SourceGraphic" in2="effect2_dropShadow" result="shape"/>
<feColorMatrix in="SourceAlpha" type="matrix" values="0 0 0 0 0 0 0 0 0 0 0 0 0 0 0 0 0 0 127 0" result="hardAlpha"/>
<feOffset dx="23" dy="20"/>
<feGaussianBlur stdDeviation="50"/>
<feComposite in2="hardAlpha" operator="arithmetic" k2="-1" k3="1"/>
<feColorMatrix type="matrix" values="0 0 0 0 0 0 0 0 0 0 0 0 0 0 0 0 0 0 0.45 0"/>
<feBlend mode="normal" in2="shape" result="effect3_innerShadow"/>
<feColorMatrix in="SourceAlpha" type="matrix" values="0 0 0 0 0 0 0 0 0 0 0 0 0 0 0 0 0 0 127 0" result="hardAlpha"/>
<feOffset dx="-23" dy="-23"/>
<feGaussianBlur stdDeviation="100"/>
<feComposite in2="hardAlpha" operator="arithmetic" k2="-1" k3="1"/>
<feColorMatrix type="matrix" values="0 0 0 0 0 0 0 0 0 0 0 0 0 0 0 0 0 0 0.12 0"/>
<feBlend mode="normal" in2="effect3_innerShadow" result="effect4_innerShadow"/>
</filter>
<linearGradient id="paint0_linear" x1="772.386" y1="565.142" x2="41.5048" y2="-119.716" gradientUnits="userSpaceOnUse">
<stop stop-color="#B10742"/>
<stop offset="1" stop-color="#DC0B54"/>
</linearGradient>
<linearGradient id="paint1_linear" x1="-22.2222" y1="-28.5972" x2="800" y2="871.863" gradientUnits="userSpaceOnUse">
<stop stop-color="white"/>
<stop offset="1" stop-color="white" stop-opacity="0"/>
</linearGradient>
</defs>
</svg>
