<svg id="viber_1_" data-name="viber (1)" xmlns="http://www.w3.org/2000/svg" width="65" height="70.972" viewBox="0 0 65 70.972">
  <path id="Path_12736" data-name="Path 12736" d="M65.716,41.073C67.831,23.266,64.7,12.024,59.05,6.939l0,0c-9.118-8.683-39.91-9.969-50.818.39-4.9,5.067-6.624,12.5-6.813,21.71S1.008,55.5,17.084,60.177H17.1l-.015,7.147s-.109,2.9,1.74,3.478c2.115.685,3.073-.659,9.653-8.518a60.209,60.209,0,0,0,20.413-1.551c2.222-.745,14.793-2.408,16.826-19.66ZM29.561,57.255s-6.964,8.683-9.13,10.938c-.709.733-1.486.665-1.474-.789,0-.954.053-11.865.053-11.865C5.381,51.633,6.184,36.943,6.332,29.258s1.554-13.984,5.7-18.224c9.57-8.973,36.565-6.967,43.444-.5,8.409,7.454,5.416,28.514,5.433,29.232C59.183,54.165,49,55.078,47.123,55.7a55.548,55.548,0,0,1-17.562,1.554Z" transform="translate(-1.38 0.013)" fill="#fff"/>
  <path id="Path_12737" data-name="Path 12737" d="M12.786,4.3a.9.9,0,0,0,0,1.788c8.825.068,16.093,6.219,16.173,17.5a.865.865,0,1,0,1.728-.015h0C30.59,11.415,22.655,4.365,12.786,4.3Z" transform="translate(19.247 8.438)" fill="#fff"/>
  <path id="Path_12738" data-name="Path 12738" d="M23.39,18.64a.865.865,0,1,0,1.728.041c.145-6.7-3.989-12.226-11.756-12.808a.9.9,0,0,0-.121,1.788c6.736.511,10.285,5.108,10.149,10.979Z" transform="translate(20.252 11.514)" fill="#fff"/>
  <path id="Path_12739" data-name="Path 12739" d="M33.682,27.988a2.73,2.73,0,0,0-3.56.511l-1.285,1.663a2.3,2.3,0,0,1-1.873.733c-8.9-2.355-11.286-11.673-11.286-11.673a2.484,2.484,0,0,1,.706-1.938l1.607-1.33a2.96,2.96,0,0,0,.493-3.684,38.4,38.4,0,0,0-4.4-6.358,2.378,2.378,0,0,0-3.2-.541h-.027C8.3,6.866,5.5,9.664,6.4,12.545c1.528,3.037,4.334,12.719,13.281,20.035,4.2,3.46,10.858,7.005,13.682,7.824l.027.041c2.783.928,5.49-1.98,6.934-4.612v-.021a2.533,2.533,0,0,0-.508-3.268,34.832,34.832,0,0,0-6.134-4.556Z" transform="translate(8.099 9.792)" fill="#fff"/>
  <path id="Path_12740" data-name="Path 12740" d="M13.706,9.288c2.839.165,4.216,1.649,4.364,4.695A.866.866,0,1,0,19.8,13.9c-.189-3.977-2.263-6.193-6-6.4a.9.9,0,0,0-.095,1.788Z" transform="translate(21.126 14.695)" fill="#fff"/>
</svg>
