<?xml version="1.0" standalone="no"?>
<!DOCTYPE svg PUBLIC "-//W3C//DTD SVG 1.1//EN" "http://www.w3.org/Graphics/SVG/1.1/DTD/svg11.dtd" >
<svg xmlns="http://www.w3.org/2000/svg" xmlns:xlink="http://www.w3.org/1999/xlink" version="1.1">
<metadata>
Created by FontForge 20201107 at Tue Apr 24 16:42:19 2018
 By Jimmy Wärting
Copyright (c) 2018 Monotype Imaging Inc. All rights reserved.
</metadata>
<defs>
<font id="NeuePlakText-Regular" horiz-adv-x="0" >
  <font-face 
    font-family="Neue Plak Text"
    font-weight="400"
    font-stretch="normal"
    units-per-em="1000"
    panose-1="2 11 5 4 3 2 2 2 2 4"
    ascent="800"
    descent="-200"
    x-height="487"
    cap-height="706"
    bbox="-727 -248 1068 1156"
    underline-thickness="50"
    underline-position="-100"
    unicode-range="U+000D-FEFF"
  />
<missing-glyph horiz-adv-x="659" 
d="M75 706h509v-706h-509v706zM489 82v542h-319v-542h319z" />
    <glyph glyph-name=".notdef" horiz-adv-x="659" 
d="M75 706h509v-706h-509v706zM489 82v542h-319v-542h319z" />
    <glyph glyph-name="NULL" 
 />
    <glyph glyph-name="NULL" 
 />
    <glyph glyph-name="CR" unicode="&#xd;" horiz-adv-x="182" 
 />
    <glyph glyph-name="space" unicode=" " horiz-adv-x="182" 
 />
    <glyph glyph-name="exclam" unicode="!" horiz-adv-x="278" 
d="M91 706h96l-12 -513h-72zM94 3q-17 17 -17 43q0 28 17 45t45 17q27 0 44.5 -17.5t17.5 -44.5q0 -26 -18 -43t-44 -17q-28 0 -45 17z" />
    <glyph glyph-name="quotedbl" unicode="&#x22;" horiz-adv-x="425" 
d="M83 706h87l-9 -281h-68zM255 706h87l-9 -281h-68z" />
    <glyph glyph-name="numbersign" unicode="#" horiz-adv-x="665" 
d="M516 439l-27 -172h121l-14 -77h-120l-33 -206h-80l33 206h-175l-33 -206h-81l33 206h-118l14 77h116l28 172h-117l14 76h115l33 207h81l-33 -207h174l33 207h82l-33 -207h121l-13 -76h-121zM435 439h-174l-28 -172h175z" />
    <glyph glyph-name="dollar" unicode="$" horiz-adv-x="604" 
d="M536 87q-28 -46 -82 -73t-132 -30v-84h-50v85q-121 8 -176.5 73t-55.5 171h99q0 -74 31.5 -117.5t103.5 -51.5v268q-6 2 -14 4q-69 18 -112.5 40.5t-68 59.5t-24.5 94q0 54 25.5 97t74.5 69t117 29v85h50v-85q109 -7 162 -69t53 -163h-92q0 67 -30 109t-95 50v-245
q10 -2 30 -8q73 -21 118 -44t70.5 -61t25.5 -97q0 -60 -28 -106zM161.5 479.5q15.5 -22.5 42.5 -36.5t70 -27v233q-40 -2 -68.5 -17.5t-44 -40t-15.5 -54.5q0 -35 15.5 -57.5zM429.5 95.5q37.5 33.5 37.5 86.5q0 38 -18.5 63.5t-49.5 41t-79 29.5v-258q72 4 109.5 37.5z" />
    <glyph glyph-name="percent" unicode="%" horiz-adv-x="749" 
d="M77.5 445.5q-32.5 42.5 -32.5 112.5q0 69 32.5 112t104.5 43t104.5 -43t32.5 -112q0 -70 -32.5 -112.5t-104.5 -42.5t-104.5 42.5zM579 706h72l-480 -706h-73zM241.5 485q15.5 26 15.5 73q0 49 -16 74.5t-59 25.5q-44 0 -59.5 -26.5t-15.5 -73.5q0 -48 15.5 -73.5
t59.5 -25.5t59.5 26zM463.5 35.5q-32.5 42.5 -32.5 112.5q0 69 32.5 112t104.5 43t104.5 -43t32.5 -112t-32.5 -112t-104.5 -43t-104.5 42.5zM626.5 74.5q15.5 25.5 15.5 73.5q0 49 -15.5 74.5t-58.5 25.5q-31 0 -47.5 -13t-22 -34.5t-5.5 -52.5q0 -48 15.5 -73.5
t59.5 -25.5q43 0 58.5 25.5z" />
    <glyph glyph-name="ampersand" unicode="&#x26;" horiz-adv-x="635" 
d="M604 0q-51 0 -89.5 13t-71.5 42q-37 -34 -83 -51t-105 -17q-70 0 -119 22.5t-74 63t-25 92.5q0 48 20 87t53 69.5t79 61.5q-37 56 -53 99.5t-16 84.5q0 73 47 114t138 41q84 0 131.5 -36t47.5 -103q0 -46 -25.5 -83t-62 -64.5t-98.5 -66.5l19 -26l127 -170q18 29 34.5 65
t39.5 90l68 -27q-24 -62 -45.5 -106.5t-45.5 -78.5q26 -21 51.5 -29.5t57.5 -8.5v-78zM216.5 504.5q13.5 -34.5 41.5 -78.5q47 30 76 52.5t47.5 49t18.5 58.5q0 33 -23 53t-70 20q-49 0 -76.5 -23.5t-27.5 -66.5q0 -30 13.5 -64.5zM167.5 90q36.5 -30 99.5 -30q72 0 125 48
l-9 12l-141 188l-12 16q-47 -35 -73 -70.5t-26 -80.5q0 -53 36.5 -83z" />
    <glyph glyph-name="quotesingle" unicode="'" horiz-adv-x="254" 
d="M83 706h87l-9 -281h-68z" />
    <glyph glyph-name="parenleft" unicode="(" horiz-adv-x="392" 
d="M157 41q-34 120 -34 268q0 144 34 261.5t103 238.5h83q-69 -115 -104.5 -236.5t-35.5 -263.5q0 -146 35.5 -269.5t104.5 -240.5h-83q-69 122 -103 242z" />
    <glyph glyph-name="parenright" unicode=")" horiz-adv-x="392" 
d="M49 -201q69 117 104.5 240.5t35.5 269.5q0 142 -35.5 263.5t-104.5 236.5h83q69 -121 103 -238.5t34 -261.5q0 -148 -34 -268t-103 -242h-83z" />
    <glyph glyph-name="asterisk" unicode="*" horiz-adv-x="361" 
d="M67 452l79 92l-118 28l19 60l112 -47l-9 121h62l-10 -121l112 47l20 -60l-119 -28l79 -92l-50 -37l-63 104l-64 -104z" />
    <glyph glyph-name="plus" unicode="+" horiz-adv-x="577" 
d="M523 248h-197v-199h-75v199h-197v72h197v201h75v-201h197v-72z" />
    <glyph glyph-name="comma" unicode="," horiz-adv-x="281" 
d="M119 157h85l-84 -328h-66z" />
    <glyph glyph-name="hyphen" unicode="-" horiz-adv-x="387" 
d="M54 323h279v-78h-279v78z" />
    <glyph glyph-name="period" unicode="." horiz-adv-x="278" 
d="M94 3q-17 17 -17 43q0 28 17 45t45 17q27 0 44.5 -17.5t17.5 -44.5q0 -26 -18 -43t-44 -17q-28 0 -45 17z" />
    <glyph glyph-name="slash" unicode="/" horiz-adv-x="454" 
d="M331 722h88l-296 -772h-88z" />
    <glyph glyph-name="zero" unicode="0" horiz-adv-x="600" 
d="M100.5 86q-58.5 102 -58.5 267q0 167 58.5 268t199.5 101t200 -102t59 -267q0 -166 -59 -267.5t-200 -101.5t-199.5 102zM402.5 105q35.5 39 47.5 100.5t12 147.5q0 87 -12.5 149t-48 100t-101.5 38t-101.5 -38.5t-47.5 -100.5t-12 -148q0 -87 12.5 -149t47.5 -100
t101 -38q67 0 102.5 39z" />
    <glyph glyph-name="one" unicode="1" horiz-adv-x="600" 
d="M285 622h-166l18 84h239v-706h-91v622z" />
    <glyph glyph-name="two" unicode="2" horiz-adv-x="600" 
d="M45 3l283 309q41 43 64 73.5t33.5 59t10.5 60.5q0 61 -35 98.5t-105 37.5q-146 0 -146 -175h-89q0 118 57.5 187t179.5 69q78 0 130 -28t77.5 -77.5t25.5 -112.5q0 -39 -10 -71.5t-32.5 -65t-61.5 -74.5q-99 -103 -209 -212h319v-81h-492v3z" />
    <glyph glyph-name="three" unicode="3" horiz-adv-x="600" 
d="M549 194q0 -64 -26.5 -111t-81 -73t-136.5 -26q-93 0 -148.5 31.5t-79.5 90.5t-24 144h88q0 -89 35.5 -138.5t124.5 -49.5q79 0 116 38t37 104q0 69 -45.5 101.5t-134.5 32.5h-20v68h20q83 0 125 31t42 90q0 57 -34.5 89.5t-102.5 32.5q-80 0 -115.5 -43.5t-35.5 -117.5
h-88q0 111 61 172.5t183 61.5q74 0 124 -24t74.5 -66.5t24.5 -96.5q0 -59 -30.5 -101t-95.5 -60q143 -33 143 -180z" />
    <glyph glyph-name="four" unicode="4" horiz-adv-x="600" 
d="M574 176h-97v-176h-90v176h-376v4l306 526h160v-452h97v-78zM387 254v417h-1l-245 -417h246z" />
    <glyph glyph-name="five" unicode="5" horiz-adv-x="600" 
d="M110 50q-58 66 -58 181h89q0 -78 35.5 -123.5t116.5 -45.5q79 0 117 42t38 113q0 85 -52 129.5t-160 44.5q-39 0 -80 -6t-76 -18l56 339h371l-17 -80h-281l-29 -174q46 11 91 11q91 0 151.5 -31.5t90 -87t29.5 -127.5q0 -69 -27 -121.5t-81.5 -82t-136.5 -29.5
q-129 0 -187 66z" />
    <glyph glyph-name="six" unicode="6" horiz-adv-x="600" 
d="M460 427.5q52 -30.5 78 -83t26 -117.5q0 -69 -28.5 -124t-84.5 -87t-135 -32q-99 0 -160.5 48.5t-88 130t-26.5 184.5q0 166 62 270.5t208 104.5q104 0 166 -54t76 -152h-89q-11 64 -49.5 98t-102.5 34q-101 0 -141 -80t-40 -204v-15q26 50 77 79.5t124 29.5
q76 0 128 -30.5zM402 83.5q35 22.5 51.5 59.5t16.5 82q0 46 -17 82t-52 56.5t-86 20.5q-54 0 -90 -22t-53 -59t-17 -81t18.5 -80.5t54 -58.5t86.5 -22q53 0 88 22.5z" />
    <glyph glyph-name="seven" unicode="7" horiz-adv-x="600" 
d="M428 622h-364v84h499l-312 -706h-102z" />
    <glyph glyph-name="eight" unicode="8" horiz-adv-x="600" 
d="M524.5 311q36.5 -49 36.5 -119q0 -63 -29 -110t-87.5 -72.5t-143.5 -25.5q-86 0 -145 26.5t-87.5 73.5t-28.5 108q0 69 36.5 118.5t110.5 66.5q-63 17 -96 61t-33 102q0 56 28.5 97t83 63t131.5 22t131.5 -22t82.5 -63t28 -97q0 -61 -33 -104t-95 -59q73 -17 109.5 -66z
M190 442q39 -34 111 -34q49 0 82.5 16t50.5 44.5t17 65.5q0 55 -38.5 88t-111.5 33q-75 0 -112.5 -32.5t-37.5 -88.5q0 -58 39 -92zM392 74.5q37 17.5 55.5 49t18.5 72.5t-18.5 73t-55.5 50t-91 18t-91.5 -18t-56 -50t-18.5 -73t18.5 -72.5t56 -49t91.5 -17.5t91 17.5z" />
    <glyph glyph-name="nine" unicode="9" horiz-adv-x="600" 
d="M444.5 673.5q61.5 -48.5 88 -130t26.5 -184.5q0 -166 -62 -270.5t-208 -104.5q-104 0 -166 54t-76 152h89q11 -64 49.5 -98t102.5 -34q101 0 141 80t40 204v15q-26 -50 -77 -79.5t-124 -29.5q-76 0 -128 30.5t-78 83t-26 117.5q0 69 28.5 124t84.5 87t135 32
q99 0 160.5 -48.5zM375 344q36 22 53 59t17 81t-18.5 80.5t-54 58.5t-86.5 22q-53 0 -88 -22.5t-51.5 -59.5t-16.5 -82q0 -46 17 -82t52 -56.5t86 -20.5q54 0 90 22z" />
    <glyph glyph-name="colon" unicode=":" horiz-adv-x="278" 
d="M94 3q-17 17 -17 43q0 28 17 45t45 17q27 0 44.5 -17.5t17.5 -44.5q0 -26 -18 -43t-44 -17q-28 0 -45 17zM94 358q-17 17 -17 43q0 28 17 45t45 17q27 0 44.5 -17.5t17.5 -44.5q0 -26 -18 -43t-44 -17q-28 0 -45 17z" />
    <glyph glyph-name="semicolon" unicode=";" horiz-adv-x="308" 
d="M119 157h85l-84 -328h-66zM124 358q-17 17 -17 43q0 28 17 45t45 17q27 0 44.5 -17.5t17.5 -44.5q0 -26 -18 -43t-44 -17q-28 0 -45 17z" />
    <glyph glyph-name="less" unicode="&#x3c;" horiz-adv-x="577" 
d="M523 412l-405 -128l405 -128v-74l-468 153v99l468 152v-74z" />
    <glyph glyph-name="equal" unicode="=" horiz-adv-x="577" 
d="M54 419h469v-72h-469v72zM54 221h469v-72h-469v72z" />
    <glyph glyph-name="greater" unicode="&#x3e;" horiz-adv-x="577" 
d="M522 334v-99l-468 -153v74l405 128l-405 128v74z" />
    <glyph glyph-name="question" unicode="?" horiz-adv-x="494" 
d="M303.5 382q35.5 64 48 98.5t12.5 63.5q0 106 -118 106q-49 0 -76 -17t-37 -46.5t-10 -72.5h-87q0 101 50 154.5t164 53.5q69 0 115.5 -22t69.5 -61.5t23 -92.5q0 -34 -12 -69.5t-46.5 -98t-108.5 -185.5h-99q76 125 111.5 189zM194.5 3q-17.5 17 -17.5 43q0 28 17.5 45
t44.5 17t44.5 -17t17.5 -45q0 -26 -17.5 -43t-44.5 -17t-44.5 17z" />
    <glyph glyph-name="at" unicode="@" horiz-adv-x="833" 
d="M625 633q81 -46 119.5 -125t38.5 -180q0 -119 -52.5 -191t-173.5 -72h-43v57q-21 -31 -58 -48t-86 -17q-70 0 -105 34.5t-35 91.5q0 67 47 100t153 33h83v12q0 41 -7 64.5t-28 35.5t-62 12q-51 0 -72 -20.5t-21 -61.5h-78q-1 69 42 105.5t132 36.5q69 0 106 -21.5t50 -60
t13 -99.5v-204q78 5 110 64t32 146q0 91 -32.5 160t-102 108.5t-175.5 39.5q-112 0 -182.5 -45.5t-102 -122.5t-31.5 -177q0 -104 34.5 -183t109.5 -124.5t192 -45.5q40 0 80 5v-48q-40 -5 -80 -5q-135 0 -222 53t-127.5 143t-40.5 203q0 111 38 199.5t121.5 141t212.5 52.5
q122 0 203 -46zM513 267h-78q-46 0 -73 -8t-39 -24.5t-12 -43.5q0 -37 20.5 -55.5t67.5 -18.5t72 18t33.5 48t8.5 76v8z" />
    <glyph glyph-name="A" unicode="A" horiz-adv-x="630" 
d="M468 177h-305l-59 -177h-96l237 706h140l237 -706h-96zM443 252l-126 386h-2l-128 -386h256z" />
    <glyph glyph-name="B" unicode="B" horiz-adv-x="600" 
d="M524 307.5q33 -44.5 33 -113.5q0 -95 -59.5 -144.5t-178.5 -49.5h-229v706h229q71 0 119.5 -22t72 -61.5t23.5 -92.5q0 -60 -29 -101.5t-88 -58.5q74 -18 107 -62.5zM183 399h109q73 0 108.5 32.5t35.5 89.5q0 115 -149 115h-104v-237zM417 101.5q40 31.5 40 96.5
q0 66 -40 98t-123 32h-111v-258h104q90 0 130 31.5z" />
    <glyph glyph-name="C" unicode="C" horiz-adv-x="700" 
d="M183 33.5q-70 49.5 -101.5 132t-31.5 187.5q0 104 31.5 186.5t101.5 132.5t182 50q83 0 147 -32t101 -91t40 -139h-95q-2 57 -27 98t-68.5 62t-102.5 21q-117 0 -164.5 -78.5t-47.5 -209.5q0 -132 47 -210t166 -78q92 0 143.5 48t56.5 136h94q-1 -82 -38 -142t-102 -91.5
t-150 -31.5q-112 0 -182 49.5z" />
    <glyph glyph-name="D" unicode="D" horiz-adv-x="691" 
d="M90 706h229q171 0 246.5 -95.5t75.5 -257.5q0 -163 -75.5 -258t-246.5 -95h-229v706zM307 78q91 0 143 35t72.5 95t20.5 145q0 86 -21 146t-73 94.5t-142 34.5h-124v-550h124z" />
    <glyph glyph-name="E" unicode="E" horiz-adv-x="544" 
d="M90 706h403v-78h-310v-229h307v-78h-307v-243h310v-78h-403v706z" />
    <glyph glyph-name="F" unicode="F" horiz-adv-x="525" 
d="M90 706h392v-78h-299v-229h297v-78h-297v-321h-93v706z" />
    <glyph glyph-name="G" unicode="G" horiz-adv-x="707" 
d="M657 369v-48q0 -152 -69.5 -244.5t-223.5 -92.5q-110 0 -180.5 49t-102 131.5t-31.5 188.5q0 107 32.5 189.5t103.5 131t182 48.5q83 0 145 -30.5t97.5 -87t39.5 -134.5h-91q-7 85 -56 127.5t-137 42.5q-121 0 -170 -78t-49 -209q0 -134 49.5 -210.5t170.5 -76.5
q108 0 153.5 59.5t46.5 163.5h-185v80h275z" />
    <glyph glyph-name="H" unicode="H" horiz-adv-x="687" 
d="M90 706h93v-306h321v306h93v-706h-93v320h-321v-320h-93v706z" />
    <glyph glyph-name="I" unicode="I" horiz-adv-x="273" 
d="M90 706h93v-706h-93v706z" />
    <glyph glyph-name="J" unicode="J" horiz-adv-x="360" 
d="M23 2v84q30 -4 49 -4q45 0 72 14t39.5 44.5t12.5 82.5v483h92v-497q0 -109 -48 -160.5t-154 -51.5q-28 0 -63 5z" />
    <glyph glyph-name="K" unicode="K" horiz-adv-x="592" 
d="M470 0l-287 351v-351h-93v706h93v-291l250 291h109l-276 -319l318 -387h-114z" />
    <glyph glyph-name="L" unicode="L" horiz-adv-x="478" 
d="M90 706h93v-624h272v-82h-365v706z" />
    <glyph glyph-name="M" unicode="M" horiz-adv-x="855" 
d="M90 706h114l224 -554l225 554h112v-706h-88v562l-226 -562h-46l-227 562v-562h-88v706z" />
    <glyph glyph-name="N" unicode="N" horiz-adv-x="712" 
d="M90 706h96l346 -564v564h90v-706h-96l-346 564v-564h-90v706z" />
    <glyph glyph-name="O" unicode="O" horiz-adv-x="729" 
d="M182.5 34q-70.5 50 -101.5 133t-31 186q0 104 31.5 186.5t101.5 132.5t182 50t182 -49.5t101 -132t31 -187.5t-31.5 -188t-101.5 -132t-181 -49q-112 0 -182.5 50zM582 353q0 288 -217 288q-120 0 -168.5 -79t-48.5 -209t48.5 -209t168.5 -79q217 0 217 288z" />
    <glyph glyph-name="P" unicode="P" horiz-adv-x="574" 
d="M90 706h236q115 0 169.5 -50.5t54.5 -143.5q0 -95 -56 -146.5t-168 -51.5h-143v-314h-93v706zM304 389q77 0 113.5 30.5t36.5 91.5t-36.5 91t-113.5 30h-121v-243h121z" />
    <glyph glyph-name="Q" unicode="Q" horiz-adv-x="729" 
d="M638.5 144q-40.5 -89 -126.5 -130l83 -129l-69 -43l-91 148q-33 -6 -70 -6q-112 0 -182.5 50t-101.5 133t-31 186q0 104 31.5 186.5t101.5 132.5t182 50t182 -49.5t101 -132t31 -187.5q0 -120 -40.5 -209zM387 66l-48 78l62 40l64 -99q117 57 117 268q0 288 -217 288
q-120 0 -168.5 -79t-48.5 -209t48.5 -209t168.5 -79q15 0 22 1z" />
    <glyph glyph-name="R" unicode="R" horiz-adv-x="621" 
d="M276 316h-93v-316h-93v706h246q119 0 174 -51t55 -141q0 -178 -187 -196l229 -318h-105zM183 387h132q81 0 117 30.5t36 93.5q0 62 -36 91.5t-117 29.5h-132v-245z" />
    <glyph glyph-name="S" unicode="S" horiz-adv-x="597" 
d="M99.5 50.5q-62.5 66.5 -62.5 178.5h101q0 -81 37 -125.5t126 -44.5q52 0 87.5 16t53.5 44t18 65q0 43 -24 69t-63 41t-116 37q-68 19 -112 42t-68.5 60t-24.5 92q0 56 27.5 100.5t81 70.5t129.5 26q83 0 136.5 -30t78.5 -82.5t25 -121.5h-96q0 76 -34 118t-112 42
q-46 0 -77.5 -15t-47.5 -40.5t-16 -57.5q0 -41 23 -65t58.5 -37t115.5 -35q76 -22 121.5 -45t70 -61t24.5 -97q0 -64 -30 -111.5t-88.5 -73.5t-141.5 -26q-138 0 -200.5 66.5z" />
    <glyph glyph-name="T" unicode="T" horiz-adv-x="554" 
d="M231 628h-208v78h508v-78h-207v-628h-93v628z" />
    <glyph glyph-name="U" unicode="U" horiz-adv-x="643" 
d="M132.5 42.5q-60.5 58.5 -60.5 178.5v485h93v-480q0 -83 36.5 -122t119.5 -39q84 0 121 39t37 122v480h92v-485q0 -120 -61 -178.5t-189 -58.5t-188.5 58.5z" />
    <glyph glyph-name="V" unicode="V" horiz-adv-x="620" 
d="M612 706l-255 -706h-93l-256 706h98l205 -593l205 593h96z" />
    <glyph glyph-name="W" unicode="W" horiz-adv-x="896" 
d="M887 706l-192 -706h-99l-148 579l-148 -579h-97l-195 706h92l152 -574l147 574h100l145 -571l153 571h90z" />
    <glyph glyph-name="X" unicode="X" horiz-adv-x="656" 
d="M271 376l-232 330h108l181 -261l182 261h108l-233 -331l262 -375h-109l-210 302l-210 -302h-110z" />
    <glyph glyph-name="Y" unicode="Y" horiz-adv-x="563" 
d="M236 304l-228 402h102l173 -311l172 311h100l-227 -402v-304h-92v304z" />
    <glyph glyph-name="Z" unicode="Z" horiz-adv-x="571" 
d="M386 626h-346v80h491l-361 -626h374v-80h-521z" />
    <glyph glyph-name="bracketleft" unicode="[" horiz-adv-x="378" 
d="M154 809h200v-69h-123v-872h123v-69h-200v1010z" />
    <glyph glyph-name="backslash" unicode="\" horiz-adv-x="454" 
d="M331 -50l-296 772h88l296 -772h-88z" />
    <glyph glyph-name="bracketright" unicode="]" horiz-adv-x="378" 
d="M24 -201v69h123v872h-123v69h200v-1010h-200z" />
    <glyph glyph-name="asciicircum" unicode="^" horiz-adv-x="454" 
d="M333 374l-106 266l-106 -266h-88l136 332h116l136 -332h-88z" />
    <glyph glyph-name="underscore" unicode="_" horiz-adv-x="385" 
d="M0 -89h385v-76h-385v76z" />
    <glyph glyph-name="grave" unicode="`" horiz-adv-x="283" 
d="M151 572l-101 154h90l93 -154h-82z" />
    <glyph glyph-name="a" unicode="a" horiz-adv-x="540" 
d="M385 474q45 -25 64 -71t19 -114v-289h-87v65q-24 -37 -66 -57t-101 -20q-85 0 -129.5 40t-44.5 107q0 81 60 116t176 35h105v16q0 43 -10.5 71t-36 43t-70.5 15q-60 0 -88.5 -25t-28.5 -71h-89q0 77 52.5 120.5t152.5 43.5q77 0 122 -25zM349 101.5q32 43.5 32 120.5v2
h-98q-76 0 -113 -18t-37 -63q0 -40 27 -62.5t79 -22.5q78 0 110 43.5z" />
    <glyph glyph-name="b" unicode="b" horiz-adv-x="574" 
d="M441.5 464q46.5 -35 68.5 -92.5t22 -127.5q0 -71 -22 -128.5t-69 -92t-118 -34.5q-54 0 -95.5 22t-66.5 65v-76h-86v706h87v-293q25 43 66 64.5t95 21.5q72 0 118.5 -35zM407 114q33 50 33 130q0 79 -33.5 129t-107.5 50q-43 0 -74 -19.5t-47.5 -56.5t-16.5 -89v-28
q0 -79 36.5 -122.5t101.5 -43.5q75 0 108 50z" />
    <glyph glyph-name="c" unicode="c" horiz-adv-x="528" 
d="M142.5 23q-51.5 34 -76 91.5t-24.5 129.5t25 129.5t77 91.5t129 34q62 0 109.5 -22.5t74.5 -65.5t29 -102h-94q-3 54 -34.5 84t-84.5 30q-73 0 -106 -50.5t-33 -128.5q0 -81 33 -130.5t106 -49.5q36 0 62.5 14.5t40.5 39.5t15 57h95q-2 -58 -29.5 -100t-75 -64
t-108.5 -22q-79 0 -130.5 34z" />
    <glyph glyph-name="d" unicode="d" horiz-adv-x="574" 
d="M498 706v-706h-85v77q-25 -44 -66.5 -66t-95.5 -22q-71 0 -118 34.5t-69 92t-22 128.5q0 70 22 127.5t68.5 92.5t118.5 35q53 0 94.5 -22t66.5 -65v294h86zM412 258q0 78 -36 121.5t-101 43.5q-74 0 -108 -50t-34 -129q0 -80 33.5 -130t108.5 -50q65 0 101 43.5t36 122.5
v28z" />
    <glyph glyph-name="e" unicode="e" horiz-adv-x="548" 
d="M368.5 84q33.5 24 43.5 68h90q-8 -52 -38.5 -88.5t-77.5 -55.5t-105 -19q-81 0 -134.5 33.5t-79 91t-25.5 130.5q0 72 25.5 130t78 91.5t130.5 33.5q75 0 127.5 -32t78.5 -89q14 -32 19 -67t6 -85h-376q3 -78 37.5 -122t111.5 -44q55 0 88.5 24zM134 291h281
q-6 66 -39 102t-100 36q-125 0 -142 -138z" />
    <glyph glyph-name="f" unicode="f" horiz-adv-x="331" 
d="M95 415h-74v72h74v78q0 78 37.5 115t119.5 37q33 0 57 -6v-73q-26 6 -45 6q-82 0 -82 -87v-70h125v-72h-125v-415h-87v415z" />
    <glyph glyph-name="g" unicode="g" horiz-adv-x="573" 
d="M497 487v-478q0 -105 -53 -163.5t-169 -58.5q-96 0 -155 41.5t-66 121.5h92q2 -45 36.5 -69t91.5 -24q73 0 105.5 37.5t32.5 102.5v80q-25 -42 -66.5 -63.5t-97.5 -21.5q-71 0 -117 34.5t-67.5 91.5t-21.5 128q0 70 22 127.5t68 91.5t116 34q55 0 96.5 -22t67.5 -65v75
h85zM375.5 108q36.5 43 36.5 122v29q0 78 -36.5 121t-101.5 43q-74 0 -107.5 -50t-33.5 -128q0 -79 33.5 -129.5t107.5 -50.5q65 0 101.5 43z" />
    <glyph glyph-name="h" unicode="h" horiz-adv-x="559" 
d="M444.5 449q43.5 -50 43.5 -148v-301h-86v284q0 72 -28 105.5t-86 33.5q-61 0 -93.5 -35t-32.5 -103v-285h-87v706h87v-287q24 40 63 60t91 20q85 0 128.5 -50z" />
    <glyph glyph-name="i" unicode="i" horiz-adv-x="237" 
d="M78 609q-16 16 -16 40q0 25 16 41t41 16q24 0 41 -16.5t17 -40.5t-17 -40t-41 -16q-25 0 -41 16zM75 487h87v-487h-87v487z" />
    <glyph glyph-name="j" unicode="j" horiz-adv-x="237" 
d="M77.5 609q-16.5 16 -16.5 40q0 25 16.5 41t41.5 16q24 0 40.5 -16t16.5 -41q0 -24 -16.5 -40t-40.5 -16q-25 0 -41.5 16zM-21 -201v77q14 -2 33 -2q34 0 48.5 15.5t14.5 52.5v545h87v-553q0 -73 -32 -105.5t-102 -32.5q-23 0 -49 3z" />
    <glyph glyph-name="k" unicode="k" horiz-adv-x="474" 
d="M367 0l-205 241v-241h-87v706h87v-405l182 186h111l-214 -216l238 -271h-112z" />
    <glyph glyph-name="l" unicode="l" horiz-adv-x="237" 
d="M75 706h87v-706h-87v706z" />
    <glyph glyph-name="m" unicode="m" horiz-adv-x="859" 
d="M746.5 448.5q41.5 -50.5 41.5 -149.5v-299h-87v283q0 73 -26.5 106.5t-81.5 33.5q-57 0 -87.5 -36t-30.5 -103v-284h-87v283q0 73 -26 106.5t-81 33.5q-57 0 -88 -36t-31 -103v-284h-87v487h87v-64q22 37 60 56.5t89 19.5q118 0 151 -97q22 49 63 73t97 24
q83 0 124.5 -50.5z" />
    <glyph glyph-name="n" unicode="n" horiz-adv-x="559" 
d="M444.5 449q43.5 -50 43.5 -148v-301h-86v284q0 72 -28 105.5t-86 33.5q-61 0 -93.5 -35t-32.5 -103v-285h-87v487h87v-68q24 40 63 60t91 20q85 0 128.5 -50z" />
    <glyph glyph-name="o" unicode="o" horiz-adv-x="549" 
d="M143.5 23q-52.5 35 -77 93t-24.5 127q0 71 25 129t77 92.5t130 34.5q80 0 132 -35.5t76.5 -93.5t24.5 -127q0 -70 -24.5 -127.5t-77 -92.5t-131.5 -35q-78 0 -130.5 35zM383 114.5q32 50.5 32 128.5q0 81 -32.5 130.5t-108.5 49.5t-108.5 -50.5t-32.5 -129.5
q0 -80 33.5 -129.5t107.5 -49.5q77 0 109 50.5z" />
    <glyph glyph-name="p" unicode="p" horiz-adv-x="574" 
d="M441.5 464q46.5 -35 68.5 -92.5t22 -127.5q0 -71 -22 -128.5t-69 -92t-118 -34.5q-53 0 -94 21t-67 62v-273h-87v688h86v-73q26 42 67 63.5t95 21.5q72 0 118.5 -35zM407 115q33 50 33 129t-33.5 129t-107.5 50q-65 0 -101.5 -44t-36.5 -122v-27q0 -78 36.5 -121.5
t101.5 -43.5q75 0 108 50z" />
    <glyph glyph-name="q" unicode="q" horiz-adv-x="574" 
d="M498 487v-688h-86v274q-52 -84 -161 -84q-71 0 -118 34.5t-69 92t-22 128.5q0 70 22 127.5t68.5 92.5t118.5 35q54 0 95.5 -22t66.5 -64v74h85zM376 108.5q36 43.5 36 121.5v27q0 79 -36 122.5t-101 43.5q-74 0 -108 -50t-34 -129t33.5 -129t108.5 -50q65 0 101 43.5z
" />
    <glyph glyph-name="r" unicode="r" horiz-adv-x="348" 
d="M333 487v-78q-20 5 -45 5q-62 0 -94 -38.5t-32 -108.5v-267h-87v487h86v-66q18 35 49.5 53.5t75.5 18.5q26 0 47 -6z" />
    <glyph glyph-name="s" unicode="s" horiz-adv-x="469" 
d="M87 34.5q-47 46.5 -47 127.5h85q0 -50 26 -79t84 -29q52 0 77.5 20t25.5 56q0 28 -16 44.5t-39 24.5t-68 20q-51 13 -84.5 29t-53 43t-19.5 69t19.5 73.5t58.5 48.5t95 17q90 0 134 -41.5t44 -114.5h-84q0 44 -23 69t-72 25q-44 0 -66 -18.5t-22 -49.5q0 -25 16 -40
t37.5 -22.5t73.5 -21.5q54 -14 88.5 -31.5t53.5 -45t19 -70.5q0 -72 -51 -111t-143 -39q-102 0 -149 46.5z" />
    <glyph glyph-name="t" unicode="t" horiz-adv-x="356" 
d="M129.5 27.5q-33.5 35.5 -33.5 115.5v272h-76v72h76v118h86v-118h139v-72h-139v-260q0 -46 19.5 -67.5t59.5 -21.5q28 0 58 8v-72q-42 -10 -82 -10q-74 0 -107.5 35.5z" />
    <glyph glyph-name="u" unicode="u" horiz-adv-x="559" 
d="M484 487v-487h-86v68q-47 -80 -155 -80q-85 0 -128.5 50t-43.5 148v301h87v-284q0 -72 27.5 -105.5t86.5 -33.5q61 0 93.5 35t32.5 103v285h86z" />
    <glyph glyph-name="v" unicode="v" horiz-adv-x="499" 
d="M17 487h94l139 -386l138 386h94l-183 -487h-100z" />
    <glyph glyph-name="w" unicode="w" horiz-adv-x="752" 
d="M735 487l-167 -487h-85l-107 372l-106 -372h-86l-167 487h93l116 -376l111 376h78l110 -375l117 375h93z" />
    <glyph glyph-name="x" unicode="x" horiz-adv-x="522" 
d="M207 249l-183 238h105l132 -180l132 180h103l-181 -238l186 -249h-103l-137 189l-138 -189h-103z" />
    <glyph glyph-name="y" unicode="y" horiz-adv-x="510" 
d="M493 487l-285 -688h-89l84 202l-186 486h95l139 -390l149 390h93z" />
    <glyph glyph-name="z" unicode="z" horiz-adv-x="458" 
d="M162 72h271v-72h-415l279 415h-254v72h393z" />
    <glyph glyph-name="braceleft" unicode="{" horiz-adv-x="355" 
d="M208.5 360q-7.5 -25 -25 -38t-48.5 -17q31 -4 48.5 -17t25 -37.5t7.5 -64.5v-232q0 -45 20 -67.5t73 -22.5h22v-65h-51q-68 0 -102.5 37.5t-34.5 100.5v233q1 39 -7 59t-28.5 29t-60.5 9v75q41 0 61.5 9t28 29.5t6.5 59.5v230q0 63 34.5 101t102.5 38h51v-66h-22
q-53 0 -73 -22t-20 -68v-228q0 -40 -7.5 -65z" />
    <glyph glyph-name="bar" unicode="|" horiz-adv-x="415" 
d="M163 756h89v-957h-89v957z" />
    <glyph glyph-name="braceright" unicode="}" horiz-adv-x="355" 
d="M219.5 380.5q7.5 -20.5 28 -29.5t61.5 -9v-75q-41 0 -61.5 -9t-28 -29t-7.5 -59v-233q0 -63 -34 -100.5t-103 -37.5h-51v65h23q52 0 72.5 22.5t20.5 67.5v232q0 40 7.5 64.5t25 37.5t48.5 17q-31 4 -48.5 17t-25 37.5t-7.5 65.5v228q0 46 -20.5 68t-72.5 22h-23v66h51
q68 0 102.5 -38t34.5 -101v-230q0 -39 7.5 -59.5z" />
    <glyph glyph-name="asciitilde" unicode="~" horiz-adv-x="577" 
d="M331 204q-25 16 -54 46q-25 27 -41 38.5t-38 11.5q-32 0 -47 -28.5t-20 -80.5h-67q6 91 36 139.5t90 48.5q24 0 43.5 -8.5t33.5 -20t35 -32.5q23 -26 40 -38.5t39 -12.5q32 0 47 28t20 80h67q-6 -91 -36 -139t-89 -48q-34 0 -59 16z" />
    <glyph glyph-name="Aacute" unicode="&#xc1;" horiz-adv-x="630" 
d="M468 177h-305l-59 -177h-96l237 706h140l237 -706h-96zM443 252l-126 386h-2l-128 -386h256zM352 905h99l-123 -128h-90z" />
    <glyph glyph-name="Abreve" unicode="&#x102;" horiz-adv-x="630" 
d="M468 177h-305l-59 -177h-96l237 706h140l237 -706h-96zM443 252l-126 386h-2l-128 -386h256zM208 806q-38 34 -42 99h66q4 -41 24.5 -60t59.5 -19q40 0 60.5 19t25.5 60h62q-3 -66 -40 -99.5t-108 -33.5q-70 0 -108 34z" />
    <glyph glyph-name="Acircumflex" unicode="&#xc2;" horiz-adv-x="630" 
d="M468 177h-305l-59 -177h-96l237 706h140l237 -706h-96zM443 252l-126 386h-2l-128 -386h256zM262 905h106l118 -128h-90l-82 86l-81 -86h-89z" />
    <glyph glyph-name="Adieresis" unicode="&#xc4;" horiz-adv-x="630" 
d="M468 177h-305l-59 -177h-96l237 706h140l237 -706h-96zM443 252l-126 386h-2l-128 -386h256zM172.5 812q-15.5 15 -15.5 38t15.5 38.5t39.5 15.5q23 0 39 -15.5t16 -38.5t-16 -38t-39 -15q-24 0 -39.5 15zM380.5 812q-15.5 15 -15.5 38t15.5 38.5t39.5 15.5
q23 0 39 -15.5t16 -38.5t-16 -38t-39 -15q-24 0 -39.5 15z" />
    <glyph glyph-name="Agrave" unicode="&#xc0;" horiz-adv-x="630" 
d="M468 177h-305l-59 -177h-96l237 706h140l237 -706h-96zM443 252l-126 386h-2l-128 -386h256zM303 777l-123 128h99l114 -128h-90z" />
    <glyph glyph-name="Amacron" unicode="&#x100;" horiz-adv-x="630" 
d="M468 177h-305l-59 -177h-96l237 706h140l237 -706h-96zM443 252l-126 386h-2l-128 -386h256zM169 873h293v-63h-293v63z" />
    <glyph glyph-name="Aogonek" unicode="&#x104;" horiz-adv-x="630" 
d="M632 -146v-55q-27 -11 -64 -11q-47 0 -75 22.5t-28 63.5q0 35 22 64.5t65 61.5h-26l-58 177h-305l-59 -177h-96l237 706h140l237 -706q-45 -38 -64.5 -62t-19.5 -51q0 -21 12.5 -31.5t33.5 -10.5q24 0 48 9zM443 252l-126 386h-2l-128 -386h256z" />
    <glyph glyph-name="Aring" unicode="&#xc5;" horiz-adv-x="630" 
d="M468 177h-305l-59 -177h-96l237 706h140l237 -706h-96zM443 252l-126 386h-2l-128 -386h256zM255 757.5q-25 13.5 -39 37.5t-14 56t14 56t39 37t59 13t60 -13.5t40 -37.5t14 -55q0 -32 -14 -56t-40 -37.5t-60 -13.5t-59 13.5zM357 809q16 16 16 42q0 25 -16.5 41
t-42.5 16t-42 -15.5t-16 -41.5t16 -42t42 -16q27 0 43 16z" />
    <glyph glyph-name="Aringacute" unicode="&#x1fa;" horiz-adv-x="630" 
d="M468 177h-305l-59 -177h-96l237 706h140l237 -706h-96zM443 252l-126 386h-2l-128 -386h256zM255 757.5q-25 13.5 -39 37.5t-14 56t14 56t39 37t59 13t60 -13.5t40 -37.5t14 -55q0 -32 -14 -56t-40 -37.5t-60 -13.5t-59 13.5zM357 809q16 16 16 42q0 25 -16.5 41
t-42.5 16t-42 -15.5t-16 -41.5t16 -42t42 -16q27 0 43 16zM352 1156h99l-123 -128h-90z" />
    <glyph glyph-name="Atilde" unicode="&#xc3;" horiz-adv-x="630" 
d="M468 177h-305l-59 -177h-96l237 706h140l237 -706h-96zM443 252l-126 386h-2l-128 -386h256zM351 783q-20 10 -42 29q-5 4 -18.5 15t-25.5 16t-25 5q-46 0 -52 -73h-56q3 64 28 98.5t75 34.5q27 0 47.5 -10t42.5 -30q3 -2 15 -13t23.5 -16.5t24.5 -5.5q26 0 38 19t16 54
h57q-7 -133 -102 -133q-26 0 -46 10z" />
    <glyph glyph-name="AE" unicode="&#xc6;" horiz-adv-x="787" 
d="M445 628l28 -229h260v-78h-251l30 -243h224v-78h-309l-20 179h-232l-70 -179h-97l284 706h444v-78h-291zM398 254l-43 379h-2l-148 -379h193z" />
    <glyph glyph-name="AEacute" unicode="&#x1fc;" horiz-adv-x="787" 
d="M445 628l28 -229h260v-78h-251l30 -243h224v-78h-309l-20 179h-232l-70 -179h-97l284 706h444v-78h-291zM398 254l-43 379h-2l-148 -379h193zM482 905h99l-123 -128h-90z" />
    <glyph glyph-name="Cacute" unicode="&#x106;" horiz-adv-x="700" 
d="M183 33.5q-70 49.5 -101.5 132t-31.5 187.5q0 104 31.5 186.5t101.5 132.5t182 50q83 0 147 -32t101 -91t40 -139h-95q-2 57 -27 98t-68.5 62t-102.5 21q-117 0 -164.5 -78.5t-47.5 -209.5q0 -132 47 -210t166 -78q92 0 143.5 48t56.5 136h94q-1 -82 -38 -142t-102 -91.5
t-150 -31.5q-112 0 -182 49.5zM401 905h99l-123 -128h-90z" />
    <glyph glyph-name="Ccaron" unicode="&#x10c;" horiz-adv-x="700" 
d="M183 33.5q-70 49.5 -101.5 132t-31.5 187.5q0 104 31.5 186.5t101.5 132.5t182 50q83 0 147 -32t101 -91t40 -139h-95q-2 57 -27 98t-68.5 62t-102.5 21q-117 0 -164.5 -78.5t-47.5 -209.5q0 -132 47 -210t166 -78q92 0 143.5 48t56.5 136h94q-1 -82 -38 -142t-102 -91.5
t-150 -31.5q-112 0 -182 49.5zM282 905l81 -85l82 85h90l-118 -128h-106l-118 128h89z" />
    <glyph glyph-name="Ccedilla" unicode="&#xc7;" horiz-adv-x="700" 
d="M620 113q-34 -58 -93.5 -90.5t-137.5 -37.5l-10 -34h12q46 0 71.5 -22.5t25.5 -59.5q0 -45 -32 -67t-91 -22q-48 0 -80 14l10 48q31 -11 64 -11q64 0 64 40q0 19 -16 29t-51 10h-51l21 76q-98 9 -159.5 59.5t-89 130t-27.5 177.5q0 104 31.5 186.5t101.5 132.5t182 50
q83 0 147 -32t101 -91t40 -139h-95q-2 57 -27 98t-68.5 62t-102.5 21q-117 0 -164.5 -78.5t-47.5 -209.5q0 -132 47 -210t166 -78q92 0 143.5 48t56.5 136h94q-1 -78 -35 -136z" />
    <glyph glyph-name="Ccircumflex" unicode="&#x108;" horiz-adv-x="700" 
d="M183 33.5q-70 49.5 -101.5 132t-31.5 187.5q0 104 31.5 186.5t101.5 132.5t182 50q83 0 147 -32t101 -91t40 -139h-95q-2 57 -27 98t-68.5 62t-102.5 21q-117 0 -164.5 -78.5t-47.5 -209.5q0 -132 47 -210t166 -78q92 0 143.5 48t56.5 136h94q-1 -82 -38 -142t-102 -91.5
t-150 -31.5q-112 0 -182 49.5zM311 905h106l118 -128h-90l-82 86l-81 -86h-89z" />
    <glyph glyph-name="Cdotaccent" unicode="&#x10a;" horiz-adv-x="700" 
d="M183 33.5q-70 49.5 -101.5 132t-31.5 187.5q0 104 31.5 186.5t101.5 132.5t182 50q83 0 147 -32t101 -91t40 -139h-95q-2 57 -27 98t-68.5 62t-102.5 21q-117 0 -164.5 -78.5t-47.5 -209.5q0 -132 47 -210t166 -78q92 0 143.5 48t56.5 136h94q-1 -82 -38 -142t-102 -91.5
t-150 -31.5q-112 0 -182 49.5zM325.5 806.5q-15.5 14.5 -15.5 37.5t15.5 38t39.5 15q23 0 38.5 -15t15.5 -38q0 -22 -15.5 -37t-38.5 -15q-24 0 -39.5 14.5z" />
    <glyph glyph-name="Eth" unicode="&#xd0;" horiz-adv-x="691" 
d="M565.5 610.5q75.5 -95.5 75.5 -257.5q0 -163 -75.5 -258t-246.5 -95h-229v326h-58v67h58v313h229q171 0 246.5 -95.5zM450 113q52 35 72.5 95t20.5 145q0 86 -21 146t-73 94.5t-142 34.5h-124v-235h170v-67h-170v-248h124q91 0 143 35z" />
    <glyph glyph-name="Dcaron" unicode="&#x10e;" horiz-adv-x="691" 
d="M90 706h229q171 0 246.5 -95.5t75.5 -257.5q0 -163 -75.5 -258t-246.5 -95h-229v706zM307 78q91 0 143 35t72.5 95t20.5 145q0 86 -21 146t-73 94.5t-142 34.5h-124v-550h124zM248 905l81 -85l82 85h90l-118 -128h-106l-118 128h89z" />
    <glyph glyph-name="Dcroat" unicode="&#x110;" horiz-adv-x="691" 
d="M565.5 610.5q75.5 -95.5 75.5 -257.5q0 -163 -75.5 -258t-246.5 -95h-229v326h-58v67h58v313h229q171 0 246.5 -95.5zM450 113q52 35 72.5 95t20.5 145q0 86 -21 146t-73 94.5t-142 34.5h-124v-235h170v-67h-170v-248h124q91 0 143 35z" />
    <glyph glyph-name="Eacute" unicode="&#xc9;" horiz-adv-x="544" 
d="M90 706h403v-78h-310v-229h307v-78h-307v-243h310v-78h-403v706zM329 905h99l-123 -128h-90z" />
    <glyph glyph-name="Ebreve" unicode="&#x114;" horiz-adv-x="544" 
d="M90 706h403v-78h-310v-229h307v-78h-307v-243h310v-78h-403v706zM186 806q-38 34 -42 99h66q4 -41 24.5 -60t59.5 -19q40 0 60.5 19t25.5 60h62q-3 -66 -40 -99.5t-108 -33.5q-70 0 -108 34z" />
    <glyph glyph-name="Ecaron" unicode="&#x11a;" horiz-adv-x="544" 
d="M90 706h403v-78h-310v-229h307v-78h-307v-243h310v-78h-403v706zM211 905l81 -85l82 85h90l-118 -128h-106l-118 128h89z" />
    <glyph glyph-name="Ecircumflex" unicode="&#xca;" horiz-adv-x="544" 
d="M90 706h403v-78h-310v-229h307v-78h-307v-243h310v-78h-403v706zM240 905h106l118 -128h-90l-82 86l-81 -86h-89z" />
    <glyph glyph-name="Edieresis" unicode="&#xcb;" horiz-adv-x="544" 
d="M90 706h403v-78h-310v-229h307v-78h-307v-243h310v-78h-403v706zM149.5 812q-15.5 15 -15.5 38t15.5 38.5t39.5 15.5q23 0 39 -15.5t16 -38.5t-16 -38t-39 -15q-24 0 -39.5 15zM357.5 812q-15.5 15 -15.5 38t15.5 38.5t39.5 15.5q23 0 39 -15.5t16 -38.5t-16 -38t-39 -15
q-24 0 -39.5 15z" />
    <glyph glyph-name="Edotaccent" unicode="&#x116;" horiz-adv-x="544" 
d="M90 706h403v-78h-310v-229h307v-78h-307v-243h310v-78h-403v706zM253.5 806.5q-15.5 14.5 -15.5 37.5t15.5 38t39.5 15q23 0 38.5 -15t15.5 -38q0 -22 -15.5 -37t-38.5 -15q-24 0 -39.5 14.5z" />
    <glyph glyph-name="Egrave" unicode="&#xc8;" horiz-adv-x="544" 
d="M90 706h403v-78h-310v-229h307v-78h-307v-243h310v-78h-403v706zM281 777l-123 128h99l114 -128h-90z" />
    <glyph glyph-name="Emacron" unicode="&#x112;" horiz-adv-x="544" 
d="M90 706h403v-78h-310v-229h307v-78h-307v-243h310v-78h-403v706zM147 873h293v-63h-293v63z" />
    <glyph glyph-name="Eogonek" unicode="&#x118;" horiz-adv-x="544" 
d="M502 -146v-55q-26 -11 -64 -11q-47 0 -74.5 22.5t-27.5 63.5q0 35 22 64.5t65 61.5h-333v706h403v-78h-310v-229h307v-78h-307v-243h310v-78q-45 -38 -64.5 -62t-19.5 -51q0 -21 12.5 -31.5t33.5 -10.5q25 0 47 9z" />
    <glyph glyph-name="Gbreve" unicode="&#x11e;" horiz-adv-x="707" 
d="M657 369v-48q0 -152 -69.5 -244.5t-223.5 -92.5q-110 0 -180.5 49t-102 131.5t-31.5 188.5q0 107 32.5 189.5t103.5 131t182 48.5q83 0 145 -30.5t97.5 -87t39.5 -134.5h-91q-7 85 -56 127.5t-137 42.5q-121 0 -170 -78t-49 -209q0 -134 49.5 -210.5t170.5 -76.5
q108 0 153.5 59.5t46.5 163.5h-185v80h275zM257 806q-38 34 -42 99h66q4 -41 24.5 -60t59.5 -19q40 0 60.5 19t25.5 60h62q-3 -66 -40 -99.5t-108 -33.5q-70 0 -108 34z" />
    <glyph glyph-name="Gcircumflex" unicode="&#x11c;" horiz-adv-x="707" 
d="M657 369v-48q0 -152 -69.5 -244.5t-223.5 -92.5q-110 0 -180.5 49t-102 131.5t-31.5 188.5q0 107 32.5 189.5t103.5 131t182 48.5q83 0 145 -30.5t97.5 -87t39.5 -134.5h-91q-7 85 -56 127.5t-137 42.5q-121 0 -170 -78t-49 -209q0 -134 49.5 -210.5t170.5 -76.5
q108 0 153.5 59.5t46.5 163.5h-185v80h275zM311 905h106l118 -128h-90l-82 86l-81 -86h-89z" />
    <glyph glyph-name="Gcommaaccent" unicode="&#x122;" horiz-adv-x="707" 
d="M657 369v-48q0 -152 -69.5 -244.5t-223.5 -92.5q-110 0 -180.5 49t-102 131.5t-31.5 188.5q0 107 32.5 189.5t103.5 131t182 48.5q83 0 145 -30.5t97.5 -87t39.5 -134.5h-91q-7 85 -56 127.5t-137 42.5q-121 0 -170 -78t-49 -209q0 -134 49.5 -210.5t170.5 -76.5
q108 0 153.5 59.5t46.5 163.5h-185v80h275zM322 -53h89l-42 -148h-80z" />
    <glyph glyph-name="Gdotaccent" unicode="&#x120;" horiz-adv-x="707" 
d="M657 369v-48q0 -152 -69.5 -244.5t-223.5 -92.5q-110 0 -180.5 49t-102 131.5t-31.5 188.5q0 107 32.5 189.5t103.5 131t182 48.5q83 0 145 -30.5t97.5 -87t39.5 -134.5h-91q-7 85 -56 127.5t-137 42.5q-121 0 -170 -78t-49 -209q0 -134 49.5 -210.5t170.5 -76.5
q108 0 153.5 59.5t46.5 163.5h-185v80h275zM325.5 806.5q-15.5 14.5 -15.5 37.5t15.5 38t39.5 15q23 0 38.5 -15t15.5 -38q0 -22 -15.5 -37t-38.5 -15q-24 0 -39.5 14.5z" />
    <glyph glyph-name="Hbar" unicode="&#x126;" horiz-adv-x="687" 
d="M597 706v-706h-93v320h-321v-320h-93v706h93v-118h321v118h93zM504 400v128h-321v-128h321z" />
    <glyph glyph-name="Hcircumflex" unicode="&#x124;" horiz-adv-x="687" 
d="M90 706h93v-306h321v306h93v-706h-93v320h-321v-320h-93v706zM291 905h106l118 -128h-90l-82 86l-81 -86h-89z" />
    <glyph glyph-name="IJ" unicode="&#x132;" horiz-adv-x="634" 
d="M90 706h93v-706h-93v706zM296 2v84q30 -4 49 -4q45 0 72 14t39.5 44.5t12.5 82.5v483h92v-497q0 -109 -48 -160.5t-154 -51.5q-28 0 -63 5z" />
    <glyph glyph-name="Iacute" unicode="&#xcd;" horiz-adv-x="273" 
d="M90 706h93v-706h-93v706zM173 905h99l-123 -128h-90z" />
    <glyph glyph-name="Ibreve" unicode="&#x12c;" horiz-adv-x="273" 
d="M90 706h93v-706h-93v706zM42.5 805.5q-30.5 33.5 -30.5 99.5h64q2 -42 15.5 -60t45.5 -18t45.5 18t15.5 60h64q0 -67 -30 -100t-95 -33q-64 0 -94.5 33.5z" />
    <glyph glyph-name="Icircumflex" unicode="&#xce;" horiz-adv-x="273" 
d="M90 706h93v-706h-93v706zM86 905h99l85 -128h-78l-55 85l-56 -85h-78z" />
    <glyph glyph-name="Idieresis" unicode="&#xcf;" horiz-adv-x="273" 
d="M90 706h93v-706h-93v706zM29.5 804q-14.5 14 -14.5 35q0 23 14.5 37.5t36.5 14.5q21 0 35.5 -15t14.5 -37q0 -21 -14.5 -35t-35.5 -14q-22 0 -36.5 14zM173 803q-14 14 -14 35q0 23 14 37.5t36 14.5t36.5 -15t14.5 -37q0 -21 -14.5 -35t-36.5 -14t-36 14z" />
    <glyph glyph-name="Idotaccent" unicode="&#x130;" horiz-adv-x="273" 
d="M90 706h93v-706h-93v706zM97.5 806.5q-15.5 14.5 -15.5 37.5t15.5 38t39.5 15q23 0 38.5 -15t15.5 -38q0 -22 -15.5 -37t-38.5 -15q-24 0 -39.5 14.5z" />
    <glyph glyph-name="Igrave" unicode="&#xcc;" horiz-adv-x="273" 
d="M90 706h93v-706h-93v706zM124 777l-123 128h99l114 -128h-90z" />
    <glyph glyph-name="Imacron" unicode="&#x12a;" horiz-adv-x="273" 
d="M90 706h93v-706h-93v706zM21 872h229v-62h-229v62z" />
    <glyph glyph-name="Iogonek" unicode="&#x12e;" horiz-adv-x="273" 
d="M196 -146v-55q-22 -11 -53 -11q-43 0 -68 20.5t-25 57.5t16.5 69t49.5 65h-26v706h93v-706q-32 -39 -46 -65.5t-14 -55.5q0 -17 10 -25.5t27 -8.5q18 0 36 9z" />
    <glyph glyph-name="Itilde" unicode="&#x128;" horiz-adv-x="273" 
d="M90 706h93v-706h-93v706zM157.5 784q-14.5 10 -29.5 29t-25 27.5t-24 8.5q-19 0 -27 -18t-10 -54h-51q2 66 22.5 98t62.5 32q25 0 40.5 -10t29.5 -30q14 -19 23 -26.5t22 -7.5q20 0 28 17t11 55h52q-3 -68 -23 -99.5t-62 -31.5q-25 0 -39.5 10z" />
    <glyph glyph-name="uni00A40301" horiz-adv-x="360" 
d="M23 2v84q30 -4 49 -4q45 0 72 14t39.5 44.5t12.5 82.5v483h92v-497q0 -109 -48 -160.5t-154 -51.5q-28 0 -63 5zM278 905h99l-123 -128h-90z" />
    <glyph glyph-name="Jcircumflex" unicode="&#x134;" horiz-adv-x="360" 
d="M23 2v84q30 -4 49 -4q45 0 72 14t39.5 44.5t12.5 82.5v483h92v-497q0 -109 -48 -160.5t-154 -51.5q-28 0 -63 5zM192 905h99l85 -128h-78l-55 85l-56 -85h-78z" />
    <glyph glyph-name="Kcommaaccent" unicode="&#x136;" horiz-adv-x="592" 
d="M470 0l-287 351v-351h-93v706h93v-291l250 291h109l-276 -319l318 -387h-114zM273 -53h89l-42 -148h-80z" />
    <glyph glyph-name="Lacute" unicode="&#x139;" horiz-adv-x="478" 
d="M90 706h93v-624h272v-82h-365v706zM170 905h99l-123 -128h-90z" />
    <glyph glyph-name="Lcaron" unicode="&#x13d;" horiz-adv-x="478" 
d="M90 706h93v-624h272v-82h-365v706zM296 706h77l-37 -167h-68z" />
    <glyph glyph-name="Lcommaaccent" unicode="&#x13b;" horiz-adv-x="478" 
d="M90 706h93v-624h272v-82h-365v706zM219 -53h89l-42 -148h-80z" />
    <glyph glyph-name="Ldot" unicode="&#x13f;" horiz-adv-x="529" 
d="M90 706h93v-624h272v-82h-365v706zM357 350q-17 17 -17 43q0 28 17 45t45 17q27 0 44.5 -17.5t17.5 -44.5q0 -26 -18 -43t-44 -17q-28 0 -45 17z" />
    <glyph glyph-name="Lslash" unicode="&#x141;" horiz-adv-x="478" 
d="M455 82v-82h-365v312l-62 -41v76l62 41v318h93v-268l138 93v-77l-138 -93v-279h272z" />
    <glyph glyph-name="Nacute" unicode="&#x143;" horiz-adv-x="712" 
d="M90 706h96l346 -564v564h90v-706h-96l-346 564v-564h-90v706zM393 905h99l-123 -128h-90z" />
    <glyph glyph-name="Ncaron" unicode="&#x147;" horiz-adv-x="712" 
d="M90 706h96l346 -564v564h90v-706h-96l-346 564v-564h-90v706zM275 905l81 -85l82 85h90l-118 -128h-106l-118 128h89z" />
    <glyph glyph-name="Ncommaaccent" unicode="&#x145;" horiz-adv-x="712" 
d="M90 706h96l346 -564v564h90v-706h-96l-346 564v-564h-90v706zM309 -53h89l-42 -148h-80z" />
    <glyph glyph-name="Eng" unicode="&#x14a;" horiz-adv-x="712" 
d="M622 706v-776q0 -70 -31 -101.5t-100 -31.5q-34 0 -54 2v75q26 -2 31 -2q34 0 49.5 17t15.5 54v57l-353 564v-564h-90v706h96l346 -554v554h90z" />
    <glyph glyph-name="Ntilde" unicode="&#xd1;" horiz-adv-x="712" 
d="M90 706h96l346 -564v564h90v-706h-96l-346 564v-564h-90v706zM392 783q-20 10 -42 29q-5 4 -18.5 15t-25.5 16t-25 5q-46 0 -52 -73h-56q3 64 28 98.5t75 34.5q27 0 47.5 -10t42.5 -30q3 -2 15 -13t23.5 -16.5t24.5 -5.5q26 0 38 19t16 54h57q-7 -133 -102 -133
q-26 0 -46 10z" />
    <glyph glyph-name="Oacute" unicode="&#xd3;" horiz-adv-x="729" 
d="M182.5 34q-70.5 50 -101.5 133t-31 186q0 104 31.5 186.5t101.5 132.5t182 50t182 -49.5t101 -132t31 -187.5t-31.5 -188t-101.5 -132t-181 -49q-112 0 -182.5 50zM582 353q0 288 -217 288q-120 0 -168.5 -79t-48.5 -209t48.5 -209t168.5 -79q217 0 217 288zM401 905h99
l-123 -128h-90z" />
    <glyph glyph-name="Obreve" unicode="&#x14e;" horiz-adv-x="729" 
d="M182.5 34q-70.5 50 -101.5 133t-31 186q0 104 31.5 186.5t101.5 132.5t182 50t182 -49.5t101 -132t31 -187.5t-31.5 -188t-101.5 -132t-181 -49q-112 0 -182.5 50zM582 353q0 288 -217 288q-120 0 -168.5 -79t-48.5 -209t48.5 -209t168.5 -79q217 0 217 288zM258 806
q-38 34 -42 99h66q4 -41 24.5 -60t59.5 -19q40 0 60.5 19t25.5 60h62q-3 -66 -40 -99.5t-108 -33.5q-70 0 -108 34z" />
    <glyph glyph-name="Ocircumflex" unicode="&#xd4;" horiz-adv-x="729" 
d="M182.5 34q-70.5 50 -101.5 133t-31 186q0 104 31.5 186.5t101.5 132.5t182 50t182 -49.5t101 -132t31 -187.5t-31.5 -188t-101.5 -132t-181 -49q-112 0 -182.5 50zM582 353q0 288 -217 288q-120 0 -168.5 -79t-48.5 -209t48.5 -209t168.5 -79q217 0 217 288zM312 905h106
l118 -128h-90l-82 86l-81 -86h-89z" />
    <glyph glyph-name="Odieresis" unicode="&#xd6;" horiz-adv-x="729" 
d="M182.5 34q-70.5 50 -101.5 133t-31 186q0 104 31.5 186.5t101.5 132.5t182 50t182 -49.5t101 -132t31 -187.5t-31.5 -188t-101.5 -132t-181 -49q-112 0 -182.5 50zM582 353q0 288 -217 288q-120 0 -168.5 -79t-48.5 -209t48.5 -209t168.5 -79q217 0 217 288zM221.5 812
q-15.5 15 -15.5 38t15.5 38.5t39.5 15.5q23 0 39 -15.5t16 -38.5t-16 -38t-39 -15q-24 0 -39.5 15zM429.5 812q-15.5 15 -15.5 38t15.5 38.5t39.5 15.5q23 0 39 -15.5t16 -38.5t-16 -38t-39 -15q-24 0 -39.5 15z" />
    <glyph glyph-name="Ograve" unicode="&#xd2;" horiz-adv-x="729" 
d="M182.5 34q-70.5 50 -101.5 133t-31 186q0 104 31.5 186.5t101.5 132.5t182 50t182 -49.5t101 -132t31 -187.5t-31.5 -188t-101.5 -132t-181 -49q-112 0 -182.5 50zM582 353q0 288 -217 288q-120 0 -168.5 -79t-48.5 -209t48.5 -209t168.5 -79q217 0 217 288zM352 777
l-123 128h99l114 -128h-90z" />
    <glyph glyph-name="Ohungarumlaut" unicode="&#x150;" horiz-adv-x="729" 
d="M182.5 34q-70.5 50 -101.5 133t-31 186q0 104 31.5 186.5t101.5 132.5t182 50t182 -49.5t101 -132t31 -187.5t-31.5 -188t-101.5 -132t-181 -49q-112 0 -182.5 50zM582 353q0 288 -217 288q-120 0 -168.5 -79t-48.5 -209t48.5 -209t168.5 -79q217 0 217 288zM351 905h84
l-122 -127h-71zM500 905h83l-121 -127h-71z" />
    <glyph glyph-name="Omacron" unicode="&#x14c;" horiz-adv-x="729" 
d="M182.5 34q-70.5 50 -101.5 133t-31 186q0 104 31.5 186.5t101.5 132.5t182 50t182 -49.5t101 -132t31 -187.5t-31.5 -188t-101.5 -132t-181 -49q-112 0 -182.5 50zM582 353q0 288 -217 288q-120 0 -168.5 -79t-48.5 -209t48.5 -209t168.5 -79q217 0 217 288zM218 873h293
v-63h-293v63z" />
    <glyph glyph-name="Oslash" unicode="&#xd8;" horiz-adv-x="729" 
d="M617 602q32 -49 47 -112t15 -137q0 -105 -31.5 -188t-101.5 -132t-181 -49q-136 0 -217 78l-54 -62h-72l92 104q-33 48 -48.5 112t-15.5 137q0 104 31.5 186.5t101.5 132.5t182 50q137 0 217 -78l54 62h72zM196.5 562q-48.5 -79 -48.5 -209q0 -111 31 -178l341 404
q-55 62 -155 62q-120 0 -168.5 -79zM582 353q0 111 -32 178l-341 -403q55 -63 156 -63q217 0 217 288z" />
    <glyph glyph-name="Oslashacute" unicode="&#x1fe;" horiz-adv-x="729" 
d="M617 602q32 -49 47 -112t15 -137q0 -105 -31.5 -188t-101.5 -132t-181 -49q-136 0 -217 78l-54 -62h-72l92 104q-33 48 -48.5 112t-15.5 137q0 104 31.5 186.5t101.5 132.5t182 50q137 0 217 -78l54 62h72zM196.5 562q-48.5 -79 -48.5 -209q0 -111 31 -178l341 404
q-55 62 -155 62q-120 0 -168.5 -79zM582 353q0 111 -32 178l-341 -403q55 -63 156 -63q217 0 217 288zM401 905h99l-123 -128h-90z" />
    <glyph glyph-name="Otilde" unicode="&#xd5;" horiz-adv-x="729" 
d="M182.5 34q-70.5 50 -101.5 133t-31 186q0 104 31.5 186.5t101.5 132.5t182 50t182 -49.5t101 -132t31 -187.5t-31.5 -188t-101.5 -132t-181 -49q-112 0 -182.5 50zM582 353q0 288 -217 288q-120 0 -168.5 -79t-48.5 -209t48.5 -209t168.5 -79q217 0 217 288zM400 783
q-20 10 -42 29q-5 4 -18.5 15t-25.5 16t-25 5q-46 0 -52 -73h-56q3 64 28 98.5t75 34.5q27 0 47.5 -10t42.5 -30q3 -2 15 -13t23.5 -16.5t24.5 -5.5q26 0 38 19t16 54h57q-7 -133 -102 -133q-26 0 -46 10z" />
    <glyph glyph-name="OE" unicode="&#x152;" horiz-adv-x="1008" 
d="M648 628v-229h306v-78h-306v-243h309v-78h-391v88q-73 -101 -216 -101q-108 0 -175 49.5t-96 131.5t-29 185q0 102 30 184.5t97 132t173 49.5q144 0 216 -101v88h391v-78h-309zM512 146q45 79 45 207q0 129 -45.5 207.5t-158.5 78.5q-114 0 -159.5 -79t-45.5 -207
q0 -130 46 -208t159 -78q114 0 159 79z" />
    <glyph glyph-name="Thorn" unicode="&#xde;" horiz-adv-x="574" 
d="M90 706h93v-121h117q132 0 191.5 -58.5t59.5 -167.5q0 -112 -59.5 -170.5t-191.5 -58.5h-117v-130h-93v706zM282 206q93 0 132.5 38t39.5 115q0 75 -40 112.5t-132 37.5h-99v-303h99z" />
    <glyph glyph-name="Racute" unicode="&#x154;" horiz-adv-x="621" 
d="M276 316h-93v-316h-93v706h246q119 0 174 -51t55 -141q0 -178 -187 -196l229 -318h-105zM183 387h132q81 0 117 30.5t36 93.5q0 62 -36 91.5t-117 29.5h-132v-245zM348 905h99l-123 -128h-90z" />
    <glyph glyph-name="Rcaron" unicode="&#x158;" horiz-adv-x="621" 
d="M276 316h-93v-316h-93v706h246q119 0 174 -51t55 -141q0 -178 -187 -196l229 -318h-105zM183 387h132q81 0 117 30.5t36 93.5q0 62 -36 91.5t-117 29.5h-132v-245zM229 905l81 -85l82 85h90l-118 -128h-106l-118 128h89z" />
    <glyph glyph-name="Rcommaaccent" unicode="&#x156;" horiz-adv-x="621" 
d="M276 316h-93v-316h-93v706h246q119 0 174 -51t55 -141q0 -178 -187 -196l229 -318h-105zM183 387h132q81 0 117 30.5t36 93.5q0 62 -36 91.5t-117 29.5h-132v-245zM295 -53h89l-42 -148h-80z" />
    <glyph glyph-name="Sacute" unicode="&#x15a;" horiz-adv-x="597" 
d="M99.5 50.5q-62.5 66.5 -62.5 178.5h101q0 -81 37 -125.5t126 -44.5q52 0 87.5 16t53.5 44t18 65q0 43 -24 69t-63 41t-116 37q-68 19 -112 42t-68.5 60t-24.5 92q0 56 27.5 100.5t81 70.5t129.5 26q83 0 136.5 -30t78.5 -82.5t25 -121.5h-96q0 76 -34 118t-112 42
q-46 0 -77.5 -15t-47.5 -40.5t-16 -57.5q0 -41 23 -65t58.5 -37t115.5 -35q76 -22 121.5 -45t70 -61t24.5 -97q0 -64 -30 -111.5t-88.5 -73.5t-141.5 -26q-138 0 -200.5 66.5zM335 905h99l-123 -128h-90z" />
    <glyph glyph-name="Scaron" unicode="&#x160;" horiz-adv-x="597" 
d="M99.5 50.5q-62.5 66.5 -62.5 178.5h101q0 -81 37 -125.5t126 -44.5q52 0 87.5 16t53.5 44t18 65q0 43 -24 69t-63 41t-116 37q-68 19 -112 42t-68.5 60t-24.5 92q0 56 27.5 100.5t81 70.5t129.5 26q83 0 136.5 -30t78.5 -82.5t25 -121.5h-96q0 76 -34 118t-112 42
q-46 0 -77.5 -15t-47.5 -40.5t-16 -57.5q0 -41 23 -65t58.5 -37t115.5 -35q76 -22 121.5 -45t70 -61t24.5 -97q0 -64 -30 -111.5t-88.5 -73.5t-141.5 -26q-138 0 -200.5 66.5zM216 905l81 -85l82 85h90l-118 -128h-106l-118 128h89z" />
    <glyph glyph-name="Scedilla" unicode="&#x15e;" horiz-adv-x="597" 
d="M533 88.5q-27 -46.5 -80 -73.5t-129 -30l-10 -34h12q46 0 71.5 -22.5t25.5 -59.5q0 -45 -32 -67t-91 -22q-47 0 -81 14l11 48q30 -11 63 -11q65 0 65 40q0 19 -16 29t-51 10h-51l21 76q-117 9 -170.5 74.5t-53.5 168.5h101q0 -81 37 -125.5t126 -44.5q52 0 87.5 16
t53.5 44t18 65q0 43 -24 69t-63 41t-116 37q-68 19 -112 42t-68.5 60t-24.5 92q0 56 27.5 100.5t81 70.5t129.5 26q83 0 136.5 -30t78.5 -82.5t25 -121.5h-96q0 76 -34 118t-112 42q-46 0 -77.5 -15t-47.5 -40.5t-16 -57.5q0 -41 23 -65t58.5 -37t115.5 -35
q76 -22 121.5 -45t70 -61t24.5 -97q0 -60 -27 -106.5z" />
    <glyph glyph-name="Scircumflex" unicode="&#x15c;" horiz-adv-x="597" 
d="M99.5 50.5q-62.5 66.5 -62.5 178.5h101q0 -81 37 -125.5t126 -44.5q52 0 87.5 16t53.5 44t18 65q0 43 -24 69t-63 41t-116 37q-68 19 -112 42t-68.5 60t-24.5 92q0 56 27.5 100.5t81 70.5t129.5 26q83 0 136.5 -30t78.5 -82.5t25 -121.5h-96q0 76 -34 118t-112 42
q-46 0 -77.5 -15t-47.5 -40.5t-16 -57.5q0 -41 23 -65t58.5 -37t115.5 -35q76 -22 121.5 -45t70 -61t24.5 -97q0 -64 -30 -111.5t-88.5 -73.5t-141.5 -26q-138 0 -200.5 66.5zM245 905h106l118 -128h-90l-82 86l-81 -86h-89z" />
    <glyph glyph-name="Scommaaccent" unicode="&#x218;" horiz-adv-x="597" 
d="M99.5 50.5q-62.5 66.5 -62.5 178.5h101q0 -81 37 -125.5t126 -44.5q52 0 87.5 16t53.5 44t18 65q0 43 -24 69t-63 41t-116 37q-68 19 -112 42t-68.5 60t-24.5 92q0 56 27.5 100.5t81 70.5t129.5 26q83 0 136.5 -30t78.5 -82.5t25 -121.5h-96q0 76 -34 118t-112 42
q-46 0 -77.5 -15t-47.5 -40.5t-16 -57.5q0 -41 23 -65t58.5 -37t115.5 -35q76 -22 121.5 -45t70 -61t24.5 -97q0 -64 -30 -111.5t-88.5 -73.5t-141.5 -26q-138 0 -200.5 66.5zM256 -53h89l-42 -148h-80z" />
    <glyph glyph-name="Germandbls" unicode="&#x1e9e;" horiz-adv-x="657" 
d="M572.5 345.5q42.5 -55.5 42.5 -135.5q0 -100 -61 -156.5t-183 -56.5q-62 0 -103 8v80q35 -7 86 -7q86 0 125.5 35t39.5 100q0 68 -38 103.5t-121 35.5q-18 0 -36 -2v2l134 274h-275v-626h-93v706h495v-4l-141 -288q86 -13 128.5 -68.5z" />
    <glyph glyph-name="Schwa" unicode="&#x18f;" horiz-adv-x="707" 
d="M521 673.5q71 -48.5 103.5 -131t32.5 -189.5q0 -106 -32 -188.5t-102 -131.5t-181 -49q-153 0 -222.5 93t-69.5 244v48h509q-3 125 -51.5 198.5t-166.5 73.5q-88 0 -137.5 -43t-56.5 -128h-91q4 78 39.5 135t98 87t145.5 30q111 0 182 -48.5zM497.5 126.5
q50.5 61.5 59.5 170.5h-417v-4q0 -105 45.5 -166.5t154.5 -61.5q107 0 157.5 61.5z" />
    <glyph glyph-name="Tbar" unicode="&#x166;" horiz-adv-x="554" 
d="M324 628v-191h128v-63h-128v-374h-93v374h-129v63h129v191h-208v78h508v-78h-207z" />
    <glyph glyph-name="Tcaron" unicode="&#x164;" horiz-adv-x="554" 
d="M231 628h-208v78h508v-78h-207v-628h-93v628zM194 905l81 -85l82 85h90l-118 -128h-106l-118 128h89z" />
    <glyph glyph-name="uni0162" unicode="&#x162;" horiz-adv-x="554" 
d="M308 0l-14 -49h11q46 0 72 -22.5t26 -59.5q0 -45 -32 -67t-92 -22q-48 0 -80 14l10 48q31 -11 64 -11q64 0 64 40q0 19 -16 29t-51 10h-51l25 90h-13v628h-208v78h508v-78h-207v-628h-16z" />
    <glyph glyph-name="uni021A" unicode="&#x21a;" horiz-adv-x="554" 
d="M231 628h-208v78h508v-78h-207v-628h-93v628zM235 -53h89l-42 -148h-80z" />
    <glyph glyph-name="Uacute" unicode="&#xda;" horiz-adv-x="643" 
d="M132.5 42.5q-60.5 58.5 -60.5 178.5v485h93v-480q0 -83 36.5 -122t119.5 -39q84 0 121 39t37 122v480h92v-485q0 -120 -61 -178.5t-189 -58.5t-188.5 58.5zM359 905h99l-123 -128h-90z" />
    <glyph glyph-name="Ubreve" unicode="&#x16c;" horiz-adv-x="643" 
d="M132.5 42.5q-60.5 58.5 -60.5 178.5v485h93v-480q0 -83 36.5 -122t119.5 -39q84 0 121 39t37 122v480h92v-485q0 -120 -61 -178.5t-189 -58.5t-188.5 58.5zM215 806q-38 34 -42 99h66q4 -41 24.5 -60t59.5 -19q40 0 60.5 19t25.5 60h62q-3 -66 -40 -99.5t-108 -33.5
q-70 0 -108 34z" />
    <glyph glyph-name="Ucircumflex" unicode="&#xdb;" horiz-adv-x="643" 
d="M132.5 42.5q-60.5 58.5 -60.5 178.5v485h93v-480q0 -83 36.5 -122t119.5 -39q84 0 121 39t37 122v480h92v-485q0 -120 -61 -178.5t-189 -58.5t-188.5 58.5zM269 905h106l118 -128h-90l-82 86l-81 -86h-89z" />
    <glyph glyph-name="Udieresis" unicode="&#xdc;" horiz-adv-x="643" 
d="M132.5 42.5q-60.5 58.5 -60.5 178.5v485h93v-480q0 -83 36.5 -122t119.5 -39q84 0 121 39t37 122v480h92v-485q0 -120 -61 -178.5t-189 -58.5t-188.5 58.5zM179.5 812q-15.5 15 -15.5 38t15.5 38.5t39.5 15.5q23 0 39 -15.5t16 -38.5t-16 -38t-39 -15q-24 0 -39.5 15z
M387.5 812q-15.5 15 -15.5 38t15.5 38.5t39.5 15.5q23 0 39 -15.5t16 -38.5t-16 -38t-39 -15q-24 0 -39.5 15z" />
    <glyph glyph-name="Ugrave" unicode="&#xd9;" horiz-adv-x="643" 
d="M132.5 42.5q-60.5 58.5 -60.5 178.5v485h93v-480q0 -83 36.5 -122t119.5 -39q84 0 121 39t37 122v480h92v-485q0 -120 -61 -178.5t-189 -58.5t-188.5 58.5zM310 777l-123 128h99l114 -128h-90z" />
    <glyph glyph-name="Uhungarumlaut" unicode="&#x170;" horiz-adv-x="643" 
d="M132.5 42.5q-60.5 58.5 -60.5 178.5v485h93v-480q0 -83 36.5 -122t119.5 -39q84 0 121 39t37 122v480h92v-485q0 -120 -61 -178.5t-189 -58.5t-188.5 58.5zM309 905h84l-122 -127h-71zM458 905h83l-121 -127h-71z" />
    <glyph glyph-name="Umacron" unicode="&#x16a;" horiz-adv-x="643" 
d="M132.5 42.5q-60.5 58.5 -60.5 178.5v485h93v-480q0 -83 36.5 -122t119.5 -39q84 0 121 39t37 122v480h92v-485q0 -120 -61 -178.5t-189 -58.5t-188.5 58.5zM176 873h293v-63h-293v63z" />
    <glyph glyph-name="Uogonek" unicode="&#x172;" horiz-adv-x="643" 
d="M571 706v-485q0 -75 -23 -123.5t-69 -87.5q-45 -39 -64.5 -64.5t-19.5 -54.5q0 -23 12.5 -35t34.5 -12q20 0 47 10v-55q-31 -11 -63 -11q-47 0 -75 24t-28 66q0 31 15.5 57t45.5 53q-25 -4 -63 -4q-128 0 -188.5 58.5t-60.5 178.5v485h93v-480q0 -83 36.5 -121.5
t119.5 -38.5q84 0 121 39t37 121v480h92z" />
    <glyph glyph-name="Uring" unicode="&#x16e;" horiz-adv-x="643" 
d="M132.5 42.5q-60.5 58.5 -60.5 178.5v485h93v-480q0 -83 36.5 -122t119.5 -39q84 0 121 39t37 122v480h92v-485q0 -120 -61 -178.5t-189 -58.5t-188.5 58.5zM262 757.5q-25 13.5 -39 37.5t-14 56t14 56t39 37t59 13t60 -13.5t40 -37.5t14 -55q0 -32 -14 -56t-40 -37.5
t-60 -13.5t-59 13.5zM364 809q16 16 16 42q0 25 -16.5 41t-42.5 16t-42 -15.5t-16 -41.5t16 -42t42 -16q27 0 43 16z" />
    <glyph glyph-name="Utilde" unicode="&#x168;" horiz-adv-x="643" 
d="M132.5 42.5q-60.5 58.5 -60.5 178.5v485h93v-480q0 -83 36.5 -122t119.5 -39q84 0 121 39t37 122v480h92v-485q0 -120 -61 -178.5t-189 -58.5t-188.5 58.5zM358 783q-20 10 -42 29q-5 4 -18.5 15t-25.5 16t-25 5q-46 0 -52 -73h-56q3 64 28 98.5t75 34.5q27 0 47.5 -10
t42.5 -30q3 -2 15 -13t23.5 -16.5t24.5 -5.5q26 0 38 19t16 54h57q-7 -133 -102 -133q-26 0 -46 10z" />
    <glyph glyph-name="Wacute" unicode="&#x1e82;" horiz-adv-x="896" 
d="M887 706l-192 -706h-99l-148 579l-148 -579h-97l-195 706h92l152 -574l147 574h100l145 -571l153 571h90zM485 905h99l-123 -128h-90z" />
    <glyph glyph-name="Wcircumflex" unicode="&#x174;" horiz-adv-x="896" 
d="M887 706l-192 -706h-99l-148 579l-148 -579h-97l-195 706h92l152 -574l147 574h100l145 -571l153 571h90zM396 905h106l118 -128h-90l-82 86l-81 -86h-89z" />
    <glyph glyph-name="Wdieresis" unicode="&#x1e84;" horiz-adv-x="896" 
d="M887 706l-192 -706h-99l-148 579l-148 -579h-97l-195 706h92l152 -574l147 574h100l145 -571l153 571h90zM305.5 812q-15.5 15 -15.5 38t15.5 38.5t39.5 15.5q23 0 39 -15.5t16 -38.5t-16 -38t-39 -15q-24 0 -39.5 15zM513.5 812q-15.5 15 -15.5 38t15.5 38.5t39.5 15.5
q23 0 39 -15.5t16 -38.5t-16 -38t-39 -15q-24 0 -39.5 15z" />
    <glyph glyph-name="Wgrave" unicode="&#x1e80;" horiz-adv-x="896" 
d="M887 706l-192 -706h-99l-148 579l-148 -579h-97l-195 706h92l152 -574l147 574h100l145 -571l153 571h90zM437 777l-123 128h99l114 -128h-90z" />
    <glyph glyph-name="Yacute" unicode="&#xdd;" horiz-adv-x="563" 
d="M236 304l-228 402h102l173 -311l172 311h100l-227 -402v-304h-92v304zM319 905h99l-123 -128h-90z" />
    <glyph glyph-name="Ycircumflex" unicode="&#x176;" horiz-adv-x="563" 
d="M236 304l-228 402h102l173 -311l172 311h100l-227 -402v-304h-92v304zM229 905h106l118 -128h-90l-82 86l-81 -86h-89z" />
    <glyph glyph-name="Ydieresis" unicode="&#x178;" horiz-adv-x="563" 
d="M236 304l-228 402h102l173 -311l172 311h100l-227 -402v-304h-92v304zM139.5 812q-15.5 15 -15.5 38t15.5 38.5t39.5 15.5q23 0 39 -15.5t16 -38.5t-16 -38t-39 -15q-24 0 -39.5 15zM347.5 812q-15.5 15 -15.5 38t15.5 38.5t39.5 15.5q23 0 39 -15.5t16 -38.5t-16 -38
t-39 -15q-24 0 -39.5 15z" />
    <glyph glyph-name="Ygrave" unicode="&#x1ef2;" horiz-adv-x="563" 
d="M236 304l-228 402h102l173 -311l172 311h100l-227 -402v-304h-92v304zM270 777l-123 128h99l114 -128h-90z" />
    <glyph glyph-name="Zacute" unicode="&#x179;" horiz-adv-x="571" 
d="M386 626h-346v80h491l-361 -626h374v-80h-521zM318 905h99l-123 -128h-90z" />
    <glyph glyph-name="Zcaron" unicode="&#x17d;" horiz-adv-x="571" 
d="M386 626h-346v80h491l-361 -626h374v-80h-521zM199 905l81 -85l82 85h90l-118 -128h-106l-118 128h89z" />
    <glyph glyph-name="Zdotaccent" unicode="&#x17b;" horiz-adv-x="571" 
d="M386 626h-346v80h491l-361 -626h374v-80h-521zM242.5 806.5q-15.5 14.5 -15.5 37.5t15.5 38t39.5 15q23 0 38.5 -15t15.5 -38q0 -22 -15.5 -37t-38.5 -15q-24 0 -39.5 14.5z" />
    <glyph glyph-name="M.ss01" horiz-adv-x="801" 
d="M90 706h117l195 -313l192 313h117v-706h-90v596l-199 -322h-42l-200 322v-596h-90v706z" />
    <glyph glyph-name="Q.ss02" horiz-adv-x="729" 
d="M637 140q-42 -91 -132 -130l72 -135l-83 -38l-75 150q-25 -3 -54 -3q-112 0 -182.5 50t-101.5 133t-31 186q0 104 31.5 186.5t101.5 132.5t182 50t182 -49.5t101 -132t31 -187.5q0 -122 -42 -213zM582 353q0 288 -217 288q-120 0 -168.5 -79t-48.5 -209t48.5 -209
t168.5 -79q217 0 217 288z" />
    <glyph glyph-name="Oslash.ss04" horiz-adv-x="729" 
d="M611 610q35 -49 51.5 -114.5t16.5 -142.5q0 -105 -31.5 -188t-101.5 -132t-181 -49q-112 0 -187 53l-78 -99l-68 52l87 107q-35 49 -52 115t-17 141q0 104 31.5 186.5t101.5 132.5t182 50t187 -53l78 99l67 -52zM582 353q0 288 -217 288q-120 0 -168.5 -79t-48.5 -209
t48.5 -209t168.5 -79q217 0 217 288z" />
    <glyph glyph-name="aacute" unicode="&#xe1;" horiz-adv-x="540" 
d="M385 474q45 -25 64 -71t19 -114v-289h-87v65q-24 -37 -66 -57t-101 -20q-85 0 -129.5 40t-44.5 107q0 81 60 116t176 35h105v16q0 43 -10.5 71t-36 43t-70.5 15q-60 0 -88.5 -25t-28.5 -71h-89q0 77 52.5 120.5t152.5 43.5q77 0 122 -25zM349 101.5q32 43.5 32 120.5v2
h-98q-76 0 -113 -18t-37 -63q0 -40 27 -62.5t79 -22.5q78 0 110 43.5zM288 726h90l-101 -154h-82z" />
    <glyph glyph-name="abreve" unicode="&#x103;" horiz-adv-x="540" 
d="M385 474q45 -25 64 -71t19 -114v-289h-87v65q-24 -37 -66 -57t-101 -20q-85 0 -129.5 40t-44.5 107q0 81 60 116t176 35h105v16q0 43 -10.5 71t-36 43t-70.5 15q-60 0 -88.5 -25t-28.5 -71h-89q0 77 52.5 120.5t152.5 43.5q77 0 122 -25zM349 101.5q32 43.5 32 120.5v2
h-98q-76 0 -113 -18t-37 -63q0 -40 27 -62.5t79 -22.5q78 0 110 43.5zM149 608q-37 40 -41 119h67q4 -54 23.5 -79t63.5 -25t63.5 24.5t24.5 79.5h66q-4 -79 -40.5 -119t-113.5 -40q-76 0 -113 40z" />
    <glyph glyph-name="acircumflex" unicode="&#xe2;" horiz-adv-x="540" 
d="M385 474q45 -25 64 -71t19 -114v-289h-87v65q-24 -37 -66 -57t-101 -20q-85 0 -129.5 40t-44.5 107q0 81 60 116t176 35h105v16q0 43 -10.5 71t-36 43t-70.5 15q-60 0 -88.5 -25t-28.5 -71h-89q0 77 52.5 120.5t152.5 43.5q77 0 122 -25zM349 101.5q32 43.5 32 120.5v2
h-98q-76 0 -113 -18t-37 -63q0 -40 27 -62.5t79 -22.5q78 0 110 43.5zM209 727h108l103 -156h-83l-74 113l-73 -113h-84z" />
    <glyph glyph-name="adieresis" unicode="&#xe4;" horiz-adv-x="540" 
d="M385 474q45 -25 64 -71t19 -114v-289h-87v65q-24 -37 -66 -57t-101 -20q-85 0 -129.5 40t-44.5 107q0 81 60 116t176 35h105v16q0 43 -10.5 71t-36 43t-70.5 15q-60 0 -88.5 -25t-28.5 -71h-89q0 77 52.5 120.5t152.5 43.5q77 0 122 -25zM349 101.5q32 43.5 32 120.5v2
h-98q-76 0 -113 -18t-37 -63q0 -40 27 -62.5t79 -22.5q78 0 110 43.5zM128 601.5q-16 15.5 -16 38.5q0 24 16 40t40 16q23 0 39.5 -16t16.5 -40q0 -23 -16.5 -38.5t-39.5 -15.5q-24 0 -40 15.5zM317.5 601.5q-15.5 15.5 -15.5 38.5q0 24 15.5 40t40.5 16q23 0 39.5 -16
t16.5 -40q0 -23 -16.5 -38.5t-39.5 -15.5q-25 0 -40.5 15.5z" />
    <glyph glyph-name="agrave" unicode="&#xe0;" horiz-adv-x="540" 
d="M385 474q45 -25 64 -71t19 -114v-289h-87v65q-24 -37 -66 -57t-101 -20q-85 0 -129.5 40t-44.5 107q0 81 60 116t176 35h105v16q0 43 -10.5 71t-36 43t-70.5 15q-60 0 -88.5 -25t-28.5 -71h-89q0 77 52.5 120.5t152.5 43.5q77 0 122 -25zM349 101.5q32 43.5 32 120.5v2
h-98q-76 0 -113 -18t-37 -63q0 -40 27 -62.5t79 -22.5q78 0 110 43.5zM249 572l-101 154h90l93 -154h-82z" />
    <glyph glyph-name="amacron" unicode="&#x101;" horiz-adv-x="540" 
d="M385 474q45 -25 64 -71t19 -114v-289h-87v65q-24 -37 -66 -57t-101 -20q-85 0 -129.5 40t-44.5 107q0 81 60 116t176 35h105v16q0 43 -10.5 71t-36 43t-70.5 15q-60 0 -88.5 -25t-28.5 -71h-89q0 77 52.5 120.5t152.5 43.5q77 0 122 -25zM349 101.5q32 43.5 32 120.5v2
h-98q-76 0 -113 -18t-37 -63q0 -40 27 -62.5t79 -22.5q78 0 110 43.5zM121 670h283v-61h-283v61z" />
    <glyph glyph-name="aogonek" unicode="&#x105;" horiz-adv-x="540" 
d="M478 -146v-55q-27 -11 -64 -11q-47 0 -75 22.5t-28 63.5q0 35 22 64.5t65 61.5h-17v65q-24 -37 -66 -57t-101 -20q-85 0 -129.5 40t-44.5 107q0 81 60 116t176 35h105v16q0 43 -10.5 71t-36 43t-70.5 15q-60 0 -88.5 -25t-28.5 -71h-89q0 77 52.5 120.5t152.5 43.5
q77 0 122 -25t64 -71t19 -114v-289q-45 -38 -64.5 -62t-19.5 -51q0 -21 12.5 -31.5t33.5 -10.5q24 0 48 9zM349 101.5q32 43.5 32 120.5v2h-98q-76 0 -113 -18t-37 -63q0 -40 27 -62.5t79 -22.5q78 0 110 43.5z" />
    <glyph glyph-name="aring" unicode="&#xe5;" horiz-adv-x="540" 
d="M385 474q45 -25 64 -71t19 -114v-289h-87v65q-24 -37 -66 -57t-101 -20q-85 0 -129.5 40t-44.5 107q0 81 60 116t176 35h105v16q0 43 -10.5 71t-36 43t-70.5 15q-60 0 -88.5 -25t-28.5 -71h-89q0 77 52.5 120.5t152.5 43.5q77 0 122 -25zM349 101.5q32 43.5 32 120.5v2
h-98q-76 0 -113 -18t-37 -63q0 -40 27 -62.5t79 -22.5q78 0 110 43.5zM203 567.5q-25 13.5 -39 37.5t-14 56t14 56t39 37t59 13t60 -13.5t40 -37.5t14 -55q0 -32 -14 -56t-40 -37.5t-60 -13.5t-59 13.5zM305 619q16 16 16 42q0 25 -16.5 41t-42.5 16t-42 -15.5t-16 -41.5
t16 -42t42 -16q27 0 43 16z" />
    <glyph glyph-name="aringacute" unicode="&#x1fb;" horiz-adv-x="540" 
d="M385 474q45 -25 64 -71t19 -114v-289h-87v65q-24 -37 -66 -57t-101 -20q-85 0 -129.5 40t-44.5 107q0 81 60 116t176 35h105v16q0 43 -10.5 71t-36 43t-70.5 15q-60 0 -88.5 -25t-28.5 -71h-89q0 77 52.5 120.5t152.5 43.5q77 0 122 -25zM349 101.5q32 43.5 32 120.5v2
h-98q-76 0 -113 -18t-37 -63q0 -40 27 -62.5t79 -22.5q78 0 110 43.5zM203 567.5q-25 13.5 -39 37.5t-14 56t14 56t39 37t59 13t60 -13.5t40 -37.5t14 -55q0 -32 -14 -56t-40 -37.5t-60 -13.5t-59 13.5zM305 619q16 16 16 42q0 25 -16.5 41t-42.5 16t-42 -15.5t-16 -41.5
t16 -42t42 -16q27 0 43 16zM288 1006h90l-101 -154h-82z" />
    <glyph glyph-name="atilde" unicode="&#xe3;" horiz-adv-x="540" 
d="M385 474q45 -25 64 -71t19 -114v-289h-87v65q-24 -37 -66 -57t-101 -20q-85 0 -129.5 40t-44.5 107q0 81 60 116t176 35h105v16q0 43 -10.5 71t-36 43t-70.5 15q-60 0 -88.5 -25t-28.5 -71h-89q0 77 52.5 120.5t152.5 43.5q77 0 122 -25zM349 101.5q32 43.5 32 120.5v2
h-98q-76 0 -113 -18t-37 -63q0 -40 27 -62.5t79 -22.5q78 0 110 43.5zM293.5 580.5q-18.5 11.5 -39.5 39.5q-2 3 -13 17.5t-22 21.5t-23 7q-22 0 -31.5 -23t-11.5 -71h-57q2 80 23.5 118.5t68.5 38.5q26 0 44.5 -11.5t39.5 -40.5q3 -4 15 -18t22.5 -20.5t21.5 -6.5
q23 0 32 22t11 73h57q-2 -81 -23.5 -119.5t-68.5 -38.5q-27 0 -45.5 11.5z" />
    <glyph glyph-name="ae" unicode="&#xe6;" horiz-adv-x="860" 
d="M686 83q31 24 39 69h89q-7 -52 -35 -89t-72 -56t-99 -19q-69 0 -116.5 27.5t-73.5 76.5q-59 -104 -197 -104q-89 0 -135 39.5t-46 107.5q0 83 59.5 117.5t176.5 34.5h105v13q0 44 -10.5 72.5t-36 43.5t-70.5 15q-117 0 -117 -96h-89q0 77 52.5 120.5t152.5 43.5
q68 0 109.5 -19.5t63.5 -56.5q27 36 67.5 56t95.5 20q71 0 119.5 -31t74.5 -87q14 -33 20 -70.5t6 -85.5h-351q4 -77 36.5 -121.5t101.5 -44.5q49 0 80 24zM506 391.5q-30 -37.5 -36 -104.5h258q-9 142 -127 142q-65 0 -95 -37.5zM381 225h-98q-74 0 -112 -18.5t-38 -63.5
q0 -40 28 -62.5t79 -22.5q78 0 109.5 43t31.5 121v3z" />
    <glyph glyph-name="aeacute" unicode="&#x1fd;" horiz-adv-x="860" 
d="M686 83q31 24 39 69h89q-7 -52 -35 -89t-72 -56t-99 -19q-69 0 -116.5 27.5t-73.5 76.5q-59 -104 -197 -104q-89 0 -135 39.5t-46 107.5q0 83 59.5 117.5t176.5 34.5h105v13q0 44 -10.5 72.5t-36 43.5t-70.5 15q-117 0 -117 -96h-89q0 77 52.5 120.5t152.5 43.5
q68 0 109.5 -19.5t63.5 -56.5q27 36 67.5 56t95.5 20q71 0 119.5 -31t74.5 -87q14 -33 20 -70.5t6 -85.5h-351q4 -77 36.5 -121.5t101.5 -44.5q49 0 80 24zM506 391.5q-30 -37.5 -36 -104.5h258q-9 142 -127 142q-65 0 -95 -37.5zM381 225h-98q-74 0 -112 -18.5t-38 -63.5
q0 -40 28 -62.5t79 -22.5q78 0 109.5 43t31.5 121v3zM459 726h90l-101 -154h-82z" />
    <glyph glyph-name="cacute" unicode="&#x107;" horiz-adv-x="528" 
d="M142.5 23q-51.5 34 -76 91.5t-24.5 129.5t25 129.5t77 91.5t129 34q62 0 109.5 -22.5t74.5 -65.5t29 -102h-94q-3 54 -34.5 84t-84.5 30q-73 0 -106 -50.5t-33 -128.5q0 -81 33 -130.5t106 -49.5q36 0 62.5 14.5t40.5 39.5t15 57h95q-2 -58 -29.5 -100t-75 -64
t-108.5 -22q-79 0 -130.5 34zM298 726h90l-101 -154h-82z" />
    <glyph glyph-name="ccaron" unicode="&#x10d;" horiz-adv-x="528" 
d="M142.5 23q-51.5 34 -76 91.5t-24.5 129.5t25 129.5t77 91.5t129 34q62 0 109.5 -22.5t74.5 -65.5t29 -102h-94q-3 54 -34.5 84t-84.5 30q-73 0 -106 -50.5t-33 -128.5q0 -81 33 -130.5t106 -49.5q36 0 62.5 14.5t40.5 39.5t15 57h95q-2 -58 -29.5 -100t-75 -64
t-108.5 -22q-79 0 -130.5 34zM327 571h-108l-103 155h83l74 -113l74 113h83z" />
    <glyph glyph-name="ccedilla" unicode="&#xe7;" horiz-adv-x="528" 
d="M335.5 78.5q26.5 14.5 40.5 39.5t15 57h95q-2 -54 -26.5 -94.5t-66.5 -63.5t-97 -27l-12 -39h11q47 0 72.5 -22.5t25.5 -59.5q0 -45 -32 -67t-91 -22q-47 0 -81 14l10 48q31 -11 64 -11q32 0 48 9.5t16 30.5q0 19 -16 29t-50 10h-52l23 82q-65 9 -107.5 44t-62.5 89
t-20 119q0 72 25 129.5t77 91.5t129 34q62 0 109.5 -22.5t74.5 -65.5t29 -102h-94q-3 54 -34.5 84t-84.5 30q-73 0 -106 -50.5t-33 -128.5q0 -81 33 -130.5t106 -49.5q36 0 62.5 14.5z" />
    <glyph glyph-name="ccircumflex" unicode="&#x109;" horiz-adv-x="528" 
d="M142.5 23q-51.5 34 -76 91.5t-24.5 129.5t25 129.5t77 91.5t129 34q62 0 109.5 -22.5t74.5 -65.5t29 -102h-94q-3 54 -34.5 84t-84.5 30q-73 0 -106 -50.5t-33 -128.5q0 -81 33 -130.5t106 -49.5q36 0 62.5 14.5t40.5 39.5t15 57h95q-2 -58 -29.5 -100t-75 -64
t-108.5 -22q-79 0 -130.5 34zM219 727h108l103 -156h-83l-74 113l-73 -113h-84z" />
    <glyph glyph-name="cdotaccent" unicode="&#x10b;" horiz-adv-x="528" 
d="M142.5 23q-51.5 34 -76 91.5t-24.5 129.5t25 129.5t77 91.5t129 34q62 0 109.5 -22.5t74.5 -65.5t29 -102h-94q-3 54 -34.5 84t-84.5 30q-73 0 -106 -50.5t-33 -128.5q0 -81 33 -130.5t106 -49.5q36 0 62.5 14.5t40.5 39.5t15 57h95q-2 -58 -29.5 -100t-75 -64
t-108.5 -22q-79 0 -130.5 34zM231 610.5q-16 15.5 -16 39.5q0 25 16 41t41 16q24 0 41 -16.5t17 -40.5t-17 -39.5t-41 -15.5q-25 0 -41 15.5z" />
    <glyph glyph-name="eth" unicode="&#xf0;" horiz-adv-x="552" 
d="M477 429q33 -87 33 -180q0 -119 -56 -189.5t-183 -70.5q-79 0 -130 31.5t-75 86t-24 124.5q0 68 22.5 123t69.5 88.5t119 33.5q83 0 136 -50q-29 67 -89 152l-201 -72v60l166 59q-20 27 -64 79v2h100q5 -6 19 -22.5t24 -30.5l114 41v-60l-78 -28q64 -90 97 -177zM385 111
q33 48 33 126q0 77 -32.5 123t-108.5 46t-109.5 -48.5t-33.5 -123.5q0 -76 33.5 -123.5t109.5 -47.5q75 0 108 48z" />
    <glyph glyph-name="dcaron" unicode="&#x10f;" horiz-adv-x="631" 
d="M498 706v-706h-85v77q-25 -44 -66.5 -66t-95.5 -22q-71 0 -118 34.5t-69 92t-22 128.5q0 70 22 127.5t68.5 92.5t118.5 35q53 0 94.5 -22t66.5 -65v294h86zM412 258q0 78 -36 121.5t-101 43.5q-74 0 -108 -50t-34 -129q0 -80 33.5 -130t108.5 -50q65 0 101 43.5t36 122.5
v28zM574 706h77l-37 -167h-68z" />
    <glyph glyph-name="dcroat" unicode="&#x111;" horiz-adv-x="574" 
d="M548 576h-50v-576h-85v77q-25 -44 -66.5 -66t-95.5 -22q-71 0 -118 34.5t-69 92t-22 128.5q0 70 22 127.5t68.5 92.5t118.5 35q53 0 94.5 -22t66.5 -65v164h-177v58h177v72h86v-72h50v-58zM412 258q0 78 -36 121.5t-101 43.5q-74 0 -108 -50t-34 -129q0 -80 33.5 -130
t108.5 -50q65 0 101 43.5t36 122.5v28z" />
    <glyph glyph-name="eacute" unicode="&#xe9;" horiz-adv-x="548" 
d="M368.5 84q33.5 24 43.5 68h90q-8 -52 -38.5 -88.5t-77.5 -55.5t-105 -19q-81 0 -134.5 33.5t-79 91t-25.5 130.5q0 72 25.5 130t78 91.5t130.5 33.5q75 0 127.5 -32t78.5 -89q14 -32 19 -67t6 -85h-376q3 -78 37.5 -122t111.5 -44q55 0 88.5 24zM134 291h281
q-6 66 -39 102t-100 36q-125 0 -142 -138zM301 726h90l-101 -154h-82z" />
    <glyph glyph-name="ebreve" unicode="&#x115;" horiz-adv-x="548" 
d="M368.5 84q33.5 24 43.5 68h90q-8 -52 -38.5 -88.5t-77.5 -55.5t-105 -19q-81 0 -134.5 33.5t-79 91t-25.5 130.5q0 72 25.5 130t78 91.5t130.5 33.5q75 0 127.5 -32t78.5 -89q14 -32 19 -67t6 -85h-376q3 -78 37.5 -122t111.5 -44q55 0 88.5 24zM134 291h281
q-6 66 -39 102t-100 36q-125 0 -142 -138zM162 608q-37 40 -41 119h67q4 -54 23.5 -79t63.5 -25t63.5 24.5t24.5 79.5h66q-4 -79 -40.5 -119t-113.5 -40q-76 0 -113 40z" />
    <glyph glyph-name="ecaron" unicode="&#x11b;" horiz-adv-x="548" 
d="M368.5 84q33.5 24 43.5 68h90q-8 -52 -38.5 -88.5t-77.5 -55.5t-105 -19q-81 0 -134.5 33.5t-79 91t-25.5 130.5q0 72 25.5 130t78 91.5t130.5 33.5q75 0 127.5 -32t78.5 -89q14 -32 19 -67t6 -85h-376q3 -78 37.5 -122t111.5 -44q55 0 88.5 24zM134 291h281
q-6 66 -39 102t-100 36q-125 0 -142 -138zM330 571h-108l-103 155h83l74 -113l74 113h83z" />
    <glyph glyph-name="ecircumflex" unicode="&#xea;" horiz-adv-x="548" 
d="M368.5 84q33.5 24 43.5 68h90q-8 -52 -38.5 -88.5t-77.5 -55.5t-105 -19q-81 0 -134.5 33.5t-79 91t-25.5 130.5q0 72 25.5 130t78 91.5t130.5 33.5q75 0 127.5 -32t78.5 -89q14 -32 19 -67t6 -85h-376q3 -78 37.5 -122t111.5 -44q55 0 88.5 24zM134 291h281
q-6 66 -39 102t-100 36q-125 0 -142 -138zM222 727h108l103 -156h-83l-74 113l-73 -113h-84z" />
    <glyph glyph-name="edieresis" unicode="&#xeb;" horiz-adv-x="548" 
d="M368.5 84q33.5 24 43.5 68h90q-8 -52 -38.5 -88.5t-77.5 -55.5t-105 -19q-81 0 -134.5 33.5t-79 91t-25.5 130.5q0 72 25.5 130t78 91.5t130.5 33.5q75 0 127.5 -32t78.5 -89q14 -32 19 -67t6 -85h-376q3 -78 37.5 -122t111.5 -44q55 0 88.5 24zM134 291h281
q-6 66 -39 102t-100 36q-125 0 -142 -138zM141 601.5q-16 15.5 -16 38.5q0 24 16 40t40 16q23 0 39.5 -16t16.5 -40q0 -23 -16.5 -38.5t-39.5 -15.5q-24 0 -40 15.5zM330.5 601.5q-15.5 15.5 -15.5 38.5q0 24 15.5 40t40.5 16q23 0 39.5 -16t16.5 -40q0 -23 -16.5 -38.5
t-39.5 -15.5q-25 0 -40.5 15.5z" />
    <glyph glyph-name="edotaccent" unicode="&#x117;" horiz-adv-x="548" 
d="M368.5 84q33.5 24 43.5 68h90q-8 -52 -38.5 -88.5t-77.5 -55.5t-105 -19q-81 0 -134.5 33.5t-79 91t-25.5 130.5q0 72 25.5 130t78 91.5t130.5 33.5q75 0 127.5 -32t78.5 -89q14 -32 19 -67t6 -85h-376q3 -78 37.5 -122t111.5 -44q55 0 88.5 24zM134 291h281
q-6 66 -39 102t-100 36q-125 0 -142 -138zM234 610.5q-16 15.5 -16 39.5q0 25 16 41t41 16q24 0 41 -16.5t17 -40.5t-17 -39.5t-41 -15.5q-25 0 -41 15.5z" />
    <glyph glyph-name="egrave" unicode="&#xe8;" horiz-adv-x="548" 
d="M368.5 84q33.5 24 43.5 68h90q-8 -52 -38.5 -88.5t-77.5 -55.5t-105 -19q-81 0 -134.5 33.5t-79 91t-25.5 130.5q0 72 25.5 130t78 91.5t130.5 33.5q75 0 127.5 -32t78.5 -89q14 -32 19 -67t6 -85h-376q3 -78 37.5 -122t111.5 -44q55 0 88.5 24zM134 291h281
q-6 66 -39 102t-100 36q-125 0 -142 -138zM262 572l-101 154h90l93 -154h-82z" />
    <glyph glyph-name="emacron" unicode="&#x113;" horiz-adv-x="548" 
d="M368.5 84q33.5 24 43.5 68h90q-8 -52 -38.5 -88.5t-77.5 -55.5t-105 -19q-81 0 -134.5 33.5t-79 91t-25.5 130.5q0 72 25.5 130t78 91.5t130.5 33.5q75 0 127.5 -32t78.5 -89q14 -32 19 -67t6 -85h-376q3 -78 37.5 -122t111.5 -44q55 0 88.5 24zM134 291h281
q-6 66 -39 102t-100 36q-125 0 -142 -138zM134 670h283v-61h-283v61z" />
    <glyph glyph-name="eogonek" unicode="&#x119;" horiz-adv-x="537" 
d="M368.5 84q33.5 24 43.5 68h90q-6 -38 -26 -70t-62 -70q-31 -29 -48 -47.5t-25.5 -36t-8.5 -36.5q0 -23 12.5 -34.5t34.5 -11.5q27 0 46 9v-56q-29 -12 -64 -12q-46 0 -74 24.5t-28 67.5q0 32 16 58.5t49 54.5q-21 -3 -43 -3q-81 0 -134.5 33.5t-79 91t-25.5 130.5
q0 72 25.5 130t78 91.5t130.5 33.5q75 0 127.5 -32t78.5 -89q14 -32 19 -67t6 -85h-376q3 -78 37.5 -122t111.5 -44q55 0 88.5 24zM134 291h281q-6 66 -39 102t-100 36q-125 0 -142 -138z" />
    <glyph glyph-name="schwa" unicode="&#x259;" horiz-adv-x="548" 
d="M401.5 464.5q53.5 -33.5 79 -91t25.5 -130.5q0 -72 -25.5 -130t-78 -91.5t-130.5 -33.5q-74 0 -127 32t-78 89q-14 32 -19 66t-6 86h375q-3 78 -37.5 122t-111.5 44q-55 0 -88.5 -24t-42.5 -68h-90q8 52 38.5 88.5t77 55.5t104.5 19q81 0 134.5 -33.5zM414 196h-281
q6 -66 39 -102t100 -36q125 0 142 138z" />
    <glyph glyph-name="gbreve" unicode="&#x11f;" horiz-adv-x="573" 
d="M497 487v-478q0 -105 -53 -163.5t-169 -58.5q-96 0 -155 41.5t-66 121.5h92q2 -45 36.5 -69t91.5 -24q73 0 105.5 37.5t32.5 102.5v80q-25 -42 -66.5 -63.5t-97.5 -21.5q-71 0 -117 34.5t-67.5 91.5t-21.5 128q0 70 22 127.5t68 91.5t116 34q55 0 96.5 -22t67.5 -65v75
h85zM375.5 108q36.5 43 36.5 122v29q0 78 -36.5 121t-101.5 43q-74 0 -107.5 -50t-33.5 -128q0 -79 33.5 -129.5t107.5 -50.5q65 0 101.5 43zM162 608q-37 40 -41 119h67q4 -54 23.5 -79t63.5 -25t63.5 24.5t24.5 79.5h66q-4 -79 -40.5 -119t-113.5 -40q-76 0 -113 40z" />
    <glyph glyph-name="gcircumflex" unicode="&#x11d;" horiz-adv-x="573" 
d="M497 487v-478q0 -105 -53 -163.5t-169 -58.5q-96 0 -155 41.5t-66 121.5h92q2 -45 36.5 -69t91.5 -24q73 0 105.5 37.5t32.5 102.5v80q-25 -42 -66.5 -63.5t-97.5 -21.5q-71 0 -117 34.5t-67.5 91.5t-21.5 128q0 70 22 127.5t68 91.5t116 34q55 0 96.5 -22t67.5 -65v75
h85zM375.5 108q36.5 43 36.5 122v29q0 78 -36.5 121t-101.5 43q-74 0 -107.5 -50t-33.5 -128q0 -79 33.5 -129.5t107.5 -50.5q65 0 101.5 43zM222 727h108l103 -156h-83l-74 113l-73 -113h-84z" />
    <glyph glyph-name="gcommaaccent" unicode="&#x123;" horiz-adv-x="573" 
d="M497 487v-478q0 -105 -53 -163.5t-169 -58.5q-96 0 -155 41.5t-66 121.5h92q2 -45 36.5 -69t91.5 -24q73 0 105.5 37.5t32.5 102.5v80q-25 -42 -66.5 -63.5t-97.5 -21.5q-71 0 -117 34.5t-67.5 91.5t-21.5 128q0 70 22 127.5t68 91.5t116 34q55 0 96.5 -22t67.5 -65v75
h85zM375.5 108q36.5 43 36.5 122v29q0 78 -36.5 121t-101.5 43q-74 0 -107.5 -50t-33.5 -128q0 -79 33.5 -129.5t107.5 -50.5q65 0 101.5 43zM300 572h-89l42 147h80z" />
    <glyph glyph-name="gdotaccent" unicode="&#x121;" horiz-adv-x="573" 
d="M497 487v-478q0 -105 -53 -163.5t-169 -58.5q-96 0 -155 41.5t-66 121.5h92q2 -45 36.5 -69t91.5 -24q73 0 105.5 37.5t32.5 102.5v80q-25 -42 -66.5 -63.5t-97.5 -21.5q-71 0 -117 34.5t-67.5 91.5t-21.5 128q0 70 22 127.5t68 91.5t116 34q55 0 96.5 -22t67.5 -65v75
h85zM375.5 108q36.5 43 36.5 122v29q0 78 -36.5 121t-101.5 43q-74 0 -107.5 -50t-33.5 -128q0 -79 33.5 -129.5t107.5 -50.5q65 0 101.5 43zM234 610.5q-16 15.5 -16 39.5q0 25 16 41t41 16q24 0 41 -16.5t17 -40.5t-17 -39.5t-41 -15.5q-25 0 -41 15.5z" />
    <glyph glyph-name="hbar" unicode="&#x127;" horiz-adv-x="559" 
d="M444.5 449q43.5 -50 43.5 -148v-301h-86v284q0 72 -28 105.5t-86 33.5q-61 0 -93.5 -35t-32.5 -103v-285h-87v576h-55v58h55v72h87v-72h171v-58h-171v-157q24 40 63 60t91 20q85 0 128.5 -50z" />
    <glyph glyph-name="hcircumflex" unicode="&#x125;" horiz-adv-x="559" 
d="M444.5 449q43.5 -50 43.5 -148v-301h-86v284q0 72 -28 105.5t-86 33.5q-61 0 -93.5 -35t-32.5 -103v-285h-87v706h87v-287q24 40 63 60t91 20q85 0 128.5 -50zM229 905h106l118 -128h-90l-82 86l-81 -86h-89z" />
    <glyph glyph-name="dotlessi" unicode="&#x131;" horiz-adv-x="237" 
d="M75 487h87v-487h-87v487z" />
    <glyph glyph-name="iacute" unicode="&#xed;" horiz-adv-x="237" 
d="M75 487h87v-487h-87v487zM141 726h88l-87 -154h-78z" />
    <glyph glyph-name="ibreve" unicode="&#x12d;" horiz-adv-x="237" 
d="M75 487h87v-487h-87v487zM27.5 607.5q-29.5 39.5 -30.5 119.5h61q1 -57 14.5 -81t46.5 -24t46.5 24t14.5 81h61q-1 -80 -30.5 -119.5t-91.5 -39.5t-91.5 39.5z" />
    <glyph glyph-name="icircumflex" unicode="&#xee;" horiz-adv-x="237" 
d="M75 487h87v-487h-87v487zM75 727h90l85 -156h-71l-59 109l-60 -109h-71z" />
    <glyph glyph-name="idieresis" unicode="&#xef;" horiz-adv-x="237" 
d="M75 487h87v-487h-87v487zM16.5 602q-13.5 14 -13.5 36q0 23 13.5 36.5t35.5 13.5q21 0 34.5 -14t13.5 -36t-13.5 -36t-34.5 -14q-22 0 -35.5 14zM151 602q-13 14 -13 36q0 23 13 36.5t35 13.5q21 0 34.5 -14t13.5 -36t-13.5 -36t-34.5 -14q-22 0 -35 14z" />
    <glyph glyph-name="i.loclTRK" horiz-adv-x="237" 
d="M75 487h87v-487h-87v487zM78 609.5q-16 15.5 -16 39.5q0 25 16 41t41 16q24 0 41 -16.5t17 -40.5t-17 -39.5t-41 -15.5q-25 0 -41 15.5z" />
    <glyph glyph-name="igrave" unicode="&#xec;" horiz-adv-x="237" 
d="M75 487h87v-487h-87v487zM95 572l-86 154h88l77 -154h-79z" />
    <glyph glyph-name="ij" unicode="&#x133;" horiz-adv-x="475" 
d="M78 609q-16 16 -16 40q0 25 16 41t41 16q24 0 41 -16.5t17 -40.5t-17 -40t-41 -16q-25 0 -41 16zM75 487h87v-487h-87v487zM314.5 609q-16.5 16 -16.5 40q0 25 16.5 41t41.5 16q24 0 40.5 -16t16.5 -41q0 -24 -16.5 -40t-40.5 -16q-25 0 -41.5 16zM216 -201v77
q14 -2 33 -2q34 0 48.5 15.5t14.5 52.5v545h87v-553q0 -73 -32 -105.5t-102 -32.5q-23 0 -49 3z" />
    <glyph glyph-name="imacron" unicode="&#x12b;" horiz-adv-x="237" 
d="M75 487h87v-487h-87v487zM12 670h214v-61h-214v61z" />
    <glyph glyph-name="iogonek" unicode="&#x12f;" horiz-adv-x="237" 
d="M78 609q-16 16 -16 40q0 25 16 41t41 16q24 0 41 -16.5t17 -40.5t-17 -40t-41 -16q-25 0 -41 16zM112 -146.5q10 -8.5 26 -8.5q19 0 37 9v-55q-22 -11 -54 -11q-42 0 -67 20.5t-25 57.5t16.5 69t49.5 65h-20v487h87v-487q-32 -39 -46 -65.5t-14 -55.5q0 -17 10 -25.5z
" />
    <glyph glyph-name="itilde" unicode="&#x129;" horiz-adv-x="237" 
d="M75 487h87v-487h-87v487zM134 582.5q-15 13.5 -28 41.5q-2 4 -8 17.5t-12.5 20t-14.5 6.5q-16 0 -22.5 -23t-7.5 -73h-54q2 57 9 90.5t22.5 50t43.5 16.5q26 0 41 -13.5t28 -41.5q9 -23 16.5 -33t18.5 -10q16 0 22 22t8 74h54q-2 -57 -9 -91t-23 -50.5t-44 -16.5
q-25 0 -40 13.5z" />
    <glyph glyph-name="dotlessj" unicode="&#x237;" horiz-adv-x="237" 
d="M-21 -201v77q14 -2 33 -2q34 0 48.5 15.5t14.5 52.5v545h87v-553q0 -73 -32 -105.5t-102 -32.5q-23 0 -49 3z" />
    <glyph glyph-name="uni006A0301" horiz-adv-x="237" 
d="M-21 -201v77q14 -2 33 -2q34 0 48.5 15.5t14.5 52.5v545h87v-553q0 -73 -32 -105.5t-102 -32.5q-23 0 -49 3zM141 726h88l-87 -154h-78z" />
    <glyph glyph-name="jcircumflex" unicode="&#x135;" horiz-adv-x="237" 
d="M-21 -201v77q14 -2 33 -2q34 0 48.5 15.5t14.5 52.5v545h87v-553q0 -73 -32 -105.5t-102 -32.5q-23 0 -49 3zM74 727h90l85 -156h-71l-59 109l-60 -109h-71z" />
    <glyph glyph-name="kcommaaccent" unicode="&#x137;" horiz-adv-x="474" 
d="M367 0l-205 241v-241h-87v706h87v-405l182 186h111l-214 -216l238 -271h-112zM218 -53h89l-42 -148h-80z" />
    <glyph glyph-name="kgreenlandic" unicode="&#x138;" horiz-adv-x="474" 
d="M367 0l-205 241v-241h-87v487h87v-186l182 186h111l-214 -216l238 -271h-112z" />
    <glyph glyph-name="lacute" unicode="&#x13a;" horiz-adv-x="237" 
d="M75 706h87v-706h-87v706zM155 905h99l-123 -128h-90z" />
    <glyph glyph-name="lcaron" unicode="&#x13e;" horiz-adv-x="282" 
d="M75 706h87v-706h-87v706zM231 706h77l-37 -167h-68z" />
    <glyph glyph-name="lcommaaccent" unicode="&#x13c;" horiz-adv-x="237" 
d="M75 706h87v-706h-87v706zM76 -53h89l-42 -148h-80z" />
    <glyph glyph-name="ldot" unicode="&#x140;" horiz-adv-x="370" 
d="M75 706h87v-706h-87v706zM258 290q-17 17 -17 43q0 28 17 45t45 17q27 0 44.5 -17.5t17.5 -44.5q0 -26 -18 -43t-44 -17q-28 0 -45 17z" />
    <glyph glyph-name="lslash" unicode="&#x142;" horiz-adv-x="253" 
d="M244 422l-74 -54v-368h-87v323l-73 -50v78l73 50v305h87v-259l74 53v-78z" />
    <glyph glyph-name="nacute" unicode="&#x144;" horiz-adv-x="559" 
d="M444.5 449q43.5 -50 43.5 -148v-301h-86v284q0 72 -28 105.5t-86 33.5q-61 0 -93.5 -35t-32.5 -103v-285h-87v487h87v-68q24 40 63 60t91 20q85 0 128.5 -50zM316 726h90l-101 -154h-82z" />
    <glyph glyph-name="napostrophe" unicode="&#x149;" horiz-adv-x="705" 
d="M111 706h91l-90 -281h-69zM590.5 449q43.5 -50 43.5 -148v-301h-86v284q0 72 -28 105.5t-86 33.5q-61 0 -93.5 -35t-32.5 -103v-285h-87v487h87v-68q24 40 63 60t91 20q85 0 128.5 -50z" />
    <glyph glyph-name="ncaron" unicode="&#x148;" horiz-adv-x="559" 
d="M444.5 449q43.5 -50 43.5 -148v-301h-86v284q0 72 -28 105.5t-86 33.5q-61 0 -93.5 -35t-32.5 -103v-285h-87v487h87v-68q24 40 63 60t91 20q85 0 128.5 -50zM345 571h-108l-103 155h83l74 -113l74 113h83z" />
    <glyph glyph-name="ncommaaccent" unicode="&#x146;" horiz-adv-x="559" 
d="M444.5 449q43.5 -50 43.5 -148v-301h-86v284q0 72 -28 105.5t-86 33.5q-61 0 -93.5 -35t-32.5 -103v-285h-87v487h87v-68q24 40 63 60t91 20q85 0 128.5 -50zM247 -53h89l-42 -148h-80z" />
    <glyph glyph-name="eng" unicode="&#x14b;" horiz-adv-x="559" 
d="M444.5 449q43.5 -50 43.5 -148v-366q0 -73 -31.5 -105.5t-102.5 -32.5q-31 0 -48 2v77q21 -3 33 -3q33 0 48 16t15 53v342q0 72 -28 105.5t-86 33.5q-61 0 -93.5 -35t-32.5 -103v-285h-87v487h87v-68q24 40 63 60t91 20q85 0 128.5 -50z" />
    <glyph glyph-name="ntilde" unicode="&#xf1;" horiz-adv-x="559" 
d="M444.5 449q43.5 -50 43.5 -148v-301h-86v284q0 72 -28 105.5t-86 33.5q-61 0 -93.5 -35t-32.5 -103v-285h-87v487h87v-68q24 40 63 60t91 20q85 0 128.5 -50zM320.5 580.5q-18.5 11.5 -39.5 39.5q-2 3 -13 17.5t-22 21.5t-23 7q-22 0 -31.5 -23t-11.5 -71h-57
q2 80 23.5 118.5t68.5 38.5q26 0 44.5 -11.5t39.5 -40.5q3 -4 15 -18t22.5 -20.5t21.5 -6.5q23 0 32 22t11 73h57q-2 -81 -23.5 -119.5t-68.5 -38.5q-27 0 -45.5 11.5z" />
    <glyph glyph-name="oacute" unicode="&#xf3;" horiz-adv-x="549" 
d="M143.5 23q-52.5 35 -77 93t-24.5 127q0 71 25 129t77 92.5t130 34.5q80 0 132 -35.5t76.5 -93.5t24.5 -127q0 -70 -24.5 -127.5t-77 -92.5t-131.5 -35q-78 0 -130.5 35zM383 114.5q32 50.5 32 128.5q0 81 -32.5 130.5t-108.5 49.5t-108.5 -50.5t-32.5 -129.5
q0 -80 33.5 -129.5t107.5 -49.5q77 0 109 50.5zM300 726h90l-101 -154h-82z" />
    <glyph glyph-name="obreve" unicode="&#x14f;" horiz-adv-x="549" 
d="M143.5 23q-52.5 35 -77 93t-24.5 127q0 71 25 129t77 92.5t130 34.5q80 0 132 -35.5t76.5 -93.5t24.5 -127q0 -70 -24.5 -127.5t-77 -92.5t-131.5 -35q-78 0 -130.5 35zM383 114.5q32 50.5 32 128.5q0 81 -32.5 130.5t-108.5 49.5t-108.5 -50.5t-32.5 -129.5
q0 -80 33.5 -129.5t107.5 -49.5q77 0 109 50.5zM161 608q-37 40 -41 119h67q4 -54 23.5 -79t63.5 -25t63.5 24.5t24.5 79.5h66q-4 -79 -40.5 -119t-113.5 -40q-76 0 -113 40z" />
    <glyph glyph-name="ocircumflex" unicode="&#xf4;" horiz-adv-x="549" 
d="M143.5 23q-52.5 35 -77 93t-24.5 127q0 71 25 129t77 92.5t130 34.5q80 0 132 -35.5t76.5 -93.5t24.5 -127q0 -70 -24.5 -127.5t-77 -92.5t-131.5 -35q-78 0 -130.5 35zM383 114.5q32 50.5 32 128.5q0 81 -32.5 130.5t-108.5 49.5t-108.5 -50.5t-32.5 -129.5
q0 -80 33.5 -129.5t107.5 -49.5q77 0 109 50.5zM221 727h108l103 -156h-83l-74 113l-73 -113h-84z" />
    <glyph glyph-name="odieresis" unicode="&#xf6;" horiz-adv-x="549" 
d="M143.5 23q-52.5 35 -77 93t-24.5 127q0 71 25 129t77 92.5t130 34.5q80 0 132 -35.5t76.5 -93.5t24.5 -127q0 -70 -24.5 -127.5t-77 -92.5t-131.5 -35q-78 0 -130.5 35zM383 114.5q32 50.5 32 128.5q0 81 -32.5 130.5t-108.5 49.5t-108.5 -50.5t-32.5 -129.5
q0 -80 33.5 -129.5t107.5 -49.5q77 0 109 50.5zM140 601.5q-16 15.5 -16 38.5q0 24 16 40t40 16q23 0 39.5 -16t16.5 -40q0 -23 -16.5 -38.5t-39.5 -15.5q-24 0 -40 15.5zM329.5 601.5q-15.5 15.5 -15.5 38.5q0 24 15.5 40t40.5 16q23 0 39.5 -16t16.5 -40
q0 -23 -16.5 -38.5t-39.5 -15.5q-25 0 -40.5 15.5z" />
    <glyph glyph-name="ograve" unicode="&#xf2;" horiz-adv-x="549" 
d="M143.5 23q-52.5 35 -77 93t-24.5 127q0 71 25 129t77 92.5t130 34.5q80 0 132 -35.5t76.5 -93.5t24.5 -127q0 -70 -24.5 -127.5t-77 -92.5t-131.5 -35q-78 0 -130.5 35zM383 114.5q32 50.5 32 128.5q0 81 -32.5 130.5t-108.5 49.5t-108.5 -50.5t-32.5 -129.5
q0 -80 33.5 -129.5t107.5 -49.5q77 0 109 50.5zM261 572l-101 154h90l93 -154h-82z" />
    <glyph glyph-name="ohungarumlaut" unicode="&#x151;" horiz-adv-x="549" 
d="M143.5 23q-52.5 35 -77 93t-24.5 127q0 71 25 129t77 92.5t130 34.5q80 0 132 -35.5t76.5 -93.5t24.5 -127q0 -70 -24.5 -127.5t-77 -92.5t-131.5 -35q-78 0 -130.5 35zM383 114.5q32 50.5 32 128.5q0 81 -32.5 130.5t-108.5 49.5t-108.5 -50.5t-32.5 -129.5
q0 -80 33.5 -129.5t107.5 -49.5q77 0 109 50.5zM261 727h81l-120 -155h-67zM408 727h81l-119 -155h-68z" />
    <glyph glyph-name="omacron" unicode="&#x14d;" horiz-adv-x="549" 
d="M143.5 23q-52.5 35 -77 93t-24.5 127q0 71 25 129t77 92.5t130 34.5q80 0 132 -35.5t76.5 -93.5t24.5 -127q0 -70 -24.5 -127.5t-77 -92.5t-131.5 -35q-78 0 -130.5 35zM383 114.5q32 50.5 32 128.5q0 81 -32.5 130.5t-108.5 49.5t-108.5 -50.5t-32.5 -129.5
q0 -80 33.5 -129.5t107.5 -49.5q77 0 109 50.5zM133 670h283v-61h-283v61z" />
    <glyph glyph-name="oslash" unicode="&#xf8;" horiz-adv-x="549" 
d="M452 421q28 -35 41.5 -81t13.5 -97q0 -70 -24.5 -127.5t-77 -92.5t-131.5 -35q-88 0 -145 46l-29 -34h-63l58 68q-26 34 -39.5 79.5t-13.5 95.5q0 71 25 129t77 92.5t130 34.5q87 0 144 -44l29 32h62zM165.5 372.5q-32.5 -50.5 -32.5 -129.5q0 -66 21 -108l212 257
q-34 31 -92 31q-76 0 -108.5 -50.5zM383 114.5q32 50.5 32 128.5q0 68 -21 111l-212 -258q35 -32 92 -32q77 0 109 50.5z" />
    <glyph glyph-name="oslashacute" unicode="&#x1ff;" horiz-adv-x="549" 
d="M452 421q28 -35 41.5 -81t13.5 -97q0 -70 -24.5 -127.5t-77 -92.5t-131.5 -35q-88 0 -145 46l-29 -34h-63l58 68q-26 34 -39.5 79.5t-13.5 95.5q0 71 25 129t77 92.5t130 34.5q87 0 144 -44l29 32h62zM165.5 372.5q-32.5 -50.5 -32.5 -129.5q0 -66 21 -108l212 257
q-34 31 -92 31q-76 0 -108.5 -50.5zM383 114.5q32 50.5 32 128.5q0 68 -21 111l-212 -258q35 -32 92 -32q77 0 109 50.5zM300 726h90l-101 -154h-82z" />
    <glyph glyph-name="otilde" unicode="&#xf5;" horiz-adv-x="549" 
d="M143.5 23q-52.5 35 -77 93t-24.5 127q0 71 25 129t77 92.5t130 34.5q80 0 132 -35.5t76.5 -93.5t24.5 -127q0 -70 -24.5 -127.5t-77 -92.5t-131.5 -35q-78 0 -130.5 35zM383 114.5q32 50.5 32 128.5q0 81 -32.5 130.5t-108.5 49.5t-108.5 -50.5t-32.5 -129.5
q0 -80 33.5 -129.5t107.5 -49.5q77 0 109 50.5zM304.5 580.5q-18.5 11.5 -39.5 39.5q-2 3 -13 17.5t-22 21.5t-23 7q-22 0 -31.5 -23t-11.5 -71h-57q2 80 23.5 118.5t68.5 38.5q26 0 44.5 -11.5t39.5 -40.5q3 -4 15 -18t22.5 -20.5t21.5 -6.5q23 0 32 22t11 73h57
q-2 -81 -23.5 -119.5t-68.5 -38.5q-27 0 -45.5 11.5z" />
    <glyph glyph-name="oe" unicode="&#x153;" horiz-adv-x="873" 
d="M699.5 85.5q29.5 25.5 37.5 66.5h90q-9 -49 -35.5 -86t-70 -57.5t-101.5 -20.5q-64 0 -109 24t-73 67q-26 -43 -70 -66.5t-105 -23.5q-75 0 -125 35t-73 93t-23 127q0 70 23.5 128t73.5 92.5t124 34.5q61 0 105 -23.5t70 -66.5q26 42 69 66t104 24q72 0 120.5 -31
t74.5 -87q14 -31 19.5 -68t5.5 -87h-351q3 -76 36 -121t102 -45q52 0 81.5 25.5zM518.5 393q-29.5 -37 -36.5 -103h258q-5 65 -34.5 102.5t-92.5 37.5q-65 0 -94.5 -37zM361.5 114.5q29.5 49.5 29.5 129.5q0 79 -29.5 129t-98.5 50q-70 0 -99.5 -50t-29.5 -129
q0 -80 30 -129.5t99 -49.5t98.5 49.5z" />
    <glyph glyph-name="thorn" unicode="&#xfe;" horiz-adv-x="574" 
d="M441.5 464q46.5 -35 68.5 -92.5t22 -127.5q0 -71 -22 -128.5t-69 -92t-118 -34.5q-54 0 -95 22t-66 66v-278h-87v907h87v-296q25 44 66 66.5t95 22.5q72 0 118.5 -35zM407 115q33 50 33 129t-33.5 129t-107.5 50q-65 0 -101.5 -44t-36.5 -122v-27q0 -78 36.5 -121.5
t101.5 -43.5q75 0 108 50z" />
    <glyph glyph-name="racute" unicode="&#x155;" horiz-adv-x="348" 
d="M333 487v-78q-20 5 -45 5q-62 0 -94 -38.5t-32 -108.5v-267h-87v487h86v-66q18 35 49.5 53.5t75.5 18.5q26 0 47 -6zM234 726h90l-101 -154h-82z" />
    <glyph glyph-name="rcaron" unicode="&#x159;" horiz-adv-x="348" 
d="M333 487v-78q-20 5 -45 5q-62 0 -94 -38.5t-32 -108.5v-267h-87v487h86v-66q18 35 49.5 53.5t75.5 18.5q26 0 47 -6zM263 571h-108l-103 155h83l74 -113l74 113h83z" />
    <glyph glyph-name="rcommaaccent" unicode="&#x157;" horiz-adv-x="348" 
d="M333 487v-78q-20 5 -45 5q-62 0 -94 -38.5t-32 -108.5v-267h-87v487h86v-66q18 35 49.5 53.5t75.5 18.5q26 0 47 -6zM76 -53h89l-42 -148h-80z" />
    <glyph glyph-name="sacute" unicode="&#x15b;" horiz-adv-x="469" 
d="M87 34.5q-47 46.5 -47 127.5h85q0 -50 26 -79t84 -29q52 0 77.5 20t25.5 56q0 28 -16 44.5t-39 24.5t-68 20q-51 13 -84.5 29t-53 43t-19.5 69t19.5 73.5t58.5 48.5t95 17q90 0 134 -41.5t44 -114.5h-84q0 44 -23 69t-72 25q-44 0 -66 -18.5t-22 -49.5q0 -25 16 -40
t37.5 -22.5t73.5 -21.5q54 -14 88.5 -31.5t53.5 -45t19 -70.5q0 -72 -51 -111t-143 -39q-102 0 -149 46.5zM256 726h90l-101 -154h-82z" />
    <glyph glyph-name="scaron" unicode="&#x161;" horiz-adv-x="469" 
d="M87 34.5q-47 46.5 -47 127.5h85q0 -50 26 -79t84 -29q52 0 77.5 20t25.5 56q0 28 -16 44.5t-39 24.5t-68 20q-51 13 -84.5 29t-53 43t-19.5 69t19.5 73.5t58.5 48.5t95 17q90 0 134 -41.5t44 -114.5h-84q0 44 -23 69t-72 25q-44 0 -66 -18.5t-22 -49.5q0 -25 16 -40
t37.5 -22.5t73.5 -21.5q54 -14 88.5 -31.5t53.5 -45t19 -70.5q0 -72 -51 -111t-143 -39q-102 0 -149 46.5zM285 571h-108l-103 155h83l74 -113l74 113h83z" />
    <glyph glyph-name="scedilla" unicode="&#x15f;" horiz-adv-x="469" 
d="M387.5 34q-42.5 -38 -121.5 -45l-11 -38h12q46 0 71.5 -22.5t25.5 -59.5q0 -45 -32 -67t-91 -22q-47 0 -81 14l11 48q30 -11 63 -11q65 0 65 40q0 19 -16 29t-51 10h-51l22 79q-85 8 -124 53.5t-39 119.5h85q0 -50 26 -79t84 -29q52 0 77.5 20t25.5 56q0 28 -16 44.5
t-39 24.5t-68 20q-51 13 -84.5 29t-53 43t-19.5 69t19.5 73.5t58.5 48.5t95 17q90 0 134 -41.5t44 -114.5h-84q0 44 -23 69t-72 25q-44 0 -66 -18.5t-22 -49.5q0 -25 16 -40t37.5 -22.5t73.5 -21.5q54 -14 88.5 -31.5t53.5 -45t19 -70.5q0 -66 -42.5 -104z" />
    <glyph glyph-name="scircumflex" unicode="&#x15d;" horiz-adv-x="469" 
d="M87 34.5q-47 46.5 -47 127.5h85q0 -50 26 -79t84 -29q52 0 77.5 20t25.5 56q0 28 -16 44.5t-39 24.5t-68 20q-51 13 -84.5 29t-53 43t-19.5 69t19.5 73.5t58.5 48.5t95 17q90 0 134 -41.5t44 -114.5h-84q0 44 -23 69t-72 25q-44 0 -66 -18.5t-22 -49.5q0 -25 16 -40
t37.5 -22.5t73.5 -21.5q54 -14 88.5 -31.5t53.5 -45t19 -70.5q0 -72 -51 -111t-143 -39q-102 0 -149 46.5zM177 727h108l103 -156h-83l-74 113l-73 -113h-84z" />
    <glyph glyph-name="scommaaccent" unicode="&#x219;" horiz-adv-x="469" 
d="M87 34.5q-47 46.5 -47 127.5h85q0 -50 26 -79t84 -29q52 0 77.5 20t25.5 56q0 28 -16 44.5t-39 24.5t-68 20q-51 13 -84.5 29t-53 43t-19.5 69t19.5 73.5t58.5 48.5t95 17q90 0 134 -41.5t44 -114.5h-84q0 44 -23 69t-72 25q-44 0 -66 -18.5t-22 -49.5q0 -25 16 -40
t37.5 -22.5t73.5 -21.5q54 -14 88.5 -31.5t53.5 -45t19 -70.5q0 -72 -51 -111t-143 -39q-102 0 -149 46.5zM197 -53h89l-42 -148h-80z" />
    <glyph glyph-name="germandbls" unicode="&#xdf;" horiz-adv-x="566" 
d="M490.5 327.5q33.5 -52.5 33.5 -122.5q0 -96 -60.5 -151t-187.5 -55q-24 0 -50 2v71l35 -1q89 0 130 36t41 103q0 68 -41 108t-123 40h-41v68h39q74 0 108 31t34 86q0 51 -29.5 81t-90.5 30q-72 0 -99 -40t-27 -111v-503h-87v497q0 106 50 165.5t164 59.5q69 0 115.5 -23
t69 -62.5t22.5 -89.5q0 -57 -27.5 -95.5t-82.5 -53.5q71 -18 104.5 -70.5z" />
    <glyph glyph-name="tbar" unicode="&#x167;" horiz-adv-x="356" 
d="M182 236v-81q0 -46 19.5 -67.5t59.5 -21.5q28 0 58 8v-72q-42 -10 -82 -10q-74 0 -107.5 35.5t-33.5 115.5v93h-77v61h77v118h-76v72h76v118h86v-118h139v-72h-139v-118h140v-61h-140z" />
    <glyph glyph-name="tcaron" unicode="&#x165;" horiz-adv-x="383" 
d="M129.5 27.5q-33.5 35.5 -33.5 115.5v272h-76v72h76v118h86v-118h139v-72h-139v-260q0 -46 19.5 -67.5t59.5 -21.5q28 0 58 8v-72q-42 -10 -82 -10q-74 0 -107.5 35.5zM254 705h77l-37 -167h-68z" />
    <glyph glyph-name="uni0163" unicode="&#x163;" horiz-adv-x="356" 
d="M311.5 -71.5q25.5 -22.5 25.5 -59.5q0 -45 -32 -67t-91 -22q-47 0 -81 14l10 48q31 -11 64 -11q32 0 48 9.5t16 30.5q0 19 -16 29t-50 10h-52l25 89q-42 12 -62 47t-20 97v272h-76v72h76v118h86v-118h139v-72h-139v-260q0 -46 19.5 -67.5t59.5 -21.5q28 0 58 8v-72
q-40 -10 -79 -10l-12 -41h11q47 0 72.5 -22.5z" />
    <glyph glyph-name="uni021B" unicode="&#x21b;" horiz-adv-x="356" 
d="M129.5 27.5q-33.5 35.5 -33.5 115.5v272h-76v72h76v118h86v-118h139v-72h-139v-260q0 -46 19.5 -67.5t59.5 -21.5q28 0 58 8v-72q-42 -10 -82 -10q-74 0 -107.5 35.5zM170 -53h89l-42 -148h-80z" />
    <glyph glyph-name="uacute" unicode="&#xfa;" horiz-adv-x="559" 
d="M484 487v-487h-86v68q-47 -80 -155 -80q-85 0 -128.5 50t-43.5 148v301h87v-284q0 -72 27.5 -105.5t86.5 -33.5q61 0 93.5 35t32.5 103v285h86zM305 726h90l-101 -154h-82z" />
    <glyph glyph-name="ubreve" unicode="&#x16d;" horiz-adv-x="559" 
d="M484 487v-487h-86v68q-47 -80 -155 -80q-85 0 -128.5 50t-43.5 148v301h87v-284q0 -72 27.5 -105.5t86.5 -33.5q61 0 93.5 35t32.5 103v285h86zM166 608q-37 40 -41 119h67q4 -54 23.5 -79t63.5 -25t63.5 24.5t24.5 79.5h66q-4 -79 -40.5 -119t-113.5 -40q-76 0 -113 40z
" />
    <glyph glyph-name="ucircumflex" unicode="&#xfb;" horiz-adv-x="559" 
d="M484 487v-487h-86v68q-47 -80 -155 -80q-85 0 -128.5 50t-43.5 148v301h87v-284q0 -72 27.5 -105.5t86.5 -33.5q61 0 93.5 35t32.5 103v285h86zM226 727h108l103 -156h-83l-74 113l-73 -113h-84z" />
    <glyph glyph-name="udieresis" unicode="&#xfc;" horiz-adv-x="559" 
d="M484 487v-487h-86v68q-47 -80 -155 -80q-85 0 -128.5 50t-43.5 148v301h87v-284q0 -72 27.5 -105.5t86.5 -33.5q61 0 93.5 35t32.5 103v285h86zM145 601.5q-16 15.5 -16 38.5q0 24 16 40t40 16q23 0 39.5 -16t16.5 -40q0 -23 -16.5 -38.5t-39.5 -15.5q-24 0 -40 15.5z
M334.5 601.5q-15.5 15.5 -15.5 38.5q0 24 15.5 40t40.5 16q23 0 39.5 -16t16.5 -40q0 -23 -16.5 -38.5t-39.5 -15.5q-25 0 -40.5 15.5z" />
    <glyph glyph-name="ugrave" unicode="&#xf9;" horiz-adv-x="559" 
d="M484 487v-487h-86v68q-47 -80 -155 -80q-85 0 -128.5 50t-43.5 148v301h87v-284q0 -72 27.5 -105.5t86.5 -33.5q61 0 93.5 35t32.5 103v285h86zM266 572l-101 154h90l93 -154h-82z" />
    <glyph glyph-name="uhungarumlaut" unicode="&#x171;" horiz-adv-x="559" 
d="M484 487v-487h-86v68q-47 -80 -155 -80q-85 0 -128.5 50t-43.5 148v301h87v-284q0 -72 27.5 -105.5t86.5 -33.5q61 0 93.5 35t32.5 103v285h86zM267 727h81l-120 -155h-67zM414 727h81l-119 -155h-68z" />
    <glyph glyph-name="umacron" unicode="&#x16b;" horiz-adv-x="559" 
d="M484 487v-487h-86v68q-47 -80 -155 -80q-85 0 -128.5 50t-43.5 148v301h87v-284q0 -72 27.5 -105.5t86.5 -33.5q61 0 93.5 35t32.5 103v285h86zM138 670h283v-61h-283v61z" />
    <glyph glyph-name="uogonek" unicode="&#x173;" horiz-adv-x="559" 
d="M494 -146v-55q-27 -11 -64 -11q-47 0 -75 22.5t-28 63.5q0 35 22 64.5t65 61.5h-16v68q-47 -80 -155 -80q-85 0 -128.5 50t-43.5 148v301h87v-284q0 -72 27.5 -105.5t86.5 -33.5q61 0 93.5 35t32.5 103v285h86v-487q-45 -38 -64.5 -62t-19.5 -51q0 -21 12.5 -31.5
t33.5 -10.5q24 0 48 9z" />
    <glyph glyph-name="uring" unicode="&#x16f;" horiz-adv-x="559" 
d="M484 487v-487h-86v68q-47 -80 -155 -80q-85 0 -128.5 50t-43.5 148v301h87v-284q0 -72 27.5 -105.5t86.5 -33.5q61 0 93.5 35t32.5 103v285h86zM220 567.5q-25 13.5 -39 37.5t-14 56t14 56t39 37t59 13t60 -13.5t40 -37.5t14 -55q0 -32 -14 -56t-40 -37.5t-60 -13.5
t-59 13.5zM322 619q16 16 16 42q0 25 -16.5 41t-42.5 16t-42 -15.5t-16 -41.5t16 -42t42 -16q27 0 43 16z" />
    <glyph glyph-name="utilde" unicode="&#x169;" horiz-adv-x="559" 
d="M484 487v-487h-86v68q-47 -80 -155 -80q-85 0 -128.5 50t-43.5 148v301h87v-284q0 -72 27.5 -105.5t86.5 -33.5q61 0 93.5 35t32.5 103v285h86zM309.5 580.5q-18.5 11.5 -39.5 39.5q-2 3 -13 17.5t-22 21.5t-23 7q-22 0 -31.5 -23t-11.5 -71h-57q2 80 23.5 118.5
t68.5 38.5q26 0 44.5 -11.5t39.5 -40.5q3 -4 15 -18t22.5 -20.5t21.5 -6.5q23 0 32 22t11 73h57q-2 -81 -23.5 -119.5t-68.5 -38.5q-27 0 -45.5 11.5z" />
    <glyph glyph-name="wacute" unicode="&#x1e83;" horiz-adv-x="752" 
d="M735 487l-167 -487h-85l-107 372l-106 -372h-86l-167 487h93l116 -376l111 376h78l110 -375l117 375h93zM401 726h90l-101 -154h-82z" />
    <glyph glyph-name="wcircumflex" unicode="&#x175;" horiz-adv-x="752" 
d="M735 487l-167 -487h-85l-107 372l-106 -372h-86l-167 487h93l116 -376l111 376h78l110 -375l117 375h93zM322 727h108l103 -156h-83l-74 113l-73 -113h-84z" />
    <glyph glyph-name="wdieresis" unicode="&#x1e85;" horiz-adv-x="752" 
d="M735 487l-167 -487h-85l-107 372l-106 -372h-86l-167 487h93l116 -376l111 376h78l110 -375l117 375h93zM241 601.5q-16 15.5 -16 38.5q0 24 16 40t40 16q23 0 39.5 -16t16.5 -40q0 -23 -16.5 -38.5t-39.5 -15.5q-24 0 -40 15.5zM430.5 601.5q-15.5 15.5 -15.5 38.5
q0 24 15.5 40t40.5 16q23 0 39.5 -16t16.5 -40q0 -23 -16.5 -38.5t-39.5 -15.5q-25 0 -40.5 15.5z" />
    <glyph glyph-name="wgrave" unicode="&#x1e81;" horiz-adv-x="752" 
d="M735 487l-167 -487h-85l-107 372l-106 -372h-86l-167 487h93l116 -376l111 376h78l110 -375l117 375h93zM362 572l-101 154h90l93 -154h-82z" />
    <glyph glyph-name="yacute" unicode="&#xfd;" horiz-adv-x="510" 
d="M493 487l-285 -688h-89l84 202l-186 486h95l139 -390l149 390h93zM282 726h90l-101 -154h-82z" />
    <glyph glyph-name="ycircumflex" unicode="&#x177;" horiz-adv-x="510" 
d="M493 487l-285 -688h-89l84 202l-186 486h95l139 -390l149 390h93zM203 727h108l103 -156h-83l-74 113l-73 -113h-84z" />
    <glyph glyph-name="ydieresis" unicode="&#xff;" horiz-adv-x="510" 
d="M493 487l-285 -688h-89l84 202l-186 486h95l139 -390l149 390h93zM122 601.5q-16 15.5 -16 38.5q0 24 16 40t40 16q23 0 39.5 -16t16.5 -40q0 -23 -16.5 -38.5t-39.5 -15.5q-24 0 -40 15.5zM311.5 601.5q-15.5 15.5 -15.5 38.5q0 24 15.5 40t40.5 16q23 0 39.5 -16
t16.5 -40q0 -23 -16.5 -38.5t-39.5 -15.5q-25 0 -40.5 15.5z" />
    <glyph glyph-name="ygrave" unicode="&#x1ef3;" horiz-adv-x="510" 
d="M493 487l-285 -688h-89l84 202l-186 486h95l139 -390l149 390h93zM242 572l-101 154h90l93 -154h-82z" />
    <glyph glyph-name="zacute" unicode="&#x17a;" horiz-adv-x="458" 
d="M162 72h271v-72h-415l279 415h-254v72h393zM262 726h90l-101 -154h-82z" />
    <glyph glyph-name="zcaron" unicode="&#x17e;" horiz-adv-x="458" 
d="M162 72h271v-72h-415l279 415h-254v72h393zM291 571h-108l-103 155h83l74 -113l74 113h83z" />
    <glyph glyph-name="zdotaccent" unicode="&#x17c;" horiz-adv-x="458" 
d="M162 72h271v-72h-415l279 415h-254v72h393zM195 610.5q-16 15.5 -16 39.5q0 25 16 41t41 16q24 0 41 -16.5t17 -40.5t-17 -39.5t-41 -15.5q-25 0 -41 15.5z" />
    <glyph glyph-name="oslash.ss04" horiz-adv-x="549" 
d="M492 344.5q15 -47.5 15 -101.5q0 -70 -24.5 -127.5t-77 -92.5t-131.5 -35q-66 0 -117 27l-43 -67l-66 38l53 75q-30 35 -44.5 82t-14.5 100q0 71 25 129t77 92.5t130 34.5q68 0 115 -26l46 68l65 -39l-53 -75q30 -35 45 -82.5zM383 114.5q32 50.5 32 128.5
q0 81 -32.5 130.5t-108.5 49.5t-108.5 -50.5t-32.5 -129.5q0 -80 33.5 -129.5t107.5 -49.5q77 0 109 50.5z" />
    <glyph glyph-name="ff" unicode="&#xfb00;" horiz-adv-x="665" 
d="M95 415h-74v72h74v78q0 78 37.5 115t119.5 37q33 0 57 -6v-73q-26 6 -45 6q-82 0 -82 -87v-70h125v-72h-125v-415h-87v415zM429 415h-74v72h74v78q0 78 37.5 115t119.5 37q33 0 57 -6v-73q-26 6 -45 6q-82 0 -82 -87v-70h125v-72h-125v-415h-87v415z" />
    <glyph glyph-name="ffi" unicode="&#xfb03;" horiz-adv-x="902" 
d="M95 415h-74v72h74v78q0 78 37.5 115t119.5 37q33 0 57 -6v-73q-26 6 -45 6q-82 0 -82 -87v-70h125v-72h-125v-415h-87v415zM429 415h-74v72h74v78q0 78 37.5 115t119.5 37q33 0 57 -6v-73q-26 6 -45 6q-82 0 -82 -87v-70h125v-72h-125v-415h-87v415zM743 609
q-16 16 -16 40q0 25 16 41t41 16q24 0 41 -16.5t17 -40.5t-17 -40t-41 -16q-25 0 -41 16zM740 487h87v-487h-87v487z" />
    <glyph glyph-name="ffl" unicode="&#xfb04;" horiz-adv-x="902" 
d="M95 415h-74v72h74v78q0 78 37.5 115t119.5 37q33 0 57 -6v-73q-26 6 -45 6q-82 0 -82 -87v-70h125v-72h-125v-415h-87v415zM429 415h-74v72h74v78q0 78 37.5 115t119.5 37q33 0 57 -6v-73q-26 6 -45 6q-82 0 -82 -87v-70h125v-72h-125v-415h-87v415zM740 706h87v-706h-87
v706z" />
    <glyph glyph-name="f_i" horiz-adv-x="568" 
d="M95 415h-74v72h74v78q0 78 37.5 115t119.5 37q33 0 57 -6v-73q-26 6 -45 6q-82 0 -82 -87v-70h125v-72h-125v-415h-87v415zM409 609q-16 16 -16 40q0 25 16 41t41 16q24 0 41 -16.5t17 -40.5t-17 -40t-41 -16q-25 0 -41 16zM406 487h87v-487h-87v487z" />
    <glyph glyph-name="f_l" horiz-adv-x="568" 
d="M95 415h-74v72h74v78q0 78 37.5 115t119.5 37q33 0 57 -6v-73q-26 6 -45 6q-82 0 -82 -87v-70h125v-72h-125v-415h-87v415zM406 706h87v-706h-87v706z" />
    <glyph glyph-name="fi" unicode="&#xfb01;" horiz-adv-x="568" 
d="M95 415h-74v72h74v78q0 78 37.5 115t119.5 37q33 0 57 -6v-73q-26 6 -45 6q-82 0 -82 -87v-70h125v-72h-125v-415h-87v415zM409 609q-16 16 -16 40q0 25 16 41t41 16q24 0 41 -16.5t17 -40.5t-17 -40t-41 -16q-25 0 -41 16zM406 487h87v-487h-87v487z" />
    <glyph glyph-name="fl" unicode="&#xfb02;" horiz-adv-x="568" 
d="M95 415h-74v72h74v78q0 78 37.5 115t119.5 37q33 0 57 -6v-73q-26 6 -45 6q-82 0 -82 -87v-70h125v-72h-125v-415h-87v415zM406 706h87v-706h-87v706z" />
    <glyph glyph-name="a.sc" horiz-adv-x="552" 
d="M405 137h-258l-46 -137h-93l200 583h136l200 -583h-93zM380 211l-103 303h-2l-103 -303h208z" />
    <glyph glyph-name="aacute.sc" horiz-adv-x="552" 
d="M405 137h-258l-46 -137h-93l200 583h136l200 -583h-93zM380 211l-103 303h-2l-103 -303h208zM301 822h90l-101 -154h-82z" />
    <glyph glyph-name="abreve.sc" horiz-adv-x="552" 
d="M405 137h-258l-46 -137h-93l200 583h136l200 -583h-93zM380 211l-103 303h-2l-103 -303h208zM163 704q-37 40 -41 119h67q4 -54 23.5 -79t63.5 -25t63.5 24.5t24.5 79.5h66q-4 -79 -40.5 -119t-113.5 -40q-76 0 -113 40z" />
    <glyph glyph-name="acircumflex.sc" horiz-adv-x="552" 
d="M405 137h-258l-46 -137h-93l200 583h136l200 -583h-93zM380 211l-103 303h-2l-103 -303h208zM222 823h108l103 -156h-83l-74 113l-73 -113h-84z" />
    <glyph glyph-name="adieresis.sc" horiz-adv-x="552" 
d="M405 137h-258l-46 -137h-93l200 583h136l200 -583h-93zM380 211l-103 303h-2l-103 -303h208zM141 697.5q-16 15.5 -16 38.5q0 24 16 40t40 16q23 0 39.5 -16t16.5 -40q0 -23 -16.5 -38.5t-39.5 -15.5q-24 0 -40 15.5zM330.5 697.5q-15.5 15.5 -15.5 38.5q0 24 15.5 40
t40.5 16q23 0 39.5 -16t16.5 -40q0 -23 -16.5 -38.5t-39.5 -15.5q-25 0 -40.5 15.5z" />
    <glyph glyph-name="agrave.sc" horiz-adv-x="552" 
d="M405 137h-258l-46 -137h-93l200 583h136l200 -583h-93zM380 211l-103 303h-2l-103 -303h208zM262 668l-101 154h90l93 -154h-82z" />
    <glyph glyph-name="amacron.sc" horiz-adv-x="552" 
d="M405 137h-258l-46 -137h-93l200 583h136l200 -583h-93zM380 211l-103 303h-2l-103 -303h208zM134 766h283v-61h-283v61z" />
    <glyph glyph-name="aogonek.sc" horiz-adv-x="552" 
d="M554 -146v-55q-27 -11 -64 -11q-47 0 -75 22.5t-28 63.5q0 35 22 64.5t65 61.5h-23l-46 137h-258l-46 -137h-93l200 583h136l200 -583q-45 -38 -64.5 -62t-19.5 -51q0 -21 12.5 -31.5t33.5 -10.5q24 0 48 9zM380 211l-103 303h-2l-103 -303h208z" />
    <glyph glyph-name="aring.sc" horiz-adv-x="552" 
d="M405 137h-258l-46 -137h-93l200 583h136l200 -583h-93zM380 211l-103 303h-2l-103 -303h208zM216 663.5q-25 13.5 -39 37.5t-14 56t14 56t39 37t59 13t60 -13.5t40 -37.5t14 -55q0 -32 -14 -56t-40 -37.5t-60 -13.5t-59 13.5zM318 715q16 16 16 42q0 25 -16.5 41
t-42.5 16t-42 -15.5t-16 -41.5t16 -42t42 -16q27 0 43 16z" />
    <glyph glyph-name="aringacute.sc" horiz-adv-x="552" 
d="M405 137h-258l-46 -137h-93l200 583h136l200 -583h-93zM380 211l-103 303h-2l-103 -303h208zM216 663.5q-25 13.5 -39 37.5t-14 56t14 56t39 37t59 13t60 -13.5t40 -37.5t14 -55q0 -32 -14 -56t-40 -37.5t-60 -13.5t-59 13.5zM318 715q16 16 16 42q0 25 -16.5 41
t-42.5 16t-42 -15.5t-16 -41.5t16 -42t42 -16q27 0 43 16zM301 1102h90l-101 -154h-82z" />
    <glyph glyph-name="atilde.sc" horiz-adv-x="552" 
d="M405 137h-258l-46 -137h-93l200 583h136l200 -583h-93zM380 211l-103 303h-2l-103 -303h208zM306.5 676.5q-18.5 11.5 -39.5 39.5q-2 3 -13 17.5t-22 21.5t-23 7q-22 0 -31.5 -23t-11.5 -71h-57q2 80 23.5 118.5t68.5 38.5q26 0 44.5 -11.5t39.5 -40.5q3 -4 15 -18
t22.5 -20.5t21.5 -6.5q23 0 32 22t11 73h57q-2 -81 -23.5 -119.5t-68.5 -38.5q-27 0 -45.5 11.5z" />
    <glyph glyph-name="ae.sc" horiz-adv-x="690" 
d="M396 506l21 -171h219v-77h-209l23 -181h189v-77h-271l-16 139h-194l-56 -139h-94l239 583h392v-77h-243zM343 212l-35 298h-2l-119 -298h156z" />
    <glyph glyph-name="aeacute.sc" horiz-adv-x="690" 
d="M396 506l21 -171h219v-77h-209l23 -181h189v-77h-271l-16 139h-194l-56 -139h-94l239 583h392v-77h-243zM343 212l-35 298h-2l-119 -298h156zM411 822h90l-101 -154h-82z" />
    <glyph glyph-name="b.sc" horiz-adv-x="543" 
d="M471.5 254q28.5 -37 28.5 -93q0 -78 -51 -119.5t-153 -41.5h-206v583h207q60 0 101 -18.5t61 -51t20 -75.5q0 -49 -24.5 -83t-75.5 -48q64 -16 92.5 -53zM180 334h90q59 0 88 25t29 68t-29.5 66t-90.5 23h-87v-182zM372 91.5q33 24.5 33 74.5q0 51 -33 76t-101 25h-91
v-200h87q72 0 105 24.5z" />
    <glyph glyph-name="c.sc" horiz-adv-x="618" 
d="M165.5 27q-60.5 41 -88 109.5t-27.5 154.5t27 154.5t88 109.5t157 41q72 0 128 -27t87.5 -77t33.5 -117h-95q-2 67 -44 104t-114 37q-96 0 -134.5 -61t-38.5 -163q0 -104 38 -164.5t135 -60.5q74 0 116 37t45 103h94q-1 -68 -33 -118t-88.5 -76.5t-129.5 -26.5
q-96 0 -156.5 41z" />
    <glyph glyph-name="cacute.sc" horiz-adv-x="618" 
d="M165.5 27q-60.5 41 -88 109.5t-27.5 154.5t27 154.5t88 109.5t157 41q72 0 128 -27t87.5 -77t33.5 -117h-95q-2 67 -44 104t-114 37q-96 0 -134.5 -61t-38.5 -163q0 -104 38 -164.5t135 -60.5q74 0 116 37t45 103h94q-1 -68 -33 -118t-88.5 -76.5t-129.5 -26.5
q-96 0 -156.5 41zM347 822h90l-101 -154h-82z" />
    <glyph glyph-name="ccaron.sc" horiz-adv-x="618" 
d="M165.5 27q-60.5 41 -88 109.5t-27.5 154.5t27 154.5t88 109.5t157 41q72 0 128 -27t87.5 -77t33.5 -117h-95q-2 67 -44 104t-114 37q-96 0 -134.5 -61t-38.5 -163q0 -104 38 -164.5t135 -60.5q74 0 116 37t45 103h94q-1 -68 -33 -118t-88.5 -76.5t-129.5 -26.5
q-96 0 -156.5 41zM376 667h-108l-103 155h83l74 -113l74 113h83z" />
    <glyph glyph-name="ccedilla.sc" horiz-adv-x="618" 
d="M543.5 95q-28.5 -48 -79 -75.5t-116.5 -32.5l-11 -36h11q47 0 72.5 -22.5t25.5 -59.5q0 -45 -32 -67t-91 -22q-47 0 -81 14l11 48q30 -11 63 -11q65 0 65 40q0 19 -16 29t-51 10h-51l21 78q-82 8 -134.5 50.5t-76 107.5t-23.5 145q0 86 27 154.5t88 109.5t157 41
q72 0 128 -27t87.5 -77t33.5 -117h-95q-2 67 -44 104t-114 37q-96 0 -134.5 -61t-38.5 -163q0 -104 38 -164.5t135 -60.5q74 0 116 37t45 103h94q-1 -64 -29.5 -112z" />
    <glyph glyph-name="ccircumflex.sc" horiz-adv-x="618" 
d="M165.5 27q-60.5 41 -88 109.5t-27.5 154.5t27 154.5t88 109.5t157 41q72 0 128 -27t87.5 -77t33.5 -117h-95q-2 67 -44 104t-114 37q-96 0 -134.5 -61t-38.5 -163q0 -104 38 -164.5t135 -60.5q74 0 116 37t45 103h94q-1 -68 -33 -118t-88.5 -76.5t-129.5 -26.5
q-96 0 -156.5 41zM268 823h108l103 -156h-83l-74 113l-73 -113h-84z" />
    <glyph glyph-name="cdotaccent.sc" horiz-adv-x="618" 
d="M165.5 27q-60.5 41 -88 109.5t-27.5 154.5t27 154.5t88 109.5t157 41q72 0 128 -27t87.5 -77t33.5 -117h-95q-2 67 -44 104t-114 37q-96 0 -134.5 -61t-38.5 -163q0 -104 38 -164.5t135 -60.5q74 0 116 37t45 103h94q-1 -68 -33 -118t-88.5 -76.5t-129.5 -26.5
q-96 0 -156.5 41zM280 706.5q-16 15.5 -16 39.5q0 25 16 41t41 16q24 0 41 -16.5t17 -40.5t-17 -39.5t-41 -15.5q-25 0 -41 15.5z" />
    <glyph glyph-name="d.sc" horiz-adv-x="619" 
d="M90 583h203q146 0 211 -79.5t65 -212.5q0 -134 -65.5 -212.5t-210.5 -78.5h-203v583zM280 77q75 0 117.5 27t59.5 74t17 113q0 67 -17 114.5t-60 74t-117 26.5h-100v-429h100z" />
    <glyph glyph-name="eth.sc" horiz-adv-x="619" 
d="M504 503.5q65 -79.5 65 -212.5q0 -134 -65.5 -212.5t-210.5 -78.5h-203v268h-60v61h60v254h203q146 0 211 -79.5zM397.5 104q42.5 27 59.5 74t17 113q0 67 -17 114.5t-60 74t-117 26.5h-100v-177h153v-61h-153v-191h100q75 0 117.5 27z" />
    <glyph glyph-name="dcaron.sc" horiz-adv-x="619" 
d="M90 583h203q146 0 211 -79.5t65 -212.5q0 -134 -65.5 -212.5t-210.5 -78.5h-203v583zM280 77q75 0 117.5 27t59.5 74t17 113q0 67 -17 114.5t-60 74t-117 26.5h-100v-429h100zM355 667h-108l-103 155h83l74 -113l74 113h83z" />
    <glyph glyph-name="dcroat.sc" horiz-adv-x="619" 
d="M504 503.5q65 -79.5 65 -212.5q0 -134 -65.5 -212.5t-210.5 -78.5h-203v268h-60v61h60v254h203q146 0 211 -79.5zM397.5 104q42.5 27 59.5 74t17 113q0 67 -17 114.5t-60 74t-117 26.5h-100v-177h153v-61h-153v-191h100q75 0 117.5 27z" />
    <glyph glyph-name="e.sc" horiz-adv-x="491" 
d="M90 583h350v-77h-260v-171h257v-77h-257v-181h260v-77h-350v583z" />
    <glyph glyph-name="eacute.sc" horiz-adv-x="491" 
d="M90 583h350v-77h-260v-171h257v-77h-257v-181h260v-77h-350v583zM292 822h90l-101 -154h-82z" />
    <glyph glyph-name="ebreve.sc" horiz-adv-x="491" 
d="M90 583h350v-77h-260v-171h257v-77h-257v-181h260v-77h-350v583zM153 704q-37 40 -41 119h67q4 -54 23.5 -79t63.5 -25t63.5 24.5t24.5 79.5h66q-4 -79 -40.5 -119t-113.5 -40q-76 0 -113 40z" />
    <glyph glyph-name="ecaron.sc" horiz-adv-x="491" 
d="M90 583h350v-77h-260v-171h257v-77h-257v-181h260v-77h-350v583zM321 667h-108l-103 155h83l74 -113l74 113h83z" />
    <glyph glyph-name="ecircumflex.sc" horiz-adv-x="491" 
d="M90 583h350v-77h-260v-171h257v-77h-257v-181h260v-77h-350v583zM213 823h108l103 -156h-83l-74 113l-73 -113h-84z" />
    <glyph glyph-name="edieresis.sc" horiz-adv-x="491" 
d="M90 583h350v-77h-260v-171h257v-77h-257v-181h260v-77h-350v583zM132 697.5q-16 15.5 -16 38.5q0 24 16 40t40 16q23 0 39.5 -16t16.5 -40q0 -23 -16.5 -38.5t-39.5 -15.5q-24 0 -40 15.5zM321.5 697.5q-15.5 15.5 -15.5 38.5q0 24 15.5 40t40.5 16q23 0 39.5 -16
t16.5 -40q0 -23 -16.5 -38.5t-39.5 -15.5q-25 0 -40.5 15.5z" />
    <glyph glyph-name="edotaccent.sc" horiz-adv-x="491" 
d="M90 583h350v-77h-260v-171h257v-77h-257v-181h260v-77h-350v583zM225 706.5q-16 15.5 -16 39.5q0 25 16 41t41 16q24 0 41 -16.5t17 -40.5t-17 -39.5t-41 -15.5q-25 0 -41 15.5z" />
    <glyph glyph-name="egrave.sc" horiz-adv-x="491" 
d="M90 583h350v-77h-260v-171h257v-77h-257v-181h260v-77h-350v583zM252 668l-101 154h90l93 -154h-82z" />
    <glyph glyph-name="emacron.sc" horiz-adv-x="491" 
d="M90 583h350v-77h-260v-171h257v-77h-257v-181h260v-77h-350v583zM125 766h283v-61h-283v61z" />
    <glyph glyph-name="eogonek.sc" horiz-adv-x="491" 
d="M449 -146v-55q-26 -11 -64 -11q-47 0 -74.5 22.5t-27.5 63.5q0 35 22 64.5t65 61.5h-280v583h350v-77h-260v-171h257v-77h-257v-181h260v-77q-45 -38 -64.5 -62t-19.5 -51q0 -21 12.5 -31.5t33.5 -10.5q25 0 47 9z" />
    <glyph glyph-name="uni0259.sc" horiz-adv-x="606" 
d="M442.5 556q59.5 -40 86.5 -108.5t27 -157.5q0 -86 -26.5 -154.5t-85.5 -109t-151 -40.5q-127 0 -185 77.5t-58 203.5v40h411q-3 98 -40.5 154.5t-127.5 56.5q-68 0 -106 -33.5t-43 -98.5h-89q3 65 33.5 112.5t82.5 72.5t120 25q92 0 151.5 -40zM411.5 110.5
q39.5 45.5 47.5 126.5h-321q0 -172 153 -172q81 0 120.5 45.5z" />
    <glyph glyph-name="f.sc" horiz-adv-x="472" 
d="M90 583h339v-77h-249v-171h247v-77h-247v-258h-90v583z" />
    <glyph glyph-name="g.sc" horiz-adv-x="625" 
d="M575 308v-41q0 -81 -25 -143.5t-81.5 -100t-146.5 -37.5q-95 0 -156 40.5t-88.5 109t-27.5 155.5q0 88 28.5 156.5t90 108.5t156.5 40q71 0 125 -25.5t85 -72.5t35 -112h-91q-5 65 -45 97.5t-111 32.5q-99 0 -138 -61t-39 -164q0 -106 39.5 -165t139.5 -59q158 0 162 163
h-153v78h241z" />
    <glyph glyph-name="gbreve.sc" horiz-adv-x="625" 
d="M575 308v-41q0 -81 -25 -143.5t-81.5 -100t-146.5 -37.5q-95 0 -156 40.5t-88.5 109t-27.5 155.5q0 88 28.5 156.5t90 108.5t156.5 40q71 0 125 -25.5t85 -72.5t35 -112h-91q-5 65 -45 97.5t-111 32.5q-99 0 -138 -61t-39 -164q0 -106 39.5 -165t139.5 -59q158 0 162 163
h-153v78h241zM208 704q-37 40 -41 119h67q4 -54 23.5 -79t63.5 -25t63.5 24.5t24.5 79.5h66q-4 -79 -40.5 -119t-113.5 -40q-76 0 -113 40z" />
    <glyph glyph-name="gcircumflex.sc" horiz-adv-x="625" 
d="M575 308v-41q0 -81 -25 -143.5t-81.5 -100t-146.5 -37.5q-95 0 -156 40.5t-88.5 109t-27.5 155.5q0 88 28.5 156.5t90 108.5t156.5 40q71 0 125 -25.5t85 -72.5t35 -112h-91q-5 65 -45 97.5t-111 32.5q-99 0 -138 -61t-39 -164q0 -106 39.5 -165t139.5 -59q158 0 162 163
h-153v78h241zM268 823h108l103 -156h-83l-74 113l-73 -113h-84z" />
    <glyph glyph-name="uni0123.sc" horiz-adv-x="625" 
d="M575 308v-41q0 -81 -25 -143.5t-81.5 -100t-146.5 -37.5q-95 0 -156 40.5t-88.5 109t-27.5 155.5q0 88 28.5 156.5t90 108.5t156.5 40q71 0 125 -25.5t85 -72.5t35 -112h-91q-5 65 -45 97.5t-111 32.5q-99 0 -138 -61t-39 -164q0 -106 39.5 -165t139.5 -59q158 0 162 163
h-153v78h241zM279 -53h89l-42 -148h-80z" />
    <glyph glyph-name="gdotaccent.sc" horiz-adv-x="625" 
d="M575 308v-41q0 -81 -25 -143.5t-81.5 -100t-146.5 -37.5q-95 0 -156 40.5t-88.5 109t-27.5 155.5q0 88 28.5 156.5t90 108.5t156.5 40q71 0 125 -25.5t85 -72.5t35 -112h-91q-5 65 -45 97.5t-111 32.5q-99 0 -138 -61t-39 -164q0 -106 39.5 -165t139.5 -59q158 0 162 163
h-153v78h241zM280 706.5q-16 15.5 -16 39.5q0 25 16 41t41 16q24 0 41 -16.5t17 -40.5t-17 -39.5t-41 -15.5q-25 0 -41 15.5z" />
    <glyph glyph-name="h.sc" horiz-adv-x="625" 
d="M90 583h90v-247h265v247h89v-583h-89v257h-265v-257h-90v583z" />
    <glyph glyph-name="hbar.sc" horiz-adv-x="625" 
d="M534 583v-583h-89v257h-265v-257h-90v583h90v-91h265v91h89zM445 336v96h-265v-96h265z" />
    <glyph glyph-name="hcircumflex.sc" horiz-adv-x="625" 
d="M90 583h90v-247h265v247h89v-583h-89v257h-265v-257h-90v583zM259 823h108l103 -156h-83l-74 113l-73 -113h-84z" />
    <glyph glyph-name="i.sc" horiz-adv-x="271" 
d="M90 583h90v-583h-90v583z" />
    <glyph glyph-name="dotlessi.sc" horiz-adv-x="271" 
d="M90 583h90v-583h-90v583z" />
    <glyph glyph-name="iacute.sc" horiz-adv-x="271" 
d="M90 583h90v-583h-90v583zM157 822h88l-87 -154h-78z" />
    <glyph glyph-name="ibreve.sc" horiz-adv-x="271" 
d="M90 583h90v-583h-90v583zM43.5 703.5q-29.5 39.5 -30.5 119.5h61q1 -57 14.5 -81t46.5 -24t46.5 24t14.5 81h61q-1 -80 -30.5 -119.5t-91.5 -39.5t-91.5 39.5z" />
    <glyph glyph-name="icircumflex.sc" horiz-adv-x="271" 
d="M90 583h90v-583h-90v583zM90 823h90l85 -156h-71l-59 109l-60 -109h-71z" />
    <glyph glyph-name="idieresis.sc" horiz-adv-x="271" 
d="M90 583h90v-583h-90v583zM32.5 698q-13.5 14 -13.5 36q0 23 13.5 36.5t35.5 13.5q21 0 34.5 -14t13.5 -36t-13.5 -36t-34.5 -14q-22 0 -35.5 14zM167 698q-13 14 -13 36q0 23 13 36.5t35 13.5q21 0 34.5 -14t13.5 -36t-13.5 -36t-34.5 -14q-22 0 -35 14z" />
    <glyph glyph-name="i.sc.loclTRK" horiz-adv-x="271" 
d="M90 583h90v-583h-90v583zM93 705.5q-16 15.5 -16 39.5q0 25 16 41t41 16q24 0 41 -16.5t17 -40.5t-17 -39.5t-41 -15.5q-25 0 -41 15.5z" />
    <glyph glyph-name="igrave.sc" horiz-adv-x="271" 
d="M90 583h90v-583h-90v583zM111 668l-86 154h88l77 -154h-79z" />
    <glyph glyph-name="ij.sc" horiz-adv-x="598" 
d="M90 583h90v-583h-90v583zM294 2v83q19 -3 40 -3q38 0 60.5 10.5t32.5 34.5t10 65v391h90v-404q0 -93 -43 -137t-137 -44q-29 0 -53 4z" />
    <glyph glyph-name="imacron.sc" horiz-adv-x="271" 
d="M90 583h90v-583h-90v583zM27 766h214v-61h-214v61z" />
    <glyph glyph-name="iogonek.sc" horiz-adv-x="271" 
d="M194 -146v-55q-23 -11 -54 -11q-42 0 -67.5 20.5t-25.5 57.5t17 68.5t50 65.5h-24v583h90v-583q-32 -39 -46 -65.5t-14 -55.5q0 -17 10 -25.5t27 -8.5q18 0 37 9z" />
    <glyph glyph-name="itilde.sc" horiz-adv-x="271" 
d="M90 583h90v-583h-90v583zM150 678.5q-15 13.5 -28 41.5q-2 4 -8 17.5t-12.5 20t-14.5 6.5q-16 0 -22.5 -23t-7.5 -73h-54q2 57 9 90.5t22.5 50t43.5 16.5q26 0 41 -13.5t28 -41.5q9 -23 16.5 -33t18.5 -10q16 0 22 22t8 74h54q-2 -57 -9 -91t-23 -50.5t-44 -16.5
q-25 0 -40 13.5z" />
    <glyph glyph-name="j.sc" horiz-adv-x="328" 
d="M23 2v83q19 -3 40 -3q38 0 60.5 10.5t32.5 34.5t10 65v391h90v-404q0 -93 -43 -137t-137 -44q-29 0 -53 4z" />
    <glyph glyph-name="uni006A0301.sc" horiz-adv-x="328" 
d="M23 2v83q19 -3 40 -3q38 0 60.5 10.5t32.5 34.5t10 65v391h90v-404q0 -93 -43 -137t-137 -44q-29 0 -53 4zM233 822h88l-87 -154h-78z" />
    <glyph glyph-name="jcircumflex.sc" horiz-adv-x="328" 
d="M23 2v83q19 -3 40 -3q38 0 60.5 10.5t32.5 34.5t10 65v391h90v-404q0 -93 -43 -137t-137 -44q-29 0 -53 4zM166 823h90l85 -156h-71l-59 109l-60 -109h-71z" />
    <glyph glyph-name="k.sc" horiz-adv-x="537" 
d="M418 0l-238 286v-286h-90v583h90v-236l208 236h105l-232 -263l268 -320h-111z" />
    <glyph glyph-name="uni0137.sc" horiz-adv-x="537" 
d="M418 0l-238 286v-286h-90v583h90v-236l208 236h105l-232 -263l268 -320h-111zM247 -53h89l-42 -148h-80z" />
    <glyph glyph-name="kgreenlandic.sc" horiz-adv-x="537" 
d="M418 0l-238 286v-286h-90v583h90v-236l208 236h105l-232 -263l268 -320h-111z" />
    <glyph glyph-name="l.sc" horiz-adv-x="429" 
d="M90 583h90v-502h226v-81h-316v583z" />
    <glyph glyph-name="lacute.sc" horiz-adv-x="429" 
d="M90 583h90v-502h226v-81h-316v583zM187 822h90l-101 -154h-82z" />
    <glyph glyph-name="lcaron.sc" horiz-adv-x="429" 
d="M90 583h90v-502h226v-81h-316v583zM259 583h77l-37 -167h-68z" />
    <glyph glyph-name="uni013C.sc" horiz-adv-x="429" 
d="M90 583h90v-502h226v-81h-316v583zM206 -53h89l-42 -148h-80z" />
    <glyph glyph-name="ldot.sc" horiz-adv-x="473" 
d="M90 583h90v-502h226v-81h-316v583zM310 302q-17 17 -17 43q0 28 17 45t45 17q27 0 44.5 -17.5t17.5 -44.5q0 -26 -18 -43t-44 -17q-28 0 -45 17z" />
    <glyph glyph-name="lslash.sc" horiz-adv-x="429" 
d="M406 81v-81h-316v249l-64 -42v76l64 42v258h90v-210l140 94v-77l-140 -94v-215h226z" />
    <glyph glyph-name="m.sc" horiz-adv-x="768" 
d="M90 583h109l185 -433l186 433h108v-583h-85v438l-187 -438h-44l-187 438v-438h-85v583z" />
    <glyph glyph-name="n.sc" horiz-adv-x="645" 
d="M90 583h92l286 -440v440h87v-583h-93l-285 440v-440h-87v583z" />
    <glyph glyph-name="nacute.sc" horiz-adv-x="645" 
d="M90 583h92l286 -440v440h87v-583h-93l-285 440v-440h-87v583zM349 822h90l-101 -154h-82z" />
    <glyph glyph-name="napostrophe.sc" horiz-adv-x="805" 
d="M111 706h91l-90 -281h-69zM269 583h92l286 -440v440h87v-583h-93l-285 440v-440h-87v583z" />
    <glyph glyph-name="ncaron.sc" horiz-adv-x="645" 
d="M90 583h92l286 -440v440h87v-583h-93l-285 440v-440h-87v583zM377 667h-108l-103 155h83l74 -113l74 113h83z" />
    <glyph glyph-name="uni0146.sc" horiz-adv-x="645" 
d="M90 583h92l286 -440v440h87v-583h-93l-285 440v-440h-87v583zM276 -53h89l-42 -148h-80z" />
    <glyph glyph-name="eng.sc" horiz-adv-x="645" 
d="M555 583v-634q0 -61 -28 -89t-90 -28q-13 0 -49 2v74q22 -2 27 -2q28 0 40.5 13t12.5 41v41l-291 439v-440h-87v583h92l286 -435v435h87z" />
    <glyph glyph-name="ntilde.sc" horiz-adv-x="645" 
d="M90 583h92l286 -440v440h87v-583h-93l-285 440v-440h-87v583zM353.5 676.5q-18.5 11.5 -39.5 39.5q-2 3 -13 17.5t-22 21.5t-23 7q-22 0 -31.5 -23t-11.5 -71h-57q2 80 23.5 118.5t68.5 38.5q26 0 44.5 -11.5t39.5 -40.5q3 -4 15 -18t22.5 -20.5t21.5 -6.5q23 0 32 22
t11 73h57q-2 -81 -23.5 -119.5t-68.5 -38.5q-27 0 -45.5 11.5z" />
    <glyph glyph-name="o.sc" horiz-adv-x="644" 
d="M165 27.5q-61 41.5 -88 110t-27 153.5q0 86 27.5 154.5t88 109.5t156.5 41q97 0 157.5 -41t88 -109t27.5 -155t-27.5 -155.5t-88.5 -109t-157 -40.5t-157 41.5zM460 128.5q39 61.5 39 162.5q0 224 -177 224q-98 0 -137.5 -61.5t-39.5 -162.5q0 -224 177 -224
q99 0 138 61.5z" />
    <glyph glyph-name="oacute.sc" horiz-adv-x="644" 
d="M165 27.5q-61 41.5 -88 110t-27 153.5q0 86 27.5 154.5t88 109.5t156.5 41q97 0 157.5 -41t88 -109t27.5 -155t-27.5 -155.5t-88.5 -109t-157 -40.5t-157 41.5zM460 128.5q39 61.5 39 162.5q0 224 -177 224q-98 0 -137.5 -61.5t-39.5 -162.5q0 -224 177 -224
q99 0 138 61.5zM347 822h90l-101 -154h-82z" />
    <glyph glyph-name="obreve.sc" horiz-adv-x="644" 
d="M165 27.5q-61 41.5 -88 110t-27 153.5q0 86 27.5 154.5t88 109.5t156.5 41q97 0 157.5 -41t88 -109t27.5 -155t-27.5 -155.5t-88.5 -109t-157 -40.5t-157 41.5zM460 128.5q39 61.5 39 162.5q0 224 -177 224q-98 0 -137.5 -61.5t-39.5 -162.5q0 -224 177 -224
q99 0 138 61.5zM208 704q-37 40 -41 119h67q4 -54 23.5 -79t63.5 -25t63.5 24.5t24.5 79.5h66q-4 -79 -40.5 -119t-113.5 -40q-76 0 -113 40z" />
    <glyph glyph-name="ocircumflex.sc" horiz-adv-x="644" 
d="M165 27.5q-61 41.5 -88 110t-27 153.5q0 86 27.5 154.5t88 109.5t156.5 41q97 0 157.5 -41t88 -109t27.5 -155t-27.5 -155.5t-88.5 -109t-157 -40.5t-157 41.5zM460 128.5q39 61.5 39 162.5q0 224 -177 224q-98 0 -137.5 -61.5t-39.5 -162.5q0 -224 177 -224
q99 0 138 61.5zM268 823h108l103 -156h-83l-74 113l-73 -113h-84z" />
    <glyph glyph-name="odieresis.sc" horiz-adv-x="644" 
d="M165 27.5q-61 41.5 -88 110t-27 153.5q0 86 27.5 154.5t88 109.5t156.5 41q97 0 157.5 -41t88 -109t27.5 -155t-27.5 -155.5t-88.5 -109t-157 -40.5t-157 41.5zM460 128.5q39 61.5 39 162.5q0 224 -177 224q-98 0 -137.5 -61.5t-39.5 -162.5q0 -224 177 -224
q99 0 138 61.5zM187 697.5q-16 15.5 -16 38.5q0 24 16 40t40 16q23 0 39.5 -16t16.5 -40q0 -23 -16.5 -38.5t-39.5 -15.5q-24 0 -40 15.5zM376.5 697.5q-15.5 15.5 -15.5 38.5q0 24 15.5 40t40.5 16q23 0 39.5 -16t16.5 -40q0 -23 -16.5 -38.5t-39.5 -15.5q-25 0 -40.5 15.5
z" />
    <glyph glyph-name="ograve.sc" horiz-adv-x="644" 
d="M165 27.5q-61 41.5 -88 110t-27 153.5q0 86 27.5 154.5t88 109.5t156.5 41q97 0 157.5 -41t88 -109t27.5 -155t-27.5 -155.5t-88.5 -109t-157 -40.5t-157 41.5zM460 128.5q39 61.5 39 162.5q0 224 -177 224q-98 0 -137.5 -61.5t-39.5 -162.5q0 -224 177 -224
q99 0 138 61.5zM308 668l-101 154h90l93 -154h-82z" />
    <glyph glyph-name="ohungarumlaut.sc" horiz-adv-x="644" 
d="M165 27.5q-61 41.5 -88 110t-27 153.5q0 86 27.5 154.5t88 109.5t156.5 41q97 0 157.5 -41t88 -109t27.5 -155t-27.5 -155.5t-88.5 -109t-157 -40.5t-157 41.5zM460 128.5q39 61.5 39 162.5q0 224 -177 224q-98 0 -137.5 -61.5t-39.5 -162.5q0 -224 177 -224
q99 0 138 61.5zM309 823h81l-120 -155h-67zM456 823h81l-119 -155h-68z" />
    <glyph glyph-name="omacron.sc" horiz-adv-x="644" 
d="M165 27.5q-61 41.5 -88 110t-27 153.5q0 86 27.5 154.5t88 109.5t156.5 41q97 0 157.5 -41t88 -109t27.5 -155t-27.5 -155.5t-88.5 -109t-157 -40.5t-157 41.5zM460 128.5q39 61.5 39 162.5q0 224 -177 224q-98 0 -137.5 -61.5t-39.5 -162.5q0 -224 177 -224
q99 0 138 61.5zM180 766h283v-61h-283v61z" />
    <glyph glyph-name="oslash.sc" horiz-adv-x="644" 
d="M534 504q31 -41 46 -95.5t15 -117.5q0 -87 -27.5 -155.5t-88.5 -109t-157 -40.5q-108 0 -175 54l-35 -40h-70l68 79q-31 40 -45.5 94.5t-14.5 117.5q0 86 27.5 154.5t88 109.5t156.5 41q108 0 175 -53l35 40h70zM184.5 453.5q-39.5 -61.5 -39.5 -162.5q0 -88 27 -141
l268 325q-43 40 -118 40q-98 0 -137.5 -61.5zM460 128.5q39 61.5 39 162.5q0 88 -27 142l-269 -325q43 -41 119 -41q99 0 138 61.5z" />
    <glyph glyph-name="oslashacute.sc" horiz-adv-x="644" 
d="M534 504q31 -41 46 -95.5t15 -117.5q0 -87 -27.5 -155.5t-88.5 -109t-157 -40.5q-108 0 -175 54l-35 -40h-70l68 79q-31 40 -45.5 94.5t-14.5 117.5q0 86 27.5 154.5t88 109.5t156.5 41q108 0 175 -53l35 40h70zM184.5 453.5q-39.5 -61.5 -39.5 -162.5q0 -88 27 -141
l268 325q-43 40 -118 40q-98 0 -137.5 -61.5zM460 128.5q39 61.5 39 162.5q0 88 -27 142l-269 -325q43 -41 119 -41q99 0 138 61.5zM347 822h90l-101 -154h-82z" />
    <glyph glyph-name="otilde.sc" horiz-adv-x="644" 
d="M165 27.5q-61 41.5 -88 110t-27 153.5q0 86 27.5 154.5t88 109.5t156.5 41q97 0 157.5 -41t88 -109t27.5 -155t-27.5 -155.5t-88.5 -109t-157 -40.5t-157 41.5zM460 128.5q39 61.5 39 162.5q0 224 -177 224q-98 0 -137.5 -61.5t-39.5 -162.5q0 -224 177 -224
q99 0 138 61.5zM351.5 676.5q-18.5 11.5 -39.5 39.5q-2 3 -13 17.5t-22 21.5t-23 7q-22 0 -31.5 -23t-11.5 -71h-57q2 80 23.5 118.5t68.5 38.5q26 0 44.5 -11.5t39.5 -40.5q3 -4 15 -18t22.5 -20.5t21.5 -6.5q23 0 32 22t11 73h57q-2 -81 -23.5 -119.5t-68.5 -38.5
q-27 0 -45.5 11.5z" />
    <glyph glyph-name="oe.sc" horiz-adv-x="879" 
d="M568 506v-171h257v-77h-257v-181h259v-77h-337v66q-63 -76 -181 -76q-93 0 -150.5 40.5t-83 108t-25.5 152.5t26 152.5t84 108t149 40.5q61 0 106 -19.5t75 -55.5v66h337v-77h-259zM481 291q0 102 -37.5 163t-130.5 61q-94 0 -131 -61.5t-37 -162.5t38 -162t130 -61
q168 0 168 223z" />
    <glyph glyph-name="p.sc" horiz-adv-x="515" 
d="M90 583h209q99 0 146 -42.5t47 -121.5q0 -80 -48 -124t-145 -44h-119v-251h-90v583zM276 324q63 0 92.5 23t29.5 70q0 48 -29.5 70.5t-92.5 22.5h-96v-186h96z" />
    <glyph glyph-name="thorn.sc" horiz-adv-x="516" 
d="M90 583h90v-96h98q113 0 163.5 -49t50.5 -140q0 -94 -50.5 -144t-163.5 -50h-98v-104h-90v583zM259 179q75 0 107.5 29.5t32.5 89.5q0 57 -32.5 85.5t-107.5 28.5h-79v-233h79z" />
    <glyph glyph-name="q.sc" horiz-adv-x="644" 
d="M560 119.5q-35 -73.5 -109 -107.5l67 -100l-67 -43l-76 121q-21 -4 -53 -4q-96 0 -157 41.5t-88 110t-27 153.5q0 86 27.5 154.5t88 109.5t156.5 41q97 0 157.5 -41t88 -109t27.5 -155q0 -98 -35 -171.5zM326 67l-36 58l59 40l55 -82q52 24 73.5 78.5t21.5 129.5
q0 224 -177 224q-98 0 -137.5 -61.5t-39.5 -162.5q0 -224 177 -224h4z" />
    <glyph glyph-name="r.sc" horiz-adv-x="554" 
d="M253 252h-73v-252h-90v583h217q102 0 149 -43t47 -118q0 -149 -152 -167l189 -255h-101zM180 321h104q67 0 96.5 24t29.5 73q0 48 -29.5 70.5t-96.5 22.5h-104v-190z" />
    <glyph glyph-name="racute.sc" horiz-adv-x="554" 
d="M253 252h-73v-252h-90v583h217q102 0 149 -43t47 -118q0 -149 -152 -167l189 -255h-101zM180 321h104q67 0 96.5 24t29.5 73q0 48 -29.5 70.5t-96.5 22.5h-104v-190zM308 822h90l-101 -154h-82z" />
    <glyph glyph-name="rcaron.sc" horiz-adv-x="554" 
d="M253 252h-73v-252h-90v583h217q102 0 149 -43t47 -118q0 -149 -152 -167l189 -255h-101zM180 321h104q67 0 96.5 24t29.5 73q0 48 -29.5 70.5t-96.5 22.5h-104v-190zM337 667h-108l-103 155h83l74 -113l74 113h83z" />
    <glyph glyph-name="uni0157.sc" horiz-adv-x="554" 
d="M253 252h-73v-252h-90v583h217q102 0 149 -43t47 -118q0 -149 -152 -167l189 -255h-101zM180 321h104q67 0 96.5 24t29.5 73q0 48 -29.5 70.5t-96.5 22.5h-104v-190zM263 -53h89l-42 -148h-80z" />
    <glyph glyph-name="s.sc" horiz-adv-x="527" 
d="M91.5 40.5q-54.5 54.5 -54.5 146.5h98q0 -61 29.5 -94t101.5 -33q62 0 94.5 25.5t32.5 67.5q0 32 -19.5 52t-52 32.5t-99.5 31.5q-56 15 -93.5 34.5t-58 50t-20.5 75.5q0 48 24 85.5t70.5 59.5t112.5 22q105 0 156 -52t51 -139h-93q0 120 -117 120q-54 0 -83 -23.5
t-29 -60.5q0 -29 16.5 -46.5t44.5 -28.5t85 -27q5 -1 20 -5q64 -18 102.5 -37.5t59.5 -51t21 -80.5q0 -54 -26 -94.5t-77 -62.5t-124 -22q-118 0 -172.5 54.5z" />
    <glyph glyph-name="sacute.sc" horiz-adv-x="527" 
d="M91.5 40.5q-54.5 54.5 -54.5 146.5h98q0 -61 29.5 -94t101.5 -33q62 0 94.5 25.5t32.5 67.5q0 32 -19.5 52t-52 32.5t-99.5 31.5q-56 15 -93.5 34.5t-58 50t-20.5 75.5q0 48 24 85.5t70.5 59.5t112.5 22q105 0 156 -52t51 -139h-93q0 120 -117 120q-54 0 -83 -23.5
t-29 -60.5q0 -29 16.5 -46.5t44.5 -28.5t85 -27q5 -1 20 -5q64 -18 102.5 -37.5t59.5 -51t21 -80.5q0 -54 -26 -94.5t-77 -62.5t-124 -22q-118 0 -172.5 54.5zM289 822h90l-101 -154h-82z" />
    <glyph glyph-name="scaron.sc" horiz-adv-x="527" 
d="M91.5 40.5q-54.5 54.5 -54.5 146.5h98q0 -61 29.5 -94t101.5 -33q62 0 94.5 25.5t32.5 67.5q0 32 -19.5 52t-52 32.5t-99.5 31.5q-56 15 -93.5 34.5t-58 50t-20.5 75.5q0 48 24 85.5t70.5 59.5t112.5 22q105 0 156 -52t51 -139h-93q0 120 -117 120q-54 0 -83 -23.5
t-29 -60.5q0 -29 16.5 -46.5t44.5 -28.5t85 -27q5 -1 20 -5q64 -18 102.5 -37.5t59.5 -51t21 -80.5q0 -54 -26 -94.5t-77 -62.5t-124 -22q-118 0 -172.5 54.5zM318 667h-108l-103 155h83l74 -113l74 113h83z" />
    <glyph glyph-name="scedilla.sc" horiz-adv-x="527" 
d="M468 75.5q-23 -38.5 -68 -61.5t-109 -27l-11 -36h11q47 0 72.5 -22.5t25.5 -59.5q0 -45 -32 -67t-92 -22q-46 0 -80 14l10 48q31 -11 64 -11q32 0 48 9.5t16 30.5q0 19 -16 29t-50 10h-52l22 78q-99 9 -144.5 62t-45.5 137h98q0 -61 29.5 -94t101.5 -33q62 0 94.5 25.5
t32.5 67.5q0 32 -19.5 52t-52 32.5t-99.5 31.5q-56 15 -93.5 34.5t-58 50t-20.5 75.5q0 48 24 85.5t70.5 59.5t112.5 22q105 0 156 -52t51 -139h-93q0 120 -117 120q-54 0 -83 -23.5t-29 -60.5q0 -29 16.5 -46.5t44.5 -28.5t85 -27q5 -1 20 -5q64 -18 102.5 -37.5t59.5 -51
t21 -80.5q0 -51 -23 -89.5z" />
    <glyph glyph-name="scircumflex.sc" horiz-adv-x="527" 
d="M91.5 40.5q-54.5 54.5 -54.5 146.5h98q0 -61 29.5 -94t101.5 -33q62 0 94.5 25.5t32.5 67.5q0 32 -19.5 52t-52 32.5t-99.5 31.5q-56 15 -93.5 34.5t-58 50t-20.5 75.5q0 48 24 85.5t70.5 59.5t112.5 22q105 0 156 -52t51 -139h-93q0 120 -117 120q-54 0 -83 -23.5
t-29 -60.5q0 -29 16.5 -46.5t44.5 -28.5t85 -27q5 -1 20 -5q64 -18 102.5 -37.5t59.5 -51t21 -80.5q0 -54 -26 -94.5t-77 -62.5t-124 -22q-118 0 -172.5 54.5zM210 823h108l103 -156h-83l-74 113l-73 -113h-84z" />
    <glyph glyph-name="uni0219.sc" horiz-adv-x="527" 
d="M91.5 40.5q-54.5 54.5 -54.5 146.5h98q0 -61 29.5 -94t101.5 -33q62 0 94.5 25.5t32.5 67.5q0 32 -19.5 52t-52 32.5t-99.5 31.5q-56 15 -93.5 34.5t-58 50t-20.5 75.5q0 48 24 85.5t70.5 59.5t112.5 22q105 0 156 -52t51 -139h-93q0 120 -117 120q-54 0 -83 -23.5
t-29 -60.5q0 -29 16.5 -46.5t44.5 -28.5t85 -27q5 -1 20 -5q64 -18 102.5 -37.5t59.5 -51t21 -80.5q0 -54 -26 -94.5t-77 -62.5t-124 -22q-118 0 -172.5 54.5zM221 -53h89l-42 -148h-80z" />
    <glyph glyph-name="germandbls.sc" horiz-adv-x="588" 
d="M512.5 286q34.5 -46 34.5 -110q0 -84 -53 -131.5t-158 -47.5q-51 0 -87 7v78q26 -5 70 -5q135 0 135 103q0 51 -31 78.5t-99 27.5q-15 0 -29 -2v3l106 217h-221v-504h-90v583h432v-4l-114 -235q70 -12 104.5 -58z" />
    <glyph glyph-name="t.sc" horiz-adv-x="482" 
d="M196 506h-173v77h436v-77h-173v-506h-90v506z" />
    <glyph glyph-name="tbar.sc" horiz-adv-x="482" 
d="M286 506v-145h107v-61h-107v-300h-90v300h-106v61h106v145h-173v77h436v-77h-173z" />
    <glyph glyph-name="tcaron.sc" horiz-adv-x="492" 
d="M196 506h-173v77h436v-77h-173v-506h-90v506zM296 667h-108l-103 155h83l74 -113l74 113h83z" />
    <glyph glyph-name="uni0163.sc" horiz-adv-x="482" 
d="M272 0l-15 -49h11q47 0 72.5 -22.5t25.5 -59.5q0 -45 -32 -67t-91 -22q-47 0 -81 14l10 48q31 -11 64 -11q32 0 48 9.5t16 30.5q0 19 -16 29t-50 10h-52l26 90h-12v506h-173v77h436v-77h-173v-506h-14z" />
    <glyph glyph-name="uni021B.sc" horiz-adv-x="482" 
d="M196 506h-173v77h436v-77h-173v-506h-90v506zM199 -53h89l-42 -148h-80z" />
    <glyph glyph-name="u.sc" horiz-adv-x="581" 
d="M125 36q-53 50 -53 152v395h90v-389q0 -65 29.5 -96t98.5 -31t99 31t30 96v389h90v-395q0 -102 -53.5 -152t-165.5 -50t-165 50z" />
    <glyph glyph-name="uacute.sc" horiz-adv-x="581" 
d="M125 36q-53 50 -53 152v395h90v-389q0 -65 29.5 -96t98.5 -31t99 31t30 96v389h90v-395q0 -102 -53.5 -152t-165.5 -50t-165 50zM317 822h90l-101 -154h-82z" />
    <glyph glyph-name="ubreve.sc" horiz-adv-x="581" 
d="M125 36q-53 50 -53 152v395h90v-389q0 -65 29.5 -96t98.5 -31t99 31t30 96v389h90v-395q0 -102 -53.5 -152t-165.5 -50t-165 50zM178 704q-37 40 -41 119h67q4 -54 23.5 -79t63.5 -25t63.5 24.5t24.5 79.5h66q-4 -79 -40.5 -119t-113.5 -40q-76 0 -113 40z" />
    <glyph glyph-name="ucircumflex.sc" horiz-adv-x="581" 
d="M125 36q-53 50 -53 152v395h90v-389q0 -65 29.5 -96t98.5 -31t99 31t30 96v389h90v-395q0 -102 -53.5 -152t-165.5 -50t-165 50zM238 823h108l103 -156h-83l-74 113l-73 -113h-84z" />
    <glyph glyph-name="udieresis.sc" horiz-adv-x="581" 
d="M125 36q-53 50 -53 152v395h90v-389q0 -65 29.5 -96t98.5 -31t99 31t30 96v389h90v-395q0 -102 -53.5 -152t-165.5 -50t-165 50zM157 697.5q-16 15.5 -16 38.5q0 24 16 40t40 16q23 0 39.5 -16t16.5 -40q0 -23 -16.5 -38.5t-39.5 -15.5q-24 0 -40 15.5zM346.5 697.5
q-15.5 15.5 -15.5 38.5q0 24 15.5 40t40.5 16q23 0 39.5 -16t16.5 -40q0 -23 -16.5 -38.5t-39.5 -15.5q-25 0 -40.5 15.5z" />
    <glyph glyph-name="ugrave.sc" horiz-adv-x="581" 
d="M125 36q-53 50 -53 152v395h90v-389q0 -65 29.5 -96t98.5 -31t99 31t30 96v389h90v-395q0 -102 -53.5 -152t-165.5 -50t-165 50zM277 668l-101 154h90l93 -154h-82z" />
    <glyph glyph-name="uhungarumlaut.sc" horiz-adv-x="581" 
d="M125 36q-53 50 -53 152v395h90v-389q0 -65 29.5 -96t98.5 -31t99 31t30 96v389h90v-395q0 -102 -53.5 -152t-165.5 -50t-165 50zM278 823h81l-120 -155h-67zM425 823h81l-119 -155h-68z" />
    <glyph glyph-name="umacron.sc" horiz-adv-x="581" 
d="M125 36q-53 50 -53 152v395h90v-389q0 -65 29.5 -96t98.5 -31t99 31t30 96v389h90v-395q0 -102 -53.5 -152t-165.5 -50t-165 50zM150 766h283v-61h-283v61z" />
    <glyph glyph-name="uogonek.sc" horiz-adv-x="581" 
d="M509 583v-395q0 -63 -19.5 -104t-60.5 -75q-44 -36 -64.5 -61.5t-20.5 -52.5q0 -21 12.5 -31.5t33.5 -10.5q24 0 48 9v-55q-27 -11 -64 -11q-47 0 -75 22.5t-28 63.5q0 30 15.5 55t46.5 51q-26 -2 -43 -2q-112 0 -165 50t-53 152v395h90v-389q0 -65 29.5 -96t98.5 -31
t99 31t30 96v389h90z" />
    <glyph glyph-name="uring.sc" horiz-adv-x="581" 
d="M125 36q-53 50 -53 152v395h90v-389q0 -65 29.5 -96t98.5 -31t99 31t30 96v389h90v-395q0 -102 -53.5 -152t-165.5 -50t-165 50zM231 663.5q-25 13.5 -39 37.5t-14 56t14 56t39 37t59 13t60 -13.5t40 -37.5t14 -55q0 -32 -14 -56t-40 -37.5t-60 -13.5t-59 13.5zM333 715
q16 16 16 42q0 25 -16.5 41t-42.5 16t-42 -15.5t-16 -41.5t16 -42t42 -16q27 0 43 16z" />
    <glyph glyph-name="utilde.sc" horiz-adv-x="581" 
d="M125 36q-53 50 -53 152v395h90v-389q0 -65 29.5 -96t98.5 -31t99 31t30 96v389h90v-395q0 -102 -53.5 -152t-165.5 -50t-165 50zM321.5 676.5q-18.5 11.5 -39.5 39.5q-2 3 -13 17.5t-22 21.5t-23 7q-22 0 -31.5 -23t-11.5 -71h-57q2 80 23.5 118.5t68.5 38.5
q26 0 44.5 -11.5t39.5 -40.5q3 -4 15 -18t22.5 -20.5t21.5 -6.5q23 0 32 22t11 73h57q-2 -81 -23.5 -119.5t-68.5 -38.5q-27 0 -45.5 11.5z" />
    <glyph glyph-name="v.sc" horiz-adv-x="542" 
d="M534 583l-217 -583h-91l-218 583h95l168 -474l170 474h93z" />
    <glyph glyph-name="w.sc" horiz-adv-x="776" 
d="M768 583l-164 -583h-95l-121 458l-121 -458h-93l-166 583h89l124 -450l120 450h96l119 -449l124 449h88z" />
    <glyph glyph-name="wacute.sc" horiz-adv-x="776" 
d="M768 583l-164 -583h-95l-121 458l-121 -458h-93l-166 583h89l124 -450l120 450h96l119 -449l124 449h88zM414 822h90l-101 -154h-82z" />
    <glyph glyph-name="wcircumflex.sc" horiz-adv-x="776" 
d="M768 583l-164 -583h-95l-121 458l-121 -458h-93l-166 583h89l124 -450l120 450h96l119 -449l124 449h88zM335 823h108l103 -156h-83l-74 113l-73 -113h-84z" />
    <glyph glyph-name="wdieresis.sc" horiz-adv-x="776" 
d="M768 583l-164 -583h-95l-121 458l-121 -458h-93l-166 583h89l124 -450l120 450h96l119 -449l124 449h88zM254 697.5q-16 15.5 -16 38.5q0 24 16 40t40 16q23 0 39.5 -16t16.5 -40q0 -23 -16.5 -38.5t-39.5 -15.5q-24 0 -40 15.5zM443.5 697.5q-15.5 15.5 -15.5 38.5
q0 24 15.5 40t40.5 16q23 0 39.5 -16t16.5 -40q0 -23 -16.5 -38.5t-39.5 -15.5q-25 0 -40.5 15.5z" />
    <glyph glyph-name="wgrave.sc" horiz-adv-x="776" 
d="M768 583l-164 -583h-95l-121 458l-121 -458h-93l-166 583h89l124 -450l120 450h96l119 -449l124 449h88zM375 668l-101 154h90l93 -154h-82z" />
    <glyph glyph-name="x.sc" horiz-adv-x="573" 
d="M232 311l-197 272h105l147 -203l147 203h105l-197 -274l223 -309h-107l-171 237l-172 -237h-107z" />
    <glyph glyph-name="y.sc" horiz-adv-x="492" 
d="M202 251l-194 332h98l141 -242l140 242h96l-192 -332v-251h-89v251z" />
    <glyph glyph-name="yacute.sc" horiz-adv-x="492" 
d="M202 251l-194 332h98l141 -242l140 242h96l-192 -332v-251h-89v251zM272 822h90l-101 -154h-82z" />
    <glyph glyph-name="ycircumflex.sc" horiz-adv-x="492" 
d="M202 251l-194 332h98l141 -242l140 242h96l-192 -332v-251h-89v251zM193 823h108l103 -156h-83l-74 113l-73 -113h-84z" />
    <glyph glyph-name="ydieresis.sc" horiz-adv-x="492" 
d="M202 251l-194 332h98l141 -242l140 242h96l-192 -332v-251h-89v251zM112 697.5q-16 15.5 -16 38.5q0 24 16 40t40 16q23 0 39.5 -16t16.5 -40q0 -23 -16.5 -38.5t-39.5 -15.5q-24 0 -40 15.5zM301.5 697.5q-15.5 15.5 -15.5 38.5q0 24 15.5 40t40.5 16q23 0 39.5 -16
t16.5 -40q0 -23 -16.5 -38.5t-39.5 -15.5q-25 0 -40.5 15.5z" />
    <glyph glyph-name="ygrave.sc" horiz-adv-x="492" 
d="M202 251l-194 332h98l141 -242l140 242h96l-192 -332v-251h-89v251zM233 668l-101 154h90l93 -154h-82z" />
    <glyph glyph-name="z.sc" horiz-adv-x="501" 
d="M323 504h-286v79h426l-298 -504h309v-79h-451z" />
    <glyph glyph-name="zacute.sc" horiz-adv-x="501" 
d="M323 504h-286v79h426l-298 -504h309v-79h-451zM272 822h90l-101 -154h-82z" />
    <glyph glyph-name="zcaron.sc" horiz-adv-x="501" 
d="M323 504h-286v79h426l-298 -504h309v-79h-451zM301 667h-108l-103 155h83l74 -113l74 113h83z" />
    <glyph glyph-name="zdotaccent.sc" horiz-adv-x="501" 
d="M323 504h-286v79h426l-298 -504h309v-79h-451zM205 706.5q-16 15.5 -16 39.5q0 25 16 41t41 16q24 0 41 -16.5t17 -40.5t-17 -39.5t-41 -15.5q-25 0 -41 15.5z" />
    <glyph glyph-name="m.sc.ss01" horiz-adv-x="724" 
d="M90 583h113l160 -247l158 247h112v-583h-87v472l-164 -255h-40l-165 255v-472h-87v583z" />
    <glyph glyph-name="q.sc.ss02" horiz-adv-x="644" 
d="M560.5 120q-34.5 -74 -107.5 -108l60 -109l-80 -39l-64 125q-22 -3 -47 -3q-96 0 -157 41.5t-88 110t-27 153.5q0 86 27.5 154.5t88 109.5t156.5 41q97 0 157.5 -41t88 -109t27.5 -155q0 -97 -34.5 -171zM460 128.5q39 61.5 39 162.5q0 224 -177 224q-98 0 -137.5 -61.5
t-39.5 -162.5q0 -224 177 -224q99 0 138 61.5z" />
    <glyph glyph-name="oslash.sc.ss04" horiz-adv-x="644" 
d="M531 509q33 -41 48.5 -96.5t15.5 -121.5q0 -87 -27.5 -155.5t-88.5 -109t-157 -40.5q-90 0 -149 37l-60 -81l-66 44l67 88q-33 41 -48.5 96.5t-15.5 120.5q0 86 27.5 154.5t88 109.5t156.5 41q89 0 150 -36l60 82l66 -45zM460 128.5q39 61.5 39 162.5q0 224 -177 224
q-98 0 -137.5 -61.5t-39.5 -162.5q0 -224 177 -224q99 0 138 61.5z" />
    <glyph glyph-name="ordfeminine" unicode="&#xaa;" horiz-adv-x="385" 
d="M301.5 678.5q33.5 -37.5 33.5 -110.5v-202h-71v43q-18 -24 -48 -37.5t-69 -13.5q-58 0 -88.5 28t-30.5 77q0 57 42.5 83.5t124.5 26.5h69v5q0 30 -7 48.5t-24 28t-47 9.5q-38 0 -55 -16t-17 -47h-72q0 56 35.5 85.5t109.5 29.5q81 0 114.5 -37.5zM244 440.5
q20 27.5 20 79.5v5h-64q-51 0 -74 -12.5t-23 -43.5q0 -56 70 -56q51 0 71 27.5z" />
    <glyph glyph-name="ordmasculine" unicode="&#xba;" horiz-adv-x="390" 
d="M101.5 383q-37.5 24 -55 64t-17.5 91q0 50 18 90.5t55 64t93 23.5t93 -23.5t55 -64t18 -90.5t-18 -90.5t-55 -64.5t-93 -24t-93.5 24zM286 538q0 52 -20.5 84.5t-70.5 32.5t-71 -32.5t-21 -84.5q0 -118 92 -118q91 0 91 118z" />
    <glyph glyph-name="n.superior" unicode="&#x207f;" horiz-adv-x="380" 
d="M299 711.5q27 -29.5 27 -86.5v-187h-66v172q0 37 -16 54.5t-49 17.5q-35 0 -53 -18.5t-18 -54.5v-171h-67v295h67v-37q15 22 39 33.5t56 11.5q53 0 80 -29.5z" />
    <glyph glyph-name="A.subs" horiz-adv-x="386" 
d="M278 -34h-170l-29 -86h-72l133 388h106l134 -388h-73zM259 22l-65 193h-2l-65 -193h132z" />
    <glyph glyph-name="B.subs" horiz-adv-x="386" 
d="M335 49.5q19 -24.5 19 -61.5q0 -52 -34.5 -80t-103.5 -28h-148v388h148q61 0 92.5 -26.5t31.5 -69.5q0 -32 -16.5 -54.5t-50.5 -31.5q43 -12 62 -36.5zM138 106h54q40 0 58.5 15.5t18.5 42.5q0 26 -19.5 40.5t-59.5 14.5h-52v-113zM259.5 -55.5q21.5 15.5 21.5 47.5
q0 33 -21.5 49.5t-66.5 16.5h-55v-129h52q48 0 69.5 15.5z" />
    <glyph glyph-name="C.subs" horiz-adv-x="431" 
d="M117.5 -103q-41.5 27 -60.5 73t-19 104t19 103.5t60.5 73t106.5 27.5q50 0 88 -18.5t60 -52.5t24 -80h-75q-1 42 -28 65.5t-72 23.5q-61 0 -85 -38.5t-24 -103.5q0 -66 24 -103.5t86 -37.5q47 0 73 22.5t28 63.5h74q-1 -45 -23.5 -79t-61.5 -52t-88 -18q-65 0 -106.5 27z
" />
    <glyph glyph-name="D.subs" horiz-adv-x="437" 
d="M68 268h143q100 0 144 -52.5t44 -141.5q0 -90 -44.5 -142t-143.5 -52h-143v388zM200 -60q71 0 98.5 35t27.5 99q0 65 -28 100t-98 35h-62v-269h62z" />
    <glyph glyph-name="E.subs" horiz-adv-x="348" 
d="M68 268h242v-57h-172v-105h170v-58h-170v-110h172v-58h-242v388z" />
    <glyph glyph-name="F.subs" horiz-adv-x="333" 
d="M68 268h233v-57h-163v-107h162v-58h-162v-166h-70v388z" />
    <glyph glyph-name="G.subs" horiz-adv-x="435" 
d="M397 88v-28q0 -85 -41 -137.5t-132 -52.5q-65 0 -106.5 27t-60.5 73t-19 104q0 59 19.5 104.5t61 72.5t106.5 27q49 0 86.5 -17.5t59 -49.5t23.5 -75h-71q-4 40 -29.5 61t-69.5 21q-63 0 -87.5 -38.5t-24.5 -105.5q0 -69 25 -106.5t89 -37.5q100 0 104 102h-100v56h167z
" />
    <glyph glyph-name="H.subs" horiz-adv-x="446" 
d="M68 268h70v-160h170v160h70v-388h-70v166h-170v-166h-70v388z" />
    <glyph glyph-name="I.subs" horiz-adv-x="206" 
d="M68 268h70v-388h-70v388z" />
    <glyph glyph-name="J.subs" horiz-adv-x="236" 
d="M18 -119v65q7 -1 26 -1q36 0 51 15t15 54v254h71v-265q0 -64 -30 -94.5t-97 -30.5q-18 0 -36 3z" />
    <glyph glyph-name="K.subs" horiz-adv-x="387" 
d="M294 -120l-156 187v-187h-70v388h70v-154l135 154h83l-155 -174l179 -214h-86z" />
    <glyph glyph-name="L.subs" horiz-adv-x="303" 
d="M68 268h70v-324h147v-64h-217v388z" />
    <glyph glyph-name="M.subs" horiz-adv-x="544" 
d="M68 268h81l123 -275l123 275h81v-388h-67v278l-122 -278h-29l-124 278v-278h-66v388z" />
    <glyph glyph-name="N.subs" horiz-adv-x="460" 
d="M68 268h71l185 -278v278h68v-388h-72l-184 279v-279h-68v388z" />
    <glyph glyph-name="O.subs" horiz-adv-x="450" 
d="M116.5 -102.5q-41.5 27.5 -60 73.5t-18.5 103q0 58 19 103.5t60.5 73t106.5 27.5q98 0 143 -57t45 -147q0 -58 -19 -104t-61 -73t-108 -27t-107.5 27.5zM337 74q0 141 -113 141q-63 0 -87.5 -38.5t-24.5 -102.5t25 -102t87 -38q113 0 113 140z" />
    <glyph glyph-name="P.subs" horiz-adv-x="365" 
d="M68 268h148q69 0 100 -28.5t31 -82.5q0 -56 -32 -85.5t-99 -29.5h-78v-162h-70v388zM197 94q40 0 59.5 15t19.5 46t-19.5 46t-59.5 15h-59v-122h59z" />
    <glyph glyph-name="Q.subs" horiz-adv-x="450" 
d="M389 -38.5q-23 -48.5 -72 -72.5l43 -63l-48 -31l-50 78q-18 -3 -38 -3q-66 0 -107.5 27.5t-60 73.5t-18.5 103q0 58 19 103.5t60.5 73t106.5 27.5q98 0 143 -57t45 -147q0 -64 -23 -112.5zM136.5 -27.5q24.5 -38.5 86.5 -38.5l-23 36l42 28l36 -53q59 28 59 129
q0 141 -113 141q-63 0 -87.5 -38.5t-24.5 -102.5q0 -63 24.5 -101.5z" />
    <glyph glyph-name="R.subs" horiz-adv-x="390" 
d="M181 42h-43v-162h-70v388h153q69 0 101 -29t32 -81q0 -98 -97 -113l123 -165h-79zM138 92h64q42 0 60.5 15t18.5 47t-18.5 47t-60.5 15h-64v-124z" />
    <glyph glyph-name="S.subs" horiz-adv-x="369" 
d="M66 -94q-38 36 -38 96h77q0 -35 18.5 -54.5t63.5 -19.5q38 0 57.5 15t19.5 40q0 20 -12 32t-34 20.5t-65 20.5q-59 16 -87.5 40.5t-28.5 68.5q0 33 16.5 58.5t49 40t78.5 14.5q71 0 106.5 -34.5t35.5 -92.5h-73q0 33 -17.5 52t-55.5 19q-33 0 -51 -13.5t-18 -35.5
q0 -17 11.5 -28.5t33.5 -20t62 -19.5q43 -11 70 -25t41.5 -36t14.5 -55q0 -36 -18 -62.5t-53.5 -41.5t-85.5 -15q-80 0 -118 36z" />
    <glyph glyph-name="T.subs" horiz-adv-x="332" 
d="M131 209h-113v59h297v-59h-114v-329h-70v329z" />
    <glyph glyph-name="U.subs" horiz-adv-x="413" 
d="M92 -95.5q-37 34.5 -37 104.5v259h70v-254q0 -42 18.5 -61.5t63.5 -19.5t63.5 19.5t18.5 61.5v254h70v-259q0 -70 -37 -104.5t-115 -34.5t-115 34.5z" />
    <glyph glyph-name="V.subs" horiz-adv-x="378" 
d="M372 268l-147 -388h-70l-148 388h74l109 -304l109 304h73z" />
    <glyph glyph-name="W.subs" horiz-adv-x="535" 
d="M529 268l-111 -388h-73l-77 290l-77 -290h-73l-111 388h69l80 -289l76 289h72l76 -285l80 285h69z" />
    <glyph glyph-name="X.subs" horiz-adv-x="399" 
d="M157 88l-133 180h82l94 -126l93 126h82l-132 -182l149 -206h-82l-110 149l-110 -149h-83z" />
    <glyph glyph-name="Y.subs" horiz-adv-x="343" 
d="M137 47l-130 221h76l89 -150l89 150h75l-129 -221v-167h-70v167z" />
    <glyph glyph-name="Z.subs" horiz-adv-x="348" 
d="M208 207h-181v61h293l-191 -327h199v-61h-311z" />
    <glyph glyph-name="a.subs" horiz-adv-x="364" 
d="M280 150.5q30 -32.5 30 -96.5v-174h-67v41q-15 -23 -41.5 -35.5t-63.5 -12.5q-53 0 -80 24t-27 65q0 52 38 73.5t113 21.5h61v7q0 35 -14 52t-52 17q-34 0 -50.5 -13t-16.5 -36h-68q1 48 35 73.5t99 25.5q74 0 104 -32.5zM225 -52.5q18 23.5 18 63.5v4h-55
q-43 0 -64.5 -10.5t-21.5 -35.5q0 -22 15 -33.5t45 -11.5q45 0 63 23.5z" />
    <glyph glyph-name="b.subs" horiz-adv-x="385" 
d="M296.5 161.5q29.5 -21.5 43 -56.5t13.5 -77q0 -43 -14 -78t-43 -56t-74 -21q-33 0 -58.5 12.5t-41.5 36.5v-42h-65v424h67v-168q32 47 98 47q45 0 74.5 -21.5zM263.5 -41.5q18.5 26.5 18.5 69.5t-19 69.5t-62 26.5q-37 0 -57.5 -23t-20.5 -64v-19q0 -41 20.5 -63.5
t57.5 -22.5q44 0 62.5 26.5z" />
    <glyph glyph-name="c.subs" horiz-adv-x="352" 
d="M96.5 -106.5q-33.5 20.5 -49.5 55.5t-16 79t16.5 79t50 55.5t83.5 20.5q40 0 71 -14t49.5 -40.5t19.5 -63.5h-73q-1 28 -19 43.5t-48 15.5q-41 0 -60 -27t-19 -69q0 -43 18.5 -69.5t60.5 -26.5q31 0 48.5 16t18.5 42h73q-1 -37 -19 -63t-49.5 -40t-71.5 -14
q-51 0 -84.5 20.5z" />
    <glyph glyph-name="d.subs" horiz-adv-x="385" 
d="M328 304v-424h-65v43q-16 -25 -41 -37.5t-59 -12.5q-45 0 -74.5 21t-43.5 56t-14 78q0 42 13.5 77t43.5 56.5t75 21.5q66 0 98 -47v168h67zM262 37q0 41 -20.5 64t-57.5 23q-43 0 -62.5 -26.5t-19.5 -69.5t19 -69.5t63 -26.5q37 0 57.5 22.5t20.5 63.5v19z" />
    <glyph glyph-name="e.subs" horiz-adv-x="363" 
d="M239 -62.5q20 14.5 23 42.5h68q-2 -34 -21.5 -58t-51 -36.5t-70.5 -12.5q-79 0 -117.5 42.5t-38.5 112.5q0 44 16.5 79t50.5 55.5t84 20.5q49 0 83.5 -20t50.5 -56q9 -19 12 -39.5t4 -54.5h-232q3 -42 23 -66t62 -24q34 0 54 14.5zM125 112.5q-19 -19.5 -23 -56.5h160
q-3 37 -21.5 56.5t-58.5 19.5q-38 0 -57 -19.5z" />
    <glyph glyph-name="f.subs" horiz-adv-x="219" 
d="M60 119h-44v56h44v39q0 50 24.5 73.5t79.5 23.5q26 0 39 -4v-53q-16 4 -28 4q-49 0 -49 -47v-36h76v-56h-76v-239h-66v239z" />
    <glyph glyph-name="g.subs" horiz-adv-x="385" 
d="M328 175v-286q0 -65 -35 -101t-110 -36q-63 0 -101 25t-43 74h71q1 -24 20.5 -36.5t51.5 -12.5q41 0 60 20t19 55v48q-33 -50 -100 -50q-44 0 -73.5 21t-43 56t-13.5 77q0 43 14 77.5t43 55.5t73 21q70 0 102 -54v46h65zM260 37q0 42 -20 64.5t-58 22.5
q-43 0 -61.5 -26.5t-18.5 -68.5q0 -43 18.5 -70t61.5 -27q37 0 57.5 22.5t20.5 63.5v19z" />
    <glyph glyph-name="h.subs" horiz-adv-x="380" 
d="M299 153.5q27 -29.5 27 -86.5v-187h-66v172q0 37 -16 54.5t-49 17.5q-35 0 -53 -18.5t-18 -54.5v-171h-67v424h67v-166q15 22 39 33.5t56 11.5q53 0 80 -29.5z" />
    <glyph glyph-name="i.subs" horiz-adv-x="179" 
d="M60.5 241.5q-11.5 11.5 -11.5 28.5t11.5 28.5t29.5 11.5q17 0 29 -11.5t12 -28.5t-12 -28.5t-29 -11.5q-18 0 -29.5 11.5zM56 175h67v-295h-67v295z" />
    <glyph glyph-name="j.subs" horiz-adv-x="179" 
d="M60.5 241.5q-11.5 11.5 -11.5 28.5t11.5 28.5t29.5 11.5q17 0 29 -11.5t12 -28.5q0 -16 -12 -28t-29 -12q-18 0 -29.5 11.5zM-1 -240v60q8 -2 20 -2q20 0 28.5 9t8.5 28v320h67v-327q0 -48 -21.5 -69t-69.5 -21q-21 0 -33 2z" />
    <glyph glyph-name="k.subs" horiz-adv-x="326" 
d="M243 -120l-119 139v-139h-67v424h67v-238l105 109h85l-131 -132l146 -163h-86z" />
    <glyph glyph-name="l.subs" horiz-adv-x="179" 
d="M56 304h67v-424h-67v424z" />
    <glyph glyph-name="m.subs" horiz-adv-x="568" 
d="M487.5 153q26.5 -30 26.5 -87v-186h-67v171q0 38 -15 55.5t-46 17.5q-33 0 -50 -19t-17 -55v-170h-67v171q0 38 -15 55.5t-47 17.5t-49 -19t-17 -55v-170h-67v295h67v-35q15 21 38 32t55 11q72 0 93 -55q29 55 100 55q51 0 77.5 -30z" />
    <glyph glyph-name="n.subs" horiz-adv-x="380" 
d="M299 153.5q27 -29.5 27 -86.5v-187h-66v172q0 37 -16 54.5t-49 17.5q-35 0 -53 -18.5t-18 -54.5v-171h-67v295h67v-37q15 22 39 33.5t56 11.5q53 0 80 -29.5z" />
    <glyph glyph-name="o.subs" horiz-adv-x="365" 
d="M97.5 -106q-34.5 21 -50.5 56t-16 78q0 44 16.5 79t50.5 55.5t85 20.5t84.5 -21t49.5 -56t16 -78t-16 -78t-49.5 -56t-84.5 -21t-85.5 21zM245.5 -42.5q17.5 26.5 17.5 70.5q0 96 -80 96q-45 0 -63 -26t-18 -70t19 -70.5t62 -26.5q45 0 62.5 26.5z" />
    <glyph glyph-name="p.subs" horiz-adv-x="385" 
d="M296.5 161.5q29.5 -21.5 43 -56.5t13.5 -77q0 -43 -14 -78t-43 -56t-74 -21q-67 0 -98 47v-161h-67v416h65v-43q31 51 100 51q45 0 74.5 -21.5zM263.5 -40.5q18.5 26.5 18.5 68.5q0 43 -19 69.5t-62 26.5q-37 0 -57.5 -23t-20.5 -64v-17q0 -42 20.5 -64.5t57.5 -22.5
q44 0 62.5 26.5z" />
    <glyph glyph-name="q.subs" horiz-adv-x="385" 
d="M328 175v-416h-67v161q-31 -47 -98 -47q-45 0 -74.5 21t-43.5 56t-14 78q0 42 13.5 77t43.5 56.5t75 21.5q69 0 100 -51v43h65zM241.5 -44.5q20.5 22.5 20.5 64.5v17q0 41 -20.5 64t-57.5 23q-43 0 -62.5 -26.5t-19.5 -69.5q0 -42 19 -68.5t63 -26.5q37 0 57.5 22.5z" />
    <glyph glyph-name="r.subs" horiz-adv-x="242" 
d="M231 175v-61q-12 3 -29 3q-39 0 -58.5 -23t-19.5 -67v-147h-67v295h66v-39q12 20 31.5 31.5t46.5 11.5q12 0 30 -4z" />
    <glyph glyph-name="s.subs" horiz-adv-x="313" 
d="M61 -100.5q-31 28.5 -31 78.5h66q0 -26 14 -41t47 -15q28 0 42 10t14 28q0 14 -8.5 22.5t-22.5 13.5t-42 12q-50 13 -74.5 32t-24.5 56q0 41 29.5 64t84.5 23q58 0 86.5 -25t28.5 -70h-63q0 48 -53 48q-24 0 -36 -9t-12 -25q0 -13 9 -20.5t27.5 -13.5t39.5 -11
q35 -9 56.5 -19.5t33 -27.5t11.5 -44q0 -46 -33 -70.5t-93 -24.5q-65 0 -96 28.5z" />
    <glyph glyph-name="t.subs" horiz-adv-x="236" 
d="M83 -103q-22 22 -22 73v149h-46v56h46v71h67v-71h82v-56h-82v-139q0 -25 11 -36t35 -11q19 0 35 4v-56q-34 -6 -56 -6q-48 0 -70 22z" />
    <glyph glyph-name="u.subs" horiz-adv-x="380" 
d="M323 175v-295h-67v37q-15 -22 -39 -33.5t-56 -11.5q-53 0 -80 29.5t-27 86.5v187h66v-172q0 -37 16 -54.5t49 -17.5q35 0 53 18.5t18 54.5v171h67z" />
    <glyph glyph-name="v.subs" horiz-adv-x="330" 
d="M13 175h72l80 -214l80 214h73l-114 -295h-78z" />
    <glyph glyph-name="w.subs" horiz-adv-x="493" 
d="M480 175l-106 -295h-65l-63 206l-62 -206h-66l-105 295h71l67 -210l66 210h58l66 -210l67 210h72z" />
    <glyph glyph-name="x.subs" horiz-adv-x="348" 
d="M133 31l-115 144h80l76 -97l76 97h80l-115 -144l118 -151h-79l-80 104l-81 -104h-78z" />
    <glyph glyph-name="y.subs" horiz-adv-x="336" 
d="M323 175l-177 -415h-68l52 121l-117 294h73l81 -222l84 222h72z" />
    <glyph glyph-name="z.subs" horiz-adv-x="302" 
d="M127 -63h156v-57h-269l165 239h-150v56h257z" />
    <glyph glyph-name="A.sups" horiz-adv-x="386" 
d="M278 524h-170l-29 -86h-72l133 388h106l134 -388h-73zM259 580l-65 193h-2l-65 -193h132z" />
    <glyph glyph-name="B.sups" horiz-adv-x="386" 
d="M335 607.5q19 -24.5 19 -61.5q0 -52 -34.5 -80t-103.5 -28h-148v388h148q61 0 92.5 -26.5t31.5 -69.5q0 -32 -16.5 -54.5t-50.5 -31.5q43 -12 62 -36.5zM138 664h54q40 0 58.5 15.5t18.5 42.5q0 26 -19.5 40.5t-59.5 14.5h-52v-113zM259.5 502.5q21.5 15.5 21.5 47.5
q0 33 -21.5 49.5t-66.5 16.5h-55v-129h52q48 0 69.5 15.5z" />
    <glyph glyph-name="C.sups" horiz-adv-x="431" 
d="M117.5 455q-41.5 27 -60.5 73t-19 104t19 103.5t60.5 73t106.5 27.5q50 0 88 -18.5t60 -52.5t24 -80h-75q-1 42 -28 65.5t-72 23.5q-61 0 -85 -38.5t-24 -103.5q0 -66 24 -103.5t86 -37.5q47 0 73 22.5t28 63.5h74q-1 -45 -23.5 -79t-61.5 -52t-88 -18q-65 0 -106.5 27z
" />
    <glyph glyph-name="D.sups" horiz-adv-x="437" 
d="M68 826h143q100 0 144 -52.5t44 -141.5q0 -90 -44.5 -142t-143.5 -52h-143v388zM200 498q71 0 98.5 35t27.5 99q0 65 -28 100t-98 35h-62v-269h62z" />
    <glyph glyph-name="E.sups" horiz-adv-x="348" 
d="M68 826h242v-57h-172v-105h170v-58h-170v-110h172v-58h-242v388z" />
    <glyph glyph-name="F.sups" horiz-adv-x="333" 
d="M68 826h233v-57h-163v-107h162v-58h-162v-166h-70v388z" />
    <glyph glyph-name="G.sups" horiz-adv-x="435" 
d="M397 646v-28q0 -85 -41 -137.5t-132 -52.5q-65 0 -106.5 27t-60.5 73t-19 104q0 59 19.5 104.5t61 72.5t106.5 27q49 0 86.5 -17.5t59 -49.5t23.5 -75h-71q-4 40 -29.5 61t-69.5 21q-63 0 -87.5 -38.5t-24.5 -105.5q0 -69 25 -106.5t89 -37.5q100 0 104 102h-100v56h167z
" />
    <glyph glyph-name="H.sups" horiz-adv-x="446" 
d="M68 826h70v-160h170v160h70v-388h-70v166h-170v-166h-70v388z" />
    <glyph glyph-name="I.sups" horiz-adv-x="206" 
d="M68 826h70v-388h-70v388z" />
    <glyph glyph-name="J.sups" horiz-adv-x="236" 
d="M18 439v65q7 -1 26 -1q36 0 51 15t15 54v254h71v-265q0 -64 -30 -94.5t-97 -30.5q-18 0 -36 3z" />
    <glyph glyph-name="K.sups" horiz-adv-x="387" 
d="M294 438l-156 187v-187h-70v388h70v-154l135 154h83l-155 -174l179 -214h-86z" />
    <glyph glyph-name="L.sups" horiz-adv-x="303" 
d="M68 826h70v-324h147v-64h-217v388z" />
    <glyph glyph-name="M.sups" horiz-adv-x="544" 
d="M68 826h81l123 -275l123 275h81v-388h-67v278l-122 -278h-29l-124 278v-278h-66v388z" />
    <glyph glyph-name="N.sups" horiz-adv-x="460" 
d="M68 826h71l185 -278v278h68v-388h-72l-184 279v-279h-68v388z" />
    <glyph glyph-name="O.sups" horiz-adv-x="450" 
d="M116.5 455.5q-41.5 27.5 -60 73.5t-18.5 103q0 58 19 103.5t60.5 73t106.5 27.5q98 0 143 -57t45 -147q0 -58 -19 -104t-61 -73t-108 -27t-107.5 27.5zM337 632q0 141 -113 141q-63 0 -87.5 -38.5t-24.5 -102.5t25 -102t87 -38q113 0 113 140z" />
    <glyph glyph-name="P.sups" horiz-adv-x="365" 
d="M68 826h148q69 0 100 -28.5t31 -82.5q0 -56 -32 -85.5t-99 -29.5h-78v-162h-70v388zM197 652q40 0 59.5 15t19.5 46t-19.5 46t-59.5 15h-59v-122h59z" />
    <glyph glyph-name="Q.sups" horiz-adv-x="450" 
d="M389 519.5q-23 -48.5 -72 -72.5l43 -63l-48 -31l-50 78q-18 -3 -38 -3q-66 0 -107.5 27.5t-60 73.5t-18.5 103q0 58 19 103.5t60.5 73t106.5 27.5q98 0 143 -57t45 -147q0 -64 -23 -112.5zM136.5 530.5q24.5 -38.5 86.5 -38.5l-23 36l42 28l36 -53q59 28 59 129
q0 141 -113 141q-63 0 -87.5 -38.5t-24.5 -102.5q0 -63 24.5 -101.5z" />
    <glyph glyph-name="R.sups" horiz-adv-x="390" 
d="M181 600h-43v-162h-70v388h153q69 0 101 -29t32 -81q0 -98 -97 -113l123 -165h-79zM138 650h64q42 0 60.5 15t18.5 47t-18.5 47t-60.5 15h-64v-124z" />
    <glyph glyph-name="S.sups" horiz-adv-x="369" 
d="M66 464q-38 36 -38 96h77q0 -35 18.5 -54.5t63.5 -19.5q38 0 57.5 15t19.5 40q0 20 -12 32t-34 20.5t-65 20.5q-59 16 -87.5 40.5t-28.5 68.5q0 33 16.5 58.5t49 40t78.5 14.5q71 0 106.5 -34.5t35.5 -92.5h-73q0 33 -17.5 52t-55.5 19q-33 0 -51 -13.5t-18 -35.5
q0 -17 11.5 -28.5t33.5 -20t62 -19.5q43 -11 70 -25t41.5 -36t14.5 -55q0 -36 -18 -62.5t-53.5 -41.5t-85.5 -15q-80 0 -118 36z" />
    <glyph glyph-name="T.sups" horiz-adv-x="332" 
d="M131 767h-113v59h297v-59h-114v-329h-70v329z" />
    <glyph glyph-name="U.sups" horiz-adv-x="413" 
d="M92 462.5q-37 34.5 -37 104.5v259h70v-254q0 -42 18.5 -61.5t63.5 -19.5t63.5 19.5t18.5 61.5v254h70v-259q0 -70 -37 -104.5t-115 -34.5t-115 34.5z" />
    <glyph glyph-name="V.sups" horiz-adv-x="378" 
d="M372 826l-147 -388h-70l-148 388h74l109 -304l109 304h73z" />
    <glyph glyph-name="W.sups" horiz-adv-x="535" 
d="M529 826l-111 -388h-73l-77 290l-77 -290h-73l-111 388h69l80 -289l76 289h72l76 -285l80 285h69z" />
    <glyph glyph-name="X.sups" horiz-adv-x="399" 
d="M157 646l-133 180h82l94 -126l93 126h82l-132 -182l149 -206h-82l-110 149l-110 -149h-83z" />
    <glyph glyph-name="Y.sups" horiz-adv-x="343" 
d="M137 605l-130 221h76l89 -150l89 150h75l-129 -221v-167h-70v167z" />
    <glyph glyph-name="Z.sups" horiz-adv-x="348" 
d="M208 765h-181v61h293l-191 -327h199v-61h-311z" />
    <glyph glyph-name="a.sups" horiz-adv-x="364" 
d="M280 708.5q30 -32.5 30 -96.5v-174h-67v41q-15 -23 -41.5 -35.5t-63.5 -12.5q-53 0 -80 24t-27 65q0 52 38 73.5t113 21.5h61v7q0 35 -14 52t-52 17q-34 0 -50.5 -13t-16.5 -36h-68q1 48 35 73.5t99 25.5q74 0 104 -32.5zM225 505.5q18 23.5 18 63.5v4h-55
q-43 0 -64.5 -10.5t-21.5 -35.5q0 -22 15 -33.5t45 -11.5q45 0 63 23.5z" />
    <glyph glyph-name="b.sups" horiz-adv-x="385" 
d="M296.5 719.5q29.5 -21.5 43 -56.5t13.5 -77q0 -43 -14 -78t-43 -56t-74 -21q-33 0 -58.5 12.5t-41.5 36.5v-42h-65v424h67v-168q32 47 98 47q45 0 74.5 -21.5zM263.5 516.5q18.5 26.5 18.5 69.5t-19 69.5t-62 26.5q-37 0 -57.5 -23t-20.5 -64v-19q0 -41 20.5 -63.5
t57.5 -22.5q44 0 62.5 26.5z" />
    <glyph glyph-name="c.sups" horiz-adv-x="352" 
d="M96.5 451.5q-33.5 20.5 -49.5 55.5t-16 79t16.5 79t50 55.5t83.5 20.5q40 0 71 -14t49.5 -40.5t19.5 -63.5h-73q-1 28 -19 43.5t-48 15.5q-41 0 -60 -27t-19 -69q0 -43 18.5 -69.5t60.5 -26.5q31 0 48.5 16t18.5 42h73q-1 -37 -19 -63t-49.5 -40t-71.5 -14
q-51 0 -84.5 20.5z" />
    <glyph glyph-name="d.sups" horiz-adv-x="385" 
d="M328 862v-424h-65v43q-16 -25 -41 -37.5t-59 -12.5q-45 0 -74.5 21t-43.5 56t-14 78q0 42 13.5 77t43.5 56.5t75 21.5q66 0 98 -47v168h67zM262 595q0 41 -20.5 64t-57.5 23q-43 0 -62.5 -26.5t-19.5 -69.5t19 -69.5t63 -26.5q37 0 57.5 22.5t20.5 63.5v19z" />
    <glyph glyph-name="e.sups" horiz-adv-x="363" 
d="M239 495.5q20 14.5 23 42.5h68q-2 -34 -21.5 -58t-51 -36.5t-70.5 -12.5q-79 0 -117.5 42.5t-38.5 112.5q0 44 16.5 79t50.5 55.5t84 20.5q49 0 83.5 -20t50.5 -56q9 -19 12 -39.5t4 -54.5h-232q3 -42 23 -66t62 -24q34 0 54 14.5zM125 670.5q-19 -19.5 -23 -56.5h160
q-3 37 -21.5 56.5t-58.5 19.5q-38 0 -57 -19.5z" />
    <glyph glyph-name="f.sups" horiz-adv-x="219" 
d="M60 677h-44v56h44v39q0 50 24.5 73.5t79.5 23.5q26 0 39 -4v-53q-16 4 -28 4q-49 0 -49 -47v-36h76v-56h-76v-239h-66v239z" />
    <glyph glyph-name="g.sups" horiz-adv-x="385" 
d="M328 733v-286q0 -65 -35 -101t-110 -36q-63 0 -101 25t-43 74h71q1 -24 20.5 -36.5t51.5 -12.5q41 0 60 20t19 55v48q-33 -50 -100 -50q-44 0 -73.5 21t-43 56t-13.5 77q0 43 14 77.5t43 55.5t73 21q70 0 102 -54v46h65zM260 595q0 42 -20 64.5t-58 22.5
q-43 0 -61.5 -26.5t-18.5 -68.5q0 -43 18.5 -70t61.5 -27q37 0 57.5 22.5t20.5 63.5v19z" />
    <glyph glyph-name="h.sups" horiz-adv-x="380" 
d="M299 711.5q27 -29.5 27 -86.5v-187h-66v172q0 37 -16 54.5t-49 17.5q-35 0 -53 -18.5t-18 -54.5v-171h-67v424h67v-166q15 22 39 33.5t56 11.5q53 0 80 -29.5z" />
    <glyph glyph-name="i.sups" horiz-adv-x="179" 
d="M60.5 799.5q-11.5 11.5 -11.5 28.5t11.5 28.5t29.5 11.5q17 0 29 -11.5t12 -28.5t-12 -28.5t-29 -11.5q-18 0 -29.5 11.5zM56 733h67v-295h-67v295z" />
    <glyph glyph-name="j.sups" horiz-adv-x="179" 
d="M60.5 799.5q-11.5 11.5 -11.5 28.5t11.5 28.5t29.5 11.5q17 0 29 -11.5t12 -28.5q0 -16 -12 -28t-29 -12q-18 0 -29.5 11.5zM-1 318v60q8 -2 20 -2q20 0 28.5 9t8.5 28v320h67v-327q0 -48 -21.5 -69t-69.5 -21q-21 0 -33 2z" />
    <glyph glyph-name="k.sups" horiz-adv-x="326" 
d="M243 438l-119 139v-139h-67v424h67v-238l105 109h85l-131 -132l146 -163h-86z" />
    <glyph glyph-name="l.sups" horiz-adv-x="179" 
d="M56 862h67v-424h-67v424z" />
    <glyph glyph-name="m.sups" horiz-adv-x="568" 
d="M487.5 711q26.5 -30 26.5 -87v-186h-67v171q0 38 -15 55.5t-46 17.5q-33 0 -50 -19t-17 -55v-170h-67v171q0 38 -15 55.5t-47 17.5t-49 -19t-17 -55v-170h-67v295h67v-35q15 21 38 32t55 11q72 0 93 -55q29 55 100 55q51 0 77.5 -30z" />
    <glyph glyph-name="n.sups" horiz-adv-x="380" 
d="M299 711.5q27 -29.5 27 -86.5v-187h-66v172q0 37 -16 54.5t-49 17.5q-35 0 -53 -18.5t-18 -54.5v-171h-67v295h67v-37q15 22 39 33.5t56 11.5q53 0 80 -29.5z" />
    <glyph glyph-name="o.sups" horiz-adv-x="365" 
d="M97.5 452q-34.5 21 -50.5 56t-16 78q0 44 16.5 79t50.5 55.5t85 20.5t84.5 -21t49.5 -56t16 -78t-16 -78t-49.5 -56t-84.5 -21t-85.5 21zM245.5 515.5q17.5 26.5 17.5 70.5q0 96 -80 96q-45 0 -63 -26t-18 -70t19 -70.5t62 -26.5q45 0 62.5 26.5z" />
    <glyph glyph-name="p.sups" horiz-adv-x="385" 
d="M296.5 719.5q29.5 -21.5 43 -56.5t13.5 -77q0 -43 -14 -78t-43 -56t-74 -21q-67 0 -98 47v-161h-67v416h65v-43q31 51 100 51q45 0 74.5 -21.5zM263.5 517.5q18.5 26.5 18.5 68.5q0 43 -19 69.5t-62 26.5q-37 0 -57.5 -23t-20.5 -64v-17q0 -42 20.5 -64.5t57.5 -22.5
q44 0 62.5 26.5z" />
    <glyph glyph-name="q.sups" horiz-adv-x="385" 
d="M328 733v-416h-67v161q-31 -47 -98 -47q-45 0 -74.5 21t-43.5 56t-14 78q0 42 13.5 77t43.5 56.5t75 21.5q69 0 100 -51v43h65zM241.5 513.5q20.5 22.5 20.5 64.5v17q0 41 -20.5 64t-57.5 23q-43 0 -62.5 -26.5t-19.5 -69.5q0 -42 19 -68.5t63 -26.5q37 0 57.5 22.5z" />
    <glyph glyph-name="r.sups" horiz-adv-x="242" 
d="M231 733v-61q-12 3 -29 3q-39 0 -58.5 -23t-19.5 -67v-147h-67v295h66v-39q12 20 31.5 31.5t46.5 11.5q12 0 30 -4z" />
    <glyph glyph-name="s.sups" horiz-adv-x="313" 
d="M61 457.5q-31 28.5 -31 78.5h66q0 -26 14 -41t47 -15q28 0 42 10t14 28q0 14 -8.5 22.5t-22.5 13.5t-42 12q-50 13 -74.5 32t-24.5 56q0 41 29.5 64t84.5 23q58 0 86.5 -25t28.5 -70h-63q0 48 -53 48q-24 0 -36 -9t-12 -25q0 -13 9 -20.5t27.5 -13.5t39.5 -11
q35 -9 56.5 -19.5t33 -27.5t11.5 -44q0 -46 -33 -70.5t-93 -24.5q-65 0 -96 28.5z" />
    <glyph glyph-name="t.sups" horiz-adv-x="236" 
d="M83 455q-22 22 -22 73v149h-46v56h46v71h67v-71h82v-56h-82v-139q0 -25 11 -36t35 -11q19 0 35 4v-56q-34 -6 -56 -6q-48 0 -70 22z" />
    <glyph glyph-name="u.sups" horiz-adv-x="380" 
d="M323 733v-295h-67v37q-15 -22 -39 -33.5t-56 -11.5q-53 0 -80 29.5t-27 86.5v187h66v-172q0 -37 16 -54.5t49 -17.5q35 0 53 18.5t18 54.5v171h67z" />
    <glyph glyph-name="v.sups" horiz-adv-x="330" 
d="M13 733h72l80 -214l80 214h73l-114 -295h-78z" />
    <glyph glyph-name="w.sups" horiz-adv-x="493" 
d="M480 733l-106 -295h-65l-63 206l-62 -206h-66l-105 295h71l67 -210l66 210h58l66 -210l67 210h72z" />
    <glyph glyph-name="x.sups" horiz-adv-x="348" 
d="M133 589l-115 144h80l76 -97l76 97h80l-115 -144l118 -151h-79l-80 104l-81 -104h-78z" />
    <glyph glyph-name="y.sups" horiz-adv-x="336" 
d="M323 733l-177 -415h-68l52 121l-117 294h73l81 -222l84 222h72z" />
    <glyph glyph-name="z.sups" horiz-adv-x="302" 
d="M127 495h156v-57h-269l165 239h-150v56h257z" />
    <glyph glyph-name="delta" unicode="&#x394;" horiz-adv-x="630" 
d="M622 0h-614l237 706h140zM501 75l-184 562h-2l-186 -562h372z" />
    <glyph glyph-name="delta" unicode="&#x3b4;" horiz-adv-x="630" 
d="M622 0h-614l237 706h140zM501 75l-184 562h-2l-186 -562h372z" />
    <glyph glyph-name="omega" unicode="&#x3a9;" horiz-adv-x="700" 
d="M472 72h157v-72h-233v205q159 26 159 223q0 100 -50 159.5t-155 59.5q-106 0 -156 -60.5t-50 -158.5q0 -91 37.5 -150t122.5 -73v-205h-233v72h157v74q-92 29 -135 104t-43 178q0 87 32 153t99.5 103.5t168.5 37.5q102 0 169 -37.5t99 -103.5t32 -153q0 -104 -43 -178.5
t-135 -103.5v-74z" />
    <glyph glyph-name="omega" unicode="&#x3c9;" horiz-adv-x="700" 
d="M472 72h157v-72h-233v205q159 26 159 223q0 100 -50 159.5t-155 59.5q-106 0 -156 -60.5t-50 -158.5q0 -91 37.5 -150t122.5 -73v-205h-233v72h157v74q-92 29 -135 104t-43 178q0 87 32 153t99.5 103.5t168.5 37.5q102 0 169 -37.5t99 -103.5t32 -153q0 -104 -43 -178.5
t-135 -103.5v-74z" />
    <glyph glyph-name="uni03BC" unicode="&#x3bc;" horiz-adv-x="563" 
d="M488 487v-487h-85v73q-22 -42 -60.5 -63.5t-88.5 -21.5q-62 0 -99 34q6 -53 6 -109v-114h-86v688h86v-282q0 -74 27.5 -108t86.5 -34q62 0 94.5 35.5t32.5 104.5v284h86z" />
    <glyph glyph-name="pi" unicode="&#x3c0;" horiz-adv-x="673" 
d="M467.5 27.5q-33.5 35.5 -33.5 115.5v272h-195v-415h-86v415h-99v72h565v-72h-99v-260q0 -46 19.5 -67.5t59.5 -21.5q6 0 20 2v-73q-21 -3 -44 -3q-74 0 -107.5 35.5z" />
    <glyph glyph-name="uni2099" unicode="&#x2099;" horiz-adv-x="380" 
d="M299 153.5q27 -29.5 27 -86.5v-187h-66v172q0 37 -16 54.5t-49 17.5q-35 0 -53 -18.5t-18 -54.5v-171h-67v295h67v-37q15 22 39 33.5t56 11.5q53 0 80 -29.5z" />
    <glyph glyph-name="zero.lf" horiz-adv-x="659" 
d="M121.5 85.5q-61.5 101.5 -61.5 267.5t61.5 267.5t208.5 101.5t208.5 -102t61.5 -267q0 -166 -62 -267.5t-208 -101.5q-147 0 -208.5 101.5zM439 103.5q38 37.5 51.5 99.5t13.5 150q0 89 -13 150.5t-51.5 99t-109.5 37.5t-109.5 -37.5t-52 -99.5t-13.5 -150t13.5 -150
t51.5 -99.5t110 -37.5q71 0 109 37.5z" />
    <glyph glyph-name="one.lf" horiz-adv-x="352" 
d="M153 622h-120l17 84h194v-706h-91v622z" />
    <glyph glyph-name="two.lf" horiz-adv-x="559" 
d="M26 3l283 309q41 43 64 73.5t33.5 59t10.5 60.5q0 61 -35 98.5t-105 37.5q-146 0 -146 -175h-89q0 118 57.5 187t179.5 69q78 0 130 -28t77.5 -77.5t25.5 -112.5q0 -39 -10 -71.5t-32.5 -65t-61.5 -74.5q-99 -103 -209 -212h319v-81h-492v3z" />
    <glyph glyph-name="three.lf" horiz-adv-x="586" 
d="M499 311q35 -46 35 -117q0 -63 -26 -110t-81.5 -73.5t-138.5 -26.5q-138 0 -196 68.5t-58 197.5h88q0 -90 36 -139.5t126 -49.5q79 0 117 37.5t38 103.5q0 70 -45 103t-135 33h-20v68h20q84 0 125 31.5t41 89.5q0 57 -34 90t-104 33q-82 0 -116.5 -43.5t-35.5 -118.5h-87
q0 112 61 173t184 61q74 0 124 -24t75 -66t25 -97q0 -61 -31 -102t-95 -59q73 -17 108 -63z" />
    <glyph glyph-name="four.lf" horiz-adv-x="602" 
d="M582 176h-99v-176h-90v176h-388v4l313 526h165v-452h99v-78zM393 254v416h-1l-249 -416h250z" />
    <glyph glyph-name="five.lf" horiz-adv-x="574" 
d="M100 50q-58 66 -58 181h89q0 -78 35.5 -123.5t116.5 -45.5q79 0 117 42t38 113q0 174 -211 174q-39 0 -80 -6t-76 -18l55 339h372l-18 -80h-281l-28 -174q46 11 91 11q91 0 151.5 -31.5t89.5 -86.5t29 -128q0 -69 -26.5 -121.5t-81 -82t-136.5 -29.5q-130 0 -188 66z" />
    <glyph glyph-name="six.lf" horiz-adv-x="646" 
d="M488.5 427.5q53.5 -30.5 79.5 -82.5t26 -118q0 -69 -29 -124t-86.5 -87t-138.5 -32q-100 0 -162.5 48.5t-90 129.5t-27.5 185q0 167 63.5 271t212.5 104q70 0 123 -25t84.5 -71.5t39.5 -109.5h-88q-13 64 -53 98t-105 34q-103 0 -144 -80t-41 -204v-12q27 49 79.5 77.5
t126.5 28.5q77 0 130.5 -30.5zM429 83.5q36 22.5 53.5 59.5t17.5 82q0 44 -17 80t-53 57.5t-90 21.5q-56 0 -93 -22t-54.5 -59t-17.5 -81q0 -43 18.5 -80t55.5 -59t90 -22q54 0 90 22.5z" />
    <glyph glyph-name="seven.lf" horiz-adv-x="519" 
d="M363 622h-331v84h465l-301 -706h-103z" />
    <glyph glyph-name="eight.lf" horiz-adv-x="625" 
d="M536.5 311q36.5 -49 36.5 -119q0 -63 -29 -110t-87.5 -72.5t-144.5 -25.5t-144.5 26.5t-87 73.5t-28.5 108q0 69 36.5 118.5t110.5 66.5q-63 17 -96.5 61t-33.5 102q0 56 28.5 97t83.5 63t131 22q78 0 132.5 -22t82.5 -63t28 -97q0 -60 -33 -103.5t-95 -59.5
q73 -17 109.5 -66zM180.5 467.5q17.5 -28.5 51 -44t80.5 -15.5q49 0 83 16t51 44.5t17 65.5q0 55 -38.5 88t-112.5 33t-111.5 -32.5t-37.5 -88.5q0 -38 17.5 -66.5zM435 95q42 38 42 101q0 41 -18.5 73t-55.5 50t-91 18t-91 -18t-55.5 -50t-18.5 -73t18.5 -72.5t55.5 -49
t91 -17.5q81 0 123 38z" />
    <glyph glyph-name="nine.lf" horiz-adv-x="640" 
d="M468.5 675.5q62.5 -48.5 89.5 -129.5t27 -185q0 -167 -63.5 -271t-212.5 -104q-70 0 -123 25t-84 71.5t-40 109.5h89q12 -64 52 -98t105 -34q103 0 144 80t41 204v12q-27 -49 -79.5 -77.5t-126.5 -28.5q-77 0 -130.5 30.5t-79.5 82.5t-26 118q0 69 29 124t86.5 87
t138.5 32q101 0 163.5 -48.5zM398 346q37 22 54.5 59t17.5 81t-18 80.5t-55 58.5t-91 22t-90 -22.5t-53 -59.5t-17 -82q0 -44 17 -80t53 -57.5t89 -21.5q56 0 93 22z" />
    <glyph glyph-name="zero.inferior" unicode="&#x2080;" horiz-adv-x="428" 
d="M48 74q0 203 166 203q90 0 128 -55t38 -148q0 -203 -166 -203t-166 203zM271.5 -48.5q20.5 17.5 27.5 48t7 74.5q0 45 -7 75t-27.5 47.5t-57.5 17.5q-53 0 -73 -36.5t-20 -103.5q0 -68 20 -104t73 -36q37 0 57.5 17.5z" />
    <glyph glyph-name="one.inferior" unicode="&#x2081;" horiz-adv-x="264" 
d="M104 203h-78l11 65h140v-388h-73v323z" />
    <glyph glyph-name="two.inferior" unicode="&#x2082;" horiz-adv-x="353" 
d="M21 -116l169 172q34 34 46.5 54.5t12.5 44.5q0 30 -18 47.5t-54 17.5q-43 0 -60 -22t-17 -58h-69q0 65 36.5 101.5t109.5 36.5q70 0 106 -32.5t36 -89.5q0 -32 -13 -57t-44 -56q-30 -30 -104 -98h162v-65h-299v4z" />
    <glyph glyph-name="three.inferior" unicode="&#x2083;" horiz-adv-x="369" 
d="M335 -13q0 -55 -39.5 -86t-112.5 -31q-155 0 -155 151h65q0 -94 88 -94q42 0 62 17t20 49q0 34 -23 49t-70 15h-12v50h12q44 0 64.5 14t20.5 44q0 26 -18 41t-54 15q-42 0 -62 -21.5t-20 -53.5h-65q0 60 39 96t113 36q44 0 75 -14t47 -38t16 -55t-17.5 -53t-49.5 -33
q76 -20 76 -98z" />
    <glyph glyph-name="four.inferior" unicode="&#x2084;" horiz-adv-x="377" 
d="M235 -28h-231v2l174 294h126v-235h58v-61h-58v-92h-69v92zM235 33v211l-126 -211h126z" />
    <glyph glyph-name="five.inferior" unicode="&#x2085;" horiz-adv-x="376" 
d="M72 -93q-38 36 -38 98h68q0 -36 20 -56.5t62 -20.5q43 0 63 20t20 54q0 41 -30.5 62.5t-91.5 21.5q-52 0 -94 -13l33 195h230l-9 -55h-162l-15 -82q27 5 54 5q53 0 88.5 -17t52.5 -46.5t17 -68.5t-17.5 -69t-52 -47t-84.5 -17q-76 0 -114 36z" />
    <glyph glyph-name="six.inferior" unicode="&#x2086;" horiz-adv-x="414" 
d="M309 116q32 -17 48 -45.5t16 -63.5q0 -38 -18 -69t-54 -49t-87 -18q-93 0 -133.5 55t-40.5 146q0 93 40.5 149t132.5 56q65 0 101.5 -28.5t48.5 -86.5h-69q-9 31 -27 45.5t-53 14.5q-58 0 -80.5 -39t-22.5 -100v-2q17 24 47 38t72 14q47 0 79 -17zM277.5 -52.5
q21.5 20.5 21.5 55.5t-21.5 55.5t-62.5 20.5q-42 0 -65.5 -22t-23.5 -55t23 -54t64 -21q43 0 64.5 20.5z" />
    <glyph glyph-name="seven.inferior" unicode="&#x2087;" horiz-adv-x="335" 
d="M209 205h-183v63h292l-180 -388h-80z" />
    <glyph glyph-name="eight.inferior" unicode="&#x2088;" horiz-adv-x="387" 
d="M352 -10q0 -57 -41 -88t-118 -31q-76 0 -117 31t-41 88q0 38 20 62.5t60 34.5q-35 10 -53 33.5t-18 53.5q0 49 39.5 76t109.5 27q71 0 110.5 -27t39.5 -76q0 -31 -17.5 -54t-52.5 -33q79 -20 79 -97zM133 213.5q-19 -14.5 -19 -43.5q0 -28 21 -43t58 -15q38 0 59 15
t21 43q0 29 -19 43.5t-61 14.5q-41 0 -60 -14.5zM257.5 -57.5q23.5 17.5 23.5 48.5q0 30 -22 48t-66 18q-43 0 -65 -18t-22 -48q0 -31 23.5 -48.5t63.5 -17.5q41 0 64.5 17.5z" />
    <glyph glyph-name="nine.inferior" unicode="&#x2089;" horiz-adv-x="415" 
d="M334.5 222q40.5 -55 40.5 -146q0 -93 -40.5 -149t-132.5 -56q-65 0 -101.5 28.5t-48.5 86.5h69q9 -31 27 -45.5t53 -14.5q58 0 80.5 39t22.5 100v2q-17 -24 -47 -38t-72 -14q-47 0 -79 17t-48 45.5t-16 63.5q0 38 18 69t54 49t87 18q93 0 133.5 -55zM265.5 91
q23.5 22 23.5 55t-23 54t-64 21q-43 0 -64.5 -20.5t-21.5 -55.5t21.5 -55.5t62.5 -20.5q42 0 65.5 22z" />
    <glyph glyph-name="zero.dnom" horiz-adv-x="428" 
d="M48 194q0 203 166 203q90 0 128 -55t38 -148q0 -203 -166 -203t-166 203zM271.5 71.5q20.5 17.5 27.5 48t7 74.5q0 45 -7 75t-27.5 47.5t-57.5 17.5q-53 0 -73 -36.5t-20 -103.5q0 -68 20 -104t73 -36q37 0 57.5 17.5z" />
    <glyph glyph-name="one.dnom" horiz-adv-x="264" 
d="M104 323h-78l11 65h140v-388h-73v323z" />
    <glyph glyph-name="two.dnom" horiz-adv-x="353" 
d="M21 4l169 172q34 34 46.5 54.5t12.5 44.5q0 30 -18 47.5t-54 17.5q-43 0 -60 -22t-17 -58h-69q0 65 36.5 101.5t109.5 36.5q70 0 106 -32.5t36 -89.5q0 -32 -13 -57t-44 -56q-30 -30 -104 -98h162v-65h-299v4z" />
    <glyph glyph-name="three.dnom" horiz-adv-x="369" 
d="M335 107q0 -55 -39.5 -86t-112.5 -31q-155 0 -155 151h65q0 -94 88 -94q42 0 62 17t20 49q0 34 -23 49t-70 15h-12v50h12q44 0 64.5 14t20.5 44q0 26 -18 41t-54 15q-42 0 -62 -21.5t-20 -53.5h-65q0 60 39 96t113 36q44 0 75 -14t47 -38t16 -55t-17.5 -53t-49.5 -33
q76 -20 76 -98z" />
    <glyph glyph-name="four.dnom" horiz-adv-x="377" 
d="M235 92h-231v2l174 294h126v-235h58v-61h-58v-92h-69v92zM235 153v211l-126 -211h126z" />
    <glyph glyph-name="five.dnom" horiz-adv-x="373" 
d="M72 27q-38 36 -38 98h68q0 -36 20 -56.5t62 -20.5q43 0 63 20t20 54q0 41 -30.5 62.5t-91.5 21.5q-52 0 -94 -13l33 195h230l-9 -55h-162l-15 -82q27 5 54 5q53 0 88.5 -17t52.5 -46.5t17 -68.5t-17.5 -69t-52 -47t-84.5 -17q-76 0 -114 36z" />
    <glyph glyph-name="six.dnom" horiz-adv-x="414" 
d="M309 236q32 -17 48 -45.5t16 -63.5q0 -38 -18 -69t-54 -49t-87 -18q-93 0 -133.5 55t-40.5 146q0 93 40.5 149t132.5 56q65 0 101.5 -28.5t48.5 -86.5h-69q-9 31 -27 45.5t-53 14.5q-58 0 -80.5 -39t-22.5 -100v-2q17 24 47 38t72 14q47 0 79 -17zM277.5 67.5
q21.5 20.5 21.5 55.5t-21.5 55.5t-62.5 20.5q-42 0 -65.5 -22t-23.5 -55t23 -54t64 -21q43 0 64.5 20.5z" />
    <glyph glyph-name="seven.dnom" horiz-adv-x="335" 
d="M209 325h-183v63h292l-180 -388h-80z" />
    <glyph glyph-name="eight.dnom" horiz-adv-x="387" 
d="M352 110q0 -57 -41 -88t-118 -31q-76 0 -117 31t-41 88q0 38 20 62.5t60 34.5q-35 10 -53 33.5t-18 53.5q0 49 39.5 76t109.5 27q71 0 110.5 -27t39.5 -76q0 -31 -17.5 -54t-52.5 -33q79 -20 79 -97zM133 333.5q-19 -14.5 -19 -43.5q0 -28 21 -43t58 -15q38 0 59 15
t21 43q0 29 -19 43.5t-61 14.5q-41 0 -60 -14.5zM257.5 62.5q23.5 17.5 23.5 48.5q0 30 -22 48t-66 18q-43 0 -65 -18t-22 -48q0 -31 23.5 -48.5t63.5 -17.5q41 0 64.5 17.5z" />
    <glyph glyph-name="nine.dnom" horiz-adv-x="415" 
d="M334.5 342q40.5 -55 40.5 -146q0 -93 -40.5 -149t-132.5 -56q-65 0 -101.5 28.5t-48.5 86.5h69q9 -31 27 -45.5t53 -14.5q58 0 80.5 39t22.5 100v2q-17 -24 -47 -38t-72 -14q-47 0 -79 17t-48 45.5t-16 63.5q0 38 18 69t54 49t87 18q93 0 133.5 -55zM265.5 211
q23.5 22 23.5 55t-23 54t-64 21q-43 0 -64.5 -20.5t-21.5 -55.5t21.5 -55.5t62.5 -20.5q42 0 65.5 22z" />
    <glyph glyph-name="zero.numr" horiz-adv-x="428" 
d="M48 512q0 203 166 203q90 0 128 -55t38 -148q0 -203 -166 -203t-166 203zM271.5 389.5q20.5 17.5 27.5 48t7 74.5q0 45 -7 75t-27.5 47.5t-57.5 17.5q-53 0 -73 -36.5t-20 -103.5q0 -68 20 -104t73 -36q37 0 57.5 17.5z" />
    <glyph glyph-name="one.numr" horiz-adv-x="264" 
d="M104 641h-78l11 65h140v-388h-73v323z" />
    <glyph glyph-name="two.numr" horiz-adv-x="353" 
d="M21 322l169 172q34 34 46.5 54.5t12.5 44.5q0 30 -18 47.5t-54 17.5q-43 0 -60 -22t-17 -58h-69q0 65 36.5 101.5t109.5 36.5q70 0 106 -32.5t36 -89.5q0 -32 -13 -57t-44 -56q-30 -30 -104 -98h162v-65h-299v4z" />
    <glyph glyph-name="three.numr" horiz-adv-x="369" 
d="M335 425q0 -55 -39.5 -86t-112.5 -31q-155 0 -155 151h65q0 -94 88 -94q42 0 62 17t20 49q0 34 -23 49t-70 15h-12v50h12q44 0 64.5 14t20.5 44q0 26 -18 41t-54 15q-42 0 -62 -21.5t-20 -53.5h-65q0 60 39 96t113 36q44 0 75 -14t47 -38t16 -55t-17.5 -53t-49.5 -33
q76 -20 76 -98z" />
    <glyph glyph-name="four.numr" horiz-adv-x="377" 
d="M235 410h-231v2l174 294h126v-235h58v-61h-58v-92h-69v92zM235 471v211l-126 -211h126z" />
    <glyph glyph-name="five.numr" horiz-adv-x="376" 
d="M72 345q-38 36 -38 98h68q0 -36 20 -56.5t62 -20.5q43 0 63 20t20 54q0 41 -30.5 62.5t-91.5 21.5q-52 0 -94 -13l33 195h230l-9 -55h-162l-15 -82q27 5 54 5q53 0 88.5 -17t52.5 -46.5t17 -68.5t-17.5 -69t-52 -47t-84.5 -17q-76 0 -114 36z" />
    <glyph glyph-name="six.numr" horiz-adv-x="414" 
d="M309 554q32 -17 48 -45.5t16 -63.5q0 -38 -18 -69t-54 -49t-87 -18q-93 0 -133.5 55t-40.5 146q0 93 40.5 149t132.5 56q65 0 101.5 -28.5t48.5 -86.5h-69q-9 31 -27 45.5t-53 14.5q-58 0 -80.5 -39t-22.5 -100v-2q17 24 47 38t72 14q47 0 79 -17zM277.5 385.5
q21.5 20.5 21.5 55.5t-21.5 55.5t-62.5 20.5q-42 0 -65.5 -22t-23.5 -55t23 -54t64 -21q43 0 64.5 20.5z" />
    <glyph glyph-name="seven.numr" horiz-adv-x="335" 
d="M209 643h-183v63h292l-180 -388h-80z" />
    <glyph glyph-name="eight.numr" horiz-adv-x="387" 
d="M352 428q0 -57 -41 -88t-118 -31q-76 0 -117 31t-41 88q0 38 20 62.5t60 34.5q-35 10 -53 33.5t-18 53.5q0 49 39.5 76t109.5 27q71 0 110.5 -27t39.5 -76q0 -31 -17.5 -54t-52.5 -33q79 -20 79 -97zM133 651.5q-19 -14.5 -19 -43.5q0 -28 21 -43t58 -15q38 0 59 15
t21 43q0 29 -19 43.5t-61 14.5q-41 0 -60 -14.5zM257.5 380.5q23.5 17.5 23.5 48.5q0 30 -22 48t-66 18q-43 0 -65 -18t-22 -48q0 -31 23.5 -48.5t63.5 -17.5q41 0 64.5 17.5z" />
    <glyph glyph-name="nine.numr" horiz-adv-x="415" 
d="M334.5 660q40.5 -55 40.5 -146q0 -93 -40.5 -149t-132.5 -56q-65 0 -101.5 28.5t-48.5 86.5h69q9 -31 27 -45.5t53 -14.5q58 0 80.5 39t22.5 100v2q-17 -24 -47 -38t-72 -14q-47 0 -79 17t-48 45.5t-16 63.5q0 38 18 69t54 49t87 18q93 0 133.5 -55zM265.5 529
q23.5 22 23.5 55t-23 54t-64 21q-43 0 -64.5 -20.5t-21.5 -55.5t21.5 -55.5t62.5 -20.5q42 0 65.5 22z" />
    <glyph glyph-name="zero.superior" unicode="&#x2070;" horiz-adv-x="428" 
d="M48 632q0 203 166 203q90 0 128 -55t38 -148q0 -203 -166 -203t-166 203zM271.5 509.5q20.5 17.5 27.5 48t7 74.5q0 45 -7 75t-27.5 47.5t-57.5 17.5q-53 0 -73 -36.5t-20 -103.5q0 -68 20 -104t73 -36q37 0 57.5 17.5z" />
    <glyph glyph-name="onesuperior" unicode="&#xb9;" horiz-adv-x="264" 
d="M104 761h-78l11 65h140v-388h-73v323z" />
    <glyph glyph-name="twosuperior" unicode="&#xb2;" horiz-adv-x="353" 
d="M21 442l169 172q34 34 46.5 54.5t12.5 44.5q0 30 -18 47.5t-54 17.5q-43 0 -60 -22t-17 -58h-69q0 65 36.5 101.5t109.5 36.5q70 0 106 -32.5t36 -89.5q0 -32 -13 -57t-44 -56q-30 -30 -104 -98h162v-65h-299v4z" />
    <glyph glyph-name="threesuperior" unicode="&#xb3;" horiz-adv-x="369" 
d="M335 545q0 -55 -39.5 -86t-112.5 -31q-155 0 -155 151h65q0 -94 88 -94q42 0 62 17t20 49q0 34 -23 49t-70 15h-12v50h12q44 0 64.5 14t20.5 44q0 26 -18 41t-54 15q-42 0 -62 -21.5t-20 -53.5h-65q0 60 39 96t113 36q44 0 75 -14t47 -38t16 -55t-17.5 -53t-49.5 -33
q76 -20 76 -98z" />
    <glyph glyph-name="four.superior" unicode="&#x2074;" horiz-adv-x="377" 
d="M235 530h-231v2l174 294h126v-235h58v-61h-58v-92h-69v92zM235 591v211l-126 -211h126z" />
    <glyph glyph-name="five.superior" unicode="&#x2075;" horiz-adv-x="376" 
d="M72 465q-38 36 -38 98h68q0 -36 20 -56.5t62 -20.5q43 0 63 20t20 54q0 41 -30.5 62.5t-91.5 21.5q-52 0 -94 -13l33 195h230l-9 -55h-162l-15 -82q27 5 54 5q53 0 88.5 -17t52.5 -46.5t17 -68.5t-17.5 -69t-52 -47t-84.5 -17q-76 0 -114 36z" />
    <glyph glyph-name="six.superior" unicode="&#x2076;" horiz-adv-x="414" 
d="M309 674q32 -17 48 -45.5t16 -63.5q0 -38 -18 -69t-54 -49t-87 -18q-93 0 -133.5 55t-40.5 146q0 93 40.5 149t132.5 56q65 0 101.5 -28.5t48.5 -86.5h-69q-9 31 -27 45.5t-53 14.5q-58 0 -80.5 -39t-22.5 -100v-2q17 24 47 38t72 14q47 0 79 -17zM277.5 505.5
q21.5 20.5 21.5 55.5t-21.5 55.5t-62.5 20.5q-42 0 -65.5 -22t-23.5 -55t23 -54t64 -21q43 0 64.5 20.5z" />
    <glyph glyph-name="seven.superior" unicode="&#x2077;" horiz-adv-x="335" 
d="M209 763h-183v63h292l-180 -388h-80z" />
    <glyph glyph-name="eight.superior" unicode="&#x2078;" horiz-adv-x="387" 
d="M352 548q0 -57 -41 -88t-118 -31q-76 0 -117 31t-41 88q0 38 20 62.5t60 34.5q-35 10 -53 33.5t-18 53.5q0 49 39.5 76t109.5 27q71 0 110.5 -27t39.5 -76q0 -31 -17.5 -54t-52.5 -33q79 -20 79 -97zM133 771.5q-19 -14.5 -19 -43.5q0 -28 21 -43t58 -15q38 0 59 15
t21 43q0 29 -19 43.5t-61 14.5q-41 0 -60 -14.5zM257.5 500.5q23.5 17.5 23.5 48.5q0 30 -22 48t-66 18q-43 0 -65 -18t-22 -48q0 -31 23.5 -48.5t63.5 -17.5q41 0 64.5 17.5z" />
    <glyph glyph-name="nine.superior" unicode="&#x2079;" horiz-adv-x="415" 
d="M334.5 780q40.5 -55 40.5 -146q0 -93 -40.5 -149t-132.5 -56q-65 0 -101.5 28.5t-48.5 86.5h69q9 -31 27 -45.5t53 -14.5q58 0 80.5 39t22.5 100v2q-17 -24 -47 -38t-72 -14q-47 0 -79 17t-48 45.5t-16 63.5q0 38 18 69t54 49t87 18q93 0 133.5 -55zM265.5 649
q23.5 22 23.5 55t-23 54t-64 21q-43 0 -64.5 -20.5t-21.5 -55.5t21.5 -55.5t62.5 -20.5q42 0 65.5 22z" />
    <glyph glyph-name="fraction" unicode="&#x2044;" horiz-adv-x="197" 
d="M274 706h66l-417 -706h-66z" />
    <glyph glyph-name="onehalf" unicode="&#xbd;" horiz-adv-x="806" 
d="M104 641h-78l11 65h140v-388h-73v323zM538 706h66l-417 -706h-66zM474 4l169 172q34 34 46.5 54.5t12.5 44.5q0 30 -18 47.5t-54 17.5q-43 0 -60 -22t-17 -58h-69q0 65 36.5 101.5t109.5 36.5q70 0 106 -32.5t36 -89.5q0 -32 -13 -57t-44 -56q-30 -30 -104 -98h162v-65
h-299v4z" />
    <glyph glyph-name="onequarter" unicode="&#xbc;" horiz-adv-x="790" 
d="M104 641h-78l11 65h140v-388h-73v323zM538 706h66l-417 -706h-66zM648 92h-231v2l174 294h126v-235h58v-61h-58v-92h-69v92zM648 153v211l-126 -211h126z" />
    <glyph glyph-name="threequarters" unicode="&#xbe;" horiz-adv-x="892" 
d="M335 425q0 -55 -39.5 -86t-112.5 -31q-155 0 -155 151h65q0 -94 88 -94q42 0 62 17t20 49q0 34 -23 49t-70 15h-12v50h12q44 0 64.5 14t20.5 44q0 26 -18 41t-54 15q-42 0 -62 -21.5t-20 -53.5h-65q0 60 39 96t113 36q44 0 75 -14t47 -38t16 -55t-17.5 -53t-49.5 -33
q76 -20 76 -98zM640 706h66l-417 -706h-66zM750 92h-231v2l174 294h126v-235h58v-61h-58v-92h-69v92zM750 153v211l-126 -211h126z" />
    <glyph glyph-name="zero.sc" horiz-adv-x="600" 
d="M66 291q0 139 53.5 222t180.5 83q234 0 234 -305q0 -138 -54 -221.5t-180 -83.5q-234 0 -234 305zM390 96.5q31 28.5 41 76t10 118.5t-10.5 119t-41.5 76.5t-89 28.5q-59 0 -90 -29t-41 -76.5t-10 -118.5t10 -118.5t41 -76t90 -28.5t90 28.5z" />
    <glyph glyph-name="one.sc" horiz-adv-x="345" 
d="M138 499h-102l17 84h173v-583h-88v499z" />
    <glyph glyph-name="two.sc" horiz-adv-x="502" 
d="M29 3l242 261q33 34 52 58t27.5 46t8.5 47q0 46 -28 74t-84 28q-118 0 -118 -134h-86q0 99 49.5 156t156.5 57q67 0 112.5 -23.5t67.5 -64.5t22 -94q0 -46 -18.5 -82.5t-66.5 -84.5q-101 -101 -172 -166h263v-81h-428v3z" />
    <glyph glyph-name="three.sc" horiz-adv-x="528" 
d="M471 161q0 -52 -22.5 -91.5t-70.5 -61.5t-120 -22q-120 0 -170 57t-50 165h85q0 -70 29 -108t102 -38q64 0 94.5 29t30.5 79q0 53 -36 78t-110 25h-17v66h17q68 0 101.5 24t33.5 68t-27.5 69t-84.5 25q-66 0 -94 -32t-29 -88h-84q0 92 53 141.5t159 49.5q65 0 108.5 -20
t65 -55.5t21.5 -81.5q0 -49 -25.5 -82.5t-79.5 -48.5q120 -29 120 -147z" />
    <glyph glyph-name="four.sc" horiz-adv-x="532" 
d="M511 139h-85v-139h-88v139h-333v2l260 442h161v-368h85v-76zM338 215v333h-1l-199 -333h200z" />
    <glyph glyph-name="five.sc" horiz-adv-x="519" 
d="M97.5 41.5q-50.5 55.5 -50.5 153.5h86q0 -132 123 -132q64 0 95 32t31 86q0 67 -44 101t-135 34q-33 0 -67.5 -4t-62.5 -12l46 283h326l-17 -79h-236l-24 -129q35 8 69 8q79 0 132 -26t78.5 -71.5t25.5 -104.5q0 -57 -23 -101t-70.5 -69t-118.5 -25q-113 0 -163.5 55.5z
" />
    <glyph glyph-name="six.sc" horiz-adv-x="587" 
d="M438 355q46 -25 69 -68t23 -97q0 -58 -25.5 -104.5t-75.5 -73t-120 -26.5q-128 0 -185.5 83t-57.5 217q0 138 55.5 224t185.5 86q91 0 147 -45t67 -125h-86q-10 47 -42.5 72.5t-85.5 25.5q-84 0 -118 -61.5t-34 -158.5v-5q24 38 66.5 59.5t102.5 21.5q68 0 114 -25z
M381 79q29 17 43 45t14 63q0 55 -32.5 89.5t-96.5 34.5q-45 0 -75 -17t-44 -45.5t-14 -63.5q0 -34 14.5 -62t44.5 -44.5t73 -16.5q44 0 73 17z" />
    <glyph glyph-name="seven.sc" horiz-adv-x="468" 
d="M313 499h-277v84h407l-258 -583h-99z" />
    <glyph glyph-name="eight.sc" horiz-adv-x="566" 
d="M478 257.5q30 -40.5 30 -97.5q0 -53 -25 -92t-75.5 -60.5t-124.5 -21.5q-75 0 -125.5 22t-75.5 61t-25 91q0 56 31 97t92 55q-52 14 -80 50t-28 83q0 46 24.5 80t72 52.5t114.5 18.5t114 -18t71.5 -52t24.5 -81q0 -49 -27.5 -84.5t-79.5 -48.5q62 -14 92 -54.5z
M192.5 507q-30.5 -25 -30.5 -69q0 -45 31.5 -71t89.5 -26q39 0 66.5 12.5t41.5 34.5t14 50q0 43 -31 68.5t-91 25.5t-90.5 -25zM382 86.5q34 29.5 34 78.5q0 31 -15 55.5t-45 38.5t-73 14q-44 0 -73.5 -14t-44.5 -38.5t-15 -55.5q0 -50 34 -79t99 -29t99 29.5z" />
    <glyph glyph-name="nine.sc" horiz-adv-x="586" 
d="M463 513q57 -83 57 -217q0 -138 -55.5 -224t-185.5 -86q-60 0 -105.5 20.5t-73 58.5t-35.5 91h86q11 -47 43.5 -72.5t84.5 -25.5q85 0 119 61.5t34 158.5v5q-23 -38 -66.5 -59.5t-103.5 -21.5q-68 0 -114 25t-69 68t-23 97q0 58 25.5 104.5t75.5 73t120 26.5
q129 0 186 -83zM353 288q30 17 44 45t14 64q0 33 -14.5 61t-44.5 45t-74 17t-73 -17t-43 -45.5t-14 -62.5q0 -55 32.5 -89.5t96.5 -34.5q46 0 76 17z" />
    <glyph glyph-name="ellipsis" unicode="&#x2026;" horiz-adv-x="727" 
d="M318 3q-17 17 -17 43q0 28 17 45t45 17q27 0 44.5 -17.5t17.5 -44.5q0 -26 -18 -43t-44 -17q-28 0 -45 17zM543 3q-17 17 -17 43q0 28 17 45t45 17q27 0 44.5 -17.5t17.5 -44.5q0 -26 -18 -43t-44 -17q-28 0 -45 17zM94 3q-17 17 -17 43q0 28 17 45t45 17
q27 0 44.5 -17.5t17.5 -44.5q0 -26 -18 -43t-44 -17q-28 0 -45 17z" />
    <glyph glyph-name="exclamdown" unicode="&#xa1;" horiz-adv-x="278" 
d="M183.5 502.5q17.5 -16.5 17.5 -43.5t-17.5 -44.5t-44.5 -17.5q-28 0 -45 17t-17 45q0 27 17 43.5t45 16.5q27 0 44.5 -16.5zM175 312l12 -513h-96l12 513h72z" />
    <glyph glyph-name="questiondown" unicode="&#xbf;" horiz-adv-x="494" 
d="M300 507q17 -17 17 -43q0 -28 -17 -45t-45 -17q-27 0 -44.5 17.5t-17.5 44.5q0 26 18 43t44 17q28 0 45 -17zM190.5 128q-35.5 -64 -48 -98.5t-12.5 -63.5q0 -106 118 -106q49 0 76 17t37 46.5t10 72.5h87q0 -101 -50 -154.5t-163 -53.5q-103 0 -155.5 47t-52.5 129
q0 34 12 69.5t46.5 98.5t107.5 185h99q-76 -125 -111.5 -189z" />
    <glyph glyph-name="periodcentered" unicode="&#xb7;" horiz-adv-x="278" 
d="M94 245q-17 17 -17 43q0 28 17 45t45 17q27 0 44.5 -17.5t17.5 -44.5q0 -26 -18 -43t-44 -17q-28 0 -45 17z" />
    <glyph glyph-name="bullet" unicode="&#x2022;" horiz-adv-x="426" 
d="M153.5 266.5q-25.5 14.5 -39.5 40t-14 59.5q0 53 30.5 82.5t82.5 29.5q51 0 81.5 -29.5t30.5 -82.5q0 -34 -14 -59.5t-39.5 -40t-58.5 -14.5q-34 0 -59.5 14.5z" />
    <glyph glyph-name="colon.case" horiz-adv-x="291" 
d="M94 135q-17 17 -17 43q0 28 17 45t45 17q27 0 44.5 -17.5t17.5 -44.5q0 -26 -18 -43t-44 -17q-28 0 -45 17zM94 490q-17 17 -17 43q0 28 17 45t45 17q27 0 44.5 -17.5t17.5 -44.5q0 -26 -18 -43t-44 -17q-28 0 -45 17z" />
    <glyph glyph-name="semicolon.case" horiz-adv-x="308" 
d="M119 289h85l-84 -328h-66zM124 490q-17 17 -17 43q0 28 17 45t45 17q27 0 44.5 -17.5t17.5 -44.5q0 -26 -18 -43t-44 -17q-28 0 -45 17z" />
    <glyph glyph-name="exclamdown.case" horiz-adv-x="278" 
d="M184 699q17 -17 17 -43q0 -28 -17 -45t-45 -17q-27 0 -44.5 17.5t-17.5 44.5q0 26 18 43t44 17q28 0 45 -17zM187 -4h-96l12 513h72z" />
    <glyph glyph-name="questiondown.case" horiz-adv-x="494" 
d="M300 704q17 -17 17 -43q0 -28 -17 -45t-45 -17q-27 0 -44.5 17.5t-17.5 44.5q0 26 18 43t44 17q28 0 45 -17zM190.5 325q-35.5 -64 -48 -98.5t-12.5 -63.5q0 -106 118 -106q49 0 76 17t37 46.5t10 72.5h87q0 -101 -50 -154.5t-163 -53.5q-103 0 -155.5 47t-52.5 129
q0 34 12 69.5t46.5 98.5t107.5 185h99q-76 -125 -111.5 -189z" />
    <glyph glyph-name="periodcentered.case" horiz-adv-x="278" 
d="M94 332q-17 17 -17 43q0 28 17 45t45 17q27 0 44.5 -17.5t17.5 -44.5q0 -26 -18 -43t-44 -17q-28 0 -45 17z" />
    <glyph glyph-name="periodcentered.loclCAT.case" horiz-adv-x="52" 
d="M-121 350q-17 17 -17 43q0 28 17 45t45 17q27 0 44.5 -17.5t17.5 -44.5q0 -26 -18 -43t-44 -17q-28 0 -45 17z" />
    <glyph glyph-name="slash.case" horiz-adv-x="454" 
d="M343 756h88l-308 -806h-88z" />
    <glyph glyph-name="periodcentered.loclCAT" horiz-adv-x="133" 
d="M21 290q-17 17 -17 43q0 28 17 45t45 17q27 0 44.5 -17.5t17.5 -44.5q0 -26 -18 -43t-44 -17q-28 0 -45 17z" />
    <glyph glyph-name="uni208D" unicode="&#x208d;" horiz-adv-x="246" 
d="M94 -68q-20 63 -20 142t20 142t61 128h61q-41 -63 -62 -128.5t-21 -141.5t21 -141t62 -128h-61q-41 64 -61 127z" />
    <glyph glyph-name="uni208E" unicode="&#x208e;" horiz-adv-x="246" 
d="M30 -195q41 63 62 128t21 141t-21 141.5t-62 128.5h61q41 -65 61 -128t20 -142t-20 -142t-61 -127h-61z" />
    <glyph glyph-name="uni207D" unicode="&#x207d;" horiz-adv-x="246" 
d="M94 490q-20 63 -20 142t20 142t61 128h61q-41 -63 -62 -128.5t-21 -141.5t21 -141t62 -128h-61q-41 64 -61 127z" />
    <glyph glyph-name="uni207E" unicode="&#x207e;" horiz-adv-x="246" 
d="M30 363q41 63 62 128t21 141t-21 141.5t-62 128.5h61q41 -65 61 -128t20 -142t-20 -142t-61 -127h-61z" />
    <glyph glyph-name="parenleft.case" horiz-adv-x="392" 
d="M157 98q-34 114 -34 255t34 255.5t103 231.5h83q-69 -112 -104.5 -230t-35.5 -257t35.5 -257t104.5 -229h-83q-69 117 -103 231z" />
    <glyph glyph-name="parenright.case" horiz-adv-x="392" 
d="M50 -133q69 111 104.5 229t35.5 257t-35.5 257t-104.5 230h82q69 -116 103 -230.5t34 -256.5q0 -141 -34 -255.5t-103 -230.5h-82z" />
    <glyph glyph-name="braceleft.case" horiz-adv-x="355" 
d="M208.5 407.5q-7.5 -24.5 -25 -37.5t-48.5 -17q31 -4 48.5 -17t25 -37.5t7.5 -64.5v-212q0 -45 20 -67.5t73 -22.5h22v-65h-51q-68 0 -102.5 37.5t-34.5 100.5v213q1 39 -7 59.5t-28.5 29.5t-60.5 9v74q41 0 61.5 9t28 29.5t6.5 59.5v213q0 63 34.5 101t102.5 38h51v-65
h-22q-36 0 -56.5 -10.5t-28.5 -30t-8 -50.5v-212q0 -40 -7.5 -64.5z" />
    <glyph glyph-name="braceright.case" horiz-adv-x="355" 
d="M219.5 428.5q7.5 -20.5 28 -29.5t61.5 -9v-74q-41 0 -61.5 -9t-28 -29.5t-7.5 -59.5v-213q0 -64 -34 -101t-103 -37h-51v65h23q52 0 72.5 22.5t20.5 67.5v212q0 41 7.5 65t25 37t48.5 17q-31 4 -48.5 17t-25 37.5t-7.5 64.5v212q0 46 -20.5 68.5t-72.5 22.5h-23v65h51
q69 0 103 -37.5t34 -101.5v-213q0 -39 7.5 -59.5z" />
    <glyph glyph-name="bracketleft.case" horiz-adv-x="378" 
d="M154 840h200v-68h-123v-837h123v-68h-200v973z" />
    <glyph glyph-name="bracketright.case" horiz-adv-x="378" 
d="M24 -133v68h123v837h-123v68h200v-973h-200z" />
    <glyph glyph-name="uni00AD" unicode="&#xad;" horiz-adv-x="387" 
d="M54 323h279v-78h-279v78z" />
    <glyph glyph-name="endash" unicode="&#x2013;" horiz-adv-x="493" 
d="M54 323h385v-76h-385v76z" />
    <glyph glyph-name="emdash" unicode="&#x2014;" horiz-adv-x="962" 
d="M54 323h854v-76h-854v76z" />
    <glyph glyph-name="uni2011" unicode="&#x2011;" horiz-adv-x="387" 
d="M54 323h279v-78h-279v78z" />
    <glyph glyph-name="hyphen.case" horiz-adv-x="387" 
d="M54 410h279v-78h-279v78z" />
    <glyph glyph-name="uni00AD.case" horiz-adv-x="387" 
d="M54 410h279v-78h-279v78z" />
    <glyph glyph-name="endash.case" horiz-adv-x="493" 
d="M54 410h385v-76h-385v76z" />
    <glyph glyph-name="emdash.case" horiz-adv-x="962" 
d="M54 410h854v-76h-854v76z" />
    <glyph glyph-name="quotesinglbase" unicode="&#x201a;" horiz-adv-x="244" 
d="M111 146h91l-90 -281h-69z" />
    <glyph glyph-name="quotedblbase" unicode="&#x201e;" horiz-adv-x="423" 
d="M290 146h91l-90 -281h-69zM111 146h91l-90 -281h-69z" />
    <glyph glyph-name="quotedblleft" unicode="&#x201c;" horiz-adv-x="423" 
d="M134 425h-91l90 281h69zM313 425h-91l90 281h69z" />
    <glyph glyph-name="quotedblright" unicode="&#x201d;" horiz-adv-x="423" 
d="M290 706h91l-90 -281h-69zM111 706h91l-90 -281h-69z" />
    <glyph glyph-name="quoteleft" unicode="&#x2018;" horiz-adv-x="244" 
d="M134 425h-91l90 281h69z" />
    <glyph glyph-name="quoteright" unicode="&#x2019;" horiz-adv-x="244" 
d="M111 706h91l-90 -281h-69z" />
    <glyph glyph-name="guillemotleft" unicode="&#xab;" horiz-adv-x="491" 
d="M22 281l150 161h95l-150 -161l150 -162h-95zM225 281l150 161h95l-150 -161l150 -162h-95z" />
    <glyph glyph-name="guillemotright" unicode="&#xbb;" horiz-adv-x="491" 
d="M21 119l150 162l-150 161h95l150 -161l-150 -162h-95zM224 119l150 162l-150 161h95l150 -161l-150 -162h-95z" />
    <glyph glyph-name="guilsinglleft" unicode="&#x2039;" horiz-adv-x="288" 
d="M22 281l150 161h95l-150 -161l150 -162h-95z" />
    <glyph glyph-name="guilsinglright" unicode="&#x203a;" horiz-adv-x="288" 
d="M21 119l150 162l-150 161h95l150 -161l-150 -162h-95z" />
    <glyph glyph-name="guillemotleft.case" horiz-adv-x="491" 
d="M22 368l150 161h95l-150 -161l150 -162h-95zM225 368l150 161h95l-150 -161l150 -162h-95z" />
    <glyph glyph-name="guillemotright.case" horiz-adv-x="491" 
d="M21 207l150 161l-150 161h95l150 -161l-150 -161h-95zM224 207l150 161l-150 161h95l150 -161l-150 -161h-95z" />
    <glyph glyph-name="guilsinglleft.case" horiz-adv-x="288" 
d="M22 368l150 161h95l-150 -161l150 -162h-95z" />
    <glyph glyph-name="guilsinglright.case" horiz-adv-x="288" 
d="M21 207l150 161l-150 161h95l150 -161l-150 -161h-95z" />
    <glyph glyph-name="periodcentered.loclCAT.sc" horiz-adv-x="75" 
d="M-89 302q-17 17 -17 43q0 28 17 45t45 17q27 0 44.5 -17.5t17.5 -44.5q0 -26 -18 -43t-44 -17q-28 0 -45 17z" />
    <glyph glyph-name="slash.sc" horiz-adv-x="433" 
d="M303 633h89l-262 -683h-89z" />
    <glyph glyph-name="uni00A0" unicode="&#xa0;" horiz-adv-x="182" 
 />
    <glyph glyph-name="uni2009" unicode="&#x2009;" horiz-adv-x="73" 
 />
    <glyph glyph-name="uniFEFF" unicode="&#xfeff;" 
 />
    <glyph glyph-name="cent" unicode="&#xa2;" horiz-adv-x="527" 
d="M366 209.5q27 30.5 29 75.5h90q-2 -55 -27 -95.5t-67.5 -63t-97.5 -26.5v-100h-49v100q-69 6 -114 41.5t-66.5 90.5t-21.5 122t21.5 122.5t67 90.5t113.5 41v98h49v-98q56 -3 99 -27t67.5 -65.5t25.5 -95.5h-90q-3 50 -30 80t-73 35v-362q47 6 74 36.5zM158.5 233
q26.5 -49 86.5 -59v360q-60 -10 -86.5 -59t-26.5 -121t26.5 -121z" />
    <glyph glyph-name="currency" unicode="&#xa4;" horiz-adv-x="550" 
d="M478 268q-15 -40 -43 -70l85 -101h-78l-55 65q-50 -26 -112 -26q-66 0 -113 26l-54 -65h-77l83 100q-28 30 -42.5 70.5t-14.5 85.5t15 85.5t43 70.5l-84 100h77l54 -64q50 26 113 26t113 -26l54 64h78l-84 -101q28 -30 42.5 -70.5t14.5 -84.5q0 -45 -15 -85zM147.5 277
q16.5 -34 49 -53.5t78.5 -19.5q47 0 79 20t48 54t16 75q0 43 -16 77t-48.5 53.5t-78.5 19.5q-47 0 -79.5 -20.5t-48.5 -54.5t-16 -75q0 -42 16.5 -76z" />
    <glyph glyph-name="Euro" unicode="&#x20ac;" horiz-adv-x="735" 
d="M690 249q-1 -82 -38 -142t-102 -91.5t-150 -31.5q-139 0 -214 74.5t-94 200.5h-52v52h46q-1 14 -1 42q0 29 1 44h-46v53h52q20 123 95.5 197.5t212.5 74.5q83 0 147.5 -32t101.5 -91t39 -139h-95q-2 57 -27 98t-68.5 62t-102.5 21q-173 0 -205 -191h261v-53h-267
q-1 -14 -1 -44q0 -28 1 -42h267v-52h-262q14 -91 63 -142.5t144 -51.5q93 0 144.5 48t55.5 136h94z" />
    <glyph glyph-name="florin" unicode="&#x192;" horiz-adv-x="384" 
d="M21 0v72q21 -6 47 -6q41 0 61.5 22t20.5 64v227h-126v55h126v133q0 77 37 113.5t115 36.5q33 0 61 -6v-72q-24 6 -48 6q-41 0 -60.5 -22t-19.5 -67v-122h125v-55h-125v-235q0 -78 -37 -114.5t-117 -36.5q-30 0 -60 7z" />
    <glyph glyph-name="uni20BA" unicode="&#x20ba;" horiz-adv-x="580" 
d="M556 302q0 -99 -26 -165t-89 -101.5t-171 -35.5h-156v246l-74 -34v58l74 34v99l-74 -33v58l74 34v244h91v-208l189 88v-59l-189 -87v-98l189 86v-59l-189 -86v-204h56q84 0 129 25.5t62 73.5t17 124h87z" />
    <glyph glyph-name="uni20BC" unicode="&#x20bc;" horiz-adv-x="810" 
d="M612 588.5q59 -37.5 83 -101t24 -152.5v-335h-92v339q0 62 -14.5 108t-53 75t-108.5 30v-552h-92v552q-70 -1 -108.5 -30t-53 -75t-14.5 -108v-339h-93v335q0 89 24 152.5t83.5 101t161.5 39.5v78h92v-78q102 -2 161 -39.5z" />
    <glyph glyph-name="uni20B9" unicode="&#x20b9;" horiz-adv-x="653" 
d="M467 338q-52 -45 -161 -45h-24l271 -293h-110l-324 354h158q55 0 88 13t49 38t19 64h-360v55h360q-6 55 -38 83.5t-100 28.5h-223v70h560v-55h-164q50 -41 56 -127h109v-55h-109q-5 -86 -57 -131z" />
    <glyph glyph-name="sterling" unicode="&#xa3;" horiz-adv-x="615" 
d="M570 253q-1 -85 -22.5 -140t-73.5 -84t-144 -29h-290v71h78v255h-78v55h78v74q0 88 20.5 146t71.5 89.5t139 31.5q83 0 131.5 -31t68 -86t20.5 -137h-86q-1 59 -12 97.5t-40 60t-82 21.5q-55 0 -85.5 -23t-42 -63.5t-11.5 -102.5v-77h193v-55h-193v-255h102
q68 0 105.5 20.5t52.5 60t15 101.5h85z" />
    <glyph glyph-name="yen" unicode="&#xa5;" horiz-adv-x="558" 
d="M332 342h174v-52h-179v-80h179v-53h-179v-157h-94v157h-180v53h180v80h-180v52h175l-223 364h102l175 -292l174 292h98z" />
    <glyph glyph-name="cent.ss06" horiz-adv-x="528" 
d="M335.5 188q26.5 14 40.5 39t15 58h95q-2 -54 -25.5 -94t-65 -63.5t-94.5 -28.5v-99h-67v100q-65 9 -108 44.5t-63.5 89t-20.5 119.5q0 65 21 119t64 89.5t107 44.5v100h67v-99q54 -5 95 -29t64.5 -64.5t25.5 -95.5h-94q-3 54 -34.5 84t-84.5 30q-73 0 -106 -50.5
t-33 -128.5q0 -80 33 -129.5t106 -49.5q36 0 62.5 14z" />
    <glyph glyph-name="dollar.ss06" horiz-adv-x="604" 
d="M538 90.5q-26 -45.5 -77 -73t-124 -32.5v-94h-71v94q-118 9 -172 74.5t-54 169.5h101q0 -81 37 -125.5t127 -44.5q52 0 87.5 16t53.5 44t18 65q0 43 -24 69t-63 41t-116 37q-68 19 -112 42t-68.5 60t-24.5 92q0 52 23.5 94.5t70 69.5t113.5 32v93h70v-94
q102 -10 151 -72.5t49 -159.5h-95q0 160 -147 160q-46 0 -77.5 -15t-47.5 -40.5t-16 -57.5q0 -41 23 -65t58.5 -37t115.5 -35q76 -22 122 -45t70.5 -61t24.5 -97t-26 -104.5z" />
    <glyph glyph-name="uni2219" unicode="&#x2219;" horiz-adv-x="577" 
d="M243 327q-17 17 -17 43q0 28 17 45t45 17q27 0 44.5 -17.5t17.5 -44.5q0 -26 -18 -43t-44 -17q-28 0 -45 17z" />
    <glyph glyph-name="uni2215" unicode="&#x2215;" horiz-adv-x="577" 
d="M406 706h82l-284 -706h-82z" />
    <glyph glyph-name="uni208C" unicode="&#x208c;" horiz-adv-x="347" 
d="M33 156h281v-49h-281v49zM33 47h281v-49h-281v49z" />
    <glyph glyph-name="uni207C" unicode="&#x207c;" horiz-adv-x="347" 
d="M33 714h281v-49h-281v49zM33 605h281v-49h-281v49z" />
    <glyph glyph-name="uni208B" unicode="&#x208b;" horiz-adv-x="349" 
d="M33 105h283v-55h-283v55z" />
    <glyph glyph-name="uni207B" unicode="&#x207b;" horiz-adv-x="349" 
d="M33 663h283v-55h-283v55z" />
    <glyph glyph-name="minus" unicode="&#x2212;" horiz-adv-x="577" 
d="M54 320h469v-72h-469v72z" />
    <glyph glyph-name="multiply" unicode="&#xd7;" horiz-adv-x="577" 
d="M339 284l163 -163l-51 -51l-163 164l-163 -163l-50 50l163 163l-163 163l50 51l163 -163l163 163l51 -51z" />
    <glyph glyph-name="divide" unicode="&#xf7;" horiz-adv-x="577" 
d="M252 449.5q-14 13.5 -14 36.5t14 36.5t37 13.5q21 0 35.5 -13.5t14.5 -36.5q0 -22 -14.5 -36t-35.5 -14q-23 0 -37 13.5zM54 320h469v-72h-469v72zM252 46q-14 14 -14 36q0 24 13.5 37t37.5 13q21 0 35.5 -13.5t14.5 -36.5q0 -21 -14.5 -35.5t-35.5 -14.5q-23 0 -37 14z
" />
    <glyph glyph-name="notequal" unicode="&#x2260;" horiz-adv-x="577" 
d="M361 347l-84 -125h246v-72h-291l-78 -116h-60l78 116h-118v72h163l84 125h-247v72h291l78 115h60l-78 -115h118v-72h-162z" />
    <glyph glyph-name="greaterequal" unicode="&#x2265;" horiz-adv-x="577" 
d="M54 144v75l421 122l-421 122v76l468 -144v-109zM523 101v-72h-469v72h469z" />
    <glyph glyph-name="lessequal" unicode="&#x2264;" horiz-adv-x="577" 
d="M523 463l-421 -122l421 -122v-75l-468 142v109l468 144v-76zM54 101h469v-72h-469v72z" />
    <glyph glyph-name="plusminus" unicode="&#xb1;" horiz-adv-x="577" 
d="M251 307h-197v73h197v161h75v-161h196v-73h-196v-164h-75v164zM523 100v-72h-469v72h469z" />
    <glyph glyph-name="approxequal" unicode="&#x2248;" horiz-adv-x="577" 
d="M342.5 315q-18.5 6 -34.5 15.5t-29 19.5q-26 17 -40.5 24t-34.5 7q-31 0 -45 -17.5t-18 -49.5h-61q5 62 32 97.5t81 35.5q31 0 54 -10t51 -29q22 -17 37.5 -25t37.5 -8q29 0 43.5 17t17.5 48h62q-6 -64 -33 -97.5t-80 -33.5q-22 0 -40.5 6zM342.5 127q-18.5 6 -34.5 15.5
t-29 19.5q-25 18 -40 25t-35 7q-31 0 -45 -18t-18 -49h-61q5 62 32 97.5t81 35.5q31 0 54 -10t51 -30q21 -16 37 -24t38 -8q29 0 43.5 17t17.5 48h62q-6 -65 -32.5 -98.5t-80.5 -33.5q-22 0 -40.5 6z" />
    <glyph glyph-name="logicalnot" unicode="&#xac;" horiz-adv-x="577" 
d="M449 355h-395v71h468v-378h-73v307z" />
    <glyph glyph-name="infinity" unicode="&#x221e;" horiz-adv-x="830" 
d="M710 423.5q40 -28.5 59 -75.5t19 -104t-19 -104.5t-59 -75.5t-99 -28q-67 0 -112.5 37t-84.5 103q-26 -43 -52 -73.5t-61.5 -48.5t-81.5 -18q-60 0 -99.5 28.5t-58.5 75.5t-19 104t19 104.5t59 75.5t99 28q46 0 81.5 -18.5t62 -49t52.5 -74.5q26 44 52.5 74.5t62 49
t81.5 18.5q59 0 99 -28.5zM286.5 130q25.5 17 44.5 44t42 70q-23 43 -42 70t-44.5 44t-58.5 17q-53 0 -78.5 -37.5t-25.5 -93.5q0 -57 26.5 -94t77.5 -37q33 0 58.5 17zM661.5 131.5q23.5 18.5 34.5 48t11 64.5t-11 65t-34.5 48t-59.5 18q-33 0 -58.5 -17t-44.5 -44t-41 -70
q22 -43 41 -70t44.5 -44t58.5 -17q36 0 59.5 18.5z" />
    <glyph glyph-name="integral" unicode="&#x222b;" horiz-adv-x="354" 
d="M0 -201l14 77q14 -2 33 -2q33 0 49 15.5t19 51.5l47 631q5 71 39 104.5t102 33.5q27 0 51 -4l-14 -78l-26 2q-32 0 -47.5 -16.5t-17.5 -52.5l-49 -630q-5 -71 -38.5 -104t-101.5 -33q-32 0 -60 5z" />
    <glyph glyph-name="Omega" unicode="&#x2126;" horiz-adv-x="700" 
d="M472 72h157v-72h-233v205q159 26 159 223q0 100 -50 159.5t-155 59.5q-106 0 -156 -60.5t-50 -158.5q0 -91 37.5 -150t122.5 -73v-205h-233v72h157v74q-92 29 -135 104t-43 178q0 87 32 153t99.5 103.5t168.5 37.5q102 0 169 -37.5t99 -103.5t32 -153q0 -104 -43 -178.5
t-135 -103.5v-74z" />
    <glyph glyph-name="Delta" unicode="&#x2206;" horiz-adv-x="630" 
d="M622 0h-614l237 706h140zM501 75l-184 562h-2l-186 -562h372z" />
    <glyph glyph-name="product" unicode="&#x220f;" horiz-adv-x="691" 
d="M90 706h510v-907h-93v827h-323v-827h-94v907z" />
    <glyph glyph-name="summation" unicode="&#x2211;" horiz-adv-x="533" 
d="M270 264l-234 442h445v-79h-300l191 -363l-201 -386h322v-79h-466z" />
    <glyph glyph-name="radical" unicode="&#x221a;" horiz-adv-x="640" 
d="M632 706l-279 -912h-97l-159 428l-87 -30v88l150 47l145 -418l231 797h96z" />
    <glyph glyph-name="mu" unicode="&#xb5;" horiz-adv-x="563" 
d="M488 487v-487h-85v73q-22 -42 -60.5 -63.5t-88.5 -21.5q-62 0 -99 34q6 -53 6 -109v-114h-86v688h86v-282q0 -74 27.5 -108t86.5 -34q62 0 94.5 35.5t32.5 104.5v284h86z" />
    <glyph glyph-name="partialdiff" unicode="&#x2202;" horiz-adv-x="613" 
d="M510.5 619q61.5 -103 61.5 -266q0 -107 -28 -189.5t-91 -131t-164 -48.5q-82 0 -139 32.5t-85.5 87.5t-28.5 123q0 67 26.5 119t79 81.5t127.5 29.5q80 0 133.5 -34.5t76.5 -93.5q1 11 1 33q0 286 -180 286q-45 0 -77 -19t-50.5 -49t-24.5 -64h-89q8 59 38.5 105.5
t82 73.5t122.5 27q147 0 208.5 -103zM383.5 82.5q36.5 22.5 54 59.5t17.5 82q0 47 -18.5 84t-55.5 58t-89 21q-54 0 -89.5 -20.5t-53 -57t-17.5 -82.5q0 -48 17.5 -85.5t54 -59.5t89.5 -22q54 0 90.5 22.5z" />
    <glyph glyph-name="perthousand" unicode="&#x2030;" horiz-adv-x="1113" 
d="M77.5 445.5q-32.5 42.5 -32.5 112.5q0 69 32.5 112t104.5 43t104.5 -43t32.5 -112q0 -70 -32.5 -112.5t-104.5 -42.5t-104.5 42.5zM579 706h72l-480 -706h-73zM241.5 485q15.5 26 15.5 73q0 49 -16 74.5t-59 25.5q-44 0 -59.5 -26.5t-15.5 -73.5q0 -48 15.5 -73.5
t59.5 -25.5t59.5 26zM463.5 35.5q-32.5 42.5 -32.5 112.5q0 69 32.5 112t104.5 43t104.5 -43t32.5 -112t-32.5 -112t-104.5 -43t-104.5 42.5zM826.5 35.5q-32.5 42.5 -32.5 112.5q0 69 33 112t105 43t104 -43t32 -112t-32.5 -112t-103.5 -43q-73 0 -105.5 42.5zM626.5 74.5
q15.5 25.5 15.5 73.5q0 49 -15.5 74.5t-58.5 25.5q-31 0 -47.5 -13t-22 -34.5t-5.5 -52.5q0 -48 15.5 -73.5t59.5 -25.5q43 0 58.5 25.5zM990.5 74.5q15.5 25.5 15.5 73.5q0 49 -15.5 74.5t-58.5 25.5q-31 0 -47.5 -13t-22 -34.5t-5.5 -52.5q0 -48 15.5 -73.5t59.5 -25.5
q43 0 58.5 25.5z" />
    <glyph glyph-name="uni208A" unicode="&#x208a;" horiz-adv-x="349" 
d="M316 50h-115v-110h-54v110h-114v55h114v110h54v-110h115v-55z" />
    <glyph glyph-name="uni207A" unicode="&#x207a;" horiz-adv-x="349" 
d="M316 608h-115v-110h-54v110h-114v55h114v110h54v-110h115v-55z" />
    <glyph glyph-name="lozenge" unicode="&#x25ca;" horiz-adv-x="512" 
d="M23 253l183 453h101l182 -453l-182 -454h-101zM399 253l-143 366l-143 -366l143 -368z" />
    <glyph glyph-name="paragraph" unicode="&#xb6;" horiz-adv-x="655" 
d="M297 304h-68q-112 0 -158.5 52.5t-46.5 149.5q0 98 47.5 149t161.5 51h399v-75h-68v-832h-79v832h-109v-832h-79v505z" />
    <glyph glyph-name="section" unicode="&#xa7;" horiz-adv-x="493" 
d="M380 69.5q27 -19.5 43.5 -49.5t16.5 -73q0 -77 -49.5 -118.5t-144.5 -41.5q-193 0 -193 171h87q0 -52 25 -79t82 -27q54 0 79 23t25 67q0 36 -15.5 58t-41.5 36t-73 32q-59 23 -95 44.5t-56.5 55t-20.5 83.5q0 63 37.5 103.5t109.5 50.5q-44 20 -73 40t-47 50t-18 73
q0 74 49 114t139 40q93 0 141 -43t48 -120h-84q0 48 -26.5 73.5t-80.5 25.5q-52 0 -76.5 -22.5t-24.5 -61.5q0 -33 17.5 -54.5t41.5 -34t73 -32.5q62 -26 97 -48.5t54 -56t19 -84.5q0 -63 -34.5 -103.5t-98.5 -53.5q41 -18 68 -37.5zM159 330.5q-30 -26.5 -30 -72.5
q0 -47 31 -75.5t88 -28.5q56 0 86 28t30 75q0 48 -30 74t-87 26q-58 0 -88 -26.5z" />
    <glyph glyph-name="copyright" unicode="&#xa9;" horiz-adv-x="812" 
d="M216 32q-81 48 -123.5 131.5t-42.5 189.5q0 107 43.5 190.5t124.5 131t189 47.5t188.5 -47.5t123.5 -131.5t43 -191q0 -106 -43 -189.5t-123.5 -131t-189.5 -47.5t-190 48zM569.5 74q68.5 41 104.5 113.5t36 165.5q0 95 -36 167.5t-104.5 112.5t-162.5 40
q-95 0 -164 -40.5t-105 -113t-36 -166.5q0 -93 36.5 -165.5t105.5 -113.5t163 -41t162.5 41zM293.5 137q-48.5 29 -74.5 85q-23 52 -23 132q0 79 23 133q25 54 73.5 83t115.5 29q88 0 140 -49q27 -24 41.5 -58.5t15.5 -75.5h-78q-2 51 -31 82q-33 34 -91 34q-41 0 -70 -17.5
t-44 -52.5q-9 -20 -13 -45t-4 -62q0 -35 4 -60.5t14 -46.5q15 -35 44 -52.5t70 -17.5q31 0 53.5 9t38.5 27q15 16 22 35t9 44h78q-2 -86 -56 -136q-55 -49 -143 -49q-66 0 -114.5 29z" />
    <glyph glyph-name="registered" unicode="&#xae;" horiz-adv-x="492" 
d="M359 692.5q46 -27.5 68.5 -74.5t22.5 -106t-22.5 -106.5t-68.5 -74.5t-113 -27t-113 27.5t-68.5 75t-22.5 105.5q0 59 22.5 106t68.5 74.5t113 27.5t113 -27.5zM371 386.5q41 47.5 41 125.5q0 80 -40.5 126.5t-125.5 46.5t-125.5 -48t-40.5 -125q0 -50 18 -89t55 -61.5
t93 -22.5q84 0 125 47.5zM339 525q-10 -15 -30 -21q19 -7 27 -21.5t8 -35.5v-60h-47v56q0 23 -10.5 32.5t-37.5 9.5h-50v-98h-48v249h106q47 0 69.5 -17.5t22.5 -53.5q0 -25 -10 -40zM288 531.5q13 9.5 13 29.5q0 19 -12.5 28t-40.5 9h-49v-76h49q27 0 40 9.5z" />
    <glyph glyph-name="uni2117" unicode="&#x2117;" horiz-adv-x="812" 
d="M216 32q-81 48 -123.5 131.5t-42.5 189.5q0 107 43.5 190.5t124.5 131t189 47.5t188.5 -47.5t123.5 -131.5t43 -191q0 -106 -43 -189.5t-123.5 -131t-189.5 -47.5t-190 48zM569.5 74q68.5 41 104.5 113.5t36 165.5q0 95 -36 167.5t-104.5 112.5t-162.5 40
q-95 0 -164 -40.5t-105 -113t-36 -166.5q0 -93 36.5 -165.5t105.5 -113.5t163 -41t162.5 41zM280 590h153q102 0 132 -67q13 -32 13 -70q0 -39 -13 -70q-30 -66 -132 -66h-80v-197h-73v470zM420 374q30 0 48 8.5t26 27.5q8 18 8 43t-8 43q-8 19 -26 27.5t-48 8.5h-67v-158
h67z" />
    <glyph glyph-name="trademark" unicode="&#x2122;" horiz-adv-x="653" 
d="M89 655h-75v51h211v-51h-75v-259h-61v259zM258 706h75l95 -229l97 229h73v-310h-57v226l-96 -226h-33l-96 226v-226h-58v310z" />
    <glyph glyph-name="degree" unicode="&#xb0;" horiz-adv-x="317" 
d="M89.5 476q-31.5 17 -49 46.5t-17.5 67.5q0 39 17.5 69t48.5 46.5t72 16.5t72 -16.5t48.5 -46.5t17.5 -69q0 -38 -17.5 -67.5t-49 -46.5t-71.5 -17t-71.5 17zM212.5 539.5q19.5 19.5 19.5 50.5q0 33 -19.5 53t-50.5 20q-32 0 -51.5 -20t-19.5 -53q0 -32 19.5 -51t51.5 -19
q31 0 50.5 19.5z" />
    <glyph glyph-name="brokenbar" unicode="&#xa6;" horiz-adv-x="415" 
d="M163 756h89v-328h-89v328zM163 128h89v-329h-89v329z" />
    <glyph glyph-name="dagger" unicode="&#x2020;" horiz-adv-x="396" 
d="M369 462h-126v-462h-90v462h-127v79h127v165h90v-165h126v-79z" />
    <glyph glyph-name="uni2113" unicode="&#x2113;" horiz-adv-x="423" 
d="M190.5 94q27.5 -28 81.5 -28q51 0 96 21v-73q-25 -10 -54 -15t-58 -5q-86 0 -132 44t-52 140q-18 -1 -56 -1v65q21 0 55 2v224q0 88 16.5 142t51.5 78.5t91 24.5t90 -21.5t50.5 -69.5t16.5 -127q0 -91 -23.5 -153.5t-74 -99.5t-131.5 -53q5 -67 32.5 -95zM157 256
q53 13 84 42.5t45 77t14 119.5q0 60 -8 93.5t-23.5 46.5t-39.5 13q-25 0 -40.5 -14t-23.5 -46.5t-8 -88.5v-243z" />
    <glyph glyph-name="daggerdbl" unicode="&#x2021;" horiz-adv-x="396" 
d="M243 469v-232h126v-79h-126v-158h-90v158h-127v79h127v232h-127v79h127v158h90v-158h126v-79h-126z" />
    <glyph glyph-name="estimated" unicode="&#x212e;" horiz-adv-x="852" 
d="M241 32.5q-87 43.5 -139.5 121.5t-52.5 176q0 96 51 174t138 122.5t190 44.5q102 0 188.5 -45t138 -124.5t51.5 -177.5h-608q-6 0 -8 -2.5t-2 -8.5v-197q47 -51 110 -78.5t130 -27.5q73 0 139 32.5t113 88.5h57q-56 -68 -138 -105t-171 -37q-100 0 -187 43.5zM659 347
q5 0 7 2.5t2 8.5v184q-44 51 -108 79.5t-132 28.5q-70 0 -133 -28.5t-107 -78.5v-185q0 -6 2 -8.5t8 -2.5h461z" />
    <glyph glyph-name="paragraph.ss07" horiz-adv-x="656" 
d="M297 304h-66q-113 0 -160 52.5t-47 149.5q0 98 49 149t164 51h396v-74h-68v-833h-80v833h-108v-833h-80v505zM297 378v255h-62q-51 0 -80 -15t-40.5 -42.5t-11.5 -69.5t12 -70t41 -43t79 -15h62z" />
    <glyph glyph-name="uni02C9" unicode="&#x2c9;" horiz-adv-x="383" 
d="M50 670h283v-61h-283v61z" />
    <glyph glyph-name="dieresiscomb" unicode="&#x308;" 
d="M-335 601.5q-16 15.5 -16 38.5q0 24 16 40t40 16q23 0 39.5 -16t16.5 -40q0 -23 -16.5 -38.5t-39.5 -15.5q-24 0 -40 15.5zM-145.5 601.5q-15.5 15.5 -15.5 38.5q0 24 15.5 40t40.5 16q23 0 39.5 -16t16.5 -40q0 -23 -16.5 -38.5t-39.5 -15.5q-25 0 -40.5 15.5z" />
    <glyph glyph-name="dotaccentcomb" unicode="&#x307;" 
d="M-149 610.5q-16 15.5 -16 39.5q0 25 16 41t41 16q24 0 41 -16.5t17 -40.5t-17 -39.5t-41 -15.5q-25 0 -41 15.5z" />
    <glyph glyph-name="gravecomb" unicode="&#x300;" 
d="M-132 572l-101 154h90l93 -154h-82z" />
    <glyph glyph-name="acutecomb" unicode="&#x301;" 
d="M-140 726h90l-101 -154h-82z" />
    <glyph glyph-name="hungarumlautcomb" unicode="&#x30b;" 
d="M-278 727h81l-120 -155h-67zM-131 727h81l-119 -155h-68z" />
    <glyph glyph-name="caroncomb.alt" 
d="M-51 706h77l-37 -167h-68z" />
    <glyph glyph-name="circumflexcomb" unicode="&#x302;" 
d="M-261 727h108l103 -156h-83l-74 113l-73 -113h-84z" />
    <glyph glyph-name="caroncomb" unicode="&#x30c;" 
d="M-153 571h-108l-103 155h83l74 -113l74 113h83z" />
    <glyph glyph-name="brevecomb" unicode="&#x306;" 
d="M-317 608q-37 40 -41 119h67q4 -54 23.5 -79t63.5 -25t63.5 24.5t24.5 79.5h66q-4 -79 -40.5 -119t-113.5 -40q-76 0 -113 40z" />
    <glyph glyph-name="ringcomb" unicode="&#x30a;" 
d="M-223 567.5q-25 13.5 -39 37.5t-14 56t14 56t39 37t59 13t60 -13.5t40 -37.5t14 -55q0 -32 -14 -56t-40 -37.5t-60 -13.5t-59 13.5zM-121 619q16 16 16 42q0 25 -16.5 41t-42.5 16t-42 -15.5t-16 -41.5t16 -42t42 -16q27 0 43 16z" />
    <glyph glyph-name="tildecomb" unicode="&#x303;" 
d="M-187.5 580.5q-18.5 11.5 -39.5 39.5q-2 3 -13 17.5t-22 21.5t-23 7q-22 0 -31.5 -23t-11.5 -71h-57q2 80 23.5 118.5t68.5 38.5q26 0 44.5 -11.5t39.5 -40.5q3 -4 15 -18t22.5 -20.5t21.5 -6.5q23 0 32 22t11 73h57q-2 -81 -23.5 -119.5t-68.5 -38.5q-27 0 -45.5 11.5z
" />
    <glyph glyph-name="macroncomb" unicode="&#x304;" 
d="M-333 670h283v-61h-283v61z" />
    <glyph glyph-name="commaturnedabovecomb" unicode="&#x312;" 
d="M-83 572h-89l42 147h80z" />
    <glyph glyph-name="commaaccent" unicode="&#x326;" 
d="M-139 -53h89l-42 -148h-80z" />
    <glyph glyph-name="cedillacomb" unicode="&#x327;" 
d="M-76 -71.5q26 -22.5 26 -59.5q0 -45 -32 -67t-92 -22q-48 0 -80 14l10 48q31 -11 64 -11q64 0 64 40q0 19 -16 29t-50 10h-52l26 95h64l-15 -54h11q46 0 72 -22.5z" />
    <glyph glyph-name="ogonekcomb" unicode="&#x328;" 
d="M-189 -189.5q-28 22.5 -28 63.5q0 37 24 67.5t73 65.5l60 -7q-45 -38 -64.5 -62t-19.5 -51q0 -21 12.5 -31.5t33.5 -10.5q24 0 48 9v-55q-28 -11 -64 -11q-47 0 -75 22.5z" />
    <glyph glyph-name="uni0335" unicode="&#x335;" 
d="M-353 356h303v-60h-303v60z" />
    <glyph glyph-name="uni0336" unicode="&#x336;" 
d="M-376 660h376v-60h-376v60z" />
    <glyph glyph-name="uni0337" unicode="&#x337;" 
d="M-107 424l107 76v-78l-107 -78v80zM-234 351l107 74v-78l-107 -74v78z" />
    <glyph glyph-name="uni0338" unicode="&#x338;" 
d="M-416 112h2l255 310l2 3l55 62h62l-96 -112h-2l-255 -309l-2 -3l-54 -63h-63z" />
    <glyph glyph-name="acute" unicode="&#xb4;" horiz-adv-x="283" 
d="M143 726h90l-101 -154h-82z" />
    <glyph glyph-name="breve" unicode="&#x2d8;" horiz-adv-x="408" 
d="M91 608q-37 40 -41 119h67q4 -54 23.5 -79t63.5 -25t63.5 24.5t24.5 79.5h66q-4 -79 -40.5 -119t-113.5 -40q-76 0 -113 40z" />
    <glyph glyph-name="caron" unicode="&#x2c7;" horiz-adv-x="414" 
d="M261 571h-108l-103 155h83l74 -113l74 113h83z" />
    <glyph glyph-name="cedilla" unicode="&#xb8;" horiz-adv-x="304" 
d="M228 -71.5q26 -22.5 26 -59.5q0 -45 -32 -67t-92 -22q-48 0 -80 14l10 48q31 -11 64 -11q64 0 64 40q0 19 -16 29t-50 10h-52l26 95h64l-15 -54h11q46 0 72 -22.5z" />
    <glyph glyph-name="circumflex" unicode="&#x2c6;" horiz-adv-x="414" 
d="M153 727h108l103 -156h-83l-74 113l-73 -113h-84z" />
    </font>
</defs>
</svg>
