<?xml version="1.0" standalone="no"?>
<!DOCTYPE svg PUBLIC "-//W3C//DTD SVG 1.1//EN" "http://www.w3.org/Graphics/SVG/1.1/DTD/svg11.dtd" >
<svg xmlns="http://www.w3.org/2000/svg" xmlns:xlink="http://www.w3.org/1999/xlink" version="1.1">
<metadata>
Created by FontForge 20201107 at Tue Apr 24 16:42:37 2018
 By Jimmy Wärting
Copyright (c) 2018 Monotype Imaging Inc. All rights reserved.
</metadata>
<defs>
<font id="NeuePlakText-Bold" horiz-adv-x="0" >
  <font-face 
    font-family="Neue Plak Text"
    font-weight="700"
    font-stretch="normal"
    units-per-em="1000"
    panose-1="2 11 8 4 3 2 2 2 2 4"
    ascent="800"
    descent="-200"
    x-height="496"
    cap-height="706"
    bbox="-786 -249 1101 1183"
    underline-thickness="50"
    underline-position="-100"
    unicode-range="U+000D-FEFF"
  />
<missing-glyph horiz-adv-x="699" 
d="M67 706h565v-706h-565v706zM481 127v452h-263v-452h263z" />
    <glyph glyph-name=".notdef" horiz-adv-x="699" 
d="M67 706h565v-706h-565v706zM481 127v452h-263v-452h263z" />
    <glyph glyph-name="NULL" 
 />
    <glyph glyph-name="NULL" 
 />
    <glyph glyph-name="CR" unicode="&#xd;" horiz-adv-x="184" 
 />
    <glyph glyph-name="space" unicode=" " horiz-adv-x="184" 
 />
    <glyph glyph-name="exclam" unicode="!" horiz-adv-x="313" 
d="M80 706h153l-21 -488h-112zM110 -6q-20 11 -31 31t-11 45t11 45t31 31t46 11t46 -11t31.5 -31t11.5 -45t-11.5 -45t-31.5 -31t-46 -11t-46 11z" />
    <glyph glyph-name="quotedbl" unicode="&#x22;" horiz-adv-x="520" 
d="M87 706h139l-18 -282h-102zM294 706h139l-18 -282h-102z" />
    <glyph glyph-name="numbersign" unicode="#" horiz-adv-x="707" 
d="M568 425l-24 -144h109l-20 -117h-108l-30 -181h-124l29 181h-143l-29 -181h-124l29 181h-107l20 117h106l24 144h-107l20 117h106l29 181h124l-29 -181h143l29 181h126l-30 -181h109l-19 -117h-109zM443 425h-143l-24 -144h143z" />
    <glyph glyph-name="dollar" unicode="$" horiz-adv-x="626" 
d="M561.5 94.5q-28.5 -48.5 -84.5 -77.5t-136 -33v-76h-63v76q-123 8 -183 71.5t-60 164.5h158q0 -106 89 -122v207l-46 13q-62 19 -102 42.5t-62 60.5t-22 92q0 57 27 102.5t78.5 73.5t123.5 33v76h62v-76q112 -7 168.5 -67t56.5 -158h-146q0 46 -20 75.5t-63 38.5v-184
l46 -13q70 -21 114 -46t68.5 -64t24.5 -98q0 -63 -28.5 -111.5zM215.5 478q22.5 -20 66.5 -35v170q-41 -5 -65 -26t-24 -55t22.5 -54zM410 124.5q25 24.5 25 62.5q0 39 -25 62t-73 39v-192q48 4 73 28.5z" />
    <glyph glyph-name="percent" unicode="%" horiz-adv-x="771" 
d="M73 436q-35 43 -35 118q0 73 35 116.5t111 43.5q77 0 111 -44t34 -116q0 -75 -34.5 -118t-110.5 -43t-111 43zM573 706h101l-475 -706h-102zM228 491.5q11 20.5 11 62.5q0 43 -11.5 62.5t-43.5 19.5q-23 0 -35 -10t-16 -27.5t-4 -44.5q0 -28 4 -45.5t16 -27.5t35 -10
q33 0 44 20.5zM477 35.5q-35 43.5 -35 118.5q0 73 35 116.5t111 43.5q77 0 111 -44t34 -116q0 -75 -34.5 -118.5t-110.5 -43.5t-111 43.5zM632 91.5q11 20.5 11 62.5q0 43 -11.5 62.5t-43.5 19.5q-23 0 -35 -10t-16 -27.5t-4 -44.5q0 -28 4 -45.5t16 -27.5t35 -10
q33 0 44 20.5z" />
    <glyph glyph-name="ampersand" unicode="&#x26;" horiz-adv-x="667" 
d="M634 0q-98 0 -169 46q-76 -59 -191 -59q-78 0 -131 24.5t-79 67t-26 96.5q0 69 41 120t113 96q-34 55 -49 94.5t-15 77.5q0 74 50.5 117t153.5 43q93 0 147 -37t54 -113q0 -42 -24 -77t-59 -62t-92 -62l106 -151q26 46 58 121l104 -42q-38 -98 -77 -158q39 -20 85 -20
v-122zM267.5 518q10.5 -26 33.5 -61q50 31 76.5 59.5t26.5 62.5q0 27 -17.5 43t-51.5 16q-37 0 -57.5 -18.5t-20.5 -51.5q0 -24 10.5 -50zM214.5 120q29.5 -25 79.5 -25t90 28l-11 15l-119 165q-33 -28 -51 -56t-18 -61q0 -41 29.5 -66z" />
    <glyph glyph-name="quotesingle" unicode="'" horiz-adv-x="313" 
d="M87 706h139l-18 -282h-102z" />
    <glyph glyph-name="parenleft" unicode="(" horiz-adv-x="416" 
d="M143 47q-34 122 -34 272q0 144 34 259.5t102 236.5h125q-68 -117 -103.5 -237t-35.5 -259q0 -147 35.5 -273t103.5 -247h-125q-68 126 -102 248z" />
    <glyph glyph-name="parenright" unicode=")" horiz-adv-x="416" 
d="M46 -201q68 121 103.5 247t35.5 273q0 139 -35.5 259t-103.5 237h125q68 -121 102 -236.5t34 -259.5q0 -150 -34 -272t-102 -248h-125z" />
    <glyph glyph-name="asterisk" unicode="*" horiz-adv-x="378" 
d="M59 451l82 83l-115 19l29 90l105 -53l-18 116h94l-18 -116l104 53l30 -90l-116 -19l82 -83l-76 -55l-53 105l-54 -105z" />
    <glyph glyph-name="plus" unicode="+" horiz-adv-x="589" 
d="M533 237h-183v-186h-112v186h-183v109h183v187h112v-187h183v-109z" />
    <glyph glyph-name="comma" unicode="," horiz-adv-x="321" 
d="M115 160h132l-97 -334h-101z" />
    <glyph glyph-name="hyphen" unicode="-" horiz-adv-x="404" 
d="M55 350h293v-117h-293v117z" />
    <glyph glyph-name="period" unicode="." horiz-adv-x="313" 
d="M110 -6q-20 11 -31 31t-11 45t11 45t31 31t46 11t46 -11t31.5 -31t11.5 -45t-11.5 -45t-31.5 -31t-46 -11t-46 11z" />
    <glyph glyph-name="slash" unicode="/" horiz-adv-x="498" 
d="M332 723h136l-301 -773h-137z" />
    <glyph glyph-name="zero" unicode="0" horiz-adv-x="600" 
d="M90.5 83.5q-62.5 100.5 -62.5 269.5q0 171 62.5 270.5t209.5 99.5t209.5 -100.5t62.5 -269.5q0 -171 -62.5 -270.5t-209.5 -99.5t-209.5 100.5zM379 140q26 31 33 81t7 132q0 83 -7 133t-33 80.5t-79 30.5q-52 0 -78 -31t-33 -81t-7 -132q0 -83 7 -133t32.5 -80.5
t78.5 -30.5t79 31z" />
    <glyph glyph-name="one" unicode="1" horiz-adv-x="600" 
d="M259 575h-154l28 131h269v-706h-143v575z" />
    <glyph glyph-name="two" unicode="2" horiz-adv-x="600" 
d="M26 3l284 333q49 55 69 90.5t20 73.5q0 45 -26 72.5t-78 27.5q-63 0 -87.5 -38.5t-24.5 -101.5h-140q0 123 62 193t193 70q83 0 139.5 -28.5t84 -79.5t27.5 -117q0 -53 -18.5 -95t-65.5 -93q-71 -78 -179 -184h271v-126h-531v3z" />
    <glyph glyph-name="three" unicode="3" horiz-adv-x="600" 
d="M529 310.5q32 -43.5 32 -113.5q0 -64 -27.5 -112t-85 -75t-144.5 -27q-99 0 -157 32.5t-82.5 92.5t-24.5 148h137q0 -73 26.5 -113.5t93.5 -40.5q60 0 87.5 30.5t27.5 82.5q0 55 -35 80.5t-105 25.5h-21v98h20q66 0 98 24.5t32 70.5q0 47 -25 73.5t-78 26.5
q-57 0 -83.5 -32t-26.5 -85h-137q0 109 65.5 167.5t189.5 58.5q79 0 133 -25.5t80 -69.5t26 -100q0 -55 -28.5 -95.5t-90.5 -60.5q71 -18 103 -61.5z" />
    <glyph glyph-name="four" unicode="4" horiz-adv-x="600" 
d="M587 154h-88v-154h-143v154h-357v4l248 548h252v-431h88v-121zM356 275v381h-1l-170 -381h171z" />
    <glyph glyph-name="five" unicode="5" horiz-adv-x="600" 
d="M96.5 52.5q-61.5 69.5 -61.5 193.5h140q0 -69 26.5 -107t91.5 -38q60 0 88.5 32.5t28.5 89.5q0 76 -49.5 111.5t-152.5 35.5q-35 0 -72.5 -4t-67.5 -11l58 351h406l-27 -124h-264l-22 -126q40 10 87 10q85 0 142 -31t84 -85.5t27 -125.5t-28 -125t-85.5 -85t-144.5 -31
q-143 0 -204.5 69.5z" />
    <glyph glyph-name="six" unicode="6" horiz-adv-x="600" 
d="M476.5 434q49.5 -30 73.5 -81.5t24 -116.5q0 -74 -29.5 -131t-88 -89.5t-141.5 -32.5q-152 0 -218 100t-66 263q0 168 65.5 272.5t218.5 104.5q107 0 171 -53.5t78 -152.5h-138q-9 46 -37 70.5t-73 24.5q-80 0 -111.5 -66t-31.5 -169v-3q26 42 71.5 66t109.5 24
q73 0 122.5 -30zM378.5 117q25.5 18 37.5 47.5t12 65.5q0 58 -28.5 93.5t-85.5 35.5q-40 0 -66.5 -18t-39 -47.5t-12.5 -65.5t13 -65.5t39.5 -46.5t64.5 -17q40 0 65.5 18z" />
    <glyph glyph-name="seven" unicode="7" horiz-adv-x="600" 
d="M370 575h-323v131h535l-306 -706h-162z" />
    <glyph glyph-name="eight" unicode="8" horiz-adv-x="600" 
d="M542.5 313.5q34.5 -49.5 34.5 -115.5q0 -65 -31.5 -113.5t-93.5 -75t-152 -26.5q-91 0 -153 27t-92.5 75.5t-30.5 112.5q0 68 35 116.5t104 65.5q-58 16 -90 59t-32 98q0 57 30.5 99t89 64.5t139.5 22.5q82 0 140 -22t88.5 -64t30.5 -100t-31 -99.5t-89 -57.5
q69 -17 103.5 -66.5zM214.5 599q-28.5 -27 -28.5 -73q0 -48 30 -75t84 -27q56 0 85.5 28t29.5 74t-29 73t-86 27t-85.5 -27zM394 124q32 31 32 81q0 32 -14 58t-42.5 41.5t-69.5 15.5t-69 -15t-42 -40.5t-14 -58.5q0 -53 31.5 -83t93.5 -30t94 31z" />
    <glyph glyph-name="nine" unicode="9" horiz-adv-x="600" 
d="M503 623q66 -100 66 -263q0 -168 -65.5 -272.5t-218.5 -104.5q-107 0 -171 53.5t-78 152.5h138q9 -46 37 -70.5t73 -24.5q80 0 111.5 66t31.5 169v3q-26 -42 -71.5 -66t-109.5 -24q-73 0 -122.5 30t-73.5 81.5t-24 117.5q0 73 30 130t88 89.5t141 32.5q152 0 218 -100z
M352.5 365q26.5 18 39 47.5t12.5 65.5t-13 65.5t-39.5 46.5t-64.5 17q-40 0 -65.5 -18t-37.5 -47.5t-12 -65.5q0 -58 28.5 -93.5t85.5 -35.5q40 0 66.5 18z" />
    <glyph glyph-name="colon" unicode=":" horiz-adv-x="313" 
d="M110 -6q-20 11 -31 31t-11 45t11 45t31 31t46 11t46 -11t31.5 -31t11.5 -45t-11.5 -45t-31.5 -31t-46 -11t-46 11zM110 334q-20 11 -31 31t-11 45t11 45t31 31t46 11t46 -11t31.5 -31t11.5 -45t-11.5 -45t-31.5 -31t-46 -11t-46 11z" />
    <glyph glyph-name="semicolon" unicode=";" horiz-adv-x="352" 
d="M115 160h132l-97 -334h-101zM149 334q-20 11 -31 31t-11 45t11 45t31 31t46 11t46 -11t31.5 -31t11.5 -45t-11.5 -45t-31.5 -31t-46 -11t-46 11z" />
    <glyph glyph-name="less" unicode="&#x3c;" horiz-adv-x="589" 
d="M533 392l-373 -101l373 -101v-112l-477 137v153l477 136v-112z" />
    <glyph glyph-name="equal" unicode="=" horiz-adv-x="589" 
d="M55 446h478v-109h-478v109zM55 246h478v-109h-478v109z" />
    <glyph glyph-name="greater" unicode="&#x3e;" horiz-adv-x="589" 
d="M533 368v-153l-478 -137v112l374 101l-374 101v112z" />
    <glyph glyph-name="question" unicode="?" horiz-adv-x="525" 
d="M282.5 394q32.5 57 44.5 88t12 57q0 36 -19 55.5t-63 19.5q-35 0 -53.5 -12t-25 -33t-6.5 -52h-137q0 99 55 152.5t174 53.5q71 0 121.5 -21.5t76.5 -61.5t26 -96q0 -32 -12 -65.5t-43 -89t-101 -171.5h-155q73 119 105.5 176zM204 -6q-20 11 -31 31t-11 45t11 45t31 31
t46 11t46 -11t31.5 -31t11.5 -45t-11.5 -45t-31.5 -31t-46 -11t-46 11z" />
    <glyph glyph-name="at" unicode="@" horiz-adv-x="845" 
d="M635.5 642q83.5 -45 124 -124t40.5 -181q0 -128 -57.5 -202t-190.5 -74h-55v54q-21 -27 -56.5 -42.5t-80.5 -15.5q-70 0 -106 36t-36 94q0 47 20.5 77.5t67 45.5t123.5 15h64v20q0 29 -5 45t-20 24.5t-44 8.5q-38 0 -53 -16t-15 -46h-123q-2 71 48 109.5t146 38.5
q73 0 113.5 -20.5t56 -59t15.5 -98.5v-198q64 13 91.5 68.5t27.5 131.5q0 87 -33 153t-101.5 103.5t-170.5 37.5q-110 0 -179.5 -44t-100.5 -119t-31 -172q0 -159 81.5 -250.5t253.5 -91.5q40 0 83 5v-62q-39 -6 -85 -6q-139 0 -229.5 52.5t-132.5 142.5t-42 206
q0 112 40 202t126.5 143.5t218.5 53.5q123 0 206.5 -45zM494 259h-56q-49 0 -71 -13t-22 -44q0 -28 16 -42t49 -14q36 0 54 12.5t24 35t6 57.5v8z" />
    <glyph glyph-name="A" unicode="A" horiz-adv-x="680" 
d="M478 148h-275l-45 -148h-152l224 706h220l224 -706h-151zM444 261l-103 337h-2l-102 -337h207z" />
    <glyph glyph-name="B" unicode="B" horiz-adv-x="623" 
d="M556.5 309q32.5 -45 32.5 -112q0 -94 -59.5 -145.5t-176.5 -51.5h-273v706h275q70 0 117 -22.5t70 -62t23 -90.5q0 -57 -28.5 -97.5t-86.5 -57.5q74 -22 106.5 -67zM227 419h71q58 0 85 24.5t27 69.5q0 44 -28 67t-87 23h-68v-184zM397.5 129.5q32.5 25.5 32.5 76.5
q0 107 -131 107h-72v-209h68q70 0 102.5 25.5z" />
    <glyph glyph-name="C" unicode="C" horiz-adv-x="716" 
d="M186.5 32q-73.5 49 -108 132.5t-34.5 188.5t34 188.5t107.5 132.5t187.5 49q87 0 154.5 -34t106 -96.5t40.5 -145.5h-154q-2 72 -42.5 111.5t-111.5 39.5q-95 0 -131 -66t-36 -178q0 -75 14 -128.5t51 -85t103 -31.5q75 0 113.5 37.5t42.5 108.5h154q-1 -82 -41 -143.5
t-108.5 -95t-153.5 -33.5q-114 0 -187.5 49z" />
    <glyph glyph-name="D" unicode="D" horiz-adv-x="715" 
d="M80 706h262q172 0 250 -96t78 -257q0 -163 -78.5 -258t-249.5 -95h-262v706zM318 120q77 0 120.5 29.5t60 80t16.5 123.5t-17 124t-60.5 80t-119.5 29h-91v-466h91z" />
    <glyph glyph-name="E" unicode="E" horiz-adv-x="563" 
d="M80 706h430v-120h-283v-167h280v-120h-280v-179h283v-120h-430v706z" />
    <glyph glyph-name="F" unicode="F" horiz-adv-x="533" 
d="M80 706h410v-120h-263v-167h261v-120h-261v-299h-147v706z" />
    <glyph glyph-name="G" unicode="G" horiz-adv-x="720" 
d="M676 381v-51q0 -99 -30.5 -177t-98 -124t-174.5 -46q-114 0 -187.5 49t-107.5 132.5t-34 188.5q0 106 34.5 189.5t108.5 132t188 48.5q84 0 149.5 -31.5t103.5 -90t42 -137.5h-146q-6 66 -45 100t-107 34t-106 -32t-52.5 -85.5t-14.5 -127.5q0 -77 15 -130.5t54 -84
t109 -30.5q82 0 118.5 43.5t39.5 119.5h-158v110h299z" />
    <glyph glyph-name="H" unicode="H" horiz-adv-x="721" 
d="M80 706h147v-287h267v287h147v-706h-147v296h-267v-296h-147v706z" />
    <glyph glyph-name="I" unicode="I" horiz-adv-x="307" 
d="M80 706h147v-706h-147v706z" />
    <glyph glyph-name="J" unicode="J" horiz-adv-x="381" 
d="M21 1v132q18 -3 41 -3q41 0 64 11.5t33.5 37t10.5 71.5v456h147v-476q0 -80 -24 -131t-75.5 -76.5t-134.5 -25.5q-34 0 -62 4z" />
    <glyph glyph-name="K" unicode="K" horiz-adv-x="664" 
d="M478 0l-251 330v-330h-147v706h147v-269l217 269h172l-262 -317l304 -389h-180z" />
    <glyph glyph-name="L" unicode="L" horiz-adv-x="484" 
d="M80 706h147v-578h236v-128h-383v706z" />
    <glyph glyph-name="M" unicode="M" horiz-adv-x="888" 
d="M80 706h173l192 -469l193 469h170v-706h-138v474l-193 -474h-66l-193 474v-474h-138v706z" />
    <glyph glyph-name="N" unicode="N" horiz-adv-x="742" 
d="M80 706h146l294 -478v478h142v-706h-147l-293 479v-479h-142v706z" />
    <glyph glyph-name="O" unicode="O" horiz-adv-x="747" 
d="M185.5 32.5q-73.5 49.5 -107.5 133t-34 187.5q0 105 34.5 188t108 132.5t187.5 49.5t188 -49.5t107.5 -132.5t33.5 -188q0 -106 -34 -189t-107.5 -132t-187.5 -49q-115 0 -188.5 49.5zM509.5 175.5q38.5 67.5 38.5 177.5q0 111 -39 178t-135 67q-99 0 -137 -66.5
t-38 -178.5t38.5 -178.5t136.5 -66.5q97 0 135.5 67.5z" />
    <glyph glyph-name="P" unicode="P" horiz-adv-x="602" 
d="M80 706h273q120 0 174 -53.5t54 -152.5q0 -102 -56 -158t-172 -56h-126v-286h-147v706zM311 397q62 0 90.5 24.5t28.5 75.5t-28.5 74.5t-90.5 23.5h-84v-198h84z" />
    <glyph glyph-name="Q" unicode="Q" horiz-adv-x="747" 
d="M668 161q-35 -84 -108 -130l82 -123l-106 -66l-90 147q-33 -6 -72 -6q-115 0 -188.5 49.5t-107.5 133t-34 187.5q0 105 34.5 188t108 132.5t187.5 49.5t188 -49.5t107.5 -132.5t33.5 -188q0 -108 -35 -192zM237 175q38 -66 136 -67l-35 57l93 61l53 -80q64 56 64 207
q0 111 -39 178t-135 67q-99 0 -137 -66.5t-38 -178.5t38 -178z" />
    <glyph glyph-name="R" unicode="R" horiz-adv-x="649" 
d="M281 287h-54v-287h-147v706h279q121 0 175.5 -54t54.5 -149q0 -175 -153 -208l202 -295h-163zM227 393h90q65 0 93 26t28 80q0 51 -28.5 73.5t-92.5 22.5h-90v-202z" />
    <glyph glyph-name="S" unicode="S" horiz-adv-x="619" 
d="M152.5 13.5q-62.5 30.5 -91.5 83.5t-29 123h162q0 -59 26.5 -91.5t91.5 -32.5q57 0 86 25t29 67q0 33 -19.5 53.5t-57 35.5t-116.5 40q-61 19 -102 44t-62.5 62t-21.5 89q0 61 29.5 109t87 75t139.5 27q84 0 140.5 -28.5t84 -79.5t27.5 -119h-153q0 56 -23.5 87t-80.5 31
q-49 0 -75.5 -22.5t-26.5 -59.5q0 -30 19 -49t53 -31.5t109 -34.5q73 -22 117.5 -46.5t68 -63t23.5 -98.5q0 -70 -32 -120.5t-94 -78t-151 -27.5q-95 0 -157.5 30.5z" />
    <glyph glyph-name="T" unicode="T" horiz-adv-x="558" 
d="M206 586h-185v120h516v-120h-185v-586h-146v586z" />
    <glyph glyph-name="U" unicode="U" horiz-adv-x="677" 
d="M131 47q-67 64 -67 193v466h147v-456q0 -48 12 -78.5t39.5 -46.5t75.5 -16t76 16t40 46.5t12 78.5v456h147v-466q0 -129 -67.5 -193t-207.5 -64t-207 64z" />
    <glyph glyph-name="V" unicode="V" horiz-adv-x="665" 
d="M659 706l-253 -706h-146l-254 706h154l173 -526l173 526h153z" />
    <glyph glyph-name="W" unicode="W" horiz-adv-x="930" 
d="M924 706l-187 -706h-153l-118 506l-119 -506h-151l-190 706h144l123 -494l116 494h154l115 -493l122 493h144z" />
    <glyph glyph-name="X" unicode="X" horiz-adv-x="699" 
d="M261 379l-224 327h171l142 -219l144 219h170l-224 -330l253 -376h-172l-171 260l-171 -260h-173z" />
    <glyph glyph-name="Y" unicode="Y" horiz-adv-x="599" 
d="M226 303l-220 403h158l136 -260l136 260h157l-220 -403v-303h-147v303z" />
    <glyph glyph-name="Z" unicode="Z" horiz-adv-x="602" 
d="M333 583h-294v123h519l-309 -583h323v-123h-550z" />
    <glyph glyph-name="bracketleft" unicode="[" horiz-adv-x="390" 
d="M137 815h227v-106h-109v-804h109v-106h-227v1016z" />
    <glyph glyph-name="backslash" unicode="\" horiz-adv-x="498" 
d="M331 -50l-301 773h137l301 -773h-137z" />
    <glyph glyph-name="bracketright" unicode="]" horiz-adv-x="390" 
d="M26 -201v106h109v804h-109v106h227v-1016h-227z" />
    <glyph glyph-name="asciicircum" unicode="^" horiz-adv-x="516" 
d="M341 375l-83 223l-83 -223h-137l130 331h179l131 -331h-137z" />
    <glyph glyph-name="underscore" unicode="_" horiz-adv-x="389" 
d="M0 -68h389v-118h-389v118z" />
    <glyph glyph-name="grave" unicode="`" horiz-adv-x="326" 
d="M153 571l-103 156h137l89 -156h-123z" />
    <glyph glyph-name="a" unicode="a" horiz-adv-x="568" 
d="M414 484q50 -25 71 -73t21 -121v-290h-140v59q-50 -72 -158 -72q-86 0 -130 41t-44 112q0 60 29 95t84 50t138 15h81v11q0 34 -7 55.5t-25.5 33t-52.5 11.5q-87 0 -87 -73h-142q0 82 58.5 126.5t168.5 44.5q85 0 135 -25zM343 123q23 32 23 89v4h-71q-59 0 -86 -14
t-27 -49q0 -62 79 -62q59 0 82 32z" />
    <glyph glyph-name="b" unicode="b" horiz-adv-x="598" 
d="M470 473.5q47 -35.5 69 -94.5t22 -132q0 -72 -22 -130.5t-69 -93.5t-119 -35q-100 0 -150 76v-64h-134v706h137v-269q50 72 147 72q72 0 119 -35.5zM391.5 142.5q23.5 38.5 23.5 104.5q0 68 -24 107t-84 39q-51 0 -77.5 -33t-26.5 -96v-32q0 -62 26.5 -95t77.5 -33
q61 0 84.5 38.5z" />
    <glyph glyph-name="c" unicode="c" horiz-adv-x="560" 
d="M146 22q-56 34 -82.5 92.5t-26.5 132.5q0 75 27 134t83 93.5t138 34.5q68 0 121 -23.5t83.5 -68.5t33.5 -108h-151q-2 40 -25 62t-62 22q-55 0 -78.5 -40t-23.5 -106q0 -143 102 -143q40 0 62.5 23.5t24.5 60.5h151q-2 -63 -33.5 -108.5t-84.5 -68.5t-120 -23
q-83 0 -139 34z" />
    <glyph glyph-name="d" unicode="d" horiz-adv-x="598" 
d="M531 706v-706h-134v64q-50 -76 -150 -76q-72 0 -119 35t-69 93.5t-22 130.5q0 73 22 132t69 94.5t119 35.5q97 0 147 -71v268h137zM395 264q0 63 -26 96t-77 33q-60 0 -84.5 -39t-24.5 -107q0 -66 24 -104.5t85 -38.5q51 0 77 32.5t26 95.5v32z" />
    <glyph glyph-name="e" unicode="e" horiz-adv-x="573" 
d="M354.5 108.5q24.5 15.5 33.5 44.5h142q-8 -52 -40.5 -89.5t-83 -56.5t-111.5 -19q-88 0 -145.5 33.5t-85 92t-27.5 135.5q0 75 27 133.5t82.5 92.5t138.5 34q82 0 140.5 -34t84.5 -96q15 -34 20 -69.5t5 -94.5h-355q3 -60 27.5 -91t84.5 -31q38 0 62.5 15.5zM213 380
q-25 -27 -31 -79h209q-6 52 -30 79t-74 27q-49 0 -74 -27z" />
    <glyph glyph-name="f" unicode="f" horiz-adv-x="348" 
d="M80 386h-62v110h62v56q0 60 18.5 97t58 54.5t103.5 17.5q37 0 70 -7v-112q-19 6 -45 6q-34 0 -51 -18t-17 -52v-42h110v-110h-110v-386h-137v386z" />
    <glyph glyph-name="g" unicode="g" horiz-adv-x="598" 
d="M531 496v-476q0 -234 -242 -234q-101 0 -165 40t-75 118h146q6 -26 29.5 -40t62.5 -14q59 0 84.5 32t25.5 82v70q-51 -81 -156 -81q-70 0 -116 35t-67 93.5t-21 130.5q0 73 21.5 131t67 92t115.5 34q105 0 156 -81v68h134zM395 265q0 63 -27 95.5t-79 32.5
q-60 0 -83 -38.5t-23 -103.5q0 -67 23.5 -106.5t83.5 -39.5q52 0 78.5 32.5t26.5 94.5v33z" />
    <glyph glyph-name="h" unicode="h" horiz-adv-x="583" 
d="M476.5 460.5q43.5 -48.5 43.5 -140.5v-320h-138v290q0 54 -20.5 78.5t-64.5 24.5q-45 0 -69 -26.5t-24 -79.5v-287h-137v706h137v-273q49 76 148 76q81 0 124.5 -48.5z" />
    <glyph glyph-name="i" unicode="i" horiz-adv-x="271" 
d="M96 586q-18 10 -28 27t-10 38t10 38.5t28 27.5t40 10t39.5 -10t28 -27.5t10.5 -38.5t-10.5 -38t-28 -27t-39.5 -10t-40 10zM67 496h137v-496h-137v496z" />
    <glyph glyph-name="j" unicode="j" horiz-adv-x="271" 
d="M96 586q-18 10 -28 27t-10 38t10 38.5t28 27.5t40 10q21 0 39 -10t28.5 -27.5t10.5 -38.5t-10.5 -38t-28.5 -27t-39 -10q-22 0 -40 10zM-17 -201v120q12 -2 32 -2q27 0 39.5 13t12.5 42v524h137v-540q0 -57 -16.5 -92t-51.5 -51.5t-91 -16.5q-43 0 -62 3z" />
    <glyph glyph-name="k" unicode="k" horiz-adv-x="535" 
d="M369 0l-165 219v-219h-137v706h137v-382l147 172h173l-199 -223l222 -273h-178z" />
    <glyph glyph-name="l" unicode="l" horiz-adv-x="271" 
d="M67 706h137v-706h-137v706z" />
    <glyph glyph-name="m" unicode="m" horiz-adv-x="878" 
d="M774 460q41 -49 41 -143v-317h-138v288q0 54 -19.5 79.5t-60.5 25.5q-43 0 -65 -27.5t-22 -80.5v-285h-138v288q0 54 -19.5 79.5t-61.5 25.5t-64.5 -27.5t-22.5 -80.5v-285h-137v496h137v-60q23 35 60 54t87 19q113 0 145 -86q26 44 64.5 65t92.5 21q80 0 121 -49z" />
    <glyph glyph-name="n" unicode="n" horiz-adv-x="583" 
d="M476.5 460.5q43.5 -48.5 43.5 -140.5v-320h-138v290q0 54 -20.5 78.5t-64.5 24.5q-45 0 -69 -26.5t-24 -79.5v-287h-137v496h137v-63q49 76 148 76q81 0 124.5 -48.5z" />
    <glyph glyph-name="o" unicode="o" horiz-adv-x="577" 
d="M148 22.5q-57 35.5 -84 94.5t-27 132q0 74 27.5 132.5t84.5 93t140 34.5q85 0 141.5 -35t83 -93.5t26.5 -131.5q0 -74 -27 -133.5t-83.5 -94t-140.5 -34.5t-141 35.5zM372 143q22 39 22 106q0 68 -22.5 106t-82.5 38t-83 -38.5t-23 -105.5q0 -69 23.5 -107t82.5 -38
q61 0 83 39z" />
    <glyph glyph-name="p" unicode="p" horiz-adv-x="598" 
d="M470 474q47 -35 69 -94t22 -131q0 -73 -22 -132t-69 -94t-119 -35q-98 0 -147 71v-259h-137v696h134v-63q48 76 150 76q72 0 119 -35zM391.5 144q23.5 39 23.5 105q0 67 -24.5 105.5t-83.5 38.5q-51 0 -77.5 -33t-26.5 -96v-30q0 -62 26.5 -95.5t77.5 -33.5q61 0 84.5 39
z" />
    <glyph glyph-name="q" unicode="q" horiz-adv-x="598" 
d="M531 496v-696h-137v259q-49 -71 -147 -71q-72 0 -119 35t-69 94t-22 132q0 72 22 131t69 94t119 35q102 0 150 -76v63h134zM369 138q26 33 26 96v30q0 63 -26 96t-77 33q-60 0 -84.5 -38.5t-24.5 -105.5q0 -66 24 -105t85 -39q51 0 77 33z" />
    <glyph glyph-name="r" unicode="r" horiz-adv-x="390" 
d="M375 497v-122q-10 2 -22.5 3.5t-24.5 1.5q-61 0 -92.5 -38.5t-31.5 -111.5v-230h-137v496h136v-65q40 72 123 72q28 0 49 -6z" />
    <glyph glyph-name="s" unicode="s" horiz-adv-x="495" 
d="M87.5 32q-52.5 48 -52.5 131h136q0 -39 17 -60.5t59 -21.5q35 0 51 14.5t16 38.5q0 21 -13.5 34t-34 21t-57.5 18q-51 14 -84.5 32t-52.5 46.5t-19 72.5q0 72 50 111.5t143 39.5q96 0 145 -41.5t49 -116.5h-132q0 70 -64 70q-29 0 -44 -12.5t-15 -31.5q0 -20 12 -32
t33 -20t66 -21q57 -16 92 -34.5t53.5 -47.5t18.5 -74q0 -80 -56 -122t-156 -42q-108 0 -160.5 48z" />
    <glyph glyph-name="t" unicode="t" horiz-adv-x="368" 
d="M148 7q-34 16 -50.5 51.5t-16.5 95.5v232h-67v110h67v117h138v-117h119v-110h-119v-210q0 -38 15.5 -55t49.5 -17q21 0 52 7v-109q-22 -5 -48 -8t-50 -3q-56 0 -90 16z" />
    <glyph glyph-name="u" unicode="u" horiz-adv-x="583" 
d="M516 496v-496h-138v61q-49 -74 -147 -74q-82 0 -125 48.5t-43 140.5v320h137v-290q0 -54 21 -78.5t65 -24.5q45 0 68.5 26.5t23.5 79.5v287h138z" />
    <glyph glyph-name="v" unicode="v" horiz-adv-x="541" 
d="M13 496h150l108 -336l108 336h150l-178 -496h-160z" />
    <glyph glyph-name="w" unicode="w" horiz-adv-x="808" 
d="M796 496l-172 -496h-132l-88 314l-88 -314h-133l-170 496h147l90 -318l95 318h116l95 -316l91 316h149z" />
    <glyph glyph-name="x" unicode="x" horiz-adv-x="566" 
d="M199 255l-183 241h165l102 -150l103 150h163l-181 -241l187 -255h-161l-111 160l-111 -160h-161z" />
    <glyph glyph-name="y" unicode="y" horiz-adv-x="546" 
d="M533 496l-275 -696h-140l80 201l-185 495h151l109 -345l112 345h148z" />
    <glyph glyph-name="z" unicode="z" horiz-adv-x="474" 
d="M228 111h228v-111h-447l245 386h-222v110h432z" />
    <glyph glyph-name="braceleft" unicode="{" horiz-adv-x="389" 
d="M235.5 346.5q-20.5 -28.5 -68.5 -35.5q48 -7 68.5 -35.5t20.5 -87.5v-197q0 -33 7.5 -52.5t28 -29.5t57.5 -10h14v-100h-61q-78 0 -118 44.5t-40 119.5v198q1 36 -7.5 55.5t-28.5 28t-58 8.5v115q37 0 57.5 8.5t29 28.5t7.5 55v191q0 75 40 119.5t118 44.5h61v-100h-14
q-37 0 -57.5 -10t-28 -29.5t-7.5 -52.5v-188q0 -60 -20.5 -88.5z" />
    <glyph glyph-name="bar" unicode="|" horiz-adv-x="433" 
d="M145 756h143v-957h-143v957z" />
    <glyph glyph-name="braceright" unicode="}" horiz-adv-x="389" 
d="M253 404.5q8 -19.5 28.5 -28t57.5 -8.5v-115q-37 0 -57 -8.5t-28.5 -28t-8.5 -55.5v-198q0 -75 -40 -119.5t-118 -44.5h-61v100h14q37 0 57.5 10t28 29.5t7.5 52.5v197q0 59 21 87.5t68 35.5q-47 7 -68 35.5t-21 88.5v188q0 33 -7.5 52.5t-28 29.5t-57.5 10h-14v100h61
q78 0 118 -44.5t40 -119.5v-191q0 -36 8 -55.5z" />
    <glyph glyph-name="asciitilde" unicode="~" horiz-adv-x="589" 
d="M354.5 193.5q-18.5 6.5 -33 15.5t-35.5 25q-24 20 -38 28t-31 8q-23 0 -34 -20.5t-14 -60.5h-101q5 103 36.5 155t95.5 52q21 0 39.5 -7t36 -18.5t32.5 -22.5q24 -20 37.5 -28.5t29.5 -8.5q24 0 35.5 21t13.5 61h101q-6 -102 -37 -154t-94 -52q-21 0 -39.5 6.5z" />
    <glyph glyph-name="Aacute" unicode="&#xc1;" horiz-adv-x="680" 
d="M478 148h-275l-45 -148h-152l224 706h220l224 -706h-151zM444 261l-103 337h-2l-102 -337h207zM351 911h144l-114 -137h-130z" />
    <glyph glyph-name="Abreve" unicode="&#x102;" horiz-adv-x="680" 
d="M478 148h-275l-45 -148h-152l224 706h220l224 -706h-151zM444 261l-103 337h-2l-102 -337h207zM219 803.5q-43 36.5 -48 107.5h97q4 -35 22 -51t51 -16q34 0 51.5 15.5t25.5 51.5h91q-4 -71 -46.5 -107.5t-121.5 -36.5t-122 36.5z" />
    <glyph glyph-name="Acircumflex" unicode="&#xc2;" horiz-adv-x="680" 
d="M478 148h-275l-45 -148h-152l224 706h220l224 -706h-151zM444 261l-103 337h-2l-102 -337h207zM261 911h158l107 -137h-126l-61 75l-60 -75h-126z" />
    <glyph glyph-name="Adieresis" unicode="&#xc4;" horiz-adv-x="680" 
d="M478 148h-275l-45 -148h-152l224 706h220l224 -706h-151zM444 261l-103 337h-2l-102 -337h207zM194.5 786q-16.5 9 -26 25t-9.5 35q0 31 20.5 51t52.5 20q20 0 36.5 -9t26 -25.5t9.5 -36.5q0 -19 -9.5 -35t-26 -25t-36.5 -9q-21 0 -37.5 9zM412.5 786q-16.5 9 -26 25
t-9.5 35q0 31 20.5 51t51.5 20q20 0 37 -9t26.5 -25.5t9.5 -36.5q0 -19 -9.5 -35t-26.5 -25t-37 -9t-36.5 9z" />
    <glyph glyph-name="Agrave" unicode="&#xc0;" horiz-adv-x="680" 
d="M478 148h-275l-45 -148h-152l224 706h220l224 -706h-151zM444 261l-103 337h-2l-102 -337h207zM298 774l-113 137h143l101 -137h-131z" />
    <glyph glyph-name="Amacron" unicode="&#x100;" horiz-adv-x="680" 
d="M478 148h-275l-45 -148h-152l224 706h220l224 -706h-151zM444 261l-103 337h-2l-102 -337h207zM186 888h308v-90h-308v90z" />
    <glyph glyph-name="Aogonek" unicode="&#x104;" horiz-adv-x="680" 
d="M678 -124v-77q-31 -12 -75 -12q-53 0 -84.5 23.5t-31.5 68.5q0 37 23.5 66t66.5 55h-54l-45 148h-275l-45 -148h-152l224 706h220l224 -706q-39 -30 -58 -51.5t-19 -44.5q0 -17 11 -26t28 -9q24 0 42 7zM444 261l-103 337h-2l-102 -337h207z" />
    <glyph glyph-name="Aring" unicode="&#xc5;" horiz-adv-x="680" 
d="M478 148h-275l-45 -148h-152l224 706h220l224 -706h-151zM444 261l-103 337h-2l-102 -337h207zM272 755q-29 15 -45 42t-16 62q0 36 16 63t45 41.5t68 14.5t68.5 -15t45.5 -42t16 -62t-16 -62t-45.5 -42t-68.5 -15t-68 15zM378 822.5q14 13.5 14 36.5t-14 37t-38 14
q-23 0 -37 -14t-14 -37t14 -36.5t37 -13.5q24 0 38 13.5z" />
    <glyph glyph-name="Aringacute" unicode="&#x1fa;" horiz-adv-x="680" 
d="M478 148h-275l-45 -148h-152l224 706h220l224 -706h-151zM444 261l-103 337h-2l-102 -337h207zM272 755q-29 15 -45 42t-16 62q0 36 16 63t45 41.5t68 14.5t68.5 -15t45.5 -42t16 -62t-16 -62t-45.5 -42t-68.5 -15t-68 15zM378 822.5q14 13.5 14 36.5t-14 37t-38 14
q-23 0 -37 -14t-14 -37t14 -36.5t37 -13.5q24 0 38 13.5zM351 1183h144l-114 -137h-130z" />
    <glyph glyph-name="Atilde" unicode="&#xc3;" horiz-adv-x="680" 
d="M478 148h-275l-45 -148h-152l224 706h220l224 -706h-151zM444 261l-103 337h-2l-102 -337h207zM380.5 777.5q-20.5 7.5 -41.5 20.5q-28 16 -41 22t-28 6q-20 0 -30 -14.5t-13 -40.5h-75q3 70 29 106t78 36q27 0 46.5 -8t42.5 -24q17 -12 30 -18t29 -6q20 0 29.5 13.5
t15.5 41.5h77q-2 -69 -27.5 -105.5t-76.5 -36.5q-24 0 -44.5 7.5z" />
    <glyph glyph-name="AE" unicode="&#xc6;" horiz-adv-x="830" 
d="M512 586l20 -168h241v-119h-227l22 -179h208v-120h-343l-16 150h-205l-53 -150h-153l264 706h506v-120h-264zM405 262l-35 329h-2l-116 -329h153z" />
    <glyph glyph-name="AEacute" unicode="&#x1fc;" horiz-adv-x="830" 
d="M512 586l20 -168h241v-119h-227l22 -179h208v-120h-343l-16 150h-205l-53 -150h-153l264 706h506v-120h-264zM405 262l-35 329h-2l-116 -329h153zM473 911h144l-114 -137h-130z" />
    <glyph glyph-name="Cacute" unicode="&#x106;" horiz-adv-x="716" 
d="M186.5 32q-73.5 49 -108 132.5t-34.5 188.5t34 188.5t107.5 132.5t187.5 49q87 0 154.5 -34t106 -96.5t40.5 -145.5h-154q-2 72 -42.5 111.5t-111.5 39.5q-95 0 -131 -66t-36 -178q0 -75 14 -128.5t51 -85t103 -31.5q75 0 113.5 37.5t42.5 108.5h154q-1 -82 -41 -143.5
t-108.5 -95t-153.5 -33.5q-114 0 -187.5 49zM384 911h144l-114 -137h-130z" />
    <glyph glyph-name="Ccaron" unicode="&#x10c;" horiz-adv-x="716" 
d="M186.5 32q-73.5 49 -108 132.5t-34.5 188.5t34 188.5t107.5 132.5t187.5 49q87 0 154.5 -34t106 -96.5t40.5 -145.5h-154q-2 72 -42.5 111.5t-111.5 39.5q-95 0 -131 -66t-36 -178q0 -75 14 -128.5t51 -85t103 -31.5q75 0 113.5 37.5t42.5 108.5h154q-1 -82 -41 -143.5
t-108.5 -95t-153.5 -33.5q-114 0 -187.5 49zM312 911l60 -75l61 75h126l-107 -137h-158l-108 137h126z" />
    <glyph glyph-name="Ccedilla" unicode="&#xc7;" horiz-adv-x="716" 
d="M641.5 120.5q-34.5 -58.5 -94 -93.5t-135.5 -42l-7 -24h8q46 0 72.5 -25t26.5 -65q0 -101 -144 -101q-53 0 -96 16l15 67q32 -13 70 -13q58 0 58 34q0 17 -14.5 25.5t-46.5 8.5h-56l19 78q-94 13 -155 64t-89.5 129t-28.5 174q0 105 34 188.5t107.5 132.5t187.5 49
q87 0 154.5 -34t106 -96.5t40.5 -145.5h-154q-2 72 -42.5 111.5t-111.5 39.5q-95 0 -131 -66t-36 -178q0 -75 14 -128.5t51 -85t103 -31.5q75 0 113.5 37.5t42.5 108.5h154q-1 -76 -35.5 -134.5z" />
    <glyph glyph-name="Ccircumflex" unicode="&#x108;" horiz-adv-x="716" 
d="M186.5 32q-73.5 49 -108 132.5t-34.5 188.5t34 188.5t107.5 132.5t187.5 49q87 0 154.5 -34t106 -96.5t40.5 -145.5h-154q-2 72 -42.5 111.5t-111.5 39.5q-95 0 -131 -66t-36 -178q0 -75 14 -128.5t51 -85t103 -31.5q75 0 113.5 37.5t42.5 108.5h154q-1 -82 -41 -143.5
t-108.5 -95t-153.5 -33.5q-114 0 -187.5 49zM294 911h158l107 -137h-126l-61 75l-60 -75h-126z" />
    <glyph glyph-name="Cdotaccent" unicode="&#x10a;" horiz-adv-x="716" 
d="M186.5 32q-73.5 49 -108 132.5t-34.5 188.5t34 188.5t107.5 132.5t187.5 49q87 0 154.5 -34t106 -96.5t40.5 -145.5h-154q-2 72 -42.5 111.5t-111.5 39.5q-95 0 -131 -66t-36 -178q0 -75 14 -128.5t51 -85t103 -31.5q75 0 113.5 37.5t42.5 108.5h154q-1 -82 -41 -143.5
t-108.5 -95t-153.5 -33.5q-114 0 -187.5 49zM318.5 797.5q-21.5 20.5 -21.5 52.5t21.5 52.5t55.5 20.5q32 0 53.5 -21t21.5 -52t-21.5 -52t-53.5 -21q-34 0 -55.5 20.5z" />
    <glyph glyph-name="Eth" unicode="&#xd0;" horiz-adv-x="715" 
d="M592 610q78 -96 78 -257q0 -163 -78.5 -258t-249.5 -95h-262v311h-56v94h56v301h262q172 0 250 -96zM438.5 149.5q43.5 29.5 60 80t16.5 123.5t-17 124t-60.5 80t-119.5 29h-91v-181h151v-94h-151v-191h91q77 0 120.5 29.5z" />
    <glyph glyph-name="Dcaron" unicode="&#x10e;" horiz-adv-x="715" 
d="M80 706h262q172 0 250 -96t78 -257q0 -163 -78.5 -258t-249.5 -95h-262v706zM318 120q77 0 120.5 29.5t60 80t16.5 123.5t-17 124t-60.5 80t-119.5 29h-91v-466h91zM287 911l60 -75l61 75h126l-107 -137h-158l-108 137h126z" />
    <glyph glyph-name="Dcroat" unicode="&#x110;" horiz-adv-x="715" 
d="M592 610q78 -96 78 -257q0 -163 -78.5 -258t-249.5 -95h-262v311h-56v94h56v301h262q172 0 250 -96zM438.5 149.5q43.5 29.5 60 80t16.5 123.5t-17 124t-60.5 80t-119.5 29h-91v-181h151v-94h-151v-191h91q77 0 120.5 29.5z" />
    <glyph glyph-name="Eacute" unicode="&#xc9;" horiz-adv-x="563" 
d="M80 706h430v-120h-283v-167h280v-120h-280v-179h283v-120h-430v706zM308 911h144l-114 -137h-130z" />
    <glyph glyph-name="Ebreve" unicode="&#x114;" horiz-adv-x="563" 
d="M80 706h430v-120h-283v-167h280v-120h-280v-179h283v-120h-430v706zM176 803.5q-43 36.5 -48 107.5h97q4 -35 22 -51t51 -16q34 0 51.5 15.5t25.5 51.5h91q-4 -71 -46.5 -107.5t-121.5 -36.5t-122 36.5z" />
    <glyph glyph-name="Ecaron" unicode="&#x11a;" horiz-adv-x="563" 
d="M80 706h430v-120h-283v-167h280v-120h-280v-179h283v-120h-430v706zM236 911l60 -75l61 75h126l-107 -137h-158l-108 137h126z" />
    <glyph glyph-name="Ecircumflex" unicode="&#xca;" horiz-adv-x="563" 
d="M80 706h430v-120h-283v-167h280v-120h-280v-179h283v-120h-430v706zM218 911h158l107 -137h-126l-61 75l-60 -75h-126z" />
    <glyph glyph-name="Edieresis" unicode="&#xcb;" horiz-adv-x="563" 
d="M80 706h430v-120h-283v-167h280v-120h-280v-179h283v-120h-430v706zM151.5 786q-16.5 9 -26 25t-9.5 35q0 31 20.5 51t52.5 20q20 0 36.5 -9t26 -25.5t9.5 -36.5q0 -19 -9.5 -35t-26 -25t-36.5 -9q-21 0 -37.5 9zM369.5 786q-16.5 9 -26 25t-9.5 35q0 31 20.5 51t51.5 20
q20 0 37 -9t26.5 -25.5t9.5 -36.5q0 -19 -9.5 -35t-26.5 -25t-37 -9t-36.5 9z" />
    <glyph glyph-name="Edotaccent" unicode="&#x116;" horiz-adv-x="563" 
d="M80 706h430v-120h-283v-167h280v-120h-280v-179h283v-120h-430v706zM242.5 797.5q-21.5 20.5 -21.5 52.5t21.5 52.5t55.5 20.5q32 0 53.5 -21t21.5 -52t-21.5 -52t-53.5 -21q-34 0 -55.5 20.5z" />
    <glyph glyph-name="Egrave" unicode="&#xc8;" horiz-adv-x="563" 
d="M80 706h430v-120h-283v-167h280v-120h-280v-179h283v-120h-430v706zM255 774l-113 137h143l101 -137h-131z" />
    <glyph glyph-name="Emacron" unicode="&#x112;" horiz-adv-x="563" 
d="M80 706h430v-120h-283v-167h280v-120h-280v-179h283v-120h-430v706zM143 888h308v-90h-308v90z" />
    <glyph glyph-name="Eogonek" unicode="&#x118;" horiz-adv-x="563" 
d="M513 -124v-77q-29 -12 -74 -12q-54 0 -85.5 23.5t-31.5 68.5q0 37 24 66t67 55h-333v706h430v-120h-283v-167h280v-120h-280v-179h283v-120q-39 -29 -58 -50.5t-19 -45.5q0 -17 11 -26t28 -9q23 0 41 7z" />
    <glyph glyph-name="Gbreve" unicode="&#x11e;" horiz-adv-x="720" 
d="M676 381v-51q0 -99 -30.5 -177t-98 -124t-174.5 -46q-114 0 -187.5 49t-107.5 132.5t-34 188.5q0 106 34.5 189.5t108.5 132t188 48.5q84 0 149.5 -31.5t103.5 -90t42 -137.5h-146q-6 66 -45 100t-107 34t-106 -32t-52.5 -85.5t-14.5 -127.5q0 -77 15 -130.5t54 -84
t109 -30.5q82 0 118.5 43.5t39.5 119.5h-158v110h299zM252 803.5q-43 36.5 -48 107.5h97q4 -35 22 -51t51 -16q34 0 51.5 15.5t25.5 51.5h91q-4 -71 -46.5 -107.5t-121.5 -36.5t-122 36.5z" />
    <glyph glyph-name="Gcircumflex" unicode="&#x11c;" horiz-adv-x="720" 
d="M676 381v-51q0 -99 -30.5 -177t-98 -124t-174.5 -46q-114 0 -187.5 49t-107.5 132.5t-34 188.5q0 106 34.5 189.5t108.5 132t188 48.5q84 0 149.5 -31.5t103.5 -90t42 -137.5h-146q-6 66 -45 100t-107 34t-106 -32t-52.5 -85.5t-14.5 -127.5q0 -77 15 -130.5t54 -84
t109 -30.5q82 0 118.5 43.5t39.5 119.5h-158v110h299zM294 911h158l107 -137h-126l-61 75l-60 -75h-126z" />
    <glyph glyph-name="Gcommaaccent" unicode="&#x122;" horiz-adv-x="720" 
d="M676 381v-51q0 -99 -30.5 -177t-98 -124t-174.5 -46q-114 0 -187.5 49t-107.5 132.5t-34 188.5q0 106 34.5 189.5t108.5 132t188 48.5q84 0 149.5 -31.5t103.5 -90t42 -137.5h-146q-6 66 -45 100t-107 34t-106 -32t-52.5 -85.5t-14.5 -127.5q0 -77 15 -130.5t54 -84
t109 -30.5q82 0 118.5 43.5t39.5 119.5h-158v110h299zM303 -52h142l-52 -148h-126z" />
    <glyph glyph-name="Gdotaccent" unicode="&#x120;" horiz-adv-x="720" 
d="M676 381v-51q0 -99 -30.5 -177t-98 -124t-174.5 -46q-114 0 -187.5 49t-107.5 132.5t-34 188.5q0 106 34.5 189.5t108.5 132t188 48.5q84 0 149.5 -31.5t103.5 -90t42 -137.5h-146q-6 66 -45 100t-107 34t-106 -32t-52.5 -85.5t-14.5 -127.5q0 -77 15 -130.5t54 -84
t109 -30.5q82 0 118.5 43.5t39.5 119.5h-158v110h299zM318.5 797.5q-21.5 20.5 -21.5 52.5t21.5 52.5t55.5 20.5q32 0 53.5 -21t21.5 -52t-21.5 -52t-53.5 -21q-34 0 -55.5 20.5z" />
    <glyph glyph-name="Hbar" unicode="&#x126;" horiz-adv-x="721" 
d="M641 706v-706h-147v296h-267v-296h-147v706h147v-101h267v101h147zM494 419v101h-267v-101h267z" />
    <glyph glyph-name="Hcircumflex" unicode="&#x124;" horiz-adv-x="721" 
d="M80 706h147v-287h267v287h147v-706h-147v296h-267v-296h-147v706zM283 911h158l107 -137h-126l-61 75l-60 -75h-126z" />
    <glyph glyph-name="IJ" unicode="&#x132;" horiz-adv-x="688" 
d="M80 706h147v-706h-147v706zM328 1v132q18 -3 41 -3q41 0 64 11.5t33.5 37t10.5 71.5v456h147v-476q0 -80 -24 -131t-75.5 -76.5t-134.5 -25.5q-34 0 -62 4z" />
    <glyph glyph-name="Iacute" unicode="&#xcd;" horiz-adv-x="307" 
d="M80 706h147v-706h-147v706zM164 911h144l-114 -137h-130z" />
    <glyph glyph-name="Ibreve" unicode="&#x12c;" horiz-adv-x="307" 
d="M80 706h147v-706h-147v706zM44 803.5q-37 36.5 -37 107.5h94q2 -36 14 -51t39 -15q26 0 38 15t13 51h95q0 -71 -37 -107.5t-109 -36.5q-73 0 -110 36.5z" />
    <glyph glyph-name="Icircumflex" unicode="&#xce;" horiz-adv-x="307" 
d="M80 706h147v-706h-147v706zM76 911h154l85 -137h-116l-45 75l-45 -75h-116z" />
    <glyph glyph-name="Idieresis" unicode="&#xcf;" horiz-adv-x="307" 
d="M80 706h147v-706h-147v706zM22.5 795.5q-19.5 19.5 -19.5 48.5q0 30 19.5 49.5t48.5 19.5t48.5 -19.5t19.5 -49.5q0 -29 -19.5 -48.5t-48.5 -19.5t-48.5 19.5zM189 795q-19 19 -19 48q0 30 19 50t48 20t49 -20t20 -50q0 -28 -20 -47.5t-49 -19.5t-48 19z" />
    <glyph glyph-name="Idotaccent" unicode="&#x130;" horiz-adv-x="307" 
d="M80 706h147v-706h-147v706zM98.5 797.5q-21.5 20.5 -21.5 52.5t21.5 52.5t55.5 20.5q32 0 53.5 -21t21.5 -52t-21.5 -52t-53.5 -21q-34 0 -55.5 20.5z" />
    <glyph glyph-name="Igrave" unicode="&#xcc;" horiz-adv-x="307" 
d="M80 706h147v-706h-147v706zM112 774l-113 137h143l101 -137h-131z" />
    <glyph glyph-name="Imacron" unicode="&#x12a;" horiz-adv-x="307" 
d="M80 706h147v-706h-147v706zM24 887h257v-90h-257v90z" />
    <glyph glyph-name="Iogonek" unicode="&#x12e;" horiz-adv-x="307" 
d="M232 -124v-78q-27 -11 -65 -11q-49 0 -78 22t-29 62t18.5 71t53.5 58h-52v706h147v-706q-28 -31 -42 -54.5t-14 -49.5q0 -13 8 -20t21 -7q17 0 32 7z" />
    <glyph glyph-name="Itilde" unicode="&#x128;" horiz-adv-x="307" 
d="M80 706h147v-706h-147v706zM179 778q-14 7 -29 21q-3 3 -13.5 11.5t-18.5 12.5t-16 4q-15 0 -22 -13.5t-9 -40.5h-70q4 139 93 139q22 0 37 -8t31 -23q14 -13 21.5 -18.5t17.5 -5.5q17 0 23.5 12t10.5 42h72q-3 -72 -25 -106t-67 -34q-22 0 -36 7z" />
    <glyph glyph-name="uni00A40301" horiz-adv-x="381" 
d="M21 1v132q18 -3 41 -3q41 0 64 11.5t33.5 37t10.5 71.5v456h147v-476q0 -80 -24 -131t-75.5 -76.5t-134.5 -25.5q-34 0 -62 4zM254 911h144l-114 -137h-130z" />
    <glyph glyph-name="Jcircumflex" unicode="&#x134;" horiz-adv-x="381" 
d="M21 1v132q18 -3 41 -3q41 0 64 11.5t33.5 37t10.5 71.5v456h147v-476q0 -80 -24 -131t-75.5 -76.5t-134.5 -25.5q-34 0 -62 4zM165 911h154l85 -137h-116l-45 75l-45 -75h-116z" />
    <glyph glyph-name="Kcommaaccent" unicode="&#x136;" horiz-adv-x="664" 
d="M478 0l-251 330v-330h-147v706h147v-269l217 269h172l-262 -317l304 -389h-180zM269 -52h142l-52 -148h-126z" />
    <glyph glyph-name="Lacute" unicode="&#x139;" horiz-adv-x="484" 
d="M80 706h147v-578h236v-128h-383v706zM158 911h144l-114 -137h-130z" />
    <glyph glyph-name="Lcaron" unicode="&#x13d;" horiz-adv-x="484" 
d="M80 706h147v-578h236v-128h-383v706zM316 706h116l-39 -171h-102z" />
    <glyph glyph-name="Lcommaaccent" unicode="&#x13b;" horiz-adv-x="484" 
d="M80 706h147v-578h236v-128h-383v706zM181 -52h142l-52 -148h-126z" />
    <glyph glyph-name="Ldot" unicode="&#x13f;" horiz-adv-x="566" 
d="M80 706h147v-578h236v-128h-383v706zM390 333q-20 11 -31 31t-11 45t11 45t31 31t46 11t46 -11t31.5 -31t11.5 -45t-11.5 -45t-31.5 -31t-46 -11t-46 11z" />
    <glyph glyph-name="Lslash" unicode="&#x141;" horiz-adv-x="484" 
d="M463 128v-128h-383v283l-58 -38v110l58 39v312h147v-238l130 87v-112l-130 -86v-229h236z" />
    <glyph glyph-name="Nacute" unicode="&#x143;" horiz-adv-x="742" 
d="M80 706h146l294 -478v478h142v-706h-147l-293 479v-479h-142v706zM382 911h144l-114 -137h-130z" />
    <glyph glyph-name="Ncaron" unicode="&#x147;" horiz-adv-x="742" 
d="M80 706h146l294 -478v478h142v-706h-147l-293 479v-479h-142v706zM311 911l60 -75l61 75h126l-107 -137h-158l-108 137h126z" />
    <glyph glyph-name="Ncommaaccent" unicode="&#x145;" horiz-adv-x="742" 
d="M80 706h146l294 -478v478h142v-706h-147l-293 479v-479h-142v706zM298 -52h142l-52 -148h-126z" />
    <glyph glyph-name="Eng" unicode="&#x14a;" horiz-adv-x="742" 
d="M662 706v-754q0 -82 -38.5 -119t-121.5 -37q-33 0 -66 3v115q20 -2 29 -2q28 0 41.5 14t13.5 43v33l-298 477v-479h-142v706h146l294 -472v472h142z" />
    <glyph glyph-name="Ntilde" unicode="&#xd1;" horiz-adv-x="742" 
d="M80 706h146l294 -478v478h142v-706h-147l-293 479v-479h-142v706zM411.5 777.5q-20.5 7.5 -41.5 20.5q-28 16 -41 22t-28 6q-20 0 -30 -14.5t-13 -40.5h-75q3 70 29 106t78 36q27 0 46.5 -8t42.5 -24q17 -12 30 -18t29 -6q20 0 29.5 13.5t15.5 41.5h77
q-2 -69 -27.5 -105.5t-76.5 -36.5q-24 0 -44.5 7.5z" />
    <glyph glyph-name="Oacute" unicode="&#xd3;" horiz-adv-x="747" 
d="M185.5 32.5q-73.5 49.5 -107.5 133t-34 187.5q0 105 34.5 188t108 132.5t187.5 49.5t188 -49.5t107.5 -132.5t33.5 -188q0 -106 -34 -189t-107.5 -132t-187.5 -49q-115 0 -188.5 49.5zM509.5 175.5q38.5 67.5 38.5 177.5q0 111 -39 178t-135 67q-99 0 -137 -66.5
t-38 -178.5t38.5 -178.5t136.5 -66.5q97 0 135.5 67.5zM385 911h144l-114 -137h-130z" />
    <glyph glyph-name="Obreve" unicode="&#x14e;" horiz-adv-x="747" 
d="M185.5 32.5q-73.5 49.5 -107.5 133t-34 187.5q0 105 34.5 188t108 132.5t187.5 49.5t188 -49.5t107.5 -132.5t33.5 -188q0 -106 -34 -189t-107.5 -132t-187.5 -49q-115 0 -188.5 49.5zM509.5 175.5q38.5 67.5 38.5 177.5q0 111 -39 178t-135 67q-99 0 -137 -66.5
t-38 -178.5t38.5 -178.5t136.5 -66.5q97 0 135.5 67.5zM252 803.5q-43 36.5 -48 107.5h97q4 -35 22 -51t51 -16q34 0 51.5 15.5t25.5 51.5h91q-4 -71 -46.5 -107.5t-121.5 -36.5t-122 36.5z" />
    <glyph glyph-name="Ocircumflex" unicode="&#xd4;" horiz-adv-x="747" 
d="M185.5 32.5q-73.5 49.5 -107.5 133t-34 187.5q0 105 34.5 188t108 132.5t187.5 49.5t188 -49.5t107.5 -132.5t33.5 -188q0 -106 -34 -189t-107.5 -132t-187.5 -49q-115 0 -188.5 49.5zM509.5 175.5q38.5 67.5 38.5 177.5q0 111 -39 178t-135 67q-99 0 -137 -66.5
t-38 -178.5t38.5 -178.5t136.5 -66.5q97 0 135.5 67.5zM295 911h158l107 -137h-126l-61 75l-60 -75h-126z" />
    <glyph glyph-name="Odieresis" unicode="&#xd6;" horiz-adv-x="747" 
d="M185.5 32.5q-73.5 49.5 -107.5 133t-34 187.5q0 105 34.5 188t108 132.5t187.5 49.5t188 -49.5t107.5 -132.5t33.5 -188q0 -106 -34 -189t-107.5 -132t-187.5 -49q-115 0 -188.5 49.5zM509.5 175.5q38.5 67.5 38.5 177.5q0 111 -39 178t-135 67q-99 0 -137 -66.5
t-38 -178.5t38.5 -178.5t136.5 -66.5q97 0 135.5 67.5zM228.5 786q-16.5 9 -26 25t-9.5 35q0 31 20.5 51t52.5 20q20 0 36.5 -9t26 -25.5t9.5 -36.5q0 -19 -9.5 -35t-26 -25t-36.5 -9q-21 0 -37.5 9zM446.5 786q-16.5 9 -26 25t-9.5 35q0 31 20.5 51t51.5 20q20 0 37 -9
t26.5 -25.5t9.5 -36.5q0 -19 -9.5 -35t-26.5 -25t-37 -9t-36.5 9z" />
    <glyph glyph-name="Ograve" unicode="&#xd2;" horiz-adv-x="747" 
d="M185.5 32.5q-73.5 49.5 -107.5 133t-34 187.5q0 105 34.5 188t108 132.5t187.5 49.5t188 -49.5t107.5 -132.5t33.5 -188q0 -106 -34 -189t-107.5 -132t-187.5 -49q-115 0 -188.5 49.5zM509.5 175.5q38.5 67.5 38.5 177.5q0 111 -39 178t-135 67q-99 0 -137 -66.5
t-38 -178.5t38.5 -178.5t136.5 -66.5q97 0 135.5 67.5zM332 774l-113 137h143l101 -137h-131z" />
    <glyph glyph-name="Ohungarumlaut" unicode="&#x150;" horiz-adv-x="747" 
d="M185.5 32.5q-73.5 49.5 -107.5 133t-34 187.5q0 105 34.5 188t108 132.5t187.5 49.5t188 -49.5t107.5 -132.5t33.5 -188q0 -106 -34 -189t-107.5 -132t-187.5 -49q-115 0 -188.5 49.5zM509.5 175.5q38.5 67.5 38.5 177.5q0 111 -39 178t-135 67q-99 0 -137 -66.5
t-38 -178.5t38.5 -178.5t136.5 -66.5q97 0 135.5 67.5zM324 911h119l-120 -137h-97zM495 911h119l-119 -137h-98z" />
    <glyph glyph-name="Omacron" unicode="&#x14c;" horiz-adv-x="747" 
d="M185.5 32.5q-73.5 49.5 -107.5 133t-34 187.5q0 105 34.5 188t108 132.5t187.5 49.5t188 -49.5t107.5 -132.5t33.5 -188q0 -106 -34 -189t-107.5 -132t-187.5 -49q-115 0 -188.5 49.5zM509.5 175.5q38.5 67.5 38.5 177.5q0 111 -39 178t-135 67q-99 0 -137 -66.5
t-38 -178.5t38.5 -178.5t136.5 -66.5q97 0 135.5 67.5zM220 888h308v-90h-308v90z" />
    <glyph glyph-name="Oslash" unicode="&#xd8;" horiz-adv-x="747" 
d="M642 592q31 -47 46 -108t15 -131q0 -106 -34 -189t-107.5 -132t-187.5 -49q-140 0 -223 77l-56 -60h-94l104 113q-31 48 -46 109.5t-15 130.5q0 105 34.5 188t108 132.5t187.5 49.5q141 0 224 -77l55 60h94zM237 531.5q-38 -66.5 -38 -178.5q0 -78 16 -127l284 319
q-43 53 -125 53q-99 0 -137 -66.5zM509.5 175.5q38.5 67.5 38.5 177.5q0 77 -16 126l-284 -319q44 -52 126 -52q97 0 135.5 67.5z" />
    <glyph glyph-name="Oslashacute" unicode="&#x1fe;" horiz-adv-x="747" 
d="M642 592q31 -47 46 -108t15 -131q0 -106 -34 -189t-107.5 -132t-187.5 -49q-140 0 -223 77l-56 -60h-94l104 113q-31 48 -46 109.5t-15 130.5q0 105 34.5 188t108 132.5t187.5 49.5q141 0 224 -77l55 60h94zM237 531.5q-38 -66.5 -38 -178.5q0 -78 16 -127l284 319
q-43 53 -125 53q-99 0 -137 -66.5zM509.5 175.5q38.5 67.5 38.5 177.5q0 77 -16 126l-284 -319q44 -52 126 -52q97 0 135.5 67.5zM385 911h144l-114 -137h-130z" />
    <glyph glyph-name="Otilde" unicode="&#xd5;" horiz-adv-x="747" 
d="M185.5 32.5q-73.5 49.5 -107.5 133t-34 187.5q0 105 34.5 188t108 132.5t187.5 49.5t188 -49.5t107.5 -132.5t33.5 -188q0 -106 -34 -189t-107.5 -132t-187.5 -49q-115 0 -188.5 49.5zM509.5 175.5q38.5 67.5 38.5 177.5q0 111 -39 178t-135 67q-99 0 -137 -66.5
t-38 -178.5t38.5 -178.5t136.5 -66.5q97 0 135.5 67.5zM414.5 777.5q-20.5 7.5 -41.5 20.5q-28 16 -41 22t-28 6q-20 0 -30 -14.5t-13 -40.5h-75q3 70 29 106t78 36q27 0 46.5 -8t42.5 -24q17 -12 30 -18t29 -6q20 0 29.5 13.5t15.5 41.5h77q-2 -69 -27.5 -105.5
t-76.5 -36.5q-24 0 -44.5 7.5z" />
    <glyph glyph-name="OE" unicode="&#x152;" horiz-adv-x="1013" 
d="M677 586v-168h279v-119h-279v-179h282v-120h-405v58q-74 -69 -196 -69q-110 0 -180 48.5t-102 130t-32 185.5t32.5 186t103 130t178.5 48q122 0 196 -69v58h405v-120h-282zM496.5 175.5q36.5 66.5 36.5 177.5q0 113 -36.5 178.5t-130.5 65.5q-95 0 -131 -66t-36 -178
t36.5 -178t130.5 -66t130.5 66.5z" />
    <glyph glyph-name="Thorn" unicode="&#xde;" horiz-adv-x="603" 
d="M80 706h147v-107h104q132 0 191 -62t59 -174q0 -117 -59.5 -180t-190.5 -63h-104v-120h-147v706zM296 235q72 0 103 32t31 96q0 61 -30.5 90.5t-103.5 29.5h-69v-248h69z" />
    <glyph glyph-name="Racute" unicode="&#x154;" horiz-adv-x="649" 
d="M281 287h-54v-287h-147v706h279q121 0 175.5 -54t54.5 -149q0 -175 -153 -208l202 -295h-163zM227 393h90q65 0 93 26t28 80q0 51 -28.5 73.5t-92.5 22.5h-90v-202zM329 911h144l-114 -137h-130z" />
    <glyph glyph-name="Rcaron" unicode="&#x158;" horiz-adv-x="649" 
d="M281 287h-54v-287h-147v706h279q121 0 175.5 -54t54.5 -149q0 -175 -153 -208l202 -295h-163zM227 393h90q65 0 93 26t28 80q0 51 -28.5 73.5t-92.5 22.5h-90v-202zM257 911l60 -75l61 75h126l-107 -137h-158l-108 137h126z" />
    <glyph glyph-name="Rcommaaccent" unicode="&#x156;" horiz-adv-x="649" 
d="M281 287h-54v-287h-147v706h279q121 0 175.5 -54t54.5 -149q0 -175 -153 -208l202 -295h-163zM227 393h90q65 0 93 26t28 80q0 51 -28.5 73.5t-92.5 22.5h-90v-202zM277 -52h142l-52 -148h-126z" />
    <glyph glyph-name="Sacute" unicode="&#x15a;" horiz-adv-x="619" 
d="M152.5 13.5q-62.5 30.5 -91.5 83.5t-29 123h162q0 -59 26.5 -91.5t91.5 -32.5q57 0 86 25t29 67q0 33 -19.5 53.5t-57 35.5t-116.5 40q-61 19 -102 44t-62.5 62t-21.5 89q0 61 29.5 109t87 75t139.5 27q84 0 140.5 -28.5t84 -79.5t27.5 -119h-153q0 56 -23.5 87t-80.5 31
q-49 0 -75.5 -22.5t-26.5 -59.5q0 -30 19 -49t53 -31.5t109 -34.5q73 -22 117.5 -46.5t68 -63t23.5 -98.5q0 -70 -32 -120.5t-94 -78t-151 -27.5q-95 0 -157.5 30.5zM321 911h144l-114 -137h-130z" />
    <glyph glyph-name="Scaron" unicode="&#x160;" horiz-adv-x="619" 
d="M152.5 13.5q-62.5 30.5 -91.5 83.5t-29 123h162q0 -59 26.5 -91.5t91.5 -32.5q57 0 86 25t29 67q0 33 -19.5 53.5t-57 35.5t-116.5 40q-61 19 -102 44t-62.5 62t-21.5 89q0 61 29.5 109t87 75t139.5 27q84 0 140.5 -28.5t84 -79.5t27.5 -119h-153q0 56 -23.5 87t-80.5 31
q-49 0 -75.5 -22.5t-26.5 -59.5q0 -30 19 -49t53 -31.5t109 -34.5q73 -22 117.5 -46.5t68 -63t23.5 -98.5q0 -70 -32 -120.5t-94 -78t-151 -27.5q-95 0 -157.5 30.5zM249 911l60 -75l61 75h126l-107 -137h-158l-108 137h126z" />
    <glyph glyph-name="Scedilla" unicode="&#x15e;" horiz-adv-x="619" 
d="M559.5 95.5q-27.5 -48.5 -80.5 -77t-130 -34.5l-7 -23h8q46 0 72.5 -25t26.5 -65q0 -101 -144 -101q-53 0 -96 16l15 67q32 -13 70 -13q58 0 58 34q0 17 -14.5 25.5t-46.5 8.5h-56l19 78q-112 13 -167 75.5t-55 158.5h162q0 -59 26.5 -91.5t91.5 -32.5q57 0 86 25t29 67
q0 33 -19.5 53.5t-57 35.5t-116.5 40q-61 19 -102 44t-62.5 62t-21.5 89q0 61 29.5 109t87 75t139.5 27q84 0 140.5 -28.5t84 -79.5t27.5 -119h-153q0 56 -23.5 87t-80.5 31q-49 0 -75.5 -22.5t-26.5 -59.5q0 -30 19 -49t53 -31.5t109 -34.5q73 -22 117.5 -46.5t68 -63
t23.5 -98.5q0 -65 -27.5 -113.5z" />
    <glyph glyph-name="Scircumflex" unicode="&#x15c;" horiz-adv-x="619" 
d="M152.5 13.5q-62.5 30.5 -91.5 83.5t-29 123h162q0 -59 26.5 -91.5t91.5 -32.5q57 0 86 25t29 67q0 33 -19.5 53.5t-57 35.5t-116.5 40q-61 19 -102 44t-62.5 62t-21.5 89q0 61 29.5 109t87 75t139.5 27q84 0 140.5 -28.5t84 -79.5t27.5 -119h-153q0 56 -23.5 87t-80.5 31
q-49 0 -75.5 -22.5t-26.5 -59.5q0 -30 19 -49t53 -31.5t109 -34.5q73 -22 117.5 -46.5t68 -63t23.5 -98.5q0 -70 -32 -120.5t-94 -78t-151 -27.5q-95 0 -157.5 30.5zM231 911h158l107 -137h-126l-61 75l-60 -75h-126z" />
    <glyph glyph-name="Scommaaccent" unicode="&#x218;" horiz-adv-x="619" 
d="M152.5 13.5q-62.5 30.5 -91.5 83.5t-29 123h162q0 -59 26.5 -91.5t91.5 -32.5q57 0 86 25t29 67q0 33 -19.5 53.5t-57 35.5t-116.5 40q-61 19 -102 44t-62.5 62t-21.5 89q0 61 29.5 109t87 75t139.5 27q84 0 140.5 -28.5t84 -79.5t27.5 -119h-153q0 56 -23.5 87t-80.5 31
q-49 0 -75.5 -22.5t-26.5 -59.5q0 -30 19 -49t53 -31.5t109 -34.5q73 -22 117.5 -46.5t68 -63t23.5 -98.5q0 -70 -32 -120.5t-94 -78t-151 -27.5q-95 0 -157.5 30.5zM240 -52h142l-52 -148h-126z" />
    <glyph glyph-name="Germandbls" unicode="&#x1e9e;" horiz-adv-x="676" 
d="M610 345.5q34 -54.5 34 -126.5q0 -67 -27.5 -117t-84 -78t-140.5 -28q-52 0 -98 8v121q32 -5 65 -5q68 0 101 27.5t33 78.5q0 111 -127 111q-11 0 -31 -2v3l101 245h-209v-583h-147v706h542v-5l-116 -282q70 -19 104 -73.5z" />
    <glyph glyph-name="Schwa" unicode="&#x18f;" horiz-adv-x="720" 
d="M533 674.5q74 -48.5 108.5 -132t34.5 -189.5q0 -105 -34 -188.5t-107.5 -132.5t-187.5 -49q-107 0 -174.5 46t-98 124t-30.5 177v51h477q-4 102 -42 159.5t-130 57.5q-69 0 -108 -34t-45 -100h-146q4 79 42 137.5t103.5 90t149.5 31.5q114 0 188 -48.5zM466.5 151
q39.5 43 50.5 124h-332q2 -78 38 -122.5t120 -44.5t123.5 43z" />
    <glyph glyph-name="Tbar" unicode="&#x166;" horiz-adv-x="558" 
d="M352 586v-157h116v-91h-116v-338h-146v338h-116v91h116v157h-185v120h516v-120h-185z" />
    <glyph glyph-name="Tcaron" unicode="&#x164;" horiz-adv-x="558" 
d="M206 586h-185v120h516v-120h-185v-586h-146v586zM218 911l60 -75l61 75h126l-107 -137h-158l-108 137h126z" />
    <glyph glyph-name="uni0162" unicode="&#x162;" horiz-adv-x="558" 
d="M323 0l-10 -39h8q30 0 52.5 -11.5t34.5 -32t12 -46.5q0 -101 -144 -101q-53 0 -96 16l14 67q32 -13 71 -13q28 0 42.5 8t14.5 26t-14 26t-46 8h-56l23 92h-23v586h-185v120h516v-120h-185v-586h-29z" />
    <glyph glyph-name="uni021A" unicode="&#x21a;" horiz-adv-x="558" 
d="M206 586h-185v120h516v-120h-185v-586h-146v586zM211 -52h142l-52 -148h-126z" />
    <glyph glyph-name="Uacute" unicode="&#xda;" horiz-adv-x="677" 
d="M131 47q-67 64 -67 193v466h147v-456q0 -48 12 -78.5t39.5 -46.5t75.5 -16t76 16t40 46.5t12 78.5v456h147v-466q0 -129 -67.5 -193t-207.5 -64t-207 64zM350 911h144l-114 -137h-130z" />
    <glyph glyph-name="Ubreve" unicode="&#x16c;" horiz-adv-x="677" 
d="M131 47q-67 64 -67 193v466h147v-456q0 -48 12 -78.5t39.5 -46.5t75.5 -16t76 16t40 46.5t12 78.5v456h147v-466q0 -129 -67.5 -193t-207.5 -64t-207 64zM218 803.5q-43 36.5 -48 107.5h97q4 -35 22 -51t51 -16q34 0 51.5 15.5t25.5 51.5h91q-4 -71 -46.5 -107.5
t-121.5 -36.5t-122 36.5z" />
    <glyph glyph-name="Ucircumflex" unicode="&#xdb;" horiz-adv-x="677" 
d="M131 47q-67 64 -67 193v466h147v-456q0 -48 12 -78.5t39.5 -46.5t75.5 -16t76 16t40 46.5t12 78.5v456h147v-466q0 -129 -67.5 -193t-207.5 -64t-207 64zM261 911h158l107 -137h-126l-61 75l-60 -75h-126z" />
    <glyph glyph-name="Udieresis" unicode="&#xdc;" horiz-adv-x="677" 
d="M131 47q-67 64 -67 193v466h147v-456q0 -48 12 -78.5t39.5 -46.5t75.5 -16t76 16t40 46.5t12 78.5v456h147v-466q0 -129 -67.5 -193t-207.5 -64t-207 64zM194.5 786q-16.5 9 -26 25t-9.5 35q0 31 20.5 51t52.5 20q20 0 36.5 -9t26 -25.5t9.5 -36.5q0 -19 -9.5 -35
t-26 -25t-36.5 -9q-21 0 -37.5 9zM412.5 786q-16.5 9 -26 25t-9.5 35q0 31 20.5 51t51.5 20q20 0 37 -9t26.5 -25.5t9.5 -36.5q0 -19 -9.5 -35t-26.5 -25t-37 -9t-36.5 9z" />
    <glyph glyph-name="Ugrave" unicode="&#xd9;" horiz-adv-x="677" 
d="M131 47q-67 64 -67 193v466h147v-456q0 -48 12 -78.5t39.5 -46.5t75.5 -16t76 16t40 46.5t12 78.5v456h147v-466q0 -129 -67.5 -193t-207.5 -64t-207 64zM298 774l-113 137h143l101 -137h-131z" />
    <glyph glyph-name="Uhungarumlaut" unicode="&#x170;" horiz-adv-x="677" 
d="M131 47q-67 64 -67 193v466h147v-456q0 -48 12 -78.5t39.5 -46.5t75.5 -16t76 16t40 46.5t12 78.5v456h147v-466q0 -129 -67.5 -193t-207.5 -64t-207 64zM290 911h119l-120 -137h-97zM461 911h119l-119 -137h-98z" />
    <glyph glyph-name="Umacron" unicode="&#x16a;" horiz-adv-x="677" 
d="M131 47q-67 64 -67 193v466h147v-456q0 -48 12 -78.5t39.5 -46.5t75.5 -16t76 16t40 46.5t12 78.5v456h147v-466q0 -129 -67.5 -193t-207.5 -64t-207 64zM185 888h308v-90h-308v90z" />
    <glyph glyph-name="Uogonek" unicode="&#x172;" horiz-adv-x="677" 
d="M613 706v-466q0 -84 -26 -137.5t-79 -92.5q-40 -31 -59 -54t-19 -49q0 -19 11.5 -30t28.5 -11q18 0 43 9v-77q-39 -12 -73 -12q-53 0 -85 25.5t-32 71.5q0 30 14.5 54.5t40.5 46.5q-13 -1 -40 -1q-140 0 -207 64t-67 193v466h147v-456q0 -48 12 -78.5t39.5 -46.5
t75.5 -16t76 16t40 46.5t12 78.5v456h147z" />
    <glyph glyph-name="Uring" unicode="&#x16e;" horiz-adv-x="677" 
d="M131 47q-67 64 -67 193v466h147v-456q0 -48 12 -78.5t39.5 -46.5t75.5 -16t76 16t40 46.5t12 78.5v456h147v-466q0 -129 -67.5 -193t-207.5 -64t-207 64zM271 755q-29 15 -45 42t-16 62q0 36 16 63t45 41.5t68 14.5t68.5 -15t45.5 -42t16 -62t-16 -62t-45.5 -42
t-68.5 -15t-68 15zM377 822.5q14 13.5 14 36.5t-14 37t-38 14q-23 0 -37 -14t-14 -37t14 -36.5t37 -13.5q24 0 38 13.5z" />
    <glyph glyph-name="Utilde" unicode="&#x168;" horiz-adv-x="677" 
d="M131 47q-67 64 -67 193v466h147v-456q0 -48 12 -78.5t39.5 -46.5t75.5 -16t76 16t40 46.5t12 78.5v456h147v-466q0 -129 -67.5 -193t-207.5 -64t-207 64zM379.5 777.5q-20.5 7.5 -41.5 20.5q-28 16 -41 22t-28 6q-20 0 -30 -14.5t-13 -40.5h-75q3 70 29 106t78 36
q27 0 46.5 -8t42.5 -24q17 -12 30 -18t29 -6q20 0 29.5 13.5t15.5 41.5h77q-2 -69 -27.5 -105.5t-76.5 -36.5q-24 0 -44.5 7.5z" />
    <glyph glyph-name="Wacute" unicode="&#x1e82;" horiz-adv-x="930" 
d="M924 706l-187 -706h-153l-118 506l-119 -506h-151l-190 706h144l123 -494l116 494h154l115 -493l122 493h144zM477 911h144l-114 -137h-130z" />
    <glyph glyph-name="Wcircumflex" unicode="&#x174;" horiz-adv-x="930" 
d="M924 706l-187 -706h-153l-118 506l-119 -506h-151l-190 706h144l123 -494l116 494h154l115 -493l122 493h144zM388 911h158l107 -137h-126l-61 75l-60 -75h-126z" />
    <glyph glyph-name="Wdieresis" unicode="&#x1e84;" horiz-adv-x="930" 
d="M924 706l-187 -706h-153l-118 506l-119 -506h-151l-190 706h144l123 -494l116 494h154l115 -493l122 493h144zM320.5 786q-16.5 9 -26 25t-9.5 35q0 31 20.5 51t52.5 20q20 0 36.5 -9t26 -25.5t9.5 -36.5q0 -19 -9.5 -35t-26 -25t-36.5 -9q-21 0 -37.5 9zM538.5 786
q-16.5 9 -26 25t-9.5 35q0 31 20.5 51t51.5 20q20 0 37 -9t26.5 -25.5t9.5 -36.5q0 -19 -9.5 -35t-26.5 -25t-37 -9t-36.5 9z" />
    <glyph glyph-name="Wgrave" unicode="&#x1e80;" horiz-adv-x="930" 
d="M924 706l-187 -706h-153l-118 506l-119 -506h-151l-190 706h144l123 -494l116 494h154l115 -493l122 493h144zM424 774l-113 137h143l101 -137h-131z" />
    <glyph glyph-name="Yacute" unicode="&#xdd;" horiz-adv-x="599" 
d="M226 303l-220 403h158l136 -260l136 260h157l-220 -403v-303h-147v303zM311 911h144l-114 -137h-130z" />
    <glyph glyph-name="Ycircumflex" unicode="&#x176;" horiz-adv-x="599" 
d="M226 303l-220 403h158l136 -260l136 260h157l-220 -403v-303h-147v303zM221 911h158l107 -137h-126l-61 75l-60 -75h-126z" />
    <glyph glyph-name="Ydieresis" unicode="&#x178;" horiz-adv-x="599" 
d="M226 303l-220 403h158l136 -260l136 260h157l-220 -403v-303h-147v303zM154.5 786q-16.5 9 -26 25t-9.5 35q0 31 20.5 51t52.5 20q20 0 36.5 -9t26 -25.5t9.5 -36.5q0 -19 -9.5 -35t-26 -25t-36.5 -9q-21 0 -37.5 9zM372.5 786q-16.5 9 -26 25t-9.5 35q0 31 20.5 51
t51.5 20q20 0 37 -9t26.5 -25.5t9.5 -36.5q0 -19 -9.5 -35t-26.5 -25t-37 -9t-36.5 9z" />
    <glyph glyph-name="Ygrave" unicode="&#x1ef2;" horiz-adv-x="599" 
d="M226 303l-220 403h158l136 -260l136 260h157l-220 -403v-303h-147v303zM258 774l-113 137h143l101 -137h-131z" />
    <glyph glyph-name="Zacute" unicode="&#x179;" horiz-adv-x="602" 
d="M333 583h-294v123h519l-309 -583h323v-123h-550zM306 911h144l-114 -137h-130z" />
    <glyph glyph-name="Zcaron" unicode="&#x17d;" horiz-adv-x="602" 
d="M333 583h-294v123h519l-309 -583h323v-123h-550zM235 911l60 -75l61 75h126l-107 -137h-158l-108 137h126z" />
    <glyph glyph-name="Zdotaccent" unicode="&#x17b;" horiz-adv-x="602" 
d="M333 583h-294v123h519l-309 -583h323v-123h-550zM240.5 797.5q-21.5 20.5 -21.5 52.5t21.5 52.5t55.5 20.5q32 0 53.5 -21t21.5 -52t-21.5 -52t-53.5 -21q-34 0 -55.5 20.5z" />
    <glyph glyph-name="M.ss01" horiz-adv-x="844" 
d="M80 706h182l163 -275l159 275h180v-706h-142v531l-167 -286h-64l-169 286v-531h-142v706z" />
    <glyph glyph-name="Q.ss02" horiz-adv-x="747" 
d="M663.5 151q-39.5 -87 -121.5 -131l68 -126l-129 -60l-74 150q-11 -1 -33 -1q-115 0 -188.5 49.5t-107.5 133t-34 187.5q0 105 34.5 188t108 132.5t187.5 49.5t188 -49.5t107.5 -132.5t33.5 -188q0 -115 -39.5 -202zM237.5 174.5q38.5 -66.5 136.5 -66.5q97 0 135.5 67.5
t38.5 177.5q0 111 -39 178t-135 67q-99 0 -137 -66.5t-38 -178.5t38.5 -178.5z" />
    <glyph glyph-name="Oslash.ss04" horiz-adv-x="747" 
d="M638 600q33 -49 49 -112t16 -135q0 -106 -34 -189t-107.5 -132t-187.5 -49q-97 0 -168 38l-78 -103l-104 80l87 107q-34 49 -50.5 112.5t-16.5 135.5q0 105 34.5 188t108 132.5t187.5 49.5q96 0 169 -38l79 102l103 -79zM509.5 175.5q38.5 67.5 38.5 177.5q0 111 -39 178
t-135 67q-99 0 -137 -66.5t-38 -178.5t38.5 -178.5t136.5 -66.5q97 0 135.5 67.5z" />
    <glyph glyph-name="aacute" unicode="&#xe1;" horiz-adv-x="568" 
d="M414 484q50 -25 71 -73t21 -121v-290h-140v59q-50 -72 -158 -72q-86 0 -130 41t-44 112q0 60 29 95t84 50t138 15h81v11q0 34 -7 55.5t-25.5 33t-52.5 11.5q-87 0 -87 -73h-142q0 82 58.5 126.5t168.5 44.5q85 0 135 -25zM343 123q23 32 23 89v4h-71q-59 0 -86 -14
t-27 -49q0 -62 79 -62q59 0 82 32zM285 727h136l-103 -156h-123z" />
    <glyph glyph-name="abreve" unicode="&#x103;" horiz-adv-x="568" 
d="M414 484q50 -25 71 -73t21 -121v-290h-140v59q-50 -72 -158 -72q-86 0 -130 41t-44 112q0 60 29 95t84 50t138 15h81v11q0 34 -7 55.5t-25.5 33t-52.5 11.5q-87 0 -87 -73h-142q0 82 58.5 126.5t168.5 44.5q85 0 135 -25zM343 123q23 32 23 89v4h-71q-59 0 -86 -14
t-27 -49q0 -62 79 -62q59 0 82 32zM105 728h100q4 -45 21.5 -65.5t53.5 -20.5t53 20.5t22 65.5h98q-8 -164 -173 -164q-166 0 -175 164z" />
    <glyph glyph-name="acircumflex" unicode="&#xe2;" horiz-adv-x="568" 
d="M414 484q50 -25 71 -73t21 -121v-290h-140v59q-50 -72 -158 -72q-86 0 -130 41t-44 112q0 60 29 95t84 50t138 15h81v11q0 34 -7 55.5t-25.5 33t-52.5 11.5q-87 0 -87 -73h-142q0 82 58.5 126.5t168.5 44.5q85 0 135 -25zM343 123q23 32 23 89v4h-71q-59 0 -86 -14
t-27 -49q0 -62 79 -62q59 0 82 32zM198 728h162l100 -158h-123l-59 95l-57 -95h-124z" />
    <glyph glyph-name="adieresis" unicode="&#xe4;" horiz-adv-x="568" 
d="M414 484q50 -25 71 -73t21 -121v-290h-140v59q-50 -72 -158 -72q-86 0 -130 41t-44 112q0 60 29 95t84 50t138 15h81v11q0 34 -7 55.5t-25.5 33t-52.5 11.5q-87 0 -87 -73h-142q0 82 58.5 126.5t168.5 44.5q85 0 135 -25zM343 123q23 32 23 89v4h-71q-59 0 -86 -14
t-27 -49q0 -62 79 -62q59 0 82 32zM140 582.5q-17 9.5 -27 26t-10 36.5t10 36.5t27 26t38 9.5t38 -9.5t26.5 -26t9.5 -36.5t-9.5 -36.5t-26.5 -26t-38 -9.5t-38 9.5zM344 582.5q-17 9.5 -27 26t-10 36.5t10 36.5t27 26t38 9.5q20 0 37 -9.5t27 -26t10 -36.5t-10 -36.5
t-27 -26t-37 -9.5q-21 0 -38 9.5z" />
    <glyph glyph-name="agrave" unicode="&#xe0;" horiz-adv-x="568" 
d="M414 484q50 -25 71 -73t21 -121v-290h-140v59q-50 -72 -158 -72q-86 0 -130 41t-44 112q0 60 29 95t84 50t138 15h81v11q0 34 -7 55.5t-25.5 33t-52.5 11.5q-87 0 -87 -73h-142q0 82 58.5 126.5t168.5 44.5q85 0 135 -25zM343 123q23 32 23 89v4h-71q-59 0 -86 -14
t-27 -49q0 -62 79 -62q59 0 82 32zM240 571l-103 156h137l89 -156h-123z" />
    <glyph glyph-name="amacron" unicode="&#x101;" horiz-adv-x="568" 
d="M414 484q50 -25 71 -73t21 -121v-290h-140v59q-50 -72 -158 -72q-86 0 -130 41t-44 112q0 60 29 95t84 50t138 15h81v11q0 34 -7 55.5t-25.5 33t-52.5 11.5q-87 0 -87 -73h-142q0 82 58.5 126.5t168.5 44.5q85 0 135 -25zM343 123q23 32 23 89v4h-71q-59 0 -86 -14
t-27 -49q0 -62 79 -62q59 0 82 32zM129 688h299v-89h-299v89z" />
    <glyph glyph-name="aogonek" unicode="&#x105;" horiz-adv-x="568" 
d="M509 -124v-77q-29 -12 -74 -12q-54 0 -85.5 23.5t-31.5 68.5q0 37 24 66t67 55h-43v59q-50 -72 -158 -72q-86 0 -130 41t-44 112q0 60 29 95t84 50t138 15h81v11q0 34 -7 55.5t-25.5 33t-52.5 11.5q-87 0 -87 -73h-142q0 82 58.5 126.5t168.5 44.5q85 0 135 -25t71 -73
t21 -121v-290q-39 -29 -58 -50.5t-19 -45.5q0 -17 11 -26t28 -9q23 0 41 7zM343 123q23 32 23 89v4h-71q-59 0 -86 -14t-27 -49q0 -62 79 -62q59 0 82 32z" />
    <glyph glyph-name="aring" unicode="&#xe5;" horiz-adv-x="568" 
d="M414 484q50 -25 71 -73t21 -121v-290h-140v59q-50 -72 -158 -72q-86 0 -130 41t-44 112q0 60 29 95t84 50t138 15h81v11q0 34 -7 55.5t-25.5 33t-52.5 11.5q-87 0 -87 -73h-142q0 82 58.5 126.5t168.5 44.5q85 0 135 -25zM343 123q23 32 23 89v4h-71q-59 0 -86 -14
t-27 -49q0 -62 79 -62q59 0 82 32zM211 566q-29 15 -45 42t-16 62q0 36 16 63t45 41.5t68 14.5t68.5 -15t45.5 -42t16 -62t-16 -62t-45.5 -42t-68.5 -15t-68 15zM317 633.5q14 13.5 14 36.5t-14 37t-38 14q-23 0 -37 -14t-14 -37t14 -36.5t37 -13.5q24 0 38 13.5z" />
    <glyph glyph-name="aringacute" unicode="&#x1fb;" horiz-adv-x="568" 
d="M414 484q50 -25 71 -73t21 -121v-290h-140v59q-50 -72 -158 -72q-86 0 -130 41t-44 112q0 60 29 95t84 50t138 15h81v11q0 34 -7 55.5t-25.5 33t-52.5 11.5q-87 0 -87 -73h-142q0 82 58.5 126.5t168.5 44.5q85 0 135 -25zM343 123q23 32 23 89v4h-71q-59 0 -86 -14
t-27 -49q0 -62 79 -62q59 0 82 32zM211 566q-29 15 -45 42t-16 62q0 36 16 63t45 41.5t68 14.5t68.5 -15t45.5 -42t16 -62t-16 -62t-45.5 -42t-68.5 -15t-68 15zM317 633.5q14 13.5 14 36.5t-14 37t-38 14q-23 0 -37 -14t-14 -37t14 -36.5t37 -13.5q24 0 38 13.5zM285 1020
h136l-103 -156h-123z" />
    <glyph glyph-name="atilde" unicode="&#xe3;" horiz-adv-x="568" 
d="M414 484q50 -25 71 -73t21 -121v-290h-140v59q-50 -72 -158 -72q-86 0 -130 41t-44 112q0 60 29 95t84 50t138 15h81v11q0 34 -7 55.5t-25.5 33t-52.5 11.5q-87 0 -87 -73h-142q0 82 58.5 126.5t168.5 44.5q85 0 135 -25zM343 123q23 32 23 89v4h-71q-59 0 -86 -14
t-27 -49q0 -62 79 -62q59 0 82 32zM312.5 577.5q-20.5 8.5 -38.5 25.5q-21 17 -33.5 24.5t-26.5 7.5q-17 0 -25 -15.5t-10 -48.5h-80q2 81 26 120t74 39q23 0 43 -9t41 -27q22 -17 34 -24t25 -7q19 0 26.5 15t9.5 50h80q-2 -82 -26 -120.5t-75 -38.5q-24 0 -44.5 8.5z" />
    <glyph glyph-name="ae" unicode="&#xe6;" horiz-adv-x="873" 
d="M659.5 108.5q20.5 15.5 28.5 44.5h144q-7 -53 -38 -90.5t-78.5 -56.5t-106.5 -19q-67 0 -114.5 23t-76.5 65q-33 -44 -80 -66t-114 -22q-95 0 -142.5 40.5t-47.5 112.5q0 60 29.5 95t84.5 50t137 15h81v9q0 36 -7 57.5t-25 33t-53 11.5q-46 0 -66.5 -19t-20.5 -54h-142
q0 82 58.5 126.5t168.5 44.5q61 0 102 -13t66 -39q59 52 151 52q79 0 132.5 -33.5t80.5 -93.5q15 -33 20 -71.5t5 -94.5h-330q4 -60 26.5 -91.5t72.5 -31.5q34 0 54.5 15.5zM533.5 379.5q-21.5 -27.5 -26.5 -79.5h185q-3 50 -23.5 78.5t-67.5 28.5q-46 0 -67.5 -27.5z
M366 217h-71q-55 0 -84 -14t-29 -50q0 -30 22 -46t58 -16q41 0 64 14.5t31.5 41t8.5 65.5v5z" />
    <glyph glyph-name="aeacute" unicode="&#x1fd;" horiz-adv-x="873" 
d="M659.5 108.5q20.5 15.5 28.5 44.5h144q-7 -53 -38 -90.5t-78.5 -56.5t-106.5 -19q-67 0 -114.5 23t-76.5 65q-33 -44 -80 -66t-114 -22q-95 0 -142.5 40.5t-47.5 112.5q0 60 29.5 95t84.5 50t137 15h81v9q0 36 -7 57.5t-25 33t-53 11.5q-46 0 -66.5 -19t-20.5 -54h-142
q0 82 58.5 126.5t168.5 44.5q61 0 102 -13t66 -39q59 52 151 52q79 0 132.5 -33.5t80.5 -93.5q15 -33 20 -71.5t5 -94.5h-330q4 -60 26.5 -91.5t72.5 -31.5q34 0 54.5 15.5zM533.5 379.5q-21.5 -27.5 -26.5 -79.5h185q-3 50 -23.5 78.5t-67.5 28.5q-46 0 -67.5 -27.5z
M366 217h-71q-55 0 -84 -14t-29 -50q0 -30 22 -46t58 -16q41 0 64 14.5t31.5 41t8.5 65.5v5zM451 727h136l-103 -156h-123z" />
    <glyph glyph-name="cacute" unicode="&#x107;" horiz-adv-x="560" 
d="M146 22q-56 34 -82.5 92.5t-26.5 132.5q0 75 27 134t83 93.5t138 34.5q68 0 121 -23.5t83.5 -68.5t33.5 -108h-151q-2 40 -25 62t-62 22q-55 0 -78.5 -40t-23.5 -106q0 -143 102 -143q40 0 62.5 23.5t24.5 60.5h151q-2 -63 -33.5 -108.5t-84.5 -68.5t-120 -23
q-83 0 -139 34zM292 727h136l-103 -156h-123z" />
    <glyph glyph-name="ccaron" unicode="&#x10d;" horiz-adv-x="560" 
d="M146 22q-56 34 -82.5 92.5t-26.5 132.5q0 75 27 134t83 93.5t138 34.5q68 0 121 -23.5t83.5 -68.5t33.5 -108h-151q-2 40 -25 62t-62 22q-55 0 -78.5 -40t-23.5 -106q0 -143 102 -143q40 0 62.5 23.5t24.5 60.5h151q-2 -63 -33.5 -108.5t-84.5 -68.5t-120 -23
q-83 0 -139 34zM366 570h-162l-100 157h123l58 -94l58 94h124z" />
    <glyph glyph-name="ccedilla" unicode="&#xe7;" horiz-adv-x="560" 
d="M347.5 127.5q22.5 23.5 24.5 60.5h151q-2 -57 -28 -99.5t-70 -67.5t-102 -31l-8 -29h9q46 0 72 -25t26 -65q0 -53 -37.5 -77t-106.5 -24q-53 0 -95 16l14 67q32 -13 70 -13q28 0 43 8t15 26q0 17 -14.5 25.5t-46.5 8.5h-56l21 85q-64 11 -107 46.5t-64 89t-21 118.5
q0 75 27 134t83 93.5t138 34.5q68 0 121 -23.5t83.5 -68.5t33.5 -108h-151q-2 40 -25 62t-62 22q-55 0 -78.5 -40t-23.5 -106q0 -143 102 -143q40 0 62.5 23.5z" />
    <glyph glyph-name="ccircumflex" unicode="&#x109;" horiz-adv-x="560" 
d="M146 22q-56 34 -82.5 92.5t-26.5 132.5q0 75 27 134t83 93.5t138 34.5q68 0 121 -23.5t83.5 -68.5t33.5 -108h-151q-2 40 -25 62t-62 22q-55 0 -78.5 -40t-23.5 -106q0 -143 102 -143q40 0 62.5 23.5t24.5 60.5h151q-2 -63 -33.5 -108.5t-84.5 -68.5t-120 -23
q-83 0 -139 34zM205 728h162l100 -158h-123l-59 95l-57 -95h-124z" />
    <glyph glyph-name="cdotaccent" unicode="&#x10b;" horiz-adv-x="560" 
d="M146 22q-56 34 -82.5 92.5t-26.5 132.5q0 75 27 134t83 93.5t138 34.5q68 0 121 -23.5t83.5 -68.5t33.5 -108h-151q-2 40 -25 62t-62 22q-55 0 -78.5 -40t-23.5 -106q0 -143 102 -143q40 0 62.5 23.5t24.5 60.5h151q-2 -63 -33.5 -108.5t-84.5 -68.5t-120 -23
q-83 0 -139 34zM245 586.5q-18 9.5 -28 26.5t-10 38q0 33 22 54.5t56 21.5q22 0 39.5 -10t28 -27t10.5 -39q0 -21 -10.5 -38t-28 -26.5t-39.5 -9.5t-40 9.5z" />
    <glyph glyph-name="eth" unicode="&#xf0;" horiz-adv-x="583" 
d="M516.5 426q29.5 -83 29.5 -174q0 -125 -60.5 -194.5t-201.5 -69.5q-125 0 -186 63.5t-61 174.5q0 67 23 122t70.5 88.5t117.5 33.5q73 0 123 -37q-28 58 -72 121l-207 -68v86l155 51q-28 36 -68 81v2h160q24 -28 35 -42l119 39v-86l-67 -22q61 -86 90.5 -169zM375.5 138
q24.5 37 24.5 96q0 60 -24.5 96t-81.5 36q-59 0 -85 -37t-26 -97t25.5 -95.5t85.5 -35.5q57 0 81.5 37z" />
    <glyph glyph-name="dcaron" unicode="&#x10f;" horiz-adv-x="700" 
d="M531 706v-706h-134v64q-50 -76 -150 -76q-72 0 -119 35t-69 93.5t-22 130.5q0 73 22 132t69 94.5t119 35.5q97 0 147 -71v268h137zM395 264q0 63 -26 96t-77 33q-60 0 -84.5 -39t-24.5 -107q0 -66 24 -104.5t85 -38.5q51 0 77 32.5t26 95.5v32zM604 706h116l-39 -171
h-102z" />
    <glyph glyph-name="dcroat" unicode="&#x111;" horiz-adv-x="598" 
d="M565 565h-34v-565h-134v64q-50 -76 -150 -76q-72 0 -119 35t-69 93.5t-22 130.5q0 73 22 132t69 94.5t119 35.5q97 0 147 -71v127h-180v82h180v59h137v-59h34v-82zM395 264q0 63 -26 96t-77 33q-60 0 -84.5 -39t-24.5 -107q0 -66 24 -104.5t85 -38.5q51 0 77 32.5
t26 95.5v32z" />
    <glyph glyph-name="eacute" unicode="&#xe9;" horiz-adv-x="573" 
d="M354.5 108.5q24.5 15.5 33.5 44.5h142q-8 -52 -40.5 -89.5t-83 -56.5t-111.5 -19q-88 0 -145.5 33.5t-85 92t-27.5 135.5q0 75 27 133.5t82.5 92.5t138.5 34q82 0 140.5 -34t84.5 -96q15 -34 20 -69.5t5 -94.5h-355q3 -60 27.5 -91t84.5 -31q38 0 62.5 15.5zM213 380
q-25 -27 -31 -79h209q-6 52 -30 79t-74 27q-49 0 -74 -27zM291 727h136l-103 -156h-123z" />
    <glyph glyph-name="ebreve" unicode="&#x115;" horiz-adv-x="573" 
d="M354.5 108.5q24.5 15.5 33.5 44.5h142q-8 -52 -40.5 -89.5t-83 -56.5t-111.5 -19q-88 0 -145.5 33.5t-85 92t-27.5 135.5q0 75 27 133.5t82.5 92.5t138.5 34q82 0 140.5 -34t84.5 -96q15 -34 20 -69.5t5 -94.5h-355q3 -60 27.5 -91t84.5 -31q38 0 62.5 15.5zM213 380
q-25 -27 -31 -79h209q-6 52 -30 79t-74 27q-49 0 -74 -27zM111 728h100q4 -45 21.5 -65.5t53.5 -20.5t53 20.5t22 65.5h98q-8 -164 -173 -164q-166 0 -175 164z" />
    <glyph glyph-name="ecaron" unicode="&#x11b;" horiz-adv-x="573" 
d="M354.5 108.5q24.5 15.5 33.5 44.5h142q-8 -52 -40.5 -89.5t-83 -56.5t-111.5 -19q-88 0 -145.5 33.5t-85 92t-27.5 135.5q0 75 27 133.5t82.5 92.5t138.5 34q82 0 140.5 -34t84.5 -96q15 -34 20 -69.5t5 -94.5h-355q3 -60 27.5 -91t84.5 -31q38 0 62.5 15.5zM213 380
q-25 -27 -31 -79h209q-6 52 -30 79t-74 27q-49 0 -74 -27zM365 570h-162l-100 157h123l58 -94l58 94h124z" />
    <glyph glyph-name="ecircumflex" unicode="&#xea;" horiz-adv-x="573" 
d="M354.5 108.5q24.5 15.5 33.5 44.5h142q-8 -52 -40.5 -89.5t-83 -56.5t-111.5 -19q-88 0 -145.5 33.5t-85 92t-27.5 135.5q0 75 27 133.5t82.5 92.5t138.5 34q82 0 140.5 -34t84.5 -96q15 -34 20 -69.5t5 -94.5h-355q3 -60 27.5 -91t84.5 -31q38 0 62.5 15.5zM213 380
q-25 -27 -31 -79h209q-6 52 -30 79t-74 27q-49 0 -74 -27zM204 728h162l100 -158h-123l-59 95l-57 -95h-124z" />
    <glyph glyph-name="edieresis" unicode="&#xeb;" horiz-adv-x="573" 
d="M354.5 108.5q24.5 15.5 33.5 44.5h142q-8 -52 -40.5 -89.5t-83 -56.5t-111.5 -19q-88 0 -145.5 33.5t-85 92t-27.5 135.5q0 75 27 133.5t82.5 92.5t138.5 34q82 0 140.5 -34t84.5 -96q15 -34 20 -69.5t5 -94.5h-355q3 -60 27.5 -91t84.5 -31q38 0 62.5 15.5zM213 380
q-25 -27 -31 -79h209q-6 52 -30 79t-74 27q-49 0 -74 -27zM146 582.5q-17 9.5 -27 26t-10 36.5t10 36.5t27 26t38 9.5t38 -9.5t26.5 -26t9.5 -36.5t-9.5 -36.5t-26.5 -26t-38 -9.5t-38 9.5zM350 582.5q-17 9.5 -27 26t-10 36.5t10 36.5t27 26t38 9.5q20 0 37 -9.5t27 -26
t10 -36.5t-10 -36.5t-27 -26t-37 -9.5q-21 0 -38 9.5z" />
    <glyph glyph-name="edotaccent" unicode="&#x117;" horiz-adv-x="573" 
d="M354.5 108.5q24.5 15.5 33.5 44.5h142q-8 -52 -40.5 -89.5t-83 -56.5t-111.5 -19q-88 0 -145.5 33.5t-85 92t-27.5 135.5q0 75 27 133.5t82.5 92.5t138.5 34q82 0 140.5 -34t84.5 -96q15 -34 20 -69.5t5 -94.5h-355q3 -60 27.5 -91t84.5 -31q38 0 62.5 15.5zM213 380
q-25 -27 -31 -79h209q-6 52 -30 79t-74 27q-49 0 -74 -27zM245 586.5q-18 9.5 -28 26.5t-10 38q0 33 22 54.5t56 21.5q22 0 39.5 -10t28 -27t10.5 -39q0 -21 -10.5 -38t-28 -26.5t-39.5 -9.5t-40 9.5z" />
    <glyph glyph-name="egrave" unicode="&#xe8;" horiz-adv-x="573" 
d="M354.5 108.5q24.5 15.5 33.5 44.5h142q-8 -52 -40.5 -89.5t-83 -56.5t-111.5 -19q-88 0 -145.5 33.5t-85 92t-27.5 135.5q0 75 27 133.5t82.5 92.5t138.5 34q82 0 140.5 -34t84.5 -96q15 -34 20 -69.5t5 -94.5h-355q3 -60 27.5 -91t84.5 -31q38 0 62.5 15.5zM213 380
q-25 -27 -31 -79h209q-6 52 -30 79t-74 27q-49 0 -74 -27zM246 571l-103 156h137l89 -156h-123z" />
    <glyph glyph-name="emacron" unicode="&#x113;" horiz-adv-x="573" 
d="M354.5 108.5q24.5 15.5 33.5 44.5h142q-8 -52 -40.5 -89.5t-83 -56.5t-111.5 -19q-88 0 -145.5 33.5t-85 92t-27.5 135.5q0 75 27 133.5t82.5 92.5t138.5 34q82 0 140.5 -34t84.5 -96q15 -34 20 -69.5t5 -94.5h-355q3 -60 27.5 -91t84.5 -31q38 0 62.5 15.5zM213 380
q-25 -27 -31 -79h209q-6 52 -30 79t-74 27q-49 0 -74 -27zM135 688h299v-89h-299v89z" />
    <glyph glyph-name="eogonek" unicode="&#x119;" horiz-adv-x="559" 
d="M355 108.5q25 15.5 33 44.5h142q-6 -38 -26.5 -70t-63.5 -70q-41 -37 -58 -59t-17 -45q0 -20 11.5 -30t30.5 -10q22 0 39 8v-79q-34 -12 -75 -12q-53 0 -84.5 25.5t-31.5 72.5q0 31 15 56.5t44 47.5h-19q-88 0 -145.5 33.5t-85 92t-27.5 135.5q0 75 27 133.5t82.5 92.5
t138.5 34q82 0 140.5 -34t84.5 -96q15 -34 20 -69.5t5 -94.5h-355q3 -60 27.5 -91t84.5 -31q38 0 63 15.5zM213 380q-25 -27 -31 -79h209q-6 52 -30 79t-74 27q-49 0 -74 -27z" />
    <glyph glyph-name="schwa" unicode="&#x259;" horiz-adv-x="572" 
d="M422.5 474.5q57.5 -33.5 85 -92t27.5 -135.5q0 -75 -27 -133.5t-82.5 -92.5t-138.5 -34q-82 0 -140 34.5t-85 95.5q-15 35 -20 71t-5 93h355q-3 60 -27.5 91t-83.5 31q-38 0 -63 -15.5t-33 -44.5h-142q7 52 39.5 89.5t83 56.5t111.5 19q88 0 145.5 -33.5zM359.5 116
q24.5 27 30.5 80h-209q5 -53 29 -80t75 -27q50 0 74.5 27z" />
    <glyph glyph-name="gbreve" unicode="&#x11f;" horiz-adv-x="598" 
d="M531 496v-476q0 -234 -242 -234q-101 0 -165 40t-75 118h146q6 -26 29.5 -40t62.5 -14q59 0 84.5 32t25.5 82v70q-51 -81 -156 -81q-70 0 -116 35t-67 93.5t-21 130.5q0 73 21.5 131t67 92t115.5 34q105 0 156 -81v68h134zM395 265q0 63 -27 95.5t-79 32.5
q-60 0 -83 -38.5t-23 -103.5q0 -67 23.5 -106.5t83.5 -39.5q52 0 78.5 32.5t26.5 94.5v33zM115 728h100q4 -45 21.5 -65.5t53.5 -20.5t53 20.5t22 65.5h98q-8 -164 -173 -164q-166 0 -175 164z" />
    <glyph glyph-name="gcircumflex" unicode="&#x11d;" horiz-adv-x="598" 
d="M531 496v-476q0 -234 -242 -234q-101 0 -165 40t-75 118h146q6 -26 29.5 -40t62.5 -14q59 0 84.5 32t25.5 82v70q-51 -81 -156 -81q-70 0 -116 35t-67 93.5t-21 130.5q0 73 21.5 131t67 92t115.5 34q105 0 156 -81v68h134zM395 265q0 63 -27 95.5t-79 32.5
q-60 0 -83 -38.5t-23 -103.5q0 -67 23.5 -106.5t83.5 -39.5q52 0 78.5 32.5t26.5 94.5v33zM209 728h162l100 -158h-123l-59 95l-57 -95h-124z" />
    <glyph glyph-name="gcommaaccent" unicode="&#x123;" horiz-adv-x="598" 
d="M531 496v-476q0 -234 -242 -234q-101 0 -165 40t-75 118h146q6 -26 29.5 -40t62.5 -14q59 0 84.5 32t25.5 82v70q-51 -81 -156 -81q-70 0 -116 35t-67 93.5t-21 130.5q0 73 21.5 131t67 92t115.5 34q105 0 156 -81v68h134zM395 265q0 63 -27 95.5t-79 32.5
q-60 0 -83 -38.5t-23 -103.5q0 -67 23.5 -106.5t83.5 -39.5q52 0 78.5 32.5t26.5 94.5v33zM333 571h-141l52 147h126z" />
    <glyph glyph-name="gdotaccent" unicode="&#x121;" horiz-adv-x="598" 
d="M531 496v-476q0 -234 -242 -234q-101 0 -165 40t-75 118h146q6 -26 29.5 -40t62.5 -14q59 0 84.5 32t25.5 82v70q-51 -81 -156 -81q-70 0 -116 35t-67 93.5t-21 130.5q0 73 21.5 131t67 92t115.5 34q105 0 156 -81v68h134zM395 265q0 63 -27 95.5t-79 32.5
q-60 0 -83 -38.5t-23 -103.5q0 -67 23.5 -106.5t83.5 -39.5q52 0 78.5 32.5t26.5 94.5v33zM249 586.5q-18 9.5 -28 26.5t-10 38q0 33 22 54.5t56 21.5q22 0 39.5 -10t28 -27t10.5 -39q0 -21 -10.5 -38t-28 -26.5t-39.5 -9.5t-40 9.5z" />
    <glyph glyph-name="hbar" unicode="&#x127;" horiz-adv-x="583" 
d="M476.5 460.5q43.5 -48.5 43.5 -140.5v-320h-138v290q0 54 -20.5 78.5t-64.5 24.5q-45 0 -69 -26.5t-24 -79.5v-287h-137v565h-45v82h45v59h137v-59h169v-82h-169v-132q49 76 148 76q81 0 124.5 -48.5z" />
    <glyph glyph-name="hcircumflex" unicode="&#x125;" horiz-adv-x="583" 
d="M476.5 460.5q43.5 -48.5 43.5 -140.5v-320h-138v290q0 54 -20.5 78.5t-64.5 24.5q-45 0 -69 -26.5t-24 -79.5v-287h-137v706h137v-273q49 76 148 76q81 0 124.5 -48.5zM215 911h158l107 -137h-126l-61 75l-60 -75h-126z" />
    <glyph glyph-name="dotlessi" unicode="&#x131;" horiz-adv-x="271" 
d="M67 496h137v-496h-137v496z" />
    <glyph glyph-name="iacute" unicode="&#xed;" horiz-adv-x="271" 
d="M67 496h137v-496h-137v496zM131 727h136l-91 -156h-118z" />
    <glyph glyph-name="ibreve" unicode="&#x12d;" horiz-adv-x="271" 
d="M67 496h137v-496h-137v496zM32 604.5q-35 41.5 -35 123.5h88q0 -48 12 -67t39 -19q26 0 38 19t12 67h88q-1 -82 -35.5 -123.5t-102.5 -41.5q-69 0 -104 41.5z" />
    <glyph glyph-name="icircumflex" unicode="&#xee;" horiz-adv-x="271" 
d="M67 496h137v-496h-137v496zM69 728h133l78 -158h-101l-43 92l-44 -92h-101z" />
    <glyph glyph-name="idieresis" unicode="&#xef;" horiz-adv-x="271" 
d="M67 496h137v-496h-137v496zM15.5 597.5q-17.5 18.5 -17.5 48.5q0 31 17.5 49.5t45.5 18.5t45 -18.5t17 -49.5q0 -30 -17 -48.5t-45 -18.5t-45.5 18.5zM164.5 597.5q-17.5 18.5 -17.5 48.5q0 31 17.5 49.5t45.5 18.5t45 -18.5t17 -49.5q0 -30 -17 -48.5t-45 -18.5
t-45.5 18.5z" />
    <glyph glyph-name="i.loclTRK" horiz-adv-x="271" 
d="M67 496h137v-496h-137v496zM96 586.5q-18 9.5 -28 26.5t-10 38q0 33 22 54.5t56 21.5q22 0 39.5 -10t28 -27t10.5 -39q0 -21 -10.5 -38t-28 -26.5t-39.5 -9.5t-40 9.5z" />
    <glyph glyph-name="igrave" unicode="&#xec;" horiz-adv-x="271" 
d="M67 496h137v-496h-137v496zM95 571l-91 156h135l74 -156h-118z" />
    <glyph glyph-name="ij" unicode="&#x133;" horiz-adv-x="542" 
d="M96 586q-18 10 -28 27t-10 38t10 38.5t28 27.5t40 10t39.5 -10t28 -27.5t10.5 -38.5t-10.5 -38t-28 -27t-39.5 -10t-40 10zM67 496h137v-496h-137v496zM367 586q-18 10 -28 27t-10 38t10 38.5t28 27.5t40 10q21 0 39 -10t28.5 -27.5t10.5 -38.5t-10.5 -38t-28.5 -27
t-39 -10q-22 0 -40 10zM254 -201v120q12 -2 32 -2q27 0 39.5 13t12.5 42v524h137v-540q0 -57 -16.5 -92t-51.5 -51.5t-91 -16.5q-43 0 -62 3z" />
    <glyph glyph-name="imacron" unicode="&#x12b;" horiz-adv-x="271" 
d="M67 496h137v-496h-137v496zM13 688h244v-89h-244v89z" />
    <glyph glyph-name="iogonek" unicode="&#x12f;" horiz-adv-x="271" 
d="M96 586q-18 10 -28 27t-10 38t10 38.5t28 27.5t40 10t39.5 -10t28 -27.5t10.5 -38.5t-10.5 -38t-28 -27t-39.5 -10t-40 10zM157 -124q8 -7 21 -7q16 0 31 7v-78q-26 -11 -64 -11q-49 0 -78 22t-29 62t18.5 71t53.5 58h-43v496h137v-496q-28 -30 -41.5 -54t-13.5 -50
q0 -13 8 -20z" />
    <glyph glyph-name="itilde" unicode="&#x129;" horiz-adv-x="271" 
d="M67 496h137v-496h-137v496zM154.5 579.5q-15.5 10.5 -29.5 29.5q-11 15 -17.5 21.5t-14.5 6.5q-14 0 -19.5 -16t-6.5 -50h-75q1 56 9 90.5t25.5 51.5t48.5 17q25 0 41 -10.5t30 -30.5q9 -14 15.5 -20.5t15.5 -6.5q14 0 19.5 15.5t6.5 50.5h76q-2 -56 -10 -90.5t-26 -51.5
t-49 -17q-24 0 -39.5 10.5z" />
    <glyph glyph-name="dotlessj" unicode="&#x237;" horiz-adv-x="271" 
d="M-17 -201v120q12 -2 32 -2q27 0 39.5 13t12.5 42v524h137v-540q0 -57 -16.5 -92t-51.5 -51.5t-91 -16.5q-43 0 -62 3z" />
    <glyph glyph-name="uni006A0301" horiz-adv-x="271" 
d="M-17 -201v120q12 -2 32 -2q27 0 39.5 13t12.5 42v524h137v-540q0 -57 -16.5 -92t-51.5 -51.5t-91 -16.5q-43 0 -62 3zM131 727h136l-91 -156h-118z" />
    <glyph glyph-name="jcircumflex" unicode="&#x135;" horiz-adv-x="271" 
d="M-17 -201v120q12 -2 32 -2q27 0 39.5 13t12.5 42v524h137v-540q0 -57 -16.5 -92t-51.5 -51.5t-91 -16.5q-43 0 -62 3zM69 728h133l78 -158h-101l-43 92l-44 -92h-101z" />
    <glyph glyph-name="kcommaaccent" unicode="&#x137;" horiz-adv-x="535" 
d="M369 0l-165 219v-219h-137v706h137v-382l147 172h173l-199 -223l222 -273h-178zM212 -52h142l-52 -148h-126z" />
    <glyph glyph-name="kgreenlandic" unicode="&#x138;" horiz-adv-x="535" 
d="M369 0l-165 219v-219h-137v496h137v-172l147 172h173l-199 -223l222 -273h-178z" />
    <glyph glyph-name="lacute" unicode="&#x13a;" horiz-adv-x="271" 
d="M67 706h137v-706h-137v706zM146 911h144l-114 -137h-130z" />
    <glyph glyph-name="lcaron" unicode="&#x13e;" horiz-adv-x="363" 
d="M67 706h137v-706h-137v706zM269 706h116l-39 -171h-102z" />
    <glyph glyph-name="lcommaaccent" unicode="&#x13c;" horiz-adv-x="271" 
d="M67 706h137v-706h-137v706zM65 -52h142l-52 -148h-126z" />
    <glyph glyph-name="ldot" unicode="&#x140;" horiz-adv-x="448" 
d="M67 706h137v-706h-137v706zM313 259q-20 11 -31 31t-11 45t11 45t31 31t46 11t46 -11t31.5 -31t11.5 -45t-11.5 -45t-31.5 -31t-46 -11t-46 11z" />
    <glyph glyph-name="lslash" unicode="&#x142;" horiz-adv-x="287" 
d="M282 407l-70 -50v-357h-137v290l-69 -46v115l69 46v301h137v-232l70 48v-115z" />
    <glyph glyph-name="nacute" unicode="&#x144;" horiz-adv-x="583" 
d="M476.5 460.5q43.5 -48.5 43.5 -140.5v-320h-138v290q0 54 -20.5 78.5t-64.5 24.5q-45 0 -69 -26.5t-24 -79.5v-287h-137v496h137v-63q49 76 148 76q81 0 124.5 -48.5zM311 727h136l-103 -156h-123z" />
    <glyph glyph-name="napostrophe" unicode="&#x149;" horiz-adv-x="757" 
d="M106 706h143l-104 -282h-107zM650.5 460.5q43.5 -48.5 43.5 -140.5v-320h-138v290q0 54 -20.5 78.5t-64.5 24.5q-45 0 -69 -26.5t-24 -79.5v-287h-137v496h137v-63q49 76 148 76q81 0 124.5 -48.5z" />
    <glyph glyph-name="ncaron" unicode="&#x148;" horiz-adv-x="583" 
d="M476.5 460.5q43.5 -48.5 43.5 -140.5v-320h-138v290q0 54 -20.5 78.5t-64.5 24.5q-45 0 -69 -26.5t-24 -79.5v-287h-137v496h137v-63q49 76 148 76q81 0 124.5 -48.5zM385 570h-162l-100 157h123l58 -94l58 94h124z" />
    <glyph glyph-name="ncommaaccent" unicode="&#x146;" horiz-adv-x="583" 
d="M476.5 460.5q43.5 -48.5 43.5 -140.5v-320h-138v290q0 54 -20.5 78.5t-64.5 24.5q-45 0 -69 -26.5t-24 -79.5v-287h-137v496h137v-63q49 76 148 76q81 0 124.5 -48.5zM227 -52h142l-52 -148h-126z" />
    <glyph glyph-name="eng" unicode="&#x14b;" horiz-adv-x="583" 
d="M476.5 460.5q43.5 -48.5 43.5 -140.5v-363q0 -85 -38 -123t-121 -38q-31 0 -63 3v119q14 -2 33 -2q27 0 39 13t12 42v319q0 54 -20.5 78.5t-64.5 24.5q-45 0 -69 -26.5t-24 -79.5v-287h-137v496h137v-63q49 76 148 76q81 0 124.5 -48.5z" />
    <glyph glyph-name="ntilde" unicode="&#xf1;" horiz-adv-x="583" 
d="M476.5 460.5q43.5 -48.5 43.5 -140.5v-320h-138v290q0 54 -20.5 78.5t-64.5 24.5q-45 0 -69 -26.5t-24 -79.5v-287h-137v496h137v-63q49 76 148 76q81 0 124.5 -48.5zM338.5 577.5q-20.5 8.5 -38.5 25.5q-21 17 -33.5 24.5t-26.5 7.5q-17 0 -25 -15.5t-10 -48.5h-80
q2 81 26 120t74 39q23 0 43 -9t41 -27q22 -17 34 -24t25 -7q19 0 26.5 15t9.5 50h80q-2 -82 -26 -120.5t-75 -38.5q-24 0 -44.5 8.5z" />
    <glyph glyph-name="oacute" unicode="&#xf3;" horiz-adv-x="577" 
d="M148 22.5q-57 35.5 -84 94.5t-27 132q0 74 27.5 132.5t84.5 93t140 34.5q85 0 141.5 -35t83 -93.5t26.5 -131.5q0 -74 -27 -133.5t-83.5 -94t-140.5 -34.5t-141 35.5zM372 143q22 39 22 106q0 68 -22.5 106t-82.5 38t-83 -38.5t-23 -105.5q0 -69 23.5 -107t82.5 -38
q61 0 83 39zM295 727h136l-103 -156h-123z" />
    <glyph glyph-name="obreve" unicode="&#x14f;" horiz-adv-x="577" 
d="M148 22.5q-57 35.5 -84 94.5t-27 132q0 74 27.5 132.5t84.5 93t140 34.5q85 0 141.5 -35t83 -93.5t26.5 -131.5q0 -74 -27 -133.5t-83.5 -94t-140.5 -34.5t-141 35.5zM372 143q22 39 22 106q0 68 -22.5 106t-82.5 38t-83 -38.5t-23 -105.5q0 -69 23.5 -107t82.5 -38
q61 0 83 39zM115 728h100q4 -45 21.5 -65.5t53.5 -20.5t53 20.5t22 65.5h98q-8 -164 -173 -164q-166 0 -175 164z" />
    <glyph glyph-name="ocircumflex" unicode="&#xf4;" horiz-adv-x="577" 
d="M148 22.5q-57 35.5 -84 94.5t-27 132q0 74 27.5 132.5t84.5 93t140 34.5q85 0 141.5 -35t83 -93.5t26.5 -131.5q0 -74 -27 -133.5t-83.5 -94t-140.5 -34.5t-141 35.5zM372 143q22 39 22 106q0 68 -22.5 106t-82.5 38t-83 -38.5t-23 -105.5q0 -69 23.5 -107t82.5 -38
q61 0 83 39zM208 728h162l100 -158h-123l-59 95l-57 -95h-124z" />
    <glyph glyph-name="odieresis" unicode="&#xf6;" horiz-adv-x="577" 
d="M148 22.5q-57 35.5 -84 94.5t-27 132q0 74 27.5 132.5t84.5 93t140 34.5q85 0 141.5 -35t83 -93.5t26.5 -131.5q0 -74 -27 -133.5t-83.5 -94t-140.5 -34.5t-141 35.5zM372 143q22 39 22 106q0 68 -22.5 106t-82.5 38t-83 -38.5t-23 -105.5q0 -69 23.5 -107t82.5 -38
q61 0 83 39zM150 582.5q-17 9.5 -27 26t-10 36.5t10 36.5t27 26t38 9.5t38 -9.5t26.5 -26t9.5 -36.5t-9.5 -36.5t-26.5 -26t-38 -9.5t-38 9.5zM354 582.5q-17 9.5 -27 26t-10 36.5t10 36.5t27 26t38 9.5q20 0 37 -9.5t27 -26t10 -36.5t-10 -36.5t-27 -26t-37 -9.5
q-21 0 -38 9.5z" />
    <glyph glyph-name="ograve" unicode="&#xf2;" horiz-adv-x="577" 
d="M148 22.5q-57 35.5 -84 94.5t-27 132q0 74 27.5 132.5t84.5 93t140 34.5q85 0 141.5 -35t83 -93.5t26.5 -131.5q0 -74 -27 -133.5t-83.5 -94t-140.5 -34.5t-141 35.5zM372 143q22 39 22 106q0 68 -22.5 106t-82.5 38t-83 -38.5t-23 -105.5q0 -69 23.5 -107t82.5 -38
q61 0 83 39zM250 571l-103 156h137l89 -156h-123z" />
    <glyph glyph-name="ohungarumlaut" unicode="&#x151;" horiz-adv-x="577" 
d="M148 22.5q-57 35.5 -84 94.5t-27 132q0 74 27.5 132.5t84.5 93t140 34.5q85 0 141.5 -35t83 -93.5t26.5 -131.5q0 -74 -27 -133.5t-83.5 -94t-140.5 -34.5t-141 35.5zM372 143q22 39 22 106q0 68 -22.5 106t-82.5 38t-83 -38.5t-23 -105.5q0 -69 23.5 -107t82.5 -38
q61 0 83 39zM240 728h117l-119 -157h-95zM410 728h116l-118 -157h-95z" />
    <glyph glyph-name="omacron" unicode="&#x14d;" horiz-adv-x="577" 
d="M148 22.5q-57 35.5 -84 94.5t-27 132q0 74 27.5 132.5t84.5 93t140 34.5q85 0 141.5 -35t83 -93.5t26.5 -131.5q0 -74 -27 -133.5t-83.5 -94t-140.5 -34.5t-141 35.5zM372 143q22 39 22 106q0 68 -22.5 106t-82.5 38t-83 -38.5t-23 -105.5q0 -69 23.5 -107t82.5 -38
q61 0 83 39zM139 688h299v-89h-299v89z" />
    <glyph glyph-name="oslash" unicode="&#xf8;" horiz-adv-x="577" 
d="M485 427q28 -34 41.5 -80t13.5 -98q0 -74 -27 -133.5t-83.5 -94t-140.5 -34.5q-91 0 -152 42l-27 -29h-81l64 71q-28 34 -42 80t-14 98q0 74 27.5 132.5t84.5 93t140 34.5q91 0 151 -41l26 28h81zM206 354.5q-23 -38.5 -23 -105.5q0 -43 8 -71l166 194q-26 21 -68 21
q-60 0 -83 -38.5zM372 143q22 39 22 106q0 43 -8 71l-166 -193q25 -23 69 -23q61 0 83 39z" />
    <glyph glyph-name="oslashacute" unicode="&#x1ff;" horiz-adv-x="577" 
d="M485 427q28 -34 41.5 -80t13.5 -98q0 -74 -27 -133.5t-83.5 -94t-140.5 -34.5q-91 0 -152 42l-27 -29h-81l64 71q-28 34 -42 80t-14 98q0 74 27.5 132.5t84.5 93t140 34.5q91 0 151 -41l26 28h81zM206 354.5q-23 -38.5 -23 -105.5q0 -43 8 -71l166 194q-26 21 -68 21
q-60 0 -83 -38.5zM372 143q22 39 22 106q0 43 -8 71l-166 -193q25 -23 69 -23q61 0 83 39zM295 727h136l-103 -156h-123z" />
    <glyph glyph-name="otilde" unicode="&#xf5;" horiz-adv-x="577" 
d="M148 22.5q-57 35.5 -84 94.5t-27 132q0 74 27.5 132.5t84.5 93t140 34.5q85 0 141.5 -35t83 -93.5t26.5 -131.5q0 -74 -27 -133.5t-83.5 -94t-140.5 -34.5t-141 35.5zM372 143q22 39 22 106q0 68 -22.5 106t-82.5 38t-83 -38.5t-23 -105.5q0 -69 23.5 -107t82.5 -38
q61 0 83 39zM322.5 577.5q-20.5 8.5 -38.5 25.5q-21 17 -33.5 24.5t-26.5 7.5q-17 0 -25 -15.5t-10 -48.5h-80q2 81 26 120t74 39q23 0 43 -9t41 -27q22 -17 34 -24t25 -7q19 0 26.5 15t9.5 50h80q-2 -82 -26 -120.5t-75 -38.5q-24 0 -44.5 8.5z" />
    <glyph glyph-name="oe" unicode="&#x153;" horiz-adv-x="880" 
d="M666 110q21 17 28 43h144q-8 -51 -38 -88.5t-78 -57.5t-107 -20q-111 0 -172 64q-29 -30 -70.5 -46.5t-94.5 -16.5q-81 0 -135 35t-80 94t-26 132q0 74 26 132.5t80.5 93t134.5 34.5q105 0 165 -62q28 30 68.5 46t92.5 16q79 0 132.5 -33.5t80.5 -93.5q15 -33 20.5 -72
t5.5 -95h-331q3 -58 25 -90t74 -32q34 0 55 17zM539 381q-21 -27 -26 -79h186q-4 51 -24.5 78.5t-67.5 27.5t-68 -27zM350.5 143.5q19.5 39.5 19.5 105.5q0 67 -19.5 105.5t-72.5 38.5q-54 0 -74.5 -40t-20.5 -104q0 -66 21 -105.5t74 -39.5t72.5 39.5z" />
    <glyph glyph-name="thorn" unicode="&#xfe;" horiz-adv-x="598" 
d="M470 474q47 -35 69 -94t22 -131q0 -73 -22 -132t-69 -94t-119 -35q-99 0 -147 73v-262h-137v907h137v-270q48 73 147 73q72 0 119 -35zM391.5 144q23.5 39 23.5 105q0 67 -24.5 105.5t-83.5 38.5q-51 0 -77.5 -33t-26.5 -96v-30q0 -62 26.5 -95.5t77.5 -33.5
q61 0 84.5 39z" />
    <glyph glyph-name="racute" unicode="&#x155;" horiz-adv-x="390" 
d="M375 497v-122q-10 2 -22.5 3.5t-24.5 1.5q-61 0 -92.5 -38.5t-31.5 -111.5v-230h-137v496h136v-65q40 72 123 72q28 0 49 -6zM232 727h136l-103 -156h-123z" />
    <glyph glyph-name="rcaron" unicode="&#x159;" horiz-adv-x="390" 
d="M375 497v-122q-10 2 -22.5 3.5t-24.5 1.5q-61 0 -92.5 -38.5t-31.5 -111.5v-230h-137v496h136v-65q40 72 123 72q28 0 49 -6zM307 570h-162l-100 157h123l58 -94l58 94h124z" />
    <glyph glyph-name="rcommaaccent" unicode="&#x157;" horiz-adv-x="390" 
d="M375 497v-122q-10 2 -22.5 3.5t-24.5 1.5q-61 0 -92.5 -38.5t-31.5 -111.5v-230h-137v496h136v-65q40 72 123 72q28 0 49 -6zM65 -52h142l-52 -148h-126z" />
    <glyph glyph-name="sacute" unicode="&#x15b;" horiz-adv-x="495" 
d="M87.5 32q-52.5 48 -52.5 131h136q0 -39 17 -60.5t59 -21.5q35 0 51 14.5t16 38.5q0 21 -13.5 34t-34 21t-57.5 18q-51 14 -84.5 32t-52.5 46.5t-19 72.5q0 72 50 111.5t143 39.5q96 0 145 -41.5t49 -116.5h-132q0 70 -64 70q-29 0 -44 -12.5t-15 -31.5q0 -20 12 -32
t33 -20t66 -21q57 -16 92 -34.5t53.5 -47.5t18.5 -74q0 -80 -56 -122t-156 -42q-108 0 -160.5 48zM252 727h136l-103 -156h-123z" />
    <glyph glyph-name="scaron" unicode="&#x161;" horiz-adv-x="495" 
d="M87.5 32q-52.5 48 -52.5 131h136q0 -39 17 -60.5t59 -21.5q35 0 51 14.5t16 38.5q0 21 -13.5 34t-34 21t-57.5 18q-51 14 -84.5 32t-52.5 46.5t-19 72.5q0 72 50 111.5t143 39.5q96 0 145 -41.5t49 -116.5h-132q0 70 -64 70q-29 0 -44 -12.5t-15 -31.5q0 -20 12 -32
t33 -20t66 -21q57 -16 92 -34.5t53.5 -47.5t18.5 -74q0 -80 -56 -122t-156 -42q-108 0 -160.5 48zM327 570h-162l-100 157h123l58 -94l58 94h124z" />
    <glyph glyph-name="scedilla" unicode="&#x15f;" horiz-adv-x="495" 
d="M415.5 35.5q-44.5 -41.5 -125.5 -49.5l-7 -25h8q46 0 72.5 -25t26.5 -65q0 -101 -144 -101q-53 0 -96 16l15 67q32 -13 70 -13q58 0 58 34q0 17 -14.5 25.5t-46.5 8.5h-56l20 79q-81 12 -121 58t-40 118h136q0 -39 17 -60.5t59 -21.5q35 0 51 14.5t16 38.5q0 21 -13.5 34
t-34 21t-57.5 18q-51 14 -84.5 32t-52.5 46.5t-19 72.5q0 72 50 111.5t143 39.5q96 0 145 -41.5t49 -116.5h-132q0 70 -64 70q-29 0 -44 -12.5t-15 -31.5q0 -20 12 -32t33 -20t66 -21q57 -16 92 -34.5t53.5 -47.5t18.5 -74q0 -71 -44.5 -112.5z" />
    <glyph glyph-name="scircumflex" unicode="&#x15d;" horiz-adv-x="495" 
d="M87.5 32q-52.5 48 -52.5 131h136q0 -39 17 -60.5t59 -21.5q35 0 51 14.5t16 38.5q0 21 -13.5 34t-34 21t-57.5 18q-51 14 -84.5 32t-52.5 46.5t-19 72.5q0 72 50 111.5t143 39.5q96 0 145 -41.5t49 -116.5h-132q0 70 -64 70q-29 0 -44 -12.5t-15 -31.5q0 -20 12 -32
t33 -20t66 -21q57 -16 92 -34.5t53.5 -47.5t18.5 -74q0 -80 -56 -122t-156 -42q-108 0 -160.5 48zM166 728h162l100 -158h-123l-59 95l-57 -95h-124z" />
    <glyph glyph-name="scommaaccent" unicode="&#x219;" horiz-adv-x="495" 
d="M87.5 32q-52.5 48 -52.5 131h136q0 -39 17 -60.5t59 -21.5q35 0 51 14.5t16 38.5q0 21 -13.5 34t-34 21t-57.5 18q-51 14 -84.5 32t-52.5 46.5t-19 72.5q0 72 50 111.5t143 39.5q96 0 145 -41.5t49 -116.5h-132q0 70 -64 70q-29 0 -44 -12.5t-15 -31.5q0 -20 12 -32
t33 -20t66 -21q57 -16 92 -34.5t53.5 -47.5t18.5 -74q0 -80 -56 -122t-156 -42q-108 0 -160.5 48zM181 -52h142l-52 -148h-126z" />
    <glyph glyph-name="germandbls" unicode="&#xdf;" horiz-adv-x="600" 
d="M532.5 331.5q30.5 -51.5 30.5 -120.5q0 -99 -61.5 -155.5t-192.5 -56.5q-26 0 -56 2v108h25q74 0 106.5 29t32.5 85q0 54 -32 85t-102 31h-27v103h24q60 0 86.5 24t26.5 69q0 39 -22.5 63t-68.5 24q-57 0 -77.5 -33.5t-20.5 -93.5v-495h-137v484q0 113 55 176t182 63
q77 0 128 -24t75 -64.5t24 -92.5q0 -54 -23.5 -90t-71.5 -51q66 -18 96.5 -69.5z" />
    <glyph glyph-name="tbar" unicode="&#x167;" horiz-adv-x="368" 
d="M219 218v-42q0 -38 15.5 -55t49.5 -17q21 0 52 7v-109q-22 -5 -48 -8t-50 -3q-56 0 -90 16t-50.5 51.5t-16.5 95.5v64h-67v87h67v81h-67v110h67v117h138v-117h119v-110h-119v-81h120v-87h-120z" />
    <glyph glyph-name="tcaron" unicode="&#x165;" horiz-adv-x="411" 
d="M148 7q-34 16 -50.5 51.5t-16.5 95.5v232h-67v110h67v117h138v-117h119v-110h-119v-210q0 -38 15.5 -55t49.5 -17q21 0 52 7v-109q-22 -5 -48 -8t-50 -3q-56 0 -90 16zM276 707h116l-39 -171h-102z" />
    <glyph glyph-name="uni0163" unicode="&#x163;" horiz-adv-x="368" 
d="M329.5 -64q26.5 -25 26.5 -65q0 -101 -144 -101q-53 0 -96 16l15 67q32 -13 70 -13q58 0 58 34q0 17 -14.5 25.5t-46.5 8.5h-56l23 92q-44 14 -64 51t-20 103v232h-67v110h67v117h138v-117h119v-110h-119v-210q0 -38 15.5 -55t49.5 -17q21 0 52 7v-109q-29 -7 -79 -11
l-8 -30h8q46 0 72.5 -25z" />
    <glyph glyph-name="uni021B" unicode="&#x21b;" horiz-adv-x="368" 
d="M148 7q-34 16 -50.5 51.5t-16.5 95.5v232h-67v110h67v117h138v-117h119v-110h-119v-210q0 -38 15.5 -55t49.5 -17q21 0 52 7v-109q-22 -5 -48 -8t-50 -3q-56 0 -90 16zM147 -52h142l-52 -148h-126z" />
    <glyph glyph-name="uacute" unicode="&#xfa;" horiz-adv-x="583" 
d="M516 496v-496h-138v61q-49 -74 -147 -74q-82 0 -125 48.5t-43 140.5v320h137v-290q0 -54 21 -78.5t65 -24.5q45 0 68.5 26.5t23.5 79.5v287h138zM298 727h136l-103 -156h-123z" />
    <glyph glyph-name="ubreve" unicode="&#x16d;" horiz-adv-x="583" 
d="M516 496v-496h-138v61q-49 -74 -147 -74q-82 0 -125 48.5t-43 140.5v320h137v-290q0 -54 21 -78.5t65 -24.5q45 0 68.5 26.5t23.5 79.5v287h138zM118 728h100q4 -45 21.5 -65.5t53.5 -20.5t53 20.5t22 65.5h98q-8 -164 -173 -164q-166 0 -175 164z" />
    <glyph glyph-name="ucircumflex" unicode="&#xfb;" horiz-adv-x="583" 
d="M516 496v-496h-138v61q-49 -74 -147 -74q-82 0 -125 48.5t-43 140.5v320h137v-290q0 -54 21 -78.5t65 -24.5q45 0 68.5 26.5t23.5 79.5v287h138zM211 728h162l100 -158h-123l-59 95l-57 -95h-124z" />
    <glyph glyph-name="udieresis" unicode="&#xfc;" horiz-adv-x="583" 
d="M516 496v-496h-138v61q-49 -74 -147 -74q-82 0 -125 48.5t-43 140.5v320h137v-290q0 -54 21 -78.5t65 -24.5q45 0 68.5 26.5t23.5 79.5v287h138zM153 582.5q-17 9.5 -27 26t-10 36.5t10 36.5t27 26t38 9.5t38 -9.5t26.5 -26t9.5 -36.5t-9.5 -36.5t-26.5 -26t-38 -9.5
t-38 9.5zM357 582.5q-17 9.5 -27 26t-10 36.5t10 36.5t27 26t38 9.5q20 0 37 -9.5t27 -26t10 -36.5t-10 -36.5t-27 -26t-37 -9.5q-21 0 -38 9.5z" />
    <glyph glyph-name="ugrave" unicode="&#xf9;" horiz-adv-x="583" 
d="M516 496v-496h-138v61q-49 -74 -147 -74q-82 0 -125 48.5t-43 140.5v320h137v-290q0 -54 21 -78.5t65 -24.5q45 0 68.5 26.5t23.5 79.5v287h138zM253 571l-103 156h137l89 -156h-123z" />
    <glyph glyph-name="uhungarumlaut" unicode="&#x171;" horiz-adv-x="583" 
d="M516 496v-496h-138v61q-49 -74 -147 -74q-82 0 -125 48.5t-43 140.5v320h137v-290q0 -54 21 -78.5t65 -24.5q45 0 68.5 26.5t23.5 79.5v287h138zM243 728h117l-119 -157h-95zM413 728h116l-118 -157h-95z" />
    <glyph glyph-name="umacron" unicode="&#x16b;" horiz-adv-x="583" 
d="M516 496v-496h-138v61q-49 -74 -147 -74q-82 0 -125 48.5t-43 140.5v320h137v-290q0 -54 21 -78.5t65 -24.5q45 0 68.5 26.5t23.5 79.5v287h138zM142 688h299v-89h-299v89z" />
    <glyph glyph-name="uogonek" unicode="&#x173;" horiz-adv-x="583" 
d="M520 -124v-77q-31 -12 -75 -12q-53 0 -85 23.5t-32 68.5q0 37 24 66t67 55h-41v61q-49 -74 -147 -74q-82 0 -125 48.5t-43 140.5v320h137v-290q0 -54 21 -78.5t65 -24.5q45 0 68.5 26.5t23.5 79.5v287h138v-496q-39 -29 -58 -50.5t-19 -45.5q0 -17 11 -26t28 -9
q24 0 42 7z" />
    <glyph glyph-name="uring" unicode="&#x16f;" horiz-adv-x="583" 
d="M516 496v-496h-138v61q-49 -74 -147 -74q-82 0 -125 48.5t-43 140.5v320h137v-290q0 -54 21 -78.5t65 -24.5q45 0 68.5 26.5t23.5 79.5v287h138zM223 566q-29 15 -45 42t-16 62q0 36 16 63t45 41.5t68 14.5t68.5 -15t45.5 -42t16 -62t-16 -62t-45.5 -42t-68.5 -15t-68 15
zM329 633.5q14 13.5 14 36.5t-14 37t-38 14q-23 0 -37 -14t-14 -37t14 -36.5t37 -13.5q24 0 38 13.5z" />
    <glyph glyph-name="utilde" unicode="&#x169;" horiz-adv-x="583" 
d="M516 496v-496h-138v61q-49 -74 -147 -74q-82 0 -125 48.5t-43 140.5v320h137v-290q0 -54 21 -78.5t65 -24.5q45 0 68.5 26.5t23.5 79.5v287h138zM325.5 577.5q-20.5 8.5 -38.5 25.5q-21 17 -33.5 24.5t-26.5 7.5q-17 0 -25 -15.5t-10 -48.5h-80q2 81 26 120t74 39
q23 0 43 -9t41 -27q22 -17 34 -24t25 -7q19 0 26.5 15t9.5 50h80q-2 -82 -26 -120.5t-75 -38.5q-24 0 -44.5 8.5z" />
    <glyph glyph-name="wacute" unicode="&#x1e83;" horiz-adv-x="808" 
d="M796 496l-172 -496h-132l-88 314l-88 -314h-133l-170 496h147l90 -318l95 318h116l95 -316l91 316h149zM409 727h136l-103 -156h-123z" />
    <glyph glyph-name="wcircumflex" unicode="&#x175;" horiz-adv-x="808" 
d="M796 496l-172 -496h-132l-88 314l-88 -314h-133l-170 496h147l90 -318l95 318h116l95 -316l91 316h149zM322 728h162l100 -158h-123l-59 95l-57 -95h-124z" />
    <glyph glyph-name="wdieresis" unicode="&#x1e85;" horiz-adv-x="808" 
d="M796 496l-172 -496h-132l-88 314l-88 -314h-133l-170 496h147l90 -318l95 318h116l95 -316l91 316h149zM264 582.5q-17 9.5 -27 26t-10 36.5t10 36.5t27 26t38 9.5t38 -9.5t26.5 -26t9.5 -36.5t-9.5 -36.5t-26.5 -26t-38 -9.5t-38 9.5zM468 582.5q-17 9.5 -27 26
t-10 36.5t10 36.5t27 26t38 9.5q20 0 37 -9.5t27 -26t10 -36.5t-10 -36.5t-27 -26t-37 -9.5q-21 0 -38 9.5z" />
    <glyph glyph-name="wgrave" unicode="&#x1e81;" horiz-adv-x="808" 
d="M796 496l-172 -496h-132l-88 314l-88 -314h-133l-170 496h147l90 -318l95 318h116l95 -316l91 316h149zM364 571l-103 156h137l89 -156h-123z" />
    <glyph glyph-name="yacute" unicode="&#xfd;" horiz-adv-x="546" 
d="M533 496l-275 -696h-140l80 201l-185 495h151l109 -345l112 345h148zM280 727h136l-103 -156h-123z" />
    <glyph glyph-name="ycircumflex" unicode="&#x177;" horiz-adv-x="546" 
d="M533 496l-275 -696h-140l80 201l-185 495h151l109 -345l112 345h148zM194 728h162l100 -158h-123l-59 95l-57 -95h-124z" />
    <glyph glyph-name="ydieresis" unicode="&#xff;" horiz-adv-x="546" 
d="M533 496l-275 -696h-140l80 201l-185 495h151l109 -345l112 345h148zM135 582.5q-17 9.5 -27 26t-10 36.5t10 36.5t27 26t38 9.5t38 -9.5t26.5 -26t9.5 -36.5t-9.5 -36.5t-26.5 -26t-38 -9.5t-38 9.5zM339 582.5q-17 9.5 -27 26t-10 36.5t10 36.5t27 26t38 9.5
q20 0 37 -9.5t27 -26t10 -36.5t-10 -36.5t-27 -26t-37 -9.5q-21 0 -38 9.5z" />
    <glyph glyph-name="ygrave" unicode="&#x1ef3;" horiz-adv-x="546" 
d="M533 496l-275 -696h-140l80 201l-185 495h151l109 -345l112 345h148zM235 571l-103 156h137l89 -156h-123z" />
    <glyph glyph-name="zacute" unicode="&#x17a;" horiz-adv-x="474" 
d="M228 111h228v-111h-447l245 386h-222v110h432zM250 727h136l-103 -156h-123z" />
    <glyph glyph-name="zcaron" unicode="&#x17e;" horiz-adv-x="474" 
d="M228 111h228v-111h-447l245 386h-222v110h432zM324 570h-162l-100 157h123l58 -94l58 94h124z" />
    <glyph glyph-name="zdotaccent" unicode="&#x17c;" horiz-adv-x="474" 
d="M228 111h228v-111h-447l245 386h-222v110h432zM204 586.5q-18 9.5 -28 26.5t-10 38q0 33 22 54.5t56 21.5q22 0 39.5 -10t28 -27t10.5 -39q0 -21 -10.5 -38t-28 -26.5t-39.5 -9.5t-40 9.5z" />
    <glyph glyph-name="oslash.ss04" horiz-adv-x="577" 
d="M525 350.5q15 -47.5 15 -101.5q0 -74 -27 -133.5t-83.5 -94t-140.5 -34.5q-54 0 -98 15l-47 -76l-101 58l55 80q-31 35 -46 82.5t-15 102.5q0 74 27.5 132.5t84.5 93t140 34.5q54 0 98 -15l47 75l100 -57l-54 -79q30 -35 45 -82.5zM372 143q22 39 22 106q0 68 -22.5 106
t-82.5 38t-83 -38.5t-23 -105.5q0 -69 23.5 -107t82.5 -38q61 0 83 39z" />
    <glyph glyph-name="ff" unicode="&#xfb00;" horiz-adv-x="703" 
d="M80 386h-62v110h62v56q0 60 18.5 97t58 54.5t103.5 17.5q37 0 70 -7v-112q-19 6 -45 6q-34 0 -51 -18t-17 -52v-42h110v-110h-110v-386h-137v386zM436 386h-62v110h62v56q0 60 18.5 97t58 54.5t103.5 17.5q37 0 70 -7v-112q-19 6 -45 6q-34 0 -51 -18t-17 -52v-42h110
v-110h-110v-386h-137v386z" />
    <glyph glyph-name="ffi" unicode="&#xfb03;" horiz-adv-x="974" 
d="M80 386h-62v110h62v56q0 60 18.5 97t58 54.5t103.5 17.5q37 0 70 -7v-112q-19 6 -45 6q-34 0 -51 -18t-17 -52v-42h110v-110h-110v-386h-137v386zM436 386h-62v110h62v56q0 60 18.5 97t58 54.5t103.5 17.5q37 0 70 -7v-112q-19 6 -45 6q-34 0 -51 -18t-17 -52v-42h110
v-110h-110v-386h-137v386zM799 586q-18 10 -28 27t-10 38t10 38.5t28 27.5t40 10t39.5 -10t28 -27.5t10.5 -38.5t-10.5 -38t-28 -27t-39.5 -10t-40 10zM770 496h137v-496h-137v496z" />
    <glyph glyph-name="ffl" unicode="&#xfb04;" horiz-adv-x="974" 
d="M80 386h-62v110h62v56q0 60 18.5 97t58 54.5t103.5 17.5q37 0 70 -7v-112q-19 6 -45 6q-34 0 -51 -18t-17 -52v-42h110v-110h-110v-386h-137v386zM436 386h-62v110h62v56q0 60 18.5 97t58 54.5t103.5 17.5q37 0 70 -7v-112q-19 6 -45 6q-34 0 -51 -18t-17 -52v-42h110
v-110h-110v-386h-137v386zM770 706h137v-706h-137v706z" />
    <glyph glyph-name="f_i" horiz-adv-x="619" 
d="M80 386h-62v110h62v56q0 60 18.5 97t58 54.5t103.5 17.5q37 0 70 -7v-112q-19 6 -45 6q-34 0 -51 -18t-17 -52v-42h110v-110h-110v-386h-137v386zM444 586q-18 10 -28 27t-10 38t10 38.5t28 27.5t40 10t39.5 -10t28 -27.5t10.5 -38.5t-10.5 -38t-28 -27t-39.5 -10t-40 10
zM415 496h137v-496h-137v496z" />
    <glyph glyph-name="f_l" horiz-adv-x="619" 
d="M80 386h-62v110h62v56q0 60 18.5 97t58 54.5t103.5 17.5q37 0 70 -7v-112q-19 6 -45 6q-34 0 -51 -18t-17 -52v-42h110v-110h-110v-386h-137v386zM415 706h137v-706h-137v706z" />
    <glyph glyph-name="fi" unicode="&#xfb01;" horiz-adv-x="619" 
d="M80 386h-62v110h62v56q0 60 18.5 97t58 54.5t103.5 17.5q37 0 70 -7v-112q-19 6 -45 6q-34 0 -51 -18t-17 -52v-42h110v-110h-110v-386h-137v386zM444 586q-18 10 -28 27t-10 38t10 38.5t28 27.5t40 10t39.5 -10t28 -27.5t10.5 -38.5t-10.5 -38t-28 -27t-39.5 -10t-40 10
zM415 496h137v-496h-137v496z" />
    <glyph glyph-name="fl" unicode="&#xfb02;" horiz-adv-x="619" 
d="M80 386h-62v110h62v56q0 60 18.5 97t58 54.5t103.5 17.5q37 0 70 -7v-112q-19 6 -45 6q-34 0 -51 -18t-17 -52v-42h110v-110h-110v-386h-137v386zM415 706h137v-706h-137v706z" />
    <glyph glyph-name="a.sc" horiz-adv-x="604" 
d="M417 111h-230l-34 -111h-147l189 588h214l189 -588h-147zM383 221l-80 260h-2l-80 -260h162z" />
    <glyph glyph-name="aacute.sc" horiz-adv-x="604" 
d="M417 111h-230l-34 -111h-147l189 588h214l189 -588h-147zM383 221l-80 260h-2l-80 -260h162zM308 819h136l-103 -156h-123z" />
    <glyph glyph-name="abreve.sc" horiz-adv-x="604" 
d="M417 111h-230l-34 -111h-147l189 588h214l189 -588h-147zM383 221l-80 260h-2l-80 -260h162zM128 820h100q4 -45 21.5 -65.5t53.5 -20.5t53 20.5t22 65.5h98q-8 -164 -173 -164q-166 0 -175 164z" />
    <glyph glyph-name="acircumflex.sc" horiz-adv-x="604" 
d="M417 111h-230l-34 -111h-147l189 588h214l189 -588h-147zM383 221l-80 260h-2l-80 -260h162zM221 820h162l100 -158h-123l-59 95l-57 -95h-124z" />
    <glyph glyph-name="adieresis.sc" horiz-adv-x="604" 
d="M417 111h-230l-34 -111h-147l189 588h214l189 -588h-147zM383 221l-80 260h-2l-80 -260h162zM163 674.5q-17 9.5 -27 26t-10 36.5t10 36.5t27 26t38 9.5t38 -9.5t26.5 -26t9.5 -36.5t-9.5 -36.5t-26.5 -26t-38 -9.5t-38 9.5zM367 674.5q-17 9.5 -27 26t-10 36.5t10 36.5
t27 26t38 9.5q20 0 37 -9.5t27 -26t10 -36.5t-10 -36.5t-27 -26t-37 -9.5q-21 0 -38 9.5z" />
    <glyph glyph-name="agrave.sc" horiz-adv-x="604" 
d="M417 111h-230l-34 -111h-147l189 588h214l189 -588h-147zM383 221l-80 260h-2l-80 -260h162zM263 663l-103 156h137l89 -156h-123z" />
    <glyph glyph-name="amacron.sc" horiz-adv-x="604" 
d="M417 111h-230l-34 -111h-147l189 588h214l189 -588h-147zM383 221l-80 260h-2l-80 -260h162zM152 780h299v-89h-299v89z" />
    <glyph glyph-name="aogonek.sc" horiz-adv-x="604" 
d="M601 -124v-77q-29 -12 -74 -12q-54 0 -85.5 23.5t-31.5 68.5q0 37 24 66t67 55h-50l-34 111h-230l-34 -111h-147l189 588h214l189 -588q-39 -29 -58 -50.5t-19 -45.5q0 -17 11 -26t28 -9q23 0 41 7zM383 221l-80 260h-2l-80 -260h162z" />
    <glyph glyph-name="aring.sc" horiz-adv-x="604" 
d="M417 111h-230l-34 -111h-147l189 588h214l189 -588h-147zM383 221l-80 260h-2l-80 -260h162zM233 658q-29 15 -45 42t-16 62q0 36 16 63t45 41.5t68 14.5t68.5 -15t45.5 -42t16 -62t-16 -62t-45.5 -42t-68.5 -15t-68 15zM339 725.5q14 13.5 14 36.5t-14 37t-38 14
q-23 0 -37 -14t-14 -37t14 -36.5t37 -13.5q24 0 38 13.5z" />
    <glyph glyph-name="aringacute.sc" horiz-adv-x="604" 
d="M417 111h-230l-34 -111h-147l189 588h214l189 -588h-147zM383 221l-80 260h-2l-80 -260h162zM233 658q-29 15 -45 42t-16 62q0 36 16 63t45 41.5t68 14.5t68.5 -15t45.5 -42t16 -62t-16 -62t-45.5 -42t-68.5 -15t-68 15zM339 725.5q14 13.5 14 36.5t-14 37t-38 14
q-23 0 -37 -14t-14 -37t14 -36.5t37 -13.5q24 0 38 13.5zM308 1111h136l-103 -156h-123z" />
    <glyph glyph-name="atilde.sc" horiz-adv-x="604" 
d="M417 111h-230l-34 -111h-147l189 588h214l189 -588h-147zM383 221l-80 260h-2l-80 -260h162zM335.5 669.5q-20.5 8.5 -38.5 25.5q-21 17 -33.5 24.5t-26.5 7.5q-17 0 -25 -15.5t-10 -48.5h-80q2 81 26 120t74 39q23 0 43 -9t41 -27q22 -17 34 -24t25 -7q19 0 26.5 15
t9.5 50h80q-2 -82 -26 -120.5t-75 -38.5q-24 0 -44.5 8.5z" />
    <glyph glyph-name="ae.sc" horiz-adv-x="736" 
d="M463 470l14 -113h202v-118h-188l15 -122h176v-117h-306l-12 113h-170l-40 -113h-148l222 588h454v-118h-219zM352 222l-28 252h-2l-89 -252h119z" />
    <glyph glyph-name="aeacute.sc" horiz-adv-x="736" 
d="M463 470l14 -113h202v-118h-188l15 -122h176v-117h-306l-12 113h-170l-40 -113h-148l222 588h454v-118h-219zM352 222l-28 252h-2l-89 -252h119zM411 819h136l-103 -156h-123z" />
    <glyph glyph-name="b.sc" horiz-adv-x="569" 
d="M507 258.5q28 -37.5 28 -92.5q0 -78 -51 -122t-151 -44h-253v588h255q60 0 100.5 -19t60 -52t19.5 -74q0 -47 -25 -80.5t-75 -47.5q64 -19 92 -56.5zM222 354h60q88 0 88 70q0 67 -91 67h-57v-137zM360.5 117.5q25.5 19.5 25.5 57.5q0 81 -104 81h-60v-158h57
q56 0 81.5 19.5z" />
    <glyph glyph-name="c.sc" horiz-adv-x="637" 
d="M168.5 25.5q-64.5 40.5 -94.5 110t-30 158.5q0 88 30 157t94.5 110t163.5 41q76 0 135 -29.5t92.5 -82.5t35.5 -123h-150q-2 53 -33 83t-86 30q-76 0 -104 -49.5t-28 -135.5q0 -58 11 -98.5t40 -64t81 -23.5q59 0 89 27.5t32 77.5h150q-1 -68 -36 -120t-95 -80.5
t-134 -28.5q-99 0 -163.5 40.5z" />
    <glyph glyph-name="cacute.sc" horiz-adv-x="637" 
d="M168.5 25.5q-64.5 40.5 -94.5 110t-30 158.5q0 88 30 157t94.5 110t163.5 41q76 0 135 -29.5t92.5 -82.5t35.5 -123h-150q-2 53 -33 83t-86 30q-76 0 -104 -49.5t-28 -135.5q0 -58 11 -98.5t40 -64t81 -23.5q59 0 89 27.5t32 77.5h150q-1 -68 -36 -120t-95 -80.5
t-134 -28.5q-99 0 -163.5 40.5zM338 819h136l-103 -156h-123z" />
    <glyph glyph-name="ccaron.sc" horiz-adv-x="637" 
d="M168.5 25.5q-64.5 40.5 -94.5 110t-30 158.5q0 88 30 157t94.5 110t163.5 41q76 0 135 -29.5t92.5 -82.5t35.5 -123h-150q-2 53 -33 83t-86 30q-76 0 -104 -49.5t-28 -135.5q0 -58 11 -98.5t40 -64t81 -23.5q59 0 89 27.5t32 77.5h150q-1 -68 -36 -120t-95 -80.5
t-134 -28.5q-99 0 -163.5 40.5zM412 662h-162l-100 157h123l58 -94l58 94h124z" />
    <glyph glyph-name="ccedilla.sc" horiz-adv-x="637" 
d="M566.5 103q-29.5 -49 -80.5 -79t-116 -37l-7 -26h9q46 0 72 -25t26 -65q0 -53 -37.5 -77t-106.5 -24q-52 0 -95 16l14 67q32 -13 70 -13q28 0 43 8t15 26t-14 26t-46 8h-56l20 81q-80 11 -132 53.5t-76.5 107t-24.5 144.5q0 88 30 157t94.5 110t163.5 41q76 0 135 -29.5
t92.5 -82.5t35.5 -123h-150q-2 53 -33 83t-86 30q-76 0 -104 -49.5t-28 -135.5q0 -58 11 -98.5t40 -64t81 -23.5q59 0 89 27.5t32 77.5h150q-1 -62 -30.5 -111z" />
    <glyph glyph-name="ccircumflex.sc" horiz-adv-x="637" 
d="M168.5 25.5q-64.5 40.5 -94.5 110t-30 158.5q0 88 30 157t94.5 110t163.5 41q76 0 135 -29.5t92.5 -82.5t35.5 -123h-150q-2 53 -33 83t-86 30q-76 0 -104 -49.5t-28 -135.5q0 -58 11 -98.5t40 -64t81 -23.5q59 0 89 27.5t32 77.5h150q-1 -68 -36 -120t-95 -80.5
t-134 -28.5q-99 0 -163.5 40.5zM251 820h162l100 -158h-123l-59 95l-57 -95h-124z" />
    <glyph glyph-name="cdotaccent.sc" horiz-adv-x="637" 
d="M168.5 25.5q-64.5 40.5 -94.5 110t-30 158.5q0 88 30 157t94.5 110t163.5 41q76 0 135 -29.5t92.5 -82.5t35.5 -123h-150q-2 53 -33 83t-86 30q-76 0 -104 -49.5t-28 -135.5q0 -58 11 -98.5t40 -64t81 -23.5q59 0 89 27.5t32 77.5h150q-1 -68 -36 -120t-95 -80.5
t-134 -28.5q-99 0 -163.5 40.5zM292 678.5q-18 9.5 -28 26.5t-10 38q0 33 22 54.5t56 21.5q22 0 39.5 -10t28 -27t10.5 -39q0 -21 -10.5 -38t-28 -26.5t-39.5 -9.5t-40 9.5z" />
    <glyph glyph-name="d.sc" horiz-adv-x="644" 
d="M80 588h235q148 0 216.5 -80t68.5 -214q0 -135 -68.5 -214.5t-216.5 -79.5h-235v588zM291 117q62 0 97 22.5t48.5 61t13.5 93.5t-13.5 93.5t-48.5 60.5t-97 22h-69v-353h69z" />
    <glyph glyph-name="eth.sc" horiz-adv-x="644" 
d="M531.5 508q68.5 -80 68.5 -214q0 -135 -68.5 -214.5t-216.5 -79.5h-235v258h-52v88h52v242h235q148 0 216.5 -80zM388 139.5q35 22.5 48.5 61t13.5 93.5t-13.5 93.5t-48.5 60.5t-97 22h-69v-124h130v-88h-130v-141h69q62 0 97 22.5z" />
    <glyph glyph-name="dcaron.sc" horiz-adv-x="644" 
d="M80 588h235q148 0 216.5 -80t68.5 -214q0 -135 -68.5 -214.5t-216.5 -79.5h-235v588zM291 117q62 0 97 22.5t48.5 61t13.5 93.5t-13.5 93.5t-48.5 60.5t-97 22h-69v-353h69zM399 662h-162l-100 157h123l58 -94l58 94h124z" />
    <glyph glyph-name="dcroat.sc" horiz-adv-x="644" 
d="M531.5 508q68.5 -80 68.5 -214q0 -135 -68.5 -214.5t-216.5 -79.5h-235v258h-52v88h52v242h235q148 0 216.5 -80zM388 139.5q35 22.5 48.5 61t13.5 93.5t-13.5 93.5t-48.5 60.5t-97 22h-69v-124h130v-88h-130v-141h69q62 0 97 22.5z" />
    <glyph glyph-name="e.sc" horiz-adv-x="512" 
d="M80 588h378v-118h-236v-114h233v-117h-233v-122h236v-117h-378v588z" />
    <glyph glyph-name="eacute.sc" horiz-adv-x="512" 
d="M80 588h378v-118h-236v-114h233v-117h-233v-122h236v-117h-378v588zM277 819h136l-103 -156h-123z" />
    <glyph glyph-name="ebreve.sc" horiz-adv-x="512" 
d="M80 588h378v-118h-236v-114h233v-117h-233v-122h236v-117h-378v588zM97 820h100q4 -45 21.5 -65.5t53.5 -20.5t53 20.5t22 65.5h98q-8 -164 -173 -164q-166 0 -175 164z" />
    <glyph glyph-name="ecaron.sc" horiz-adv-x="512" 
d="M80 588h378v-118h-236v-114h233v-117h-233v-122h236v-117h-378v588zM351 662h-162l-100 157h123l58 -94l58 94h124z" />
    <glyph glyph-name="ecircumflex.sc" horiz-adv-x="512" 
d="M80 588h378v-118h-236v-114h233v-117h-233v-122h236v-117h-378v588zM190 820h162l100 -158h-123l-59 95l-57 -95h-124z" />
    <glyph glyph-name="edieresis.sc" horiz-adv-x="512" 
d="M80 588h378v-118h-236v-114h233v-117h-233v-122h236v-117h-378v588zM132 674.5q-17 9.5 -27 26t-10 36.5t10 36.5t27 26t38 9.5t38 -9.5t26.5 -26t9.5 -36.5t-9.5 -36.5t-26.5 -26t-38 -9.5t-38 9.5zM336 674.5q-17 9.5 -27 26t-10 36.5t10 36.5t27 26t38 9.5
q20 0 37 -9.5t27 -26t10 -36.5t-10 -36.5t-27 -26t-37 -9.5q-21 0 -38 9.5z" />
    <glyph glyph-name="edotaccent.sc" horiz-adv-x="512" 
d="M80 588h378v-118h-236v-114h233v-117h-233v-122h236v-117h-378v588zM231 678.5q-18 9.5 -28 26.5t-10 38q0 33 22 54.5t56 21.5q22 0 39.5 -10t28 -27t10.5 -39q0 -21 -10.5 -38t-28 -26.5t-39.5 -9.5t-40 9.5z" />
    <glyph glyph-name="egrave.sc" horiz-adv-x="512" 
d="M80 588h378v-118h-236v-114h233v-117h-233v-122h236v-117h-378v588zM232 663l-103 156h137l89 -156h-123z" />
    <glyph glyph-name="emacron.sc" horiz-adv-x="512" 
d="M80 588h378v-118h-236v-114h233v-117h-233v-122h236v-117h-378v588zM121 780h299v-89h-299v89z" />
    <glyph glyph-name="eogonek.sc" horiz-adv-x="512" 
d="M462 -124v-77q-31 -12 -75 -12q-53 0 -85 23.5t-32 68.5q0 37 24 66t67 55h-281v588h378v-118h-236v-114h233v-117h-233v-122h236v-117q-39 -29 -58 -50.5t-19 -45.5q0 -17 11 -26t28 -9q24 0 42 7z" />
    <glyph glyph-name="uni0259.sc" horiz-adv-x="621" 
d="M455 561q62 -41 91.5 -110.5t29.5 -158.5q0 -87 -29 -156t-91 -110t-157 -41q-89 0 -146 39t-83 105t-26 148v42h382q-3 77 -30 120t-95 43q-49 0 -77.5 -25t-33.5 -75h-141q4 67 36.5 117t87.5 76.5t125 26.5q95 0 157 -41zM383 133.5q29 27.5 39 81.5h-241
q3 -51 30 -80t84 -29q59 0 88 27.5z" />
    <glyph glyph-name="f.sc" horiz-adv-x="481" 
d="M80 588h359v-118h-217v-114h215v-117h-215v-239h-142v588z" />
    <glyph glyph-name="g.sc" horiz-adv-x="640" 
d="M596 322v-44q0 -85 -26.5 -150.5t-85.5 -104t-152 -38.5q-99 0 -163.5 41t-94.5 110.5t-30 157.5t30.5 157.5t95.5 110t164 40.5q73 0 130 -27t90.5 -76t37.5 -115h-142q-5 48 -36 73.5t-84 25.5q-55 0 -85 -24t-41 -65t-11 -100q0 -62 11.5 -102.5t42.5 -63.5t88 -23
q64 0 92.5 28t32.5 83h-129v106h265z" />
    <glyph glyph-name="gbreve.sc" horiz-adv-x="640" 
d="M596 322v-44q0 -85 -26.5 -150.5t-85.5 -104t-152 -38.5q-99 0 -163.5 41t-94.5 110.5t-30 157.5t30.5 157.5t95.5 110t164 40.5q73 0 130 -27t90.5 -76t37.5 -115h-142q-5 48 -36 73.5t-84 25.5q-55 0 -85 -24t-41 -65t-11 -100q0 -62 11.5 -102.5t42.5 -63.5t88 -23
q64 0 92.5 28t32.5 83h-129v106h265zM158 820h100q4 -45 21.5 -65.5t53.5 -20.5t53 20.5t22 65.5h98q-8 -164 -173 -164q-166 0 -175 164z" />
    <glyph glyph-name="gcircumflex.sc" horiz-adv-x="640" 
d="M596 322v-44q0 -85 -26.5 -150.5t-85.5 -104t-152 -38.5q-99 0 -163.5 41t-94.5 110.5t-30 157.5t30.5 157.5t95.5 110t164 40.5q73 0 130 -27t90.5 -76t37.5 -115h-142q-5 48 -36 73.5t-84 25.5q-55 0 -85 -24t-41 -65t-11 -100q0 -62 11.5 -102.5t42.5 -63.5t88 -23
q64 0 92.5 28t32.5 83h-129v106h265zM251 820h162l100 -158h-123l-59 95l-57 -95h-124z" />
    <glyph glyph-name="uni0123.sc" horiz-adv-x="640" 
d="M596 322v-44q0 -85 -26.5 -150.5t-85.5 -104t-152 -38.5q-99 0 -163.5 41t-94.5 110.5t-30 157.5t30.5 157.5t95.5 110t164 40.5q73 0 130 -27t90.5 -76t37.5 -115h-142q-5 48 -36 73.5t-84 25.5q-55 0 -85 -24t-41 -65t-11 -100q0 -62 11.5 -102.5t42.5 -63.5t88 -23
q64 0 92.5 28t32.5 83h-129v106h265zM261 -52h142l-52 -148h-126z" />
    <glyph glyph-name="gdotaccent.sc" horiz-adv-x="640" 
d="M596 322v-44q0 -85 -26.5 -150.5t-85.5 -104t-152 -38.5q-99 0 -163.5 41t-94.5 110.5t-30 157.5t30.5 157.5t95.5 110t164 40.5q73 0 130 -27t90.5 -76t37.5 -115h-142q-5 48 -36 73.5t-84 25.5q-55 0 -85 -24t-41 -65t-11 -100q0 -62 11.5 -102.5t42.5 -63.5t88 -23
q64 0 92.5 28t32.5 83h-129v106h265zM292 678.5q-18 9.5 -28 26.5t-10 38q0 33 22 54.5t56 21.5q22 0 39.5 -10t28 -27t10.5 -39q0 -21 -10.5 -38t-28 -26.5t-39.5 -9.5t-40 9.5z" />
    <glyph glyph-name="h.sc" horiz-adv-x="659" 
d="M80 588h142v-231h215v231h142v-588h-142v236h-215v-236h-142v588z" />
    <glyph glyph-name="hbar.sc" horiz-adv-x="659" 
d="M579 588v-588h-142v236h-215v-236h-142v588h142v-75h215v75h142zM437 357v70h-215v-70h215z" />
    <glyph glyph-name="hcircumflex.sc" horiz-adv-x="659" 
d="M80 588h142v-231h215v231h142v-588h-142v236h-215v-236h-142v588zM250 820h162l100 -158h-123l-59 95l-57 -95h-124z" />
    <glyph glyph-name="i.sc" horiz-adv-x="302" 
d="M80 588h142v-588h-142v588z" />
    <glyph glyph-name="dotlessi.sc" horiz-adv-x="302" 
d="M80 588h142v-588h-142v588z" />
    <glyph glyph-name="iacute.sc" horiz-adv-x="302" 
d="M80 588h142v-588h-142v588zM147 819h136l-91 -156h-118z" />
    <glyph glyph-name="ibreve.sc" horiz-adv-x="302" 
d="M80 588h142v-588h-142v588zM48 696.5q-35 41.5 -35 123.5h88q0 -48 12 -67t39 -19q26 0 38 19t12 67h88q-1 -82 -35.5 -123.5t-102.5 -41.5q-69 0 -104 41.5z" />
    <glyph glyph-name="icircumflex.sc" horiz-adv-x="302" 
d="M80 588h142v-588h-142v588zM84 820h133l78 -158h-101l-43 92l-44 -92h-101z" />
    <glyph glyph-name="idieresis.sc" horiz-adv-x="302" 
d="M80 588h142v-588h-142v588zM31.5 689.5q-17.5 18.5 -17.5 48.5q0 31 17.5 49.5t45.5 18.5t45 -18.5t17 -49.5q0 -30 -17 -48.5t-45 -18.5t-45.5 18.5zM180.5 689.5q-17.5 18.5 -17.5 48.5q0 31 17.5 49.5t45.5 18.5t45 -18.5t17 -49.5q0 -30 -17 -48.5t-45 -18.5
t-45.5 18.5z" />
    <glyph glyph-name="i.sc.loclTRK" horiz-adv-x="302" 
d="M80 588h142v-588h-142v588zM111 678.5q-18 9.5 -28 26.5t-10 38q0 33 22 54.5t56 21.5q22 0 39.5 -10t28 -27t10.5 -39q0 -21 -10.5 -38t-28 -26.5t-39.5 -9.5t-40 9.5z" />
    <glyph glyph-name="igrave.sc" horiz-adv-x="302" 
d="M80 588h142v-588h-142v588zM110 663l-91 156h135l74 -156h-118z" />
    <glyph glyph-name="ij.sc" horiz-adv-x="651" 
d="M80 588h142v-588h-142v588zM323 1v129q20 -2 34 -2q33 0 52 8.5t27.5 28t8.5 54.5v369h141v-388q0 -104 -49.5 -153.5t-160.5 -49.5q-29 0 -53 4z" />
    <glyph glyph-name="imacron.sc" horiz-adv-x="302" 
d="M80 588h142v-588h-142v588zM28 780h244v-89h-244v89z" />
    <glyph glyph-name="iogonek.sc" horiz-adv-x="302" 
d="M227 -124v-78q-27 -11 -65 -11q-49 0 -78 22t-29 62t18.5 71t53.5 58h-47v588h142v-588q-28 -31 -42 -54.5t-14 -49.5q0 -13 8 -20t21 -7q17 0 32 7z" />
    <glyph glyph-name="itilde.sc" horiz-adv-x="302" 
d="M80 588h142v-588h-142v588zM169.5 671.5q-15.5 10.5 -29.5 29.5q-11 15 -17.5 21.5t-14.5 6.5q-14 0 -19.5 -16t-6.5 -50h-75q1 56 9 90.5t25.5 51.5t48.5 17q25 0 41 -10.5t30 -30.5q9 -14 15.5 -20.5t15.5 -6.5q14 0 19.5 15.5t6.5 50.5h76q-2 -56 -10 -90.5t-26 -51.5
t-49 -17q-24 0 -39.5 10.5z" />
    <glyph glyph-name="j.sc" horiz-adv-x="349" 
d="M21 1v129q20 -2 34 -2q33 0 52 8.5t27.5 28t8.5 54.5v369h141v-388q0 -104 -49.5 -153.5t-160.5 -49.5q-29 0 -53 4z" />
    <glyph glyph-name="uni006A0301.sc" horiz-adv-x="349" 
d="M21 1v129q20 -2 34 -2q33 0 52 8.5t27.5 28t8.5 54.5v369h141v-388q0 -104 -49.5 -153.5t-160.5 -49.5q-29 0 -53 4zM209 819h136l-91 -156h-118z" />
    <glyph glyph-name="jcircumflex.sc" horiz-adv-x="349" 
d="M21 1v129q20 -2 34 -2q33 0 52 8.5t27.5 28t8.5 54.5v369h141v-388q0 -104 -49.5 -153.5t-160.5 -49.5q-29 0 -53 4zM147 820h133l78 -158h-101l-43 92l-44 -92h-101z" />
    <glyph glyph-name="k.sc" horiz-adv-x="608" 
d="M428 0l-206 268v-268h-142v588h142v-217l178 217h165l-220 -263l257 -325h-174z" />
    <glyph glyph-name="uni0137.sc" horiz-adv-x="608" 
d="M428 0l-206 268v-268h-142v588h142v-217l178 217h165l-220 -263l257 -325h-174zM243 -52h142l-52 -148h-126z" />
    <glyph glyph-name="kgreenlandic.sc" horiz-adv-x="608" 
d="M428 0l-206 268v-268h-142v588h142v-217l178 217h165l-220 -263l257 -325h-174z" />
    <glyph glyph-name="l.sc" horiz-adv-x="437" 
d="M80 588h142v-462h194v-126h-336v588z" />
    <glyph glyph-name="lacute.sc" horiz-adv-x="437" 
d="M80 588h142v-462h194v-126h-336v588zM184 819h136l-103 -156h-123z" />
    <glyph glyph-name="lcaron.sc" horiz-adv-x="437" 
d="M80 588h142v-462h194v-126h-336v588zM286 588h116l-39 -171h-102z" />
    <glyph glyph-name="uni013C.sc" horiz-adv-x="437" 
d="M80 588h142v-462h194v-126h-336v588zM180 -52h142l-52 -148h-126z" />
    <glyph glyph-name="ldot.sc" horiz-adv-x="513" 
d="M80 588h142v-462h194v-126h-336v588zM348 287q-20 11 -31 31t-11 45t11 45t31 31t46 11t46 -11t31.5 -31t11.5 -45t-11.5 -45t-31.5 -31t-46 -11t-46 11z" />
    <glyph glyph-name="lslash.sc" horiz-adv-x="437" 
d="M416 126v-126h-336v223l-60 -40v110l60 40v255h142v-183l132 88v-112l-132 -88v-167h194z" />
    <glyph glyph-name="m.sc" horiz-adv-x="804" 
d="M80 588h166l156 -356l157 356h164v-588h-134v359l-156 -359h-63l-157 359v-359h-133v588z" />
    <glyph glyph-name="n.sc" horiz-adv-x="676" 
d="M80 588h140l238 -363v363h137v-588h-141l-237 364v-364h-137v588z" />
    <glyph glyph-name="nacute.sc" horiz-adv-x="676" 
d="M80 588h140l238 -363v363h137v-588h-141l-237 364v-364h-137v588zM345 819h136l-103 -156h-123z" />
    <glyph glyph-name="napostrophe.sc" horiz-adv-x="877" 
d="M106 706h143l-104 -282h-107zM299 588h140l238 -363v363h137v-588h-141l-237 364v-364h-137v588z" />
    <glyph glyph-name="ncaron.sc" horiz-adv-x="676" 
d="M80 588h140l238 -363v363h137v-588h-141l-237 364v-364h-137v588zM419 662h-162l-100 157h123l58 -94l58 94h124z" />
    <glyph glyph-name="uni0146.sc" horiz-adv-x="676" 
d="M80 588h140l238 -363v363h137v-588h-141l-237 364v-364h-137v588zM265 -52h142l-52 -148h-126z" />
    <glyph glyph-name="eng.sc" horiz-adv-x="676" 
d="M595 588v-619q0 -72 -34.5 -105.5t-111.5 -33.5q-30 0 -60 3v112q18 -2 25 -2q45 0 45 41v19l-242 360v-363h-137v588h140l238 -359v359h137z" />
    <glyph glyph-name="ntilde.sc" horiz-adv-x="676" 
d="M80 588h140l238 -363v363h137v-588h-141l-237 364v-364h-137v588zM371.5 669.5q-20.5 8.5 -38.5 25.5q-21 17 -33.5 24.5t-26.5 7.5q-17 0 -25 -15.5t-10 -48.5h-80q2 81 26 120t74 39q23 0 43 -9t41 -27q22 -17 34 -24t25 -7q19 0 26.5 15t9.5 50h80q-2 -82 -26 -120.5
t-75 -38.5q-24 0 -44.5 8.5z" />
    <glyph glyph-name="o.sc" horiz-adv-x="665" 
d="M168.5 26.5q-64.5 41.5 -94.5 111t-30 156.5q0 88 30 157t95 110t163 41q100 0 164.5 -41t94.5 -110.5t30 -156.5q0 -88 -30 -157.5t-95 -110.5t-164 -41t-163.5 41.5zM440.5 159q30.5 51 30.5 135t-31 135t-108 51q-78 0 -108 -50.5t-30 -135.5t30.5 -135.5t107.5 -50.5
q78 0 108.5 51z" />
    <glyph glyph-name="oacute.sc" horiz-adv-x="665" 
d="M168.5 26.5q-64.5 41.5 -94.5 111t-30 156.5q0 88 30 157t95 110t163 41q100 0 164.5 -41t94.5 -110.5t30 -156.5q0 -88 -30 -157.5t-95 -110.5t-164 -41t-163.5 41.5zM440.5 159q30.5 51 30.5 135t-31 135t-108 51q-78 0 -108 -50.5t-30 -135.5t30.5 -135.5t107.5 -50.5
q78 0 108.5 51zM339 819h136l-103 -156h-123z" />
    <glyph glyph-name="obreve.sc" horiz-adv-x="665" 
d="M168.5 26.5q-64.5 41.5 -94.5 111t-30 156.5q0 88 30 157t95 110t163 41q100 0 164.5 -41t94.5 -110.5t30 -156.5q0 -88 -30 -157.5t-95 -110.5t-164 -41t-163.5 41.5zM440.5 159q30.5 51 30.5 135t-31 135t-108 51q-78 0 -108 -50.5t-30 -135.5t30.5 -135.5t107.5 -50.5
q78 0 108.5 51zM158 820h100q4 -45 21.5 -65.5t53.5 -20.5t53 20.5t22 65.5h98q-8 -164 -173 -164q-166 0 -175 164z" />
    <glyph glyph-name="ocircumflex.sc" horiz-adv-x="665" 
d="M168.5 26.5q-64.5 41.5 -94.5 111t-30 156.5q0 88 30 157t95 110t163 41q100 0 164.5 -41t94.5 -110.5t30 -156.5q0 -88 -30 -157.5t-95 -110.5t-164 -41t-163.5 41.5zM440.5 159q30.5 51 30.5 135t-31 135t-108 51q-78 0 -108 -50.5t-30 -135.5t30.5 -135.5t107.5 -50.5
q78 0 108.5 51zM252 820h162l100 -158h-123l-59 95l-57 -95h-124z" />
    <glyph glyph-name="odieresis.sc" horiz-adv-x="665" 
d="M168.5 26.5q-64.5 41.5 -94.5 111t-30 156.5q0 88 30 157t95 110t163 41q100 0 164.5 -41t94.5 -110.5t30 -156.5q0 -88 -30 -157.5t-95 -110.5t-164 -41t-163.5 41.5zM440.5 159q30.5 51 30.5 135t-31 135t-108 51q-78 0 -108 -50.5t-30 -135.5t30.5 -135.5t107.5 -50.5
q78 0 108.5 51zM193 674.5q-17 9.5 -27 26t-10 36.5t10 36.5t27 26t38 9.5t38 -9.5t26.5 -26t9.5 -36.5t-9.5 -36.5t-26.5 -26t-38 -9.5t-38 9.5zM397 674.5q-17 9.5 -27 26t-10 36.5t10 36.5t27 26t38 9.5q20 0 37 -9.5t27 -26t10 -36.5t-10 -36.5t-27 -26t-37 -9.5
q-21 0 -38 9.5z" />
    <glyph glyph-name="ograve.sc" horiz-adv-x="665" 
d="M168.5 26.5q-64.5 41.5 -94.5 111t-30 156.5q0 88 30 157t95 110t163 41q100 0 164.5 -41t94.5 -110.5t30 -156.5q0 -88 -30 -157.5t-95 -110.5t-164 -41t-163.5 41.5zM440.5 159q30.5 51 30.5 135t-31 135t-108 51q-78 0 -108 -50.5t-30 -135.5t30.5 -135.5t107.5 -50.5
q78 0 108.5 51zM293 663l-103 156h137l89 -156h-123z" />
    <glyph glyph-name="ohungarumlaut.sc" horiz-adv-x="665" 
d="M168.5 26.5q-64.5 41.5 -94.5 111t-30 156.5q0 88 30 157t95 110t163 41q100 0 164.5 -41t94.5 -110.5t30 -156.5q0 -88 -30 -157.5t-95 -110.5t-164 -41t-163.5 41.5zM440.5 159q30.5 51 30.5 135t-31 135t-108 51q-78 0 -108 -50.5t-30 -135.5t30.5 -135.5t107.5 -50.5
q78 0 108.5 51zM284 820h117l-119 -157h-95zM454 820h116l-118 -157h-95z" />
    <glyph glyph-name="omacron.sc" horiz-adv-x="665" 
d="M168.5 26.5q-64.5 41.5 -94.5 111t-30 156.5q0 88 30 157t95 110t163 41q100 0 164.5 -41t94.5 -110.5t30 -156.5q0 -88 -30 -157.5t-95 -110.5t-164 -41t-163.5 41.5zM440.5 159q30.5 51 30.5 135t-31 135t-108 51q-78 0 -108 -50.5t-30 -135.5t30.5 -135.5t107.5 -50.5
q78 0 108.5 51zM183 780h299v-89h-299v89z" />
    <glyph glyph-name="oslash.sc" horiz-adv-x="665" 
d="M560 503q31 -41 46 -94.5t15 -114.5q0 -88 -30 -157.5t-95 -110.5t-164 -41q-109 0 -179 51l-33 -36h-92l76 85q-31 41 -45.5 94.5t-14.5 114.5q0 88 30 157t95 110t163 41q108 0 180 -51l34 37h91zM224 429.5q-30 -50.5 -30 -135.5q0 -60 13 -98l216 253q-34 31 -91 31
q-78 0 -108 -50.5zM440.5 159q30.5 51 30.5 135q0 55 -13 97l-218 -252q34 -31 92 -31q78 0 108.5 51z" />
    <glyph glyph-name="oslashacute.sc" horiz-adv-x="665" 
d="M560 503q31 -41 46 -94.5t15 -114.5q0 -88 -30 -157.5t-95 -110.5t-164 -41q-109 0 -179 51l-33 -36h-92l76 85q-31 41 -45.5 94.5t-14.5 114.5q0 88 30 157t95 110t163 41q108 0 180 -51l34 37h91zM224 429.5q-30 -50.5 -30 -135.5q0 -60 13 -98l216 253q-34 31 -91 31
q-78 0 -108 -50.5zM440.5 159q30.5 51 30.5 135q0 55 -13 97l-218 -252q34 -31 92 -31q78 0 108.5 51zM339 819h136l-103 -156h-123z" />
    <glyph glyph-name="otilde.sc" horiz-adv-x="665" 
d="M168.5 26.5q-64.5 41.5 -94.5 111t-30 156.5q0 88 30 157t95 110t163 41q100 0 164.5 -41t94.5 -110.5t30 -156.5q0 -88 -30 -157.5t-95 -110.5t-164 -41t-163.5 41.5zM440.5 159q30.5 51 30.5 135t-31 135t-108 51q-78 0 -108 -50.5t-30 -135.5t30.5 -135.5t107.5 -50.5
q78 0 108.5 51zM365.5 669.5q-20.5 8.5 -38.5 25.5q-21 17 -33.5 24.5t-26.5 7.5q-17 0 -25 -15.5t-10 -48.5h-80q2 81 26 120t74 39q23 0 43 -9t41 -27q22 -17 34 -24t25 -7q19 0 26.5 15t9.5 50h80q-2 -82 -26 -120.5t-75 -38.5q-24 0 -44.5 8.5z" />
    <glyph glyph-name="oe.sc" horiz-adv-x="889" 
d="M599 470v-113h234v-118h-234v-122h236v-117h-353v42q-64 -51 -163 -51q-96 0 -157.5 39.5t-89.5 107.5t-28 156q0 87 29 155t90.5 107.5t155.5 39.5q101 0 163 -51v43h353v-118h-236zM431.5 158.5q28.5 50.5 28.5 135.5q0 86 -28.5 136t-104.5 50t-104.5 -50t-28.5 -136
t29 -136t104 -50q76 0 104.5 50.5z" />
    <glyph glyph-name="p.sc" horiz-adv-x="545" 
d="M80 588h246q104 0 150.5 -46t46.5 -131q0 -88 -48 -136.5t-149 -48.5h-104v-226h-142v588zM284 334q49 0 71 17.5t22 56.5q0 38 -22 55t-71 17h-62v-146h62z" />
    <glyph glyph-name="thorn.sc" horiz-adv-x="545" 
d="M80 588h142v-84h87q113 0 163.5 -52.5t50.5 -147.5q0 -100 -51 -154.5t-163 -54.5h-87v-95h-142v588zM273 208q57 0 80.5 24t23.5 72q0 45 -23.5 66t-80.5 21h-51v-183h51z" />
    <glyph glyph-name="q.sc" horiz-adv-x="665" 
d="M591.5 137q-29.5 -69 -90.5 -108l66 -96l-102 -65l-76 121q-24 -4 -57 -4q-99 0 -163.5 41.5t-94.5 111t-30 156.5q0 88 30 157t95 110t163 41q100 0 164.5 -41t94.5 -110.5t30 -156.5q0 -88 -29.5 -157zM220.5 164.5q26.5 -49.5 93.5 -55.5l-23 37l89 59l45 -65
q25 25 35.5 64t10.5 90q0 84 -31 135t-108 51q-78 0 -108 -50.5t-30 -135.5q0 -80 26.5 -129.5z" />
    <glyph glyph-name="r.sc" horiz-adv-x="584" 
d="M257 228h-35v-228h-142v588h250q104 0 151.5 -46.5t47.5 -127.5q0 -144 -122 -177l166 -237h-158zM222 329h66q51 0 73 19.5t22 61.5q0 38 -22.5 54t-72.5 16h-66v-151z" />
    <glyph glyph-name="racute.sc" horiz-adv-x="584" 
d="M257 228h-35v-228h-142v588h250q104 0 151.5 -46.5t47.5 -127.5q0 -144 -122 -177l166 -237h-158zM222 329h66q51 0 73 19.5t22 61.5q0 38 -22.5 54t-72.5 16h-66v-151zM296 819h136l-103 -156h-123z" />
    <glyph glyph-name="rcaron.sc" horiz-adv-x="584" 
d="M257 228h-35v-228h-142v588h250q104 0 151.5 -46.5t47.5 -127.5q0 -144 -122 -177l166 -237h-158zM222 329h66q51 0 73 19.5t22 61.5q0 38 -22.5 54t-72.5 16h-66v-151zM370 662h-162l-100 157h123l58 -94l58 94h124z" />
    <glyph glyph-name="uni0157.sc" horiz-adv-x="584" 
d="M257 228h-35v-228h-142v588h250q104 0 151.5 -46.5t47.5 -127.5q0 -144 -122 -177l166 -237h-158zM222 329h66q51 0 73 19.5t22 61.5q0 38 -22.5 54t-72.5 16h-66v-151zM245 -52h142l-52 -148h-126z" />
    <glyph glyph-name="s.sc" horiz-adv-x="551" 
d="M138.5 10q-54.5 25 -80.5 68.5t-26 100.5h157q0 -40 20 -62t69 -22q43 0 64.5 17t21.5 45q0 23 -15.5 38t-46.5 27.5t-101 35.5q-77 25 -116 62.5t-39 100.5q0 53 26 94t77 64t123 23q73 0 122 -23t73.5 -65t24.5 -98h-147q0 38 -17.5 59t-60.5 21q-38 0 -57.5 -15
t-19.5 -39q0 -21 15.5 -34.5t44.5 -24t92 -28.5q62 -18 100 -39t57.5 -53.5t19.5 -82.5q0 -61 -28 -105t-83 -67t-133 -23q-82 0 -136.5 25z" />
    <glyph glyph-name="sacute.sc" horiz-adv-x="551" 
d="M138.5 10q-54.5 25 -80.5 68.5t-26 100.5h157q0 -40 20 -62t69 -22q43 0 64.5 17t21.5 45q0 23 -15.5 38t-46.5 27.5t-101 35.5q-77 25 -116 62.5t-39 100.5q0 53 26 94t77 64t123 23q73 0 122 -23t73.5 -65t24.5 -98h-147q0 38 -17.5 59t-60.5 21q-38 0 -57.5 -15
t-19.5 -39q0 -21 15.5 -34.5t44.5 -24t92 -28.5q62 -18 100 -39t57.5 -53.5t19.5 -82.5q0 -61 -28 -105t-83 -67t-133 -23q-82 0 -136.5 25zM283 819h136l-103 -156h-123z" />
    <glyph glyph-name="scaron.sc" horiz-adv-x="551" 
d="M138.5 10q-54.5 25 -80.5 68.5t-26 100.5h157q0 -40 20 -62t69 -22q43 0 64.5 17t21.5 45q0 23 -15.5 38t-46.5 27.5t-101 35.5q-77 25 -116 62.5t-39 100.5q0 53 26 94t77 64t123 23q73 0 122 -23t73.5 -65t24.5 -98h-147q0 38 -17.5 59t-60.5 21q-38 0 -57.5 -15
t-19.5 -39q0 -21 15.5 -34.5t44.5 -24t92 -28.5q62 -18 100 -39t57.5 -53.5t19.5 -82.5q0 -61 -28 -105t-83 -67t-133 -23q-82 0 -136.5 25zM357 662h-162l-100 157h123l58 -94l58 94h124z" />
    <glyph glyph-name="scedilla.sc" horiz-adv-x="551" 
d="M466.5 45.5q-52.5 -50.5 -151.5 -58.5l-7 -26h9q46 0 72 -25t26 -65q0 -53 -37.5 -77t-106.5 -24q-52 0 -95 16l14 67q32 -13 70 -13q28 0 43 8t15 26t-14 26t-46 8h-56l20 80q-95 12 -142.5 63t-47.5 128h157q0 -40 20 -62t69 -22q43 0 64.5 17t21.5 45q0 23 -15.5 38
t-46.5 27.5t-101 35.5q-77 25 -116 62.5t-39 100.5q0 53 26 94t77 64t123 23q73 0 122 -23t73.5 -65t24.5 -98h-147q0 38 -17.5 59t-60.5 21q-38 0 -57.5 -15t-19.5 -39q0 -21 15.5 -34.5t44.5 -24t92 -28.5q62 -18 100 -39t57.5 -53.5t19.5 -82.5q0 -84 -52.5 -134.5z" />
    <glyph glyph-name="scircumflex.sc" horiz-adv-x="551" 
d="M138.5 10q-54.5 25 -80.5 68.5t-26 100.5h157q0 -40 20 -62t69 -22q43 0 64.5 17t21.5 45q0 23 -15.5 38t-46.5 27.5t-101 35.5q-77 25 -116 62.5t-39 100.5q0 53 26 94t77 64t123 23q73 0 122 -23t73.5 -65t24.5 -98h-147q0 38 -17.5 59t-60.5 21q-38 0 -57.5 -15
t-19.5 -39q0 -21 15.5 -34.5t44.5 -24t92 -28.5q62 -18 100 -39t57.5 -53.5t19.5 -82.5q0 -61 -28 -105t-83 -67t-133 -23q-82 0 -136.5 25zM196 820h162l100 -158h-123l-59 95l-57 -95h-124z" />
    <glyph glyph-name="uni0219.sc" horiz-adv-x="551" 
d="M138.5 10q-54.5 25 -80.5 68.5t-26 100.5h157q0 -40 20 -62t69 -22q43 0 64.5 17t21.5 45q0 23 -15.5 38t-46.5 27.5t-101 35.5q-77 25 -116 62.5t-39 100.5q0 53 26 94t77 64t123 23q73 0 122 -23t73.5 -65t24.5 -98h-147q0 38 -17.5 59t-60.5 21q-38 0 -57.5 -15
t-19.5 -39q0 -21 15.5 -34.5t44.5 -24t92 -28.5q62 -18 100 -39t57.5 -53.5t19.5 -82.5q0 -61 -28 -105t-83 -67t-133 -23q-82 0 -136.5 25zM206 -52h142l-52 -148h-126z" />
    <glyph glyph-name="germandbls.sc" horiz-adv-x="610" 
d="M550 288.5q27 -44.5 27 -102.5q0 -56 -24 -99t-73.5 -67t-121.5 -24q-41 0 -83 7v118q14 -3 50 -3q54 0 80 20t26 56q0 38 -24 59.5t-76 21.5q-7 0 -25 -2v3l77 191h-161v-467h-142v588h480v-5l-93 -232q56 -18 83 -62.5z" />
    <glyph glyph-name="t.sc" horiz-adv-x="488" 
d="M174 470h-153v118h446v-118h-152v-470h-141v470z" />
    <glyph glyph-name="tbar.sc" horiz-adv-x="488" 
d="M315 470v-112h92v-88h-92v-270h-141v270h-92v88h92v112h-153v118h446v-118h-152z" />
    <glyph glyph-name="tcaron.sc" horiz-adv-x="491" 
d="M174 470h-153v118h446v-118h-152v-470h-141v470zM325 662h-162l-100 157h123l58 -94l58 94h124z" />
    <glyph glyph-name="uni0163.sc" horiz-adv-x="488" 
d="M287 0l-11 -39h9q46 0 72 -25t26 -65q0 -53 -37.5 -77t-106.5 -24q-52 0 -95 16l14 67q32 -13 70 -13q28 0 43 8t15 26t-14 26t-46 8h-56l23 92h-19v470h-153v118h446v-118h-152v-470h-28z" />
    <glyph glyph-name="uni021B.sc" horiz-adv-x="488" 
d="M174 470h-153v118h446v-118h-152v-470h-141v470zM174 -52h142l-52 -148h-126z" />
    <glyph glyph-name="u.sc" horiz-adv-x="616" 
d="M123.5 40.5q-59.5 55.5 -59.5 166.5v381h143v-370q0 -37 9 -61t31 -36t60 -12q39 0 61.5 12t32 36t9.5 61v370h141v-381q0 -111 -59.5 -166.5t-184.5 -55.5q-124 0 -183.5 55.5z" />
    <glyph glyph-name="uacute.sc" horiz-adv-x="616" 
d="M123.5 40.5q-59.5 55.5 -59.5 166.5v381h143v-370q0 -37 9 -61t31 -36t60 -12q39 0 61.5 12t32 36t9.5 61v370h141v-381q0 -111 -59.5 -166.5t-184.5 -55.5q-124 0 -183.5 55.5zM315 819h136l-103 -156h-123z" />
    <glyph glyph-name="ubreve.sc" horiz-adv-x="616" 
d="M123.5 40.5q-59.5 55.5 -59.5 166.5v381h143v-370q0 -37 9 -61t31 -36t60 -12q39 0 61.5 12t32 36t9.5 61v370h141v-381q0 -111 -59.5 -166.5t-184.5 -55.5q-124 0 -183.5 55.5zM135 820h100q4 -45 21.5 -65.5t53.5 -20.5t53 20.5t22 65.5h98q-8 -164 -173 -164
q-166 0 -175 164z" />
    <glyph glyph-name="ucircumflex.sc" horiz-adv-x="616" 
d="M123.5 40.5q-59.5 55.5 -59.5 166.5v381h143v-370q0 -37 9 -61t31 -36t60 -12q39 0 61.5 12t32 36t9.5 61v370h141v-381q0 -111 -59.5 -166.5t-184.5 -55.5q-124 0 -183.5 55.5zM229 820h162l100 -158h-123l-59 95l-57 -95h-124z" />
    <glyph glyph-name="udieresis.sc" horiz-adv-x="616" 
d="M123.5 40.5q-59.5 55.5 -59.5 166.5v381h143v-370q0 -37 9 -61t31 -36t60 -12q39 0 61.5 12t32 36t9.5 61v370h141v-381q0 -111 -59.5 -166.5t-184.5 -55.5q-124 0 -183.5 55.5zM170 674.5q-17 9.5 -27 26t-10 36.5t10 36.5t27 26t38 9.5t38 -9.5t26.5 -26t9.5 -36.5
t-9.5 -36.5t-26.5 -26t-38 -9.5t-38 9.5zM374 674.5q-17 9.5 -27 26t-10 36.5t10 36.5t27 26t38 9.5q20 0 37 -9.5t27 -26t10 -36.5t-10 -36.5t-27 -26t-37 -9.5q-21 0 -38 9.5z" />
    <glyph glyph-name="ugrave.sc" horiz-adv-x="616" 
d="M123.5 40.5q-59.5 55.5 -59.5 166.5v381h143v-370q0 -37 9 -61t31 -36t60 -12q39 0 61.5 12t32 36t9.5 61v370h141v-381q0 -111 -59.5 -166.5t-184.5 -55.5q-124 0 -183.5 55.5zM270 663l-103 156h137l89 -156h-123z" />
    <glyph glyph-name="uhungarumlaut.sc" horiz-adv-x="616" 
d="M123.5 40.5q-59.5 55.5 -59.5 166.5v381h143v-370q0 -37 9 -61t31 -36t60 -12q39 0 61.5 12t32 36t9.5 61v370h141v-381q0 -111 -59.5 -166.5t-184.5 -55.5q-124 0 -183.5 55.5zM260 820h117l-119 -157h-95zM430 820h116l-118 -157h-95z" />
    <glyph glyph-name="umacron.sc" horiz-adv-x="616" 
d="M123.5 40.5q-59.5 55.5 -59.5 166.5v381h143v-370q0 -37 9 -61t31 -36t60 -12q39 0 61.5 12t32 36t9.5 61v370h141v-381q0 -111 -59.5 -166.5t-184.5 -55.5q-124 0 -183.5 55.5zM160 780h299v-89h-299v89z" />
    <glyph glyph-name="uogonek.sc" horiz-adv-x="616" 
d="M551 588v-381q0 -71 -23 -118t-69 -81q-38 -28 -57.5 -50t-19.5 -46q0 -17 11 -26t28 -9q23 0 41 7v-77q-29 -12 -74 -12q-54 0 -85.5 23.5t-31.5 68.5q0 29 15 53t42 45h-21q-124 0 -183.5 55.5t-59.5 166.5v381h143v-370q0 -37 9 -61t31 -36t60 -12q39 0 61.5 12t32 36
t9.5 61v370h141z" />
    <glyph glyph-name="uring.sc" horiz-adv-x="616" 
d="M123.5 40.5q-59.5 55.5 -59.5 166.5v381h143v-370q0 -37 9 -61t31 -36t60 -12q39 0 61.5 12t32 36t9.5 61v370h141v-381q0 -111 -59.5 -166.5t-184.5 -55.5q-124 0 -183.5 55.5zM241 658q-29 15 -45 42t-16 62q0 36 16 63t45 41.5t68 14.5t68.5 -15t45.5 -42t16 -62
t-16 -62t-45.5 -42t-68.5 -15t-68 15zM347 725.5q14 13.5 14 36.5t-14 37t-38 14q-23 0 -37 -14t-14 -37t14 -36.5t37 -13.5q24 0 38 13.5z" />
    <glyph glyph-name="utilde.sc" horiz-adv-x="616" 
d="M123.5 40.5q-59.5 55.5 -59.5 166.5v381h143v-370q0 -37 9 -61t31 -36t60 -12q39 0 61.5 12t32 36t9.5 61v370h141v-381q0 -111 -59.5 -166.5t-184.5 -55.5q-124 0 -183.5 55.5zM342.5 669.5q-20.5 8.5 -38.5 25.5q-21 17 -33.5 24.5t-26.5 7.5q-17 0 -25 -15.5
t-10 -48.5h-80q2 81 26 120t74 39q23 0 43 -9t41 -27q22 -17 34 -24t25 -7q19 0 26.5 15t9.5 50h80q-2 -82 -26 -120.5t-75 -38.5q-24 0 -44.5 8.5z" />
    <glyph glyph-name="v.sc" horiz-adv-x="588" 
d="M582 588l-217 -588h-141l-218 588h148l141 -417l140 417h147z" />
    <glyph glyph-name="w.sc" horiz-adv-x="814" 
d="M808 588l-160 -588h-147l-93 390l-94 -390h-146l-162 588h139l98 -381l91 381h148l90 -378l97 378h139z" />
    <glyph glyph-name="wacute.sc" horiz-adv-x="814" 
d="M808 588l-160 -588h-147l-93 390l-94 -390h-146l-162 588h139l98 -381l91 381h148l90 -378l97 378h139zM414 819h136l-103 -156h-123z" />
    <glyph glyph-name="wcircumflex.sc" horiz-adv-x="814" 
d="M808 588l-160 -588h-147l-93 390l-94 -390h-146l-162 588h139l98 -381l91 381h148l90 -378l97 378h139zM327 820h162l100 -158h-123l-59 95l-57 -95h-124z" />
    <glyph glyph-name="wdieresis.sc" horiz-adv-x="814" 
d="M808 588l-160 -588h-147l-93 390l-94 -390h-146l-162 588h139l98 -381l91 381h148l90 -378l97 378h139zM269 674.5q-17 9.5 -27 26t-10 36.5t10 36.5t27 26t38 9.5t38 -9.5t26.5 -26t9.5 -36.5t-9.5 -36.5t-26.5 -26t-38 -9.5t-38 9.5zM473 674.5q-17 9.5 -27 26
t-10 36.5t10 36.5t27 26t38 9.5q20 0 37 -9.5t27 -26t10 -36.5t-10 -36.5t-27 -26t-37 -9.5q-21 0 -38 9.5z" />
    <glyph glyph-name="wgrave.sc" horiz-adv-x="814" 
d="M808 588l-160 -588h-147l-93 390l-94 -390h-146l-162 588h139l98 -381l91 381h148l90 -378l97 378h139zM369 663l-103 156h137l89 -156h-123z" />
    <glyph glyph-name="x.sc" horiz-adv-x="618" 
d="M224 317l-191 271h165l112 -165l112 165h165l-191 -275l216 -313h-166l-136 199l-137 -199h-167z" />
    <glyph glyph-name="y.sc" horiz-adv-x="529" 
d="M194 252l-188 336h152l107 -196l107 196h151l-188 -336v-252h-141v252z" />
    <glyph glyph-name="yacute.sc" horiz-adv-x="529" 
d="M194 252l-188 336h152l107 -196l107 196h151l-188 -336v-252h-141v252zM271 819h136l-103 -156h-123z" />
    <glyph glyph-name="ycircumflex.sc" horiz-adv-x="529" 
d="M194 252l-188 336h152l107 -196l107 196h151l-188 -336v-252h-141v252zM184 820h162l100 -158h-123l-59 95l-57 -95h-124z" />
    <glyph glyph-name="ydieresis.sc" horiz-adv-x="529" 
d="M194 252l-188 336h152l107 -196l107 196h151l-188 -336v-252h-141v252zM126 674.5q-17 9.5 -27 26t-10 36.5t10 36.5t27 26t38 9.5t38 -9.5t26.5 -26t9.5 -36.5t-9.5 -36.5t-26.5 -26t-38 -9.5t-38 9.5zM330 674.5q-17 9.5 -27 26t-10 36.5t10 36.5t27 26t38 9.5
q20 0 37 -9.5t27 -26t10 -36.5t-10 -36.5t-27 -26t-37 -9.5q-21 0 -38 9.5z" />
    <glyph glyph-name="ygrave.sc" horiz-adv-x="529" 
d="M194 252l-188 336h152l107 -196l107 196h151l-188 -336v-252h-141v252zM226 663l-103 156h137l89 -156h-123z" />
    <glyph glyph-name="z.sc" horiz-adv-x="535" 
d="M276 467h-239v121h455l-251 -467h264v-121h-483z" />
    <glyph glyph-name="zacute.sc" horiz-adv-x="535" 
d="M276 467h-239v121h455l-251 -467h264v-121h-483zM268 819h136l-103 -156h-123z" />
    <glyph glyph-name="zcaron.sc" horiz-adv-x="535" 
d="M276 467h-239v121h455l-251 -467h264v-121h-483zM343 662h-162l-100 157h123l58 -94l58 94h124z" />
    <glyph glyph-name="zdotaccent.sc" horiz-adv-x="535" 
d="M276 467h-239v121h455l-251 -467h264v-121h-483zM222 678.5q-18 9.5 -28 26.5t-10 38q0 33 22 54.5t56 21.5q22 0 39.5 -10t28 -27t10.5 -39q0 -21 -10.5 -38t-28 -26.5t-39.5 -9.5t-40 9.5z" />
    <glyph glyph-name="m.sc.ss01" horiz-adv-x="768" 
d="M80 588h175l132 -213l128 213h172v-588h-137v414l-135 -222h-61l-137 222v-414h-137v588z" />
    <glyph glyph-name="q.sc.ss02" horiz-adv-x="665" 
d="M588.5 131.5q-32.5 -71.5 -98.5 -109.5l57 -102l-124 -59l-64 125q-8 -1 -27 -1q-99 0 -163.5 41.5t-94.5 111t-30 156.5q0 88 30 157t95 110t163 41q100 0 164.5 -41t94.5 -110.5t30 -156.5q0 -91 -32.5 -162.5zM224.5 158.5q30.5 -50.5 107.5 -50.5q78 0 108.5 51
t30.5 135t-31 135t-108 51q-78 0 -108 -50.5t-30 -135.5t30.5 -135.5z" />
    <glyph glyph-name="oslash.sc.ss04" horiz-adv-x="665" 
d="M559 504q31 -40 46.5 -94t15.5 -116q0 -88 -30 -157.5t-95 -110.5t-164 -41q-73 0 -131 24l-63 -88l-102 69l70 93q-31 41 -46.5 95t-15.5 116q0 88 30 157t95 110t163 41q73 0 132 -24l64 90l102 -69zM440.5 159q30.5 51 30.5 135t-31 135t-108 51q-78 0 -108 -50.5
t-30 -135.5t30.5 -135.5t107.5 -50.5q78 0 108.5 51z" />
    <glyph glyph-name="ordfeminine" unicode="&#xaa;" horiz-adv-x="406" 
d="M325 678.5q37 -38.5 37 -116.5v-202h-109v41q-18 -23 -46 -36.5t-65 -13.5q-58 0 -88 28.5t-30 77.5q0 61 44.5 88t132.5 27h52v2q0 25 -4 39.5t-16 21.5t-35 7q-51 0 -51 -46h-111q0 59 41 90t122 31q89 0 126 -38.5zM239.5 449.5q13.5 19.5 13.5 55.5v7h-44
q-38 0 -54 -9t-16 -32q0 -20 12.5 -30.5t36.5 -10.5q38 0 51.5 19.5z" />
    <glyph glyph-name="ordmasculine" unicode="&#xba;" horiz-adv-x="411" 
d="M104 375.5q-40 24.5 -59.5 66t-19.5 92.5q0 52 19.5 93.5t60 65.5t100.5 24q61 0 101.5 -24t59.5 -65t19 -94q0 -51 -19.5 -92.5t-59.5 -66t-101 -24.5t-101 24.5zM256 466.5q13 23.5 13 67.5t-13 68t-51 24q-37 0 -50.5 -24.5t-13.5 -67.5t13.5 -67t50.5 -24
q38 0 51 23.5z" />
    <glyph glyph-name="n.superior" unicode="&#x207f;" horiz-adv-x="396" 
d="M322 720q27 -29 27 -82v-200h-103v176q0 25 -11 35.5t-34 10.5q-47 0 -47 -49v-173h-104v302h104v-33q16 21 38 31.5t53 10.5q50 0 77 -29z" />
    <glyph glyph-name="A.subs" horiz-adv-x="422" 
d="M284 -55h-147l-20 -65h-112l124 388h164l124 -388h-113zM259 29l-48 157h-1l-48 -157h97z" />
    <glyph glyph-name="B.subs" horiz-adv-x="404" 
d="M359.5 51q18.5 -25 18.5 -60q0 -51 -35 -81t-101 -30h-182v388h183q40 0 67.5 -13t40.5 -34.5t13 -47.5q0 -30 -16.5 -52t-49.5 -31q43 -14 61.5 -39zM169 117h30q30 0 43.5 11t13.5 31q0 39 -58 39h-29v-81zM268 -2q0 25 -17.5 38.5t-51.5 13.5h-30v-100h29q70 0 70 48z
" />
    <glyph glyph-name="C.subs" horiz-adv-x="441" 
d="M119.5 -104q-44.5 27 -65.5 73t-21 105t21 105t65 73t111 27q51 0 91.5 -20.5t64 -56.5t24.5 -83h-115q-1 31 -19 48.5t-51 17.5q-45 0 -61 -28.5t-16 -81.5q0 -36 6 -60t22.5 -37.5t48.5 -13.5q36 0 53 15t19 44h115q-1 -45 -25 -80t-65.5 -54.5t-91.5 -19.5
q-66 0 -110.5 27z" />
    <glyph glyph-name="D.subs" horiz-adv-x="454" 
d="M60 268h167q100 0 146.5 -52.5t46.5 -141.5t-47 -141.5t-146 -52.5h-167v388zM208 -30q56 0 76.5 27t20.5 77q0 51 -21 78t-76 27h-39v-209h39z" />
    <glyph glyph-name="E.subs" horiz-adv-x="361" 
d="M60 268h261v-84h-152v-65h151v-85h-151v-69h152v-85h-261v388z" />
    <glyph glyph-name="F.subs" horiz-adv-x="339" 
d="M60 268h247v-84h-138v-71h136v-84h-136v-149h-109v388z" />
    <glyph glyph-name="G.subs" horiz-adv-x="443" 
d="M410 96v-29q0 -55 -18.5 -100t-58.5 -71.5t-103 -26.5q-67 0 -111.5 27.5t-65 73.5t-20.5 104t21 104t65 73.5t111 27.5q49 0 88.5 -18.5t62.5 -51.5t26 -76h-109q-3 27 -21.5 41t-49.5 14q-32 0 -49.5 -14.5t-23.5 -39t-6 -60.5q0 -39 6.5 -63.5t24.5 -38t53 -13.5
q36 0 53.5 15.5t19.5 43.5h-78v78h183z" />
    <glyph glyph-name="H.subs" horiz-adv-x="470" 
d="M60 268h109v-146h131v146h109v-388h-109v149h-131v-149h-109v388z" />
    <glyph glyph-name="I.subs" horiz-adv-x="230" 
d="M60 268h109v-388h-109v388z" />
    <glyph glyph-name="J.subs" horiz-adv-x="250" 
d="M16 -120v100q6 -1 20 -1q32 0 44 11.5t12 42.5v235h109v-250q0 -71 -35.5 -105.5t-113.5 -34.5q-12 0 -36 2z" />
    <glyph glyph-name="K.subs" horiz-adv-x="437" 
d="M299 -120l-130 170v-170h-109v388h109v-137l112 137h127l-145 -172l169 -216h-133z" />
    <glyph glyph-name="L.subs" horiz-adv-x="306" 
d="M60 268h109v-291h122v-97h-231v388z" />
    <glyph glyph-name="M.subs" horiz-adv-x="566" 
d="M60 268h122l102 -218l101 218h121v-388h-103v222l-101 -222h-38l-101 222v-222h-103v388z" />
    <glyph glyph-name="N.subs" horiz-adv-x="480" 
d="M60 268h108l146 -222v222h106v-388h-108l-146 223v-223h-106v388z" />
    <glyph glyph-name="O.subs" horiz-adv-x="462" 
d="M118.5 -103.5q-44.5 27.5 -65 73.5t-20.5 104q0 59 21 105t65.5 73t110.5 27q68 0 112 -27.5t65 -73.5t21 -104t-21 -104.5t-65.5 -73.5t-111.5 -27t-111.5 27.5zM295 -6q18 30 18 80t-18.5 80t-64.5 30q-48 0 -65 -29.5t-17 -80.5t17.5 -80.5t64.5 -29.5t65 30z" />
    <glyph glyph-name="P.subs" horiz-adv-x="385" 
d="M60 268h175q72 0 103 -31t31 -88q0 -128 -134 -128h-66v-141h-109v388zM201 95q30 0 45 12.5t15 37.5t-15 37t-45 12h-32v-99h32z" />
    <glyph glyph-name="Q.subs" horiz-adv-x="462" 
d="M409 -26.5q-19 -44.5 -57 -71.5l41 -59l-70 -44l-47 74q-19 -4 -46 -4q-67 0 -111.5 27.5t-65 73.5t-20.5 104q0 59 21 105t65.5 73t110.5 27q68 0 112 -27.5t65 -73.5t21 -104q0 -56 -19 -100.5zM163 -3q15 -29 55 -32l-15 23l61 40l27 -39q22 27 22 85q0 50 -18.5 80
t-64.5 30q-48 0 -65 -29.5t-17 -80.5q0 -48 15 -77z" />
    <glyph glyph-name="R.subs" horiz-adv-x="411" 
d="M183 22h-14v-142h-109v388h176q135 0 135 -118q0 -95 -75 -119l106 -151h-120zM169 92h34q29 0 42.5 12t13.5 39t-13.5 39t-42.5 12h-34v-102z" />
    <glyph glyph-name="S.subs" horiz-adv-x="385" 
d="M98.5 -114.5q-37.5 16.5 -56 45t-18.5 65.5h121q0 -42 50 -42q45 0 45 31q0 13 -9 21.5t-29 17t-60 21.5q-55 18 -81.5 44t-26.5 69q0 35 18 62.5t53.5 43t85.5 15.5q73 0 112 -32.5t39 -89.5h-114q0 19 -10 30t-33 11q-20 0 -30.5 -8t-10.5 -21q0 -10 8 -17.5t27 -15.5
t55 -18q63 -19 95 -47t32 -76q0 -38 -20 -66.5t-58 -44t-91 -15.5q-56 0 -93.5 16.5z" />
    <glyph glyph-name="T.subs" horiz-adv-x="334" 
d="M113 179h-97v89h302v-89h-96v-299h-109v299z" />
    <glyph glyph-name="U.subs" horiz-adv-x="437" 
d="M90.5 -92.5q-41.5 38.5 -41.5 114.5v246h109v-237q0 -34 13 -50.5t47 -16.5q35 0 48.5 16.5t13.5 50.5v237h108v-246q0 -76 -41.5 -114.5t-128.5 -38.5q-86 0 -127.5 38.5z" />
    <glyph glyph-name="V.subs" horiz-adv-x="409" 
d="M405 268l-146 -388h-108l-146 388h114l87 -256l86 256h113z" />
    <glyph glyph-name="W.subs" horiz-adv-x="559" 
d="M555 268l-107 -388h-113l-55 235l-56 -235h-111l-108 388h106l61 -236l55 236h107l54 -235l59 235h108z" />
    <glyph glyph-name="X.subs" horiz-adv-x="430" 
d="M149 90l-126 178h126l66 -95l67 95h126l-126 -181l143 -207h-128l-82 119l-82 -119h-128z" />
    <glyph glyph-name="Y.subs" horiz-adv-x="367" 
d="M129 46l-124 222h116l64 -114l62 114h115l-124 -222v-166h-109v166z" />
    <glyph glyph-name="Z.subs" horiz-adv-x="370" 
d="M173 176h-147v92h314l-156 -296h163v-92h-331z" />
    <glyph glyph-name="a.subs" horiz-adv-x="383" 
d="M276 175.5q33 -15.5 46.5 -45.5t13.5 -76v-174h-103v33q-31 -41 -98 -41q-54 0 -81.5 25t-27.5 69q0 55 40.5 78t121.5 23h45v4q0 25 -9.5 37t-35.5 12q-22 0 -33 -8.5t-12 -22.5h-106q2 50 40 76t110 26q56 0 89 -15.5zM220.5 -38.5q12.5 16.5 12.5 43.5v5h-37
q-32 0 -46 -7.5t-14 -25.5q0 -17 10 -24.5t31 -7.5q31 0 43.5 16.5z" />
    <glyph glyph-name="b.subs" horiz-adv-x="402" 
d="M341.5 145.5q32.5 -45.5 32.5 -115.5q0 -44 -14 -79.5t-44 -57t-75 -21.5q-60 0 -91 41v-33h-100v424h104v-150q31 37 87 37q68 0 100.5 -45.5zM252.5 -21.5q11.5 18.5 11.5 51.5q0 35 -12 53.5t-45 18.5q-55 0 -55 -61v-21q0 -60 55 -60q34 0 45.5 18.5z" />
    <glyph glyph-name="c.subs" horiz-adv-x="374" 
d="M99.5 -107q-36.5 21 -54 56.5t-17.5 80.5q0 47 18 83t54 57t90 21q45 0 79.5 -14.5t55 -43t22.5 -68.5h-114q-2 18 -13 27.5t-30 9.5q-29 0 -41 -19t-12 -53t11.5 -52t41.5 -18q20 0 31.5 11t11.5 27h114q-2 -40 -22.5 -68.5t-55.5 -43t-79 -14.5q-54 0 -90.5 21z" />
    <glyph glyph-name="d.subs" horiz-adv-x="402" 
d="M352 304v-424h-101v33q-31 -41 -91 -41q-45 0 -74.5 21.5t-43.5 57t-14 79.5q0 70 32.5 115.5t99.5 45.5q57 0 88 -37v150h104zM249 41q0 61 -54 61q-33 0 -45 -18.5t-12 -53.5q0 -34 11.5 -52t45.5 -18q54 0 54 60v21z" />
    <glyph glyph-name="e.subs" horiz-adv-x="380" 
d="M244 -24h105q-2 -32 -22.5 -55.5t-55 -36t-75.5 -12.5q-85 0 -126.5 43.5t-41.5 116.5q0 46 17.5 82t53 56.5t89.5 20.5t93 -22t56 -61q10 -22 12.5 -43t2.5 -59h-217q2 -31 15.5 -47t42.5 -16q47 0 51 33zM151.5 106.5q-12.5 -13.5 -15.5 -41.5h109q-3 28 -15.5 41.5
t-39.5 13.5q-26 0 -38.5 -13.5z" />
    <glyph glyph-name="f.subs" horiz-adv-x="231" 
d="M49 98h-36v84h36v24q0 57 28 83t93 26q29 0 48 -6v-76q-16 4 -28 4q-38 0 -38 -35v-20h64v-84h-64v-218h-103v218z" />
    <glyph glyph-name="g.subs" horiz-adv-x="402" 
d="M352 182v-285q0 -146 -159 -146q-66 0 -108 25t-50 74h109q4 -13 16.5 -20.5t30.5 -7.5q29 0 43 14.5t14 41.5v40q-15 -21 -38 -31.5t-55 -10.5q-65 0 -96 45t-31 113q0 69 31.5 113t95.5 44q34 0 57 -11.5t39 -34.5v37h101zM247 42q0 60 -55 60q-32 0 -43 -18t-11 -51
q0 -35 11 -53.5t43 -18.5q55 0 55 59v22z" />
    <glyph glyph-name="h.subs" horiz-adv-x="396" 
d="M322 162q27 -29 27 -82v-200h-103v176q0 25 -11 35.5t-34 10.5q-47 0 -47 -49v-173h-104v424h104v-155q16 21 38 31.5t53 10.5q50 0 77 -29z" />
    <glyph glyph-name="i.subs" horiz-adv-x="203" 
d="M61 233.5q-16 15.5 -16 37.5q0 23 16 38.5t40 15.5q23 0 39.5 -15.5t16.5 -38.5q0 -22 -16.5 -37.5t-39.5 -15.5q-24 0 -40 15.5zM50 182h103v-302h-103v302z" />
    <glyph glyph-name="j.subs" horiz-adv-x="203" 
d="M62 233.5q-16 15.5 -16 37.5q0 23 15.5 38.5t40.5 15.5q23 0 39 -15.5t16 -38.5q0 -22 -16 -37.5t-39 -15.5q-24 0 -40 15.5zM1 -239v90q7 -2 20 -2q16 0 22.5 7t6.5 21v305h104v-318q0 -56 -26 -81t-83 -25q-25 0 -44 3z" />
    <glyph glyph-name="k.subs" horiz-adv-x="369" 
d="M244 -120l-90 122v-122h-104v424h104v-219l80 97h129l-120 -137l135 -165h-134z" />
    <glyph glyph-name="l.subs" horiz-adv-x="203" 
d="M50 304h103v-424h-103v424z" />
    <glyph glyph-name="m.subs" horiz-adv-x="580" 
d="M507.5 162q25.5 -29 25.5 -84v-198h-103v175q0 24 -10.5 35.5t-31.5 11.5q-23 0 -34 -12.5t-11 -38.5v-171h-103v175q0 25 -10 36t-33 11q-43 0 -43 -51v-171h-104v302h104v-33q30 42 91 42q69 0 89 -48q16 25 40.5 36.5t57.5 11.5q50 0 75.5 -29z" />
    <glyph glyph-name="n.subs" horiz-adv-x="396" 
d="M322 162q27 -29 27 -82v-200h-103v176q0 25 -11 35.5t-34 10.5q-47 0 -47 -49v-173h-104v302h104v-33q16 21 38 31.5t53 10.5q50 0 77 -29z" />
    <glyph glyph-name="o.subs" horiz-adv-x="384" 
d="M101 -107q-37 21 -55 57t-18 81q0 46 18 82t55 57t92 21t92 -21t54.5 -57t17.5 -82t-18 -82t-54.5 -56.5t-91.5 -20.5t-92 21zM237 -21.5q11 18.5 11 52.5q0 35 -11 53t-44 18q-23 0 -35 -8.5t-16 -23.5t-4 -39q0 -35 11.5 -53t43.5 -18q33 0 44 18.5z" />
    <glyph glyph-name="p.subs" horiz-adv-x="402" 
d="M316.5 169.5q29.5 -21.5 43.5 -57.5t14 -80q0 -45 -14 -81t-44 -57.5t-75 -21.5q-30 0 -51 9t-36 28v-150h-104v423h100v-34q16 22 38 32.5t53 10.5q46 0 75.5 -21.5zM252.5 -20.5q11.5 18.5 11.5 52.5t-12 52t-45 18q-55 0 -55 -60v-20q0 -30 14 -45.5t41 -15.5
q34 0 45.5 18.5z" />
    <glyph glyph-name="q.subs" horiz-adv-x="402" 
d="M352 182v-423h-104v150q-16 -19 -37 -28t-51 -9q-45 0 -74.5 21.5t-43.5 57.5t-14 81q0 44 13.5 80t43.5 57.5t75 21.5q31 0 53 -10t38 -31v32h101zM249 22v20q0 60 -54 60q-33 0 -45 -18t-12 -52t11.5 -52.5t45.5 -18.5q54 0 54 61z" />
    <glyph glyph-name="r.subs" horiz-adv-x="271" 
d="M260 182v-92q-11 3 -30 3q-37 0 -56.5 -23.5t-19.5 -68.5v-121h-104v302h102v-39q26 44 77 44q18 0 31 -5z" />
    <glyph glyph-name="s.subs" horiz-adv-x="332" 
d="M60.5 -102q-34.5 29 -34.5 81h103q0 -18 8 -28t28 -10q31 0 31 22q0 13 -13 20.5t-47 16.5q-33 10 -54 20.5t-33 28.5t-12 45q0 46 33.5 71.5t95.5 25.5t94 -25.5t32 -71.5h-98q0 31 -30 31q-27 0 -27 -20q0 -8 6 -13t21.5 -10.5t36.5 -11.5q36 -10 58.5 -21.5t34 -29.5
t11.5 -46q0 -51 -36.5 -77.5t-102.5 -26.5q-71 0 -105.5 29z" />
    <glyph glyph-name="t.subs" horiz-adv-x="244" 
d="M94 -116q-23 10 -33.5 32.5t-10.5 61.5v120h-39v84h39v70h104v-70h68v-84h-68v-103q0 -19 8.5 -27t27.5 -8q15 0 31 3v-82q-37 -7 -67 -7q-37 0 -60 10z" />
    <glyph glyph-name="u.subs" horiz-adv-x="396" 
d="M346 182v-302h-104v33q-16 -21 -38 -31.5t-53 -10.5q-50 0 -77 29t-27 82v200h103v-176q0 -25 11 -35.5t34 -10.5q47 0 47 49v173h104z" />
    <glyph glyph-name="v.subs" horiz-adv-x="360" 
d="M9 182h112l59 -179l59 179h112l-111 -302h-120z" />
    <glyph glyph-name="w.subs" horiz-adv-x="533" 
d="M523 182l-109 -302h-99l-49 166l-49 -166h-100l-108 302h111l48 -167l55 167h85l54 -169l50 169h111z" />
    <glyph glyph-name="x.subs" horiz-adv-x="379" 
d="M127 36l-115 146h123l55 -77l55 77h122l-114 -146l118 -156h-120l-61 83l-61 -83h-121z" />
    <glyph glyph-name="y.subs" horiz-adv-x="360" 
d="M351 182l-169 -422h-105l48 122l-116 300h113l59 -189l60 189h110z" />
    <glyph glyph-name="z.subs" horiz-adv-x="313" 
d="M171 -36h128v-84h-292l142 218h-128v84h284z" />
    <glyph glyph-name="A.sups" horiz-adv-x="422" 
d="M284 503h-147l-20 -65h-112l124 388h164l124 -388h-113zM259 587l-48 157h-1l-48 -157h97z" />
    <glyph glyph-name="B.sups" horiz-adv-x="404" 
d="M359.5 609q18.5 -25 18.5 -60q0 -51 -35 -81t-101 -30h-182v388h183q40 0 67.5 -13t40.5 -34.5t13 -47.5q0 -30 -16.5 -52t-49.5 -31q43 -14 61.5 -39zM169 675h30q30 0 43.5 11t13.5 31q0 39 -58 39h-29v-81zM268 556q0 25 -17.5 38.5t-51.5 13.5h-30v-100h29
q70 0 70 48z" />
    <glyph glyph-name="C.sups" horiz-adv-x="441" 
d="M119.5 454q-44.5 27 -65.5 73t-21 105t21 105t65 73t111 27q51 0 91.5 -20.5t64 -56.5t24.5 -83h-115q-1 31 -19 48.5t-51 17.5q-45 0 -61 -28.5t-16 -81.5q0 -36 6 -60t22.5 -37.5t48.5 -13.5q36 0 53 15t19 44h115q-1 -45 -25 -80t-65.5 -54.5t-91.5 -19.5
q-66 0 -110.5 27z" />
    <glyph glyph-name="D.sups" horiz-adv-x="454" 
d="M60 826h167q100 0 146.5 -52.5t46.5 -141.5t-47 -141.5t-146 -52.5h-167v388zM208 528q56 0 76.5 27t20.5 77q0 51 -21 78t-76 27h-39v-209h39z" />
    <glyph glyph-name="E.sups" horiz-adv-x="361" 
d="M60 826h261v-84h-152v-65h151v-85h-151v-69h152v-85h-261v388z" />
    <glyph glyph-name="F.sups" horiz-adv-x="339" 
d="M60 826h247v-84h-138v-71h136v-84h-136v-149h-109v388z" />
    <glyph glyph-name="G.sups" horiz-adv-x="443" 
d="M410 654v-29q0 -55 -18.5 -100t-58.5 -71.5t-103 -26.5q-67 0 -111.5 27.5t-65 73.5t-20.5 104t21 104t65 73.5t111 27.5q49 0 88.5 -18.5t62.5 -51.5t26 -76h-109q-3 27 -21.5 41t-49.5 14q-32 0 -49.5 -14.5t-23.5 -39t-6 -60.5q0 -39 6.5 -63.5t24.5 -38t53 -13.5
q36 0 53.5 15.5t19.5 43.5h-78v78h183z" />
    <glyph glyph-name="H.sups" horiz-adv-x="470" 
d="M60 826h109v-146h131v146h109v-388h-109v149h-131v-149h-109v388z" />
    <glyph glyph-name="I.sups" horiz-adv-x="230" 
d="M60 826h109v-388h-109v388z" />
    <glyph glyph-name="J.sups" horiz-adv-x="250" 
d="M16 438v100q6 -1 20 -1q32 0 44 11.5t12 42.5v235h109v-250q0 -71 -35.5 -105.5t-113.5 -34.5q-12 0 -36 2z" />
    <glyph glyph-name="K.sups" horiz-adv-x="437" 
d="M299 438l-130 170v-170h-109v388h109v-137l112 137h127l-145 -172l169 -216h-133z" />
    <glyph glyph-name="L.sups" horiz-adv-x="306" 
d="M60 826h109v-291h122v-97h-231v388z" />
    <glyph glyph-name="M.sups" horiz-adv-x="566" 
d="M60 826h122l102 -218l101 218h121v-388h-103v222l-101 -222h-38l-101 222v-222h-103v388z" />
    <glyph glyph-name="N.sups" horiz-adv-x="480" 
d="M60 826h108l146 -222v222h106v-388h-108l-146 223v-223h-106v388z" />
    <glyph glyph-name="O.sups" horiz-adv-x="462" 
d="M118.5 454.5q-44.5 27.5 -65 73.5t-20.5 104q0 59 21 105t65.5 73t110.5 27q68 0 112 -27.5t65 -73.5t21 -104t-21 -104.5t-65.5 -73.5t-111.5 -27t-111.5 27.5zM295 552q18 30 18 80t-18.5 80t-64.5 30q-48 0 -65 -29.5t-17 -80.5t17.5 -80.5t64.5 -29.5t65 30z" />
    <glyph glyph-name="P.sups" horiz-adv-x="385" 
d="M60 826h175q72 0 103 -31t31 -88q0 -128 -134 -128h-66v-141h-109v388zM201 653q30 0 45 12.5t15 37.5t-15 37t-45 12h-32v-99h32z" />
    <glyph glyph-name="Q.sups" horiz-adv-x="462" 
d="M409 531.5q-19 -44.5 -57 -71.5l41 -59l-70 -44l-47 74q-19 -4 -46 -4q-67 0 -111.5 27.5t-65 73.5t-20.5 104q0 59 21 105t65.5 73t110.5 27q68 0 112 -27.5t65 -73.5t21 -104q0 -56 -19 -100.5zM163 555q15 -29 55 -32l-15 23l61 40l27 -39q22 27 22 85q0 50 -18.5 80
t-64.5 30q-48 0 -65 -29.5t-17 -80.5q0 -48 15 -77z" />
    <glyph glyph-name="R.sups" horiz-adv-x="411" 
d="M183 580h-14v-142h-109v388h176q135 0 135 -118q0 -95 -75 -119l106 -151h-120zM169 650h34q29 0 42.5 12t13.5 39t-13.5 39t-42.5 12h-34v-102z" />
    <glyph glyph-name="S.sups" horiz-adv-x="385" 
d="M98.5 443.5q-37.5 16.5 -56 45t-18.5 65.5h121q0 -42 50 -42q45 0 45 31q0 13 -9 21.5t-29 17t-60 21.5q-55 18 -81.5 44t-26.5 69q0 35 18 62.5t53.5 43t85.5 15.5q73 0 112 -32.5t39 -89.5h-114q0 19 -10 30t-33 11q-20 0 -30.5 -8t-10.5 -21q0 -10 8 -17.5t27 -15.5
t55 -18q63 -19 95 -47t32 -76q0 -38 -20 -66.5t-58 -44t-91 -15.5q-56 0 -93.5 16.5z" />
    <glyph glyph-name="T.sups" horiz-adv-x="334" 
d="M113 737h-97v89h302v-89h-96v-299h-109v299z" />
    <glyph glyph-name="U.sups" horiz-adv-x="437" 
d="M90.5 465.5q-41.5 38.5 -41.5 114.5v246h109v-237q0 -34 13 -50.5t47 -16.5q35 0 48.5 16.5t13.5 50.5v237h108v-246q0 -76 -41.5 -114.5t-128.5 -38.5q-86 0 -127.5 38.5z" />
    <glyph glyph-name="V.sups" horiz-adv-x="409" 
d="M405 826l-146 -388h-108l-146 388h114l87 -256l86 256h113z" />
    <glyph glyph-name="W.sups" horiz-adv-x="559" 
d="M555 826l-107 -388h-113l-55 235l-56 -235h-111l-108 388h106l61 -236l55 236h107l54 -235l59 235h108z" />
    <glyph glyph-name="X.sups" horiz-adv-x="430" 
d="M149 648l-126 178h126l66 -95l67 95h126l-126 -181l143 -207h-128l-82 119l-82 -119h-128z" />
    <glyph glyph-name="Y.sups" horiz-adv-x="367" 
d="M129 604l-124 222h116l64 -114l62 114h115l-124 -222v-166h-109v166z" />
    <glyph glyph-name="Z.sups" horiz-adv-x="370" 
d="M173 734h-147v92h314l-156 -296h163v-92h-331z" />
    <glyph glyph-name="a.sups" horiz-adv-x="383" 
d="M276 733.5q33 -15.5 46.5 -45.5t13.5 -76v-174h-103v33q-31 -41 -98 -41q-54 0 -81.5 25t-27.5 69q0 55 40.5 78t121.5 23h45v4q0 25 -9.5 37t-35.5 12q-22 0 -33 -8.5t-12 -22.5h-106q2 50 40 76t110 26q56 0 89 -15.5zM220.5 519.5q12.5 16.5 12.5 43.5v5h-37
q-32 0 -46 -7.5t-14 -25.5q0 -17 10 -24.5t31 -7.5q31 0 43.5 16.5z" />
    <glyph glyph-name="b.sups" horiz-adv-x="402" 
d="M341.5 703.5q32.5 -45.5 32.5 -115.5q0 -44 -14 -79.5t-44 -57t-75 -21.5q-60 0 -91 41v-33h-100v424h104v-150q31 37 87 37q68 0 100.5 -45.5zM252.5 536.5q11.5 18.5 11.5 51.5q0 35 -12 53.5t-45 18.5q-55 0 -55 -61v-21q0 -60 55 -60q34 0 45.5 18.5z" />
    <glyph glyph-name="c.sups" horiz-adv-x="374" 
d="M99.5 451q-36.5 21 -54 56.5t-17.5 80.5q0 47 18 83t54 57t90 21q45 0 79.5 -14.5t55 -43t22.5 -68.5h-114q-2 18 -13 27.5t-30 9.5q-29 0 -41 -19t-12 -53t11.5 -52t41.5 -18q20 0 31.5 11t11.5 27h114q-2 -40 -22.5 -68.5t-55.5 -43t-79 -14.5q-54 0 -90.5 21z" />
    <glyph glyph-name="d.sups" horiz-adv-x="402" 
d="M352 862v-424h-101v33q-31 -41 -91 -41q-45 0 -74.5 21.5t-43.5 57t-14 79.5q0 70 32.5 115.5t99.5 45.5q57 0 88 -37v150h104zM249 599q0 61 -54 61q-33 0 -45 -18.5t-12 -53.5q0 -34 11.5 -52t45.5 -18q54 0 54 60v21z" />
    <glyph glyph-name="e.sups" horiz-adv-x="380" 
d="M244 534h105q-2 -32 -22.5 -55.5t-55 -36t-75.5 -12.5q-85 0 -126.5 43.5t-41.5 116.5q0 46 17.5 82t53 56.5t89.5 20.5t93 -22t56 -61q10 -22 12.5 -43t2.5 -59h-217q2 -31 15.5 -47t42.5 -16q47 0 51 33zM151.5 664.5q-12.5 -13.5 -15.5 -41.5h109q-3 28 -15.5 41.5
t-39.5 13.5q-26 0 -38.5 -13.5z" />
    <glyph glyph-name="f.sups" horiz-adv-x="231" 
d="M49 656h-36v84h36v24q0 57 28 83t93 26q29 0 48 -6v-76q-16 4 -28 4q-38 0 -38 -35v-20h64v-84h-64v-218h-103v218z" />
    <glyph glyph-name="g.sups" horiz-adv-x="402" 
d="M352 740v-285q0 -146 -159 -146q-66 0 -108 25t-50 74h109q4 -13 16.5 -20.5t30.5 -7.5q29 0 43 14.5t14 41.5v40q-15 -21 -38 -31.5t-55 -10.5q-65 0 -96 45t-31 113q0 69 31.5 113t95.5 44q34 0 57 -11.5t39 -34.5v37h101zM247 600q0 60 -55 60q-32 0 -43 -18t-11 -51
q0 -35 11 -53.5t43 -18.5q55 0 55 59v22z" />
    <glyph glyph-name="h.sups" horiz-adv-x="396" 
d="M322 720q27 -29 27 -82v-200h-103v176q0 25 -11 35.5t-34 10.5q-47 0 -47 -49v-173h-104v424h104v-155q16 21 38 31.5t53 10.5q50 0 77 -29z" />
    <glyph glyph-name="i.sups" horiz-adv-x="203" 
d="M61 791.5q-16 15.5 -16 37.5q0 23 16 38.5t40 15.5q23 0 39.5 -15.5t16.5 -38.5q0 -22 -16.5 -37.5t-39.5 -15.5q-24 0 -40 15.5zM50 740h103v-302h-103v302z" />
    <glyph glyph-name="j.sups" horiz-adv-x="203" 
d="M62 791.5q-16 15.5 -16 37.5q0 23 15.5 38.5t40.5 15.5q23 0 39 -15.5t16 -38.5q0 -22 -16 -37.5t-39 -15.5q-24 0 -40 15.5zM1 319v90q7 -2 20 -2q16 0 22.5 7t6.5 21v305h104v-318q0 -56 -26 -81t-83 -25q-25 0 -44 3z" />
    <glyph glyph-name="k.sups" horiz-adv-x="369" 
d="M244 438l-90 122v-122h-104v424h104v-219l80 97h129l-120 -137l135 -165h-134z" />
    <glyph glyph-name="l.sups" horiz-adv-x="203" 
d="M50 862h103v-424h-103v424z" />
    <glyph glyph-name="m.sups" horiz-adv-x="580" 
d="M507.5 720q25.5 -29 25.5 -84v-198h-103v175q0 24 -10.5 35.5t-31.5 11.5q-23 0 -34 -12.5t-11 -38.5v-171h-103v175q0 25 -10 36t-33 11q-43 0 -43 -51v-171h-104v302h104v-33q30 42 91 42q69 0 89 -48q16 25 40.5 36.5t57.5 11.5q50 0 75.5 -29z" />
    <glyph glyph-name="n.sups" horiz-adv-x="396" 
d="M322 720q27 -29 27 -82v-200h-103v176q0 25 -11 35.5t-34 10.5q-47 0 -47 -49v-173h-104v302h104v-33q16 21 38 31.5t53 10.5q50 0 77 -29z" />
    <glyph glyph-name="o.sups" horiz-adv-x="384" 
d="M101 451q-37 21 -55 57t-18 81q0 46 18 82t55 57t92 21t92 -21t54.5 -57t17.5 -82t-18 -82t-54.5 -56.5t-91.5 -20.5t-92 21zM237 536.5q11 18.5 11 52.5q0 35 -11 53t-44 18q-23 0 -35 -8.5t-16 -23.5t-4 -39q0 -35 11.5 -53t43.5 -18q33 0 44 18.5z" />
    <glyph glyph-name="p.sups" horiz-adv-x="402" 
d="M316.5 727.5q29.5 -21.5 43.5 -57.5t14 -80q0 -45 -14 -81t-44 -57.5t-75 -21.5q-30 0 -51 9t-36 28v-150h-104v423h100v-34q16 22 38 32.5t53 10.5q46 0 75.5 -21.5zM252.5 537.5q11.5 18.5 11.5 52.5t-12 52t-45 18q-55 0 -55 -60v-20q0 -30 14 -45.5t41 -15.5
q34 0 45.5 18.5z" />
    <glyph glyph-name="q.sups" horiz-adv-x="402" 
d="M352 740v-423h-104v150q-16 -19 -37 -28t-51 -9q-45 0 -74.5 21.5t-43.5 57.5t-14 81q0 44 13.5 80t43.5 57.5t75 21.5q31 0 53 -10t38 -31v32h101zM249 580v20q0 60 -54 60q-33 0 -45 -18t-12 -52t11.5 -52.5t45.5 -18.5q54 0 54 61z" />
    <glyph glyph-name="r.sups" horiz-adv-x="271" 
d="M260 740v-92q-11 3 -30 3q-37 0 -56.5 -23.5t-19.5 -68.5v-121h-104v302h102v-39q26 44 77 44q18 0 31 -5z" />
    <glyph glyph-name="s.sups" horiz-adv-x="332" 
d="M60.5 456q-34.5 29 -34.5 81h103q0 -18 8 -28t28 -10q31 0 31 22q0 13 -13 20.5t-47 16.5q-33 10 -54 20.5t-33 28.5t-12 45q0 46 33.5 71.5t95.5 25.5t94 -25.5t32 -71.5h-98q0 31 -30 31q-27 0 -27 -20q0 -8 6 -13t21.5 -10.5t36.5 -11.5q36 -10 58.5 -21.5t34 -29.5
t11.5 -46q0 -51 -36.5 -77.5t-102.5 -26.5q-71 0 -105.5 29z" />
    <glyph glyph-name="t.sups" horiz-adv-x="244" 
d="M94 442q-23 10 -33.5 32.5t-10.5 61.5v120h-39v84h39v70h104v-70h68v-84h-68v-103q0 -19 8.5 -27t27.5 -8q15 0 31 3v-82q-37 -7 -67 -7q-37 0 -60 10z" />
    <glyph glyph-name="u.sups" horiz-adv-x="396" 
d="M346 740v-302h-104v33q-16 -21 -38 -31.5t-53 -10.5q-50 0 -77 29t-27 82v200h103v-176q0 -25 11 -35.5t34 -10.5q47 0 47 49v173h104z" />
    <glyph glyph-name="v.sups" horiz-adv-x="360" 
d="M9 740h112l59 -179l59 179h112l-111 -302h-120z" />
    <glyph glyph-name="w.sups" horiz-adv-x="533" 
d="M523 740l-109 -302h-99l-49 166l-49 -166h-100l-108 302h111l48 -167l55 167h85l54 -169l50 169h111z" />
    <glyph glyph-name="x.sups" horiz-adv-x="379" 
d="M127 594l-115 146h123l55 -77l55 77h122l-114 -146l118 -156h-120l-61 83l-61 -83h-121z" />
    <glyph glyph-name="y.sups" horiz-adv-x="360" 
d="M351 740l-169 -422h-105l48 122l-116 300h113l59 -189l60 189h110z" />
    <glyph glyph-name="z.sups" horiz-adv-x="313" 
d="M171 522h128v-84h-292l142 218h-128v84h284z" />
    <glyph glyph-name="delta" unicode="&#x394;" horiz-adv-x="680" 
d="M674 0h-668l224 706h220zM488 114l-147 483h-2l-146 -483h295z" />
    <glyph glyph-name="delta" unicode="&#x3b4;" horiz-adv-x="680" 
d="M674 0h-668l224 706h220zM488 114l-147 483h-2l-146 -483h295z" />
    <glyph glyph-name="omega" unicode="&#x3a9;" horiz-adv-x="718" 
d="M512 109h144v-109h-256v251q66 10 95.5 60t29.5 122q0 83 -40 131t-126 48t-126 -49t-40 -130q0 -73 30.5 -122.5t95.5 -59.5v-251h-256v109h143v55q-83 32 -122.5 103t-39.5 166q0 88 34 153t104.5 101t176.5 36q107 0 177 -36t104 -101t34 -153q0 -96 -39.5 -167
t-122.5 -102v-55z" />
    <glyph glyph-name="omega" unicode="&#x3c9;" horiz-adv-x="718" 
d="M512 109h144v-109h-256v251q66 10 95.5 60t29.5 122q0 83 -40 131t-126 48t-126 -49t-40 -130q0 -73 30.5 -122.5t95.5 -59.5v-251h-256v109h143v55q-83 32 -122.5 103t-39.5 166q0 88 34 153t104.5 101t176.5 36q107 0 177 -36t104 -101t34 -153q0 -96 -39.5 -167
t-122.5 -102v-55z" />
    <glyph glyph-name="uni03BC" unicode="&#x3bc;" horiz-adv-x="586" 
d="M519 496v-496h-133v67q-21 -39 -55.5 -59.5t-80.5 -20.5q-32 0 -57 11q8 -62 8 -122v-78h-134v698h134v-287q0 -57 21 -82.5t66 -25.5q96 0 96 109v286h135z" />
    <glyph glyph-name="pi" unicode="&#x3c0;" horiz-adv-x="700" 
d="M484.5 7q-34.5 16 -50.5 51.5t-16 95.5v232h-136v-386h-137v386h-90v110h590v-110h-89v-210q0 -38 15.5 -55t49.5 -17q6 0 24 2v-109q-34 -6 -71 -6q-55 0 -89.5 16z" />
    <glyph glyph-name="uni2099" unicode="&#x2099;" horiz-adv-x="396" 
d="M322 162q27 -29 27 -82v-200h-103v176q0 25 -11 35.5t-34 10.5q-47 0 -47 -49v-173h-104v302h104v-33q16 21 38 31.5t53 10.5q50 0 77 -29z" />
    <glyph glyph-name="zero.lf" horiz-adv-x="677" 
d="M118 83q-65 100 -65 270t65 270t220 100q156 0 221 -100.5t65 -269.5q0 -370 -286 -370q-155 0 -220 100zM427.5 140q29.5 30 37.5 80t8 133q0 84 -8.5 134t-38 79.5t-88.5 29.5q-60 0 -89 -30t-37 -80t-8 -133q0 -84 8 -134t37 -79.5t89 -29.5t89.5 30z" />
    <glyph glyph-name="one.lf" horiz-adv-x="385" 
d="M145 575h-116l28 131h231v-706h-143v575z" />
    <glyph glyph-name="two.lf" horiz-adv-x="588" 
d="M21 3l284 333q50 55 70 90.5t20 73.5q0 45 -26 72.5t-79 27.5q-62 0 -87 -38.5t-25 -101.5h-139q0 123 62 193t193 70q83 0 139 -28.5t84 -79.5t28 -117q0 -53 -18.5 -95t-65.5 -93q-77 -84 -180 -184h271v-126h-531v3z" />
    <glyph glyph-name="three.lf" horiz-adv-x="596" 
d="M522 310q33 -44 33 -113q0 -63 -28 -111t-86.5 -75.5t-147.5 -27.5q-100 0 -159.5 32.5t-84.5 92.5t-25 148h138q0 -74 27 -114.5t97 -40.5q60 0 89 29.5t29 80.5q0 56 -34.5 83t-104.5 27h-22v98h21q67 0 98.5 25t31.5 70q0 47 -26 73.5t-82 26.5q-61 0 -86.5 -31.5
t-27.5 -85.5h-135q0 110 66 168t193 58q80 0 134 -25t81 -69t27 -101q0 -56 -28.5 -96t-90.5 -60q70 -18 103 -62z" />
    <glyph glyph-name="four.lf" horiz-adv-x="658" 
d="M640 154h-97v-154h-142v154h-397v4l277 548h262v-431h97v-121zM401 275v381h-1l-187 -381h188z" />
    <glyph glyph-name="five.lf" horiz-adv-x="591" 
d="M95 52q-61 69 -61 194h139q0 -69 26.5 -107t91.5 -38q60 0 89 32.5t29 89.5q0 76 -50 111.5t-153 35.5q-35 0 -72 -4t-68 -11l58 351h406l-26 -124h-265l-22 -126q40 10 88 10q85 0 141.5 -31t83.5 -85.5t27 -125.5t-28 -125t-85.5 -85t-144.5 -31q-143 0 -204 69z" />
    <glyph glyph-name="six.lf" horiz-adv-x="663" 
d="M520 434.5q52 -29.5 77.5 -81t25.5 -117.5q0 -74 -31 -131t-92.5 -89.5t-149.5 -32.5q-158 0 -227.5 100t-69.5 263q0 169 69.5 273t227.5 104q74 0 129.5 -24.5t89.5 -71t43 -110.5h-139q-11 46 -41.5 70.5t-80.5 24.5q-85 0 -119 -65t-34 -170v-1q28 42 76.5 65
t115.5 23q78 0 130 -29.5zM419 116.5q28 17.5 41.5 47t13.5 66.5q0 57 -31.5 93t-93.5 36q-44 0 -73 -17.5t-42.5 -47t-13.5 -66.5q0 -36 14 -65.5t43 -46.5t71 -17q43 0 71 17.5z" />
    <glyph glyph-name="seven.lf" horiz-adv-x="562" 
d="M332 575h-303v131h515l-301 -706h-161z" />
    <glyph glyph-name="eight.lf" horiz-adv-x="635" 
d="M559.5 313.5q34.5 -49.5 34.5 -115.5q0 -65 -31.5 -113.5t-93.5 -75t-152 -26.5q-91 0 -153 27t-92.5 75.5t-30.5 112.5q0 68 35 116.5t104 65.5q-58 16 -90 59t-32 98q0 57 30.5 99t89 64.5t139.5 22.5q82 0 140 -22t88.5 -64t30.5 -100t-31 -99.5t-89 -57.5
q69 -17 103.5 -66.5zM231.5 599q-28.5 -27 -28.5 -73q0 -48 30 -75t84 -27q56 0 85.5 28t29.5 74t-29 73t-86 27t-85.5 -27zM410.5 124q32.5 31 32.5 81q0 32 -14 58t-42.5 41.5t-69.5 15.5t-69 -15t-42 -40.5t-14 -58.5q0 -53 31.5 -83t93.5 -30q61 0 93.5 31z" />
    <glyph glyph-name="nine.lf" horiz-adv-x="659" 
d="M540.5 625q69.5 -100 69.5 -263q0 -169 -69.5 -273t-227.5 -104q-74 0 -129.5 24.5t-89.5 71t-43 110.5h139q11 -46 41.5 -70.5t80.5 -24.5q86 0 119.5 65t33.5 170v1q-28 -42 -76.5 -65t-115.5 -23q-77 0 -129.5 29.5t-78 81.5t-25.5 118q0 73 31.5 130t93 89.5
t148.5 32.5q158 0 227.5 -100zM411 386q32 37 32 94q0 36 -14 65.5t-42.5 46.5t-70.5 17q-64 0 -95 -37t-31 -94q0 -58 31 -93.5t93 -35.5q65 0 97 37z" />
    <glyph glyph-name="zero.inferior" unicode="&#x2080;" horiz-adv-x="438" 
d="M42 74q0 204 177 204q176 0 176 -204q0 -96 -41.5 -150t-134.5 -54q-177 0 -177 204zM260.5 -23.5q13.5 12.5 17.5 35.5t4 62q0 40 -4 62.5t-18 35t-41 12.5q-28 0 -41.5 -12.5t-17.5 -35.5t-4 -62q0 -40 4 -63t17.5 -35t41.5 -12t41.5 12.5z" />
    <glyph glyph-name="one.inferior" unicode="&#x2081;" horiz-adv-x="283" 
d="M95 170h-72l17 98h166v-388h-111v290z" />
    <glyph glyph-name="two.inferior" unicode="&#x2082;" horiz-adv-x="379" 
d="M17 -115l176 186q28 30 38 46t10 33q0 21 -13 32.5t-37 11.5q-31 0 -43.5 -16.5t-12.5 -41.5h-106q0 66 40.5 104.5t121.5 38.5q77 0 117 -33.5t40 -93.5q0 -28 -10.5 -50.5t-33.5 -45.5q-32 -32 -90 -80h137v-96h-334v5z" />
    <glyph glyph-name="three.inferior" unicode="&#x2083;" horiz-adv-x="374" 
d="M329 49.5q18 -23.5 18 -61.5q0 -57 -43 -88t-122 -31q-87 0 -124.5 40t-37.5 116l97 -1q0 -34 14.5 -52.5t47.5 -18.5q57 0 57 48q0 24 -16.5 34t-50.5 10h-12v68h12q33 0 47.5 10.5t14.5 31.5q0 19 -12.5 29.5t-37.5 10.5q-30 0 -43 -15t-13 -39h-98q0 66 42 102t120 36
q47 0 80.5 -14t51 -39.5t17.5 -59.5q0 -30 -17 -51t-48 -32q38 -10 56 -33.5z" />
    <glyph glyph-name="four.inferior" unicode="&#x2084;" horiz-adv-x="415" 
d="M238 -45h-235v2l151 311h188v-223h59v-90h-59v-75h-104v75zM238 45v188l-87 -188h87z" />
    <glyph glyph-name="five.inferior" unicode="&#x2085;" horiz-adv-x="387" 
d="M69 -91.5q-42 38.5 -42 107.5l104 -1q0 -62 61 -62q29 0 43 14.5t14 38.5q0 65 -122 65q-45 0 -83 -8l37 205h257l-14 -80h-155l-10 -56q12 2 26.5 3.5t27.5 1.5q73 0 110.5 -35.5t37.5 -93.5q0 -41 -19.5 -72.5t-57 -48.5t-90.5 -17q-83 0 -125 38.5z" />
    <glyph glyph-name="six.inferior" unicode="&#x2086;" horiz-adv-x="426" 
d="M329 118q32 -16 48.5 -43.5t16.5 -63.5q0 -40 -20 -72t-59 -50.5t-94 -18.5q-98 0 -141.5 54t-43.5 148q0 96 44 151t142 55q71 0 110 -30t52 -90h-102q-7 21 -20.5 31t-38.5 10q-44 0 -61.5 -30t-17.5 -76q16 19 43 30t64 11q46 0 78 -16zM264 -35q15 15 15 39
q0 25 -14.5 39.5t-44.5 14.5q-29 0 -45 -14.5t-16 -40.5q0 -24 16 -38.5t44 -14.5q30 0 45 15z" />
    <glyph glyph-name="seven.inferior" unicode="&#x2087;" horiz-adv-x="366" 
d="M185 172h-162v96h329l-180 -388h-122z" />
    <glyph glyph-name="eight.inferior" unicode="&#x2088;" horiz-adv-x="393" 
d="M347.5 54.5q18.5 -24.5 18.5 -61.5q0 -60 -44 -91.5t-125 -31.5t-125.5 31.5t-44.5 91.5q0 37 19 61.5t56 33.5q-32 10 -49 33t-17 53q0 32 19.5 55.5t56 36t85.5 12.5q48 0 84.5 -12.5t56.5 -36t20 -55.5q0 -30 -17.5 -53t-49.5 -33q38 -9 56.5 -33.5zM156 199.5
q-13 -10.5 -13 -33.5q0 -21 13.5 -32.5t40.5 -11.5q26 0 40 11.5t14 32.5q0 22 -13.5 33t-40.5 11q-28 0 -41 -10.5zM241 -39.5q16 13.5 16 36.5t-15 35.5t-45 12.5t-45 -12.5t-15 -35.5q0 -24 15.5 -37t44.5 -13q28 0 44 13.5z" />
    <glyph glyph-name="nine.inferior" unicode="&#x2089;" horiz-adv-x="427" 
d="M347.5 224q43.5 -54 43.5 -148q0 -96 -44 -151t-142 -55q-71 0 -110 30t-52 90h102q7 -21 20.5 -31t38.5 -10q44 0 61.5 30t17.5 76q-16 -19 -43 -30t-64 -11q-46 0 -78 16t-48.5 43.5t-16.5 63.5q0 40 20 72t59 50.5t94 18.5q98 0 141.5 -54zM252 104.5q16 14.5 16 40.5
q0 24 -16 38.5t-44 14.5q-30 0 -45 -15t-15 -39q0 -25 14.5 -39.5t44.5 -14.5q29 0 45 14.5z" />
    <glyph glyph-name="zero.dnom" horiz-adv-x="438" 
d="M42 194q0 204 177 204q176 0 176 -204q0 -96 -41.5 -150t-134.5 -54q-177 0 -177 204zM260.5 96.5q13.5 12.5 17.5 35.5t4 62q0 40 -4 62.5t-18 35t-41 12.5q-28 0 -41.5 -12.5t-17.5 -35.5t-4 -62q0 -40 4 -63t17.5 -35t41.5 -12t41.5 12.5z" />
    <glyph glyph-name="one.dnom" horiz-adv-x="283" 
d="M95 290h-72l17 98h166v-388h-111v290z" />
    <glyph glyph-name="two.dnom" horiz-adv-x="379" 
d="M17 5l176 186q28 30 38 46t10 33q0 21 -13 32.5t-37 11.5q-31 0 -43.5 -16.5t-12.5 -41.5h-106q0 66 40.5 104.5t121.5 38.5q77 0 117 -33.5t40 -93.5q0 -28 -10.5 -50.5t-33.5 -45.5q-32 -32 -90 -80h137v-96h-334v5z" />
    <glyph glyph-name="three.dnom" horiz-adv-x="374" 
d="M329 169.5q18 -23.5 18 -61.5q0 -57 -43 -88t-122 -31q-87 0 -124.5 40t-37.5 116l97 -1q0 -34 14.5 -52.5t47.5 -18.5q57 0 57 48q0 24 -16.5 34t-50.5 10h-12v68h12q33 0 47.5 10.5t14.5 31.5q0 19 -12.5 29.5t-37.5 10.5q-30 0 -43 -15t-13 -39h-98q0 66 42 102
t120 36q47 0 80.5 -14t51 -39.5t17.5 -59.5q0 -30 -17 -51t-48 -32q38 -10 56 -33.5z" />
    <glyph glyph-name="four.dnom" horiz-adv-x="415" 
d="M238 75h-235v2l151 311h188v-223h59v-90h-59v-75h-104v75zM238 165v188l-87 -188h87z" />
    <glyph glyph-name="five.dnom" horiz-adv-x="387" 
d="M69 28.5q-42 38.5 -42 107.5l104 -1q0 -62 61 -62q29 0 43 14.5t14 38.5q0 65 -122 65q-45 0 -83 -8l37 205h257l-14 -80h-155l-10 -56q12 2 26.5 3.5t27.5 1.5q73 0 110.5 -35.5t37.5 -93.5q0 -41 -19.5 -72.5t-57 -48.5t-90.5 -17q-83 0 -125 38.5z" />
    <glyph glyph-name="six.dnom" horiz-adv-x="426" 
d="M329 238q32 -16 48.5 -43.5t16.5 -63.5q0 -40 -20 -72t-59 -50.5t-94 -18.5q-98 0 -141.5 54t-43.5 148q0 96 44 151t142 55q71 0 110 -30t52 -90h-102q-7 21 -20.5 31t-38.5 10q-44 0 -61.5 -30t-17.5 -76q16 19 43 30t64 11q46 0 78 -16zM264 85q15 15 15 39
q0 25 -14.5 39.5t-44.5 14.5q-29 0 -45 -14.5t-16 -40.5q0 -24 16 -38.5t44 -14.5q30 0 45 15z" />
    <glyph glyph-name="seven.dnom" horiz-adv-x="366" 
d="M185 292h-162v96h329l-180 -388h-122z" />
    <glyph glyph-name="eight.dnom" horiz-adv-x="393" 
d="M347.5 174.5q18.5 -24.5 18.5 -61.5q0 -60 -44 -91.5t-125 -31.5t-125.5 31.5t-44.5 91.5q0 37 19 61.5t56 33.5q-32 10 -49 33t-17 53q0 32 19.5 55.5t56 36t85.5 12.5q48 0 84.5 -12.5t56.5 -36t20 -55.5q0 -30 -17.5 -53t-49.5 -33q38 -9 56.5 -33.5zM156 319.5
q-13 -10.5 -13 -33.5q0 -21 13.5 -32.5t40.5 -11.5q26 0 40 11.5t14 32.5q0 22 -13.5 33t-40.5 11q-28 0 -41 -10.5zM241 80.5q16 13.5 16 36.5t-15 35.5t-45 12.5t-45 -12.5t-15 -35.5q0 -24 15.5 -37t44.5 -13q28 0 44 13.5z" />
    <glyph glyph-name="nine.dnom" horiz-adv-x="427" 
d="M347.5 344q43.5 -54 43.5 -148q0 -96 -44 -151t-142 -55q-71 0 -110 30t-52 90h102q7 -21 20.5 -31t38.5 -10q44 0 61.5 30t17.5 76q-16 -19 -43 -30t-64 -11q-46 0 -78 16t-48.5 43.5t-16.5 63.5q0 40 20 72t59 50.5t94 18.5q98 0 141.5 -54zM252 224.5q16 14.5 16 40.5
q0 24 -16 38.5t-44 14.5q-30 0 -45 -15t-15 -39q0 -25 14.5 -39.5t44.5 -14.5q29 0 45 14.5z" />
    <glyph glyph-name="zero.numr" horiz-adv-x="438" 
d="M42 512q0 204 177 204q176 0 176 -204q0 -96 -41.5 -150t-134.5 -54q-177 0 -177 204zM260.5 414.5q13.5 12.5 17.5 35.5t4 62q0 40 -4 62.5t-18 35t-41 12.5q-28 0 -41.5 -12.5t-17.5 -35.5t-4 -62q0 -40 4 -63t17.5 -35t41.5 -12t41.5 12.5z" />
    <glyph glyph-name="one.numr" horiz-adv-x="283" 
d="M95 608h-72l17 98h166v-388h-111v290z" />
    <glyph glyph-name="two.numr" horiz-adv-x="379" 
d="M17 323l176 186q28 30 38 46t10 33q0 21 -13 32.5t-37 11.5q-31 0 -43.5 -16.5t-12.5 -41.5h-106q0 66 40.5 104.5t121.5 38.5q77 0 117 -33.5t40 -93.5q0 -28 -10.5 -50.5t-33.5 -45.5q-32 -32 -90 -80h137v-96h-334v5z" />
    <glyph glyph-name="three.numr" horiz-adv-x="374" 
d="M329 487.5q18 -23.5 18 -61.5q0 -57 -43 -88t-122 -31q-87 0 -124.5 40t-37.5 116l97 -1q0 -34 14.5 -52.5t47.5 -18.5q57 0 57 48q0 24 -16.5 34t-50.5 10h-12v68h12q33 0 47.5 10.5t14.5 31.5q0 19 -12.5 29.5t-37.5 10.5q-30 0 -43 -15t-13 -39h-98q0 66 42 102
t120 36q47 0 80.5 -14t51 -39.5t17.5 -59.5q0 -30 -17 -51t-48 -32q38 -10 56 -33.5z" />
    <glyph glyph-name="four.numr" horiz-adv-x="415" 
d="M238 393h-235v2l151 311h188v-223h59v-90h-59v-75h-104v75zM238 483v188l-87 -188h87z" />
    <glyph glyph-name="five.numr" horiz-adv-x="387" 
d="M69 346.5q-42 38.5 -42 107.5l104 -1q0 -62 61 -62q29 0 43 14.5t14 38.5q0 65 -122 65q-45 0 -83 -8l37 205h257l-14 -80h-155l-10 -56q12 2 26.5 3.5t27.5 1.5q73 0 110.5 -35.5t37.5 -93.5q0 -41 -19.5 -72.5t-57 -48.5t-90.5 -17q-83 0 -125 38.5z" />
    <glyph glyph-name="six.numr" horiz-adv-x="426" 
d="M329 556q32 -16 48.5 -43.5t16.5 -63.5q0 -40 -20 -72t-59 -50.5t-94 -18.5q-98 0 -141.5 54t-43.5 148q0 96 44 151t142 55q71 0 110 -30t52 -90h-102q-7 21 -20.5 31t-38.5 10q-44 0 -61.5 -30t-17.5 -76q16 19 43 30t64 11q46 0 78 -16zM264 403q15 15 15 39
q0 25 -14.5 39.5t-44.5 14.5q-29 0 -45 -14.5t-16 -40.5q0 -24 16 -38.5t44 -14.5q30 0 45 15z" />
    <glyph glyph-name="seven.numr" horiz-adv-x="366" 
d="M185 610h-162v96h329l-180 -388h-122z" />
    <glyph glyph-name="eight.numr" horiz-adv-x="393" 
d="M347.5 492.5q18.5 -24.5 18.5 -61.5q0 -60 -44 -91.5t-125 -31.5t-125.5 31.5t-44.5 91.5q0 37 19 61.5t56 33.5q-32 10 -49 33t-17 53q0 32 19.5 55.5t56 36t85.5 12.5q48 0 84.5 -12.5t56.5 -36t20 -55.5q0 -30 -17.5 -53t-49.5 -33q38 -9 56.5 -33.5zM156 637.5
q-13 -10.5 -13 -33.5q0 -21 13.5 -32.5t40.5 -11.5q26 0 40 11.5t14 32.5q0 22 -13.5 33t-40.5 11q-28 0 -41 -10.5zM241 398.5q16 13.5 16 36.5t-15 35.5t-45 12.5t-45 -12.5t-15 -35.5q0 -24 15.5 -37t44.5 -13q28 0 44 13.5z" />
    <glyph glyph-name="nine.numr" horiz-adv-x="427" 
d="M347.5 662q43.5 -54 43.5 -148q0 -96 -44 -151t-142 -55q-71 0 -110 30t-52 90h102q7 -21 20.5 -31t38.5 -10q44 0 61.5 30t17.5 76q-16 -19 -43 -30t-64 -11q-46 0 -78 16t-48.5 43.5t-16.5 63.5q0 40 20 72t59 50.5t94 18.5q98 0 141.5 -54zM252 542.5q16 14.5 16 40.5
q0 24 -16 38.5t-44 14.5q-30 0 -45 -15t-15 -39q0 -25 14.5 -39.5t44.5 -14.5q29 0 45 14.5z" />
    <glyph glyph-name="zero.superior" unicode="&#x2070;" horiz-adv-x="438" 
d="M42 632q0 204 177 204q176 0 176 -204q0 -96 -41.5 -150t-134.5 -54q-177 0 -177 204zM260.5 534.5q13.5 12.5 17.5 35.5t4 62q0 40 -4 62.5t-18 35t-41 12.5q-28 0 -41.5 -12.5t-17.5 -35.5t-4 -62q0 -40 4 -63t17.5 -35t41.5 -12t41.5 12.5z" />
    <glyph glyph-name="onesuperior" unicode="&#xb9;" horiz-adv-x="283" 
d="M95 728h-72l17 98h166v-388h-111v290z" />
    <glyph glyph-name="twosuperior" unicode="&#xb2;" horiz-adv-x="379" 
d="M17 443l176 186q28 30 38 46t10 33q0 21 -13 32.5t-37 11.5q-31 0 -43.5 -16.5t-12.5 -41.5h-106q0 66 40.5 104.5t121.5 38.5q77 0 117 -33.5t40 -93.5q0 -28 -10.5 -50.5t-33.5 -45.5q-32 -32 -90 -80h137v-96h-334v5z" />
    <glyph glyph-name="threesuperior" unicode="&#xb3;" horiz-adv-x="374" 
d="M329 607.5q18 -23.5 18 -61.5q0 -57 -43 -88t-122 -31q-87 0 -124.5 40t-37.5 116l97 -1q0 -34 14.5 -52.5t47.5 -18.5q57 0 57 48q0 24 -16.5 34t-50.5 10h-12v68h12q33 0 47.5 10.5t14.5 31.5q0 19 -12.5 29.5t-37.5 10.5q-30 0 -43 -15t-13 -39h-98q0 66 42 102
t120 36q47 0 80.5 -14t51 -39.5t17.5 -59.5q0 -30 -17 -51t-48 -32q38 -10 56 -33.5z" />
    <glyph glyph-name="four.superior" unicode="&#x2074;" horiz-adv-x="415" 
d="M238 513h-235v2l151 311h188v-223h59v-90h-59v-75h-104v75zM238 603v188l-87 -188h87z" />
    <glyph glyph-name="five.superior" unicode="&#x2075;" horiz-adv-x="387" 
d="M69 466.5q-42 38.5 -42 107.5l104 -1q0 -62 61 -62q29 0 43 14.5t14 38.5q0 65 -122 65q-45 0 -83 -8l37 205h257l-14 -80h-155l-10 -56q12 2 26.5 3.5t27.5 1.5q73 0 110.5 -35.5t37.5 -93.5q0 -41 -19.5 -72.5t-57 -48.5t-90.5 -17q-83 0 -125 38.5z" />
    <glyph glyph-name="six.superior" unicode="&#x2076;" horiz-adv-x="426" 
d="M329 676q32 -16 48.5 -43.5t16.5 -63.5q0 -40 -20 -72t-59 -50.5t-94 -18.5q-98 0 -141.5 54t-43.5 148q0 96 44 151t142 55q71 0 110 -30t52 -90h-102q-7 21 -20.5 31t-38.5 10q-44 0 -61.5 -30t-17.5 -76q16 19 43 30t64 11q46 0 78 -16zM264 523q15 15 15 39
q0 25 -14.5 39.5t-44.5 14.5q-29 0 -45 -14.5t-16 -40.5q0 -24 16 -38.5t44 -14.5q30 0 45 15z" />
    <glyph glyph-name="seven.superior" unicode="&#x2077;" horiz-adv-x="366" 
d="M185 730h-162v96h329l-180 -388h-122z" />
    <glyph glyph-name="eight.superior" unicode="&#x2078;" horiz-adv-x="393" 
d="M347.5 612.5q18.5 -24.5 18.5 -61.5q0 -60 -44 -91.5t-125 -31.5t-125.5 31.5t-44.5 91.5q0 37 19 61.5t56 33.5q-32 10 -49 33t-17 53q0 32 19.5 55.5t56 36t85.5 12.5q48 0 84.5 -12.5t56.5 -36t20 -55.5q0 -30 -17.5 -53t-49.5 -33q38 -9 56.5 -33.5zM156 757.5
q-13 -10.5 -13 -33.5q0 -21 13.5 -32.5t40.5 -11.5q26 0 40 11.5t14 32.5q0 22 -13.5 33t-40.5 11q-28 0 -41 -10.5zM241 518.5q16 13.5 16 36.5t-15 35.5t-45 12.5t-45 -12.5t-15 -35.5q0 -24 15.5 -37t44.5 -13q28 0 44 13.5z" />
    <glyph glyph-name="nine.superior" unicode="&#x2079;" horiz-adv-x="427" 
d="M347.5 782q43.5 -54 43.5 -148q0 -96 -44 -151t-142 -55q-71 0 -110 30t-52 90h102q7 -21 20.5 -31t38.5 -10q44 0 61.5 30t17.5 76q-16 -19 -43 -30t-64 -11q-46 0 -78 16t-48.5 43.5t-16.5 63.5q0 40 20 72t59 50.5t94 18.5q98 0 141.5 -54zM252 662.5q16 14.5 16 40.5
q0 24 -16 38.5t-44 14.5q-30 0 -45 -15t-15 -39q0 -25 14.5 -39.5t44.5 -14.5q29 0 45 14.5z" />
    <glyph glyph-name="fraction" unicode="&#x2044;" horiz-adv-x="218" 
d="M272 706h91l-417 -706h-91z" />
    <glyph glyph-name="onehalf" unicode="&#xbd;" horiz-adv-x="862" 
d="M95 608h-72l17 98h166v-388h-111v290zM555 706h91l-417 -706h-91zM500 5l176 186q28 30 38 46t10 33q0 21 -13 32.5t-37 11.5q-31 0 -43.5 -16.5t-12.5 -41.5h-106q0 66 40.5 104.5t121.5 38.5q77 0 117 -33.5t40 -93.5q0 -28 -10.5 -50.5t-33.5 -45.5q-32 -32 -90 -80
h137v-96h-334v5z" />
    <glyph glyph-name="onequarter" unicode="&#xbc;" horiz-adv-x="873" 
d="M95 608h-72l17 98h166v-388h-111v290zM555 706h91l-417 -706h-91zM695 75h-235v2l151 311h188v-223h59v-90h-59v-75h-104v75zM695 165v188l-87 -188h87z" />
    <glyph glyph-name="threequarters" unicode="&#xbe;" horiz-adv-x="955" 
d="M329 487.5q18 -23.5 18 -61.5q0 -57 -43 -88t-122 -31q-87 0 -124.5 40t-37.5 116l97 -1q0 -34 14.5 -52.5t47.5 -18.5q57 0 57 48q0 24 -16.5 34t-50.5 10h-12v68h12q33 0 47.5 10.5t14.5 31.5q0 19 -12.5 29.5t-37.5 10.5q-30 0 -43 -15t-13 -39h-98q0 66 42 102
t120 36q47 0 80.5 -14t51 -39.5t17.5 -59.5q0 -30 -17 -51t-48 -32q38 -10 56 -33.5zM637 706h91l-417 -706h-91zM777 75h-235v2l151 311h188v-223h59v-90h-59v-75h-104v75zM777 165v188l-87 -188h87z" />
    <glyph glyph-name="zero.sc" horiz-adv-x="618" 
d="M114.5 67.5q-56.5 82.5 -56.5 226.5q0 143 57 225.5t193 82.5q138 0 195 -83t57 -225q0 -143 -58 -226t-194 -83q-137 0 -193.5 82.5zM379.5 132q22.5 22 28 58.5t5.5 103.5t-6 104t-28.5 58.5t-70.5 21.5t-70.5 -22t-28 -58.5t-5.5 -103.5q0 -68 5.5 -104.5t28 -58
t70.5 -21.5q49 0 71.5 22z" />
    <glyph glyph-name="one.sc" horiz-adv-x="375" 
d="M131 459h-99l27 129h210v-588h-138v459z" />
    <glyph glyph-name="two.sc" horiz-adv-x="531" 
d="M23 3l247 285q39 45 54.5 71.5t15.5 54.5q0 31 -19.5 49.5t-60.5 18.5q-48 0 -67 -28t-19 -73h-135q0 104 55 162.5t170 58.5q73 0 122.5 -24t74 -66.5t24.5 -99.5q0 -43 -15 -76.5t-51 -71.5q-85 -85 -147 -140h220v-124h-469v3z" />
    <glyph glyph-name="three.sc" horiz-adv-x="538" 
d="M465.5 258q27.5 -36 27.5 -93q0 -52 -24.5 -92.5t-76 -64t-129.5 -23.5q-88 0 -140 27.5t-74 78t-22 125.5h132q0 -55 21 -85.5t76 -30.5q47 0 69 21.5t22 58.5q0 41 -26.5 60t-81.5 19h-20v95h19q52 0 76.5 18.5t24.5 50.5q0 35 -20 54.5t-64 19.5q-46 0 -65.5 -21.5
t-22.5 -57.5h-130q0 90 58.5 137t169.5 47q70 0 118 -21.5t71.5 -59t23.5 -85.5q0 -45 -24 -77.5t-75 -49.5q59 -15 86.5 -51z" />
    <glyph glyph-name="four.sc" horiz-adv-x="590" 
d="M569 119h-82v-119h-138v119h-345v3l228 466h255v-351h82v-118zM349 237v303h-1l-143 -303h144z" />
    <glyph glyph-name="five.sc" horiz-adv-x="535" 
d="M91.5 44.5q-54.5 59.5 -54.5 166.5h135q0 -53 20.5 -81.5t71.5 -28.5q47 0 69 23t22 65q0 59 -42.5 84.5t-130.5 25.5q-62 0 -116 -8l50 297h361l-25 -122h-223l-17 -83q31 7 69 7q73 0 121.5 -26t72 -71t23.5 -103q0 -60 -24.5 -106t-75 -72.5t-126.5 -26.5
q-126 0 -180.5 59.5z" />
    <glyph glyph-name="six.sc" horiz-adv-x="604" 
d="M471 364.5q45 -24.5 66.5 -67.5t21.5 -98q0 -62 -27.5 -110.5t-81.5 -76t-131 -27.5q-139 0 -199.5 83t-60.5 219q0 142 61 228.5t200 86.5q65 0 114 -20.5t79 -59t38 -91.5h-134q-9 30 -33.5 46.5t-62.5 16.5q-68 0 -95 -47t-28 -125q25 32 65 49.5t95 17.5
q68 0 113 -24.5zM391 125q24 26 24 68q0 44 -24 70t-73 26q-51 0 -75.5 -27t-24.5 -69q0 -43 25 -68.5t74 -25.5q50 0 74 26z" />
    <glyph glyph-name="seven.sc" horiz-adv-x="510" 
d="M286 459h-254v129h458l-259 -588h-156z" />
    <glyph glyph-name="eight.sc" horiz-adv-x="576" 
d="M501 262q29 -41 29 -94q0 -56 -27.5 -97t-82 -63.5t-133.5 -22.5q-80 0 -134.5 23t-81 64t-26.5 96t29.5 95.5t87.5 54.5q-48 12 -75.5 47.5t-27.5 80.5q0 48 27 83t78 54t123 19t123 -18.5t78 -53.5t27 -84q0 -48 -26.5 -81.5t-74.5 -46.5q58 -15 87 -56zM221.5 488
q-21.5 -20 -21.5 -53q0 -36 22.5 -56t64.5 -20q44 0 66.5 21t22.5 55t-22.5 53.5t-66.5 19.5t-65.5 -20zM360 114.5q25 23.5 25 60.5q0 23 -11 42t-33 30.5t-54 11.5q-46 0 -71 -23.5t-25 -60.5q0 -40 24.5 -62t71.5 -22q48 0 73 23.5z" />
    <glyph glyph-name="nine.sc" horiz-adv-x="604" 
d="M485 519q61 -83 61 -219q0 -143 -61.5 -229t-200.5 -86q-65 0 -114 20.5t-79 59t-38 91.5h134q9 -31 33 -47t63 -16q123 0 123 172q-25 -32 -65 -49.5t-95 -17.5q-68 0 -113 24.5t-66.5 67t-21.5 98.5q0 62 27.5 110.5t81.5 76t131 27.5q139 0 200 -83zM361.5 325
q24.5 27 24.5 69t-25 68t-73 26q-50 0 -74.5 -26.5t-24.5 -67.5q0 -44 24 -70t73 -26q51 0 75.5 27z" />
    <glyph glyph-name="ellipsis" unicode="&#x2026;" horiz-adv-x="854" 
d="M380 -6q-20 11 -31 31t-11 45t11 45t31 31t46 11t46 -11t31.5 -31t11.5 -45t-11.5 -45t-31.5 -31t-46 -11t-46 11zM651 -6q-20 11 -31 31t-11 45t11 45t31 31t46 11t46 -11t31.5 -31t11.5 -45t-11.5 -45t-31.5 -31t-46 -11t-46 11zM110 -6q-20 11 -31 31t-11 45t11 45
t31 31t46 11t46 -11t31.5 -31t11.5 -45t-11.5 -45t-31.5 -31t-46 -11t-46 11z" />
    <glyph glyph-name="exclamdown" unicode="&#xa1;" horiz-adv-x="313" 
d="M202 512q20 -11 31.5 -31t11.5 -45t-11.5 -45t-31.5 -31t-46 -11t-46 11t-31 31t-11 45t11 45t31 31t46 11t46 -11zM212 288l21 -488h-153l20 488h112z" />
    <glyph glyph-name="questiondown" unicode="&#xbf;" horiz-adv-x="525" 
d="M321 516q20 -11 31.5 -31t11.5 -45t-11.5 -45t-31.5 -31t-46 -11t-46 11t-31 31t-11 45t11 45t31 31t46 11t46 -11zM242.5 116q-32.5 -57 -44.5 -88t-12 -57q0 -36 19 -55.5t63 -19.5q35 0 54 12t25.5 33t6.5 52h136q0 -99 -54.5 -152.5t-173.5 -53.5q-71 0 -121.5 21.5
t-76.5 61.5t-26 96q0 32 11.5 65.5t43 90t100.5 170.5h155q-73 -119 -105.5 -176z" />
    <glyph glyph-name="periodcentered" unicode="&#xb7;" horiz-adv-x="313" 
d="M110 221q-20 11 -31 31t-11 45t11 45t31 31t46 11t46 -11t31.5 -31t11.5 -45t-11.5 -45t-31.5 -31t-46 -11t-46 11z" />
    <glyph glyph-name="bullet" unicode="&#x2022;" horiz-adv-x="452" 
d="M154.5 240.5q-31.5 17.5 -49 49t-17.5 72.5q0 42 17 72.5t48.5 47t73.5 16.5q40 0 71 -16.5t48 -47t17 -72.5q0 -41 -17 -72.5t-48 -49t-71 -17.5q-41 0 -72.5 17.5z" />
    <glyph glyph-name="colon.case" horiz-adv-x="343" 
d="M110 112q-20 11 -31 31t-11 45t11 45t31 31t46 11t46 -11t31.5 -31t11.5 -45t-11.5 -45t-31.5 -31t-46 -11t-46 11zM110 452q-20 11 -31 31t-11 45t11 45t31 31t46 11t46 -11t31.5 -31t11.5 -45t-11.5 -45t-31.5 -31t-46 -11t-46 11z" />
    <glyph glyph-name="semicolon.case" horiz-adv-x="352" 
d="M115 278h132l-97 -334h-101zM149 452q-20 11 -31 31t-11 45t11 45t31 31t46 11t46 -11t31.5 -31t11.5 -45t-11.5 -45t-31.5 -31t-46 -11t-46 11z" />
    <glyph glyph-name="exclamdown.case" horiz-adv-x="313" 
d="M202.5 708q20.5 -11 31.5 -31t11 -45t-11 -45t-31.5 -31t-46.5 -11q-25 0 -45 11t-31.5 31t-11.5 45t11.5 45t31.5 31t45 11q26 0 46.5 -11zM233 -4h-153l21 488h112z" />
    <glyph glyph-name="questiondown.case" horiz-adv-x="525" 
d="M321 713q20 -11 31.5 -31t11.5 -45t-11.5 -45t-31.5 -31t-46 -11t-46 11t-31 31t-11 45t11 45t31 31t46 11t46 -11zM242.5 313q-32.5 -57 -44.5 -88t-12 -57q0 -36 19 -55.5t63 -19.5q35 0 54 12t25.5 33t6.5 52h136q0 -99 -54.5 -152.5t-173.5 -53.5q-71 0 -121.5 21.5
t-76.5 61.5t-26 96q0 32 11.5 65.5t43 90t100.5 170.5h155q-73 -119 -105.5 -176z" />
    <glyph glyph-name="periodcentered.case" horiz-adv-x="313" 
d="M110 299q-20 11 -31 31t-11 45t11 45t31 31t46 11t46 -11t31.5 -31t11.5 -45t-11.5 -45t-31.5 -31t-46 -11t-46 11z" />
    <glyph glyph-name="periodcentered.loclCAT.case" horiz-adv-x="82" 
d="M-94 333q-20 11 -31 31t-11 45t11 45t31 31t46 11t46 -11t31.5 -31t11.5 -45t-11.5 -45t-31.5 -31t-46 -11t-46 11z" />
    <glyph glyph-name="slash.case" horiz-adv-x="498" 
d="M344 756h137l-314 -806h-137z" />
    <glyph glyph-name="periodcentered.loclCAT" horiz-adv-x="177" 
d="M42 259q-20 11 -31 31t-11 45t11 45t31 31t46 11t46 -11t31.5 -31t11.5 -45t-11.5 -45t-31.5 -31t-46 -11t-46 11z" />
    <glyph glyph-name="uni208D" unicode="&#x208d;" horiz-adv-x="261" 
d="M85.5 -69.5q-19.5 63.5 -19.5 143.5q0 81 19.5 144t60.5 129h87q-40 -66 -61 -131.5t-21 -141.5t21 -141t61 -132h-87q-41 66 -60.5 129.5z" />
    <glyph glyph-name="uni208E" unicode="&#x208e;" horiz-adv-x="261" 
d="M27 -199q41 67 62 132t21 141t-21.5 142t-61.5 131h88q41 -66 60.5 -129t19.5 -144q0 -80 -19.5 -143.5t-60.5 -129.5h-88z" />
    <glyph glyph-name="uni207D" unicode="&#x207d;" horiz-adv-x="261" 
d="M85.5 488.5q-19.5 63.5 -19.5 143.5q0 81 19.5 144t60.5 129h87q-40 -66 -61 -131.5t-21 -141.5t21 -141t61 -132h-87q-41 66 -60.5 129.5z" />
    <glyph glyph-name="uni207E" unicode="&#x207e;" horiz-adv-x="261" 
d="M27 359q41 67 62 132t21 141t-21.5 142t-61.5 131h88q41 -66 60.5 -129t19.5 -144q0 -80 -19.5 -143.5t-60.5 -129.5h-88z" />
    <glyph glyph-name="parenleft.case" horiz-adv-x="416" 
d="M143 95q-34 115 -34 258t34 258.5t102 234.5h125q-68 -116 -103.5 -235t-35.5 -258t35.5 -258t103.5 -234h-125q-68 119 -102 234z" />
    <glyph glyph-name="parenright.case" horiz-adv-x="416" 
d="M46 -139q68 115 103 233.5t35 258.5t-35 259t-103 234h124q69 -119 103 -234.5t34 -258.5q0 -142 -34 -257.5t-103 -234.5h-124z" />
    <glyph glyph-name="braceleft.case" horiz-adv-x="389" 
d="M236 390q-20 -29 -66 -37q46 -8 66 -36t20 -86v-178q0 -33 7.5 -52.5t28 -29.5t57.5 -10h14v-100h-61q-78 0 -118 44.5t-40 118.5v179q1 36 -7.5 56t-29 28.5t-57.5 8.5v114q37 0 57.5 9t29 29t7.5 55v179q0 75 40 119.5t118 44.5h61v-100h-14q-37 0 -57.5 -10t-28 -29.5
t-7.5 -52.5v-177q0 -58 -20 -87z" />
    <glyph glyph-name="braceright.case" horiz-adv-x="389" 
d="M253 447.5q8 -19.5 28.5 -28.5t57.5 -9v-114q-37 0 -57 -8.5t-28.5 -28.5t-8.5 -56v-179q0 -74 -40 -118.5t-118 -44.5h-61v100h14q37 0 57.5 10t28 29.5t7.5 52.5v178q0 58 20 86t67 36q-46 7 -66.5 36t-20.5 88v177q0 33 -7.5 52.5t-28 29.5t-57.5 10h-14v100h61
q78 0 118 -44.5t40 -119.5v-179q0 -36 8 -55.5z" />
    <glyph glyph-name="bracketleft.case" horiz-adv-x="390" 
d="M137 846h227v-105h-109v-775h109v-105h-227v985z" />
    <glyph glyph-name="bracketright.case" horiz-adv-x="390" 
d="M26 -139v105h109v775h-109v105h227v-985h-227z" />
    <glyph glyph-name="uni00AD" unicode="&#xad;" horiz-adv-x="404" 
d="M55 350h293v-117h-293v117z" />
    <glyph glyph-name="endash" unicode="&#x2013;" horiz-adv-x="499" 
d="M55 352h389v-118h-389v118z" />
    <glyph glyph-name="emdash" unicode="&#x2014;" horiz-adv-x="968" 
d="M55 352h857v-118h-857v118z" />
    <glyph glyph-name="uni2011" unicode="&#x2011;" horiz-adv-x="404" 
d="M55 350h293v-117h-293v117z" />
    <glyph glyph-name="hyphen.case" horiz-adv-x="404" 
d="M55 428h293v-117h-293v117z" />
    <glyph glyph-name="uni00AD.case" horiz-adv-x="404" 
d="M55 428h293v-117h-293v117z" />
    <glyph glyph-name="endash.case" horiz-adv-x="499" 
d="M55 430h389v-118h-389v118z" />
    <glyph glyph-name="emdash.case" horiz-adv-x="968" 
d="M55 430h857v-118h-857v118z" />
    <glyph glyph-name="quotesinglbase" unicode="&#x201a;" horiz-adv-x="287" 
d="M106 146h143l-104 -282h-107z" />
    <glyph glyph-name="quotedblbase" unicode="&#x201e;" horiz-adv-x="501" 
d="M320 146h143l-104 -282h-107zM106 146h143l-104 -282h-107z" />
    <glyph glyph-name="quotedblleft" unicode="&#x201c;" horiz-adv-x="501" 
d="M181 424h-143l105 282h106zM395 424h-143l104 282h107z" />
    <glyph glyph-name="quotedblright" unicode="&#x201d;" horiz-adv-x="501" 
d="M320 706h143l-104 -282h-107zM106 706h143l-104 -282h-107z" />
    <glyph glyph-name="quoteleft" unicode="&#x2018;" horiz-adv-x="287" 
d="M181 424h-143l105 282h106z" />
    <glyph glyph-name="quoteright" unicode="&#x2019;" horiz-adv-x="287" 
d="M106 706h143l-104 -282h-107z" />
    <glyph glyph-name="guillemotleft" unicode="&#xab;" horiz-adv-x="570" 
d="M21 287l145 164h143l-145 -164l145 -164h-143zM263 287l145 164h143l-145 -164l145 -164h-143z" />
    <glyph glyph-name="guillemotright" unicode="&#xbb;" horiz-adv-x="570" 
d="M18 123l146 164l-146 164h143l145 -164l-145 -164h-143zM260 123l146 164l-146 164h143l145 -164l-145 -164h-143z" />
    <glyph glyph-name="guilsinglleft" unicode="&#x2039;" horiz-adv-x="328" 
d="M21 287l145 164h143l-145 -164l145 -164h-143z" />
    <glyph glyph-name="guilsinglright" unicode="&#x203a;" horiz-adv-x="328" 
d="M18 123l146 164l-146 164h143l145 -164l-145 -164h-143z" />
    <glyph glyph-name="guillemotleft.case" horiz-adv-x="570" 
d="M21 365l145 164h143l-145 -164l145 -164h-143zM263 365l145 164h143l-145 -164l145 -164h-143z" />
    <glyph glyph-name="guillemotright.case" horiz-adv-x="570" 
d="M18 201l146 164l-146 164h143l145 -164l-145 -164h-143zM260 201l146 164l-146 164h143l145 -164l-145 -164h-143z" />
    <glyph glyph-name="guilsinglleft.case" horiz-adv-x="328" 
d="M21 365l145 164h143l-145 -164l145 -164h-143z" />
    <glyph glyph-name="guilsinglright.case" horiz-adv-x="328" 
d="M18 201l146 164l-146 164h143l145 -164l-145 -164h-143z" />
    <glyph glyph-name="periodcentered.loclCAT.sc" horiz-adv-x="106" 
d="M-59 287q-20 11 -31 31t-11 45t11 45t31 31t46 11t46 -11t31.5 -31t11.5 -45t-11.5 -45t-31.5 -31t-46 -11t-46 11z" />
    <glyph glyph-name="slash.sc" horiz-adv-x="497" 
d="M314 638h137l-267 -688h-138z" />
    <glyph glyph-name="uni00A0" unicode="&#xa0;" horiz-adv-x="184" 
 />
    <glyph glyph-name="uni2009" unicode="&#x2009;" horiz-adv-x="74" 
 />
    <glyph glyph-name="uniFEFF" unicode="&#xfeff;" 
 />
    <glyph glyph-name="cent" unicode="&#xa2;" horiz-adv-x="558" 
d="M361 238q17 23 18 55h141q-3 -58 -30 -101t-72.5 -67.5t-103.5 -29.5v-95h-62v95q-73 7 -121 43t-71 91.5t-23 124.5t23 124.5t71.5 91t120.5 42.5v94h62v-93q60 -5 105.5 -30t72 -67.5t29.5 -100.5h-142q-2 34 -19.5 56t-47.5 29v-292q32 7 49 30zM196.5 257
q17.5 -38 58.5 -49v292q-43 -10 -59.5 -48t-16.5 -98q0 -59 17.5 -97z" />
    <glyph glyph-name="currency" unicode="&#xa4;" horiz-adv-x="580" 
d="M508.5 262.5q-15.5 -42.5 -45.5 -73.5l85 -109h-104l-49 62q-46 -20 -105 -20q-60 0 -106 20l-49 -62h-103l85 108q-30 32 -45.5 74t-15.5 91q0 48 15.5 91t45.5 74l-85 107h104l48 -61q48 20 106 20q60 0 106 -20l48 61h104l-85 -107q30 -32 45.5 -75t15.5 -90
q0 -48 -15.5 -90.5zM199.5 261q31.5 -35 90.5 -35q41 0 68 16.5t40.5 45.5t13.5 65q0 58 -31.5 93t-90.5 35q-61 0 -91.5 -35.5t-30.5 -92.5t31.5 -92z" />
    <glyph glyph-name="Euro" unicode="&#x20ac;" horiz-adv-x="752" 
d="M712 255q-1 -82 -40.5 -143.5t-108 -95t-153.5 -33.5q-141 0 -220.5 73.5t-101.5 197.5h-52v67h45q-1 11 -1 32q0 25 1 38h-45v67h53q23 121 102.5 193t217.5 72q87 0 154.5 -34t106 -96.5t40.5 -145.5h-155q-1 72 -41.5 111.5t-111.5 39.5q-130 0 -158 -140h213v-67
h-221q-1 -12 -1 -37q0 -22 1 -33h221v-67h-214q12 -69 49.5 -107t110.5 -38q75 0 113.5 37.5t41.5 108.5h154z" />
    <glyph glyph-name="florin" unicode="&#x192;" horiz-adv-x="397" 
d="M51 -6q-19 2 -33 6v110q24 -7 44 -7q70 0 70 70v194h-111v72h111v117q0 86 42.5 125.5t135.5 39.5q35 0 70 -7v-110q-20 7 -47 7q-35 0 -51 -18.5t-16 -55.5v-98h111v-72h-111v-210q0 -86 -42.5 -125.5t-136.5 -39.5q-17 0 -36 2z" />
    <glyph glyph-name="uni20BA" unicode="&#x20ba;" horiz-adv-x="609" 
d="M587 306q0 -99 -26 -166t-88.5 -103.5t-169.5 -36.5h-195v248l-72 -33v77l72 34v85l-72 -33v77l72 34v217h144v-160l175 80v-77l-175 -79v-85l175 79v-78l-175 -79v-185h36q66 0 102 22t48.5 61.5t12.5 100.5h136z" />
    <glyph glyph-name="uni20BC" unicode="&#x20bc;" horiz-adv-x="836" 
d="M649 576.5q58 -34.5 82.5 -95.5t24.5 -151v-330h-146v336q0 49 -9.5 83.5t-36 56t-73.5 25.5v-501h-146v501q-47 -4 -73 -25.5t-35.5 -56t-9.5 -83.5v-336h-147v330q0 90 24.5 151t83 95.5t157.5 38.5v91h146v-91q100 -4 158 -38.5z" />
    <glyph glyph-name="uni20B9" unicode="&#x20b9;" horiz-adv-x="673" 
d="M489 313q-48 -46 -144 -51l232 -262h-171l-302 350h172q61 0 90.5 23t34.5 68h-336v72h335q-7 43 -33.5 64.5t-80.5 21.5h-222v107h590v-72h-161q45 -42 51 -121h111v-72h-111q-7 -82 -55 -128z" />
    <glyph glyph-name="sterling" unicode="&#xa3;" horiz-adv-x="644" 
d="M605 258q-1 -85 -23 -141.5t-75.5 -86.5t-145.5 -30h-325v108h74v213h-74v73h74v59q0 90 23.5 149t79 90t150.5 31q90 0 143 -31t75.5 -88t22.5 -140h-136q-1 48 -9.5 79t-31.5 48.5t-64 17.5q-43 0 -66.5 -18.5t-32 -51t-8.5 -80.5v-65h170v-73h-170v-213h74
q55 0 85.5 17t42.5 49.5t12 83.5h135z" />
    <glyph glyph-name="yen" unicode="&#xa5;" horiz-adv-x="603" 
d="M385 345h159v-67h-167v-72h167v-67h-167v-139h-149v139h-169v67h169v72h-169v67h161l-213 361h161l136 -249l138 249h154z" />
    <glyph glyph-name="cent.ss06" horiz-adv-x="560" 
d="M347.5 232.5q22.5 23.5 24.5 60.5h151q-2 -55 -26 -96t-65.5 -66.5t-95.5 -33.5v-97h-100v96q-67 10 -111.5 46t-66 90.5t-21.5 120.5q0 67 22 122t66.5 90.5t110.5 45.5v95h100v-95q54 -8 95.5 -33.5t65.5 -67t26 -95.5h-151q-2 40 -25 62t-62 22q-55 0 -78.5 -40
t-23.5 -106q0 -144 102 -144q40 0 62.5 23.5z" />
    <glyph glyph-name="dollar.ss06" horiz-adv-x="626" 
d="M533 56.5q-57 -58.5 -165 -70.5v-98h-108v98q-114 12 -169.5 75t-55.5 159h162q0 -59 26.5 -91.5t91.5 -32.5q57 0 86 25t29 67q0 33 -19.5 53.5t-57 35.5t-116.5 40q-61 19 -101.5 44t-62.5 62t-22 89q0 55 24 99.5t70.5 73t113.5 35.5v97h107v-98q96 -14 144.5 -73
t48.5 -150h-152q0 56 -24 87t-81 31q-49 0 -75.5 -22.5t-26.5 -59.5q0 -30 19 -49t53 -31.5t109 -34.5q73 -22 117.5 -46.5t68 -63t23.5 -98.5q0 -94 -57 -152.5z" />
    <glyph glyph-name="uni2219" unicode="&#x2219;" horiz-adv-x="589" 
d="M248 293q-20 11 -31 31t-11 45t11 45t31 31t46 11t46 -11t31.5 -31t11.5 -45t-11.5 -45t-31.5 -31t-46 -11t-46 11z" />
    <glyph glyph-name="uni2215" unicode="&#x2215;" horiz-adv-x="589" 
d="M420 706h126l-292 -706h-126z" />
    <glyph glyph-name="uni208C" unicode="&#x208c;" horiz-adv-x="355" 
d="M34 164h287v-67h-287v67zM34 55h287v-68h-287v68z" />
    <glyph glyph-name="uni207C" unicode="&#x207c;" horiz-adv-x="355" 
d="M34 722h287v-67h-287v67zM34 613h287v-68h-287v68z" />
    <glyph glyph-name="uni208B" unicode="&#x208b;" horiz-adv-x="357" 
d="M34 115h290v-78h-290v78z" />
    <glyph glyph-name="uni207B" unicode="&#x207b;" horiz-adv-x="357" 
d="M34 673h290v-78h-290v78z" />
    <glyph glyph-name="minus" unicode="&#x2212;" horiz-adv-x="589" 
d="M55 346h478v-109h-478v109z" />
    <glyph glyph-name="multiply" unicode="&#xd7;" horiz-adv-x="589" 
d="M370 292l147 -147l-76 -77l-147 148l-147 -147l-75 76l146 147l-146 147l75 76l147 -147l147 147l76 -76z" />
    <glyph glyph-name="divide" unicode="&#xf7;" horiz-adv-x="589" 
d="M245.5 437.5q-18.5 18.5 -18.5 48.5t18.5 48t49.5 18q29 0 47.5 -18t18.5 -48t-18.5 -48.5t-47.5 -18.5q-31 0 -49.5 18.5zM55 346h478v-109h-478v109zM245.5 49.5q-18.5 18.5 -18.5 47.5q0 31 18.5 48.5t49.5 17.5q29 0 47.5 -18t18.5 -48q0 -29 -18.5 -47.5
t-47.5 -18.5q-31 0 -49.5 18.5z" />
    <glyph glyph-name="notequal" unicode="&#x2260;" horiz-adv-x="589" 
d="M371 337l-60 -91h222v-109h-286l-69 -105h-77l68 105h-114v109h178l61 91h-239v108h302l69 106h78l-68 -106h97v-108h-162z" />
    <glyph glyph-name="greaterequal" unicode="&#x2265;" horiz-adv-x="589" 
d="M533 443v-168l-478 -107v112l404 80l-404 79v113zM55 141h478v-110h-478v110z" />
    <glyph glyph-name="lessequal" unicode="&#x2264;" horiz-adv-x="589" 
d="M533 439l-403 -79l403 -80v-112l-477 107v168l477 109v-113zM55 141h478v-110h-478v110z" />
    <glyph glyph-name="plusminus" unicode="&#xb1;" horiz-adv-x="589" 
d="M533 420v-109h-183v-135h-112v135h-183v109h183v132h112v-132h183zM55 140h478v-109h-478v109z" />
    <glyph glyph-name="approxequal" unicode="&#x2248;" horiz-adv-x="589" 
d="M342 317.5q-21 7.5 -36 16t-20 10.5q-23 14 -36.5 19.5t-30.5 5.5q-23 0 -34 -14t-14 -42h-92q5 77 33.5 117t86.5 40q29 0 50.5 -8t53.5 -25q21 -13 35.5 -19t30.5 -6q22 0 33.5 13.5t13.5 40.5h93q-5 -77 -33.5 -116.5t-86.5 -39.5q-26 0 -47 7.5zM338 121.5
q-22 8.5 -52 25.5q-5 2 -18.5 10t-25 11.5t-23.5 3.5q-23 0 -34 -14.5t-14 -41.5h-92q5 76 33.5 116t86.5 40q29 0 51.5 -8t52.5 -24q23 -14 36.5 -20t29.5 -6q23 0 34 14t13 41h93q-5 -78 -33.5 -117t-86.5 -39q-29 0 -51 8.5z" />
    <glyph glyph-name="logicalnot" unicode="&#xac;" horiz-adv-x="589" 
d="M422 328h-367v108h478v-385h-111v277z" />
    <glyph glyph-name="infinity" unicode="&#x221e;" horiz-adv-x="830" 
d="M708 433q43 -29 64 -77.5t21 -107.5t-20.5 -107.5t-63.5 -77.5t-106 -29t-107 30t-81 84q-38 -54 -82 -84t-106 -30q-63 0 -106 29t-63.5 78t-20.5 107q0 59 21 107.5t64 77.5t105 29t106 -30t82 -84q37 54 81.5 84t106.5 30t105 -29zM299.5 178.5q24.5 23.5 49.5 69.5
q-25 46 -49.5 69.5t-58.5 23.5q-37 0 -55.5 -26t-18.5 -67t19 -67t55 -26q34 0 58.5 23.5zM644 181q19 26 19 67t-18.5 67t-55.5 26q-34 0 -58.5 -23.5t-49.5 -69.5q25 -46 49.5 -69.5t58.5 -23.5q36 0 55 26z" />
    <glyph glyph-name="integral" unicode="&#x222b;" horiz-adv-x="388" 
d="M0 -201l22 118q14 -1 33 -1q26 0 39.5 13t16.5 40l43 579q7 84 47.5 123.5t123.5 39.5q38 0 63 -5l-24 -121q-14 2 -22 2q-46 0 -50 -55l-45 -579q-7 -83 -47 -121.5t-123 -38.5q-47 0 -77 6z" />
    <glyph glyph-name="Omega" unicode="&#x2126;" horiz-adv-x="718" 
d="M512 109h144v-109h-256v251q66 10 95.5 60t29.5 122q0 83 -40 131t-126 48t-126 -49t-40 -130q0 -73 30.5 -122.5t95.5 -59.5v-251h-256v109h143v55q-83 32 -122.5 103t-39.5 166q0 88 34 153t104.5 101t176.5 36q107 0 177 -36t104 -101t34 -153q0 -96 -39.5 -167
t-122.5 -102v-55z" />
    <glyph glyph-name="Delta" unicode="&#x2206;" horiz-adv-x="680" 
d="M674 0h-668l224 706h220zM488 114l-147 483h-2l-146 -483h295z" />
    <glyph glyph-name="product" unicode="&#x220f;" horiz-adv-x="728" 
d="M80 706h567v-907h-146v785h-274v-785h-147v907z" />
    <glyph glyph-name="summation" unicode="&#x2211;" horiz-adv-x="596" 
d="M262 270l-225 436h472v-121h-245l157 -315l-166 -349h271v-121h-495z" />
    <glyph glyph-name="radical" unicode="&#x221a;" horiz-adv-x="714" 
d="M708 706l-290 -909h-154l-159 430l-95 -29v138l196 53l135 -408l215 725h152z" />
    <glyph glyph-name="mu" unicode="&#xb5;" horiz-adv-x="586" 
d="M519 496v-496h-133v67q-21 -39 -55.5 -59.5t-80.5 -20.5q-32 0 -57 11q8 -62 8 -122v-78h-134v698h134v-287q0 -57 21 -82.5t66 -25.5q96 0 96 109v286h135z" />
    <glyph glyph-name="partialdiff" unicode="&#x2202;" horiz-adv-x="627" 
d="M529.5 623.5q66.5 -99.5 66.5 -262.5q0 -109 -30 -193.5t-97 -134.5t-175 -50q-88 0 -148 33t-90 90t-30 129q0 68 26 119.5t77.5 80.5t126.5 29q69 0 118.5 -25.5t75.5 -69.5v8q0 105 -32 169.5t-115 64.5q-49 0 -78.5 -26.5t-38.5 -67.5h-141q10 63 43.5 109.5
t89.5 71.5t130 25q155 0 221.5 -99.5zM373 116.5q28 17.5 41 47t13 65.5q0 59 -32.5 95t-94.5 36t-92.5 -36t-30.5 -93q0 -59 31 -95.5t94 -36.5q43 0 71 17.5z" />
    <glyph glyph-name="perthousand" unicode="&#x2030;" horiz-adv-x="1139" 
d="M73 436q-35 43 -35 118q0 73 35 116.5t111 43.5q77 0 111 -44t34 -116q0 -75 -34.5 -118t-110.5 -43t-111 43zM573 706h101l-475 -706h-102zM228 491.5q11 20.5 11 62.5q0 43 -11.5 62.5t-43.5 19.5q-23 0 -35 -10t-16 -27.5t-4 -44.5q0 -28 4 -45.5t16 -27.5t35 -10
q33 0 44 20.5zM477 35.5q-35 43.5 -35 118.5q0 73 35 116.5t111 43.5q77 0 111 -44t34 -116q0 -75 -34.5 -118.5t-110.5 -43.5t-111 43.5zM844.5 35.5q-35.5 43.5 -35.5 118.5q0 73 35.5 116.5t111.5 43.5q77 0 111 -44t34 -116q0 -75 -34.5 -118.5t-110.5 -43.5
t-111.5 43.5zM632 91.5q11 20.5 11 62.5q0 43 -11.5 62.5t-43.5 19.5q-23 0 -35 -10t-16 -27.5t-4 -44.5q0 -28 4 -45.5t16 -27.5t35 -10q33 0 44 20.5zM990.5 81q11.5 10 15.5 27.5t4 45.5q0 43 -11 62.5t-43 19.5q-24 0 -36 -10t-15.5 -27.5t-3.5 -44.5q0 -29 3.5 -46
t15.5 -27t36 -10q23 0 34.5 10z" />
    <glyph glyph-name="uni208A" unicode="&#x208a;" horiz-adv-x="357" 
d="M324 37h-107v-99h-78v99h-105v78h105v99h78v-99h107v-78z" />
    <glyph glyph-name="uni207A" unicode="&#x207a;" horiz-adv-x="357" 
d="M324 595h-107v-99h-78v99h-105v78h105v99h78v-99h107v-78z" />
    <glyph glyph-name="lozenge" unicode="&#x25ca;" horiz-adv-x="557" 
d="M21 253l179 453h158l178 -453l-178 -454h-158zM396 253l-117 315l-116 -315l116 -317z" />
    <glyph glyph-name="paragraph" unicode="&#xb6;" horiz-adv-x="718" 
d="M299 278h-60q-117 0 -167 56.5t-50 158.5q0 104 51.5 158.5t173.5 54.5h450v-114h-66v-793h-122v793h-89v-793h-121v479z" />
    <glyph glyph-name="section" unicode="&#xa7;" horiz-adv-x="523" 
d="M451.5 51q27.5 -36 27.5 -94q0 -83 -56.5 -127t-161.5 -44q-113 0 -165 45.5t-52 132.5h137q0 -40 18.5 -61t61.5 -21q41 0 59 17.5t18 49.5q0 30 -14.5 49t-37.5 30.5t-67 28.5q-60 23 -96.5 45t-57.5 56.5t-21 86.5q0 57 32.5 96t93.5 56q-36 19 -61 40t-40 50t-15 69
q0 53 25 90.5t72 57t113 19.5q101 0 154 -44t53 -126h-133q0 75 -77 75q-37 0 -55.5 -16.5t-18.5 -45.5q0 -27 16 -45.5t38.5 -29.5t63.5 -27q64 -26 100.5 -50t55.5 -59t19 -90q0 -56 -28 -95t-80 -57q52 -26 79.5 -62zM193 310.5q-24 -20.5 -24 -55.5q0 -36 25 -57.5
t69 -21.5t67.5 21t23.5 57q0 38 -24.5 57.5t-67.5 19.5q-45 0 -69 -20.5z" />
    <glyph glyph-name="copyright" unicode="&#xa9;" horiz-adv-x="808" 
d="M207.5 33q-81.5 50 -122.5 134t-41 186t42.5 186.5t124 134t195.5 49.5q113 0 194 -49.5t122.5 -133.5t41.5 -187t-41.5 -187t-122.5 -133.5t-195 -49.5q-116 0 -197.5 50zM565.5 85q65.5 42 98.5 112t33 154q0 89 -32.5 160t-98.5 111.5t-160 40.5q-96 0 -162.5 -41
t-100 -111t-33.5 -157q0 -86 33.5 -156.5t100 -112.5t161.5 -42t160.5 42zM288 139.5q-51 30.5 -79 88.5q-23 52 -23 126t23 126q26 57 77.5 87.5t120.5 30.5q91 0 148 -52q29 -26 44 -61t15 -75h-122q-2 17 -6.5 30t-13.5 25q-23 29 -68 29q-29 0 -50 -12.5t-31 -37.5
q-8 -17 -11 -37t-3 -52q0 -29 3 -50.5t11 -37.5q23 -51 82 -51q25 0 41.5 8t27.5 24q10 13 14 24.5t5 26.5h123q0 -43 -15 -78t-44 -60q-57 -52 -148 -52q-70 0 -121 30.5z" />
    <glyph glyph-name="registered" unicode="&#xae;" horiz-adv-x="489" 
d="M360.5 693q46.5 -27 69 -74t22.5 -107t-23 -107t-69.5 -74t-114.5 -27q-69 0 -115.5 27.5t-69.5 74.5t-23 106q0 60 23.5 107t70 74t114.5 27q69 0 115.5 -27zM363.5 393q37.5 44 37.5 119q0 76 -37 119.5t-119 43.5q-83 0 -120 -44.5t-37 -118.5t38 -118.5t119 -44.5
t118.5 44zM311 501q31 -13 31 -53v-51h-66v47q0 18 -7.5 25.5t-27.5 7.5h-28v-80h-66v230h111q44 0 65.5 -17t21.5 -51q0 -45 -34 -58zM243 526q19 0 27.5 6.5t8.5 20.5q0 26 -36 26h-30v-53h30z" />
    <glyph glyph-name="uni2117" unicode="&#x2117;" horiz-adv-x="808" 
d="M207.5 33q-81.5 50 -122.5 134t-41 186t42.5 186.5t124 134t195.5 49.5q113 0 194 -49.5t122.5 -133.5t41.5 -187t-41.5 -187t-122.5 -133.5t-195 -49.5q-116 0 -197.5 50zM565.5 85q65.5 42 98.5 112t33 154q0 89 -32.5 160t-98.5 111.5t-160 40.5q-96 0 -162.5 -41
t-100 -111t-33.5 -157q0 -86 33.5 -156.5t100 -112.5t161.5 -42t160.5 42zM256 588h188q104 0 138 -73q13 -32 13 -73q0 -43 -13 -74q-34 -72 -138 -72h-74v-175h-114v467zM418 382q41 0 52 27q4 6 5 14.5t1 18.5t-1 18.5t-5 14.5q-6 14 -19 20t-33 6h-48v-119h48z" />
    <glyph glyph-name="trademark" unicode="&#x2122;" horiz-adv-x="685" 
d="M79 631h-66v75h221v-75h-65v-235h-90v235zM266 706h107l79 -187l79 187h105v-310h-85v186l-79 -186h-41l-80 186v-186h-85v310z" />
    <glyph glyph-name="degree" unicode="&#xb0;" horiz-adv-x="359" 
d="M103.5 447q-35.5 19 -55.5 52.5t-20 75.5q0 43 20 76.5t55.5 52.5t81.5 19t82 -19t56.5 -52.5t20.5 -76.5q0 -42 -20.5 -75.5t-56.5 -52.5t-82 -19t-81.5 19zM229.5 532q16.5 16 16.5 43q0 28 -16.5 45t-43.5 17t-43.5 -17t-16.5 -45q0 -27 16.5 -43t43.5 -16t43.5 16z
" />
    <glyph glyph-name="brokenbar" unicode="&#xa6;" horiz-adv-x="433" 
d="M145 756h143v-328h-143v328zM145 128h143v-329h-143v329z" />
    <glyph glyph-name="dagger" unicode="&#x2020;" horiz-adv-x="431" 
d="M400 427h-113v-427h-142v427h-114v124h114v155h142v-155h113v-124z" />
    <glyph glyph-name="uni2113" unicode="&#x2113;" horiz-adv-x="484" 
d="M242.5 124q25.5 -20 76.5 -20q53 0 100 19v-110q-29 -10 -63 -15.5t-67 -5.5q-203 0 -219 185q-16 -1 -50 -1v99q34 0 49 1v186q0 90 19.5 145t61.5 81t111 26t110.5 -23t61 -71.5t19.5 -125.5q0 -87 -24.5 -147.5t-78 -99t-139.5 -55.5q7 -48 32.5 -68zM207 295
q41 13 64 38t32.5 63.5t9.5 97.5q0 50 -6 76.5t-17.5 36.5t-29.5 10q-19 0 -30.5 -9.5t-17 -32.5t-5.5 -64v-216z" />
    <glyph glyph-name="daggerdbl" unicode="&#x2021;" horiz-adv-x="431" 
d="M287 439v-172h113v-124h-113v-143h-142v143h-114v124h114v172h-114v124h114v143h142v-143h113v-124h-113z" />
    <glyph glyph-name="estimated" unicode="&#x212e;" horiz-adv-x="856" 
d="M246 32.5q-87 43.5 -139.5 121.5t-52.5 176q0 96 51 174t138 122.5t190 44.5q102 0 188.5 -45t138 -124.5t51.5 -177.5h-608q-6 0 -8 -2.5t-2 -8.5v-197q47 -51 110 -78.5t130 -27.5q73 0 139 32.5t113 88.5h57q-56 -68 -138 -105t-171 -37q-100 0 -187 43.5zM664 347
q5 0 7 2.5t2 8.5v184q-44 51 -108 79.5t-132 28.5q-70 0 -133 -28.5t-107 -78.5v-185q0 -6 2 -8.5t8 -2.5h461z" />
    <glyph glyph-name="paragraph.ss07" horiz-adv-x="720" 
d="M300 277h-58q-118 0 -169 57t-51 159q0 103 53 158t176 55h448v-113h-67v-794h-123v794h-88v-794h-121v478zM300 389v206h-51q-41 0 -64 -11.5t-32.5 -33.5t-9.5 -57q0 -53 23.5 -78.5t82.5 -25.5h51z" />
    <glyph glyph-name="uni02C9" unicode="&#x2c9;" horiz-adv-x="399" 
d="M50 688h299v-89h-299v89z" />
    <glyph glyph-name="dieresiscomb" unicode="&#x308;" 
d="M-365 582.5q-17 9.5 -27 26t-10 36.5t10 36.5t27 26t38 9.5t38 -9.5t26.5 -26t9.5 -36.5t-9.5 -36.5t-26.5 -26t-38 -9.5t-38 9.5zM-161 582.5q-17 9.5 -27 26t-10 36.5t10 36.5t27 26t38 9.5q20 0 37 -9.5t27 -26t10 -36.5t-10 -36.5t-27 -26t-37 -9.5q-21 0 -38 9.5z
" />
    <glyph glyph-name="dotaccentcomb" unicode="&#x307;" 
d="M-168 586.5q-18 9.5 -28 26.5t-10 38q0 33 22 54.5t56 21.5q22 0 39.5 -10t28 -27t10.5 -39q0 -21 -10.5 -38t-28 -26.5t-39.5 -9.5t-40 9.5z" />
    <glyph glyph-name="gravecomb" unicode="&#x300;" 
d="M-173 571l-103 156h137l89 -156h-123z" />
    <glyph glyph-name="acutecomb" unicode="&#x301;" 
d="M-186 727h136l-103 -156h-123z" />
    <glyph glyph-name="hungarumlautcomb" unicode="&#x30b;" 
d="M-336 728h117l-119 -157h-95zM-166 728h116l-118 -157h-95z" />
    <glyph glyph-name="caroncomb.alt" 
d="M-94 706h116l-39 -171h-102z" />
    <glyph glyph-name="circumflexcomb" unicode="&#x302;" 
d="M-312 728h162l100 -158h-123l-59 95l-57 -95h-124z" />
    <glyph glyph-name="caroncomb" unicode="&#x30c;" 
d="M-151 570h-162l-100 157h123l58 -94l58 94h124z" />
    <glyph glyph-name="brevecomb" unicode="&#x306;" 
d="M-398 728h100q4 -45 21.5 -65.5t53.5 -20.5t53 20.5t22 65.5h98q-8 -164 -173 -164q-166 0 -175 164z" />
    <glyph glyph-name="ringcomb" unicode="&#x30a;" 
d="M-248 566q-29 15 -45 42t-16 62q0 36 16 63t45 41.5t68 14.5t68.5 -15t45.5 -42t16 -62t-16 -62t-45.5 -42t-68.5 -15t-68 15zM-142 633.5q14 13.5 14 36.5t-14 37t-38 14q-23 0 -37 -14t-14 -37t14 -36.5t37 -13.5q24 0 38 13.5z" />
    </font>
</defs>
</svg>
